ISO-10303-21;
HEADER;
FILE_DESCRIPTION(('ArchDisc Geometry Kernel Export'),'2;1');
FILE_NAME('TYV6-FAS-LCK-0024.step','20260509T202410',('ArchDisc'),('ArchDisc Inc'),'ArchDisc Kernel 1.0','ArchDisc','');
FILE_SCHEMA(('AUTOMOTIVE_DESIGN'));
ENDSEC;
DATA;
#1=APPLICATION_CONTEXT('automotive design');
#2=APPLICATION_PROTOCOL_DEFINITION('international standard','automotive_design',2009,#1);
#3=PRODUCT_CONTEXT('',#1,'mechanical');
#4=PRODUCT('TYV6-FAS-LCK-0024','TYV6-FAS-LCK-0024','',(#3));
#5=PRODUCT_DEFINITION_FORMATION('','',#4);
#6=PRODUCT_DEFINITION_CONTEXT('design',#1,'design');
#7=PRODUCT_DEFINITION('design','',#5,#6);
#8=PRODUCT_DEFINITION_SHAPE('','',#7);
#9=(GEOMETRIC_REPRESENTATION_CONTEXT(3) GLOBAL_UNCERTAINTY_ASSIGNED_CONTEXT((#0)) GLOBAL_UNIT_ASSIGNED_CONTEXT((#0,#0,#0)) REPRESENTATION_CONTEXT('Context3D','');
#10=CARTESIAN_POINT('',(0.005,0,0));
#11=VERTEX_POINT('',#10);
#12=CARTESIAN_POINT('',(0.0025000000000000005,0,0.004330127018922193));
#13=VERTEX_POINT('',#12);
#14=CARTESIAN_POINT('',(0.0025000000000000005,0.005,0.004330127018922193));
#15=VERTEX_POINT('',#14);
#16=CARTESIAN_POINT('',(0.005,0.005,0));
#17=VERTEX_POINT('',#16);
#18=CARTESIAN_POINT('',(-0.0024999999999999988,0,0.004330127018922193));
#19=VERTEX_POINT('',#18);
#20=CARTESIAN_POINT('',(-0.0024999999999999988,0.005,0.004330127018922193));
#21=VERTEX_POINT('',#20);
#22=CARTESIAN_POINT('',(-0.005,0,6.123233995736766e-19));
#23=VERTEX_POINT('',#22);
#24=CARTESIAN_POINT('',(-0.005,0.005,6.123233995736766e-19));
#25=VERTEX_POINT('',#24);
#26=CARTESIAN_POINT('',(-0.0025000000000000022,0,-0.004330127018922192));
#27=VERTEX_POINT('',#26);
#28=CARTESIAN_POINT('',(-0.0025000000000000022,0.005,-0.004330127018922192));
#29=VERTEX_POINT('',#28);
#30=CARTESIAN_POINT('',(0.0025000000000000005,0,-0.004330127018922193));
#31=VERTEX_POINT('',#30);
#32=CARTESIAN_POINT('',(0.0025000000000000005,0.005,-0.004330127018922193));
#33=VERTEX_POINT('',#32);
#34=CARTESIAN_POINT('',(0,0,0));
#35=VERTEX_POINT('',#34);
#36=CARTESIAN_POINT('',(0,0.005,0));
#37=VERTEX_POINT('',#36);
#38=CARTESIAN_POINT('',(0.005,0,0));
#39=DIRECTION('',(-0.4999999999999999,0,0.8660254037844386));
#40=VECTOR('',#39,0.005);
#41=LINE('',#38,#40);
#42=EDGE_CURVE('',#11,#13,#41,.T.);
#43=CARTESIAN_POINT('',(0.0025000000000000005,0,0.004330127018922193));
#44=DIRECTION('',(0,1,0));
#45=VECTOR('',#44,0.005);
#46=LINE('',#43,#45);
#47=EDGE_CURVE('',#13,#15,#46,.T.);
#48=CARTESIAN_POINT('',(0.005,0.005,0));
#49=DIRECTION('',(-0.4999999999999999,0,0.8660254037844386));
#50=VECTOR('',#49,0.005);
#51=LINE('',#48,#50);
#52=EDGE_CURVE('',#17,#15,#51,.T.);
#53=CARTESIAN_POINT('',(0.005,0,0));
#54=DIRECTION('',(0,1,0));
#55=VECTOR('',#54,0.005);
#56=LINE('',#53,#55);
#57=EDGE_CURVE('',#11,#17,#56,.T.);
#58=CARTESIAN_POINT('',(0.0025000000000000005,0,0.004330127018922193));
#59=DIRECTION('',(-1,0,0));
#60=VECTOR('',#59,0.004999999999999999);
#61=LINE('',#58,#60);
#62=EDGE_CURVE('',#13,#19,#61,.T.);
#63=CARTESIAN_POINT('',(-0.0024999999999999988,0,0.004330127018922193));
#64=DIRECTION('',(0,1,0));
#65=VECTOR('',#64,0.005);
#66=LINE('',#63,#65);
#67=EDGE_CURVE('',#19,#21,#66,.T.);
#68=CARTESIAN_POINT('',(0.0025000000000000005,0.005,0.004330127018922193));
#69=DIRECTION('',(-1,0,0));
#70=VECTOR('',#69,0.004999999999999999);
#71=LINE('',#68,#70);
#72=EDGE_CURVE('',#15,#21,#71,.T.);
#73=CARTESIAN_POINT('',(-0.0024999999999999988,0,0.004330127018922193));
#74=DIRECTION('',(-0.5000000000000002,0,-0.8660254037844385));
#75=VECTOR('',#74,0.005);
#76=LINE('',#73,#75);
#77=EDGE_CURVE('',#19,#23,#76,.T.);
#78=CARTESIAN_POINT('',(-0.005,0,6.123233995736766e-19));
#79=DIRECTION('',(0,1,0));
#80=VECTOR('',#79,0.005);
#81=LINE('',#78,#80);
#82=EDGE_CURVE('',#23,#25,#81,.T.);
#83=CARTESIAN_POINT('',(-0.0024999999999999988,0.005,0.004330127018922193));
#84=DIRECTION('',(-0.5000000000000002,0,-0.8660254037844385));
#85=VECTOR('',#84,0.005);
#86=LINE('',#83,#85);
#87=EDGE_CURVE('',#21,#25,#86,.T.);
#88=CARTESIAN_POINT('',(-0.005,0,6.123233995736766e-19));
#89=DIRECTION('',(0.49999999999999967,0,-0.8660254037844388));
#90=VECTOR('',#89,0.004999999999999999);
#91=LINE('',#88,#90);
#92=EDGE_CURVE('',#23,#27,#91,.T.);
#93=CARTESIAN_POINT('',(-0.0025000000000000022,0,-0.004330127018922192));
#94=DIRECTION('',(0,1,0));
#95=VECTOR('',#94,0.005);
#96=LINE('',#93,#95);
#97=EDGE_CURVE('',#27,#29,#96,.T.);
#98=CARTESIAN_POINT('',(-0.005,0.005,6.123233995736766e-19));
#99=DIRECTION('',(0.49999999999999967,0,-0.8660254037844388));
#100=VECTOR('',#99,0.004999999999999999);
#101=LINE('',#98,#100);
#102=EDGE_CURVE('',#25,#29,#101,.T.);
#103=CARTESIAN_POINT('',(-0.0025000000000000022,0,-0.004330127018922192));
#104=DIRECTION('',(1,0,-1.734723475976806e-16));
#105=VECTOR('',#104,0.005000000000000003);
#106=LINE('',#103,#105);
#107=EDGE_CURVE('',#27,#31,#106,.T.);
#108=CARTESIAN_POINT('',(0.0025000000000000005,0,-0.004330127018922193));
#109=DIRECTION('',(0,1,0));
#110=VECTOR('',#109,0.005);
#111=LINE('',#108,#110);
#112=EDGE_CURVE('',#31,#33,#111,.T.);
#113=CARTESIAN_POINT('',(-0.0025000000000000022,0.005,-0.004330127018922192));
#114=DIRECTION('',(1,0,-1.734723475976806e-16));
#115=VECTOR('',#114,0.005000000000000003);
#116=LINE('',#113,#115);
#117=EDGE_CURVE('',#29,#33,#116,.T.);
#118=CARTESIAN_POINT('',(0.0025000000000000005,0,-0.004330127018922193));
#119=DIRECTION('',(0.4999999999999999,0,0.8660254037844386));
#120=VECTOR('',#119,0.005);
#121=LINE('',#118,#120);
#122=EDGE_CURVE('',#31,#11,#121,.T.);
#123=CARTESIAN_POINT('',(0.0025000000000000005,0.005,-0.004330127018922193));
#124=DIRECTION('',(0.4999999999999999,0,0.8660254037844386));
#125=VECTOR('',#124,0.005);
#126=LINE('',#123,#125);
#127=EDGE_CURVE('',#33,#17,#126,.T.);
#128=CARTESIAN_POINT('',(0,0,0));
#129=DIRECTION('',(1,0,0));
#130=VECTOR('',#129,0.005);
#131=LINE('',#128,#130);
#132=EDGE_CURVE('',#35,#11,#131,.T.);
#133=CARTESIAN_POINT('',(0,0,0));
#134=DIRECTION('',(0.5000000000000001,0,0.8660254037844386));
#135=VECTOR('',#134,0.005);
#136=LINE('',#133,#135);
#137=EDGE_CURVE('',#35,#13,#136,.T.);
#138=CARTESIAN_POINT('',(0,0,0));
#139=DIRECTION('',(-0.49999999999999983,0,0.8660254037844388));
#140=VECTOR('',#139,0.004999999999999999);
#141=LINE('',#138,#140);
#142=EDGE_CURVE('',#35,#19,#141,.T.);
#143=CARTESIAN_POINT('',(0,0,0));
#144=DIRECTION('',(-1,0,1.2246467991473532e-16));
#145=VECTOR('',#144,0.005);
#146=LINE('',#143,#145);
#147=EDGE_CURVE('',#35,#23,#146,.T.);
#148=CARTESIAN_POINT('',(0,0,0));
#149=DIRECTION('',(-0.5000000000000004,0,-0.8660254037844385));
#150=VECTOR('',#149,0.005);
#151=LINE('',#148,#150);
#152=EDGE_CURVE('',#35,#27,#151,.T.);
#153=CARTESIAN_POINT('',(0,0,0));
#154=DIRECTION('',(0.5000000000000001,0,-0.8660254037844386));
#155=VECTOR('',#154,0.005);
#156=LINE('',#153,#155);
#157=EDGE_CURVE('',#35,#31,#156,.T.);
#158=CARTESIAN_POINT('',(0,0.005,0));
#159=DIRECTION('',(1,0,0));
#160=VECTOR('',#159,0.005);
#161=LINE('',#158,#160);
#162=EDGE_CURVE('',#37,#17,#161,.T.);
#163=CARTESIAN_POINT('',(0,0.005,0));
#164=DIRECTION('',(0.5000000000000001,0,0.8660254037844386));
#165=VECTOR('',#164,0.005);
#166=LINE('',#163,#165);
#167=EDGE_CURVE('',#37,#15,#166,.T.);
#168=CARTESIAN_POINT('',(0,0.005,0));
#169=DIRECTION('',(-0.49999999999999983,0,0.8660254037844388));
#170=VECTOR('',#169,0.004999999999999999);
#171=LINE('',#168,#170);
#172=EDGE_CURVE('',#37,#21,#171,.T.);
#173=CARTESIAN_POINT('',(0,0.005,0));
#174=DIRECTION('',(-1,0,1.2246467991473532e-16));
#175=VECTOR('',#174,0.005);
#176=LINE('',#173,#175);
#177=EDGE_CURVE('',#37,#25,#176,.T.);
#178=CARTESIAN_POINT('',(0,0.005,0));
#179=DIRECTION('',(-0.5000000000000004,0,-0.8660254037844385));
#180=VECTOR('',#179,0.005);
#181=LINE('',#178,#180);
#182=EDGE_CURVE('',#37,#29,#181,.T.);
#183=CARTESIAN_POINT('',(0,0.005,0));
#184=DIRECTION('',(0.5000000000000001,0,-0.8660254037844386));
#185=VECTOR('',#184,0.005);
#186=LINE('',#183,#185);
#187=EDGE_CURVE('',#37,#33,#186,.T.);
#188=CARTESIAN_POINT('',(0.0037500000000000007,0.0025,0.0021650635094610966));
#189=DIRECTION('',(-0.8660254037844387,0,-0.5));
#190=DIRECTION('',(0,-1,0));
#191=AXIS2_PLACEMENT_3D('',#188,#189,#190);
#192=PLANE('',#191);
#193=ORIENTED_EDGE('',*,*,#42,.T.);
#194=ORIENTED_EDGE('',*,*,#47,.T.);
#195=ORIENTED_EDGE('',*,*,#52,.F.);
#196=ORIENTED_EDGE('',*,*,#57,.F.);
#197=EDGE_LOOP('',(#193,#194,#195,#196));
#198=FACE_OUTER_BOUND('',#197,.T.);
#199=ADVANCED_FACE('',(#198),#192,.T.);
#200=CARTESIAN_POINT('',(8.673617379884035e-19,0.0025,0.004330127018922193));
#201=DIRECTION('',(0,0,-1));
#202=DIRECTION('',(1,0,0));
#203=AXIS2_PLACEMENT_3D('',#200,#201,#202);
#204=PLANE('',#203);
#205=ORIENTED_EDGE('',*,*,#62,.T.);
#206=ORIENTED_EDGE('',*,*,#67,.T.);
#207=ORIENTED_EDGE('',*,*,#72,.F.);
#208=ORIENTED_EDGE('',*,*,#47,.F.);
#209=EDGE_LOOP('',(#205,#206,#207,#208));
#210=FACE_OUTER_BOUND('',#209,.T.);
#211=ADVANCED_FACE('',(#210),#204,.T.);
#212=CARTESIAN_POINT('',(-0.0037499999999999994,0.0025,0.002165063509461097));
#213=DIRECTION('',(0.8660254037844385,0,-0.5000000000000002));
#214=DIRECTION('',(0,1,0));
#215=AXIS2_PLACEMENT_3D('',#212,#213,#214);
#216=PLANE('',#215);
#217=ORIENTED_EDGE('',*,*,#77,.T.);
#218=ORIENTED_EDGE('',*,*,#82,.T.);
#219=ORIENTED_EDGE('',*,*,#87,.F.);
#220=ORIENTED_EDGE('',*,*,#67,.F.);
#221=EDGE_LOOP('',(#217,#218,#219,#220));
#222=FACE_OUTER_BOUND('',#221,.T.);
#223=ADVANCED_FACE('',(#222),#216,.T.);
#224=CARTESIAN_POINT('',(-0.0037500000000000016,0.0025,-0.0021650635094610958));
#225=DIRECTION('',(0.8660254037844388,0,0.4999999999999997));
#226=DIRECTION('',(0,1,0));
#227=AXIS2_PLACEMENT_3D('',#224,#225,#226);
#228=PLANE('',#227);
#229=ORIENTED_EDGE('',*,*,#92,.T.);
#230=ORIENTED_EDGE('',*,*,#97,.T.);
#231=ORIENTED_EDGE('',*,*,#102,.F.);
#232=ORIENTED_EDGE('',*,*,#82,.F.);
#233=EDGE_LOOP('',(#229,#230,#231,#232));
#234=FACE_OUTER_BOUND('',#233,.T.);
#235=ADVANCED_FACE('',(#234),#228,.T.);
#236=CARTESIAN_POINT('',(-8.673617379884035e-19,0.0025,-0.004330127018922193));
#237=DIRECTION('',(1.3552527156068798e-16,0,1));
#238=DIRECTION('',(1,0,0));
#239=AXIS2_PLACEMENT_3D('',#236,#237,#238);
#240=PLANE('',#239);
#241=ORIENTED_EDGE('',*,*,#107,.T.);
#242=ORIENTED_EDGE('',*,*,#112,.T.);
#243=ORIENTED_EDGE('',*,*,#117,.F.);
#244=ORIENTED_EDGE('',*,*,#97,.F.);
#245=EDGE_LOOP('',(#241,#242,#243,#244));
#246=FACE_OUTER_BOUND('',#245,.T.);
#247=ADVANCED_FACE('',(#246),#240,.T.);
#248=CARTESIAN_POINT('',(0.0037500000000000003,0.0025,-0.0021650635094610966));
#249=DIRECTION('',(-0.8660254037844387,0,0.5));
#250=DIRECTION('',(0,-1,0));
#251=AXIS2_PLACEMENT_3D('',#248,#249,#250);
#252=PLANE('',#251);
#253=ORIENTED_EDGE('',*,*,#122,.T.);
#254=ORIENTED_EDGE('',*,*,#57,.T.);
#255=ORIENTED_EDGE('',*,*,#127,.F.);
#256=ORIENTED_EDGE('',*,*,#112,.F.);
#257=EDGE_LOOP('',(#253,#254,#255,#256));
#258=FACE_OUTER_BOUND('',#257,.T.);
#259=ADVANCED_FACE('',(#258),#252,.T.);
#260=CARTESIAN_POINT('',(0.0025,0,0.0014433756729740645));
#261=DIRECTION('',(0,-1,0));
#262=DIRECTION('',(1,0,0));
#263=AXIS2_PLACEMENT_3D('',#260,#261,#262);
#264=PLANE('',#263);
#265=ORIENTED_EDGE('',*,*,#132,.T.);
#266=ORIENTED_EDGE('',*,*,#42,.T.);
#267=ORIENTED_EDGE('',*,*,#137,.F.);
#268=EDGE_LOOP('',(#265,#266,#267));
#269=FACE_OUTER_BOUND('',#268,.T.);
#270=ADVANCED_FACE('',(#269),#264,.T.);
#271=CARTESIAN_POINT('',(5.782411586589357e-19,0,0.002886751345948129));
#272=DIRECTION('',(0,-1,0));
#273=DIRECTION('',(1,0,0));
#274=AXIS2_PLACEMENT_3D('',#271,#272,#273);
#275=PLANE('',#274);
#276=ORIENTED_EDGE('',*,*,#137,.T.);
#277=ORIENTED_EDGE('',*,*,#62,.T.);
#278=ORIENTED_EDGE('',*,*,#142,.F.);
#279=EDGE_LOOP('',(#276,#277,#278));
#280=FACE_OUTER_BOUND('',#279,.T.);
#281=ADVANCED_FACE('',(#280),#275,.T.);
#282=CARTESIAN_POINT('',(-0.0024999999999999996,0,0.0014433756729740647));
#283=DIRECTION('',(0,-1,0));
#284=DIRECTION('',(1,0,0));
#285=AXIS2_PLACEMENT_3D('',#282,#283,#284);
#286=PLANE('',#285);
#287=ORIENTED_EDGE('',*,*,#142,.T.);
#288=ORIENTED_EDGE('',*,*,#77,.T.);
#289=ORIENTED_EDGE('',*,*,#147,.F.);
#290=EDGE_LOOP('',(#287,#288,#289));
#291=FACE_OUTER_BOUND('',#290,.T.);
#292=ADVANCED_FACE('',(#291),#286,.T.);
#293=CARTESIAN_POINT('',(-0.002500000000000001,0,-0.0014433756729740638));
#294=DIRECTION('',(0,-1,0));
#295=DIRECTION('',(1,0,0));
#296=AXIS2_PLACEMENT_3D('',#293,#294,#295);
#297=PLANE('',#296);
#298=ORIENTED_EDGE('',*,*,#147,.T.);
#299=ORIENTED_EDGE('',*,*,#92,.T.);
#300=ORIENTED_EDGE('',*,*,#152,.F.);
#301=EDGE_LOOP('',(#298,#299,#300));
#302=FACE_OUTER_BOUND('',#301,.T.);
#303=ADVANCED_FACE('',(#302),#297,.T.);
#304=CARTESIAN_POINT('',(-5.782411586589357e-19,0,-0.002886751345948129));
#305=DIRECTION('',(0,-1,0));
#306=DIRECTION('',(1,0,0));
#307=AXIS2_PLACEMENT_3D('',#304,#305,#306);
#308=PLANE('',#307);
#309=ORIENTED_EDGE('',*,*,#152,.T.);
#310=ORIENTED_EDGE('',*,*,#107,.T.);
#311=ORIENTED_EDGE('',*,*,#157,.F.);
#312=EDGE_LOOP('',(#309,#310,#311));
#313=FACE_OUTER_BOUND('',#312,.T.);
#314=ADVANCED_FACE('',(#313),#308,.T.);
#315=CARTESIAN_POINT('',(0.0025,0,-0.0014433756729740645));
#316=DIRECTION('',(0,-1,0));
#317=DIRECTION('',(1,0,0));
#318=AXIS2_PLACEMENT_3D('',#315,#316,#317);
#319=PLANE('',#318);
#320=ORIENTED_EDGE('',*,*,#157,.T.);
#321=ORIENTED_EDGE('',*,*,#122,.T.);
#322=ORIENTED_EDGE('',*,*,#132,.F.);
#323=EDGE_LOOP('',(#320,#321,#322));
#324=FACE_OUTER_BOUND('',#323,.T.);
#325=ADVANCED_FACE('',(#324),#319,.T.);
#326=CARTESIAN_POINT('',(0.0025,0.005,0.0014433756729740645));
#327=DIRECTION('',(0,-1,0));
#328=DIRECTION('',(1,0,0));
#329=AXIS2_PLACEMENT_3D('',#326,#327,#328);
#330=PLANE('',#329);
#331=ORIENTED_EDGE('',*,*,#162,.T.);
#332=ORIENTED_EDGE('',*,*,#52,.T.);
#333=ORIENTED_EDGE('',*,*,#167,.F.);
#334=EDGE_LOOP('',(#331,#332,#333));
#335=FACE_OUTER_BOUND('',#334,.T.);
#336=ADVANCED_FACE('',(#335),#330,.T.);
#337=CARTESIAN_POINT('',(5.782411586589357e-19,0.005,0.002886751345948129));
#338=DIRECTION('',(0,-1,1.5649110403512079e-16));
#339=DIRECTION('',(1,0,0));
#340=AXIS2_PLACEMENT_3D('',#337,#338,#339);
#341=PLANE('',#340);
#342=ORIENTED_EDGE('',*,*,#167,.T.);
#343=ORIENTED_EDGE('',*,*,#72,.T.);
#344=ORIENTED_EDGE('',*,*,#172,.F.);
#345=EDGE_LOOP('',(#342,#343,#344));
#346=FACE_OUTER_BOUND('',#345,.T.);
#347=ADVANCED_FACE('',(#346),#341,.T.);
#348=CARTESIAN_POINT('',(-0.0024999999999999996,0.005,0.0014433756729740647));
#349=DIRECTION('',(0,-1,0));
#350=DIRECTION('',(1,0,0));
#351=AXIS2_PLACEMENT_3D('',#348,#349,#350);
#352=PLANE('',#351);
#353=ORIENTED_EDGE('',*,*,#172,.T.);
#354=ORIENTED_EDGE('',*,*,#87,.T.);
#355=ORIENTED_EDGE('',*,*,#177,.F.);
#356=EDGE_LOOP('',(#353,#354,#355));
#357=FACE_OUTER_BOUND('',#356,.T.);
#358=ADVANCED_FACE('',(#357),#352,.T.);
#359=CARTESIAN_POINT('',(-0.002500000000000001,0.005,-0.0014433756729740638));
#360=DIRECTION('',(0,-1,0));
#361=DIRECTION('',(1,0,0));
#362=AXIS2_PLACEMENT_3D('',#359,#360,#361);
#363=PLANE('',#362);
#364=ORIENTED_EDGE('',*,*,#177,.T.);
#365=ORIENTED_EDGE('',*,*,#102,.T.);
#366=ORIENTED_EDGE('',*,*,#182,.F.);
#367=EDGE_LOOP('',(#364,#365,#366));
#368=FACE_OUTER_BOUND('',#367,.T.);
#369=ADVANCED_FACE('',(#368),#363,.T.);
#370=CARTESIAN_POINT('',(-5.782411586589357e-19,0.005,-0.002886751345948129));
#371=DIRECTION('',(0,-1,-1.564911040351207e-16));
#372=DIRECTION('',(1,0,0));
#373=AXIS2_PLACEMENT_3D('',#370,#371,#372);
#374=PLANE('',#373);
#375=ORIENTED_EDGE('',*,*,#182,.T.);
#376=ORIENTED_EDGE('',*,*,#117,.T.);
#377=ORIENTED_EDGE('',*,*,#187,.F.);
#378=EDGE_LOOP('',(#375,#376,#377));
#379=FACE_OUTER_BOUND('',#378,.T.);
#380=ADVANCED_FACE('',(#379),#374,.T.);
#381=CARTESIAN_POINT('',(0.0025,0.005,-0.0014433756729740645));
#382=DIRECTION('',(0,-1,0));
#383=DIRECTION('',(1,0,0));
#384=AXIS2_PLACEMENT_3D('',#381,#382,#383);
#385=PLANE('',#384);
#386=ORIENTED_EDGE('',*,*,#187,.T.);
#387=ORIENTED_EDGE('',*,*,#127,.T.);
#388=ORIENTED_EDGE('',*,*,#162,.F.);
#389=EDGE_LOOP('',(#386,#387,#388));
#390=FACE_OUTER_BOUND('',#389,.T.);
#391=ADVANCED_FACE('',(#390),#385,.T.);
#392=CLOSED_SHELL('',(#199,#211,#223,#235,#247,#259,#270,#281,#292,#303,#314,#325,#336,#347,#358,#369,#380,#391));
#393=MANIFOLD_SOLID_BREP('',#392);
#394=SHAPE_REPRESENTATION('TYV6-FAS-LCK-0024',(#393),#9);
#395=SHAPE_DEFINITION_REPRESENTATION(#8,#394);
ENDSEC;
END-ISO-10303-21;