<?xml version="1.0" encoding="UTF-8"?>
<svg xmlns="http://www.w3.org/2000/svg" viewBox="0 0 420 297" width="420mm" height="297mm" font-family="Helvetica, Arial, sans-serif">
<rect width="420" height="297" fill="#ffffff"/>
<rect x="10" y="10" width="400" height="277" fill="none" stroke="#000" stroke-width="0.6"/>
<rect x="10" y="10" width="400" height="18" fill="#1a1a2e"/>
<text x="14" y="20.5" font-size="4" fill="#ffffff" font-weight="700">GE9X</text>
<text x="210" y="21" text-anchor="middle" font-size="5" fill="#ffffff" font-weight="700">FUEL MANIFOLD INNER</text>
<rect x="380" y="12" width="28" height="14" fill="#4ed99d"/>
<text x="394" y="20.5" text-anchor="middle" font-size="3.5" fill="#000" font-weight="700">Class 3</text>
<g class="view-front">
        <rect x="14" y="38" width="81" height="92.5" fill="none" stroke="#ccc" stroke-width="0.3"/>
        <text x="17" y="44" font-size="3.5" fill="#444" font-weight="700">FRONT</text>
        <line x1="38.5" y1="102.3" x2="39.7" y2="102.3" stroke="#888" stroke-width="0.4" stroke-dasharray="2,2"/><line x1="39.7" y1="102.3" x2="39.7" y2="66.3" stroke="#888" stroke-width="0.4" stroke-dasharray="2,2"/><line x1="38.5" y1="66.3" x2="39.7" y2="66.3" stroke="#888" stroke-width="0.4" stroke-dasharray="2,2"/><line x1="38.5" y1="102.3" x2="38.5" y2="66.3" stroke="#000" stroke-width="0.4" /><line x1="39.7" y1="102.3" x2="43.2" y2="102.3" stroke="#888" stroke-width="0.4" stroke-dasharray="2,2"/><line x1="43.2" y1="102.3" x2="43.2" y2="66.3" stroke="#888" stroke-width="0.4" stroke-dasharray="2,2"/><line x1="39.7" y1="66.3" x2="43.2" y2="66.3" stroke="#888" stroke-width="0.4" stroke-dasharray="2,2"/><line x1="43.2" y1="102.3" x2="48.4" y2="102.3" stroke="#888" stroke-width="0.4" stroke-dasharray="2,2"/><line x1="48.4" y1="102.3" x2="48.4" y2="66.3" stroke="#888" stroke-width="0.4" stroke-dasharray="2,2"/><line x1="43.2" y1="66.3" x2="48.4" y2="66.3" stroke="#888" stroke-width="0.4" stroke-dasharray="2,2"/><line x1="48.4" y1="102.3" x2="54.5" y2="102.3" stroke="#888" stroke-width="0.4" stroke-dasharray="2,2"/><line x1="54.5" y1="102.3" x2="54.5" y2="66.3" stroke="#888" stroke-width="0.4" stroke-dasharray="2,2"/><line x1="48.4" y1="66.3" x2="54.5" y2="66.3" stroke="#000" stroke-width="0.4" /><line x1="54.5" y1="102.3" x2="60.6" y2="102.3" stroke="#888" stroke-width="0.4" stroke-dasharray="2,2"/><line x1="60.6" y1="102.3" x2="60.6" y2="66.3" stroke="#888" stroke-width="0.4" stroke-dasharray="2,2"/><line x1="54.5" y1="66.3" x2="60.6" y2="66.3" stroke="#888" stroke-width="0.4" stroke-dasharray="2,2"/><line x1="60.6" y1="102.3" x2="65.8" y2="102.3" stroke="#888" stroke-width="0.4" stroke-dasharray="2,2"/><line x1="65.8" y1="102.3" x2="65.8" y2="66.3" stroke="#888" stroke-width="0.4" stroke-dasharray="2,2"/><line x1="60.6" y1="66.3" x2="65.8" y2="66.3" stroke="#000" stroke-width="0.4" /><line x1="65.8" y1="102.3" x2="69.3" y2="102.3" stroke="#888" stroke-width="0.4" stroke-dasharray="2,2"/><line x1="69.3" y1="102.3" x2="69.3" y2="66.3" stroke="#888" stroke-width="0.4" stroke-dasharray="2,2"/><line x1="65.8" y1="66.3" x2="69.3" y2="66.3" stroke="#888" stroke-width="0.4" stroke-dasharray="2,2"/><line x1="69.3" y1="102.3" x2="70.5" y2="102.3" stroke="#888" stroke-width="0.4" stroke-dasharray="2,2"/><line x1="70.5" y1="102.3" x2="70.5" y2="66.3" stroke="#000" stroke-width="0.4" /><line x1="69.3" y1="66.3" x2="70.5" y2="66.3" stroke="#888" stroke-width="0.4" stroke-dasharray="2,2"/><line x1="70.5" y1="102.3" x2="69.3" y2="102.3" stroke="#000" stroke-width="0.4" /><line x1="69.3" y1="102.3" x2="69.3" y2="66.3" stroke="#000" stroke-width="0.4" /><line x1="70.5" y1="66.3" x2="69.3" y2="66.3" stroke="#000" stroke-width="0.4" /><line x1="69.3" y1="102.3" x2="65.8" y2="102.3" stroke="#000" stroke-width="0.4" /><line x1="65.8" y1="102.3" x2="65.8" y2="66.3" stroke="#000" stroke-width="0.4" /><line x1="69.3" y1="66.3" x2="65.8" y2="66.3" stroke="#000" stroke-width="0.4" /><line x1="65.8" y1="102.3" x2="60.6" y2="102.3" stroke="#000" stroke-width="0.4" /><line x1="60.6" y1="102.3" x2="60.6" y2="66.3" stroke="#000" stroke-width="0.4" /><line x1="65.8" y1="66.3" x2="60.6" y2="66.3" stroke="#000" stroke-width="0.4" /><line x1="60.6" y1="102.3" x2="54.5" y2="102.3" stroke="#000" stroke-width="0.4" /><line x1="54.5" y1="102.3" x2="54.5" y2="66.3" stroke="#000" stroke-width="0.4" /><line x1="60.6" y1="66.3" x2="54.5" y2="66.3" stroke="#000" stroke-width="0.4" /><line x1="54.5" y1="102.3" x2="48.4" y2="102.3" stroke="#000" stroke-width="0.4" /><line x1="48.4" y1="102.3" x2="48.4" y2="66.3" stroke="#000" stroke-width="0.4" /><line x1="54.5" y1="66.3" x2="48.4" y2="66.3" stroke="#000" stroke-width="0.4" /><line x1="48.4" y1="102.3" x2="43.2" y2="102.3" stroke="#000" stroke-width="0.4" /><line x1="43.2" y1="102.3" x2="43.2" y2="66.3" stroke="#000" stroke-width="0.4" /><line x1="48.4" y1="66.3" x2="43.2" y2="66.3" stroke="#000" stroke-width="0.4" /><line x1="43.2" y1="102.3" x2="39.7" y2="102.3" stroke="#000" stroke-width="0.4" /><line x1="39.7" y1="102.3" x2="39.7" y2="66.3" stroke="#000" stroke-width="0.4" /><line x1="43.2" y1="66.3" x2="39.7" y2="66.3" stroke="#000" stroke-width="0.4" /><line x1="39.7" y1="102.3" x2="38.5" y2="102.3" stroke="#000" stroke-width="0.4" /><line x1="39.7" y1="66.3" x2="38.5" y2="66.3" stroke="#000" stroke-width="0.4" />
        
      <line x1="38.5" y1="126.5" x2="70.5" y2="126.5" stroke="#000" stroke-width="0.3"/>
      <text x="54.5" y="125.5" text-anchor="middle" font-size="2.5" fill="#000">160.0</text>
      </g>
<g class="view-right">
        <rect x="99" y="38" width="81" height="92.5" fill="none" stroke="#ccc" stroke-width="0.3"/>
        <text x="102" y="44" font-size="3.5" fill="#444" font-weight="700">RIGHT</text>
        <line x1="139.5" y1="102.3" x2="145.6" y2="102.3" stroke="#888" stroke-width="0.4" stroke-dasharray="2,2"/><line x1="145.6" y1="102.3" x2="145.6" y2="66.3" stroke="#888" stroke-width="0.4" stroke-dasharray="2,2"/><line x1="139.5" y1="66.3" x2="145.6" y2="66.3" stroke="#888" stroke-width="0.4" stroke-dasharray="2,2"/><line x1="139.5" y1="102.3" x2="139.5" y2="66.3" stroke="#888" stroke-width="0.4" stroke-dasharray="2,2"/><line x1="145.6" y1="102.3" x2="150.8" y2="102.3" stroke="#888" stroke-width="0.4" stroke-dasharray="2,2"/><line x1="150.8" y1="102.3" x2="150.8" y2="66.3" stroke="#888" stroke-width="0.4" stroke-dasharray="2,2"/><line x1="145.6" y1="66.3" x2="150.8" y2="66.3" stroke="#888" stroke-width="0.4" stroke-dasharray="2,2"/><line x1="150.8" y1="102.3" x2="154.3" y2="102.3" stroke="#888" stroke-width="0.4" stroke-dasharray="2,2"/><line x1="154.3" y1="102.3" x2="154.3" y2="66.3" stroke="#888" stroke-width="0.4" stroke-dasharray="2,2"/><line x1="150.8" y1="66.3" x2="154.3" y2="66.3" stroke="#888" stroke-width="0.4" stroke-dasharray="2,2"/><line x1="154.3" y1="102.3" x2="155.5" y2="102.3" stroke="#888" stroke-width="0.4" stroke-dasharray="2,2"/><line x1="155.5" y1="102.3" x2="155.5" y2="66.3" stroke="#000" stroke-width="0.4" /><line x1="154.3" y1="66.3" x2="155.5" y2="66.3" stroke="#888" stroke-width="0.4" stroke-dasharray="2,2"/><line x1="155.5" y1="102.3" x2="154.3" y2="102.3" stroke="#000" stroke-width="0.4" /><line x1="154.3" y1="102.3" x2="154.3" y2="66.3" stroke="#000" stroke-width="0.4" /><line x1="155.5" y1="66.3" x2="154.3" y2="66.3" stroke="#000" stroke-width="0.4" /><line x1="154.3" y1="102.3" x2="150.8" y2="102.3" stroke="#000" stroke-width="0.4" /><line x1="150.8" y1="102.3" x2="150.8" y2="66.3" stroke="#000" stroke-width="0.4" /><line x1="154.3" y1="66.3" x2="150.8" y2="66.3" stroke="#000" stroke-width="0.4" /><line x1="150.8" y1="102.3" x2="145.6" y2="102.3" stroke="#000" stroke-width="0.4" /><line x1="145.6" y1="102.3" x2="145.6" y2="66.3" stroke="#000" stroke-width="0.4" /><line x1="150.8" y1="66.3" x2="145.6" y2="66.3" stroke="#000" stroke-width="0.4" /><line x1="145.6" y1="102.3" x2="139.5" y2="102.3" stroke="#000" stroke-width="0.4" /><line x1="139.5" y1="102.3" x2="139.5" y2="66.3" stroke="#000" stroke-width="0.4" /><line x1="145.6" y1="66.3" x2="139.5" y2="66.3" stroke="#000" stroke-width="0.4" /><line x1="139.5" y1="102.3" x2="133.4" y2="102.3" stroke="#000" stroke-width="0.4" /><line x1="133.4" y1="102.3" x2="133.4" y2="66.3" stroke="#000" stroke-width="0.4" /><line x1="139.5" y1="66.3" x2="133.4" y2="66.3" stroke="#000" stroke-width="0.4" /><line x1="133.4" y1="102.3" x2="128.2" y2="102.3" stroke="#000" stroke-width="0.4" /><line x1="128.2" y1="102.3" x2="128.2" y2="66.3" stroke="#000" stroke-width="0.4" /><line x1="133.4" y1="66.3" x2="128.2" y2="66.3" stroke="#000" stroke-width="0.4" /><line x1="128.2" y1="102.3" x2="124.7" y2="102.3" stroke="#000" stroke-width="0.4" /><line x1="124.7" y1="102.3" x2="124.7" y2="66.3" stroke="#000" stroke-width="0.4" /><line x1="128.2" y1="66.3" x2="124.7" y2="66.3" stroke="#000" stroke-width="0.4" /><line x1="124.7" y1="102.3" x2="123.5" y2="102.3" stroke="#000" stroke-width="0.4" /><line x1="123.5" y1="102.3" x2="123.5" y2="66.3" stroke="#000" stroke-width="0.4" /><line x1="124.7" y1="66.3" x2="123.5" y2="66.3" stroke="#000" stroke-width="0.4" /><line x1="123.5" y1="102.3" x2="124.7" y2="102.3" stroke="#888" stroke-width="0.4" stroke-dasharray="2,2"/><line x1="124.7" y1="102.3" x2="124.7" y2="66.3" stroke="#888" stroke-width="0.4" stroke-dasharray="2,2"/><line x1="123.5" y1="66.3" x2="124.7" y2="66.3" stroke="#888" stroke-width="0.4" stroke-dasharray="2,2"/><line x1="124.7" y1="102.3" x2="128.2" y2="102.3" stroke="#888" stroke-width="0.4" stroke-dasharray="2,2"/><line x1="128.2" y1="102.3" x2="128.2" y2="66.3" stroke="#888" stroke-width="0.4" stroke-dasharray="2,2"/><line x1="124.7" y1="66.3" x2="128.2" y2="66.3" stroke="#888" stroke-width="0.4" stroke-dasharray="2,2"/><line x1="128.2" y1="102.3" x2="133.4" y2="102.3" stroke="#888" stroke-width="0.4" stroke-dasharray="2,2"/><line x1="133.4" y1="102.3" x2="133.4" y2="66.3" stroke="#888" stroke-width="0.4" stroke-dasharray="2,2"/><line x1="128.2" y1="66.3" x2="133.4" y2="66.3" stroke="#888" stroke-width="0.4" stroke-dasharray="2,2"/><line x1="133.4" y1="102.3" x2="139.5" y2="102.3" stroke="#888" stroke-width="0.4" stroke-dasharray="2,2"/><line x1="133.4" y1="66.3" x2="139.5" y2="66.3" stroke="#888" stroke-width="0.4" stroke-dasharray="2,2"/>
        
      <line x1="123.5" y1="126.5" x2="155.5" y2="126.5" stroke="#000" stroke-width="0.3"/>
      <text x="139.5" y="125.5" text-anchor="middle" font-size="2.5" fill="#000">160.0</text>
      </g>
<g class="view-top">
        <rect x="14" y="134.5" width="81" height="92.5" fill="none" stroke="#ccc" stroke-width="0.3"/>
        <text x="17" y="140.5" font-size="3.5" fill="#444" font-weight="700">TOP</text>
        <line x1="38.5" y1="180.8" x2="39.7" y2="186.9" stroke="#888" stroke-width="0.4" stroke-dasharray="2,2"/><line x1="39.7" y1="186.9" x2="39.7" y2="186.9" stroke="#888" stroke-width="0.4" stroke-dasharray="2,2"/><line x1="38.5" y1="180.8" x2="39.7" y2="186.9" stroke="#888" stroke-width="0.4" stroke-dasharray="2,2"/><line x1="38.5" y1="180.8" x2="38.5" y2="180.8" stroke="#888" stroke-width="0.4" stroke-dasharray="2,2"/><line x1="39.7" y1="186.9" x2="43.2" y2="192.1" stroke="#888" stroke-width="0.4" stroke-dasharray="2,2"/><line x1="43.2" y1="192.1" x2="43.2" y2="192.1" stroke="#888" stroke-width="0.4" stroke-dasharray="2,2"/><line x1="39.7" y1="186.9" x2="43.2" y2="192.1" stroke="#888" stroke-width="0.4" stroke-dasharray="2,2"/><line x1="43.2" y1="192.1" x2="48.4" y2="195.5" stroke="#888" stroke-width="0.4" stroke-dasharray="2,2"/><line x1="48.4" y1="195.5" x2="48.4" y2="195.5" stroke="#888" stroke-width="0.4" stroke-dasharray="2,2"/><line x1="43.2" y1="192.1" x2="48.4" y2="195.5" stroke="#888" stroke-width="0.4" stroke-dasharray="2,2"/><line x1="48.4" y1="195.5" x2="54.5" y2="196.8" stroke="#888" stroke-width="0.4" stroke-dasharray="2,2"/><line x1="54.5" y1="196.8" x2="54.5" y2="196.8" stroke="#888" stroke-width="0.4" stroke-dasharray="2,2"/><line x1="48.4" y1="195.5" x2="54.5" y2="196.8" stroke="#888" stroke-width="0.4" stroke-dasharray="2,2"/><line x1="54.5" y1="196.8" x2="60.6" y2="195.5" stroke="#888" stroke-width="0.4" stroke-dasharray="2,2"/><line x1="60.6" y1="195.5" x2="60.6" y2="195.5" stroke="#888" stroke-width="0.4" stroke-dasharray="2,2"/><line x1="54.5" y1="196.8" x2="60.6" y2="195.5" stroke="#888" stroke-width="0.4" stroke-dasharray="2,2"/><line x1="60.6" y1="195.5" x2="65.8" y2="192.1" stroke="#888" stroke-width="0.4" stroke-dasharray="2,2"/><line x1="65.8" y1="192.1" x2="65.8" y2="192.1" stroke="#888" stroke-width="0.4" stroke-dasharray="2,2"/><line x1="60.6" y1="195.5" x2="65.8" y2="192.1" stroke="#888" stroke-width="0.4" stroke-dasharray="2,2"/><line x1="65.8" y1="192.1" x2="69.3" y2="186.9" stroke="#888" stroke-width="0.4" stroke-dasharray="2,2"/><line x1="69.3" y1="186.9" x2="69.3" y2="186.9" stroke="#888" stroke-width="0.4" stroke-dasharray="2,2"/><line x1="65.8" y1="192.1" x2="69.3" y2="186.9" stroke="#888" stroke-width="0.4" stroke-dasharray="2,2"/><line x1="69.3" y1="186.9" x2="70.5" y2="180.8" stroke="#888" stroke-width="0.4" stroke-dasharray="2,2"/><line x1="70.5" y1="180.8" x2="70.5" y2="180.8" stroke="#888" stroke-width="0.4" stroke-dasharray="2,2"/><line x1="69.3" y1="186.9" x2="70.5" y2="180.8" stroke="#888" stroke-width="0.4" stroke-dasharray="2,2"/><line x1="70.5" y1="180.8" x2="69.3" y2="174.6" stroke="#888" stroke-width="0.4" stroke-dasharray="2,2"/><line x1="69.3" y1="174.6" x2="69.3" y2="174.6" stroke="#888" stroke-width="0.4" stroke-dasharray="2,2"/><line x1="70.5" y1="180.8" x2="69.3" y2="174.6" stroke="#888" stroke-width="0.4" stroke-dasharray="2,2"/><line x1="69.3" y1="174.6" x2="65.8" y2="169.4" stroke="#888" stroke-width="0.4" stroke-dasharray="2,2"/><line x1="65.8" y1="169.4" x2="65.8" y2="169.4" stroke="#888" stroke-width="0.4" stroke-dasharray="2,2"/><line x1="69.3" y1="174.6" x2="65.8" y2="169.4" stroke="#888" stroke-width="0.4" stroke-dasharray="2,2"/><line x1="65.8" y1="169.4" x2="60.6" y2="166.0" stroke="#888" stroke-width="0.4" stroke-dasharray="2,2"/><line x1="60.6" y1="166.0" x2="60.6" y2="166.0" stroke="#888" stroke-width="0.4" stroke-dasharray="2,2"/><line x1="65.8" y1="169.4" x2="60.6" y2="166.0" stroke="#888" stroke-width="0.4" stroke-dasharray="2,2"/><line x1="60.6" y1="166.0" x2="54.5" y2="164.8" stroke="#888" stroke-width="0.4" stroke-dasharray="2,2"/><line x1="54.5" y1="164.8" x2="54.5" y2="164.8" stroke="#888" stroke-width="0.4" stroke-dasharray="2,2"/><line x1="60.6" y1="166.0" x2="54.5" y2="164.8" stroke="#888" stroke-width="0.4" stroke-dasharray="2,2"/><line x1="54.5" y1="164.8" x2="48.4" y2="166.0" stroke="#888" stroke-width="0.4" stroke-dasharray="2,2"/><line x1="48.4" y1="166.0" x2="48.4" y2="166.0" stroke="#888" stroke-width="0.4" stroke-dasharray="2,2"/><line x1="54.5" y1="164.8" x2="48.4" y2="166.0" stroke="#888" stroke-width="0.4" stroke-dasharray="2,2"/><line x1="48.4" y1="166.0" x2="43.2" y2="169.4" stroke="#888" stroke-width="0.4" stroke-dasharray="2,2"/><line x1="43.2" y1="169.4" x2="43.2" y2="169.4" stroke="#888" stroke-width="0.4" stroke-dasharray="2,2"/><line x1="48.4" y1="166.0" x2="43.2" y2="169.4" stroke="#888" stroke-width="0.4" stroke-dasharray="2,2"/><line x1="43.2" y1="169.4" x2="39.7" y2="174.6" stroke="#888" stroke-width="0.4" stroke-dasharray="2,2"/><line x1="39.7" y1="174.6" x2="39.7" y2="174.6" stroke="#888" stroke-width="0.4" stroke-dasharray="2,2"/><line x1="43.2" y1="169.4" x2="39.7" y2="174.6" stroke="#888" stroke-width="0.4" stroke-dasharray="2,2"/><line x1="39.7" y1="174.6" x2="38.5" y2="180.8" stroke="#888" stroke-width="0.4" stroke-dasharray="2,2"/><line x1="39.7" y1="174.6" x2="38.5" y2="180.8" stroke="#888" stroke-width="0.4" stroke-dasharray="2,2"/>
        
      <line x1="38.5" y1="223" x2="70.5" y2="223" stroke="#000" stroke-width="0.3"/>
      <text x="54.5" y="222" text-anchor="middle" font-size="2.5" fill="#000">160.0</text>
      </g>
<g class="view-iso">
        <rect x="99" y="134.5" width="81" height="92.5" fill="none" stroke="#ccc" stroke-width="0.3"/>
        <text x="102" y="140.5" font-size="3.5" fill="#444" font-weight="700">ISO</text>
        <line x1="128.2" y1="202.0" x2="133.4" y2="204.0" stroke="#888" stroke-width="0.4" stroke-dasharray="2,2"/><line x1="133.4" y1="204.0" x2="133.4" y2="174.6" stroke="#888" stroke-width="0.4" stroke-dasharray="2,2"/><line x1="128.2" y1="172.6" x2="133.4" y2="174.6" stroke="#888" stroke-width="0.4" stroke-dasharray="2,2"/><line x1="128.2" y1="202.0" x2="128.2" y2="172.6" stroke="#888" stroke-width="0.4" stroke-dasharray="2,2"/><line x1="133.4" y1="204.0" x2="139.5" y2="204.7" stroke="#888" stroke-width="0.4" stroke-dasharray="2,2"/><line x1="139.5" y1="204.7" x2="139.5" y2="175.3" stroke="#888" stroke-width="0.4" stroke-dasharray="2,2"/><line x1="133.4" y1="174.6" x2="139.5" y2="175.3" stroke="#888" stroke-width="0.4" stroke-dasharray="2,2"/><line x1="139.5" y1="204.7" x2="145.6" y2="204.0" stroke="#888" stroke-width="0.4" stroke-dasharray="2,2"/><line x1="145.6" y1="204.0" x2="145.6" y2="174.6" stroke="#888" stroke-width="0.4" stroke-dasharray="2,2"/><line x1="139.5" y1="175.3" x2="145.6" y2="174.6" stroke="#888" stroke-width="0.4" stroke-dasharray="2,2"/><line x1="145.6" y1="204.0" x2="150.8" y2="202.0" stroke="#888" stroke-width="0.4" stroke-dasharray="2,2"/><line x1="150.8" y1="202.0" x2="150.8" y2="172.6" stroke="#888" stroke-width="0.4" stroke-dasharray="2,2"/><line x1="145.6" y1="174.6" x2="150.8" y2="172.6" stroke="#888" stroke-width="0.4" stroke-dasharray="2,2"/><line x1="150.8" y1="202.0" x2="154.3" y2="199.0" stroke="#888" stroke-width="0.4" stroke-dasharray="2,2"/><line x1="154.3" y1="199.0" x2="154.3" y2="169.6" stroke="#888" stroke-width="0.4" stroke-dasharray="2,2"/><line x1="150.8" y1="172.6" x2="154.3" y2="169.6" stroke="#888" stroke-width="0.4" stroke-dasharray="2,2"/><line x1="154.3" y1="199.0" x2="155.5" y2="195.4" stroke="#888" stroke-width="0.4" stroke-dasharray="2,2"/><line x1="155.5" y1="195.4" x2="155.5" y2="166.1" stroke="#000" stroke-width="0.4" /><line x1="154.3" y1="169.6" x2="155.5" y2="166.1" stroke="#888" stroke-width="0.4" stroke-dasharray="2,2"/><line x1="155.5" y1="195.4" x2="154.3" y2="191.9" stroke="#000" stroke-width="0.4" /><line x1="154.3" y1="191.9" x2="154.3" y2="162.5" stroke="#000" stroke-width="0.4" /><line x1="155.5" y1="166.1" x2="154.3" y2="162.5" stroke="#000" stroke-width="0.4" /><line x1="154.3" y1="191.9" x2="150.8" y2="188.9" stroke="#000" stroke-width="0.4" /><line x1="150.8" y1="188.9" x2="150.8" y2="159.5" stroke="#000" stroke-width="0.4" /><line x1="154.3" y1="162.5" x2="150.8" y2="159.5" stroke="#000" stroke-width="0.4" /><line x1="150.8" y1="188.9" x2="145.6" y2="186.9" stroke="#000" stroke-width="0.4" /><line x1="145.6" y1="186.9" x2="145.6" y2="157.5" stroke="#000" stroke-width="0.4" /><line x1="150.8" y1="159.5" x2="145.6" y2="157.5" stroke="#000" stroke-width="0.4" /><line x1="145.6" y1="186.9" x2="139.5" y2="186.2" stroke="#000" stroke-width="0.4" /><line x1="139.5" y1="186.2" x2="139.5" y2="156.8" stroke="#000" stroke-width="0.4" /><line x1="145.6" y1="157.5" x2="139.5" y2="156.8" stroke="#000" stroke-width="0.4" /><line x1="139.5" y1="186.2" x2="133.4" y2="186.9" stroke="#000" stroke-width="0.4" /><line x1="133.4" y1="186.9" x2="133.4" y2="157.5" stroke="#000" stroke-width="0.4" /><line x1="139.5" y1="156.8" x2="133.4" y2="157.5" stroke="#000" stroke-width="0.4" /><line x1="133.4" y1="186.9" x2="128.2" y2="188.9" stroke="#000" stroke-width="0.4" /><line x1="128.2" y1="188.9" x2="128.2" y2="159.5" stroke="#000" stroke-width="0.4" /><line x1="133.4" y1="157.5" x2="128.2" y2="159.5" stroke="#000" stroke-width="0.4" /><line x1="128.2" y1="188.9" x2="124.7" y2="191.9" stroke="#000" stroke-width="0.4" /><line x1="124.7" y1="191.9" x2="124.7" y2="162.5" stroke="#000" stroke-width="0.4" /><line x1="128.2" y1="159.5" x2="124.7" y2="162.5" stroke="#000" stroke-width="0.4" /><line x1="124.7" y1="191.9" x2="123.5" y2="195.4" stroke="#000" stroke-width="0.4" /><line x1="123.5" y1="195.4" x2="123.5" y2="166.1" stroke="#000" stroke-width="0.4" /><line x1="124.7" y1="162.5" x2="123.5" y2="166.1" stroke="#000" stroke-width="0.4" /><line x1="123.5" y1="195.4" x2="124.7" y2="199.0" stroke="#888" stroke-width="0.4" stroke-dasharray="2,2"/><line x1="124.7" y1="199.0" x2="124.7" y2="169.6" stroke="#888" stroke-width="0.4" stroke-dasharray="2,2"/><line x1="123.5" y1="166.1" x2="124.7" y2="169.6" stroke="#888" stroke-width="0.4" stroke-dasharray="2,2"/><line x1="124.7" y1="199.0" x2="128.2" y2="202.0" stroke="#888" stroke-width="0.4" stroke-dasharray="2,2"/><line x1="124.7" y1="169.6" x2="128.2" y2="172.6" stroke="#888" stroke-width="0.4" stroke-dasharray="2,2"/>
        
      <line x1="123.5" y1="223" x2="155.5" y2="223" stroke="#000" stroke-width="0.3"/>
      <text x="139.5" y="222" text-anchor="middle" font-size="2.5" fill="#000">160.0</text>
      </g>
<g class="rev-table"><rect x="190" y="34" width="22" height="5" fill="#1a1a2e" stroke="#000" stroke-width="0.3"/>
        <text x="201" y="37.6" text-anchor="middle" font-size="2.2" fill="#fff" font-weight="700">REV</text><rect x="212" y="34" width="52.8" height="5" fill="#1a1a2e" stroke="#000" stroke-width="0.3"/>
        <text x="238.4" y="37.6" text-anchor="middle" font-size="2.2" fill="#fff" font-weight="700">DATE</text><rect x="264.8" y="34" width="30.800000000000004" height="5" fill="#1a1a2e" stroke="#000" stroke-width="0.3"/>
        <text x="280.2" y="37.6" text-anchor="middle" font-size="2.2" fill="#fff" font-weight="700">BY</text><rect x="295.6" y="34" width="114.4" height="5" fill="#1a1a2e" stroke="#000" stroke-width="0.3"/>
        <text x="352.8" y="37.6" text-anchor="middle" font-size="2.2" fill="#fff" font-weight="700">NOTE</text><rect x="190" y="39" width="22" height="5" fill="#fff" stroke="#000" stroke-width="0.2"/>
          <text x="191.5" y="42.6" font-size="2.4" fill="#000">A</text><rect x="212" y="39" width="52.8" height="5" fill="#fff" stroke="#000" stroke-width="0.2"/>
          <text x="213.5" y="42.6" font-size="2.4" fill="#000">2026-05-09</text><rect x="264.8" y="39" width="30.800000000000004" height="5" fill="#fff" stroke="#000" stroke-width="0.2"/>
          <text x="266.3" y="42.6" font-size="2.4" fill="#000">AD</text><rect x="295.6" y="39" width="114.4" height="5" fill="#fff" stroke="#000" stroke-width="0.2"/>
          <text x="297.1" y="42.6" font-size="2.4" fill="#000">Initial release</text></g>
<rect x="190" y="74" width="220" height="36" fill="#fff" stroke="#000" stroke-width="0.3"/>
<rect x="190" y="74" width="220" height="5" fill="#1a1a2e"/>
<text x="192" y="77.6" font-size="2.5" fill="#fff" font-weight="700">GENERAL NOTES</text>
<text x="192" y="82.00" font-size="2.4" fill="#000">1. Dims in mm; tolerances per ASME Y14.5-2018.</text>
<text x="192" y="86.00" font-size="2.4" fill="#000">2. Remove all burrs and sharp edges.</text>
<text x="192" y="90.00" font-size="2.4" fill="#000">3. Inspect per drawing rev current.</text>
<text x="192" y="94.00" font-size="2.4" fill="#000">4. Material per cert lot traceability.</text>
<rect x="190" y="116" width="220" height="25" fill="#fff" stroke="#000" stroke-width="0.3"/>
<rect x="190" y="116" width="220" height="5" fill="#1a1a2e"/>
<text x="192" y="119.6" font-size="2.5" fill="#fff" font-weight="700">GD&amp;T CALLOUTS</text>
<text x="192" y="124.00" font-size="2.4" fill="#888">— none specified —</text>
<g class="title-block"><rect x="190" y="147" width="220" height="84" fill="#fff" stroke="#000" stroke-width="0.6"/>
<line x1="190" y1="161" x2="410" y2="161" stroke="#000" stroke-width="0.3"/>
<line x1="190" y1="175" x2="410" y2="175" stroke="#000" stroke-width="0.3"/>
<line x1="190" y1="189" x2="410" y2="189" stroke="#000" stroke-width="0.3"/>
<line x1="190" y1="203" x2="410" y2="203" stroke="#000" stroke-width="0.3"/>
<line x1="190" y1="217" x2="410" y2="217" stroke="#000" stroke-width="0.3"/>
<line x1="300" y1="147" x2="300" y2="161" stroke="#000" stroke-width="0.3"/>
<line x1="300" y1="175" x2="300" y2="189" stroke="#000" stroke-width="0.3"/>
<line x1="300" y1="189" x2="300" y2="203" stroke="#000" stroke-width="0.3"/>
<line x1="300" y1="203" x2="300" y2="217" stroke="#000" stroke-width="0.3"/>
<text x="192" y="150.5" font-size="2" fill="#666"  >PART NO.</text>
<text x="192" y="159.5" font-size="3" fill="#000" font-weight="700" >GE9X-FUEL-COM-0008</text>
<text x="302" y="150.5" font-size="2" fill="#666"  >DRAWING NO.</text>
<text x="302" y="159.5" font-size="3" fill="#000" font-weight="700" >GE9X-FUEL-COM-0008-DWG</text>
<text x="192" y="164.5" font-size="2" fill="#666"  >TITLE</text>
<text x="192" y="173.5" font-size="3.5" fill="#000" font-weight="700" >Fuel Manifold Inner</text>
<text x="192" y="178.5" font-size="2" fill="#666"  >MATERIAL</text>
<text x="192" y="187.5" font-size="3" fill="#000"  >Aluminum 6061-T6</text>
<text x="302" y="178.5" font-size="2" fill="#666"  >SCALE  /  SIZE</text>
<text x="302" y="187.5" font-size="3" fill="#000"  >1:2  /  A3</text>
<text x="192" y="192.5" font-size="2" fill="#666"  >DRAWN BY</text>
<text x="192" y="201.5" font-size="3" fill="#000"  >ArchDisc Auto-Drawing</text>
<text x="302" y="192.5" font-size="2" fill="#666"  >DATE</text>
<text x="302" y="201.5" font-size="3" fill="#000"  >2026-05-09</text>
<text x="192" y="206.5" font-size="2" fill="#666"  >APPROVED BY</text>
<text x="192" y="215.5" font-size="4" fill="#000"  >— pending QA review —</text>
<text x="302" y="206.5" font-size="2" fill="#666"  >REV</text>
<text x="302" y="215.5" font-size="4" fill="#000" font-weight="700" >A</text>
<text x="300" y="224" font-size="2" fill="#666"  text-anchor="middle">PROPRIETARY — REPRODUCTION FORBIDDEN</text>
<text x="300" y="228.9" font-size="2" fill="#666"  text-anchor="middle">Per ASME Y14.5-2018 / ISO 1101</text></g>
<rect x="10" y="237" width="400" height="50" fill="#fafafc" stroke="#000" stroke-width="0.3"/>
<text x="12" y="241" font-size="2.2" fill="#666" font-weight="700">HEAT TREAT</text>
<text x="12" y="277" font-size="2.6" fill="#000">No heat treatment</text>
<line x1="110" y1="237" x2="110" y2="279" stroke="#000" stroke-width="0.3"/>
<text x="112" y="241" font-size="2.2" fill="#666" font-weight="700">SURFACE FINISH</text>
<text x="112" y="277" font-size="2.6" fill="#000">Ra ≤ 3.2 μm (125 μin)</text>
<line x1="210" y1="237" x2="210" y2="279" stroke="#000" stroke-width="0.3"/>
<text x="212" y="241" font-size="2.2" fill="#666" font-weight="700">NDT</text>
<text x="212" y="277" font-size="2.6" fill="#000">Visual only</text>
<line x1="310" y1="237" x2="310" y2="279" stroke="#000" stroke-width="0.3"/>
<text x="312" y="241" font-size="2.2" fill="#666" font-weight="700">COATING</text>
<text x="312" y="277" font-size="2.6" fill="#000">No coating</text>
<line x1="10" y1="279" x2="410" y2="279" stroke="#000" stroke-width="0.3"/>
<text x="12" y="284.5" font-size="2.4" fill="#444">Default tol: linear ±0.1 mm   angular ±0.5°   Ra ≤ 3.2 μm</text>
</svg>