<?xml version="1.0" encoding="UTF-8"?>
<svg xmlns="http://www.w3.org/2000/svg" viewBox="0 0 420 297" width="420mm" height="297mm" font-family="Helvetica, Arial, sans-serif">
<rect width="420" height="297" fill="#ffffff"/>
<rect x="12" y="12" width="396" height="273" fill="none" stroke="#000" stroke-width="0.6"/>
<rect x="12" y="12" width="396" height="16" fill="#1a1a2e"/>
<text x="16" y="23" font-size="9" fill="#ffffff" font-weight="700">GE9X</text>
<text x="210" y="23" text-anchor="middle" font-size="10" fill="#ffffff" font-weight="700">HPC S2 DISK</text>
<rect x="348" y="14" width="56" height="12" fill="#d94a4a"/>
<text x="376" y="24" text-anchor="middle" font-size="9" fill="#000" font-weight="700">Class 1</text>
<g class="view-front">
        <rect x="16" y="32" width="96" height="93.5" fill="none" stroke="#ccc" stroke-width="0.3"/>
        <text x="20" y="42" font-size="8" fill="#444" font-weight="700">FRONT</text>
        <line x1="23.6" y1="83.8" x2="23.9" y2="83.8" stroke="#888" stroke-width="0.4" stroke-dasharray="2,2"/><line x1="23.6" y1="73.8" x2="23.9" y2="73.8" stroke="#888" stroke-width="0.4" stroke-dasharray="2,2"/><line x1="23.9" y1="83.8" x2="25.0" y2="83.8" stroke="#888" stroke-width="0.4" stroke-dasharray="2,2"/><line x1="23.9" y1="73.8" x2="25.0" y2="73.8" stroke="#888" stroke-width="0.4" stroke-dasharray="2,2"/><line x1="25.0" y1="83.8" x2="26.7" y2="83.8" stroke="#888" stroke-width="0.4" stroke-dasharray="2,2"/><line x1="25.0" y1="73.8" x2="26.7" y2="73.8" stroke="#888" stroke-width="0.4" stroke-dasharray="2,2"/><line x1="26.7" y1="83.8" x2="29.0" y2="83.8" stroke="#888" stroke-width="0.4" stroke-dasharray="2,2"/><line x1="26.7" y1="73.8" x2="29.0" y2="73.8" stroke="#000" stroke-width="0.4" /><line x1="29.0" y1="83.8" x2="31.9" y2="83.8" stroke="#888" stroke-width="0.4" stroke-dasharray="2,2"/><line x1="29.0" y1="73.8" x2="31.9" y2="73.8" stroke="#888" stroke-width="0.4" stroke-dasharray="2,2"/><line x1="31.9" y1="83.8" x2="35.4" y2="83.8" stroke="#888" stroke-width="0.4" stroke-dasharray="2,2"/><line x1="31.9" y1="73.8" x2="35.4" y2="73.8" stroke="#888" stroke-width="0.4" stroke-dasharray="2,2"/><line x1="35.4" y1="83.8" x2="39.4" y2="83.8" stroke="#888" stroke-width="0.4" stroke-dasharray="2,2"/><line x1="35.4" y1="73.8" x2="39.4" y2="73.8" stroke="#888" stroke-width="0.4" stroke-dasharray="2,2"/><line x1="39.4" y1="83.8" x2="43.8" y2="83.8" stroke="#888" stroke-width="0.4" stroke-dasharray="2,2"/><line x1="39.4" y1="73.8" x2="43.8" y2="73.8" stroke="#000" stroke-width="0.4" /><line x1="43.8" y1="83.8" x2="48.5" y2="83.8" stroke="#888" stroke-width="0.4" stroke-dasharray="2,2"/><line x1="43.8" y1="73.8" x2="48.5" y2="73.8" stroke="#888" stroke-width="0.4" stroke-dasharray="2,2"/><line x1="48.5" y1="83.8" x2="53.5" y2="83.8" stroke="#888" stroke-width="0.4" stroke-dasharray="2,2"/><line x1="48.5" y1="73.8" x2="53.5" y2="73.8" stroke="#888" stroke-width="0.4" stroke-dasharray="2,2"/><line x1="53.5" y1="83.8" x2="58.7" y2="83.8" stroke="#888" stroke-width="0.4" stroke-dasharray="2,2"/><line x1="53.5" y1="73.8" x2="58.7" y2="73.8" stroke="#888" stroke-width="0.4" stroke-dasharray="2,2"/><line x1="58.7" y1="83.8" x2="64.0" y2="83.8" stroke="#888" stroke-width="0.4" stroke-dasharray="2,2"/><line x1="58.7" y1="73.8" x2="64.0" y2="73.8" stroke="#888" stroke-width="0.4" stroke-dasharray="2,2"/><line x1="64.0" y1="83.8" x2="69.3" y2="83.8" stroke="#888" stroke-width="0.4" stroke-dasharray="2,2"/><line x1="64.0" y1="73.8" x2="69.3" y2="73.8" stroke="#888" stroke-width="0.4" stroke-dasharray="2,2"/><line x1="69.3" y1="83.8" x2="74.5" y2="83.8" stroke="#888" stroke-width="0.4" stroke-dasharray="2,2"/><line x1="69.3" y1="73.8" x2="74.5" y2="73.8" stroke="#888" stroke-width="0.4" stroke-dasharray="2,2"/><line x1="74.5" y1="83.8" x2="79.5" y2="83.8" stroke="#888" stroke-width="0.4" stroke-dasharray="2,2"/><line x1="74.5" y1="73.8" x2="79.5" y2="73.8" stroke="#888" stroke-width="0.4" stroke-dasharray="2,2"/><line x1="79.5" y1="83.8" x2="84.2" y2="83.8" stroke="#888" stroke-width="0.4" stroke-dasharray="2,2"/><line x1="79.5" y1="73.8" x2="84.2" y2="73.8" stroke="#888" stroke-width="0.4" stroke-dasharray="2,2"/><line x1="84.2" y1="83.8" x2="88.6" y2="83.8" stroke="#888" stroke-width="0.4" stroke-dasharray="2,2"/><line x1="84.2" y1="73.8" x2="88.6" y2="73.8" stroke="#000" stroke-width="0.4" /><line x1="88.6" y1="83.8" x2="92.6" y2="83.8" stroke="#888" stroke-width="0.4" stroke-dasharray="2,2"/><line x1="88.6" y1="73.8" x2="92.6" y2="73.8" stroke="#888" stroke-width="0.4" stroke-dasharray="2,2"/><line x1="92.6" y1="83.8" x2="96.1" y2="83.8" stroke="#888" stroke-width="0.4" stroke-dasharray="2,2"/><line x1="92.6" y1="73.8" x2="96.1" y2="73.8" stroke="#888" stroke-width="0.4" stroke-dasharray="2,2"/><line x1="96.1" y1="83.8" x2="99.0" y2="83.8" stroke="#888" stroke-width="0.4" stroke-dasharray="2,2"/><line x1="96.1" y1="73.8" x2="99.0" y2="73.8" stroke="#888" stroke-width="0.4" stroke-dasharray="2,2"/><line x1="99.0" y1="83.8" x2="101.3" y2="83.8" stroke="#888" stroke-width="0.4" stroke-dasharray="2,2"/><line x1="99.0" y1="73.8" x2="101.3" y2="73.8" stroke="#000" stroke-width="0.4" /><line x1="101.3" y1="83.8" x2="103.0" y2="83.8" stroke="#888" stroke-width="0.4" stroke-dasharray="2,2"/><line x1="101.3" y1="73.8" x2="103.0" y2="73.8" stroke="#888" stroke-width="0.4" stroke-dasharray="2,2"/><line x1="103.0" y1="83.8" x2="104.1" y2="83.8" stroke="#888" stroke-width="0.4" stroke-dasharray="2,2"/><line x1="103.0" y1="73.8" x2="104.1" y2="73.8" stroke="#888" stroke-width="0.4" stroke-dasharray="2,2"/><line x1="104.1" y1="83.8" x2="104.4" y2="83.8" stroke="#888" stroke-width="0.4" stroke-dasharray="2,2"/><line x1="104.1" y1="73.8" x2="104.4" y2="73.8" stroke="#888" stroke-width="0.4" stroke-dasharray="2,2"/><line x1="104.4" y1="83.8" x2="104.1" y2="83.8" stroke="#000" stroke-width="0.4" /><line x1="104.4" y1="73.8" x2="104.1" y2="73.8" stroke="#000" stroke-width="0.4" /><line x1="104.1" y1="83.8" x2="103.0" y2="83.8" stroke="#000" stroke-width="0.4" /><line x1="104.1" y1="73.8" x2="103.0" y2="73.8" stroke="#000" stroke-width="0.4" /><line x1="103.0" y1="83.8" x2="101.3" y2="83.8" stroke="#000" stroke-width="0.4" /><line x1="103.0" y1="73.8" x2="101.3" y2="73.8" stroke="#000" stroke-width="0.4" /><line x1="101.3" y1="83.8" x2="99.0" y2="83.8" stroke="#000" stroke-width="0.4" /><line x1="101.3" y1="73.8" x2="99.0" y2="73.8" stroke="#000" stroke-width="0.4" /><line x1="99.0" y1="83.8" x2="96.1" y2="83.8" stroke="#000" stroke-width="0.4" /><line x1="99.0" y1="73.8" x2="96.1" y2="73.8" stroke="#000" stroke-width="0.4" /><line x1="96.1" y1="83.8" x2="92.6" y2="83.8" stroke="#000" stroke-width="0.4" /><line x1="96.1" y1="73.8" x2="92.6" y2="73.8" stroke="#000" stroke-width="0.4" /><line x1="92.6" y1="83.8" x2="88.6" y2="83.8" stroke="#000" stroke-width="0.4" /><line x1="92.6" y1="73.8" x2="88.6" y2="73.8" stroke="#000" stroke-width="0.4" /><line x1="88.6" y1="83.8" x2="84.2" y2="83.8" stroke="#000" stroke-width="0.4" /><line x1="88.6" y1="73.8" x2="84.2" y2="73.8" stroke="#000" stroke-width="0.4" /><line x1="84.2" y1="83.8" x2="79.5" y2="83.8" stroke="#000" stroke-width="0.4" /><line x1="84.2" y1="73.8" x2="79.5" y2="73.8" stroke="#000" stroke-width="0.4" /><line x1="79.5" y1="83.8" x2="74.5" y2="83.8" stroke="#000" stroke-width="0.4" /><line x1="79.5" y1="73.8" x2="74.5" y2="73.8" stroke="#000" stroke-width="0.4" /><line x1="74.5" y1="83.8" x2="69.3" y2="83.8" stroke="#000" stroke-width="0.4" /><line x1="74.5" y1="73.8" x2="69.3" y2="73.8" stroke="#000" stroke-width="0.4" /><line x1="69.3" y1="83.8" x2="64.0" y2="83.8" stroke="#000" stroke-width="0.4" /><line x1="69.3" y1="73.8" x2="64.0" y2="73.8" stroke="#000" stroke-width="0.4" /><line x1="64.0" y1="83.8" x2="58.7" y2="83.8" stroke="#000" stroke-width="0.4" /><line x1="64.0" y1="73.8" x2="58.7" y2="73.8" stroke="#000" stroke-width="0.4" /><line x1="58.7" y1="83.8" x2="53.5" y2="83.8" stroke="#000" stroke-width="0.4" /><line x1="58.7" y1="73.8" x2="53.5" y2="73.8" stroke="#000" stroke-width="0.4" /><line x1="53.5" y1="83.8" x2="48.5" y2="83.8" stroke="#000" stroke-width="0.4" /><line x1="53.5" y1="73.8" x2="48.5" y2="73.8" stroke="#000" stroke-width="0.4" /><line x1="48.5" y1="83.8" x2="43.8" y2="83.8" stroke="#000" stroke-width="0.4" /><line x1="48.5" y1="73.8" x2="43.8" y2="73.8" stroke="#000" stroke-width="0.4" /><line x1="43.8" y1="83.8" x2="39.4" y2="83.8" stroke="#000" stroke-width="0.4" /><line x1="43.8" y1="73.8" x2="39.4" y2="73.8" stroke="#000" stroke-width="0.4" /><line x1="39.4" y1="83.8" x2="35.4" y2="83.8" stroke="#000" stroke-width="0.4" /><line x1="39.4" y1="73.8" x2="35.4" y2="73.8" stroke="#000" stroke-width="0.4" /><line x1="35.4" y1="83.8" x2="31.9" y2="83.8" stroke="#000" stroke-width="0.4" /><line x1="35.4" y1="73.8" x2="31.9" y2="73.8" stroke="#000" stroke-width="0.4" /><line x1="31.9" y1="83.8" x2="29.0" y2="83.8" stroke="#000" stroke-width="0.4" /><line x1="31.9" y1="73.8" x2="29.0" y2="73.8" stroke="#000" stroke-width="0.4" /><line x1="29.0" y1="83.8" x2="26.7" y2="83.8" stroke="#000" stroke-width="0.4" /><line x1="29.0" y1="73.8" x2="26.7" y2="73.8" stroke="#000" stroke-width="0.4" /><line x1="26.7" y1="83.8" x2="25.0" y2="83.8" stroke="#000" stroke-width="0.4" /><line x1="26.7" y1="73.8" x2="25.0" y2="73.8" stroke="#000" stroke-width="0.4" /><line x1="25.0" y1="83.8" x2="23.9" y2="83.8" stroke="#000" stroke-width="0.4" /><line x1="25.0" y1="73.8" x2="23.9" y2="73.8" stroke="#000" stroke-width="0.4" /><line x1="23.9" y1="83.8" x2="23.6" y2="83.8" stroke="#000" stroke-width="0.4" /><line x1="23.9" y1="73.8" x2="23.6" y2="73.8" stroke="#000" stroke-width="0.4" />
        
      <line x1="23.599999999999994" y1="95.75" x2="104.4" y2="95.75" stroke="#000" stroke-width="0.3"/>
      <text x="64" y="102.75" text-anchor="middle" font-size="7" fill="#000">404.0</text>
      </g>
<g class="view-right">
        <rect x="116" y="32" width="96" height="93.5" fill="none" stroke="#ccc" stroke-width="0.3"/>
        <text x="120" y="42" font-size="8" fill="#444" font-weight="700">RIGHT</text>
        <line x1="164.0" y1="83.8" x2="169.3" y2="83.8" stroke="#888" stroke-width="0.4" stroke-dasharray="2,2"/><line x1="164.0" y1="73.8" x2="169.3" y2="73.8" stroke="#888" stroke-width="0.4" stroke-dasharray="2,2"/><line x1="169.3" y1="83.8" x2="174.5" y2="83.8" stroke="#888" stroke-width="0.4" stroke-dasharray="2,2"/><line x1="169.3" y1="73.8" x2="174.5" y2="73.8" stroke="#888" stroke-width="0.4" stroke-dasharray="2,2"/><line x1="174.5" y1="83.8" x2="179.5" y2="83.8" stroke="#888" stroke-width="0.4" stroke-dasharray="2,2"/><line x1="174.5" y1="73.8" x2="179.5" y2="73.8" stroke="#888" stroke-width="0.4" stroke-dasharray="2,2"/><line x1="179.5" y1="83.8" x2="184.2" y2="83.8" stroke="#888" stroke-width="0.4" stroke-dasharray="2,2"/><line x1="179.5" y1="73.8" x2="184.2" y2="73.8" stroke="#888" stroke-width="0.4" stroke-dasharray="2,2"/><line x1="184.2" y1="83.8" x2="188.6" y2="83.8" stroke="#888" stroke-width="0.4" stroke-dasharray="2,2"/><line x1="184.2" y1="73.8" x2="188.6" y2="73.8" stroke="#888" stroke-width="0.4" stroke-dasharray="2,2"/><line x1="188.6" y1="83.8" x2="192.6" y2="83.8" stroke="#888" stroke-width="0.4" stroke-dasharray="2,2"/><line x1="188.6" y1="73.8" x2="192.6" y2="73.8" stroke="#888" stroke-width="0.4" stroke-dasharray="2,2"/><line x1="192.6" y1="83.8" x2="196.1" y2="83.8" stroke="#888" stroke-width="0.4" stroke-dasharray="2,2"/><line x1="192.6" y1="73.8" x2="196.1" y2="73.8" stroke="#888" stroke-width="0.4" stroke-dasharray="2,2"/><line x1="196.1" y1="83.8" x2="199.0" y2="83.8" stroke="#888" stroke-width="0.4" stroke-dasharray="2,2"/><line x1="196.1" y1="73.8" x2="199.0" y2="73.8" stroke="#888" stroke-width="0.4" stroke-dasharray="2,2"/><line x1="199.0" y1="83.8" x2="201.3" y2="83.8" stroke="#888" stroke-width="0.4" stroke-dasharray="2,2"/><line x1="199.0" y1="73.8" x2="201.3" y2="73.8" stroke="#888" stroke-width="0.4" stroke-dasharray="2,2"/><line x1="201.3" y1="83.8" x2="203.0" y2="83.8" stroke="#888" stroke-width="0.4" stroke-dasharray="2,2"/><line x1="201.3" y1="73.8" x2="203.0" y2="73.8" stroke="#888" stroke-width="0.4" stroke-dasharray="2,2"/><line x1="203.0" y1="83.8" x2="204.1" y2="83.8" stroke="#888" stroke-width="0.4" stroke-dasharray="2,2"/><line x1="203.0" y1="73.8" x2="204.1" y2="73.8" stroke="#888" stroke-width="0.4" stroke-dasharray="2,2"/><line x1="204.1" y1="83.8" x2="204.4" y2="83.8" stroke="#888" stroke-width="0.4" stroke-dasharray="2,2"/><line x1="204.1" y1="73.8" x2="204.4" y2="73.8" stroke="#888" stroke-width="0.4" stroke-dasharray="2,2"/><line x1="204.4" y1="83.8" x2="204.1" y2="83.8" stroke="#000" stroke-width="0.4" /><line x1="204.4" y1="73.8" x2="204.1" y2="73.8" stroke="#000" stroke-width="0.4" /><line x1="204.1" y1="83.8" x2="203.0" y2="83.8" stroke="#000" stroke-width="0.4" /><line x1="204.1" y1="73.8" x2="203.0" y2="73.8" stroke="#000" stroke-width="0.4" /><line x1="203.0" y1="83.8" x2="201.3" y2="83.8" stroke="#000" stroke-width="0.4" /><line x1="203.0" y1="73.8" x2="201.3" y2="73.8" stroke="#000" stroke-width="0.4" /><line x1="201.3" y1="83.8" x2="199.0" y2="83.8" stroke="#000" stroke-width="0.4" /><line x1="201.3" y1="73.8" x2="199.0" y2="73.8" stroke="#000" stroke-width="0.4" /><line x1="199.0" y1="83.8" x2="196.1" y2="83.8" stroke="#000" stroke-width="0.4" /><line x1="199.0" y1="73.8" x2="196.1" y2="73.8" stroke="#000" stroke-width="0.4" /><line x1="196.1" y1="83.8" x2="192.6" y2="83.8" stroke="#000" stroke-width="0.4" /><line x1="196.1" y1="73.8" x2="192.6" y2="73.8" stroke="#000" stroke-width="0.4" /><line x1="192.6" y1="83.8" x2="188.6" y2="83.8" stroke="#000" stroke-width="0.4" /><line x1="192.6" y1="73.8" x2="188.6" y2="73.8" stroke="#000" stroke-width="0.4" /><line x1="188.6" y1="83.8" x2="184.2" y2="83.8" stroke="#000" stroke-width="0.4" /><line x1="188.6" y1="73.8" x2="184.2" y2="73.8" stroke="#000" stroke-width="0.4" /><line x1="184.2" y1="83.8" x2="179.5" y2="83.8" stroke="#000" stroke-width="0.4" /><line x1="184.2" y1="73.8" x2="179.5" y2="73.8" stroke="#000" stroke-width="0.4" /><line x1="179.5" y1="83.8" x2="174.5" y2="83.8" stroke="#000" stroke-width="0.4" /><line x1="179.5" y1="73.8" x2="174.5" y2="73.8" stroke="#000" stroke-width="0.4" /><line x1="174.5" y1="83.8" x2="169.3" y2="83.8" stroke="#000" stroke-width="0.4" /><line x1="174.5" y1="73.8" x2="169.3" y2="73.8" stroke="#000" stroke-width="0.4" /><line x1="169.3" y1="83.8" x2="164.0" y2="83.8" stroke="#000" stroke-width="0.4" /><line x1="169.3" y1="73.8" x2="164.0" y2="73.8" stroke="#000" stroke-width="0.4" /><line x1="164.0" y1="83.8" x2="158.7" y2="83.8" stroke="#000" stroke-width="0.4" /><line x1="164.0" y1="73.8" x2="158.7" y2="73.8" stroke="#000" stroke-width="0.4" /><line x1="158.7" y1="83.8" x2="153.5" y2="83.8" stroke="#000" stroke-width="0.4" /><line x1="158.7" y1="73.8" x2="153.5" y2="73.8" stroke="#000" stroke-width="0.4" /><line x1="153.5" y1="83.8" x2="148.5" y2="83.8" stroke="#000" stroke-width="0.4" /><line x1="153.5" y1="73.8" x2="148.5" y2="73.8" stroke="#000" stroke-width="0.4" /><line x1="148.5" y1="83.8" x2="143.8" y2="83.8" stroke="#000" stroke-width="0.4" /><line x1="148.5" y1="73.8" x2="143.8" y2="73.8" stroke="#000" stroke-width="0.4" /><line x1="143.8" y1="83.8" x2="139.4" y2="83.8" stroke="#000" stroke-width="0.4" /><line x1="143.8" y1="73.8" x2="139.4" y2="73.8" stroke="#000" stroke-width="0.4" /><line x1="139.4" y1="83.8" x2="135.4" y2="83.8" stroke="#000" stroke-width="0.4" /><line x1="139.4" y1="73.8" x2="135.4" y2="73.8" stroke="#000" stroke-width="0.4" /><line x1="135.4" y1="83.8" x2="131.9" y2="83.8" stroke="#000" stroke-width="0.4" /><line x1="135.4" y1="73.8" x2="131.9" y2="73.8" stroke="#000" stroke-width="0.4" /><line x1="131.9" y1="83.8" x2="129.0" y2="83.8" stroke="#000" stroke-width="0.4" /><line x1="131.9" y1="73.8" x2="129.0" y2="73.8" stroke="#000" stroke-width="0.4" /><line x1="129.0" y1="83.8" x2="126.7" y2="83.8" stroke="#000" stroke-width="0.4" /><line x1="129.0" y1="73.8" x2="126.7" y2="73.8" stroke="#000" stroke-width="0.4" /><line x1="126.7" y1="83.8" x2="125.0" y2="83.8" stroke="#000" stroke-width="0.4" /><line x1="126.7" y1="73.8" x2="125.0" y2="73.8" stroke="#000" stroke-width="0.4" /><line x1="125.0" y1="83.8" x2="123.9" y2="83.8" stroke="#000" stroke-width="0.4" /><line x1="125.0" y1="73.8" x2="123.9" y2="73.8" stroke="#000" stroke-width="0.4" /><line x1="123.9" y1="83.8" x2="123.6" y2="83.8" stroke="#000" stroke-width="0.4" /><line x1="123.9" y1="73.8" x2="123.6" y2="73.8" stroke="#000" stroke-width="0.4" /><line x1="123.6" y1="83.8" x2="123.9" y2="83.8" stroke="#888" stroke-width="0.4" stroke-dasharray="2,2"/><line x1="123.6" y1="73.8" x2="123.9" y2="73.8" stroke="#888" stroke-width="0.4" stroke-dasharray="2,2"/><line x1="123.9" y1="83.8" x2="125.0" y2="83.8" stroke="#888" stroke-width="0.4" stroke-dasharray="2,2"/><line x1="123.9" y1="73.8" x2="125.0" y2="73.8" stroke="#888" stroke-width="0.4" stroke-dasharray="2,2"/><line x1="125.0" y1="83.8" x2="126.7" y2="83.8" stroke="#888" stroke-width="0.4" stroke-dasharray="2,2"/><line x1="125.0" y1="73.8" x2="126.7" y2="73.8" stroke="#888" stroke-width="0.4" stroke-dasharray="2,2"/><line x1="126.7" y1="83.8" x2="129.0" y2="83.8" stroke="#888" stroke-width="0.4" stroke-dasharray="2,2"/><line x1="126.7" y1="73.8" x2="129.0" y2="73.8" stroke="#888" stroke-width="0.4" stroke-dasharray="2,2"/><line x1="129.0" y1="83.8" x2="131.9" y2="83.8" stroke="#888" stroke-width="0.4" stroke-dasharray="2,2"/><line x1="129.0" y1="73.8" x2="131.9" y2="73.8" stroke="#888" stroke-width="0.4" stroke-dasharray="2,2"/><line x1="131.9" y1="83.8" x2="135.4" y2="83.8" stroke="#888" stroke-width="0.4" stroke-dasharray="2,2"/><line x1="131.9" y1="73.8" x2="135.4" y2="73.8" stroke="#888" stroke-width="0.4" stroke-dasharray="2,2"/><line x1="135.4" y1="83.8" x2="139.4" y2="83.8" stroke="#888" stroke-width="0.4" stroke-dasharray="2,2"/><line x1="135.4" y1="73.8" x2="139.4" y2="73.8" stroke="#888" stroke-width="0.4" stroke-dasharray="2,2"/><line x1="139.4" y1="83.8" x2="143.8" y2="83.8" stroke="#888" stroke-width="0.4" stroke-dasharray="2,2"/><line x1="139.4" y1="73.8" x2="143.8" y2="73.8" stroke="#888" stroke-width="0.4" stroke-dasharray="2,2"/><line x1="143.8" y1="83.8" x2="148.5" y2="83.8" stroke="#888" stroke-width="0.4" stroke-dasharray="2,2"/><line x1="143.8" y1="73.8" x2="148.5" y2="73.8" stroke="#888" stroke-width="0.4" stroke-dasharray="2,2"/><line x1="148.5" y1="83.8" x2="153.5" y2="83.8" stroke="#888" stroke-width="0.4" stroke-dasharray="2,2"/><line x1="148.5" y1="73.8" x2="153.5" y2="73.8" stroke="#888" stroke-width="0.4" stroke-dasharray="2,2"/><line x1="153.5" y1="83.8" x2="158.7" y2="83.8" stroke="#888" stroke-width="0.4" stroke-dasharray="2,2"/><line x1="153.5" y1="73.8" x2="158.7" y2="73.8" stroke="#888" stroke-width="0.4" stroke-dasharray="2,2"/><line x1="158.7" y1="83.8" x2="164.0" y2="83.8" stroke="#888" stroke-width="0.4" stroke-dasharray="2,2"/><line x1="158.7" y1="73.8" x2="164.0" y2="73.8" stroke="#888" stroke-width="0.4" stroke-dasharray="2,2"/>
        
      <line x1="123.6" y1="95.75" x2="204.4" y2="95.75" stroke="#000" stroke-width="0.3"/>
      <text x="164" y="102.75" text-anchor="middle" font-size="7" fill="#000">404.0</text>
      </g>
<g class="view-top">
        <rect x="16" y="129.5" width="96" height="93.5" fill="none" stroke="#ccc" stroke-width="0.3"/>
        <text x="20" y="139.5" font-size="8" fill="#444" font-weight="700">TOP</text>
        <line x1="23.6" y1="176.3" x2="23.9" y2="181.5" stroke="#888" stroke-width="0.4" stroke-dasharray="2,2"/><line x1="23.6" y1="176.3" x2="23.9" y2="181.5" stroke="#888" stroke-width="0.4" stroke-dasharray="2,2"/><line x1="23.9" y1="181.5" x2="25.0" y2="186.7" stroke="#888" stroke-width="0.4" stroke-dasharray="2,2"/><line x1="23.9" y1="181.5" x2="25.0" y2="186.7" stroke="#888" stroke-width="0.4" stroke-dasharray="2,2"/><line x1="25.0" y1="186.7" x2="26.7" y2="191.7" stroke="#888" stroke-width="0.4" stroke-dasharray="2,2"/><line x1="25.0" y1="186.7" x2="26.7" y2="191.7" stroke="#888" stroke-width="0.4" stroke-dasharray="2,2"/><line x1="26.7" y1="191.7" x2="29.0" y2="196.4" stroke="#888" stroke-width="0.4" stroke-dasharray="2,2"/><line x1="26.7" y1="191.7" x2="29.0" y2="196.4" stroke="#888" stroke-width="0.4" stroke-dasharray="2,2"/><line x1="29.0" y1="196.4" x2="31.9" y2="200.8" stroke="#888" stroke-width="0.4" stroke-dasharray="2,2"/><line x1="29.0" y1="196.4" x2="31.9" y2="200.8" stroke="#888" stroke-width="0.4" stroke-dasharray="2,2"/><line x1="31.9" y1="200.8" x2="35.4" y2="204.8" stroke="#888" stroke-width="0.4" stroke-dasharray="2,2"/><line x1="31.9" y1="200.8" x2="35.4" y2="204.8" stroke="#888" stroke-width="0.4" stroke-dasharray="2,2"/><line x1="35.4" y1="204.8" x2="39.4" y2="208.3" stroke="#888" stroke-width="0.4" stroke-dasharray="2,2"/><line x1="35.4" y1="204.8" x2="39.4" y2="208.3" stroke="#888" stroke-width="0.4" stroke-dasharray="2,2"/><line x1="39.4" y1="208.3" x2="43.8" y2="211.2" stroke="#888" stroke-width="0.4" stroke-dasharray="2,2"/><line x1="39.4" y1="208.3" x2="43.8" y2="211.2" stroke="#888" stroke-width="0.4" stroke-dasharray="2,2"/><line x1="43.8" y1="211.2" x2="48.5" y2="213.6" stroke="#888" stroke-width="0.4" stroke-dasharray="2,2"/><line x1="43.8" y1="211.2" x2="48.5" y2="213.6" stroke="#888" stroke-width="0.4" stroke-dasharray="2,2"/><line x1="48.5" y1="213.6" x2="53.5" y2="215.3" stroke="#888" stroke-width="0.4" stroke-dasharray="2,2"/><line x1="48.5" y1="213.6" x2="53.5" y2="215.3" stroke="#888" stroke-width="0.4" stroke-dasharray="2,2"/><line x1="53.5" y1="215.3" x2="58.7" y2="216.3" stroke="#888" stroke-width="0.4" stroke-dasharray="2,2"/><line x1="53.5" y1="215.3" x2="58.7" y2="216.3" stroke="#888" stroke-width="0.4" stroke-dasharray="2,2"/><line x1="58.7" y1="216.3" x2="64.0" y2="216.7" stroke="#888" stroke-width="0.4" stroke-dasharray="2,2"/><line x1="58.7" y1="216.3" x2="64.0" y2="216.7" stroke="#888" stroke-width="0.4" stroke-dasharray="2,2"/><line x1="64.0" y1="216.7" x2="69.3" y2="216.3" stroke="#888" stroke-width="0.4" stroke-dasharray="2,2"/><line x1="64.0" y1="216.7" x2="69.3" y2="216.3" stroke="#888" stroke-width="0.4" stroke-dasharray="2,2"/><line x1="69.3" y1="216.3" x2="74.5" y2="215.3" stroke="#888" stroke-width="0.4" stroke-dasharray="2,2"/><line x1="69.3" y1="216.3" x2="74.5" y2="215.3" stroke="#888" stroke-width="0.4" stroke-dasharray="2,2"/><line x1="74.5" y1="215.3" x2="79.5" y2="213.6" stroke="#888" stroke-width="0.4" stroke-dasharray="2,2"/><line x1="74.5" y1="215.3" x2="79.5" y2="213.6" stroke="#888" stroke-width="0.4" stroke-dasharray="2,2"/><line x1="79.5" y1="213.6" x2="84.2" y2="211.2" stroke="#888" stroke-width="0.4" stroke-dasharray="2,2"/><line x1="79.5" y1="213.6" x2="84.2" y2="211.2" stroke="#888" stroke-width="0.4" stroke-dasharray="2,2"/><line x1="84.2" y1="211.2" x2="88.6" y2="208.3" stroke="#888" stroke-width="0.4" stroke-dasharray="2,2"/><line x1="84.2" y1="211.2" x2="88.6" y2="208.3" stroke="#888" stroke-width="0.4" stroke-dasharray="2,2"/><line x1="88.6" y1="208.3" x2="92.6" y2="204.8" stroke="#888" stroke-width="0.4" stroke-dasharray="2,2"/><line x1="88.6" y1="208.3" x2="92.6" y2="204.8" stroke="#888" stroke-width="0.4" stroke-dasharray="2,2"/><line x1="92.6" y1="204.8" x2="96.1" y2="200.8" stroke="#888" stroke-width="0.4" stroke-dasharray="2,2"/><line x1="92.6" y1="204.8" x2="96.1" y2="200.8" stroke="#888" stroke-width="0.4" stroke-dasharray="2,2"/><line x1="96.1" y1="200.8" x2="99.0" y2="196.4" stroke="#888" stroke-width="0.4" stroke-dasharray="2,2"/><line x1="96.1" y1="200.8" x2="99.0" y2="196.4" stroke="#888" stroke-width="0.4" stroke-dasharray="2,2"/><line x1="99.0" y1="196.4" x2="101.3" y2="191.7" stroke="#888" stroke-width="0.4" stroke-dasharray="2,2"/><line x1="99.0" y1="196.4" x2="101.3" y2="191.7" stroke="#888" stroke-width="0.4" stroke-dasharray="2,2"/><line x1="101.3" y1="191.7" x2="103.0" y2="186.7" stroke="#888" stroke-width="0.4" stroke-dasharray="2,2"/><line x1="101.3" y1="191.7" x2="103.0" y2="186.7" stroke="#888" stroke-width="0.4" stroke-dasharray="2,2"/><line x1="103.0" y1="186.7" x2="104.1" y2="181.5" stroke="#888" stroke-width="0.4" stroke-dasharray="2,2"/><line x1="103.0" y1="186.7" x2="104.1" y2="181.5" stroke="#888" stroke-width="0.4" stroke-dasharray="2,2"/><line x1="104.1" y1="181.5" x2="104.4" y2="176.3" stroke="#888" stroke-width="0.4" stroke-dasharray="2,2"/><line x1="104.1" y1="181.5" x2="104.4" y2="176.3" stroke="#888" stroke-width="0.4" stroke-dasharray="2,2"/><line x1="104.4" y1="176.3" x2="104.1" y2="171.0" stroke="#888" stroke-width="0.4" stroke-dasharray="2,2"/><line x1="104.4" y1="176.3" x2="104.1" y2="171.0" stroke="#888" stroke-width="0.4" stroke-dasharray="2,2"/><line x1="104.1" y1="171.0" x2="103.0" y2="165.8" stroke="#888" stroke-width="0.4" stroke-dasharray="2,2"/><line x1="104.1" y1="171.0" x2="103.0" y2="165.8" stroke="#888" stroke-width="0.4" stroke-dasharray="2,2"/><line x1="103.0" y1="165.8" x2="101.3" y2="160.8" stroke="#888" stroke-width="0.4" stroke-dasharray="2,2"/><line x1="103.0" y1="165.8" x2="101.3" y2="160.8" stroke="#888" stroke-width="0.4" stroke-dasharray="2,2"/><line x1="101.3" y1="160.8" x2="99.0" y2="156.0" stroke="#888" stroke-width="0.4" stroke-dasharray="2,2"/><line x1="101.3" y1="160.8" x2="99.0" y2="156.0" stroke="#888" stroke-width="0.4" stroke-dasharray="2,2"/><line x1="99.0" y1="156.0" x2="96.1" y2="151.7" stroke="#888" stroke-width="0.4" stroke-dasharray="2,2"/><line x1="99.0" y1="156.0" x2="96.1" y2="151.7" stroke="#888" stroke-width="0.4" stroke-dasharray="2,2"/><line x1="96.1" y1="151.7" x2="92.6" y2="147.7" stroke="#888" stroke-width="0.4" stroke-dasharray="2,2"/><line x1="96.1" y1="151.7" x2="92.6" y2="147.7" stroke="#888" stroke-width="0.4" stroke-dasharray="2,2"/><line x1="92.6" y1="147.7" x2="88.6" y2="144.2" stroke="#888" stroke-width="0.4" stroke-dasharray="2,2"/><line x1="92.6" y1="147.7" x2="88.6" y2="144.2" stroke="#888" stroke-width="0.4" stroke-dasharray="2,2"/><line x1="88.6" y1="144.2" x2="84.2" y2="141.3" stroke="#888" stroke-width="0.4" stroke-dasharray="2,2"/><line x1="88.6" y1="144.2" x2="84.2" y2="141.3" stroke="#888" stroke-width="0.4" stroke-dasharray="2,2"/><line x1="84.2" y1="141.3" x2="79.5" y2="138.9" stroke="#888" stroke-width="0.4" stroke-dasharray="2,2"/><line x1="84.2" y1="141.3" x2="79.5" y2="138.9" stroke="#888" stroke-width="0.4" stroke-dasharray="2,2"/><line x1="79.5" y1="138.9" x2="74.5" y2="137.2" stroke="#888" stroke-width="0.4" stroke-dasharray="2,2"/><line x1="79.5" y1="138.9" x2="74.5" y2="137.2" stroke="#888" stroke-width="0.4" stroke-dasharray="2,2"/><line x1="74.5" y1="137.2" x2="69.3" y2="136.2" stroke="#888" stroke-width="0.4" stroke-dasharray="2,2"/><line x1="74.5" y1="137.2" x2="69.3" y2="136.2" stroke="#888" stroke-width="0.4" stroke-dasharray="2,2"/><line x1="69.3" y1="136.2" x2="64.0" y2="135.8" stroke="#888" stroke-width="0.4" stroke-dasharray="2,2"/><line x1="69.3" y1="136.2" x2="64.0" y2="135.8" stroke="#888" stroke-width="0.4" stroke-dasharray="2,2"/><line x1="64.0" y1="135.8" x2="58.7" y2="136.2" stroke="#888" stroke-width="0.4" stroke-dasharray="2,2"/><line x1="64.0" y1="135.8" x2="58.7" y2="136.2" stroke="#888" stroke-width="0.4" stroke-dasharray="2,2"/><line x1="58.7" y1="136.2" x2="53.5" y2="137.2" stroke="#888" stroke-width="0.4" stroke-dasharray="2,2"/><line x1="58.7" y1="136.2" x2="53.5" y2="137.2" stroke="#888" stroke-width="0.4" stroke-dasharray="2,2"/><line x1="53.5" y1="137.2" x2="48.5" y2="138.9" stroke="#888" stroke-width="0.4" stroke-dasharray="2,2"/><line x1="53.5" y1="137.2" x2="48.5" y2="138.9" stroke="#888" stroke-width="0.4" stroke-dasharray="2,2"/><line x1="48.5" y1="138.9" x2="43.8" y2="141.3" stroke="#888" stroke-width="0.4" stroke-dasharray="2,2"/><line x1="48.5" y1="138.9" x2="43.8" y2="141.3" stroke="#888" stroke-width="0.4" stroke-dasharray="2,2"/><line x1="43.8" y1="141.3" x2="39.4" y2="144.2" stroke="#888" stroke-width="0.4" stroke-dasharray="2,2"/><line x1="43.8" y1="141.3" x2="39.4" y2="144.2" stroke="#888" stroke-width="0.4" stroke-dasharray="2,2"/><line x1="39.4" y1="144.2" x2="35.4" y2="147.7" stroke="#888" stroke-width="0.4" stroke-dasharray="2,2"/><line x1="39.4" y1="144.2" x2="35.4" y2="147.7" stroke="#888" stroke-width="0.4" stroke-dasharray="2,2"/><line x1="35.4" y1="147.7" x2="31.9" y2="151.7" stroke="#888" stroke-width="0.4" stroke-dasharray="2,2"/><line x1="35.4" y1="147.7" x2="31.9" y2="151.7" stroke="#888" stroke-width="0.4" stroke-dasharray="2,2"/><line x1="31.9" y1="151.7" x2="29.0" y2="156.0" stroke="#888" stroke-width="0.4" stroke-dasharray="2,2"/><line x1="31.9" y1="151.7" x2="29.0" y2="156.0" stroke="#888" stroke-width="0.4" stroke-dasharray="2,2"/><line x1="29.0" y1="156.0" x2="26.7" y2="160.8" stroke="#888" stroke-width="0.4" stroke-dasharray="2,2"/><line x1="29.0" y1="156.0" x2="26.7" y2="160.8" stroke="#888" stroke-width="0.4" stroke-dasharray="2,2"/><line x1="26.7" y1="160.8" x2="25.0" y2="165.8" stroke="#888" stroke-width="0.4" stroke-dasharray="2,2"/><line x1="26.7" y1="160.8" x2="25.0" y2="165.8" stroke="#888" stroke-width="0.4" stroke-dasharray="2,2"/><line x1="25.0" y1="165.8" x2="23.9" y2="171.0" stroke="#888" stroke-width="0.4" stroke-dasharray="2,2"/><line x1="25.0" y1="165.8" x2="23.9" y2="171.0" stroke="#888" stroke-width="0.4" stroke-dasharray="2,2"/><line x1="23.9" y1="171.0" x2="23.6" y2="176.3" stroke="#888" stroke-width="0.4" stroke-dasharray="2,2"/><line x1="23.9" y1="171.0" x2="23.6" y2="176.3" stroke="#888" stroke-width="0.4" stroke-dasharray="2,2"/>
        
      <line x1="23.599999999999994" y1="228.65" x2="104.4" y2="228.65" stroke="#000" stroke-width="0.3"/>
      <text x="64" y="235.65" text-anchor="middle" font-size="7" fill="#000">404.0</text>
      </g>
<g class="view-iso">
        <rect x="116" y="129.5" width="96" height="93.5" fill="none" stroke="#ccc" stroke-width="0.3"/>
        <text x="120" y="139.5" font-size="8" fill="#444" font-weight="700">ISO</text>
        <line x1="135.4" y1="196.8" x2="139.4" y2="198.8" stroke="#888" stroke-width="0.4" stroke-dasharray="2,2"/><line x1="135.4" y1="188.7" x2="139.4" y2="190.7" stroke="#888" stroke-width="0.4" stroke-dasharray="2,2"/><line x1="139.4" y1="198.8" x2="143.8" y2="200.5" stroke="#888" stroke-width="0.4" stroke-dasharray="2,2"/><line x1="139.4" y1="190.7" x2="143.8" y2="192.4" stroke="#888" stroke-width="0.4" stroke-dasharray="2,2"/><line x1="143.8" y1="200.5" x2="148.5" y2="201.9" stroke="#888" stroke-width="0.4" stroke-dasharray="2,2"/><line x1="143.8" y1="192.4" x2="148.5" y2="193.7" stroke="#888" stroke-width="0.4" stroke-dasharray="2,2"/><line x1="148.5" y1="201.9" x2="153.5" y2="202.9" stroke="#888" stroke-width="0.4" stroke-dasharray="2,2"/><line x1="148.5" y1="193.7" x2="153.5" y2="194.7" stroke="#888" stroke-width="0.4" stroke-dasharray="2,2"/><line x1="153.5" y1="202.9" x2="158.7" y2="203.5" stroke="#888" stroke-width="0.4" stroke-dasharray="2,2"/><line x1="153.5" y1="194.7" x2="158.7" y2="195.3" stroke="#888" stroke-width="0.4" stroke-dasharray="2,2"/><line x1="158.7" y1="203.5" x2="164.0" y2="203.7" stroke="#888" stroke-width="0.4" stroke-dasharray="2,2"/><line x1="158.7" y1="195.3" x2="164.0" y2="195.5" stroke="#888" stroke-width="0.4" stroke-dasharray="2,2"/><line x1="164.0" y1="203.7" x2="169.3" y2="203.5" stroke="#888" stroke-width="0.4" stroke-dasharray="2,2"/><line x1="164.0" y1="195.5" x2="169.3" y2="195.3" stroke="#888" stroke-width="0.4" stroke-dasharray="2,2"/><line x1="169.3" y1="203.5" x2="174.5" y2="202.9" stroke="#888" stroke-width="0.4" stroke-dasharray="2,2"/><line x1="169.3" y1="195.3" x2="174.5" y2="194.7" stroke="#888" stroke-width="0.4" stroke-dasharray="2,2"/><line x1="174.5" y1="202.9" x2="179.5" y2="201.9" stroke="#888" stroke-width="0.4" stroke-dasharray="2,2"/><line x1="174.5" y1="194.7" x2="179.5" y2="193.7" stroke="#888" stroke-width="0.4" stroke-dasharray="2,2"/><line x1="179.5" y1="201.9" x2="184.2" y2="200.5" stroke="#888" stroke-width="0.4" stroke-dasharray="2,2"/><line x1="179.5" y1="193.7" x2="184.2" y2="192.4" stroke="#888" stroke-width="0.4" stroke-dasharray="2,2"/><line x1="184.2" y1="200.5" x2="188.6" y2="198.8" stroke="#888" stroke-width="0.4" stroke-dasharray="2,2"/><line x1="184.2" y1="192.4" x2="188.6" y2="190.7" stroke="#888" stroke-width="0.4" stroke-dasharray="2,2"/><line x1="188.6" y1="198.8" x2="192.6" y2="196.8" stroke="#888" stroke-width="0.4" stroke-dasharray="2,2"/><line x1="188.6" y1="190.7" x2="192.6" y2="188.7" stroke="#888" stroke-width="0.4" stroke-dasharray="2,2"/><line x1="192.6" y1="196.8" x2="196.1" y2="194.5" stroke="#888" stroke-width="0.4" stroke-dasharray="2,2"/><line x1="192.6" y1="188.7" x2="196.1" y2="186.4" stroke="#888" stroke-width="0.4" stroke-dasharray="2,2"/><line x1="196.1" y1="194.5" x2="199.0" y2="192.0" stroke="#888" stroke-width="0.4" stroke-dasharray="2,2"/><line x1="196.1" y1="186.4" x2="199.0" y2="183.8" stroke="#888" stroke-width="0.4" stroke-dasharray="2,2"/><line x1="199.0" y1="192.0" x2="201.3" y2="189.3" stroke="#888" stroke-width="0.4" stroke-dasharray="2,2"/><line x1="199.0" y1="183.8" x2="201.3" y2="181.1" stroke="#888" stroke-width="0.4" stroke-dasharray="2,2"/><line x1="201.3" y1="189.3" x2="203.0" y2="186.4" stroke="#888" stroke-width="0.4" stroke-dasharray="2,2"/><line x1="201.3" y1="181.1" x2="203.0" y2="178.2" stroke="#888" stroke-width="0.4" stroke-dasharray="2,2"/><line x1="203.0" y1="186.4" x2="204.1" y2="183.4" stroke="#888" stroke-width="0.4" stroke-dasharray="2,2"/><line x1="203.0" y1="178.2" x2="204.1" y2="175.2" stroke="#888" stroke-width="0.4" stroke-dasharray="2,2"/><line x1="204.1" y1="183.4" x2="204.4" y2="180.3" stroke="#888" stroke-width="0.4" stroke-dasharray="2,2"/><line x1="204.1" y1="175.2" x2="204.4" y2="172.2" stroke="#888" stroke-width="0.4" stroke-dasharray="2,2"/><line x1="204.4" y1="180.3" x2="204.1" y2="177.3" stroke="#000" stroke-width="0.4" /><line x1="204.4" y1="172.2" x2="204.1" y2="169.1" stroke="#000" stroke-width="0.4" /><line x1="204.1" y1="177.3" x2="203.0" y2="174.3" stroke="#000" stroke-width="0.4" /><line x1="204.1" y1="169.1" x2="203.0" y2="166.1" stroke="#000" stroke-width="0.4" /><line x1="203.0" y1="174.3" x2="201.3" y2="171.4" stroke="#000" stroke-width="0.4" /><line x1="203.0" y1="166.1" x2="201.3" y2="163.2" stroke="#000" stroke-width="0.4" /><line x1="201.3" y1="171.4" x2="199.0" y2="168.7" stroke="#000" stroke-width="0.4" /><line x1="201.3" y1="163.2" x2="199.0" y2="160.5" stroke="#000" stroke-width="0.4" /><line x1="199.0" y1="168.7" x2="196.1" y2="166.1" stroke="#000" stroke-width="0.4" /><line x1="199.0" y1="160.5" x2="196.1" y2="158.0" stroke="#000" stroke-width="0.4" /><line x1="196.1" y1="166.1" x2="192.6" y2="163.8" stroke="#000" stroke-width="0.4" /><line x1="196.1" y1="158.0" x2="192.6" y2="155.7" stroke="#000" stroke-width="0.4" /><line x1="192.6" y1="163.8" x2="188.6" y2="161.8" stroke="#000" stroke-width="0.4" /><line x1="192.6" y1="155.7" x2="188.6" y2="153.7" stroke="#000" stroke-width="0.4" /><line x1="188.6" y1="161.8" x2="184.2" y2="160.1" stroke="#000" stroke-width="0.4" /><line x1="188.6" y1="153.7" x2="184.2" y2="152.0" stroke="#000" stroke-width="0.4" /><line x1="184.2" y1="160.1" x2="179.5" y2="158.8" stroke="#000" stroke-width="0.4" /><line x1="184.2" y1="152.0" x2="179.5" y2="150.6" stroke="#000" stroke-width="0.4" /><line x1="179.5" y1="158.8" x2="174.5" y2="157.8" stroke="#000" stroke-width="0.4" /><line x1="179.5" y1="150.6" x2="174.5" y2="149.6" stroke="#000" stroke-width="0.4" /><line x1="174.5" y1="157.8" x2="169.3" y2="157.2" stroke="#000" stroke-width="0.4" /><line x1="174.5" y1="149.6" x2="169.3" y2="149.0" stroke="#000" stroke-width="0.4" /><line x1="169.3" y1="157.2" x2="164.0" y2="157.0" stroke="#000" stroke-width="0.4" /><line x1="169.3" y1="149.0" x2="164.0" y2="148.8" stroke="#000" stroke-width="0.4" /><line x1="164.0" y1="157.0" x2="158.7" y2="157.2" stroke="#000" stroke-width="0.4" /><line x1="164.0" y1="148.8" x2="158.7" y2="149.0" stroke="#000" stroke-width="0.4" /><line x1="158.7" y1="157.2" x2="153.5" y2="157.8" stroke="#000" stroke-width="0.4" /><line x1="158.7" y1="149.0" x2="153.5" y2="149.6" stroke="#000" stroke-width="0.4" /><line x1="153.5" y1="157.8" x2="148.5" y2="158.8" stroke="#000" stroke-width="0.4" /><line x1="153.5" y1="149.6" x2="148.5" y2="150.6" stroke="#000" stroke-width="0.4" /><line x1="148.5" y1="158.8" x2="143.8" y2="160.1" stroke="#000" stroke-width="0.4" /><line x1="148.5" y1="150.6" x2="143.8" y2="152.0" stroke="#000" stroke-width="0.4" /><line x1="143.8" y1="160.1" x2="139.4" y2="161.8" stroke="#000" stroke-width="0.4" /><line x1="143.8" y1="152.0" x2="139.4" y2="153.7" stroke="#000" stroke-width="0.4" /><line x1="139.4" y1="161.8" x2="135.4" y2="163.8" stroke="#000" stroke-width="0.4" /><line x1="139.4" y1="153.7" x2="135.4" y2="155.7" stroke="#000" stroke-width="0.4" /><line x1="135.4" y1="163.8" x2="131.9" y2="166.1" stroke="#000" stroke-width="0.4" /><line x1="135.4" y1="155.7" x2="131.9" y2="158.0" stroke="#000" stroke-width="0.4" /><line x1="131.9" y1="166.1" x2="129.0" y2="168.7" stroke="#000" stroke-width="0.4" /><line x1="131.9" y1="158.0" x2="129.0" y2="160.5" stroke="#000" stroke-width="0.4" /><line x1="129.0" y1="168.7" x2="126.7" y2="171.4" stroke="#000" stroke-width="0.4" /><line x1="129.0" y1="160.5" x2="126.7" y2="163.2" stroke="#000" stroke-width="0.4" /><line x1="126.7" y1="171.4" x2="125.0" y2="174.3" stroke="#000" stroke-width="0.4" /><line x1="126.7" y1="163.2" x2="125.0" y2="166.1" stroke="#000" stroke-width="0.4" /><line x1="125.0" y1="174.3" x2="123.9" y2="177.3" stroke="#000" stroke-width="0.4" /><line x1="125.0" y1="166.1" x2="123.9" y2="169.1" stroke="#000" stroke-width="0.4" /><line x1="123.9" y1="177.3" x2="123.6" y2="180.3" stroke="#000" stroke-width="0.4" /><line x1="123.9" y1="169.1" x2="123.6" y2="172.2" stroke="#000" stroke-width="0.4" /><line x1="123.6" y1="180.3" x2="123.9" y2="183.4" stroke="#888" stroke-width="0.4" stroke-dasharray="2,2"/><line x1="123.6" y1="172.2" x2="123.9" y2="175.2" stroke="#888" stroke-width="0.4" stroke-dasharray="2,2"/><line x1="123.9" y1="183.4" x2="125.0" y2="186.4" stroke="#888" stroke-width="0.4" stroke-dasharray="2,2"/><line x1="123.9" y1="175.2" x2="125.0" y2="178.2" stroke="#888" stroke-width="0.4" stroke-dasharray="2,2"/><line x1="125.0" y1="186.4" x2="126.7" y2="189.3" stroke="#888" stroke-width="0.4" stroke-dasharray="2,2"/><line x1="125.0" y1="178.2" x2="126.7" y2="181.1" stroke="#888" stroke-width="0.4" stroke-dasharray="2,2"/><line x1="126.7" y1="189.3" x2="129.0" y2="192.0" stroke="#888" stroke-width="0.4" stroke-dasharray="2,2"/><line x1="126.7" y1="181.1" x2="129.0" y2="183.8" stroke="#888" stroke-width="0.4" stroke-dasharray="2,2"/><line x1="129.0" y1="192.0" x2="131.9" y2="194.5" stroke="#888" stroke-width="0.4" stroke-dasharray="2,2"/><line x1="129.0" y1="183.8" x2="131.9" y2="186.4" stroke="#888" stroke-width="0.4" stroke-dasharray="2,2"/><line x1="131.9" y1="194.5" x2="135.4" y2="196.8" stroke="#888" stroke-width="0.4" stroke-dasharray="2,2"/><line x1="131.9" y1="186.4" x2="135.4" y2="188.7" stroke="#888" stroke-width="0.4" stroke-dasharray="2,2"/>
        
      <line x1="123.6" y1="215.65743377989952" x2="204.4" y2="215.65743377989952" stroke="#000" stroke-width="0.3"/>
      <text x="164" y="222.65743377989952" text-anchor="middle" font-size="7" fill="#000">404.0</text>
      </g>
<g class="rev-table"><rect x="228" y="28" width="18" height="14" fill="#1a1a2e" stroke="#000" stroke-width="0.4"/>
        <text x="237" y="37" text-anchor="middle" font-size="6" fill="#fff" font-weight="700">REV</text><rect x="246" y="28" width="39.6" height="14" fill="#1a1a2e" stroke="#000" stroke-width="0.4"/>
        <text x="265.8" y="37" text-anchor="middle" font-size="6" fill="#fff" font-weight="700">DATE</text><rect x="285.6" y="28" width="21.599999999999998" height="14" fill="#1a1a2e" stroke="#000" stroke-width="0.4"/>
        <text x="296.40000000000003" y="37" text-anchor="middle" font-size="6" fill="#fff" font-weight="700">BY</text><rect x="307.20000000000005" y="28" width="100.80000000000001" height="14" fill="#1a1a2e" stroke="#000" stroke-width="0.4"/>
        <text x="357.6" y="37" text-anchor="middle" font-size="6" fill="#fff" font-weight="700">NOTE</text><rect x="228" y="42" width="18" height="46" fill="#fff" stroke="#000" stroke-width="0.3"/>
          <text x="230" y="67" font-size="6" fill="#000">A</text><rect x="246" y="42" width="39.6" height="46" fill="#fff" stroke="#000" stroke-width="0.3"/>
          <text x="248" y="67" font-size="6" fill="#000">2026-05-09</text><rect x="285.6" y="42" width="21.599999999999998" height="46" fill="#fff" stroke="#000" stroke-width="0.3"/>
          <text x="287.6" y="67" font-size="6" fill="#000">AD</text><rect x="307.20000000000005" y="42" width="100.80000000000001" height="46" fill="#fff" stroke="#000" stroke-width="0.3"/>
          <text x="309.20000000000005" y="67" font-size="6" fill="#000">Initial release</text></g>
<rect x="228" y="92" width="180" height="64" fill="#fff" stroke="#000" stroke-width="0.4"/>
<rect x="228" y="92" width="180" height="11" fill="#1a1a2e"/>
<text x="231" y="100" font-size="7" fill="#fff" font-weight="700">GENERAL NOTES</text>
<text x="231" y="110" font-size="6" fill="#000">1. Dims in mm; tolerances per ASME Y14.5-2018.</text>
<text x="231" y="117" font-size="6" fill="#000">2. Remove all burrs and sharp edges.</text>
<text x="231" y="124" font-size="6" fill="#000">3. Inspect per drawing rev current.</text>
<text x="231" y="131" font-size="6" fill="#000">4. Material per cert lot traceability.</text>
<rect x="228" y="160" width="180" height="63" fill="#fff" stroke="#000" stroke-width="0.4"/>
<rect x="228" y="160" width="180" height="11" fill="#1a1a2e"/>
<text x="231" y="168" font-size="7" fill="#fff" font-weight="700">GD&amp;T CALLOUTS</text>
<text x="231" y="178" font-size="6" fill="#000">⏥ 0.100  → face-A</text>
<text x="231" y="185" font-size="6" fill="#000">⊥ 0.200 A → B</text>
<text x="231" y="192" font-size="6" fill="#000">↗↗ 0.150 A B → OD</text>
<g class="title-block">
      <rect x="228" y="221" width="180" height="64" fill="#fff" stroke="#000" stroke-width="0.6"/>
      <line x1="228" y1="237" x2="408" y2="237" stroke="#000" stroke-width="0.4"/>
      <line x1="228" y1="253" x2="408" y2="253" stroke="#000" stroke-width="0.4"/>
      <line x1="228" y1="269" x2="408" y2="269" stroke="#000" stroke-width="0.4"/>
      <line x1="327" y1="221" x2="327" y2="285" stroke="#000" stroke-width="0.4"/>

      <text x="231" y="231" font-size="6" fill="#666">PART NO.</text>
      <text x="231" y="234" font-size="9" fill="#000" font-weight="700">GE9X-HPC-DSK-0002</text>

      <text x="330" y="231" font-size="6" fill="#666">DWG NO.</text>
      <text x="330" y="234" font-size="9" fill="#000" font-weight="700">GE9X-HPC-DSK-0002-DWG</text>

      <text x="231" y="245" font-size="6" fill="#666">TITLE</text>
      <text x="231" y="253" font-size="7" fill="#000">HPC S2 Disk</text>
      <text x="231" y="260" font-size="6" fill="#666">MATERIAL</text>
      <text x="231" y="267" font-size="7" fill="#000">Titanium Ti-6Al-4V</text>

      <text x="330" y="245" font-size="6" fill="#666">SCALE</text>
      <text x="330" y="253" font-size="7" fill="#000" font-weight="700">1:2</text>
      <text x="330" y="260" font-size="6" fill="#666">SHEET / SIZE</text>
      <text x="330" y="267" font-size="7" fill="#000">1 of 1 / A3</text>

      <text x="231" y="261" font-size="6" fill="#666">DRAWN BY</text>
      <text x="231" y="269" font-size="7" fill="#000">ArchDisc Auto-Drawing</text>
      <text x="231" y="276" font-size="6" fill="#666">APPROVED BY</text>
      <text x="231" y="283" font-size="7" fill="#000">— pending QA review —</text>

      <text x="330" y="261" font-size="6" fill="#666">DATE</text>
      <text x="330" y="269" font-size="7" fill="#000">2026-05-09</text>
      <text x="330" y="276" font-size="6" fill="#666">REV</text>
      <text x="330" y="283" font-size="9" fill="#000" font-weight="700">A</text>

      <text x="318" y="281" text-anchor="middle" font-size="6" fill="#666">PROPRIETARY — REPRODUCTION FORBIDDEN</text>
      <text x="318" y="289" text-anchor="middle" font-size="6" fill="#666">ASME Y14.5-2018 / ISO 1101 dimensioning</text>
    </g>
<rect x="12" y="229" width="204" height="54" fill="#fafafc" stroke="#000" stroke-width="0.4"/>
<line x1="12" y1="229" x2="12" y2="283" stroke="#000" stroke-width="0.3"/>
<text x="15" y="237" font-size="6" fill="#666" font-weight="700">HEAT TREAT</text>
<text x="15" y="247" font-size="7" fill="#000">HT per AMS-H-81200, annealed</text>
<line x1="63" y1="229" x2="63" y2="283" stroke="#000" stroke-width="0.3"/>
<text x="66" y="237" font-size="6" fill="#666" font-weight="700">SURFACE FINISH</text>
<text x="66" y="247" font-size="7" fill="#000">Ra ≤ 1.6 μm (63 μin)</text>
<line x1="114" y1="229" x2="114" y2="283" stroke="#000" stroke-width="0.3"/>
<text x="117" y="237" font-size="6" fill="#666" font-weight="700">NDT</text>
<text x="117" y="247" font-size="7" fill="#000">FPI per ASTM E1417 Type I Method A, accept per Section X</text>
<line x1="165" y1="229" x2="165" y2="283" stroke="#000" stroke-width="0.3"/>
<text x="168" y="237" font-size="6" fill="#666" font-weight="700">COATING</text>
<text x="168" y="247" font-size="7" fill="#000">No coating</text>
<text x="15" y="279" font-size="6" fill="#444">Default tol: linear ±0.1mm  angular ±0.5°  Ra 0.8μm</text>
</svg>