ISO-10303-21;
HEADER;
FILE_DESCRIPTION(('ArchDisc Geometry Kernel Export'),'2;1');
FILE_NAME('TYV6-CRNK-REL-0001.step','20260509T202337',('ArchDisc'),('ArchDisc Inc'),'ArchDisc Kernel 1.0','ArchDisc','');
FILE_SCHEMA(('AUTOMOTIVE_DESIGN'));
ENDSEC;
DATA;
#1=APPLICATION_CONTEXT('automotive design');
#2=APPLICATION_PROTOCOL_DEFINITION('international standard','automotive_design',2009,#1);
#3=PRODUCT_CONTEXT('',#1,'mechanical');
#4=PRODUCT('TYV6-CRNK-REL-0001','TYV6-CRNK-REL-0001','',(#3));
#5=PRODUCT_DEFINITION_FORMATION('','',#4);
#6=PRODUCT_DEFINITION_CONTEXT('design',#1,'design');
#7=PRODUCT_DEFINITION('design','',#5,#6);
#8=PRODUCT_DEFINITION_SHAPE('','',#7);
#9=(GEOMETRIC_REPRESENTATION_CONTEXT(3) GLOBAL_UNCERTAINTY_ASSIGNED_CONTEXT((#0)) GLOBAL_UNIT_ASSIGNED_CONTEXT((#0,#0,#0)) REPRESENTATION_CONTEXT('Context3D','');
#10=CARTESIAN_POINT('',(0.06,0,0));
#11=VERTEX_POINT('',#10);
#12=CARTESIAN_POINT('',(0.05908846518073248,0,0.01041889066001582));
#13=VERTEX_POINT('',#12);
#14=CARTESIAN_POINT('',(0.05908846518073248,0.005,0.01041889066001582));
#15=VERTEX_POINT('',#14);
#16=CARTESIAN_POINT('',(0.06,0.005,0));
#17=VERTEX_POINT('',#16);
#18=CARTESIAN_POINT('',(0.056381557247154504,0,0.02052120859954012));
#19=VERTEX_POINT('',#18);
#20=CARTESIAN_POINT('',(0.056381557247154504,0.005,0.02052120859954012));
#21=VERTEX_POINT('',#20);
#22=CARTESIAN_POINT('',(0.05196152422706632,0,0.029999999999999995));
#23=VERTEX_POINT('',#22);
#24=CARTESIAN_POINT('',(0.05196152422706632,0.005,0.029999999999999995));
#25=VERTEX_POINT('',#24);
#26=CARTESIAN_POINT('',(0.04596266658713868,0,0.03856725658119235));
#27=VERTEX_POINT('',#26);
#28=CARTESIAN_POINT('',(0.04596266658713868,0.005,0.03856725658119235));
#29=VERTEX_POINT('',#28);
#30=CARTESIAN_POINT('',(0.03856725658119236,0,0.04596266658713868));
#31=VERTEX_POINT('',#30);
#32=CARTESIAN_POINT('',(0.03856725658119236,0.005,0.04596266658713868));
#33=VERTEX_POINT('',#32);
#34=CARTESIAN_POINT('',(0.030000000000000006,0,0.05196152422706631));
#35=VERTEX_POINT('',#34);
#36=CARTESIAN_POINT('',(0.030000000000000006,0.005,0.05196152422706631));
#37=VERTEX_POINT('',#36);
#38=CARTESIAN_POINT('',(0.02052120859954013,0,0.0563815572471545));
#39=VERTEX_POINT('',#38);
#40=CARTESIAN_POINT('',(0.02052120859954013,0.005,0.0563815572471545));
#41=VERTEX_POINT('',#40);
#42=CARTESIAN_POINT('',(0.010418890660015825,0,0.05908846518073248));
#43=VERTEX_POINT('',#42);
#44=CARTESIAN_POINT('',(0.010418890660015825,0.005,0.05908846518073248));
#45=VERTEX_POINT('',#44);
#46=CARTESIAN_POINT('',(3.673940397442059e-18,0,0.06));
#47=VERTEX_POINT('',#46);
#48=CARTESIAN_POINT('',(3.673940397442059e-18,0.005,0.06));
#49=VERTEX_POINT('',#48);
#50=CARTESIAN_POINT('',(-0.010418890660015818,0,0.05908846518073248));
#51=VERTEX_POINT('',#50);
#52=CARTESIAN_POINT('',(-0.010418890660015818,0.005,0.05908846518073248));
#53=VERTEX_POINT('',#52);
#54=CARTESIAN_POINT('',(-0.02052120859954012,0,0.056381557247154504));
#55=VERTEX_POINT('',#54);
#56=CARTESIAN_POINT('',(-0.02052120859954012,0.005,0.056381557247154504));
#57=VERTEX_POINT('',#56);
#58=CARTESIAN_POINT('',(-0.029999999999999985,0,0.05196152422706632));
#59=VERTEX_POINT('',#58);
#60=CARTESIAN_POINT('',(-0.029999999999999985,0.005,0.05196152422706632));
#61=VERTEX_POINT('',#60);
#62=CARTESIAN_POINT('',(-0.03856725658119236,0,0.04596266658713868));
#63=VERTEX_POINT('',#62);
#64=CARTESIAN_POINT('',(-0.03856725658119236,0.005,0.04596266658713868));
#65=VERTEX_POINT('',#64);
#66=CARTESIAN_POINT('',(-0.04596266658713867,0,0.038567256581192366));
#67=VERTEX_POINT('',#66);
#68=CARTESIAN_POINT('',(-0.04596266658713867,0.005,0.038567256581192366));
#69=VERTEX_POINT('',#68);
#70=CARTESIAN_POINT('',(-0.05196152422706632,0,0.029999999999999995));
#71=VERTEX_POINT('',#70);
#72=CARTESIAN_POINT('',(-0.05196152422706632,0.005,0.029999999999999995));
#73=VERTEX_POINT('',#72);
#74=CARTESIAN_POINT('',(-0.0563815572471545,0,0.020521208599540132));
#75=VERTEX_POINT('',#74);
#76=CARTESIAN_POINT('',(-0.0563815572471545,0.005,0.020521208599540132));
#77=VERTEX_POINT('',#76);
#78=CARTESIAN_POINT('',(-0.05908846518073248,0,0.01041889066001584));
#79=VERTEX_POINT('',#78);
#80=CARTESIAN_POINT('',(-0.05908846518073248,0.005,0.01041889066001584));
#81=VERTEX_POINT('',#80);
#82=CARTESIAN_POINT('',(-0.06,0,7.347880794884118e-18));
#83=VERTEX_POINT('',#82);
#84=CARTESIAN_POINT('',(-0.06,0.005,7.347880794884118e-18));
#85=VERTEX_POINT('',#84);
#86=CARTESIAN_POINT('',(-0.05908846518073248,0,-0.010418890660015829));
#87=VERTEX_POINT('',#86);
#88=CARTESIAN_POINT('',(-0.05908846518073248,0.005,-0.010418890660015829));
#89=VERTEX_POINT('',#88);
#90=CARTESIAN_POINT('',(-0.056381557247154504,0,-0.020521208599540118));
#91=VERTEX_POINT('',#90);
#92=CARTESIAN_POINT('',(-0.056381557247154504,0.005,-0.020521208599540118));
#93=VERTEX_POINT('',#92);
#94=CARTESIAN_POINT('',(-0.05196152422706631,0,-0.030000000000000006));
#95=VERTEX_POINT('',#94);
#96=CARTESIAN_POINT('',(-0.05196152422706631,0.005,-0.030000000000000006));
#97=VERTEX_POINT('',#96);
#98=CARTESIAN_POINT('',(-0.04596266658713868,0,-0.03856725658119235));
#99=VERTEX_POINT('',#98);
#100=CARTESIAN_POINT('',(-0.04596266658713868,0.005,-0.03856725658119235));
#101=VERTEX_POINT('',#100);
#102=CARTESIAN_POINT('',(-0.038567256581192366,0,-0.04596266658713867));
#103=VERTEX_POINT('',#102);
#104=CARTESIAN_POINT('',(-0.038567256581192366,0.005,-0.04596266658713867));
#105=VERTEX_POINT('',#104);
#106=CARTESIAN_POINT('',(-0.030000000000000027,0,-0.0519615242270663));
#107=VERTEX_POINT('',#106);
#108=CARTESIAN_POINT('',(-0.030000000000000027,0.005,-0.0519615242270663));
#109=VERTEX_POINT('',#108);
#110=CARTESIAN_POINT('',(-0.020521208599540163,0,-0.05638155724715449));
#111=VERTEX_POINT('',#110);
#112=CARTESIAN_POINT('',(-0.020521208599540163,0.005,-0.05638155724715449));
#113=VERTEX_POINT('',#112);
#114=CARTESIAN_POINT('',(-0.01041889066001582,0,-0.05908846518073248));
#115=VERTEX_POINT('',#114);
#116=CARTESIAN_POINT('',(-0.01041889066001582,0.005,-0.05908846518073248));
#117=VERTEX_POINT('',#116);
#118=CARTESIAN_POINT('',(-1.1021821192326178e-17,0,-0.06));
#119=VERTEX_POINT('',#118);
#120=CARTESIAN_POINT('',(-1.1021821192326178e-17,0.005,-0.06));
#121=VERTEX_POINT('',#120);
#122=CARTESIAN_POINT('',(0.010418890660015797,0,-0.059088465180732484));
#123=VERTEX_POINT('',#122);
#124=CARTESIAN_POINT('',(0.010418890660015797,0.005,-0.059088465180732484));
#125=VERTEX_POINT('',#124);
#126=CARTESIAN_POINT('',(0.02052120859954014,0,-0.0563815572471545));
#127=VERTEX_POINT('',#126);
#128=CARTESIAN_POINT('',(0.02052120859954014,0.005,-0.0563815572471545));
#129=VERTEX_POINT('',#128);
#130=CARTESIAN_POINT('',(0.030000000000000006,0,-0.05196152422706631));
#131=VERTEX_POINT('',#130);
#132=CARTESIAN_POINT('',(0.030000000000000006,0.005,-0.05196152422706631));
#133=VERTEX_POINT('',#132);
#134=CARTESIAN_POINT('',(0.03856725658119235,0,-0.045962666587138684));
#135=VERTEX_POINT('',#134);
#136=CARTESIAN_POINT('',(0.03856725658119235,0.005,-0.045962666587138684));
#137=VERTEX_POINT('',#136);
#138=CARTESIAN_POINT('',(0.04596266658713866,0,-0.03856725658119237));
#139=VERTEX_POINT('',#138);
#140=CARTESIAN_POINT('',(0.04596266658713866,0.005,-0.03856725658119237));
#141=VERTEX_POINT('',#140);
#142=CARTESIAN_POINT('',(0.0519615242270663,0,-0.030000000000000027));
#143=VERTEX_POINT('',#142);
#144=CARTESIAN_POINT('',(0.0519615242270663,0.005,-0.030000000000000027));
#145=VERTEX_POINT('',#144);
#146=CARTESIAN_POINT('',(0.05638155724715448,0,-0.020521208599540167));
#147=VERTEX_POINT('',#146);
#148=CARTESIAN_POINT('',(0.05638155724715448,0.005,-0.020521208599540167));
#149=VERTEX_POINT('',#148);
#150=CARTESIAN_POINT('',(0.05908846518073248,0,-0.010418890660015823));
#151=VERTEX_POINT('',#150);
#152=CARTESIAN_POINT('',(0.05908846518073248,0.005,-0.010418890660015823));
#153=VERTEX_POINT('',#152);
#154=CARTESIAN_POINT('',(0,0,0));
#155=VERTEX_POINT('',#154);
#156=CARTESIAN_POINT('',(0,0.005,0));
#157=VERTEX_POINT('',#156);
#158=CARTESIAN_POINT('',(0.06,0,0));
#159=DIRECTION('',(-0.08715574274765855,0,0.9961946980917454));
#160=VECTOR('',#159,0.01045868912971898);
#161=LINE('',#158,#160);
#162=EDGE_CURVE('',#11,#13,#161,.T.);
#163=CARTESIAN_POINT('',(0.05908846518073248,0,0.01041889066001582));
#164=DIRECTION('',(0,1,0));
#165=VECTOR('',#164,0.005);
#166=LINE('',#163,#165);
#167=EDGE_CURVE('',#13,#15,#166,.T.);
#168=CARTESIAN_POINT('',(0.06,0.005,0));
#169=DIRECTION('',(-0.08715574274765855,0,0.9961946980917454));
#170=VECTOR('',#169,0.01045868912971898);
#171=LINE('',#168,#170);
#172=EDGE_CURVE('',#17,#15,#171,.T.);
#173=CARTESIAN_POINT('',(0.06,0,0));
#174=DIRECTION('',(0,1,0));
#175=VECTOR('',#174,0.005);
#176=LINE('',#173,#175);
#177=EDGE_CURVE('',#11,#17,#176,.T.);
#178=CARTESIAN_POINT('',(0.05908846518073248,0,0.01041889066001582));
#179=DIRECTION('',(-0.2588190451025202,0,0.9659258262890685));
#180=VECTOR('',#179,0.010458689129718977);
#181=LINE('',#178,#180);
#182=EDGE_CURVE('',#13,#19,#181,.T.);
#183=CARTESIAN_POINT('',(0.056381557247154504,0,0.02052120859954012));
#184=DIRECTION('',(0,1,0));
#185=VECTOR('',#184,0.005);
#186=LINE('',#183,#185);
#187=EDGE_CURVE('',#19,#21,#186,.T.);
#188=CARTESIAN_POINT('',(0.05908846518073248,0.005,0.01041889066001582));
#189=DIRECTION('',(-0.2588190451025202,0,0.9659258262890685));
#190=VECTOR('',#189,0.010458689129718977);
#191=LINE('',#188,#190);
#192=EDGE_CURVE('',#15,#21,#191,.T.);
#193=CARTESIAN_POINT('',(0.056381557247154504,0,0.02052120859954012));
#194=DIRECTION('',(-0.42261826174069955,0,0.9063077870366499));
#195=VECTOR('',#194,0.010458689129718979);
#196=LINE('',#193,#195);
#197=EDGE_CURVE('',#19,#23,#196,.T.);
#198=CARTESIAN_POINT('',(0.05196152422706632,0,0.029999999999999995));
#199=DIRECTION('',(0,1,0));
#200=VECTOR('',#199,0.005);
#201=LINE('',#198,#200);
#202=EDGE_CURVE('',#23,#25,#201,.T.);
#203=CARTESIAN_POINT('',(0.056381557247154504,0.005,0.02052120859954012));
#204=DIRECTION('',(-0.42261826174069955,0,0.9063077870366499));
#205=VECTOR('',#204,0.010458689129718979);
#206=LINE('',#203,#205);
#207=EDGE_CURVE('',#21,#25,#206,.T.);
#208=CARTESIAN_POINT('',(0.05196152422706632,0,0.029999999999999995));
#209=DIRECTION('',(-0.5735764363510465,0,0.8191520442889915));
#210=VECTOR('',#209,0.010458689129718982);
#211=LINE('',#208,#210);
#212=EDGE_CURVE('',#23,#27,#211,.T.);
#213=CARTESIAN_POINT('',(0.04596266658713868,0,0.03856725658119235));
#214=DIRECTION('',(0,1,0));
#215=VECTOR('',#214,0.005);
#216=LINE('',#213,#215);
#217=EDGE_CURVE('',#27,#29,#216,.T.);
#218=CARTESIAN_POINT('',(0.05196152422706632,0.005,0.029999999999999995));
#219=DIRECTION('',(-0.5735764363510465,0,0.8191520442889915));
#220=VECTOR('',#219,0.010458689129718982);
#221=LINE('',#218,#220);
#222=EDGE_CURVE('',#25,#29,#221,.T.);
#223=CARTESIAN_POINT('',(0.04596266658713868,0,0.03856725658119235));
#224=DIRECTION('',(-0.7071067811865471,0,0.7071067811865478));
#225=VECTOR('',#224,0.01045868912971898);
#226=LINE('',#223,#225);
#227=EDGE_CURVE('',#27,#31,#226,.T.);
#228=CARTESIAN_POINT('',(0.03856725658119236,0,0.04596266658713868));
#229=DIRECTION('',(0,1,0));
#230=VECTOR('',#229,0.005);
#231=LINE('',#228,#230);
#232=EDGE_CURVE('',#31,#33,#231,.T.);
#233=CARTESIAN_POINT('',(0.04596266658713868,0.005,0.03856725658119235));
#234=DIRECTION('',(-0.7071067811865471,0,0.7071067811865478));
#235=VECTOR('',#234,0.01045868912971898);
#236=LINE('',#233,#235);
#237=EDGE_CURVE('',#29,#33,#236,.T.);
#238=CARTESIAN_POINT('',(0.03856725658119236,0,0.04596266658713868));
#239=DIRECTION('',(-0.8191520442889917,0,0.5735764363510463));
#240=VECTOR('',#239,0.010458689129718975);
#241=LINE('',#238,#240);
#242=EDGE_CURVE('',#31,#35,#241,.T.);
#243=CARTESIAN_POINT('',(0.030000000000000006,0,0.05196152422706631));
#244=DIRECTION('',(0,1,0));
#245=VECTOR('',#244,0.005);
#246=LINE('',#243,#245);
#247=EDGE_CURVE('',#35,#37,#246,.T.);
#248=CARTESIAN_POINT('',(0.03856725658119236,0.005,0.04596266658713868));
#249=DIRECTION('',(-0.8191520442889917,0,0.5735764363510463));
#250=VECTOR('',#249,0.010458689129718975);
#251=LINE('',#248,#250);
#252=EDGE_CURVE('',#33,#37,#251,.T.);
#253=CARTESIAN_POINT('',(0.030000000000000006,0,0.05196152422706631));
#254=DIRECTION('',(-0.9063077870366499,0,0.42261826174069944));
#255=VECTOR('',#254,0.010458689129718982);
#256=LINE('',#253,#255);
#257=EDGE_CURVE('',#35,#39,#256,.T.);
#258=CARTESIAN_POINT('',(0.02052120859954013,0,0.0563815572471545));
#259=DIRECTION('',(0,1,0));
#260=VECTOR('',#259,0.005);
#261=LINE('',#258,#260);
#262=EDGE_CURVE('',#39,#41,#261,.T.);
#263=CARTESIAN_POINT('',(0.030000000000000006,0.005,0.05196152422706631));
#264=DIRECTION('',(-0.9063077870366499,0,0.42261826174069944));
#265=VECTOR('',#264,0.010458689129718982);
#266=LINE('',#263,#265);
#267=EDGE_CURVE('',#37,#41,#266,.T.);
#268=CARTESIAN_POINT('',(0.02052120859954013,0,0.0563815572471545));
#269=DIRECTION('',(-0.9659258262890683,0,0.25881904510252074));
#270=VECTOR('',#269,0.01045868912971898);
#271=LINE('',#268,#270);
#272=EDGE_CURVE('',#39,#43,#271,.T.);
#273=CARTESIAN_POINT('',(0.010418890660015825,0,0.05908846518073248));
#274=DIRECTION('',(0,1,0));
#275=VECTOR('',#274,0.005);
#276=LINE('',#273,#275);
#277=EDGE_CURVE('',#43,#45,#276,.T.);
#278=CARTESIAN_POINT('',(0.02052120859954013,0.005,0.0563815572471545));
#279=DIRECTION('',(-0.9659258262890683,0,0.25881904510252074));
#280=VECTOR('',#279,0.01045868912971898);
#281=LINE('',#278,#280);
#282=EDGE_CURVE('',#41,#45,#281,.T.);
#283=CARTESIAN_POINT('',(0.010418890660015825,0,0.05908846518073248));
#284=DIRECTION('',(-0.9961946980917454,0,0.08715574274765854));
#285=VECTOR('',#284,0.010458689129718982);
#286=LINE('',#283,#285);
#287=EDGE_CURVE('',#43,#47,#286,.T.);
#288=CARTESIAN_POINT('',(3.673940397442059e-18,0,0.06));
#289=DIRECTION('',(0,1,0));
#290=VECTOR('',#289,0.005);
#291=LINE('',#288,#290);
#292=EDGE_CURVE('',#47,#49,#291,.T.);
#293=CARTESIAN_POINT('',(0.010418890660015825,0.005,0.05908846518073248));
#294=DIRECTION('',(-0.9961946980917454,0,0.08715574274765854));
#295=VECTOR('',#294,0.010458689129718982);
#296=LINE('',#293,#295);
#297=EDGE_CURVE('',#45,#49,#296,.T.);
#298=CARTESIAN_POINT('',(3.673940397442059e-18,0,0.06));
#299=DIRECTION('',(-0.9961946980917454,0,-0.08715574274765854));
#300=VECTOR('',#299,0.010458689129718982);
#301=LINE('',#298,#300);
#302=EDGE_CURVE('',#47,#51,#301,.T.);
#303=CARTESIAN_POINT('',(-0.010418890660015818,0,0.05908846518073248));
#304=DIRECTION('',(0,1,0));
#305=VECTOR('',#304,0.005);
#306=LINE('',#303,#305);
#307=EDGE_CURVE('',#51,#53,#306,.T.);
#308=CARTESIAN_POINT('',(3.673940397442059e-18,0.005,0.06));
#309=DIRECTION('',(-0.9961946980917454,0,-0.08715574274765854));
#310=VECTOR('',#309,0.010458689129718982);
#311=LINE('',#308,#310);
#312=EDGE_CURVE('',#49,#53,#311,.T.);
#313=CARTESIAN_POINT('',(-0.010418890660015818,0,0.05908846518073248));
#314=DIRECTION('',(-0.9659258262890685,0,-0.25881904510252013));
#315=VECTOR('',#314,0.010458689129718979);
#316=LINE('',#313,#315);
#317=EDGE_CURVE('',#51,#55,#316,.T.);
#318=CARTESIAN_POINT('',(-0.02052120859954012,0,0.056381557247154504));
#319=DIRECTION('',(0,1,0));
#320=VECTOR('',#319,0.005);
#321=LINE('',#318,#320);
#322=EDGE_CURVE('',#55,#57,#321,.T.);
#323=CARTESIAN_POINT('',(-0.010418890660015818,0.005,0.05908846518073248));
#324=DIRECTION('',(-0.9659258262890685,0,-0.25881904510252013));
#325=VECTOR('',#324,0.010458689129718979);
#326=LINE('',#323,#325);
#327=EDGE_CURVE('',#53,#57,#326,.T.);
#328=CARTESIAN_POINT('',(-0.02052120859954012,0,0.056381557247154504));
#329=DIRECTION('',(-0.9063077870366497,0,-0.42261826174069994));
#330=VECTOR('',#329,0.01045868912971897);
#331=LINE('',#328,#330);
#332=EDGE_CURVE('',#55,#59,#331,.T.);
#333=CARTESIAN_POINT('',(-0.029999999999999985,0,0.05196152422706632));
#334=DIRECTION('',(0,1,0));
#335=VECTOR('',#334,0.005);
#336=LINE('',#333,#335);
#337=EDGE_CURVE('',#59,#61,#336,.T.);
#338=CARTESIAN_POINT('',(-0.02052120859954012,0.005,0.056381557247154504));
#339=DIRECTION('',(-0.9063077870366497,0,-0.42261826174069994));
#340=VECTOR('',#339,0.01045868912971897);
#341=LINE('',#338,#340);
#342=EDGE_CURVE('',#57,#61,#341,.T.);
#343=CARTESIAN_POINT('',(-0.029999999999999985,0,0.05196152422706632));
#344=DIRECTION('',(-0.819152044288992,0,-0.5735764363510457));
#345=VECTOR('',#344,0.010458689129718996);
#346=LINE('',#343,#345);
#347=EDGE_CURVE('',#59,#63,#346,.T.);
#348=CARTESIAN_POINT('',(-0.03856725658119236,0,0.04596266658713868));
#349=DIRECTION('',(0,1,0));
#350=VECTOR('',#349,0.005);
#351=LINE('',#348,#350);
#352=EDGE_CURVE('',#63,#65,#351,.T.);
#353=CARTESIAN_POINT('',(-0.029999999999999985,0.005,0.05196152422706632));
#354=DIRECTION('',(-0.819152044288992,0,-0.5735764363510457));
#355=VECTOR('',#354,0.010458689129718996);
#356=LINE('',#353,#355);
#357=EDGE_CURVE('',#61,#65,#356,.T.);
#358=CARTESIAN_POINT('',(-0.03856725658119236,0,0.04596266658713868));
#359=DIRECTION('',(-0.7071067811865475,0,-0.7071067811865475));
#360=VECTOR('',#359,0.010458689129718965);
#361=LINE('',#358,#360);
#362=EDGE_CURVE('',#63,#67,#361,.T.);
#363=CARTESIAN_POINT('',(-0.04596266658713867,0,0.038567256581192366));
#364=DIRECTION('',(0,1,0));
#365=VECTOR('',#364,0.005);
#366=LINE('',#363,#365);
#367=EDGE_CURVE('',#67,#69,#366,.T.);
#368=CARTESIAN_POINT('',(-0.03856725658119236,0.005,0.04596266658713868));
#369=DIRECTION('',(-0.7071067811865475,0,-0.7071067811865475));
#370=VECTOR('',#369,0.010458689129718965);
#371=LINE('',#368,#370);
#372=EDGE_CURVE('',#65,#69,#371,.T.);
#373=CARTESIAN_POINT('',(-0.04596266658713867,0,0.038567256581192366));
#374=DIRECTION('',(-0.5735764363510463,0,-0.8191520442889916));
#375=VECTOR('',#374,0.010458689129718998);
#376=LINE('',#373,#375);
#377=EDGE_CURVE('',#67,#71,#376,.T.);
#378=CARTESIAN_POINT('',(-0.05196152422706632,0,0.029999999999999995));
#379=DIRECTION('',(0,1,0));
#380=VECTOR('',#379,0.005);
#381=LINE('',#378,#380);
#382=EDGE_CURVE('',#71,#73,#381,.T.);
#383=CARTESIAN_POINT('',(-0.04596266658713867,0.005,0.038567256581192366));
#384=DIRECTION('',(-0.5735764363510463,0,-0.8191520442889916));
#385=VECTOR('',#384,0.010458689129718998);
#386=LINE('',#383,#385);
#387=EDGE_CURVE('',#69,#73,#386,.T.);
#388=CARTESIAN_POINT('',(-0.05196152422706632,0,0.029999999999999995));
#389=DIRECTION('',(-0.4226182617406994,0,-0.90630778703665));
#390=VECTOR('',#389,0.010458689129718967);
#391=LINE('',#388,#390);
#392=EDGE_CURVE('',#71,#75,#391,.T.);
#393=CARTESIAN_POINT('',(-0.0563815572471545,0,0.020521208599540132));
#394=DIRECTION('',(0,1,0));
#395=VECTOR('',#394,0.005);
#396=LINE('',#393,#395);
#397=EDGE_CURVE('',#75,#77,#396,.T.);
#398=CARTESIAN_POINT('',(-0.05196152422706632,0.005,0.029999999999999995));
#399=DIRECTION('',(-0.4226182617406994,0,-0.90630778703665));
#400=VECTOR('',#399,0.010458689129718967);
#401=LINE('',#398,#400);
#402=EDGE_CURVE('',#73,#77,#401,.T.);
#403=CARTESIAN_POINT('',(-0.0563815572471545,0,0.020521208599540132));
#404=DIRECTION('',(-0.258819045102521,0,-0.9659258262890682));
#405=VECTOR('',#404,0.01045868912971897);
#406=LINE('',#403,#405);
#407=EDGE_CURVE('',#75,#79,#406,.T.);
#408=CARTESIAN_POINT('',(-0.05908846518073248,0,0.01041889066001584));
#409=DIRECTION('',(0,1,0));
#410=VECTOR('',#409,0.005);
#411=LINE('',#408,#410);
#412=EDGE_CURVE('',#79,#81,#411,.T.);
#413=CARTESIAN_POINT('',(-0.0563815572471545,0.005,0.020521208599540132));
#414=DIRECTION('',(-0.258819045102521,0,-0.9659258262890682));
#415=VECTOR('',#414,0.01045868912971897);
#416=LINE('',#413,#415);
#417=EDGE_CURVE('',#77,#81,#416,.T.);
#418=CARTESIAN_POINT('',(-0.05908846518073248,0,0.01041889066001584));
#419=DIRECTION('',(-0.08715574274765844,0,-0.9961946980917454));
#420=VECTOR('',#419,0.010458689129718994);
#421=LINE('',#418,#420);
#422=EDGE_CURVE('',#79,#83,#421,.T.);
#423=CARTESIAN_POINT('',(-0.06,0,7.347880794884118e-18));
#424=DIRECTION('',(0,1,0));
#425=VECTOR('',#424,0.005);
#426=LINE('',#423,#425);
#427=EDGE_CURVE('',#83,#85,#426,.T.);
#428=CARTESIAN_POINT('',(-0.05908846518073248,0.005,0.01041889066001584));
#429=DIRECTION('',(-0.08715574274765844,0,-0.9961946980917454));
#430=VECTOR('',#429,0.010458689129718994);
#431=LINE('',#428,#430);
#432=EDGE_CURVE('',#81,#85,#431,.T.);
#433=CARTESIAN_POINT('',(-0.06,0,7.347880794884118e-18));
#434=DIRECTION('',(0.08715574274765843,0,-0.9961946980917454));
#435=VECTOR('',#434,0.010458689129718996);
#436=LINE('',#433,#435);
#437=EDGE_CURVE('',#83,#87,#436,.T.);
#438=CARTESIAN_POINT('',(-0.05908846518073248,0,-0.010418890660015829));
#439=DIRECTION('',(0,1,0));
#440=VECTOR('',#439,0.005);
#441=LINE('',#438,#440);
#442=EDGE_CURVE('',#87,#89,#441,.T.);
#443=CARTESIAN_POINT('',(-0.06,0.005,7.347880794884118e-18));
#444=DIRECTION('',(0.08715574274765843,0,-0.9961946980917454));
#445=VECTOR('',#444,0.010458689129718996);
#446=LINE('',#443,#445);
#447=EDGE_CURVE('',#85,#89,#446,.T.);
#448=CARTESIAN_POINT('',(-0.05908846518073248,0,-0.010418890660015829));
#449=DIRECTION('',(0.25881904510252046,0,-0.9659258262890684));
#450=VECTOR('',#449,0.010458689129718965);
#451=LINE('',#448,#450);
#452=EDGE_CURVE('',#87,#91,#451,.T.);
#453=CARTESIAN_POINT('',(-0.056381557247154504,0,-0.020521208599540118));
#454=DIRECTION('',(0,1,0));
#455=VECTOR('',#454,0.005);
#456=LINE('',#453,#455);
#457=EDGE_CURVE('',#91,#93,#456,.T.);
#458=CARTESIAN_POINT('',(-0.05908846518073248,0.005,-0.010418890660015829));
#459=DIRECTION('',(0.25881904510252046,0,-0.9659258262890684));
#460=VECTOR('',#459,0.010458689129718965);
#461=LINE('',#458,#460);
#462=EDGE_CURVE('',#89,#93,#461,.T.);
#463=CARTESIAN_POINT('',(-0.056381557247154504,0,-0.020521208599540118));
#464=DIRECTION('',(0.4226182617406996,0,-0.9063077870366499));
#465=VECTOR('',#464,0.010458689129718994);
#466=LINE('',#463,#465);
#467=EDGE_CURVE('',#91,#95,#466,.T.);
#468=CARTESIAN_POINT('',(-0.05196152422706631,0,-0.030000000000000006));
#469=DIRECTION('',(0,1,0));
#470=VECTOR('',#469,0.005);
#471=LINE('',#468,#470);
#472=EDGE_CURVE('',#95,#97,#471,.T.);
#473=CARTESIAN_POINT('',(-0.056381557247154504,0.005,-0.020521208599540118));
#474=DIRECTION('',(0.4226182617406996,0,-0.9063077870366499));
#475=VECTOR('',#474,0.010458689129718994);
#476=LINE('',#473,#475);
#477=EDGE_CURVE('',#93,#97,#476,.T.);
#478=CARTESIAN_POINT('',(-0.05196152422706631,0,-0.030000000000000006));
#479=DIRECTION('',(0.5735764363510465,0,-0.8191520442889914));
#480=VECTOR('',#479,0.01045868912971897);
#481=LINE('',#478,#480);
#482=EDGE_CURVE('',#95,#99,#481,.T.);
#483=CARTESIAN_POINT('',(-0.04596266658713868,0,-0.03856725658119235));
#484=DIRECTION('',(0,1,0));
#485=VECTOR('',#484,0.005);
#486=LINE('',#483,#485);
#487=EDGE_CURVE('',#99,#101,#486,.T.);
#488=CARTESIAN_POINT('',(-0.05196152422706631,0.005,-0.030000000000000006));
#489=DIRECTION('',(0.5735764363510465,0,-0.8191520442889914));
#490=VECTOR('',#489,0.01045868912971897);
#491=LINE('',#488,#490);
#492=EDGE_CURVE('',#97,#101,#491,.T.);
#493=CARTESIAN_POINT('',(-0.04596266658713868,0,-0.03856725658119235));
#494=DIRECTION('',(0.7071067811865471,0,-0.7071067811865478));
#495=VECTOR('',#494,0.01045868912971897);
#496=LINE('',#493,#495);
#497=EDGE_CURVE('',#99,#103,#496,.T.);
#498=CARTESIAN_POINT('',(-0.038567256581192366,0,-0.04596266658713867));
#499=DIRECTION('',(0,1,0));
#500=VECTOR('',#499,0.005);
#501=LINE('',#498,#500);
#502=EDGE_CURVE('',#103,#105,#501,.T.);
#503=CARTESIAN_POINT('',(-0.04596266658713868,0.005,-0.03856725658119235));
#504=DIRECTION('',(0.7071067811865471,0,-0.7071067811865478));
#505=VECTOR('',#504,0.01045868912971897);
#506=LINE('',#503,#505);
#507=EDGE_CURVE('',#101,#105,#506,.T.);
#508=CARTESIAN_POINT('',(-0.038567256581192366,0,-0.04596266658713867));
#509=DIRECTION('',(0.8191520442889916,0,-0.5735764363510464));
#510=VECTOR('',#509,0.01045868912971896);
#511=LINE('',#508,#510);
#512=EDGE_CURVE('',#103,#107,#511,.T.);
#513=CARTESIAN_POINT('',(-0.030000000000000027,0,-0.0519615242270663));
#514=DIRECTION('',(0,1,0));
#515=VECTOR('',#514,0.005);
#516=LINE('',#513,#515);
#517=EDGE_CURVE('',#107,#109,#516,.T.);
#518=CARTESIAN_POINT('',(-0.038567256581192366,0.005,-0.04596266658713867));
#519=DIRECTION('',(0.8191520442889916,0,-0.5735764363510464));
#520=VECTOR('',#519,0.01045868912971896);
#521=LINE('',#518,#520);
#522=EDGE_CURVE('',#105,#109,#521,.T.);
#523=CARTESIAN_POINT('',(-0.030000000000000027,0,-0.0519615242270663));
#524=DIRECTION('',(0.9063077870366495,0,-0.42261826174070055));
#525=VECTOR('',#524,0.010458689129718972);
#526=LINE('',#523,#525);
#527=EDGE_CURVE('',#107,#111,#526,.T.);
#528=CARTESIAN_POINT('',(-0.020521208599540163,0,-0.05638155724715449));
#529=DIRECTION('',(0,1,0));
#530=VECTOR('',#529,0.005);
#531=LINE('',#528,#530);
#532=EDGE_CURVE('',#111,#113,#531,.T.);
#533=CARTESIAN_POINT('',(-0.030000000000000027,0.005,-0.0519615242270663));
#534=DIRECTION('',(0.9063077870366495,0,-0.42261826174070055));
#535=VECTOR('',#534,0.010458689129718972);
#536=LINE('',#533,#535);
#537=EDGE_CURVE('',#109,#113,#536,.T.);
#538=CARTESIAN_POINT('',(-0.020521208599540163,0,-0.05638155724715449));
#539=DIRECTION('',(0.9659258262890684,0,-0.2588190451025204));
#540=VECTOR('',#539,0.01045868912971902);
#541=LINE('',#538,#540);
#542=EDGE_CURVE('',#111,#115,#541,.T.);
#543=CARTESIAN_POINT('',(-0.01041889066001582,0,-0.05908846518073248));
#544=DIRECTION('',(0,1,0));
#545=VECTOR('',#544,0.005);
#546=LINE('',#543,#545);
#547=EDGE_CURVE('',#115,#117,#546,.T.);
#548=CARTESIAN_POINT('',(-0.020521208599540163,0.005,-0.05638155724715449));
#549=DIRECTION('',(0.9659258262890684,0,-0.2588190451025204));
#550=VECTOR('',#549,0.01045868912971902);
#551=LINE('',#548,#550);
#552=EDGE_CURVE('',#113,#117,#551,.T.);
#553=CARTESIAN_POINT('',(-0.01041889066001582,0,-0.05908846518073248));
#554=DIRECTION('',(0.9961946980917454,0,-0.08715574274765865));
#555=VECTOR('',#554,0.01045868912971897);
#556=LINE('',#553,#555);
#557=EDGE_CURVE('',#115,#119,#556,.T.);
#558=CARTESIAN_POINT('',(-1.1021821192326178e-17,0,-0.06));
#559=DIRECTION('',(0,1,0));
#560=VECTOR('',#559,0.005);
#561=LINE('',#558,#560);
#562=EDGE_CURVE('',#119,#121,#561,.T.);
#563=CARTESIAN_POINT('',(-0.01041889066001582,0.005,-0.05908846518073248));
#564=DIRECTION('',(0.9961946980917454,0,-0.08715574274765865));
#565=VECTOR('',#564,0.01045868912971897);
#566=LINE('',#563,#565);
#567=EDGE_CURVE('',#117,#121,#566,.T.);
#568=CARTESIAN_POINT('',(-1.1021821192326178e-17,0,-0.06));
#569=DIRECTION('',(0.9961946980917457,0,0.08715574274765801));
#570=VECTOR('',#569,0.010458689129718967);
#571=LINE('',#568,#570);
#572=EDGE_CURVE('',#119,#123,#571,.T.);
#573=CARTESIAN_POINT('',(0.010418890660015797,0,-0.059088465180732484));
#574=DIRECTION('',(0,1,0));
#575=VECTOR('',#574,0.005);
#576=LINE('',#573,#575);
#577=EDGE_CURVE('',#123,#125,#576,.T.);
#578=CARTESIAN_POINT('',(-1.1021821192326178e-17,0.005,-0.06));
#579=DIRECTION('',(0.9961946980917457,0,0.08715574274765801));
#580=VECTOR('',#579,0.010458689129718967);
#581=LINE('',#578,#580);
#582=EDGE_CURVE('',#121,#125,#581,.T.);
#583=CARTESIAN_POINT('',(0.010418890660015797,0,-0.059088465180732484));
#584=DIRECTION('',(0.9659258262890683,0,0.2588190451025204));
#585=VECTOR('',#584,0.01045868912971902);
#586=LINE('',#583,#585);
#587=EDGE_CURVE('',#123,#127,#586,.T.);
#588=CARTESIAN_POINT('',(0.02052120859954014,0,-0.0563815572471545));
#589=DIRECTION('',(0,1,0));
#590=VECTOR('',#589,0.005);
#591=LINE('',#588,#590);
#592=EDGE_CURVE('',#127,#129,#591,.T.);
#593=CARTESIAN_POINT('',(0.010418890660015797,0.005,-0.059088465180732484));
#594=DIRECTION('',(0.9659258262890683,0,0.2588190451025204));
#595=VECTOR('',#594,0.01045868912971902);
#596=LINE('',#593,#595);
#597=EDGE_CURVE('',#125,#129,#596,.T.);
#598=CARTESIAN_POINT('',(0.02052120859954014,0,-0.0563815572471545));
#599=DIRECTION('',(0.9063077870366498,0,0.4226182617406999));
#600=VECTOR('',#599,0.010458689129718972);
#601=LINE('',#598,#600);
#602=EDGE_CURVE('',#127,#131,#601,.T.);
#603=CARTESIAN_POINT('',(0.030000000000000006,0,-0.05196152422706631));
#604=DIRECTION('',(0,1,0));
#605=VECTOR('',#604,0.005);
#606=LINE('',#603,#605);
#607=EDGE_CURVE('',#131,#133,#606,.T.);
#608=CARTESIAN_POINT('',(0.02052120859954014,0.005,-0.0563815572471545));
#609=DIRECTION('',(0.9063077870366498,0,0.4226182617406999));
#610=VECTOR('',#609,0.010458689129718972);
#611=LINE('',#608,#610);
#612=EDGE_CURVE('',#129,#133,#611,.T.);
#613=CARTESIAN_POINT('',(0.030000000000000006,0,-0.05196152422706631));
#614=DIRECTION('',(0.8191520442889918,0,0.5735764363510462));
#615=VECTOR('',#614,0.010458689129718965);
#616=LINE('',#613,#615);
#617=EDGE_CURVE('',#131,#135,#616,.T.);
#618=CARTESIAN_POINT('',(0.03856725658119235,0,-0.045962666587138684));
#619=DIRECTION('',(0,1,0));
#620=VECTOR('',#619,0.005);
#621=LINE('',#618,#620);
#622=EDGE_CURVE('',#135,#137,#621,.T.);
#623=CARTESIAN_POINT('',(0.030000000000000006,0.005,-0.05196152422706631));
#624=DIRECTION('',(0.8191520442889918,0,0.5735764363510462));
#625=VECTOR('',#624,0.010458689129718965);
#626=LINE('',#623,#625);
#627=EDGE_CURVE('',#133,#137,#626,.T.);
#628=CARTESIAN_POINT('',(0.03856725658119235,0,-0.045962666587138684));
#629=DIRECTION('',(0.7071067811865475,0,0.7071067811865475));
#630=VECTOR('',#629,0.010458689129718965);
#631=LINE('',#628,#630);
#632=EDGE_CURVE('',#135,#139,#631,.T.);
#633=CARTESIAN_POINT('',(0.04596266658713866,0,-0.03856725658119237));
#634=DIRECTION('',(0,1,0));
#635=VECTOR('',#634,0.005);
#636=LINE('',#633,#635);
#637=EDGE_CURVE('',#139,#141,#636,.T.);
#638=CARTESIAN_POINT('',(0.03856725658119235,0.005,-0.045962666587138684));
#639=DIRECTION('',(0.7071067811865475,0,0.7071067811865475));
#640=VECTOR('',#639,0.010458689129718965);
#641=LINE('',#638,#640);
#642=EDGE_CURVE('',#137,#141,#641,.T.);
#643=CARTESIAN_POINT('',(0.04596266658713866,0,-0.03856725658119237));
#644=DIRECTION('',(0.5735764363510465,0,0.8191520442889914));
#645=VECTOR('',#644,0.01045868912971897);
#646=LINE('',#643,#645);
#647=EDGE_CURVE('',#139,#143,#646,.T.);
#648=CARTESIAN_POINT('',(0.0519615242270663,0,-0.030000000000000027));
#649=DIRECTION('',(0,1,0));
#650=VECTOR('',#649,0.005);
#651=LINE('',#648,#650);
#652=EDGE_CURVE('',#143,#145,#651,.T.);
#653=CARTESIAN_POINT('',(0.04596266658713866,0.005,-0.03856725658119237));
#654=DIRECTION('',(0.5735764363510465,0,0.8191520442889914));
#655=VECTOR('',#654,0.01045868912971897);
#656=LINE('',#653,#655);
#657=EDGE_CURVE('',#141,#145,#656,.T.);
#658=CARTESIAN_POINT('',(0.0519615242270663,0,-0.030000000000000027));
#659=DIRECTION('',(0.42261826174070005,0,0.9063077870366497));
#660=VECTOR('',#659,0.010458689129718967);
#661=LINE('',#658,#660);
#662=EDGE_CURVE('',#143,#147,#661,.T.);
#663=CARTESIAN_POINT('',(0.05638155724715448,0,-0.020521208599540167));
#664=DIRECTION('',(0,1,0));
#665=VECTOR('',#664,0.005);
#666=LINE('',#663,#665);
#667=EDGE_CURVE('',#147,#149,#666,.T.);
#668=CARTESIAN_POINT('',(0.0519615242270663,0.005,-0.030000000000000027));
#669=DIRECTION('',(0.42261826174070005,0,0.9063077870366497));
#670=VECTOR('',#669,0.010458689129718967);
#671=LINE('',#668,#670);
#672=EDGE_CURVE('',#145,#149,#671,.T.);
#673=CARTESIAN_POINT('',(0.05638155724715448,0,-0.020521208599540167));
#674=DIRECTION('',(0.258819045102521,0,0.9659258262890682));
#675=VECTOR('',#674,0.010458689129719024);
#676=LINE('',#673,#675);
#677=EDGE_CURVE('',#147,#151,#676,.T.);
#678=CARTESIAN_POINT('',(0.05908846518073248,0,-0.010418890660015823));
#679=DIRECTION('',(0,1,0));
#680=VECTOR('',#679,0.005);
#681=LINE('',#678,#680);
#682=EDGE_CURVE('',#151,#153,#681,.T.);
#683=CARTESIAN_POINT('',(0.05638155724715448,0.005,-0.020521208599540167));
#684=DIRECTION('',(0.258819045102521,0,0.9659258262890682));
#685=VECTOR('',#684,0.010458689129719024);
#686=LINE('',#683,#685);
#687=EDGE_CURVE('',#149,#153,#686,.T.);
#688=CARTESIAN_POINT('',(0.05908846518073248,0,-0.010418890660015823));
#689=DIRECTION('',(0.08715574274765853,0,0.9961946980917454));
#690=VECTOR('',#689,0.010458689129718984);
#691=LINE('',#688,#690);
#692=EDGE_CURVE('',#151,#11,#691,.T.);
#693=CARTESIAN_POINT('',(0.05908846518073248,0.005,-0.010418890660015823));
#694=DIRECTION('',(0.08715574274765853,0,0.9961946980917454));
#695=VECTOR('',#694,0.010458689129718984);
#696=LINE('',#693,#695);
#697=EDGE_CURVE('',#153,#17,#696,.T.);
#698=CARTESIAN_POINT('',(0,0,0));
#699=DIRECTION('',(1,0,0));
#700=VECTOR('',#699,0.06);
#701=LINE('',#698,#700);
#702=EDGE_CURVE('',#155,#11,#701,.T.);
#703=CARTESIAN_POINT('',(0,0,0));
#704=DIRECTION('',(0.9848077530122081,0,0.17364817766693036));
#705=VECTOR('',#704,0.05999999999999999);
#706=LINE('',#703,#705);
#707=EDGE_CURVE('',#155,#13,#706,.T.);
#708=CARTESIAN_POINT('',(0,0,0));
#709=DIRECTION('',(0.9396926207859084,0,0.3420201433256687));
#710=VECTOR('',#709,0.06);
#711=LINE('',#708,#710);
#712=EDGE_CURVE('',#155,#19,#711,.T.);
#713=CARTESIAN_POINT('',(0,0,0));
#714=DIRECTION('',(0.8660254037844387,0,0.49999999999999994));
#715=VECTOR('',#714,0.06);
#716=LINE('',#713,#715);
#717=EDGE_CURVE('',#155,#23,#716,.T.);
#718=CARTESIAN_POINT('',(0,0,0));
#719=DIRECTION('',(0.7660444431189781,0,0.6427876096865393));
#720=VECTOR('',#719,0.05999999999999999);
#721=LINE('',#718,#720);
#722=EDGE_CURVE('',#155,#27,#721,.T.);
#723=CARTESIAN_POINT('',(0,0,0));
#724=DIRECTION('',(0.6427876096865394,0,0.766044443118978));
#725=VECTOR('',#724,0.06);
#726=LINE('',#723,#725);
#727=EDGE_CURVE('',#155,#31,#726,.T.);
#728=CARTESIAN_POINT('',(0,0,0));
#729=DIRECTION('',(0.5000000000000001,0,0.8660254037844386));
#730=VECTOR('',#729,0.06);
#731=LINE('',#728,#730);
#732=EDGE_CURVE('',#155,#35,#731,.T.);
#733=CARTESIAN_POINT('',(0,0,0));
#734=DIRECTION('',(0.3420201433256688,0,0.9396926207859083));
#735=VECTOR('',#734,0.06);
#736=LINE('',#733,#735);
#737=EDGE_CURVE('',#155,#39,#736,.T.);
#738=CARTESIAN_POINT('',(0,0,0));
#739=DIRECTION('',(0.17364817766693044,0,0.9848077530122081));
#740=VECTOR('',#739,0.05999999999999999);
#741=LINE('',#738,#740);
#742=EDGE_CURVE('',#155,#43,#741,.T.);
#743=CARTESIAN_POINT('',(0,0,0));
#744=DIRECTION('',(6.123233995736766e-17,0,1));
#745=VECTOR('',#744,0.06);
#746=LINE('',#743,#745);
#747=EDGE_CURVE('',#155,#47,#746,.T.);
#748=CARTESIAN_POINT('',(0,0,0));
#749=DIRECTION('',(-0.17364817766693033,0,0.9848077530122081));
#750=VECTOR('',#749,0.05999999999999999);
#751=LINE('',#748,#750);
#752=EDGE_CURVE('',#155,#51,#751,.T.);
#753=CARTESIAN_POINT('',(0,0,0));
#754=DIRECTION('',(-0.3420201433256687,0,0.9396926207859084));
#755=VECTOR('',#754,0.06);
#756=LINE('',#753,#755);
#757=EDGE_CURVE('',#155,#55,#756,.T.);
#758=CARTESIAN_POINT('',(0,0,0));
#759=DIRECTION('',(-0.49999999999999983,0,0.8660254037844388));
#760=VECTOR('',#759,0.05999999999999999);
#761=LINE('',#758,#760);
#762=EDGE_CURVE('',#155,#59,#761,.T.);
#763=CARTESIAN_POINT('',(0,0,0));
#764=DIRECTION('',(-0.6427876096865394,0,0.766044443118978));
#765=VECTOR('',#764,0.06);
#766=LINE('',#763,#765);
#767=EDGE_CURVE('',#155,#63,#766,.T.);
#768=CARTESIAN_POINT('',(0,0,0));
#769=DIRECTION('',(-0.7660444431189779,0,0.6427876096865395));
#770=VECTOR('',#769,0.06);
#771=LINE('',#768,#770);
#772=EDGE_CURVE('',#155,#67,#771,.T.);
#773=CARTESIAN_POINT('',(0,0,0));
#774=DIRECTION('',(-0.8660254037844387,0,0.49999999999999994));
#775=VECTOR('',#774,0.06);
#776=LINE('',#773,#775);
#777=EDGE_CURVE('',#155,#71,#776,.T.);
#778=CARTESIAN_POINT('',(0,0,0));
#779=DIRECTION('',(-0.9396926207859083,0,0.3420201433256689));
#780=VECTOR('',#779,0.06);
#781=LINE('',#778,#780);
#782=EDGE_CURVE('',#155,#75,#781,.T.);
#783=CARTESIAN_POINT('',(0,0,0));
#784=DIRECTION('',(-0.984807753012208,0,0.1736481776669307));
#785=VECTOR('',#784,0.06);
#786=LINE('',#783,#785);
#787=EDGE_CURVE('',#155,#79,#786,.T.);
#788=CARTESIAN_POINT('',(0,0,0));
#789=DIRECTION('',(-1,0,1.2246467991473532e-16));
#790=VECTOR('',#789,0.06);
#791=LINE('',#788,#790);
#792=EDGE_CURVE('',#155,#83,#791,.T.);
#793=CARTESIAN_POINT('',(0,0,0));
#794=DIRECTION('',(-0.984807753012208,0,-0.17364817766693047));
#795=VECTOR('',#794,0.06);
#796=LINE('',#793,#795);
#797=EDGE_CURVE('',#155,#87,#796,.T.);
#798=CARTESIAN_POINT('',(0,0,0));
#799=DIRECTION('',(-0.9396926207859084,0,-0.34202014332566866));
#800=VECTOR('',#799,0.06);
#801=LINE('',#798,#800);
#802=EDGE_CURVE('',#155,#91,#801,.T.);
#803=CARTESIAN_POINT('',(0,0,0));
#804=DIRECTION('',(-0.8660254037844386,0,-0.5000000000000001));
#805=VECTOR('',#804,0.06);
#806=LINE('',#803,#805);
#807=EDGE_CURVE('',#155,#95,#806,.T.);
#808=CARTESIAN_POINT('',(0,0,0));
#809=DIRECTION('',(-0.7660444431189781,0,-0.6427876096865393));
#810=VECTOR('',#809,0.05999999999999999);
#811=LINE('',#808,#810);
#812=EDGE_CURVE('',#155,#99,#811,.T.);
#813=CARTESIAN_POINT('',(0,0,0));
#814=DIRECTION('',(-0.6427876096865395,0,-0.7660444431189779));
#815=VECTOR('',#814,0.06);
#816=LINE('',#813,#815);
#817=EDGE_CURVE('',#155,#103,#816,.T.);
#818=CARTESIAN_POINT('',(0,0,0));
#819=DIRECTION('',(-0.5000000000000004,0,-0.8660254037844384));
#820=VECTOR('',#819,0.06);
#821=LINE('',#818,#820);
#822=EDGE_CURVE('',#155,#107,#821,.T.);
#823=CARTESIAN_POINT('',(0,0,0));
#824=DIRECTION('',(-0.3420201433256694,0,-0.9396926207859081));
#825=VECTOR('',#824,0.060000000000000005);
#826=LINE('',#823,#825);
#827=EDGE_CURVE('',#155,#111,#826,.T.);
#828=CARTESIAN_POINT('',(0,0,0));
#829=DIRECTION('',(-0.17364817766693036,0,-0.9848077530122081));
#830=VECTOR('',#829,0.05999999999999999);
#831=LINE('',#828,#830);
#832=EDGE_CURVE('',#155,#115,#831,.T.);
#833=CARTESIAN_POINT('',(0,0,0));
#834=DIRECTION('',(-1.8369701987210297e-16,0,-1));
#835=VECTOR('',#834,0.06);
#836=LINE('',#833,#835);
#837=EDGE_CURVE('',#155,#119,#836,.T.);
#838=CARTESIAN_POINT('',(0,0,0));
#839=DIRECTION('',(0.17364817766692997,0,-0.9848077530122081));
#840=VECTOR('',#839,0.06);
#841=LINE('',#838,#840);
#842=EDGE_CURVE('',#155,#123,#841,.T.);
#843=CARTESIAN_POINT('',(0,0,0));
#844=DIRECTION('',(0.342020143325669,0,-0.9396926207859083));
#845=VECTOR('',#844,0.06);
#846=LINE('',#843,#845);
#847=EDGE_CURVE('',#155,#127,#846,.T.);
#848=CARTESIAN_POINT('',(0,0,0));
#849=DIRECTION('',(0.5000000000000001,0,-0.8660254037844386));
#850=VECTOR('',#849,0.06);
#851=LINE('',#848,#850);
#852=EDGE_CURVE('',#155,#131,#851,.T.);
#853=CARTESIAN_POINT('',(0,0,0));
#854=DIRECTION('',(0.6427876096865393,0,-0.7660444431189781));
#855=VECTOR('',#854,0.06);
#856=LINE('',#853,#855);
#857=EDGE_CURVE('',#155,#135,#856,.T.);
#858=CARTESIAN_POINT('',(0,0,0));
#859=DIRECTION('',(0.7660444431189778,0,-0.6427876096865397));
#860=VECTOR('',#859,0.05999999999999999);
#861=LINE('',#858,#860);
#862=EDGE_CURVE('',#155,#139,#861,.T.);
#863=CARTESIAN_POINT('',(0,0,0));
#864=DIRECTION('',(0.8660254037844384,0,-0.5000000000000004));
#865=VECTOR('',#864,0.06);
#866=LINE('',#863,#865);
#867=EDGE_CURVE('',#155,#143,#866,.T.);
#868=CARTESIAN_POINT('',(0,0,0));
#869=DIRECTION('',(0.9396926207859081,0,-0.34202014332566943));
#870=VECTOR('',#869,0.06);
#871=LINE('',#868,#870);
#872=EDGE_CURVE('',#155,#147,#871,.T.);
#873=CARTESIAN_POINT('',(0,0,0));
#874=DIRECTION('',(0.9848077530122081,0,-0.17364817766693041));
#875=VECTOR('',#874,0.05999999999999999);
#876=LINE('',#873,#875);
#877=EDGE_CURVE('',#155,#151,#876,.T.);
#878=CARTESIAN_POINT('',(0,0.005,0));
#879=DIRECTION('',(1,0,0));
#880=VECTOR('',#879,0.06);
#881=LINE('',#878,#880);
#882=EDGE_CURVE('',#157,#17,#881,.T.);
#883=CARTESIAN_POINT('',(0,0.005,0));
#884=DIRECTION('',(0.9848077530122081,0,0.17364817766693036));
#885=VECTOR('',#884,0.05999999999999999);
#886=LINE('',#883,#885);
#887=EDGE_CURVE('',#157,#15,#886,.T.);
#888=CARTESIAN_POINT('',(0,0.005,0));
#889=DIRECTION('',(0.9396926207859084,0,0.3420201433256687));
#890=VECTOR('',#889,0.06);
#891=LINE('',#888,#890);
#892=EDGE_CURVE('',#157,#21,#891,.T.);
#893=CARTESIAN_POINT('',(0,0.005,0));
#894=DIRECTION('',(0.8660254037844387,0,0.49999999999999994));
#895=VECTOR('',#894,0.06);
#896=LINE('',#893,#895);
#897=EDGE_CURVE('',#157,#25,#896,.T.);
#898=CARTESIAN_POINT('',(0,0.005,0));
#899=DIRECTION('',(0.7660444431189781,0,0.6427876096865393));
#900=VECTOR('',#899,0.05999999999999999);
#901=LINE('',#898,#900);
#902=EDGE_CURVE('',#157,#29,#901,.T.);
#903=CARTESIAN_POINT('',(0,0.005,0));
#904=DIRECTION('',(0.6427876096865394,0,0.766044443118978));
#905=VECTOR('',#904,0.06);
#906=LINE('',#903,#905);
#907=EDGE_CURVE('',#157,#33,#906,.T.);
#908=CARTESIAN_POINT('',(0,0.005,0));
#909=DIRECTION('',(0.5000000000000001,0,0.8660254037844386));
#910=VECTOR('',#909,0.06);
#911=LINE('',#908,#910);
#912=EDGE_CURVE('',#157,#37,#911,.T.);
#913=CARTESIAN_POINT('',(0,0.005,0));
#914=DIRECTION('',(0.3420201433256688,0,0.9396926207859083));
#915=VECTOR('',#914,0.06);
#916=LINE('',#913,#915);
#917=EDGE_CURVE('',#157,#41,#916,.T.);
#918=CARTESIAN_POINT('',(0,0.005,0));
#919=DIRECTION('',(0.17364817766693044,0,0.9848077530122081));
#920=VECTOR('',#919,0.05999999999999999);
#921=LINE('',#918,#920);
#922=EDGE_CURVE('',#157,#45,#921,.T.);
#923=CARTESIAN_POINT('',(0,0.005,0));
#924=DIRECTION('',(6.123233995736766e-17,0,1));
#925=VECTOR('',#924,0.06);
#926=LINE('',#923,#925);
#927=EDGE_CURVE('',#157,#49,#926,.T.);
#928=CARTESIAN_POINT('',(0,0.005,0));
#929=DIRECTION('',(-0.17364817766693033,0,0.9848077530122081));
#930=VECTOR('',#929,0.05999999999999999);
#931=LINE('',#928,#930);
#932=EDGE_CURVE('',#157,#53,#931,.T.);
#933=CARTESIAN_POINT('',(0,0.005,0));
#934=DIRECTION('',(-0.3420201433256687,0,0.9396926207859084));
#935=VECTOR('',#934,0.06);
#936=LINE('',#933,#935);
#937=EDGE_CURVE('',#157,#57,#936,.T.);
#938=CARTESIAN_POINT('',(0,0.005,0));
#939=DIRECTION('',(-0.49999999999999983,0,0.8660254037844388));
#940=VECTOR('',#939,0.05999999999999999);
#941=LINE('',#938,#940);
#942=EDGE_CURVE('',#157,#61,#941,.T.);
#943=CARTESIAN_POINT('',(0,0.005,0));
#944=DIRECTION('',(-0.6427876096865394,0,0.766044443118978));
#945=VECTOR('',#944,0.06);
#946=LINE('',#943,#945);
#947=EDGE_CURVE('',#157,#65,#946,.T.);
#948=CARTESIAN_POINT('',(0,0.005,0));
#949=DIRECTION('',(-0.7660444431189779,0,0.6427876096865395));
#950=VECTOR('',#949,0.06);
#951=LINE('',#948,#950);
#952=EDGE_CURVE('',#157,#69,#951,.T.);
#953=CARTESIAN_POINT('',(0,0.005,0));
#954=DIRECTION('',(-0.8660254037844387,0,0.49999999999999994));
#955=VECTOR('',#954,0.06);
#956=LINE('',#953,#955);
#957=EDGE_CURVE('',#157,#73,#956,.T.);
#958=CARTESIAN_POINT('',(0,0.005,0));
#959=DIRECTION('',(-0.9396926207859083,0,0.3420201433256689));
#960=VECTOR('',#959,0.06);
#961=LINE('',#958,#960);
#962=EDGE_CURVE('',#157,#77,#961,.T.);
#963=CARTESIAN_POINT('',(0,0.005,0));
#964=DIRECTION('',(-0.984807753012208,0,0.1736481776669307));
#965=VECTOR('',#964,0.06);
#966=LINE('',#963,#965);
#967=EDGE_CURVE('',#157,#81,#966,.T.);
#968=CARTESIAN_POINT('',(0,0.005,0));
#969=DIRECTION('',(-1,0,1.2246467991473532e-16));
#970=VECTOR('',#969,0.06);
#971=LINE('',#968,#970);
#972=EDGE_CURVE('',#157,#85,#971,.T.);
#973=CARTESIAN_POINT('',(0,0.005,0));
#974=DIRECTION('',(-0.984807753012208,0,-0.17364817766693047));
#975=VECTOR('',#974,0.06);
#976=LINE('',#973,#975);
#977=EDGE_CURVE('',#157,#89,#976,.T.);
#978=CARTESIAN_POINT('',(0,0.005,0));
#979=DIRECTION('',(-0.9396926207859084,0,-0.34202014332566866));
#980=VECTOR('',#979,0.06);
#981=LINE('',#978,#980);
#982=EDGE_CURVE('',#157,#93,#981,.T.);
#983=CARTESIAN_POINT('',(0,0.005,0));
#984=DIRECTION('',(-0.8660254037844386,0,-0.5000000000000001));
#985=VECTOR('',#984,0.06);
#986=LINE('',#983,#985);
#987=EDGE_CURVE('',#157,#97,#986,.T.);
#988=CARTESIAN_POINT('',(0,0.005,0));
#989=DIRECTION('',(-0.7660444431189781,0,-0.6427876096865393));
#990=VECTOR('',#989,0.05999999999999999);
#991=LINE('',#988,#990);
#992=EDGE_CURVE('',#157,#101,#991,.T.);
#993=CARTESIAN_POINT('',(0,0.005,0));
#994=DIRECTION('',(-0.6427876096865395,0,-0.7660444431189779));
#995=VECTOR('',#994,0.06);
#996=LINE('',#993,#995);
#997=EDGE_CURVE('',#157,#105,#996,.T.);
#998=CARTESIAN_POINT('',(0,0.005,0));
#999=DIRECTION('',(-0.5000000000000004,0,-0.8660254037844384));
#1000=VECTOR('',#999,0.06);
#1001=LINE('',#998,#1000);
#1002=EDGE_CURVE('',#157,#109,#1001,.T.);
#1003=CARTESIAN_POINT('',(0,0.005,0));
#1004=DIRECTION('',(-0.3420201433256694,0,-0.9396926207859081));
#1005=VECTOR('',#1004,0.060000000000000005);
#1006=LINE('',#1003,#1005);
#1007=EDGE_CURVE('',#157,#113,#1006,.T.);
#1008=CARTESIAN_POINT('',(0,0.005,0));
#1009=DIRECTION('',(-0.17364817766693036,0,-0.9848077530122081));
#1010=VECTOR('',#1009,0.05999999999999999);
#1011=LINE('',#1008,#1010);
#1012=EDGE_CURVE('',#157,#117,#1011,.T.);
#1013=CARTESIAN_POINT('',(0,0.005,0));
#1014=DIRECTION('',(-1.8369701987210297e-16,0,-1));
#1015=VECTOR('',#1014,0.06);
#1016=LINE('',#1013,#1015);
#1017=EDGE_CURVE('',#157,#121,#1016,.T.);
#1018=CARTESIAN_POINT('',(0,0.005,0));
#1019=DIRECTION('',(0.17364817766692997,0,-0.9848077530122081));
#1020=VECTOR('',#1019,0.06);
#1021=LINE('',#1018,#1020);
#1022=EDGE_CURVE('',#157,#125,#1021,.T.);
#1023=CARTESIAN_POINT('',(0,0.005,0));
#1024=DIRECTION('',(0.342020143325669,0,-0.9396926207859083));
#1025=VECTOR('',#1024,0.06);
#1026=LINE('',#1023,#1025);
#1027=EDGE_CURVE('',#157,#129,#1026,.T.);
#1028=CARTESIAN_POINT('',(0,0.005,0));
#1029=DIRECTION('',(0.5000000000000001,0,-0.8660254037844386));
#1030=VECTOR('',#1029,0.06);
#1031=LINE('',#1028,#1030);
#1032=EDGE_CURVE('',#157,#133,#1031,.T.);
#1033=CARTESIAN_POINT('',(0,0.005,0));
#1034=DIRECTION('',(0.6427876096865393,0,-0.7660444431189781));
#1035=VECTOR('',#1034,0.06);
#1036=LINE('',#1033,#1035);
#1037=EDGE_CURVE('',#157,#137,#1036,.T.);
#1038=CARTESIAN_POINT('',(0,0.005,0));
#1039=DIRECTION('',(0.7660444431189778,0,-0.6427876096865397));
#1040=VECTOR('',#1039,0.05999999999999999);
#1041=LINE('',#1038,#1040);
#1042=EDGE_CURVE('',#157,#141,#1041,.T.);
#1043=CARTESIAN_POINT('',(0,0.005,0));
#1044=DIRECTION('',(0.8660254037844384,0,-0.5000000000000004));
#1045=VECTOR('',#1044,0.06);
#1046=LINE('',#1043,#1045);
#1047=EDGE_CURVE('',#157,#145,#1046,.T.);
#1048=CARTESIAN_POINT('',(0,0.005,0));
#1049=DIRECTION('',(0.9396926207859081,0,-0.34202014332566943));
#1050=VECTOR('',#1049,0.06);
#1051=LINE('',#1048,#1050);
#1052=EDGE_CURVE('',#157,#149,#1051,.T.);
#1053=CARTESIAN_POINT('',(0,0.005,0));
#1054=DIRECTION('',(0.9848077530122081,0,-0.17364817766693041));
#1055=VECTOR('',#1054,0.05999999999999999);
#1056=LINE('',#1053,#1055);
#1057=EDGE_CURVE('',#157,#153,#1056,.T.);
#1058=CARTESIAN_POINT('',(0.05954423259036624,0.0025,0.00520944533000791));
#1059=DIRECTION('',(-0.9961946980917455,0,-0.08715574274765857));
#1060=DIRECTION('',(0,-1,0));
#1061=AXIS2_PLACEMENT_3D('',#1058,#1059,#1060);
#1062=PLANE('',#1061);
#1063=ORIENTED_EDGE('',*,*,#162,.T.);
#1064=ORIENTED_EDGE('',*,*,#167,.T.);
#1065=ORIENTED_EDGE('',*,*,#172,.F.);
#1066=ORIENTED_EDGE('',*,*,#177,.F.);
#1067=EDGE_LOOP('',(#1063,#1064,#1065,#1066));
#1068=FACE_OUTER_BOUND('',#1067,.T.);
#1069=ADVANCED_FACE('',(#1068),#1062,.T.);
#1070=CARTESIAN_POINT('',(0.05773501121394349,0.0025,0.01547004962977797));
#1071=DIRECTION('',(-0.9659258262890685,0,-0.25881904510252013));
#1072=DIRECTION('',(0,-1,0));
#1073=AXIS2_PLACEMENT_3D('',#1070,#1071,#1072);
#1074=PLANE('',#1073);
#1075=ORIENTED_EDGE('',*,*,#182,.T.);
#1076=ORIENTED_EDGE('',*,*,#187,.T.);
#1077=ORIENTED_EDGE('',*,*,#192,.F.);
#1078=ORIENTED_EDGE('',*,*,#167,.F.);
#1079=EDGE_LOOP('',(#1075,#1076,#1077,#1078));
#1080=FACE_OUTER_BOUND('',#1079,.T.);
#1081=ADVANCED_FACE('',(#1080),#1074,.T.);
#1082=CARTESIAN_POINT('',(0.054171540737110405,0.0025,0.02526060429977006));
#1083=DIRECTION('',(-0.9063077870366499,0,-0.42261826174069955));
#1084=DIRECTION('',(0,-1,0));
#1085=AXIS2_PLACEMENT_3D('',#1082,#1083,#1084);
#1086=PLANE('',#1085);
#1087=ORIENTED_EDGE('',*,*,#197,.T.);
#1088=ORIENTED_EDGE('',*,*,#202,.T.);
#1089=ORIENTED_EDGE('',*,*,#207,.F.);
#1090=ORIENTED_EDGE('',*,*,#187,.F.);
#1091=EDGE_LOOP('',(#1087,#1088,#1089,#1090));
#1092=FACE_OUTER_BOUND('',#1091,.T.);
#1093=ADVANCED_FACE('',(#1092),#1086,.T.);
#1094=CARTESIAN_POINT('',(0.0489620954071025,0.0025,0.034283628290596176));
#1095=DIRECTION('',(-0.8191520442889914,0,-0.5735764363510467));
#1096=DIRECTION('',(0,-1,0));
#1097=AXIS2_PLACEMENT_3D('',#1094,#1095,#1096);
#1098=PLANE('',#1097);
#1099=ORIENTED_EDGE('',*,*,#212,.T.);
#1100=ORIENTED_EDGE('',*,*,#217,.T.);
#1101=ORIENTED_EDGE('',*,*,#222,.F.);
#1102=ORIENTED_EDGE('',*,*,#202,.F.);
#1103=EDGE_LOOP('',(#1099,#1100,#1101,#1102));
#1104=FACE_OUTER_BOUND('',#1103,.T.);
#1105=ADVANCED_FACE('',(#1104),#1098,.T.);
#1106=CARTESIAN_POINT('',(0.04226496158416552,0.0025,0.04226496158416551));
#1107=DIRECTION('',(-0.7071067811865479,0,-0.7071067811865472));
#1108=DIRECTION('',(0,-1,0));
#1109=AXIS2_PLACEMENT_3D('',#1106,#1107,#1108);
#1110=PLANE('',#1109);
#1111=ORIENTED_EDGE('',*,*,#227,.T.);
#1112=ORIENTED_EDGE('',*,*,#232,.T.);
#1113=ORIENTED_EDGE('',*,*,#237,.F.);
#1114=ORIENTED_EDGE('',*,*,#217,.F.);
#1115=EDGE_LOOP('',(#1111,#1112,#1113,#1114));
#1116=FACE_OUTER_BOUND('',#1115,.T.);
#1117=ADVANCED_FACE('',(#1116),#1110,.T.);
#1118=CARTESIAN_POINT('',(0.03428362829059618,0.0025,0.048962095407102495));
#1119=DIRECTION('',(-0.5735764363510464,0,-0.8191520442889916));
#1120=DIRECTION('',(0,-1,0));
#1121=AXIS2_PLACEMENT_3D('',#1118,#1119,#1120);
#1122=PLANE('',#1121);
#1123=ORIENTED_EDGE('',*,*,#242,.T.);
#1124=ORIENTED_EDGE('',*,*,#247,.T.);
#1125=ORIENTED_EDGE('',*,*,#252,.F.);
#1126=ORIENTED_EDGE('',*,*,#232,.F.);
#1127=EDGE_LOOP('',(#1123,#1124,#1125,#1126));
#1128=FACE_OUTER_BOUND('',#1127,.T.);
#1129=ADVANCED_FACE('',(#1128),#1122,.T.);
#1130=CARTESIAN_POINT('',(0.02526060429977007,0.0025,0.054171540737110405));
#1131=DIRECTION('',(-0.42261826174069916,0,-0.90630778703665));
#1132=DIRECTION('',(1,0,0));
#1133=AXIS2_PLACEMENT_3D('',#1130,#1131,#1132);
#1134=PLANE('',#1133);
#1135=ORIENTED_EDGE('',*,*,#257,.T.);
#1136=ORIENTED_EDGE('',*,*,#262,.T.);
#1137=ORIENTED_EDGE('',*,*,#267,.F.);
#1138=ORIENTED_EDGE('',*,*,#247,.F.);
#1139=EDGE_LOOP('',(#1135,#1136,#1137,#1138));
#1140=FACE_OUTER_BOUND('',#1139,.T.);
#1141=ADVANCED_FACE('',(#1140),#1134,.T.);
#1142=CARTESIAN_POINT('',(0.015470049629777976,0.0025,0.05773501121394349));
#1143=DIRECTION('',(-0.25881904510252085,0,-0.9659258262890682));
#1144=DIRECTION('',(1,0,0));
#1145=AXIS2_PLACEMENT_3D('',#1142,#1143,#1144);
#1146=PLANE('',#1145);
#1147=ORIENTED_EDGE('',*,*,#272,.T.);
#1148=ORIENTED_EDGE('',*,*,#277,.T.);
#1149=ORIENTED_EDGE('',*,*,#282,.F.);
#1150=ORIENTED_EDGE('',*,*,#262,.F.);
#1151=EDGE_LOOP('',(#1147,#1148,#1149,#1150));
#1152=FACE_OUTER_BOUND('',#1151,.T.);
#1153=ADVANCED_FACE('',(#1152),#1146,.T.);
#1154=CARTESIAN_POINT('',(0.005209445330007914,0.0025,0.05954423259036623));
#1155=DIRECTION('',(-0.08715574274765835,0,-0.9961946980917455));
#1156=DIRECTION('',(1,0,0));
#1157=AXIS2_PLACEMENT_3D('',#1154,#1155,#1156);
#1158=PLANE('',#1157);
#1159=ORIENTED_EDGE('',*,*,#287,.T.);
#1160=ORIENTED_EDGE('',*,*,#292,.T.);
#1161=ORIENTED_EDGE('',*,*,#297,.F.);
#1162=ORIENTED_EDGE('',*,*,#277,.F.);
#1163=EDGE_LOOP('',(#1159,#1160,#1161,#1162));
#1164=FACE_OUTER_BOUND('',#1163,.T.);
#1165=ADVANCED_FACE('',(#1164),#1158,.T.);
#1166=CARTESIAN_POINT('',(-0.005209445330007907,0.0025,0.05954423259036624));
#1167=DIRECTION('',(0.08715574274765835,0,-0.9961946980917455));
#1168=DIRECTION('',(1,0,0));
#1169=AXIS2_PLACEMENT_3D('',#1166,#1167,#1168);
#1170=PLANE('',#1169);
#1171=ORIENTED_EDGE('',*,*,#302,.T.);
#1172=ORIENTED_EDGE('',*,*,#307,.T.);
#1173=ORIENTED_EDGE('',*,*,#312,.F.);
#1174=ORIENTED_EDGE('',*,*,#292,.F.);
#1175=EDGE_LOOP('',(#1171,#1172,#1173,#1174));
#1176=FACE_OUTER_BOUND('',#1175,.T.);
#1177=ADVANCED_FACE('',(#1176),#1170,.T.);
#1178=CARTESIAN_POINT('',(-0.015470049629777969,0.0025,0.05773501121394349));
#1179=DIRECTION('',(0.2588190451025199,0,-0.9659258262890685));
#1180=DIRECTION('',(1,0,0));
#1181=AXIS2_PLACEMENT_3D('',#1178,#1179,#1180);
#1182=PLANE('',#1181);
#1183=ORIENTED_EDGE('',*,*,#317,.T.);
#1184=ORIENTED_EDGE('',*,*,#322,.T.);
#1185=ORIENTED_EDGE('',*,*,#327,.F.);
#1186=ORIENTED_EDGE('',*,*,#307,.F.);
#1187=EDGE_LOOP('',(#1183,#1184,#1185,#1186));
#1188=FACE_OUTER_BOUND('',#1187,.T.);
#1189=ADVANCED_FACE('',(#1188),#1182,.T.);
#1190=CARTESIAN_POINT('',(-0.025260604299770055,0.0025,0.054171540737110405));
#1191=DIRECTION('',(0.42261826174069966,0,-0.9063077870366498));
#1192=DIRECTION('',(1,0,0));
#1193=AXIS2_PLACEMENT_3D('',#1190,#1191,#1192);
#1194=PLANE('',#1193);
#1195=ORIENTED_EDGE('',*,*,#332,.T.);
#1196=ORIENTED_EDGE('',*,*,#337,.T.);
#1197=ORIENTED_EDGE('',*,*,#342,.F.);
#1198=ORIENTED_EDGE('',*,*,#322,.F.);
#1199=EDGE_LOOP('',(#1195,#1196,#1197,#1198));
#1200=FACE_OUTER_BOUND('',#1199,.T.);
#1201=ADVANCED_FACE('',(#1200),#1194,.T.);
#1202=CARTESIAN_POINT('',(-0.03428362829059617,0.0025,0.0489620954071025));
#1203=DIRECTION('',(0.5735764363510462,0,-0.8191520442889917));
#1204=DIRECTION('',(0,1,0));
#1205=AXIS2_PLACEMENT_3D('',#1202,#1203,#1204);
#1206=PLANE('',#1205);
#1207=ORIENTED_EDGE('',*,*,#347,.T.);
#1208=ORIENTED_EDGE('',*,*,#352,.T.);
#1209=ORIENTED_EDGE('',*,*,#357,.F.);
#1210=ORIENTED_EDGE('',*,*,#337,.F.);
#1211=EDGE_LOOP('',(#1207,#1208,#1209,#1210));
#1212=FACE_OUTER_BOUND('',#1211,.T.);
#1213=ADVANCED_FACE('',(#1212),#1206,.T.);
#1214=CARTESIAN_POINT('',(-0.04226496158416551,0.0025,0.042264961584165525));
#1215=DIRECTION('',(0.7071067811865475,0,-0.7071067811865477));
#1216=DIRECTION('',(0,1,0));
#1217=AXIS2_PLACEMENT_3D('',#1214,#1215,#1216);
#1218=PLANE('',#1217);
#1219=ORIENTED_EDGE('',*,*,#362,.T.);
#1220=ORIENTED_EDGE('',*,*,#367,.T.);
#1221=ORIENTED_EDGE('',*,*,#372,.F.);
#1222=ORIENTED_EDGE('',*,*,#352,.F.);
#1223=EDGE_LOOP('',(#1219,#1220,#1221,#1222));
#1224=FACE_OUTER_BOUND('',#1223,.T.);
#1225=ADVANCED_FACE('',(#1224),#1218,.T.);
#1226=CARTESIAN_POINT('',(-0.04896209540710249,0.0025,0.03428362829059618));
#1227=DIRECTION('',(0.8191520442889916,0,-0.5735764363510464));
#1228=DIRECTION('',(0,1,0));
#1229=AXIS2_PLACEMENT_3D('',#1226,#1227,#1228);
#1230=PLANE('',#1229);
#1231=ORIENTED_EDGE('',*,*,#377,.T.);
#1232=ORIENTED_EDGE('',*,*,#382,.T.);
#1233=ORIENTED_EDGE('',*,*,#387,.F.);
#1234=ORIENTED_EDGE('',*,*,#367,.F.);
#1235=EDGE_LOOP('',(#1231,#1232,#1233,#1234));
#1236=FACE_OUTER_BOUND('',#1235,.T.);
#1237=ADVANCED_FACE('',(#1236),#1230,.T.);
#1238=CARTESIAN_POINT('',(-0.054171540737110405,0.0025,0.025260604299770062));
#1239=DIRECTION('',(0.90630778703665,0,-0.4226182617406993));
#1240=DIRECTION('',(0,1,0));
#1241=AXIS2_PLACEMENT_3D('',#1238,#1239,#1240);
#1242=PLANE('',#1241);
#1243=ORIENTED_EDGE('',*,*,#392,.T.);
#1244=ORIENTED_EDGE('',*,*,#397,.T.);
#1245=ORIENTED_EDGE('',*,*,#402,.F.);
#1246=ORIENTED_EDGE('',*,*,#382,.F.);
#1247=EDGE_LOOP('',(#1243,#1244,#1245,#1246));
#1248=FACE_OUTER_BOUND('',#1247,.T.);
#1249=ADVANCED_FACE('',(#1248),#1242,.T.);
#1250=CARTESIAN_POINT('',(-0.05773501121394349,0.0025,0.015470049629777986));
#1251=DIRECTION('',(0.9659258262890682,0,-0.258819045102521));
#1252=DIRECTION('',(0,1,0));
#1253=AXIS2_PLACEMENT_3D('',#1250,#1251,#1252);
#1254=PLANE('',#1253);
#1255=ORIENTED_EDGE('',*,*,#407,.T.);
#1256=ORIENTED_EDGE('',*,*,#412,.T.);
#1257=ORIENTED_EDGE('',*,*,#417,.F.);
#1258=ORIENTED_EDGE('',*,*,#397,.F.);
#1259=EDGE_LOOP('',(#1255,#1256,#1257,#1258));
#1260=FACE_OUTER_BOUND('',#1259,.T.);
#1261=ADVANCED_FACE('',(#1260),#1254,.T.);
#1262=CARTESIAN_POINT('',(-0.05954423259036623,0.0025,0.005209445330007924));
#1263=DIRECTION('',(0.9961946980917455,0,-0.08715574274765846));
#1264=DIRECTION('',(0,1,0));
#1265=AXIS2_PLACEMENT_3D('',#1262,#1263,#1264);
#1266=PLANE('',#1265);
#1267=ORIENTED_EDGE('',*,*,#422,.T.);
#1268=ORIENTED_EDGE('',*,*,#427,.T.);
#1269=ORIENTED_EDGE('',*,*,#432,.F.);
#1270=ORIENTED_EDGE('',*,*,#412,.F.);
#1271=EDGE_LOOP('',(#1267,#1268,#1269,#1270));
#1272=FACE_OUTER_BOUND('',#1271,.T.);
#1273=ADVANCED_FACE('',(#1272),#1266,.T.);
#1274=CARTESIAN_POINT('',(-0.05954423259036624,0.0025,-0.005209445330007911));
#1275=DIRECTION('',(0.9961946980917455,0,0.08715574274765843));
#1276=DIRECTION('',(0,1,0));
#1277=AXIS2_PLACEMENT_3D('',#1274,#1275,#1276);
#1278=PLANE('',#1277);
#1279=ORIENTED_EDGE('',*,*,#437,.T.);
#1280=ORIENTED_EDGE('',*,*,#442,.T.);
#1281=ORIENTED_EDGE('',*,*,#447,.F.);
#1282=ORIENTED_EDGE('',*,*,#427,.F.);
#1283=EDGE_LOOP('',(#1279,#1280,#1281,#1282));
#1284=FACE_OUTER_BOUND('',#1283,.T.);
#1285=ADVANCED_FACE('',(#1284),#1278,.T.);
#1286=CARTESIAN_POINT('',(-0.05773501121394349,0.0025,-0.015470049629777972));
#1287=DIRECTION('',(0.9659258262890684,0,0.2588190451025205));
#1288=DIRECTION('',(0,1,0));
#1289=AXIS2_PLACEMENT_3D('',#1286,#1287,#1288);
#1290=PLANE('',#1289);
#1291=ORIENTED_EDGE('',*,*,#452,.T.);
#1292=ORIENTED_EDGE('',*,*,#457,.T.);
#1293=ORIENTED_EDGE('',*,*,#462,.F.);
#1294=ORIENTED_EDGE('',*,*,#442,.F.);
#1295=EDGE_LOOP('',(#1291,#1292,#1293,#1294));
#1296=FACE_OUTER_BOUND('',#1295,.T.);
#1297=ADVANCED_FACE('',(#1296),#1290,.T.);
#1298=CARTESIAN_POINT('',(-0.054171540737110405,0.0025,-0.025260604299770062));
#1299=DIRECTION('',(0.9063077870366499,0,0.4226182617406995));
#1300=DIRECTION('',(0,1,0));
#1301=AXIS2_PLACEMENT_3D('',#1298,#1299,#1300);
#1302=PLANE('',#1301);
#1303=ORIENTED_EDGE('',*,*,#467,.T.);
#1304=ORIENTED_EDGE('',*,*,#472,.T.);
#1305=ORIENTED_EDGE('',*,*,#477,.F.);
#1306=ORIENTED_EDGE('',*,*,#457,.F.);
#1307=EDGE_LOOP('',(#1303,#1304,#1305,#1306));
#1308=FACE_OUTER_BOUND('',#1307,.T.);
#1309=ADVANCED_FACE('',(#1308),#1302,.T.);
#1310=CARTESIAN_POINT('',(-0.048962095407102495,0.0025,-0.03428362829059618));
#1311=DIRECTION('',(0.8191520442889914,0,0.5735764363510467));
#1312=DIRECTION('',(0,1,0));
#1313=AXIS2_PLACEMENT_3D('',#1310,#1311,#1312);
#1314=PLANE('',#1313);
#1315=ORIENTED_EDGE('',*,*,#482,.T.);
#1316=ORIENTED_EDGE('',*,*,#487,.T.);
#1317=ORIENTED_EDGE('',*,*,#492,.F.);
#1318=ORIENTED_EDGE('',*,*,#472,.F.);
#1319=EDGE_LOOP('',(#1315,#1316,#1317,#1318));
#1320=FACE_OUTER_BOUND('',#1319,.T.);
#1321=ADVANCED_FACE('',(#1320),#1314,.T.);
#1322=CARTESIAN_POINT('',(-0.042264961584165525,0.0025,-0.04226496158416551));
#1323=DIRECTION('',(0.707106781186548,0,0.7071067811865471));
#1324=DIRECTION('',(0,1,0));
#1325=AXIS2_PLACEMENT_3D('',#1322,#1323,#1324);
#1326=PLANE('',#1325);
#1327=ORIENTED_EDGE('',*,*,#497,.T.);
#1328=ORIENTED_EDGE('',*,*,#502,.T.);
#1329=ORIENTED_EDGE('',*,*,#507,.F.);
#1330=ORIENTED_EDGE('',*,*,#487,.F.);
#1331=EDGE_LOOP('',(#1327,#1328,#1329,#1330));
#1332=FACE_OUTER_BOUND('',#1331,.T.);
#1333=ADVANCED_FACE('',(#1332),#1326,.T.);
#1334=CARTESIAN_POINT('',(-0.034283628290596196,0.0025,-0.04896209540710249));
#1335=DIRECTION('',(0.5735764363510466,0,0.8191520442889914));
#1336=DIRECTION('',(0,1,0));
#1337=AXIS2_PLACEMENT_3D('',#1334,#1335,#1336);
#1338=PLANE('',#1337);
#1339=ORIENTED_EDGE('',*,*,#512,.T.);
#1340=ORIENTED_EDGE('',*,*,#517,.T.);
#1341=ORIENTED_EDGE('',*,*,#522,.F.);
#1342=ORIENTED_EDGE('',*,*,#502,.F.);
#1343=EDGE_LOOP('',(#1339,#1340,#1341,#1342));
#1344=FACE_OUTER_BOUND('',#1343,.T.);
#1345=ADVANCED_FACE('',(#1344),#1338,.T.);
#1346=CARTESIAN_POINT('',(-0.025260604299770097,0.0025,-0.05417154073711039));
#1347=DIRECTION('',(0.42261826174070055,0,0.9063077870366495));
#1348=DIRECTION('',(1,0,0));
#1349=AXIS2_PLACEMENT_3D('',#1346,#1347,#1348);
#1350=PLANE('',#1349);
#1351=ORIENTED_EDGE('',*,*,#527,.T.);
#1352=ORIENTED_EDGE('',*,*,#532,.T.);
#1353=ORIENTED_EDGE('',*,*,#537,.F.);
#1354=ORIENTED_EDGE('',*,*,#517,.F.);
#1355=EDGE_LOOP('',(#1351,#1352,#1353,#1354));
#1356=FACE_OUTER_BOUND('',#1355,.T.);
#1357=ADVANCED_FACE('',(#1356),#1350,.T.);
#1358=CARTESIAN_POINT('',(-0.015470049629777993,0.0025,-0.057735011213943484));
#1359=DIRECTION('',(0.2588190451025199,0,0.9659258262890685));
#1360=DIRECTION('',(1,0,0));
#1361=AXIS2_PLACEMENT_3D('',#1358,#1359,#1360);
#1362=PLANE('',#1361);
#1363=ORIENTED_EDGE('',*,*,#542,.T.);
#1364=ORIENTED_EDGE('',*,*,#547,.T.);
#1365=ORIENTED_EDGE('',*,*,#552,.F.);
#1366=ORIENTED_EDGE('',*,*,#532,.F.);
#1367=EDGE_LOOP('',(#1363,#1364,#1365,#1366));
#1368=FACE_OUTER_BOUND('',#1367,.T.);
#1369=ADVANCED_FACE('',(#1368),#1362,.T.);
#1370=CARTESIAN_POINT('',(-0.005209445330007915,0.0025,-0.05954423259036623));
#1371=DIRECTION('',(0.08715574274765844,0,0.9961946980917455));
#1372=DIRECTION('',(1,0,0));
#1373=AXIS2_PLACEMENT_3D('',#1370,#1371,#1372);
#1374=PLANE('',#1373);
#1375=ORIENTED_EDGE('',*,*,#557,.T.);
#1376=ORIENTED_EDGE('',*,*,#562,.T.);
#1377=ORIENTED_EDGE('',*,*,#567,.F.);
#1378=ORIENTED_EDGE('',*,*,#547,.F.);
#1379=EDGE_LOOP('',(#1375,#1376,#1377,#1378));
#1380=FACE_OUTER_BOUND('',#1379,.T.);
#1381=ADVANCED_FACE('',(#1380),#1374,.T.);
#1382=CARTESIAN_POINT('',(0.0052094453300078935,0.0025,-0.059544232590366244));
#1383=DIRECTION('',(-0.08715574274765742,0,0.9961946980917455));
#1384=DIRECTION('',(1,0,0));
#1385=AXIS2_PLACEMENT_3D('',#1382,#1383,#1384);
#1386=PLANE('',#1385);
#1387=ORIENTED_EDGE('',*,*,#572,.T.);
#1388=ORIENTED_EDGE('',*,*,#577,.T.);
#1389=ORIENTED_EDGE('',*,*,#582,.F.);
#1390=ORIENTED_EDGE('',*,*,#562,.F.);
#1391=EDGE_LOOP('',(#1387,#1388,#1389,#1390));
#1392=FACE_OUTER_BOUND('',#1391,.T.);
#1393=ADVANCED_FACE('',(#1392),#1386,.T.);
#1394=CARTESIAN_POINT('',(0.015470049629777969,0.0025,-0.05773501121394349));
#1395=DIRECTION('',(-0.2588190451025209,0,0.9659258262890682));
#1396=DIRECTION('',(1,0,0));
#1397=AXIS2_PLACEMENT_3D('',#1394,#1395,#1396);
#1398=PLANE('',#1397);
#1399=ORIENTED_EDGE('',*,*,#587,.T.);
#1400=ORIENTED_EDGE('',*,*,#592,.T.);
#1401=ORIENTED_EDGE('',*,*,#597,.F.);
#1402=ORIENTED_EDGE('',*,*,#577,.F.);
#1403=EDGE_LOOP('',(#1399,#1400,#1401,#1402));
#1404=FACE_OUTER_BOUND('',#1403,.T.);
#1405=ADVANCED_FACE('',(#1404),#1398,.T.);
#1406=CARTESIAN_POINT('',(0.025260604299770072,0.0025,-0.054171540737110405));
#1407=DIRECTION('',(-0.42261826174069955,0,0.9063077870366499));
#1408=DIRECTION('',(1,0,0));
#1409=AXIS2_PLACEMENT_3D('',#1406,#1407,#1408);
#1410=PLANE('',#1409);
#1411=ORIENTED_EDGE('',*,*,#602,.T.);
#1412=ORIENTED_EDGE('',*,*,#607,.T.);
#1413=ORIENTED_EDGE('',*,*,#612,.F.);
#1414=ORIENTED_EDGE('',*,*,#592,.F.);
#1415=EDGE_LOOP('',(#1411,#1412,#1413,#1414));
#1416=FACE_OUTER_BOUND('',#1415,.T.);
#1417=ADVANCED_FACE('',(#1416),#1410,.T.);
#1418=CARTESIAN_POINT('',(0.03428362829059618,0.0025,-0.0489620954071025));
#1419=DIRECTION('',(-0.573576436351046,0,0.8191520442889919));
#1420=DIRECTION('',(0,-1,0));
#1421=AXIS2_PLACEMENT_3D('',#1418,#1419,#1420);
#1422=PLANE('',#1421);
#1423=ORIENTED_EDGE('',*,*,#617,.T.);
#1424=ORIENTED_EDGE('',*,*,#622,.T.);
#1425=ORIENTED_EDGE('',*,*,#627,.F.);
#1426=ORIENTED_EDGE('',*,*,#607,.F.);
#1427=EDGE_LOOP('',(#1423,#1424,#1425,#1426));
#1428=FACE_OUTER_BOUND('',#1427,.T.);
#1429=ADVANCED_FACE('',(#1428),#1422,.T.);
#1430=CARTESIAN_POINT('',(0.04226496158416551,0.0025,-0.042264961584165525));
#1431=DIRECTION('',(-0.7071067811865477,0,0.7071067811865472));
#1432=DIRECTION('',(0,-1,0));
#1433=AXIS2_PLACEMENT_3D('',#1430,#1431,#1432);
#1434=PLANE('',#1433);
#1435=ORIENTED_EDGE('',*,*,#632,.T.);
#1436=ORIENTED_EDGE('',*,*,#637,.T.);
#1437=ORIENTED_EDGE('',*,*,#642,.F.);
#1438=ORIENTED_EDGE('',*,*,#622,.F.);
#1439=EDGE_LOOP('',(#1435,#1436,#1437,#1438));
#1440=FACE_OUTER_BOUND('',#1439,.T.);
#1441=ADVANCED_FACE('',(#1440),#1434,.T.);
#1442=CARTESIAN_POINT('',(0.04896209540710248,0.0025,-0.034283628290596196));
#1443=DIRECTION('',(-0.8191520442889914,0,0.5735764363510467));
#1444=DIRECTION('',(0,-1,0));
#1445=AXIS2_PLACEMENT_3D('',#1442,#1443,#1444);
#1446=PLANE('',#1445);
#1447=ORIENTED_EDGE('',*,*,#647,.T.);
#1448=ORIENTED_EDGE('',*,*,#652,.T.);
#1449=ORIENTED_EDGE('',*,*,#657,.F.);
#1450=ORIENTED_EDGE('',*,*,#637,.F.);
#1451=EDGE_LOOP('',(#1447,#1448,#1449,#1450));
#1452=FACE_OUTER_BOUND('',#1451,.T.);
#1453=ADVANCED_FACE('',(#1452),#1446,.T.);
#1454=CARTESIAN_POINT('',(0.05417154073711039,0.0025,-0.025260604299770097));
#1455=DIRECTION('',(-0.9063077870366497,0,0.42261826174069994));
#1456=DIRECTION('',(0,-1,0));
#1457=AXIS2_PLACEMENT_3D('',#1454,#1455,#1456);
#1458=PLANE('',#1457);
#1459=ORIENTED_EDGE('',*,*,#662,.T.);
#1460=ORIENTED_EDGE('',*,*,#667,.T.);
#1461=ORIENTED_EDGE('',*,*,#672,.F.);
#1462=ORIENTED_EDGE('',*,*,#652,.F.);
#1463=EDGE_LOOP('',(#1459,#1460,#1461,#1462));
#1464=FACE_OUTER_BOUND('',#1463,.T.);
#1465=ADVANCED_FACE('',(#1464),#1458,.T.);
#1466=CARTESIAN_POINT('',(0.05773501121394348,0.0025,-0.015470049629777995));
#1467=DIRECTION('',(-0.9659258262890681,0,0.258819045102521));
#1468=DIRECTION('',(0,-1,0));
#1469=AXIS2_PLACEMENT_3D('',#1466,#1467,#1468);
#1470=PLANE('',#1469);
#1471=ORIENTED_EDGE('',*,*,#677,.T.);
#1472=ORIENTED_EDGE('',*,*,#682,.T.);
#1473=ORIENTED_EDGE('',*,*,#687,.F.);
#1474=ORIENTED_EDGE('',*,*,#667,.F.);
#1475=EDGE_LOOP('',(#1471,#1472,#1473,#1474));
#1476=FACE_OUTER_BOUND('',#1475,.T.);
#1477=ADVANCED_FACE('',(#1476),#1470,.T.);
#1478=CARTESIAN_POINT('',(0.05954423259036623,0.0025,-0.005209445330007912));
#1479=DIRECTION('',(-0.9961946980917455,0,0.08715574274765854));
#1480=DIRECTION('',(0,-1,0));
#1481=AXIS2_PLACEMENT_3D('',#1478,#1479,#1480);
#1482=PLANE('',#1481);
#1483=ORIENTED_EDGE('',*,*,#692,.T.);
#1484=ORIENTED_EDGE('',*,*,#177,.T.);
#1485=ORIENTED_EDGE('',*,*,#697,.F.);
#1486=ORIENTED_EDGE('',*,*,#682,.F.);
#1487=EDGE_LOOP('',(#1483,#1484,#1485,#1486));
#1488=FACE_OUTER_BOUND('',#1487,.T.);
#1489=ADVANCED_FACE('',(#1488),#1482,.T.);
#1490=CARTESIAN_POINT('',(0.03969615506024416,0,0.0034729635533386066));
#1491=DIRECTION('',(0,-1,0));
#1492=DIRECTION('',(1,0,0));
#1493=AXIS2_PLACEMENT_3D('',#1490,#1491,#1492);
#1494=PLANE('',#1493);
#1495=ORIENTED_EDGE('',*,*,#702,.T.);
#1496=ORIENTED_EDGE('',*,*,#162,.T.);
#1497=ORIENTED_EDGE('',*,*,#707,.F.);
#1498=EDGE_LOOP('',(#1495,#1496,#1497));
#1499=FACE_OUTER_BOUND('',#1498,.T.);
#1500=ADVANCED_FACE('',(#1499),#1494,.T.);
#1501=CARTESIAN_POINT('',(0.038490007475962325,0,0.01031336641985198));
#1502=DIRECTION('',(0,-1,0));
#1503=DIRECTION('',(1,0,0));
#1504=AXIS2_PLACEMENT_3D('',#1501,#1502,#1503);
#1505=PLANE('',#1504);
#1506=ORIENTED_EDGE('',*,*,#707,.T.);
#1507=ORIENTED_EDGE('',*,*,#182,.T.);
#1508=ORIENTED_EDGE('',*,*,#712,.F.);
#1509=EDGE_LOOP('',(#1506,#1507,#1508));
#1510=FACE_OUTER_BOUND('',#1509,.T.);
#1511=ADVANCED_FACE('',(#1510),#1505,.T.);
#1512=CARTESIAN_POINT('',(0.03611436049140694,0,0.016840402866513372));
#1513=DIRECTION('',(0,-1,0));
#1514=DIRECTION('',(1,0,0));
#1515=AXIS2_PLACEMENT_3D('',#1512,#1513,#1514);
#1516=PLANE('',#1515);
#1517=ORIENTED_EDGE('',*,*,#712,.T.);
#1518=ORIENTED_EDGE('',*,*,#197,.T.);
#1519=ORIENTED_EDGE('',*,*,#717,.F.);
#1520=EDGE_LOOP('',(#1517,#1518,#1519));
#1521=FACE_OUTER_BOUND('',#1520,.T.);
#1522=ADVANCED_FACE('',(#1521),#1516,.T.);
#1523=CARTESIAN_POINT('',(0.032641396938068334,0,0.022855752193730785));
#1524=DIRECTION('',(0,-1,0));
#1525=DIRECTION('',(1,0,0));
#1526=AXIS2_PLACEMENT_3D('',#1523,#1524,#1525);
#1527=PLANE('',#1526);
#1528=ORIENTED_EDGE('',*,*,#717,.T.);
#1529=ORIENTED_EDGE('',*,*,#212,.T.);
#1530=ORIENTED_EDGE('',*,*,#722,.F.);
#1531=EDGE_LOOP('',(#1528,#1529,#1530));
#1532=FACE_OUTER_BOUND('',#1531,.T.);
#1533=ADVANCED_FACE('',(#1532),#1527,.T.);
#1534=CARTESIAN_POINT('',(0.028176641056110344,0,0.02817664105611034));
#1535=DIRECTION('',(0,-1,0));
#1536=DIRECTION('',(1,0,0));
#1537=AXIS2_PLACEMENT_3D('',#1534,#1535,#1536);
#1538=PLANE('',#1537);
#1539=ORIENTED_EDGE('',*,*,#722,.T.);
#1540=ORIENTED_EDGE('',*,*,#227,.T.);
#1541=ORIENTED_EDGE('',*,*,#727,.F.);
#1542=EDGE_LOOP('',(#1539,#1540,#1541));
#1543=FACE_OUTER_BOUND('',#1542,.T.);
#1544=ADVANCED_FACE('',(#1543),#1538,.T.);
#1545=CARTESIAN_POINT('',(0.02285575219373079,0,0.03264139693806833));
#1546=DIRECTION('',(0,-1,0));
#1547=DIRECTION('',(1,0,0));
#1548=AXIS2_PLACEMENT_3D('',#1545,#1546,#1547);
#1549=PLANE('',#1548);
#1550=ORIENTED_EDGE('',*,*,#727,.T.);
#1551=ORIENTED_EDGE('',*,*,#242,.T.);
#1552=ORIENTED_EDGE('',*,*,#732,.F.);
#1553=EDGE_LOOP('',(#1550,#1551,#1552));
#1554=FACE_OUTER_BOUND('',#1553,.T.);
#1555=ADVANCED_FACE('',(#1554),#1549,.T.);
#1556=CARTESIAN_POINT('',(0.01684040286651338,0,0.036114360491406934));
#1557=DIRECTION('',(0,-1,0));
#1558=DIRECTION('',(1,0,0));
#1559=AXIS2_PLACEMENT_3D('',#1556,#1557,#1558);
#1560=PLANE('',#1559);
#1561=ORIENTED_EDGE('',*,*,#732,.T.);
#1562=ORIENTED_EDGE('',*,*,#257,.T.);
#1563=ORIENTED_EDGE('',*,*,#737,.F.);
#1564=EDGE_LOOP('',(#1561,#1562,#1563));
#1565=FACE_OUTER_BOUND('',#1564,.T.);
#1566=ADVANCED_FACE('',(#1565),#1560,.T.);
#1567=CARTESIAN_POINT('',(0.010313366419851984,0,0.038490007475962325));
#1568=DIRECTION('',(0,-1,0));
#1569=DIRECTION('',(1,0,0));
#1570=AXIS2_PLACEMENT_3D('',#1567,#1568,#1569);
#1571=PLANE('',#1570);
#1572=ORIENTED_EDGE('',*,*,#737,.T.);
#1573=ORIENTED_EDGE('',*,*,#272,.T.);
#1574=ORIENTED_EDGE('',*,*,#742,.F.);
#1575=EDGE_LOOP('',(#1572,#1573,#1574));
#1576=FACE_OUTER_BOUND('',#1575,.T.);
#1577=ADVANCED_FACE('',(#1576),#1571,.T.);
#1578=CARTESIAN_POINT('',(0.0034729635533386097,0,0.03969615506024416));
#1579=DIRECTION('',(0,-1,0));
#1580=DIRECTION('',(1,0,0));
#1581=AXIS2_PLACEMENT_3D('',#1578,#1579,#1580);
#1582=PLANE('',#1581);
#1583=ORIENTED_EDGE('',*,*,#742,.T.);
#1584=ORIENTED_EDGE('',*,*,#287,.T.);
#1585=ORIENTED_EDGE('',*,*,#747,.F.);
#1586=EDGE_LOOP('',(#1583,#1584,#1585));
#1587=FACE_OUTER_BOUND('',#1586,.T.);
#1588=ADVANCED_FACE('',(#1587),#1582,.T.);
#1589=CARTESIAN_POINT('',(-0.003472963553338605,0,0.03969615506024416));
#1590=DIRECTION('',(0,-1,0));
#1591=DIRECTION('',(1,0,0));
#1592=AXIS2_PLACEMENT_3D('',#1589,#1590,#1591);
#1593=PLANE('',#1592);
#1594=ORIENTED_EDGE('',*,*,#747,.T.);
#1595=ORIENTED_EDGE('',*,*,#302,.T.);
#1596=ORIENTED_EDGE('',*,*,#752,.F.);
#1597=EDGE_LOOP('',(#1594,#1595,#1596));
#1598=FACE_OUTER_BOUND('',#1597,.T.);
#1599=ADVANCED_FACE('',(#1598),#1593,.T.);
#1600=CARTESIAN_POINT('',(-0.010313366419851979,0,0.038490007475962325));
#1601=DIRECTION('',(0,-1,0));
#1602=DIRECTION('',(1,0,0));
#1603=AXIS2_PLACEMENT_3D('',#1600,#1601,#1602);
#1604=PLANE('',#1603);
#1605=ORIENTED_EDGE('',*,*,#752,.T.);
#1606=ORIENTED_EDGE('',*,*,#317,.T.);
#1607=ORIENTED_EDGE('',*,*,#757,.F.);
#1608=EDGE_LOOP('',(#1605,#1606,#1607));
#1609=FACE_OUTER_BOUND('',#1608,.T.);
#1610=ADVANCED_FACE('',(#1609),#1604,.T.);
#1611=CARTESIAN_POINT('',(-0.01684040286651337,0,0.03611436049140694));
#1612=DIRECTION('',(0,-1,0));
#1613=DIRECTION('',(1,0,0));
#1614=AXIS2_PLACEMENT_3D('',#1611,#1612,#1613);
#1615=PLANE('',#1614);
#1616=ORIENTED_EDGE('',*,*,#757,.T.);
#1617=ORIENTED_EDGE('',*,*,#332,.T.);
#1618=ORIENTED_EDGE('',*,*,#762,.F.);
#1619=EDGE_LOOP('',(#1616,#1617,#1618));
#1620=FACE_OUTER_BOUND('',#1619,.T.);
#1621=ADVANCED_FACE('',(#1620),#1615,.T.);
#1622=CARTESIAN_POINT('',(-0.022855752193730778,0,0.032641396938068334));
#1623=DIRECTION('',(0,-1,0));
#1624=DIRECTION('',(1,0,0));
#1625=AXIS2_PLACEMENT_3D('',#1622,#1623,#1624);
#1626=PLANE('',#1625);
#1627=ORIENTED_EDGE('',*,*,#762,.T.);
#1628=ORIENTED_EDGE('',*,*,#347,.T.);
#1629=ORIENTED_EDGE('',*,*,#767,.F.);
#1630=EDGE_LOOP('',(#1627,#1628,#1629));
#1631=FACE_OUTER_BOUND('',#1630,.T.);
#1632=ADVANCED_FACE('',(#1631),#1626,.T.);
#1633=CARTESIAN_POINT('',(-0.02817664105611034,0,0.02817664105611035));
#1634=DIRECTION('',(0,-1,0));
#1635=DIRECTION('',(1,0,0));
#1636=AXIS2_PLACEMENT_3D('',#1633,#1634,#1635);
#1637=PLANE('',#1636);
#1638=ORIENTED_EDGE('',*,*,#767,.T.);
#1639=ORIENTED_EDGE('',*,*,#362,.T.);
#1640=ORIENTED_EDGE('',*,*,#772,.F.);
#1641=EDGE_LOOP('',(#1638,#1639,#1640));
#1642=FACE_OUTER_BOUND('',#1641,.T.);
#1643=ADVANCED_FACE('',(#1642),#1637,.T.);
#1644=CARTESIAN_POINT('',(-0.03264139693806833,0,0.02285575219373079));
#1645=DIRECTION('',(0,-1,0));
#1646=DIRECTION('',(1,0,0));
#1647=AXIS2_PLACEMENT_3D('',#1644,#1645,#1646);
#1648=PLANE('',#1647);
#1649=ORIENTED_EDGE('',*,*,#772,.T.);
#1650=ORIENTED_EDGE('',*,*,#377,.T.);
#1651=ORIENTED_EDGE('',*,*,#777,.F.);
#1652=EDGE_LOOP('',(#1649,#1650,#1651));
#1653=FACE_OUTER_BOUND('',#1652,.T.);
#1654=ADVANCED_FACE('',(#1653),#1648,.T.);
#1655=CARTESIAN_POINT('',(-0.036114360491406934,0,0.016840402866513376));
#1656=DIRECTION('',(0,-1,0));
#1657=DIRECTION('',(1,0,0));
#1658=AXIS2_PLACEMENT_3D('',#1655,#1656,#1657);
#1659=PLANE('',#1658);
#1660=ORIENTED_EDGE('',*,*,#777,.T.);
#1661=ORIENTED_EDGE('',*,*,#392,.T.);
#1662=ORIENTED_EDGE('',*,*,#782,.F.);
#1663=EDGE_LOOP('',(#1660,#1661,#1662));
#1664=FACE_OUTER_BOUND('',#1663,.T.);
#1665=ADVANCED_FACE('',(#1664),#1659,.T.);
#1666=CARTESIAN_POINT('',(-0.038490007475962325,0,0.010313366419851991));
#1667=DIRECTION('',(0,-1,0));
#1668=DIRECTION('',(1,0,0));
#1669=AXIS2_PLACEMENT_3D('',#1666,#1667,#1668);
#1670=PLANE('',#1669);
#1671=ORIENTED_EDGE('',*,*,#782,.T.);
#1672=ORIENTED_EDGE('',*,*,#407,.T.);
#1673=ORIENTED_EDGE('',*,*,#787,.F.);
#1674=EDGE_LOOP('',(#1671,#1672,#1673));
#1675=FACE_OUTER_BOUND('',#1674,.T.);
#1676=ADVANCED_FACE('',(#1675),#1670,.T.);
#1677=CARTESIAN_POINT('',(-0.03969615506024416,0,0.0034729635533386157));
#1678=DIRECTION('',(0,-1,0));
#1679=DIRECTION('',(1,0,0));
#1680=AXIS2_PLACEMENT_3D('',#1677,#1678,#1679);
#1681=PLANE('',#1680);
#1682=ORIENTED_EDGE('',*,*,#787,.T.);
#1683=ORIENTED_EDGE('',*,*,#422,.T.);
#1684=ORIENTED_EDGE('',*,*,#792,.F.);
#1685=EDGE_LOOP('',(#1682,#1683,#1684));
#1686=FACE_OUTER_BOUND('',#1685,.T.);
#1687=ADVANCED_FACE('',(#1686),#1681,.T.);
#1688=CARTESIAN_POINT('',(-0.03969615506024416,0,-0.003472963553338607));
#1689=DIRECTION('',(0,-1,0));
#1690=DIRECTION('',(1,0,0));
#1691=AXIS2_PLACEMENT_3D('',#1688,#1689,#1690);
#1692=PLANE('',#1691);
#1693=ORIENTED_EDGE('',*,*,#792,.T.);
#1694=ORIENTED_EDGE('',*,*,#437,.T.);
#1695=ORIENTED_EDGE('',*,*,#797,.F.);
#1696=EDGE_LOOP('',(#1693,#1694,#1695));
#1697=FACE_OUTER_BOUND('',#1696,.T.);
#1698=ADVANCED_FACE('',(#1697),#1692,.T.);
#1699=CARTESIAN_POINT('',(-0.038490007475962325,0,-0.010313366419851982));
#1700=DIRECTION('',(0,-1,0));
#1701=DIRECTION('',(1,0,0));
#1702=AXIS2_PLACEMENT_3D('',#1699,#1700,#1701);
#1703=PLANE('',#1702);
#1704=ORIENTED_EDGE('',*,*,#797,.T.);
#1705=ORIENTED_EDGE('',*,*,#452,.T.);
#1706=ORIENTED_EDGE('',*,*,#802,.F.);
#1707=EDGE_LOOP('',(#1704,#1705,#1706));
#1708=FACE_OUTER_BOUND('',#1707,.T.);
#1709=ADVANCED_FACE('',(#1708),#1703,.T.);
#1710=CARTESIAN_POINT('',(-0.036114360491406934,0,-0.016840402866513376));
#1711=DIRECTION('',(0,-1,0));
#1712=DIRECTION('',(1,0,0));
#1713=AXIS2_PLACEMENT_3D('',#1710,#1711,#1712);
#1714=PLANE('',#1713);
#1715=ORIENTED_EDGE('',*,*,#802,.T.);
#1716=ORIENTED_EDGE('',*,*,#467,.T.);
#1717=ORIENTED_EDGE('',*,*,#807,.F.);
#1718=EDGE_LOOP('',(#1715,#1716,#1717));
#1719=FACE_OUTER_BOUND('',#1718,.T.);
#1720=ADVANCED_FACE('',(#1719),#1714,.T.);
#1721=CARTESIAN_POINT('',(-0.03264139693806833,0,-0.02285575219373079));
#1722=DIRECTION('',(0,-1,0));
#1723=DIRECTION('',(1,0,0));
#1724=AXIS2_PLACEMENT_3D('',#1721,#1722,#1723);
#1725=PLANE('',#1724);
#1726=ORIENTED_EDGE('',*,*,#807,.T.);
#1727=ORIENTED_EDGE('',*,*,#482,.T.);
#1728=ORIENTED_EDGE('',*,*,#812,.F.);
#1729=EDGE_LOOP('',(#1726,#1727,#1728));
#1730=FACE_OUTER_BOUND('',#1729,.T.);
#1731=ADVANCED_FACE('',(#1730),#1725,.T.);
#1732=CARTESIAN_POINT('',(-0.02817664105611035,0,-0.02817664105611034));
#1733=DIRECTION('',(0,-1,0));
#1734=DIRECTION('',(1,0,0));
#1735=AXIS2_PLACEMENT_3D('',#1732,#1733,#1734);
#1736=PLANE('',#1735);
#1737=ORIENTED_EDGE('',*,*,#812,.T.);
#1738=ORIENTED_EDGE('',*,*,#497,.T.);
#1739=ORIENTED_EDGE('',*,*,#817,.F.);
#1740=EDGE_LOOP('',(#1737,#1738,#1739));
#1741=FACE_OUTER_BOUND('',#1740,.T.);
#1742=ADVANCED_FACE('',(#1741),#1736,.T.);
#1743=CARTESIAN_POINT('',(-0.0228557521937308,0,-0.03264139693806833));
#1744=DIRECTION('',(0,-1,0));
#1745=DIRECTION('',(1,0,0));
#1746=AXIS2_PLACEMENT_3D('',#1743,#1744,#1745);
#1747=PLANE('',#1746);
#1748=ORIENTED_EDGE('',*,*,#817,.T.);
#1749=ORIENTED_EDGE('',*,*,#512,.T.);
#1750=ORIENTED_EDGE('',*,*,#822,.F.);
#1751=EDGE_LOOP('',(#1748,#1749,#1750));
#1752=FACE_OUTER_BOUND('',#1751,.T.);
#1753=ADVANCED_FACE('',(#1752),#1747,.T.);
#1754=CARTESIAN_POINT('',(-0.016840402866513397,0,-0.03611436049140693));
#1755=DIRECTION('',(0,-1,0));
#1756=DIRECTION('',(1,0,0));
#1757=AXIS2_PLACEMENT_3D('',#1754,#1755,#1756);
#1758=PLANE('',#1757);
#1759=ORIENTED_EDGE('',*,*,#822,.T.);
#1760=ORIENTED_EDGE('',*,*,#527,.T.);
#1761=ORIENTED_EDGE('',*,*,#827,.F.);
#1762=EDGE_LOOP('',(#1759,#1760,#1761));
#1763=FACE_OUTER_BOUND('',#1762,.T.);
#1764=ADVANCED_FACE('',(#1763),#1758,.T.);
#1765=CARTESIAN_POINT('',(-0.010313366419851994,0,-0.038490007475962325));
#1766=DIRECTION('',(0,-1,0));
#1767=DIRECTION('',(1,0,0));
#1768=AXIS2_PLACEMENT_3D('',#1765,#1766,#1767);
#1769=PLANE('',#1768);
#1770=ORIENTED_EDGE('',*,*,#827,.T.);
#1771=ORIENTED_EDGE('',*,*,#542,.T.);
#1772=ORIENTED_EDGE('',*,*,#832,.F.);
#1773=EDGE_LOOP('',(#1770,#1771,#1772));
#1774=FACE_OUTER_BOUND('',#1773,.T.);
#1775=ADVANCED_FACE('',(#1774),#1769,.T.);
#1776=CARTESIAN_POINT('',(-0.00347296355333861,0,-0.03969615506024416));
#1777=DIRECTION('',(0,-1,0));
#1778=DIRECTION('',(1,0,0));
#1779=AXIS2_PLACEMENT_3D('',#1776,#1777,#1778);
#1780=PLANE('',#1779);
#1781=ORIENTED_EDGE('',*,*,#832,.T.);
#1782=ORIENTED_EDGE('',*,*,#557,.T.);
#1783=ORIENTED_EDGE('',*,*,#837,.F.);
#1784=EDGE_LOOP('',(#1781,#1782,#1783));
#1785=FACE_OUTER_BOUND('',#1784,.T.);
#1786=ADVANCED_FACE('',(#1785),#1780,.T.);
#1787=CARTESIAN_POINT('',(0.0034729635533385958,0,-0.03969615506024416));
#1788=DIRECTION('',(0,-1,0));
#1789=DIRECTION('',(1,0,0));
#1790=AXIS2_PLACEMENT_3D('',#1787,#1788,#1789);
#1791=PLANE('',#1790);
#1792=ORIENTED_EDGE('',*,*,#837,.T.);
#1793=ORIENTED_EDGE('',*,*,#572,.T.);
#1794=ORIENTED_EDGE('',*,*,#842,.F.);
#1795=EDGE_LOOP('',(#1792,#1793,#1794));
#1796=FACE_OUTER_BOUND('',#1795,.T.);
#1797=ADVANCED_FACE('',(#1796),#1791,.T.);
#1798=CARTESIAN_POINT('',(0.010313366419851979,0,-0.038490007475962325));
#1799=DIRECTION('',(0,-1,0));
#1800=DIRECTION('',(1,0,0));
#1801=AXIS2_PLACEMENT_3D('',#1798,#1799,#1800);
#1802=PLANE('',#1801);
#1803=ORIENTED_EDGE('',*,*,#842,.T.);
#1804=ORIENTED_EDGE('',*,*,#587,.T.);
#1805=ORIENTED_EDGE('',*,*,#847,.F.);
#1806=EDGE_LOOP('',(#1803,#1804,#1805));
#1807=FACE_OUTER_BOUND('',#1806,.T.);
#1808=ADVANCED_FACE('',(#1807),#1802,.T.);
#1809=CARTESIAN_POINT('',(0.016840402866513383,0,-0.036114360491406934));
#1810=DIRECTION('',(0,-1,0));
#1811=DIRECTION('',(1,0,0));
#1812=AXIS2_PLACEMENT_3D('',#1809,#1810,#1811);
#1813=PLANE('',#1812);
#1814=ORIENTED_EDGE('',*,*,#847,.T.);
#1815=ORIENTED_EDGE('',*,*,#602,.T.);
#1816=ORIENTED_EDGE('',*,*,#852,.F.);
#1817=EDGE_LOOP('',(#1814,#1815,#1816));
#1818=FACE_OUTER_BOUND('',#1817,.T.);
#1819=ADVANCED_FACE('',(#1818),#1813,.T.);
#1820=CARTESIAN_POINT('',(0.02285575219373079,0,-0.032641396938068334));
#1821=DIRECTION('',(0,-1,0));
#1822=DIRECTION('',(1,0,0));
#1823=AXIS2_PLACEMENT_3D('',#1820,#1821,#1822);
#1824=PLANE('',#1823);
#1825=ORIENTED_EDGE('',*,*,#852,.T.);
#1826=ORIENTED_EDGE('',*,*,#617,.T.);
#1827=ORIENTED_EDGE('',*,*,#857,.F.);
#1828=EDGE_LOOP('',(#1825,#1826,#1827));
#1829=FACE_OUTER_BOUND('',#1828,.T.);
#1830=ADVANCED_FACE('',(#1829),#1824,.T.);
#1831=CARTESIAN_POINT('',(0.02817664105611034,0,-0.02817664105611035));
#1832=DIRECTION('',(0,-1,0));
#1833=DIRECTION('',(1,0,0));
#1834=AXIS2_PLACEMENT_3D('',#1831,#1832,#1833);
#1835=PLANE('',#1834);
#1836=ORIENTED_EDGE('',*,*,#857,.T.);
#1837=ORIENTED_EDGE('',*,*,#632,.T.);
#1838=ORIENTED_EDGE('',*,*,#862,.F.);
#1839=EDGE_LOOP('',(#1836,#1837,#1838));
#1840=FACE_OUTER_BOUND('',#1839,.T.);
#1841=ADVANCED_FACE('',(#1840),#1835,.T.);
#1842=CARTESIAN_POINT('',(0.03264139693806832,0,-0.0228557521937308));
#1843=DIRECTION('',(0,-1,0));
#1844=DIRECTION('',(1,0,0));
#1845=AXIS2_PLACEMENT_3D('',#1842,#1843,#1844);
#1846=PLANE('',#1845);
#1847=ORIENTED_EDGE('',*,*,#862,.T.);
#1848=ORIENTED_EDGE('',*,*,#647,.T.);
#1849=ORIENTED_EDGE('',*,*,#867,.F.);
#1850=EDGE_LOOP('',(#1847,#1848,#1849));
#1851=FACE_OUTER_BOUND('',#1850,.T.);
#1852=ADVANCED_FACE('',(#1851),#1846,.T.);
#1853=CARTESIAN_POINT('',(0.03611436049140693,0,-0.016840402866513397));
#1854=DIRECTION('',(0,-1,0));
#1855=DIRECTION('',(1,0,0));
#1856=AXIS2_PLACEMENT_3D('',#1853,#1854,#1855);
#1857=PLANE('',#1856);
#1858=ORIENTED_EDGE('',*,*,#867,.T.);
#1859=ORIENTED_EDGE('',*,*,#662,.T.);
#1860=ORIENTED_EDGE('',*,*,#872,.F.);
#1861=EDGE_LOOP('',(#1858,#1859,#1860));
#1862=FACE_OUTER_BOUND('',#1861,.T.);
#1863=ADVANCED_FACE('',(#1862),#1857,.T.);
#1864=CARTESIAN_POINT('',(0.03849000747596232,0,-0.010313366419851996));
#1865=DIRECTION('',(0,-1,0));
#1866=DIRECTION('',(1,0,0));
#1867=AXIS2_PLACEMENT_3D('',#1864,#1865,#1866);
#1868=PLANE('',#1867);
#1869=ORIENTED_EDGE('',*,*,#872,.T.);
#1870=ORIENTED_EDGE('',*,*,#677,.T.);
#1871=ORIENTED_EDGE('',*,*,#877,.F.);
#1872=EDGE_LOOP('',(#1869,#1870,#1871));
#1873=FACE_OUTER_BOUND('',#1872,.T.);
#1874=ADVANCED_FACE('',(#1873),#1868,.T.);
#1875=CARTESIAN_POINT('',(0.03969615506024416,0,-0.003472963553338608));
#1876=DIRECTION('',(0,-1,0));
#1877=DIRECTION('',(1,0,0));
#1878=AXIS2_PLACEMENT_3D('',#1875,#1876,#1877);
#1879=PLANE('',#1878);
#1880=ORIENTED_EDGE('',*,*,#877,.T.);
#1881=ORIENTED_EDGE('',*,*,#692,.T.);
#1882=ORIENTED_EDGE('',*,*,#702,.F.);
#1883=EDGE_LOOP('',(#1880,#1881,#1882));
#1884=FACE_OUTER_BOUND('',#1883,.T.);
#1885=ADVANCED_FACE('',(#1884),#1879,.T.);
#1886=CARTESIAN_POINT('',(0.03969615506024416,0.005,0.0034729635533386066));
#1887=DIRECTION('',(0,-1,0));
#1888=DIRECTION('',(1,0,0));
#1889=AXIS2_PLACEMENT_3D('',#1886,#1887,#1888);
#1890=PLANE('',#1889);
#1891=ORIENTED_EDGE('',*,*,#882,.T.);
#1892=ORIENTED_EDGE('',*,*,#172,.T.);
#1893=ORIENTED_EDGE('',*,*,#887,.F.);
#1894=EDGE_LOOP('',(#1891,#1892,#1893));
#1895=FACE_OUTER_BOUND('',#1894,.T.);
#1896=ADVANCED_FACE('',(#1895),#1890,.T.);
#1897=CARTESIAN_POINT('',(0.038490007475962325,0.005,0.01031336641985198));
#1898=DIRECTION('',(0,-1,0));
#1899=DIRECTION('',(1,0,0));
#1900=AXIS2_PLACEMENT_3D('',#1897,#1898,#1899);
#1901=PLANE('',#1900);
#1902=ORIENTED_EDGE('',*,*,#887,.T.);
#1903=ORIENTED_EDGE('',*,*,#192,.T.);
#1904=ORIENTED_EDGE('',*,*,#892,.F.);
#1905=EDGE_LOOP('',(#1902,#1903,#1904));
#1906=FACE_OUTER_BOUND('',#1905,.T.);
#1907=ADVANCED_FACE('',(#1906),#1901,.T.);
#1908=CARTESIAN_POINT('',(0.03611436049140694,0.005,0.016840402866513372));
#1909=DIRECTION('',(0,-1,0));
#1910=DIRECTION('',(1,0,0));
#1911=AXIS2_PLACEMENT_3D('',#1908,#1909,#1910);
#1912=PLANE('',#1911);
#1913=ORIENTED_EDGE('',*,*,#892,.T.);
#1914=ORIENTED_EDGE('',*,*,#207,.T.);
#1915=ORIENTED_EDGE('',*,*,#897,.F.);
#1916=EDGE_LOOP('',(#1913,#1914,#1915));
#1917=FACE_OUTER_BOUND('',#1916,.T.);
#1918=ADVANCED_FACE('',(#1917),#1912,.T.);
#1919=CARTESIAN_POINT('',(0.032641396938068334,0.005,0.022855752193730785));
#1920=DIRECTION('',(0,-1,-8.671765928707951e-17));
#1921=DIRECTION('',(1,0,0));
#1922=AXIS2_PLACEMENT_3D('',#1919,#1920,#1921);
#1923=PLANE('',#1922);
#1924=ORIENTED_EDGE('',*,*,#897,.T.);
#1925=ORIENTED_EDGE('',*,*,#222,.T.);
#1926=ORIENTED_EDGE('',*,*,#902,.F.);
#1927=EDGE_LOOP('',(#1924,#1925,#1926));
#1928=FACE_OUTER_BOUND('',#1927,.T.);
#1929=ADVANCED_FACE('',(#1928),#1923,.T.);
#1930=CARTESIAN_POINT('',(0.028176641056110344,0.005,0.02817664105611034));
#1931=DIRECTION('',(0,-1,8.671765928707954e-17));
#1932=DIRECTION('',(1,0,0));
#1933=AXIS2_PLACEMENT_3D('',#1930,#1931,#1932);
#1934=PLANE('',#1933);
#1935=ORIENTED_EDGE('',*,*,#902,.T.);
#1936=ORIENTED_EDGE('',*,*,#237,.T.);
#1937=ORIENTED_EDGE('',*,*,#907,.F.);
#1938=EDGE_LOOP('',(#1935,#1936,#1937));
#1939=FACE_OUTER_BOUND('',#1938,.T.);
#1940=ADVANCED_FACE('',(#1939),#1934,.T.);
#1941=CARTESIAN_POINT('',(0.02285575219373079,0.005,0.03264139693806833));
#1942=DIRECTION('',(0,-1,0));
#1943=DIRECTION('',(1,0,0));
#1944=AXIS2_PLACEMENT_3D('',#1941,#1942,#1943);
#1945=PLANE('',#1944);
#1946=ORIENTED_EDGE('',*,*,#907,.T.);
#1947=ORIENTED_EDGE('',*,*,#252,.T.);
#1948=ORIENTED_EDGE('',*,*,#912,.F.);
#1949=EDGE_LOOP('',(#1946,#1947,#1948));
#1950=FACE_OUTER_BOUND('',#1949,.T.);
#1951=ADVANCED_FACE('',(#1950),#1945,.T.);
#1952=CARTESIAN_POINT('',(0.01684040286651338,0.005,0.036114360491406934));
#1953=DIRECTION('',(0,-1,-4.335882964353977e-17));
#1954=DIRECTION('',(1,0,0));
#1955=AXIS2_PLACEMENT_3D('',#1952,#1953,#1954);
#1956=PLANE('',#1955);
#1957=ORIENTED_EDGE('',*,*,#912,.T.);
#1958=ORIENTED_EDGE('',*,*,#267,.T.);
#1959=ORIENTED_EDGE('',*,*,#917,.F.);
#1960=EDGE_LOOP('',(#1957,#1958,#1959));
#1961=FACE_OUTER_BOUND('',#1960,.T.);
#1962=ADVANCED_FACE('',(#1961),#1956,.T.);
#1963=CARTESIAN_POINT('',(0.010313366419851984,0.005,0.038490007475962325));
#1964=DIRECTION('',(0,-1,0));
#1965=DIRECTION('',(1,0,0));
#1966=AXIS2_PLACEMENT_3D('',#1963,#1964,#1965);
#1967=PLANE('',#1966);
#1968=ORIENTED_EDGE('',*,*,#917,.T.);
#1969=ORIENTED_EDGE('',*,*,#282,.T.);
#1970=ORIENTED_EDGE('',*,*,#922,.F.);
#1971=EDGE_LOOP('',(#1968,#1969,#1970));
#1972=FACE_OUTER_BOUND('',#1971,.T.);
#1973=ADVANCED_FACE('',(#1972),#1967,.T.);
#1974=CARTESIAN_POINT('',(0.0034729635533386097,0.005,0.03969615506024416));
#1975=DIRECTION('',(0,-1,-6.26774580525875e-18));
#1976=DIRECTION('',(1,0,0));
#1977=AXIS2_PLACEMENT_3D('',#1974,#1975,#1976);
#1978=PLANE('',#1977);
#1979=ORIENTED_EDGE('',*,*,#922,.T.);
#1980=ORIENTED_EDGE('',*,*,#297,.T.);
#1981=ORIENTED_EDGE('',*,*,#927,.F.);
#1982=EDGE_LOOP('',(#1979,#1980,#1981));
#1983=FACE_OUTER_BOUND('',#1982,.T.);
#1984=ADVANCED_FACE('',(#1983),#1978,.T.);
#1985=CARTESIAN_POINT('',(-0.003472963553338605,0.005,0.03969615506024416));
#1986=DIRECTION('',(0,-1,-2.167941482176988e-17));
#1987=DIRECTION('',(1,0,0));
#1988=AXIS2_PLACEMENT_3D('',#1985,#1986,#1987);
#1989=PLANE('',#1988);
#1990=ORIENTED_EDGE('',*,*,#927,.T.);
#1991=ORIENTED_EDGE('',*,*,#312,.T.);
#1992=ORIENTED_EDGE('',*,*,#932,.F.);
#1993=EDGE_LOOP('',(#1990,#1991,#1992));
#1994=FACE_OUTER_BOUND('',#1993,.T.);
#1995=ADVANCED_FACE('',(#1994),#1989,.T.);
#1996=CARTESIAN_POINT('',(-0.010313366419851979,0.005,0.038490007475962325));
#1997=DIRECTION('',(0,-1,-4.3358829643539775e-17));
#1998=DIRECTION('',(1,0,0));
#1999=AXIS2_PLACEMENT_3D('',#1996,#1997,#1998);
#2000=PLANE('',#1999);
#2001=ORIENTED_EDGE('',*,*,#932,.T.);
#2002=ORIENTED_EDGE('',*,*,#327,.T.);
#2003=ORIENTED_EDGE('',*,*,#937,.F.);
#2004=EDGE_LOOP('',(#2001,#2002,#2003));
#2005=FACE_OUTER_BOUND('',#2004,.T.);
#2006=ADVANCED_FACE('',(#2005),#2000,.T.);
#2007=CARTESIAN_POINT('',(-0.01684040286651337,0.005,0.03611436049140694));
#2008=DIRECTION('',(0,-1,0));
#2009=DIRECTION('',(1,0,0));
#2010=AXIS2_PLACEMENT_3D('',#2007,#2008,#2009);
#2011=PLANE('',#2010);
#2012=ORIENTED_EDGE('',*,*,#937,.T.);
#2013=ORIENTED_EDGE('',*,*,#342,.T.);
#2014=ORIENTED_EDGE('',*,*,#942,.F.);
#2015=EDGE_LOOP('',(#2012,#2013,#2014));
#2016=FACE_OUTER_BOUND('',#2015,.T.);
#2017=ADVANCED_FACE('',(#2016),#2011,.T.);
#2018=CARTESIAN_POINT('',(-0.022855752193730778,0.005,0.032641396938068334));
#2019=DIRECTION('',(0,-1,0));
#2020=DIRECTION('',(1,0,0));
#2021=AXIS2_PLACEMENT_3D('',#2018,#2019,#2020);
#2022=PLANE('',#2021);
#2023=ORIENTED_EDGE('',*,*,#942,.T.);
#2024=ORIENTED_EDGE('',*,*,#357,.T.);
#2025=ORIENTED_EDGE('',*,*,#947,.F.);
#2026=EDGE_LOOP('',(#2023,#2024,#2025));
#2027=FACE_OUTER_BOUND('',#2026,.T.);
#2028=ADVANCED_FACE('',(#2027),#2022,.T.);
#2029=CARTESIAN_POINT('',(-0.02817664105611034,0.005,0.02817664105611035));
#2030=DIRECTION('',(0,-1,0));
#2031=DIRECTION('',(1,0,0));
#2032=AXIS2_PLACEMENT_3D('',#2029,#2030,#2031);
#2033=PLANE('',#2032);
#2034=ORIENTED_EDGE('',*,*,#947,.T.);
#2035=ORIENTED_EDGE('',*,*,#372,.T.);
#2036=ORIENTED_EDGE('',*,*,#952,.F.);
#2037=EDGE_LOOP('',(#2034,#2035,#2036));
#2038=FACE_OUTER_BOUND('',#2037,.T.);
#2039=ADVANCED_FACE('',(#2038),#2033,.T.);
#2040=CARTESIAN_POINT('',(-0.03264139693806833,0.005,0.02285575219373079));
#2041=DIRECTION('',(0,-1,0));
#2042=DIRECTION('',(1,0,0));
#2043=AXIS2_PLACEMENT_3D('',#2040,#2041,#2042);
#2044=PLANE('',#2043);
#2045=ORIENTED_EDGE('',*,*,#952,.T.);
#2046=ORIENTED_EDGE('',*,*,#387,.T.);
#2047=ORIENTED_EDGE('',*,*,#957,.F.);
#2048=EDGE_LOOP('',(#2045,#2046,#2047));
#2049=FACE_OUTER_BOUND('',#2048,.T.);
#2050=ADVANCED_FACE('',(#2049),#2044,.T.);
#2051=CARTESIAN_POINT('',(-0.036114360491406934,0.005,0.016840402866513376));
#2052=DIRECTION('',(0,-1,1.7343531857415932e-16));
#2053=DIRECTION('',(1,0,0));
#2054=AXIS2_PLACEMENT_3D('',#2051,#2052,#2053);
#2055=PLANE('',#2054);
#2056=ORIENTED_EDGE('',*,*,#957,.T.);
#2057=ORIENTED_EDGE('',*,*,#402,.T.);
#2058=ORIENTED_EDGE('',*,*,#962,.F.);
#2059=EDGE_LOOP('',(#2056,#2057,#2058));
#2060=FACE_OUTER_BOUND('',#2059,.T.);
#2061=ADVANCED_FACE('',(#2060),#2055,.T.);
#2062=CARTESIAN_POINT('',(-0.038490007475962325,0.005,0.010313366419851991));
#2063=DIRECTION('',(0,-1,0));
#2064=DIRECTION('',(1,0,0));
#2065=AXIS2_PLACEMENT_3D('',#2062,#2063,#2064);
#2066=PLANE('',#2065);
#2067=ORIENTED_EDGE('',*,*,#962,.T.);
#2068=ORIENTED_EDGE('',*,*,#417,.T.);
#2069=ORIENTED_EDGE('',*,*,#967,.F.);
#2070=EDGE_LOOP('',(#2067,#2068,#2069));
#2071=FACE_OUTER_BOUND('',#2070,.T.);
#2072=ADVANCED_FACE('',(#2071),#2066,.T.);
#2073=CARTESIAN_POINT('',(-0.03969615506024416,0.005,0.0034729635533386157));
#2074=DIRECTION('',(0,-1,0));
#2075=DIRECTION('',(1,0,0));
#2076=AXIS2_PLACEMENT_3D('',#2073,#2074,#2075);
#2077=PLANE('',#2076);
#2078=ORIENTED_EDGE('',*,*,#967,.T.);
#2079=ORIENTED_EDGE('',*,*,#432,.T.);
#2080=ORIENTED_EDGE('',*,*,#972,.F.);
#2081=EDGE_LOOP('',(#2078,#2079,#2080));
#2082=FACE_OUTER_BOUND('',#2081,.T.);
#2083=ADVANCED_FACE('',(#2082),#2077,.T.);
#2084=CARTESIAN_POINT('',(-0.03969615506024416,0.005,-0.003472963553338607));
#2085=DIRECTION('',(0,-1,0));
#2086=DIRECTION('',(1,0,0));
#2087=AXIS2_PLACEMENT_3D('',#2084,#2085,#2086);
#2088=PLANE('',#2087);
#2089=ORIENTED_EDGE('',*,*,#972,.T.);
#2090=ORIENTED_EDGE('',*,*,#447,.T.);
#2091=ORIENTED_EDGE('',*,*,#977,.F.);
#2092=EDGE_LOOP('',(#2089,#2090,#2091));
#2093=FACE_OUTER_BOUND('',#2092,.T.);
#2094=ADVANCED_FACE('',(#2093),#2088,.T.);
#2095=CARTESIAN_POINT('',(-0.038490007475962325,0.005,-0.010313366419851982));
#2096=DIRECTION('',(0,-1,0));
#2097=DIRECTION('',(1,0,0));
#2098=AXIS2_PLACEMENT_3D('',#2095,#2096,#2097);
#2099=PLANE('',#2098);
#2100=ORIENTED_EDGE('',*,*,#977,.T.);
#2101=ORIENTED_EDGE('',*,*,#462,.T.);
#2102=ORIENTED_EDGE('',*,*,#982,.F.);
#2103=EDGE_LOOP('',(#2100,#2101,#2102));
#2104=FACE_OUTER_BOUND('',#2103,.T.);
#2105=ADVANCED_FACE('',(#2104),#2099,.T.);
#2106=CARTESIAN_POINT('',(-0.036114360491406934,0.005,-0.016840402866513376));
#2107=DIRECTION('',(0,-1,0));
#2108=DIRECTION('',(1,0,0));
#2109=AXIS2_PLACEMENT_3D('',#2106,#2107,#2108);
#2110=PLANE('',#2109);
#2111=ORIENTED_EDGE('',*,*,#982,.T.);
#2112=ORIENTED_EDGE('',*,*,#477,.T.);
#2113=ORIENTED_EDGE('',*,*,#987,.F.);
#2114=EDGE_LOOP('',(#2111,#2112,#2113));
#2115=FACE_OUTER_BOUND('',#2114,.T.);
#2116=ADVANCED_FACE('',(#2115),#2110,.T.);
#2117=CARTESIAN_POINT('',(-0.03264139693806833,0.005,-0.02285575219373079));
#2118=DIRECTION('',(0,-1,0));
#2119=DIRECTION('',(1,0,0));
#2120=AXIS2_PLACEMENT_3D('',#2117,#2118,#2119);
#2121=PLANE('',#2120);
#2122=ORIENTED_EDGE('',*,*,#987,.T.);
#2123=ORIENTED_EDGE('',*,*,#492,.T.);
#2124=ORIENTED_EDGE('',*,*,#992,.F.);
#2125=EDGE_LOOP('',(#2122,#2123,#2124));
#2126=FACE_OUTER_BOUND('',#2125,.T.);
#2127=ADVANCED_FACE('',(#2126),#2121,.T.);
#2128=CARTESIAN_POINT('',(-0.02817664105611035,0.005,-0.02817664105611034));
#2129=DIRECTION('',(0,-1,0));
#2130=DIRECTION('',(1,0,0));
#2131=AXIS2_PLACEMENT_3D('',#2128,#2129,#2130);
#2132=PLANE('',#2131);
#2133=ORIENTED_EDGE('',*,*,#992,.T.);
#2134=ORIENTED_EDGE('',*,*,#507,.T.);
#2135=ORIENTED_EDGE('',*,*,#997,.F.);
#2136=EDGE_LOOP('',(#2133,#2134,#2135));
#2137=FACE_OUTER_BOUND('',#2136,.T.);
#2138=ADVANCED_FACE('',(#2137),#2132,.T.);
#2139=CARTESIAN_POINT('',(-0.0228557521937308,0.005,-0.03264139693806833));
#2140=DIRECTION('',(0,-1,-8.671765928707972e-17));
#2141=DIRECTION('',(1,0,0));
#2142=AXIS2_PLACEMENT_3D('',#2139,#2140,#2141);
#2143=PLANE('',#2142);
#2144=ORIENTED_EDGE('',*,*,#997,.T.);
#2145=ORIENTED_EDGE('',*,*,#522,.T.);
#2146=ORIENTED_EDGE('',*,*,#1002,.F.);
#2147=EDGE_LOOP('',(#2144,#2145,#2146));
#2148=FACE_OUTER_BOUND('',#2147,.T.);
#2149=ADVANCED_FACE('',(#2148),#2143,.T.);
#2150=CARTESIAN_POINT('',(-0.016840402866513397,0.005,-0.03611436049140693));
#2151=DIRECTION('',(0,-1,4.33588296435398e-17));
#2152=DIRECTION('',(1,0,0));
#2153=AXIS2_PLACEMENT_3D('',#2150,#2151,#2152);
#2154=PLANE('',#2153);
#2155=ORIENTED_EDGE('',*,*,#1002,.T.);
#2156=ORIENTED_EDGE('',*,*,#537,.T.);
#2157=ORIENTED_EDGE('',*,*,#1007,.F.);
#2158=EDGE_LOOP('',(#2155,#2156,#2157));
#2159=FACE_OUTER_BOUND('',#2158,.T.);
#2160=ADVANCED_FACE('',(#2159),#2154,.T.);
#2161=CARTESIAN_POINT('',(-0.010313366419851994,0.005,-0.038490007475962325));
#2162=DIRECTION('',(0,-1,0));
#2163=DIRECTION('',(1,0,0));
#2164=AXIS2_PLACEMENT_3D('',#2161,#2162,#2163);
#2165=PLANE('',#2164);
#2166=ORIENTED_EDGE('',*,*,#1007,.T.);
#2167=ORIENTED_EDGE('',*,*,#552,.T.);
#2168=ORIENTED_EDGE('',*,*,#1012,.F.);
#2169=EDGE_LOOP('',(#2166,#2167,#2168));
#2170=FACE_OUTER_BOUND('',#2169,.T.);
#2171=ADVANCED_FACE('',(#2170),#2165,.T.);
#2172=CARTESIAN_POINT('',(-0.00347296355333861,0.005,-0.03969615506024416));
#2173=DIRECTION('',(0,-1,-2.8761774059936307e-18));
#2174=DIRECTION('',(1,0,0));
#2175=AXIS2_PLACEMENT_3D('',#2172,#2173,#2174);
#2176=PLANE('',#2175);
#2177=ORIENTED_EDGE('',*,*,#1012,.T.);
#2178=ORIENTED_EDGE('',*,*,#567,.T.);
#2179=ORIENTED_EDGE('',*,*,#1017,.F.);
#2180=EDGE_LOOP('',(#2177,#2178,#2179));
#2181=FACE_OUTER_BOUND('',#2180,.T.);
#2182=ADVANCED_FACE('',(#2181),#2176,.T.);
#2183=CARTESIAN_POINT('',(0.0034729635533385958,0.005,-0.03969615506024416));
#2184=DIRECTION('',(0,-1,0));
#2185=DIRECTION('',(1,0,0));
#2186=AXIS2_PLACEMENT_3D('',#2183,#2184,#2185);
#2187=PLANE('',#2186);
#2188=ORIENTED_EDGE('',*,*,#1017,.T.);
#2189=ORIENTED_EDGE('',*,*,#582,.T.);
#2190=ORIENTED_EDGE('',*,*,#1022,.F.);
#2191=EDGE_LOOP('',(#2188,#2189,#2190));
#2192=FACE_OUTER_BOUND('',#2191,.T.);
#2193=ADVANCED_FACE('',(#2192),#2187,.T.);
#2194=CARTESIAN_POINT('',(0.010313366419851979,0.005,-0.038490007475962325));
#2195=DIRECTION('',(0,-1,0));
#2196=DIRECTION('',(1,0,0));
#2197=AXIS2_PLACEMENT_3D('',#2194,#2195,#2196);
#2198=PLANE('',#2197);
#2199=ORIENTED_EDGE('',*,*,#1022,.T.);
#2200=ORIENTED_EDGE('',*,*,#597,.T.);
#2201=ORIENTED_EDGE('',*,*,#1027,.F.);
#2202=EDGE_LOOP('',(#2199,#2200,#2201));
#2203=FACE_OUTER_BOUND('',#2202,.T.);
#2204=ADVANCED_FACE('',(#2203),#2198,.T.);
#2205=CARTESIAN_POINT('',(0.016840402866513383,0.005,-0.036114360491406934));
#2206=DIRECTION('',(0,-1,0));
#2207=DIRECTION('',(1,0,0));
#2208=AXIS2_PLACEMENT_3D('',#2205,#2206,#2207);
#2209=PLANE('',#2208);
#2210=ORIENTED_EDGE('',*,*,#1027,.T.);
#2211=ORIENTED_EDGE('',*,*,#612,.T.);
#2212=ORIENTED_EDGE('',*,*,#1032,.F.);
#2213=EDGE_LOOP('',(#2210,#2211,#2212));
#2214=FACE_OUTER_BOUND('',#2213,.T.);
#2215=ADVANCED_FACE('',(#2214),#2209,.T.);
#2216=CARTESIAN_POINT('',(0.02285575219373079,0.005,-0.032641396938068334));
#2217=DIRECTION('',(0,-1,-8.671765928707962e-17));
#2218=DIRECTION('',(1,0,0));
#2219=AXIS2_PLACEMENT_3D('',#2216,#2217,#2218);
#2220=PLANE('',#2219);
#2221=ORIENTED_EDGE('',*,*,#1032,.T.);
#2222=ORIENTED_EDGE('',*,*,#627,.T.);
#2223=ORIENTED_EDGE('',*,*,#1037,.F.);
#2224=EDGE_LOOP('',(#2221,#2222,#2223));
#2225=FACE_OUTER_BOUND('',#2224,.T.);
#2226=ADVANCED_FACE('',(#2225),#2220,.T.);
#2227=CARTESIAN_POINT('',(0.02817664105611034,0.005,-0.02817664105611035));
#2228=DIRECTION('',(0,-1,8.671765928707962e-17));
#2229=DIRECTION('',(1,0,0));
#2230=AXIS2_PLACEMENT_3D('',#2227,#2228,#2229);
#2231=PLANE('',#2230);
#2232=ORIENTED_EDGE('',*,*,#1037,.T.);
#2233=ORIENTED_EDGE('',*,*,#642,.T.);
#2234=ORIENTED_EDGE('',*,*,#1042,.F.);
#2235=EDGE_LOOP('',(#2232,#2233,#2234));
#2236=FACE_OUTER_BOUND('',#2235,.T.);
#2237=ADVANCED_FACE('',(#2236),#2231,.T.);
#2238=CARTESIAN_POINT('',(0.03264139693806832,0.005,-0.0228557521937308));
#2239=DIRECTION('',(0,-1,0));
#2240=DIRECTION('',(1,0,0));
#2241=AXIS2_PLACEMENT_3D('',#2238,#2239,#2240);
#2242=PLANE('',#2241);
#2243=ORIENTED_EDGE('',*,*,#1042,.T.);
#2244=ORIENTED_EDGE('',*,*,#657,.T.);
#2245=ORIENTED_EDGE('',*,*,#1047,.F.);
#2246=EDGE_LOOP('',(#2243,#2244,#2245));
#2247=FACE_OUTER_BOUND('',#2246,.T.);
#2248=ADVANCED_FACE('',(#2247),#2242,.T.);
#2249=CARTESIAN_POINT('',(0.03611436049140693,0.005,-0.016840402866513397));
#2250=DIRECTION('',(0,-1,0));
#2251=DIRECTION('',(1,0,0));
#2252=AXIS2_PLACEMENT_3D('',#2249,#2250,#2251);
#2253=PLANE('',#2252);
#2254=ORIENTED_EDGE('',*,*,#1047,.T.);
#2255=ORIENTED_EDGE('',*,*,#672,.T.);
#2256=ORIENTED_EDGE('',*,*,#1052,.F.);
#2257=EDGE_LOOP('',(#2254,#2255,#2256));
#2258=FACE_OUTER_BOUND('',#2257,.T.);
#2259=ADVANCED_FACE('',(#2258),#2253,.T.);
#2260=CARTESIAN_POINT('',(0.03849000747596232,0.005,-0.010313366419851996));
#2261=DIRECTION('',(0,-1,0));
#2262=DIRECTION('',(1,0,0));
#2263=AXIS2_PLACEMENT_3D('',#2260,#2261,#2262);
#2264=PLANE('',#2263);
#2265=ORIENTED_EDGE('',*,*,#1052,.T.);
#2266=ORIENTED_EDGE('',*,*,#687,.T.);
#2267=ORIENTED_EDGE('',*,*,#1057,.F.);
#2268=EDGE_LOOP('',(#2265,#2266,#2267));
#2269=FACE_OUTER_BOUND('',#2268,.T.);
#2270=ADVANCED_FACE('',(#2269),#2264,.T.);
#2271=CARTESIAN_POINT('',(0.03969615506024416,0.005,-0.003472963553338608));
#2272=DIRECTION('',(0,-1,0));
#2273=DIRECTION('',(1,0,0));
#2274=AXIS2_PLACEMENT_3D('',#2271,#2272,#2273);
#2275=PLANE('',#2274);
#2276=ORIENTED_EDGE('',*,*,#1057,.T.);
#2277=ORIENTED_EDGE('',*,*,#697,.T.);
#2278=ORIENTED_EDGE('',*,*,#882,.F.);
#2279=EDGE_LOOP('',(#2276,#2277,#2278));
#2280=FACE_OUTER_BOUND('',#2279,.T.);
#2281=ADVANCED_FACE('',(#2280),#2275,.T.);
#2282=CLOSED_SHELL('',(#1069,#1081,#1093,#1105,#1117,#1129,#1141,#1153,#1165,#1177,#1189,#1201,#1213,#1225,#1237,#1249,#1261,#1273,#1285,#1297,#1309,#1321,#1333,#1345,#1357,#1369,#1381,#1393,#1405,#1417,#1429,#1441,#1453,#1465,#1477,#1489,#1500,#1511,#1522,#1533,#1544,#1555,#1566,#1577,#1588,#1599,#1610,#1621,#1632,#1643,#1654,#1665,#1676,#1687,#1698,#1709,#1720,#1731,#1742,#1753,#1764,#1775,#1786,#1797,#1808,#1819,#1830,#1841,#1852,#1863,#1874,#1885,#1896,#1907,#1918,#1929,#1940,#1951,#1962,#1973,#1984,#1995,#2006,#2017,#2028,#2039,#2050,#2061,#2072,#2083,#2094,#2105,#2116,#2127,#2138,#2149,#2160,#2171,#2182,#2193,#2204,#2215,#2226,#2237,#2248,#2259,#2270,#2281));
#2283=MANIFOLD_SOLID_BREP('',#2282);
#2284=SHAPE_REPRESENTATION('TYV6-CRNK-REL-0001',(#2283),#9);
#2285=SHAPE_DEFINITION_REPRESENTATION(#8,#2284);
ENDSEC;
END-ISO-10303-21;