ISO-10303-21;
HEADER;
FILE_DESCRIPTION(('ArchDisc Geometry Kernel Export'),'2;1');
FILE_NAME('TYV6-FAS-IMB-0012.step','20260509T202406',('ArchDisc'),('ArchDisc Inc'),'ArchDisc Kernel 1.0','ArchDisc','');
FILE_SCHEMA(('AUTOMOTIVE_DESIGN'));
ENDSEC;
DATA;
#1=APPLICATION_CONTEXT('automotive design');
#2=APPLICATION_PROTOCOL_DEFINITION('international standard','automotive_design',2009,#1);
#3=PRODUCT_CONTEXT('',#1,'mechanical');
#4=PRODUCT('TYV6-FAS-IMB-0012','TYV6-FAS-IMB-0012','',(#3));
#5=PRODUCT_DEFINITION_FORMATION('','',#4);
#6=PRODUCT_DEFINITION_CONTEXT('design',#1,'design');
#7=PRODUCT_DEFINITION('design','',#5,#6);
#8=PRODUCT_DEFINITION_SHAPE('','',#7);
#9=(GEOMETRIC_REPRESENTATION_CONTEXT(3) GLOBAL_UNCERTAINTY_ASSIGNED_CONTEXT((#0)) GLOBAL_UNIT_ASSIGNED_CONTEXT((#0,#0,#0)) REPRESENTATION_CONTEXT('Context3D','');
#10=CARTESIAN_POINT('',(0.003,0,0));
#11=VERTEX_POINT('',#10);
#12=CARTESIAN_POINT('',(0.0025980762113533163,0,0.0014999999999999998));
#13=VERTEX_POINT('',#12);
#14=CARTESIAN_POINT('',(0.0025980762113533163,0.04,0.0014999999999999998));
#15=VERTEX_POINT('',#14);
#16=CARTESIAN_POINT('',(0.003,0.04,0));
#17=VERTEX_POINT('',#16);
#18=CARTESIAN_POINT('',(0.0015000000000000005,0,0.002598076211353316));
#19=VERTEX_POINT('',#18);
#20=CARTESIAN_POINT('',(0.0015000000000000005,0.04,0.002598076211353316));
#21=VERTEX_POINT('',#20);
#22=CARTESIAN_POINT('',(1.8369701987210298e-19,0,0.003));
#23=VERTEX_POINT('',#22);
#24=CARTESIAN_POINT('',(1.8369701987210298e-19,0.04,0.003));
#25=VERTEX_POINT('',#24);
#26=CARTESIAN_POINT('',(-0.0014999999999999994,0,0.0025980762113533163));
#27=VERTEX_POINT('',#26);
#28=CARTESIAN_POINT('',(-0.0014999999999999994,0.04,0.0025980762113533163));
#29=VERTEX_POINT('',#28);
#30=CARTESIAN_POINT('',(-0.0025980762113533163,0,0.0014999999999999998));
#31=VERTEX_POINT('',#30);
#32=CARTESIAN_POINT('',(-0.0025980762113533163,0.04,0.0014999999999999998));
#33=VERTEX_POINT('',#32);
#34=CARTESIAN_POINT('',(-0.003,0,3.6739403974420597e-19));
#35=VERTEX_POINT('',#34);
#36=CARTESIAN_POINT('',(-0.003,0.04,3.6739403974420597e-19));
#37=VERTEX_POINT('',#36);
#38=CARTESIAN_POINT('',(-0.002598076211353316,0,-0.0015000000000000005));
#39=VERTEX_POINT('',#38);
#40=CARTESIAN_POINT('',(-0.002598076211353316,0.04,-0.0015000000000000005));
#41=VERTEX_POINT('',#40);
#42=CARTESIAN_POINT('',(-0.0015000000000000013,0,-0.002598076211353315));
#43=VERTEX_POINT('',#42);
#44=CARTESIAN_POINT('',(-0.0015000000000000013,0.04,-0.002598076211353315));
#45=VERTEX_POINT('',#44);
#46=CARTESIAN_POINT('',(-5.510910596163089e-19,0,-0.003));
#47=VERTEX_POINT('',#46);
#48=CARTESIAN_POINT('',(-5.510910596163089e-19,0.04,-0.003));
#49=VERTEX_POINT('',#48);
#50=CARTESIAN_POINT('',(0.0015000000000000005,0,-0.002598076211353316));
#51=VERTEX_POINT('',#50);
#52=CARTESIAN_POINT('',(0.0015000000000000005,0.04,-0.002598076211353316));
#53=VERTEX_POINT('',#52);
#54=CARTESIAN_POINT('',(0.002598076211353315,0,-0.0015000000000000013));
#55=VERTEX_POINT('',#54);
#56=CARTESIAN_POINT('',(0.002598076211353315,0.04,-0.0015000000000000013));
#57=VERTEX_POINT('',#56);
#58=CARTESIAN_POINT('',(0,0,0));
#59=VERTEX_POINT('',#58);
#60=CARTESIAN_POINT('',(0,0.04,0));
#61=VERTEX_POINT('',#60);
#62=CARTESIAN_POINT('',(0.003,0,0));
#63=DIRECTION('',(-0.25881904510252063,0,0.9659258262890683));
#64=VECTOR('',#63,0.0015529142706151244);
#65=LINE('',#62,#64);
#66=EDGE_CURVE('',#11,#13,#65,.T.);
#67=CARTESIAN_POINT('',(0.0025980762113533163,0,0.0014999999999999998));
#68=DIRECTION('',(0,1,0));
#69=VECTOR('',#68,0.04);
#70=LINE('',#67,#69);
#71=EDGE_CURVE('',#13,#15,#70,.T.);
#72=CARTESIAN_POINT('',(0.003,0.04,0));
#73=DIRECTION('',(-0.25881904510252063,0,0.9659258262890683));
#74=VECTOR('',#73,0.0015529142706151244);
#75=LINE('',#72,#74);
#76=EDGE_CURVE('',#17,#15,#75,.T.);
#77=CARTESIAN_POINT('',(0.003,0,0));
#78=DIRECTION('',(0,1,0));
#79=VECTOR('',#78,0.04);
#80=LINE('',#77,#79);
#81=EDGE_CURVE('',#11,#17,#80,.T.);
#82=CARTESIAN_POINT('',(0.0025980762113533163,0,0.0014999999999999998));
#83=DIRECTION('',(-0.7071067811865475,0,0.7071067811865476));
#84=VECTOR('',#83,0.0015529142706151246);
#85=LINE('',#82,#84);
#86=EDGE_CURVE('',#13,#19,#85,.T.);
#87=CARTESIAN_POINT('',(0.0015000000000000005,0,0.002598076211353316));
#88=DIRECTION('',(0,1,0));
#89=VECTOR('',#88,0.04);
#90=LINE('',#87,#89);
#91=EDGE_CURVE('',#19,#21,#90,.T.);
#92=CARTESIAN_POINT('',(0.0025980762113533163,0.04,0.0014999999999999998));
#93=DIRECTION('',(-0.7071067811865475,0,0.7071067811865476));
#94=VECTOR('',#93,0.0015529142706151246);
#95=LINE('',#92,#94);
#96=EDGE_CURVE('',#15,#21,#95,.T.);
#97=CARTESIAN_POINT('',(0.0015000000000000005,0,0.002598076211353316));
#98=DIRECTION('',(-0.9659258262890683,0,0.2588190451025208));
#99=VECTOR('',#98,0.0015529142706151248);
#100=LINE('',#97,#99);
#101=EDGE_CURVE('',#19,#23,#100,.T.);
#102=CARTESIAN_POINT('',(1.8369701987210298e-19,0,0.003));
#103=DIRECTION('',(0,1,0));
#104=VECTOR('',#103,0.04);
#105=LINE('',#102,#104);
#106=EDGE_CURVE('',#23,#25,#105,.T.);
#107=CARTESIAN_POINT('',(0.0015000000000000005,0.04,0.002598076211353316));
#108=DIRECTION('',(-0.9659258262890683,0,0.2588190451025208));
#109=VECTOR('',#108,0.0015529142706151248);
#110=LINE('',#107,#109);
#111=EDGE_CURVE('',#21,#25,#110,.T.);
#112=CARTESIAN_POINT('',(1.8369701987210298e-19,0,0.003));
#113=DIRECTION('',(-0.9659258262890683,0,-0.25881904510252063));
#114=VECTOR('',#113,0.0015529142706151241);
#115=LINE('',#112,#114);
#116=EDGE_CURVE('',#23,#27,#115,.T.);
#117=CARTESIAN_POINT('',(-0.0014999999999999994,0,0.0025980762113533163));
#118=DIRECTION('',(0,1,0));
#119=VECTOR('',#118,0.04);
#120=LINE('',#117,#119);
#121=EDGE_CURVE('',#27,#29,#120,.T.);
#122=CARTESIAN_POINT('',(1.8369701987210298e-19,0.04,0.003));
#123=DIRECTION('',(-0.9659258262890683,0,-0.25881904510252063));
#124=VECTOR('',#123,0.0015529142706151241);
#125=LINE('',#122,#124);
#126=EDGE_CURVE('',#25,#29,#125,.T.);
#127=CARTESIAN_POINT('',(-0.0014999999999999994,0,0.0025980762113533163));
#128=DIRECTION('',(-0.7071067811865477,0,-0.7071067811865474));
#129=VECTOR('',#128,0.0015529142706151257);
#130=LINE('',#127,#129);
#131=EDGE_CURVE('',#27,#31,#130,.T.);
#132=CARTESIAN_POINT('',(-0.0025980762113533163,0,0.0014999999999999998));
#133=DIRECTION('',(0,1,0));
#134=VECTOR('',#133,0.04);
#135=LINE('',#132,#134);
#136=EDGE_CURVE('',#31,#33,#135,.T.);
#137=CARTESIAN_POINT('',(-0.0014999999999999994,0.04,0.0025980762113533163));
#138=DIRECTION('',(-0.7071067811865477,0,-0.7071067811865474));
#139=VECTOR('',#138,0.0015529142706151257);
#140=LINE('',#137,#139);
#141=EDGE_CURVE('',#29,#33,#140,.T.);
#142=CARTESIAN_POINT('',(-0.0025980762113533163,0,0.0014999999999999998));
#143=DIRECTION('',(-0.2588190451025207,0,-0.9659258262890683));
#144=VECTOR('',#143,0.001552914270615124);
#145=LINE('',#142,#144);
#146=EDGE_CURVE('',#31,#35,#145,.T.);
#147=CARTESIAN_POINT('',(-0.003,0,3.6739403974420597e-19));
#148=DIRECTION('',(0,1,0));
#149=VECTOR('',#148,0.04);
#150=LINE('',#147,#149);
#151=EDGE_CURVE('',#35,#37,#150,.T.);
#152=CARTESIAN_POINT('',(-0.0025980762113533163,0.04,0.0014999999999999998));
#153=DIRECTION('',(-0.2588190451025207,0,-0.9659258262890683));
#154=VECTOR('',#153,0.001552914270615124);
#155=LINE('',#152,#154);
#156=EDGE_CURVE('',#33,#37,#155,.T.);
#157=CARTESIAN_POINT('',(-0.003,0,3.6739403974420597e-19));
#158=DIRECTION('',(0.2588190451025207,0,-0.9659258262890683));
#159=VECTOR('',#158,0.0015529142706151254);
#160=LINE('',#157,#159);
#161=EDGE_CURVE('',#35,#39,#160,.T.);
#162=CARTESIAN_POINT('',(-0.002598076211353316,0,-0.0015000000000000005));
#163=DIRECTION('',(0,1,0));
#164=VECTOR('',#163,0.04);
#165=LINE('',#162,#164);
#166=EDGE_CURVE('',#39,#41,#165,.T.);
#167=CARTESIAN_POINT('',(-0.003,0.04,3.6739403974420597e-19));
#168=DIRECTION('',(0.2588190451025207,0,-0.9659258262890683));
#169=VECTOR('',#168,0.0015529142706151254);
#170=LINE('',#167,#169);
#171=EDGE_CURVE('',#37,#41,#170,.T.);
#172=CARTESIAN_POINT('',(-0.002598076211353316,0,-0.0015000000000000005));
#173=DIRECTION('',(0.7071067811865475,0,-0.7071067811865475));
#174=VECTOR('',#173,0.0015529142706151226);
#175=LINE('',#172,#174);
#176=EDGE_CURVE('',#39,#43,#175,.T.);
#177=CARTESIAN_POINT('',(-0.0015000000000000013,0,-0.002598076211353315));
#178=DIRECTION('',(0,1,0));
#179=VECTOR('',#178,0.04);
#180=LINE('',#177,#179);
#181=EDGE_CURVE('',#43,#45,#180,.T.);
#182=CARTESIAN_POINT('',(-0.002598076211353316,0.04,-0.0015000000000000005));
#183=DIRECTION('',(0.7071067811865475,0,-0.7071067811865475));
#184=VECTOR('',#183,0.0015529142706151226);
#185=LINE('',#182,#184);
#186=EDGE_CURVE('',#41,#45,#185,.T.);
#187=CARTESIAN_POINT('',(-0.0015000000000000013,0,-0.002598076211353315));
#188=DIRECTION('',(0.9659258262890682,0,-0.25881904510252124));
#189=VECTOR('',#188,0.0015529142706151254);
#190=LINE('',#187,#189);
#191=EDGE_CURVE('',#43,#47,#190,.T.);
#192=CARTESIAN_POINT('',(-5.510910596163089e-19,0,-0.003));
#193=DIRECTION('',(0,1,0));
#194=VECTOR('',#193,0.04);
#195=LINE('',#192,#194);
#196=EDGE_CURVE('',#47,#49,#195,.T.);
#197=CARTESIAN_POINT('',(-0.0015000000000000013,0.04,-0.002598076211353315));
#198=DIRECTION('',(0.9659258262890682,0,-0.25881904510252124));
#199=VECTOR('',#198,0.0015529142706151254);
#200=LINE('',#197,#199);
#201=EDGE_CURVE('',#45,#49,#200,.T.);
#202=CARTESIAN_POINT('',(-5.510910596163089e-19,0,-0.003));
#203=DIRECTION('',(0.9659258262890683,0,0.2588190451025207));
#204=VECTOR('',#203,0.0015529142706151257);
#205=LINE('',#202,#204);
#206=EDGE_CURVE('',#47,#51,#205,.T.);
#207=CARTESIAN_POINT('',(0.0015000000000000005,0,-0.002598076211353316));
#208=DIRECTION('',(0,1,0));
#209=VECTOR('',#208,0.04);
#210=LINE('',#207,#209);
#211=EDGE_CURVE('',#51,#53,#210,.T.);
#212=CARTESIAN_POINT('',(-5.510910596163089e-19,0.04,-0.003));
#213=DIRECTION('',(0.9659258262890683,0,0.2588190451025207));
#214=VECTOR('',#213,0.0015529142706151257);
#215=LINE('',#212,#214);
#216=EDGE_CURVE('',#49,#53,#215,.T.);
#217=CARTESIAN_POINT('',(0.0015000000000000005,0,-0.002598076211353316));
#218=DIRECTION('',(0.7071067811865475,0,0.7071067811865475));
#219=VECTOR('',#218,0.0015529142706151226);
#220=LINE('',#217,#219);
#221=EDGE_CURVE('',#51,#55,#220,.T.);
#222=CARTESIAN_POINT('',(0.002598076211353315,0,-0.0015000000000000013));
#223=DIRECTION('',(0,1,0));
#224=VECTOR('',#223,0.04);
#225=LINE('',#222,#224);
#226=EDGE_CURVE('',#55,#57,#225,.T.);
#227=CARTESIAN_POINT('',(0.0015000000000000005,0.04,-0.002598076211353316));
#228=DIRECTION('',(0.7071067811865475,0,0.7071067811865475));
#229=VECTOR('',#228,0.0015529142706151226);
#230=LINE('',#227,#229);
#231=EDGE_CURVE('',#53,#57,#230,.T.);
#232=CARTESIAN_POINT('',(0.002598076211353315,0,-0.0015000000000000013));
#233=DIRECTION('',(0.25881904510252113,0,0.9659258262890682));
#234=VECTOR('',#233,0.001552914270615126);
#235=LINE('',#232,#234);
#236=EDGE_CURVE('',#55,#11,#235,.T.);
#237=CARTESIAN_POINT('',(0.002598076211353315,0.04,-0.0015000000000000013));
#238=DIRECTION('',(0.25881904510252113,0,0.9659258262890682));
#239=VECTOR('',#238,0.001552914270615126);
#240=LINE('',#237,#239);
#241=EDGE_CURVE('',#57,#17,#240,.T.);
#242=CARTESIAN_POINT('',(0,0,0));
#243=DIRECTION('',(1,0,0));
#244=VECTOR('',#243,0.003);
#245=LINE('',#242,#244);
#246=EDGE_CURVE('',#59,#11,#245,.T.);
#247=CARTESIAN_POINT('',(0,0,0));
#248=DIRECTION('',(0.8660254037844386,0,0.49999999999999983));
#249=VECTOR('',#248,0.0030000000000000005);
#250=LINE('',#247,#249);
#251=EDGE_CURVE('',#59,#13,#250,.T.);
#252=CARTESIAN_POINT('',(0,0,0));
#253=DIRECTION('',(0.5000000000000001,0,0.8660254037844385));
#254=VECTOR('',#253,0.0030000000000000005);
#255=LINE('',#252,#254);
#256=EDGE_CURVE('',#59,#19,#255,.T.);
#257=CARTESIAN_POINT('',(0,0,0));
#258=DIRECTION('',(6.123233995736766e-17,0,1));
#259=VECTOR('',#258,0.003);
#260=LINE('',#257,#259);
#261=EDGE_CURVE('',#59,#23,#260,.T.);
#262=CARTESIAN_POINT('',(0,0,0));
#263=DIRECTION('',(-0.4999999999999998,0,0.8660254037844387));
#264=VECTOR('',#263,0.003);
#265=LINE('',#262,#264);
#266=EDGE_CURVE('',#59,#27,#265,.T.);
#267=CARTESIAN_POINT('',(0,0,0));
#268=DIRECTION('',(-0.8660254037844386,0,0.49999999999999983));
#269=VECTOR('',#268,0.0030000000000000005);
#270=LINE('',#267,#269);
#271=EDGE_CURVE('',#59,#31,#270,.T.);
#272=CARTESIAN_POINT('',(0,0,0));
#273=DIRECTION('',(-1,0,1.2246467991473532e-16));
#274=VECTOR('',#273,0.003);
#275=LINE('',#272,#274);
#276=EDGE_CURVE('',#59,#35,#275,.T.);
#277=CARTESIAN_POINT('',(0,0,0));
#278=DIRECTION('',(-0.8660254037844385,0,-0.5000000000000001));
#279=VECTOR('',#278,0.0030000000000000005);
#280=LINE('',#277,#279);
#281=EDGE_CURVE('',#59,#39,#280,.T.);
#282=CARTESIAN_POINT('',(0,0,0));
#283=DIRECTION('',(-0.5000000000000006,0,-0.8660254037844385));
#284=VECTOR('',#283,0.0029999999999999996);
#285=LINE('',#282,#284);
#286=EDGE_CURVE('',#59,#43,#285,.T.);
#287=CARTESIAN_POINT('',(0,0,0));
#288=DIRECTION('',(-1.8369701987210294e-16,0,-1));
#289=VECTOR('',#288,0.003);
#290=LINE('',#287,#289);
#291=EDGE_CURVE('',#59,#47,#290,.T.);
#292=CARTESIAN_POINT('',(0,0,0));
#293=DIRECTION('',(0.5000000000000001,0,-0.8660254037844385));
#294=VECTOR('',#293,0.0030000000000000005);
#295=LINE('',#292,#294);
#296=EDGE_CURVE('',#59,#51,#295,.T.);
#297=CARTESIAN_POINT('',(0,0,0));
#298=DIRECTION('',(0.8660254037844385,0,-0.5000000000000006));
#299=VECTOR('',#298,0.0029999999999999996);
#300=LINE('',#297,#299);
#301=EDGE_CURVE('',#59,#55,#300,.T.);
#302=CARTESIAN_POINT('',(0,0.04,0));
#303=DIRECTION('',(1,0,0));
#304=VECTOR('',#303,0.003);
#305=LINE('',#302,#304);
#306=EDGE_CURVE('',#61,#17,#305,.T.);
#307=CARTESIAN_POINT('',(0,0.04,0));
#308=DIRECTION('',(0.8660254037844386,0,0.49999999999999983));
#309=VECTOR('',#308,0.0030000000000000005);
#310=LINE('',#307,#309);
#311=EDGE_CURVE('',#61,#15,#310,.T.);
#312=CARTESIAN_POINT('',(0,0.04,0));
#313=DIRECTION('',(0.5000000000000001,0,0.8660254037844385));
#314=VECTOR('',#313,0.0030000000000000005);
#315=LINE('',#312,#314);
#316=EDGE_CURVE('',#61,#21,#315,.T.);
#317=CARTESIAN_POINT('',(0,0.04,0));
#318=DIRECTION('',(6.123233995736766e-17,0,1));
#319=VECTOR('',#318,0.003);
#320=LINE('',#317,#319);
#321=EDGE_CURVE('',#61,#25,#320,.T.);
#322=CARTESIAN_POINT('',(0,0.04,0));
#323=DIRECTION('',(-0.4999999999999998,0,0.8660254037844387));
#324=VECTOR('',#323,0.003);
#325=LINE('',#322,#324);
#326=EDGE_CURVE('',#61,#29,#325,.T.);
#327=CARTESIAN_POINT('',(0,0.04,0));
#328=DIRECTION('',(-0.8660254037844386,0,0.49999999999999983));
#329=VECTOR('',#328,0.0030000000000000005);
#330=LINE('',#327,#329);
#331=EDGE_CURVE('',#61,#33,#330,.T.);
#332=CARTESIAN_POINT('',(0,0.04,0));
#333=DIRECTION('',(-1,0,1.2246467991473532e-16));
#334=VECTOR('',#333,0.003);
#335=LINE('',#332,#334);
#336=EDGE_CURVE('',#61,#37,#335,.T.);
#337=CARTESIAN_POINT('',(0,0.04,0));
#338=DIRECTION('',(-0.8660254037844385,0,-0.5000000000000001));
#339=VECTOR('',#338,0.0030000000000000005);
#340=LINE('',#337,#339);
#341=EDGE_CURVE('',#61,#41,#340,.T.);
#342=CARTESIAN_POINT('',(0,0.04,0));
#343=DIRECTION('',(-0.5000000000000006,0,-0.8660254037844385));
#344=VECTOR('',#343,0.0029999999999999996);
#345=LINE('',#342,#344);
#346=EDGE_CURVE('',#61,#45,#345,.T.);
#347=CARTESIAN_POINT('',(0,0.04,0));
#348=DIRECTION('',(-1.8369701987210294e-16,0,-1));
#349=VECTOR('',#348,0.003);
#350=LINE('',#347,#349);
#351=EDGE_CURVE('',#61,#49,#350,.T.);
#352=CARTESIAN_POINT('',(0,0.04,0));
#353=DIRECTION('',(0.5000000000000001,0,-0.8660254037844385));
#354=VECTOR('',#353,0.0030000000000000005);
#355=LINE('',#352,#354);
#356=EDGE_CURVE('',#61,#53,#355,.T.);
#357=CARTESIAN_POINT('',(0,0.04,0));
#358=DIRECTION('',(0.8660254037844385,0,-0.5000000000000006));
#359=VECTOR('',#358,0.0029999999999999996);
#360=LINE('',#357,#359);
#361=EDGE_CURVE('',#61,#57,#360,.T.);
#362=CARTESIAN_POINT('',(0.0027990381056766577,0.02,0.0007499999999999999));
#363=DIRECTION('',(-0.9659258262890683,0,-0.25881904510252063));
#364=DIRECTION('',(0,-1,0));
#365=AXIS2_PLACEMENT_3D('',#362,#363,#364);
#366=PLANE('',#365);
#367=ORIENTED_EDGE('',*,*,#66,.T.);
#368=ORIENTED_EDGE('',*,*,#71,.T.);
#369=ORIENTED_EDGE('',*,*,#76,.F.);
#370=ORIENTED_EDGE('',*,*,#81,.F.);
#371=EDGE_LOOP('',(#367,#368,#369,#370));
#372=FACE_OUTER_BOUND('',#371,.T.);
#373=ADVANCED_FACE('',(#372),#366,.T.);
#374=CARTESIAN_POINT('',(0.0020490381056766584,0.02,0.002049038105676658));
#375=DIRECTION('',(-0.7071067811865476,0,-0.7071067811865475));
#376=DIRECTION('',(0,-1,0));
#377=AXIS2_PLACEMENT_3D('',#374,#375,#376);
#378=PLANE('',#377);
#379=ORIENTED_EDGE('',*,*,#86,.T.);
#380=ORIENTED_EDGE('',*,*,#91,.T.);
#381=ORIENTED_EDGE('',*,*,#96,.F.);
#382=ORIENTED_EDGE('',*,*,#71,.F.);
#383=EDGE_LOOP('',(#379,#380,#381,#382));
#384=FACE_OUTER_BOUND('',#383,.T.);
#385=ADVANCED_FACE('',(#384),#378,.T.);
#386=CARTESIAN_POINT('',(0.0007500000000000003,0.02,0.002799038105676658));
#387=DIRECTION('',(-0.25881904510252085,0,-0.9659258262890683));
#388=DIRECTION('',(1,0,0));
#389=AXIS2_PLACEMENT_3D('',#386,#387,#388);
#390=PLANE('',#389);
#391=ORIENTED_EDGE('',*,*,#101,.T.);
#392=ORIENTED_EDGE('',*,*,#106,.T.);
#393=ORIENTED_EDGE('',*,*,#111,.F.);
#394=ORIENTED_EDGE('',*,*,#91,.F.);
#395=EDGE_LOOP('',(#391,#392,#393,#394));
#396=FACE_OUTER_BOUND('',#395,.T.);
#397=ADVANCED_FACE('',(#396),#390,.T.);
#398=CARTESIAN_POINT('',(-0.0007499999999999996,0.02,0.0027990381056766577));
#399=DIRECTION('',(0.2588190451025207,0,-0.9659258262890682));
#400=DIRECTION('',(1,0,0));
#401=AXIS2_PLACEMENT_3D('',#398,#399,#400);
#402=PLANE('',#401);
#403=ORIENTED_EDGE('',*,*,#116,.T.);
#404=ORIENTED_EDGE('',*,*,#121,.T.);
#405=ORIENTED_EDGE('',*,*,#126,.F.);
#406=ORIENTED_EDGE('',*,*,#106,.F.);
#407=EDGE_LOOP('',(#403,#404,#405,#406));
#408=FACE_OUTER_BOUND('',#407,.T.);
#409=ADVANCED_FACE('',(#408),#402,.T.);
#410=CARTESIAN_POINT('',(-0.002049038105676658,0.02,0.002049038105676658));
#411=DIRECTION('',(0.7071067811865472,0,-0.7071067811865477));
#412=DIRECTION('',(0,1,0));
#413=AXIS2_PLACEMENT_3D('',#410,#411,#412);
#414=PLANE('',#413);
#415=ORIENTED_EDGE('',*,*,#131,.T.);
#416=ORIENTED_EDGE('',*,*,#136,.T.);
#417=ORIENTED_EDGE('',*,*,#141,.F.);
#418=ORIENTED_EDGE('',*,*,#121,.F.);
#419=EDGE_LOOP('',(#415,#416,#417,#418));
#420=FACE_OUTER_BOUND('',#419,.T.);
#421=ADVANCED_FACE('',(#420),#414,.T.);
#422=CARTESIAN_POINT('',(-0.002799038105676658,0.02,0.0007500000000000001));
#423=DIRECTION('',(0.9659258262890683,0,-0.2588190451025207));
#424=DIRECTION('',(0,1,0));
#425=AXIS2_PLACEMENT_3D('',#422,#423,#424);
#426=PLANE('',#425);
#427=ORIENTED_EDGE('',*,*,#146,.T.);
#428=ORIENTED_EDGE('',*,*,#151,.T.);
#429=ORIENTED_EDGE('',*,*,#156,.F.);
#430=ORIENTED_EDGE('',*,*,#136,.F.);
#431=EDGE_LOOP('',(#427,#428,#429,#430));
#432=FACE_OUTER_BOUND('',#431,.T.);
#433=ADVANCED_FACE('',(#432),#426,.T.);
#434=CARTESIAN_POINT('',(-0.0027990381056766577,0.02,-0.00075));
#435=DIRECTION('',(0.9659258262890683,0,0.25881904510252074));
#436=DIRECTION('',(0,1,0));
#437=AXIS2_PLACEMENT_3D('',#434,#435,#436);
#438=PLANE('',#437);
#439=ORIENTED_EDGE('',*,*,#161,.T.);
#440=ORIENTED_EDGE('',*,*,#166,.T.);
#441=ORIENTED_EDGE('',*,*,#171,.F.);
#442=ORIENTED_EDGE('',*,*,#151,.F.);
#443=EDGE_LOOP('',(#439,#440,#441,#442));
#444=FACE_OUTER_BOUND('',#443,.T.);
#445=ADVANCED_FACE('',(#444),#438,.T.);
#446=CARTESIAN_POINT('',(-0.002049038105676659,0.02,-0.002049038105676658));
#447=DIRECTION('',(0.7071067811865476,0,0.7071067811865476));
#448=DIRECTION('',(0,1,0));
#449=AXIS2_PLACEMENT_3D('',#446,#447,#448);
#450=PLANE('',#449);
#451=ORIENTED_EDGE('',*,*,#176,.T.);
#452=ORIENTED_EDGE('',*,*,#181,.T.);
#453=ORIENTED_EDGE('',*,*,#186,.F.);
#454=ORIENTED_EDGE('',*,*,#166,.F.);
#455=EDGE_LOOP('',(#451,#452,#453,#454));
#456=FACE_OUTER_BOUND('',#455,.T.);
#457=ADVANCED_FACE('',(#456),#450,.T.);
#458=CARTESIAN_POINT('',(-0.000750000000000001,0.02,-0.0027990381056766577));
#459=DIRECTION('',(0.2588190451025212,0,0.9659258262890682));
#460=DIRECTION('',(1,0,0));
#461=AXIS2_PLACEMENT_3D('',#458,#459,#460);
#462=PLANE('',#461);
#463=ORIENTED_EDGE('',*,*,#191,.T.);
#464=ORIENTED_EDGE('',*,*,#196,.T.);
#465=ORIENTED_EDGE('',*,*,#201,.F.);
#466=ORIENTED_EDGE('',*,*,#181,.F.);
#467=EDGE_LOOP('',(#463,#464,#465,#466));
#468=FACE_OUTER_BOUND('',#467,.T.);
#469=ADVANCED_FACE('',(#468),#462,.T.);
#470=CARTESIAN_POINT('',(0.0007499999999999999,0.02,-0.0027990381056766577));
#471=DIRECTION('',(-0.2588190451025207,0,0.9659258262890683));
#472=DIRECTION('',(1,0,0));
#473=AXIS2_PLACEMENT_3D('',#470,#471,#472);
#474=PLANE('',#473);
#475=ORIENTED_EDGE('',*,*,#206,.T.);
#476=ORIENTED_EDGE('',*,*,#211,.T.);
#477=ORIENTED_EDGE('',*,*,#216,.F.);
#478=ORIENTED_EDGE('',*,*,#196,.F.);
#479=EDGE_LOOP('',(#475,#476,#477,#478));
#480=FACE_OUTER_BOUND('',#479,.T.);
#481=ADVANCED_FACE('',(#480),#474,.T.);
#482=CARTESIAN_POINT('',(0.002049038105676658,0.02,-0.002049038105676659));
#483=DIRECTION('',(-0.7071067811865475,0,0.7071067811865476));
#484=DIRECTION('',(0,-1,0));
#485=AXIS2_PLACEMENT_3D('',#482,#483,#484);
#486=PLANE('',#485);
#487=ORIENTED_EDGE('',*,*,#221,.T.);
#488=ORIENTED_EDGE('',*,*,#226,.T.);
#489=ORIENTED_EDGE('',*,*,#231,.F.);
#490=ORIENTED_EDGE('',*,*,#211,.F.);
#491=EDGE_LOOP('',(#487,#488,#489,#490));
#492=FACE_OUTER_BOUND('',#491,.T.);
#493=ADVANCED_FACE('',(#492),#486,.T.);
#494=CARTESIAN_POINT('',(0.0027990381056766577,0.02,-0.0007500000000000007));
#495=DIRECTION('',(-0.9659258262890682,0,0.25881904510252113));
#496=DIRECTION('',(0,-1,0));
#497=AXIS2_PLACEMENT_3D('',#494,#495,#496);
#498=PLANE('',#497);
#499=ORIENTED_EDGE('',*,*,#236,.T.);
#500=ORIENTED_EDGE('',*,*,#81,.T.);
#501=ORIENTED_EDGE('',*,*,#241,.F.);
#502=ORIENTED_EDGE('',*,*,#226,.F.);
#503=EDGE_LOOP('',(#499,#500,#501,#502));
#504=FACE_OUTER_BOUND('',#503,.T.);
#505=ADVANCED_FACE('',(#504),#498,.T.);
#506=CARTESIAN_POINT('',(0.0018660254037844387,0,0.0004999999999999999));
#507=DIRECTION('',(0,-1,0));
#508=DIRECTION('',(1,0,0));
#509=AXIS2_PLACEMENT_3D('',#506,#507,#508);
#510=PLANE('',#509);
#511=ORIENTED_EDGE('',*,*,#246,.T.);
#512=ORIENTED_EDGE('',*,*,#66,.T.);
#513=ORIENTED_EDGE('',*,*,#251,.F.);
#514=EDGE_LOOP('',(#511,#512,#513));
#515=FACE_OUTER_BOUND('',#514,.T.);
#516=ADVANCED_FACE('',(#515),#510,.T.);
#517=CARTESIAN_POINT('',(0.001366025403784439,0,0.0013660254037844387));
#518=DIRECTION('',(0,-1,0));
#519=DIRECTION('',(1,0,0));
#520=AXIS2_PLACEMENT_3D('',#517,#518,#519);
#521=PLANE('',#520);
#522=ORIENTED_EDGE('',*,*,#251,.T.);
#523=ORIENTED_EDGE('',*,*,#86,.T.);
#524=ORIENTED_EDGE('',*,*,#256,.F.);
#525=EDGE_LOOP('',(#522,#523,#524));
#526=FACE_OUTER_BOUND('',#525,.T.);
#527=ADVANCED_FACE('',(#526),#521,.T.);
#528=CARTESIAN_POINT('',(0.0005000000000000002,0,0.0018660254037844385));
#529=DIRECTION('',(0,-1,0));
#530=DIRECTION('',(1,0,0));
#531=AXIS2_PLACEMENT_3D('',#528,#529,#530);
#532=PLANE('',#531);
#533=ORIENTED_EDGE('',*,*,#256,.T.);
#534=ORIENTED_EDGE('',*,*,#101,.T.);
#535=ORIENTED_EDGE('',*,*,#261,.F.);
#536=EDGE_LOOP('',(#533,#534,#535));
#537=FACE_OUTER_BOUND('',#536,.T.);
#538=ADVANCED_FACE('',(#537),#532,.T.);
#539=CARTESIAN_POINT('',(-0.0004999999999999997,0,0.0018660254037844387));
#540=DIRECTION('',(0,-1,0));
#541=DIRECTION('',(1,0,0));
#542=AXIS2_PLACEMENT_3D('',#539,#540,#541);
#543=PLANE('',#542);
#544=ORIENTED_EDGE('',*,*,#261,.T.);
#545=ORIENTED_EDGE('',*,*,#116,.T.);
#546=ORIENTED_EDGE('',*,*,#266,.F.);
#547=EDGE_LOOP('',(#544,#545,#546));
#548=FACE_OUTER_BOUND('',#547,.T.);
#549=ADVANCED_FACE('',(#548),#543,.T.);
#550=CARTESIAN_POINT('',(-0.0013660254037844387,0,0.0013660254037844387));
#551=DIRECTION('',(0,-1,0));
#552=DIRECTION('',(1,0,0));
#553=AXIS2_PLACEMENT_3D('',#550,#551,#552);
#554=PLANE('',#553);
#555=ORIENTED_EDGE('',*,*,#266,.T.);
#556=ORIENTED_EDGE('',*,*,#131,.T.);
#557=ORIENTED_EDGE('',*,*,#271,.F.);
#558=EDGE_LOOP('',(#555,#556,#557));
#559=FACE_OUTER_BOUND('',#558,.T.);
#560=ADVANCED_FACE('',(#559),#554,.T.);
#561=CARTESIAN_POINT('',(-0.0018660254037844387,0,0.0005000000000000001));
#562=DIRECTION('',(0,-1,0));
#563=DIRECTION('',(1,0,0));
#564=AXIS2_PLACEMENT_3D('',#561,#562,#563);
#565=PLANE('',#564);
#566=ORIENTED_EDGE('',*,*,#271,.T.);
#567=ORIENTED_EDGE('',*,*,#146,.T.);
#568=ORIENTED_EDGE('',*,*,#276,.F.);
#569=EDGE_LOOP('',(#566,#567,#568));
#570=FACE_OUTER_BOUND('',#569,.T.);
#571=ADVANCED_FACE('',(#570),#565,.T.);
#572=CARTESIAN_POINT('',(-0.0018660254037844385,0,-0.0005));
#573=DIRECTION('',(0,-1,0));
#574=DIRECTION('',(1,0,0));
#575=AXIS2_PLACEMENT_3D('',#572,#573,#574);
#576=PLANE('',#575);
#577=ORIENTED_EDGE('',*,*,#276,.T.);
#578=ORIENTED_EDGE('',*,*,#161,.T.);
#579=ORIENTED_EDGE('',*,*,#281,.F.);
#580=EDGE_LOOP('',(#577,#578,#579));
#581=FACE_OUTER_BOUND('',#580,.T.);
#582=ADVANCED_FACE('',(#581),#576,.T.);
#583=CARTESIAN_POINT('',(-0.0013660254037844391,0,-0.0013660254037844387));
#584=DIRECTION('',(0,-1,0));
#585=DIRECTION('',(1,0,0));
#586=AXIS2_PLACEMENT_3D('',#583,#584,#585);
#587=PLANE('',#586);
#588=ORIENTED_EDGE('',*,*,#281,.T.);
#589=ORIENTED_EDGE('',*,*,#176,.T.);
#590=ORIENTED_EDGE('',*,*,#286,.F.);
#591=EDGE_LOOP('',(#588,#589,#590));
#592=FACE_OUTER_BOUND('',#591,.T.);
#593=ADVANCED_FACE('',(#592),#587,.T.);
#594=CARTESIAN_POINT('',(-0.0005000000000000007,0,-0.0018660254037844385));
#595=DIRECTION('',(0,-1,0));
#596=DIRECTION('',(1,0,0));
#597=AXIS2_PLACEMENT_3D('',#594,#595,#596);
#598=PLANE('',#597);
#599=ORIENTED_EDGE('',*,*,#286,.T.);
#600=ORIENTED_EDGE('',*,*,#191,.T.);
#601=ORIENTED_EDGE('',*,*,#291,.F.);
#602=EDGE_LOOP('',(#599,#600,#601));
#603=FACE_OUTER_BOUND('',#602,.T.);
#604=ADVANCED_FACE('',(#603),#598,.T.);
#605=CARTESIAN_POINT('',(0.0004999999999999999,0,-0.0018660254037844385));
#606=DIRECTION('',(0,-1,0));
#607=DIRECTION('',(1,0,0));
#608=AXIS2_PLACEMENT_3D('',#605,#606,#607);
#609=PLANE('',#608);
#610=ORIENTED_EDGE('',*,*,#291,.T.);
#611=ORIENTED_EDGE('',*,*,#206,.T.);
#612=ORIENTED_EDGE('',*,*,#296,.F.);
#613=EDGE_LOOP('',(#610,#611,#612));
#614=FACE_OUTER_BOUND('',#613,.T.);
#615=ADVANCED_FACE('',(#614),#609,.T.);
#616=CARTESIAN_POINT('',(0.0013660254037844387,0,-0.0013660254037844391));
#617=DIRECTION('',(0,-1,0));
#618=DIRECTION('',(1,0,0));
#619=AXIS2_PLACEMENT_3D('',#616,#617,#618);
#620=PLANE('',#619);
#621=ORIENTED_EDGE('',*,*,#296,.T.);
#622=ORIENTED_EDGE('',*,*,#221,.T.);
#623=ORIENTED_EDGE('',*,*,#301,.F.);
#624=EDGE_LOOP('',(#621,#622,#623));
#625=FACE_OUTER_BOUND('',#624,.T.);
#626=ADVANCED_FACE('',(#625),#620,.T.);
#627=CARTESIAN_POINT('',(0.0018660254037844385,0,-0.0005000000000000004));
#628=DIRECTION('',(0,-1,0));
#629=DIRECTION('',(1,0,0));
#630=AXIS2_PLACEMENT_3D('',#627,#628,#629);
#631=PLANE('',#630);
#632=ORIENTED_EDGE('',*,*,#301,.T.);
#633=ORIENTED_EDGE('',*,*,#236,.T.);
#634=ORIENTED_EDGE('',*,*,#246,.F.);
#635=EDGE_LOOP('',(#632,#633,#634));
#636=FACE_OUTER_BOUND('',#635,.T.);
#637=ADVANCED_FACE('',(#636),#631,.T.);
#638=CARTESIAN_POINT('',(0.0018660254037844387,0.04,0.0004999999999999999));
#639=DIRECTION('',(0,-1,0));
#640=DIRECTION('',(1,0,0));
#641=AXIS2_PLACEMENT_3D('',#638,#639,#640);
#642=PLANE('',#641);
#643=ORIENTED_EDGE('',*,*,#306,.T.);
#644=ORIENTED_EDGE('',*,*,#76,.T.);
#645=ORIENTED_EDGE('',*,*,#311,.F.);
#646=EDGE_LOOP('',(#643,#644,#645));
#647=FACE_OUTER_BOUND('',#646,.T.);
#648=ADVANCED_FACE('',(#647),#642,.T.);
#649=CARTESIAN_POINT('',(0.001366025403784439,0.04,0.0013660254037844387));
#650=DIRECTION('',(0,-1,3.0116727013486238e-15));
#651=DIRECTION('',(1,0,0));
#652=AXIS2_PLACEMENT_3D('',#649,#650,#651);
#653=PLANE('',#652);
#654=ORIENTED_EDGE('',*,*,#311,.T.);
#655=ORIENTED_EDGE('',*,*,#96,.T.);
#656=ORIENTED_EDGE('',*,*,#316,.F.);
#657=EDGE_LOOP('',(#654,#655,#656));
#658=FACE_OUTER_BOUND('',#657,.T.);
#659=ADVANCED_FACE('',(#658),#653,.T.);
#660=CARTESIAN_POINT('',(0.0005000000000000002,0.04,0.0018660254037844385));
#661=DIRECTION('',(0,-1,-2.757620604970971e-15));
#662=DIRECTION('',(1,0,0));
#663=AXIS2_PLACEMENT_3D('',#660,#661,#662);
#664=PLANE('',#663);
#665=ORIENTED_EDGE('',*,*,#316,.T.);
#666=ORIENTED_EDGE('',*,*,#111,.T.);
#667=ORIENTED_EDGE('',*,*,#321,.F.);
#668=EDGE_LOOP('',(#665,#666,#667));
#669=FACE_OUTER_BOUND('',#668,.T.);
#670=ADVANCED_FACE('',(#669),#664,.T.);
#671=CARTESIAN_POINT('',(-0.0004999999999999997,0.04,0.0018660254037844387));
#672=DIRECTION('',(0,-1,3.0116727013486246e-15));
#673=DIRECTION('',(1,0,0));
#674=AXIS2_PLACEMENT_3D('',#671,#672,#673);
#675=PLANE('',#674);
#676=ORIENTED_EDGE('',*,*,#321,.T.);
#677=ORIENTED_EDGE('',*,*,#126,.T.);
#678=ORIENTED_EDGE('',*,*,#326,.F.);
#679=EDGE_LOOP('',(#676,#677,#678));
#680=FACE_OUTER_BOUND('',#679,.T.);
#681=ADVANCED_FACE('',(#680),#675,.T.);
#682=CARTESIAN_POINT('',(-0.0013660254037844387,0.04,0.0013660254037844387));
#683=DIRECTION('',(0,-1,0));
#684=DIRECTION('',(1,0,0));
#685=AXIS2_PLACEMENT_3D('',#682,#683,#684);
#686=PLANE('',#685);
#687=ORIENTED_EDGE('',*,*,#326,.T.);
#688=ORIENTED_EDGE('',*,*,#141,.T.);
#689=ORIENTED_EDGE('',*,*,#331,.F.);
#690=EDGE_LOOP('',(#687,#688,#689));
#691=FACE_OUTER_BOUND('',#690,.T.);
#692=ADVANCED_FACE('',(#691),#686,.T.);
#693=CARTESIAN_POINT('',(-0.0018660254037844387,0.04,0.0005000000000000001));
#694=DIRECTION('',(0,-1,0));
#695=DIRECTION('',(1,0,0));
#696=AXIS2_PLACEMENT_3D('',#693,#694,#695);
#697=PLANE('',#696);
#698=ORIENTED_EDGE('',*,*,#331,.T.);
#699=ORIENTED_EDGE('',*,*,#156,.T.);
#700=ORIENTED_EDGE('',*,*,#336,.F.);
#701=EDGE_LOOP('',(#698,#699,#700));
#702=FACE_OUTER_BOUND('',#701,.T.);
#703=ADVANCED_FACE('',(#702),#697,.T.);
#704=CARTESIAN_POINT('',(-0.0018660254037844385,0.04,-0.0005));
#705=DIRECTION('',(0,-1,0));
#706=DIRECTION('',(1,0,0));
#707=AXIS2_PLACEMENT_3D('',#704,#705,#706);
#708=PLANE('',#707);
#709=ORIENTED_EDGE('',*,*,#336,.T.);
#710=ORIENTED_EDGE('',*,*,#171,.T.);
#711=ORIENTED_EDGE('',*,*,#341,.F.);
#712=EDGE_LOOP('',(#709,#710,#711));
#713=FACE_OUTER_BOUND('',#712,.T.);
#714=ADVANCED_FACE('',(#713),#708,.T.);
#715=CARTESIAN_POINT('',(-0.0013660254037844391,0.04,-0.0013660254037844387));
#716=DIRECTION('',(0,-1,-3.011672701348627e-15));
#717=DIRECTION('',(1,0,0));
#718=AXIS2_PLACEMENT_3D('',#715,#716,#717);
#719=PLANE('',#718);
#720=ORIENTED_EDGE('',*,*,#341,.T.);
#721=ORIENTED_EDGE('',*,*,#186,.T.);
#722=ORIENTED_EDGE('',*,*,#346,.F.);
#723=EDGE_LOOP('',(#720,#721,#722));
#724=FACE_OUTER_BOUND('',#723,.T.);
#725=ADVANCED_FACE('',(#724),#719,.T.);
#726=CARTESIAN_POINT('',(-0.0005000000000000007,0.04,-0.0018660254037844385));
#727=DIRECTION('',(0,-1,2.249516412215667e-15));
#728=DIRECTION('',(1,0,0));
#729=AXIS2_PLACEMENT_3D('',#726,#727,#728);
#730=PLANE('',#729);
#731=ORIENTED_EDGE('',*,*,#346,.T.);
#732=ORIENTED_EDGE('',*,*,#201,.T.);
#733=ORIENTED_EDGE('',*,*,#351,.F.);
#734=EDGE_LOOP('',(#731,#732,#733));
#735=FACE_OUTER_BOUND('',#734,.T.);
#736=ADVANCED_FACE('',(#735),#730,.T.);
#737=CARTESIAN_POINT('',(0.0004999999999999999,0.04,-0.0018660254037844385));
#738=DIRECTION('',(0,-1,-3.011672701348621e-15));
#739=DIRECTION('',(1,0,0));
#740=AXIS2_PLACEMENT_3D('',#737,#738,#739);
#741=PLANE('',#740);
#742=ORIENTED_EDGE('',*,*,#351,.T.);
#743=ORIENTED_EDGE('',*,*,#216,.T.);
#744=ORIENTED_EDGE('',*,*,#356,.F.);
#745=EDGE_LOOP('',(#742,#743,#744));
#746=FACE_OUTER_BOUND('',#745,.T.);
#747=ADVANCED_FACE('',(#746),#741,.T.);
#748=CARTESIAN_POINT('',(0.0013660254037844387,0.04,-0.0013660254037844391));
#749=DIRECTION('',(0,-1,0));
#750=DIRECTION('',(1,0,0));
#751=AXIS2_PLACEMENT_3D('',#748,#749,#750);
#752=PLANE('',#751);
#753=ORIENTED_EDGE('',*,*,#356,.T.);
#754=ORIENTED_EDGE('',*,*,#231,.T.);
#755=ORIENTED_EDGE('',*,*,#361,.F.);
#756=EDGE_LOOP('',(#753,#754,#755));
#757=FACE_OUTER_BOUND('',#756,.T.);
#758=ADVANCED_FACE('',(#757),#752,.T.);
#759=CARTESIAN_POINT('',(0.0018660254037844385,0.04,-0.0005000000000000004));
#760=DIRECTION('',(0,-1,-6.02334540269724e-15));
#761=DIRECTION('',(1,0,0));
#762=AXIS2_PLACEMENT_3D('',#759,#760,#761);
#763=PLANE('',#762);
#764=ORIENTED_EDGE('',*,*,#361,.T.);
#765=ORIENTED_EDGE('',*,*,#241,.T.);
#766=ORIENTED_EDGE('',*,*,#306,.F.);
#767=EDGE_LOOP('',(#764,#765,#766));
#768=FACE_OUTER_BOUND('',#767,.T.);
#769=ADVANCED_FACE('',(#768),#763,.T.);
#770=CLOSED_SHELL('',(#373,#385,#397,#409,#421,#433,#445,#457,#469,#481,#493,#505,#516,#527,#538,#549,#560,#571,#582,#593,#604,#615,#626,#637,#648,#659,#670,#681,#692,#703,#714,#725,#736,#747,#758,#769));
#771=MANIFOLD_SOLID_BREP('',#770);
#772=SHAPE_REPRESENTATION('TYV6-FAS-IMB-0012',(#771),#9);
#773=SHAPE_DEFINITION_REPRESENTATION(#8,#772);
ENDSEC;
END-ISO-10303-21;