ISO-10303-21;
HEADER;
FILE_DESCRIPTION(('ArchDisc Geometry Kernel Export'),'2;1');
FILE_NAME('TYV6-VLV-EX-0006.step','20260509T202344',('ArchDisc'),('ArchDisc Inc'),'ArchDisc Kernel 1.0','ArchDisc','');
FILE_SCHEMA(('AUTOMOTIVE_DESIGN'));
ENDSEC;
DATA;
#1=APPLICATION_CONTEXT('automotive design');
#2=APPLICATION_PROTOCOL_DEFINITION('international standard','automotive_design',2009,#1);
#3=PRODUCT_CONTEXT('',#1,'mechanical');
#4=PRODUCT('TYV6-VLV-EX-0006','TYV6-VLV-EX-0006','',(#3));
#5=PRODUCT_DEFINITION_FORMATION('','',#4);
#6=PRODUCT_DEFINITION_CONTEXT('design',#1,'design');
#7=PRODUCT_DEFINITION('design','',#5,#6);
#8=PRODUCT_DEFINITION_SHAPE('','',#7);
#9=(GEOMETRIC_REPRESENTATION_CONTEXT(3) GLOBAL_UNCERTAINTY_ASSIGNED_CONTEXT((#0)) GLOBAL_UNIT_ASSIGNED_CONTEXT((#0,#0,#0)) REPRESENTATION_CONTEXT('Context3D','');
#10=CARTESIAN_POINT('',(0.018,0,0));
#11=VERTEX_POINT('',#10);
#12=CARTESIAN_POINT('',(0.01662983158520316,0,0.0068883017825716155));
#13=VERTEX_POINT('',#12);
#14=CARTESIAN_POINT('',(0.01662983158520316,0.09,0.0068883017825716155));
#15=VERTEX_POINT('',#14);
#16=CARTESIAN_POINT('',(0.018,0.09,0));
#17=VERTEX_POINT('',#16);
#18=CARTESIAN_POINT('',(0.012727922061357855,0,0.012727922061357854));
#19=VERTEX_POINT('',#18);
#20=CARTESIAN_POINT('',(0.012727922061357855,0.09,0.012727922061357854));
#21=VERTEX_POINT('',#20);
#22=CARTESIAN_POINT('',(0.006888301782571616,0,0.01662983158520316));
#23=VERTEX_POINT('',#22);
#24=CARTESIAN_POINT('',(0.006888301782571616,0.09,0.01662983158520316));
#25=VERTEX_POINT('',#24);
#26=CARTESIAN_POINT('',(1.1021821192326178e-18,0,0.018));
#27=VERTEX_POINT('',#26);
#28=CARTESIAN_POINT('',(1.1021821192326178e-18,0.09,0.018));
#29=VERTEX_POINT('',#28);
#30=CARTESIAN_POINT('',(-0.006888301782571615,0,0.01662983158520316));
#31=VERTEX_POINT('',#30);
#32=CARTESIAN_POINT('',(-0.006888301782571615,0.09,0.01662983158520316));
#33=VERTEX_POINT('',#32);
#34=CARTESIAN_POINT('',(-0.012727922061357854,0,0.012727922061357855));
#35=VERTEX_POINT('',#34);
#36=CARTESIAN_POINT('',(-0.012727922061357854,0.09,0.012727922061357855));
#37=VERTEX_POINT('',#36);
#38=CARTESIAN_POINT('',(-0.01662983158520316,0,0.006888301782571617));
#39=VERTEX_POINT('',#38);
#40=CARTESIAN_POINT('',(-0.01662983158520316,0.09,0.006888301782571617));
#41=VERTEX_POINT('',#40);
#42=CARTESIAN_POINT('',(-0.018,0,2.2043642384652355e-18));
#43=VERTEX_POINT('',#42);
#44=CARTESIAN_POINT('',(-0.018,0.09,2.2043642384652355e-18));
#45=VERTEX_POINT('',#44);
#46=CARTESIAN_POINT('',(-0.01662983158520316,0,-0.006888301782571614));
#47=VERTEX_POINT('',#46);
#48=CARTESIAN_POINT('',(-0.01662983158520316,0.09,-0.006888301782571614));
#49=VERTEX_POINT('',#48);
#50=CARTESIAN_POINT('',(-0.012727922061357857,0,-0.012727922061357854));
#51=VERTEX_POINT('',#50);
#52=CARTESIAN_POINT('',(-0.012727922061357857,0.09,-0.012727922061357854));
#53=VERTEX_POINT('',#52);
#54=CARTESIAN_POINT('',(-0.006888301782571626,0,-0.016629831585203154));
#55=VERTEX_POINT('',#54);
#56=CARTESIAN_POINT('',(-0.006888301782571626,0.09,-0.016629831585203154));
#57=VERTEX_POINT('',#56);
#58=CARTESIAN_POINT('',(-3.3065463576978533e-18,0,-0.018));
#59=VERTEX_POINT('',#58);
#60=CARTESIAN_POINT('',(-3.3065463576978533e-18,0.09,-0.018));
#61=VERTEX_POINT('',#60);
#62=CARTESIAN_POINT('',(0.00688830178257162,0,-0.016629831585203158));
#63=VERTEX_POINT('',#62);
#64=CARTESIAN_POINT('',(0.00688830178257162,0.09,-0.016629831585203158));
#65=VERTEX_POINT('',#64);
#66=CARTESIAN_POINT('',(0.012727922061357852,0,-0.012727922061357857));
#67=VERTEX_POINT('',#66);
#68=CARTESIAN_POINT('',(0.012727922061357852,0.09,-0.012727922061357857));
#69=VERTEX_POINT('',#68);
#70=CARTESIAN_POINT('',(0.016629831585203154,0,-0.006888301782571627));
#71=VERTEX_POINT('',#70);
#72=CARTESIAN_POINT('',(0.016629831585203154,0.09,-0.006888301782571627));
#73=VERTEX_POINT('',#72);
#74=CARTESIAN_POINT('',(0,0,0));
#75=VERTEX_POINT('',#74);
#76=CARTESIAN_POINT('',(0,0.09,0));
#77=VERTEX_POINT('',#76);
#78=CARTESIAN_POINT('',(0.018,0,0));
#79=DIRECTION('',(-0.19509032201612814,0,0.9807852804032305));
#80=VECTOR('',#79,0.007023251592580617);
#81=LINE('',#78,#80);
#82=EDGE_CURVE('',#11,#13,#81,.T.);
#83=CARTESIAN_POINT('',(0.01662983158520316,0,0.0068883017825716155));
#84=DIRECTION('',(0,1,0));
#85=VECTOR('',#84,0.09);
#86=LINE('',#83,#85);
#87=EDGE_CURVE('',#13,#15,#86,.T.);
#88=CARTESIAN_POINT('',(0.018,0.09,0));
#89=DIRECTION('',(-0.19509032201612814,0,0.9807852804032305));
#90=VECTOR('',#89,0.007023251592580617);
#91=LINE('',#88,#90);
#92=EDGE_CURVE('',#17,#15,#91,.T.);
#93=CARTESIAN_POINT('',(0.018,0,0));
#94=DIRECTION('',(0,1,0));
#95=VECTOR('',#94,0.09);
#96=LINE('',#93,#95);
#97=EDGE_CURVE('',#11,#17,#96,.T.);
#98=CARTESIAN_POINT('',(0.01662983158520316,0,0.0068883017825716155));
#99=DIRECTION('',(-0.5555702330196023,0,0.8314696123025452));
#100=VECTOR('',#99,0.007023251592580616);
#101=LINE('',#98,#100);
#102=EDGE_CURVE('',#13,#19,#101,.T.);
#103=CARTESIAN_POINT('',(0.012727922061357855,0,0.012727922061357854));
#104=DIRECTION('',(0,1,0));
#105=VECTOR('',#104,0.09);
#106=LINE('',#103,#105);
#107=EDGE_CURVE('',#19,#21,#106,.T.);
#108=CARTESIAN_POINT('',(0.01662983158520316,0.09,0.0068883017825716155));
#109=DIRECTION('',(-0.5555702330196023,0,0.8314696123025452));
#110=VECTOR('',#109,0.007023251592580616);
#111=LINE('',#108,#110);
#112=EDGE_CURVE('',#15,#21,#111,.T.);
#113=CARTESIAN_POINT('',(0.012727922061357855,0,0.012727922061357854));
#114=DIRECTION('',(-0.8314696123025451,0,0.5555702330196024));
#115=VECTOR('',#114,0.007023251592580618);
#116=LINE('',#113,#115);
#117=EDGE_CURVE('',#19,#23,#116,.T.);
#118=CARTESIAN_POINT('',(0.006888301782571616,0,0.01662983158520316));
#119=DIRECTION('',(0,1,0));
#120=VECTOR('',#119,0.09);
#121=LINE('',#118,#120);
#122=EDGE_CURVE('',#23,#25,#121,.T.);
#123=CARTESIAN_POINT('',(0.012727922061357855,0.09,0.012727922061357854));
#124=DIRECTION('',(-0.8314696123025451,0,0.5555702330196024));
#125=VECTOR('',#124,0.007023251592580618);
#126=LINE('',#123,#125);
#127=EDGE_CURVE('',#21,#25,#126,.T.);
#128=CARTESIAN_POINT('',(0.006888301782571616,0,0.01662983158520316));
#129=DIRECTION('',(-0.9807852804032305,0,0.19509032201612814));
#130=VECTOR('',#129,0.007023251592580617);
#131=LINE('',#128,#130);
#132=EDGE_CURVE('',#23,#27,#131,.T.);
#133=CARTESIAN_POINT('',(1.1021821192326178e-18,0,0.018));
#134=DIRECTION('',(0,1,0));
#135=VECTOR('',#134,0.09);
#136=LINE('',#133,#135);
#137=EDGE_CURVE('',#27,#29,#136,.T.);
#138=CARTESIAN_POINT('',(0.006888301782571616,0.09,0.01662983158520316));
#139=DIRECTION('',(-0.9807852804032305,0,0.19509032201612814));
#140=VECTOR('',#139,0.007023251592580617);
#141=LINE('',#138,#140);
#142=EDGE_CURVE('',#25,#29,#141,.T.);
#143=CARTESIAN_POINT('',(1.1021821192326178e-18,0,0.018));
#144=DIRECTION('',(-0.9807852804032305,0,-0.19509032201612814));
#145=VECTOR('',#144,0.007023251592580617);
#146=LINE('',#143,#145);
#147=EDGE_CURVE('',#27,#31,#146,.T.);
#148=CARTESIAN_POINT('',(-0.006888301782571615,0,0.01662983158520316));
#149=DIRECTION('',(0,1,0));
#150=VECTOR('',#149,0.09);
#151=LINE('',#148,#150);
#152=EDGE_CURVE('',#31,#33,#151,.T.);
#153=CARTESIAN_POINT('',(1.1021821192326178e-18,0.09,0.018));
#154=DIRECTION('',(-0.9807852804032305,0,-0.19509032201612814));
#155=VECTOR('',#154,0.007023251592580617);
#156=LINE('',#153,#155);
#157=EDGE_CURVE('',#29,#33,#156,.T.);
#158=CARTESIAN_POINT('',(-0.006888301782571615,0,0.01662983158520316));
#159=DIRECTION('',(-0.8314696123025452,0,-0.5555702330196023));
#160=VECTOR('',#159,0.007023251592580617);
#161=LINE('',#158,#160);
#162=EDGE_CURVE('',#31,#35,#161,.T.);
#163=CARTESIAN_POINT('',(-0.012727922061357854,0,0.012727922061357855));
#164=DIRECTION('',(0,1,0));
#165=VECTOR('',#164,0.09);
#166=LINE('',#163,#165);
#167=EDGE_CURVE('',#35,#37,#166,.T.);
#168=CARTESIAN_POINT('',(-0.006888301782571615,0.09,0.01662983158520316));
#169=DIRECTION('',(-0.8314696123025452,0,-0.5555702330196023));
#170=VECTOR('',#169,0.007023251592580617);
#171=LINE('',#168,#170);
#172=EDGE_CURVE('',#33,#37,#171,.T.);
#173=CARTESIAN_POINT('',(-0.012727922061357854,0,0.012727922061357855));
#174=DIRECTION('',(-0.5555702330196024,0,-0.831469612302545));
#175=VECTOR('',#174,0.007023251592580618);
#176=LINE('',#173,#175);
#177=EDGE_CURVE('',#35,#39,#176,.T.);
#178=CARTESIAN_POINT('',(-0.01662983158520316,0,0.006888301782571617));
#179=DIRECTION('',(0,1,0));
#180=VECTOR('',#179,0.09);
#181=LINE('',#178,#180);
#182=EDGE_CURVE('',#39,#41,#181,.T.);
#183=CARTESIAN_POINT('',(-0.012727922061357854,0.09,0.012727922061357855));
#184=DIRECTION('',(-0.5555702330196024,0,-0.831469612302545));
#185=VECTOR('',#184,0.007023251592580618);
#186=LINE('',#183,#185);
#187=EDGE_CURVE('',#37,#41,#186,.T.);
#188=CARTESIAN_POINT('',(-0.01662983158520316,0,0.006888301782571617));
#189=DIRECTION('',(-0.19509032201612814,0,-0.9807852804032305));
#190=VECTOR('',#189,0.007023251592580616);
#191=LINE('',#188,#190);
#192=EDGE_CURVE('',#39,#43,#191,.T.);
#193=CARTESIAN_POINT('',(-0.018,0,2.2043642384652355e-18));
#194=DIRECTION('',(0,1,0));
#195=VECTOR('',#194,0.09);
#196=LINE('',#193,#195);
#197=EDGE_CURVE('',#43,#45,#196,.T.);
#198=CARTESIAN_POINT('',(-0.01662983158520316,0.09,0.006888301782571617));
#199=DIRECTION('',(-0.19509032201612814,0,-0.9807852804032305));
#200=VECTOR('',#199,0.007023251592580616);
#201=LINE('',#198,#200);
#202=EDGE_CURVE('',#41,#45,#201,.T.);
#203=CARTESIAN_POINT('',(-0.018,0,2.2043642384652355e-18));
#204=DIRECTION('',(0.1950903220161281,0,-0.9807852804032305));
#205=VECTOR('',#204,0.007023251592580618);
#206=LINE('',#203,#205);
#207=EDGE_CURVE('',#43,#47,#206,.T.);
#208=CARTESIAN_POINT('',(-0.01662983158520316,0,-0.006888301782571614));
#209=DIRECTION('',(0,1,0));
#210=VECTOR('',#209,0.09);
#211=LINE('',#208,#210);
#212=EDGE_CURVE('',#47,#49,#211,.T.);
#213=CARTESIAN_POINT('',(-0.018,0.09,2.2043642384652355e-18));
#214=DIRECTION('',(0.1950903220161281,0,-0.9807852804032305));
#215=VECTOR('',#214,0.007023251592580618);
#216=LINE('',#213,#215);
#217=EDGE_CURVE('',#45,#49,#216,.T.);
#218=CARTESIAN_POINT('',(-0.01662983158520316,0,-0.006888301782571614));
#219=DIRECTION('',(0.555570233019602,0,-0.8314696123025453));
#220=VECTOR('',#219,0.007023251592580617);
#221=LINE('',#218,#220);
#222=EDGE_CURVE('',#47,#51,#221,.T.);
#223=CARTESIAN_POINT('',(-0.012727922061357857,0,-0.012727922061357854));
#224=DIRECTION('',(0,1,0));
#225=VECTOR('',#224,0.09);
#226=LINE('',#223,#225);
#227=EDGE_CURVE('',#51,#53,#226,.T.);
#228=CARTESIAN_POINT('',(-0.01662983158520316,0.09,-0.006888301782571614));
#229=DIRECTION('',(0.555570233019602,0,-0.8314696123025453));
#230=VECTOR('',#229,0.007023251592580617);
#231=LINE('',#228,#230);
#232=EDGE_CURVE('',#49,#53,#231,.T.);
#233=CARTESIAN_POINT('',(-0.012727922061357857,0,-0.012727922061357854));
#234=DIRECTION('',(0.8314696123025452,0,-0.5555702330196023));
#235=VECTOR('',#234,0.007023251592580607);
#236=LINE('',#233,#235);
#237=EDGE_CURVE('',#51,#55,#236,.T.);
#238=CARTESIAN_POINT('',(-0.006888301782571626,0,-0.016629831585203154));
#239=DIRECTION('',(0,1,0));
#240=VECTOR('',#239,0.09);
#241=LINE('',#238,#240);
#242=EDGE_CURVE('',#55,#57,#241,.T.);
#243=CARTESIAN_POINT('',(-0.012727922061357857,0.09,-0.012727922061357854));
#244=DIRECTION('',(0.8314696123025452,0,-0.5555702330196023));
#245=VECTOR('',#244,0.007023251592580607);
#246=LINE('',#243,#245);
#247=EDGE_CURVE('',#53,#57,#246,.T.);
#248=CARTESIAN_POINT('',(-0.006888301782571626,0,-0.016629831585203154));
#249=DIRECTION('',(0.9807852804032304,0,-0.1950903220161289));
#250=VECTOR('',#249,0.007023251592580625);
#251=LINE('',#248,#250);
#252=EDGE_CURVE('',#55,#59,#251,.T.);
#253=CARTESIAN_POINT('',(-3.3065463576978533e-18,0,-0.018));
#254=DIRECTION('',(0,1,0));
#255=VECTOR('',#254,0.09);
#256=LINE('',#253,#255);
#257=EDGE_CURVE('',#59,#61,#256,.T.);
#258=CARTESIAN_POINT('',(-0.006888301782571626,0.09,-0.016629831585203154));
#259=DIRECTION('',(0.9807852804032304,0,-0.1950903220161289));
#260=VECTOR('',#259,0.007023251592580625);
#261=LINE('',#258,#260);
#262=EDGE_CURVE('',#57,#61,#261,.T.);
#263=CARTESIAN_POINT('',(-3.3065463576978533e-18,0,-0.018));
#264=DIRECTION('',(0.9807852804032304,0,0.1950903220161284));
#265=VECTOR('',#264,0.0070232515925806255);
#266=LINE('',#263,#265);
#267=EDGE_CURVE('',#59,#63,#266,.T.);
#268=CARTESIAN_POINT('',(0.00688830178257162,0,-0.016629831585203158));
#269=DIRECTION('',(0,1,0));
#270=VECTOR('',#269,0.09);
#271=LINE('',#268,#270);
#272=EDGE_CURVE('',#63,#65,#271,.T.);
#273=CARTESIAN_POINT('',(-3.3065463576978533e-18,0.09,-0.018));
#274=DIRECTION('',(0.9807852804032304,0,0.1950903220161284));
#275=VECTOR('',#274,0.0070232515925806255);
#276=LINE('',#273,#275);
#277=EDGE_CURVE('',#61,#65,#276,.T.);
#278=CARTESIAN_POINT('',(0.00688830178257162,0,-0.016629831585203158));
#279=DIRECTION('',(0.8314696123025453,0,0.5555702330196022));
#280=VECTOR('',#279,0.007023251592580608);
#281=LINE('',#278,#280);
#282=EDGE_CURVE('',#63,#67,#281,.T.);
#283=CARTESIAN_POINT('',(0.012727922061357852,0,-0.012727922061357857));
#284=DIRECTION('',(0,1,0));
#285=VECTOR('',#284,0.09);
#286=LINE('',#283,#285);
#287=EDGE_CURVE('',#67,#69,#286,.T.);
#288=CARTESIAN_POINT('',(0.00688830178257162,0.09,-0.016629831585203158));
#289=DIRECTION('',(0.8314696123025453,0,0.5555702330196022));
#290=VECTOR('',#289,0.007023251592580608);
#291=LINE('',#288,#290);
#292=EDGE_CURVE('',#65,#69,#291,.T.);
#293=CARTESIAN_POINT('',(0.012727922061357852,0,-0.012727922061357857));
#294=DIRECTION('',(0.5555702330196025,0,0.8314696123025451));
#295=VECTOR('',#294,0.007023251592580607);
#296=LINE('',#293,#295);
#297=EDGE_CURVE('',#67,#71,#296,.T.);
#298=CARTESIAN_POINT('',(0.016629831585203154,0,-0.006888301782571627));
#299=DIRECTION('',(0,1,0));
#300=VECTOR('',#299,0.09);
#301=LINE('',#298,#300);
#302=EDGE_CURVE('',#71,#73,#301,.T.);
#303=CARTESIAN_POINT('',(0.012727922061357852,0.09,-0.012727922061357857));
#304=DIRECTION('',(0.5555702330196025,0,0.8314696123025451));
#305=VECTOR('',#304,0.007023251592580607);
#306=LINE('',#303,#305);
#307=EDGE_CURVE('',#69,#73,#306,.T.);
#308=CARTESIAN_POINT('',(0.016629831585203154,0,-0.006888301782571627));
#309=DIRECTION('',(0.19509032201612878,0,0.9807852804032304));
#310=VECTOR('',#309,0.007023251592580629);
#311=LINE('',#308,#310);
#312=EDGE_CURVE('',#71,#11,#311,.T.);
#313=CARTESIAN_POINT('',(0.016629831585203154,0.09,-0.006888301782571627));
#314=DIRECTION('',(0.19509032201612878,0,0.9807852804032304));
#315=VECTOR('',#314,0.007023251592580629);
#316=LINE('',#313,#315);
#317=EDGE_CURVE('',#73,#17,#316,.T.);
#318=CARTESIAN_POINT('',(0,0,0));
#319=DIRECTION('',(1,0,0));
#320=VECTOR('',#319,0.018);
#321=LINE('',#318,#320);
#322=EDGE_CURVE('',#75,#11,#321,.T.);
#323=CARTESIAN_POINT('',(0,0,0));
#324=DIRECTION('',(0.9238795325112868,0,0.3826834323650898));
#325=VECTOR('',#324,0.018);
#326=LINE('',#323,#325);
#327=EDGE_CURVE('',#75,#13,#326,.T.);
#328=CARTESIAN_POINT('',(0,0,0));
#329=DIRECTION('',(0.7071067811865476,0,0.7071067811865475));
#330=VECTOR('',#329,0.018);
#331=LINE('',#328,#330);
#332=EDGE_CURVE('',#75,#19,#331,.T.);
#333=CARTESIAN_POINT('',(0,0,0));
#334=DIRECTION('',(0.3826834323650897,0,0.9238795325112866));
#335=VECTOR('',#334,0.018000000000000002);
#336=LINE('',#333,#335);
#337=EDGE_CURVE('',#75,#23,#336,.T.);
#338=CARTESIAN_POINT('',(0,0,0));
#339=DIRECTION('',(6.123233995736766e-17,0,1));
#340=VECTOR('',#339,0.018);
#341=LINE('',#338,#340);
#342=EDGE_CURVE('',#75,#27,#341,.T.);
#343=CARTESIAN_POINT('',(0,0,0));
#344=DIRECTION('',(-0.3826834323650897,0,0.9238795325112868));
#345=VECTOR('',#344,0.018);
#346=LINE('',#343,#345);
#347=EDGE_CURVE('',#75,#31,#346,.T.);
#348=CARTESIAN_POINT('',(0,0,0));
#349=DIRECTION('',(-0.7071067811865475,0,0.7071067811865476));
#350=VECTOR('',#349,0.018);
#351=LINE('',#348,#350);
#352=EDGE_CURVE('',#75,#35,#351,.T.);
#353=CARTESIAN_POINT('',(0,0,0));
#354=DIRECTION('',(-0.9238795325112866,0,0.3826834323650898));
#355=VECTOR('',#354,0.018000000000000002);
#356=LINE('',#353,#355);
#357=EDGE_CURVE('',#75,#39,#356,.T.);
#358=CARTESIAN_POINT('',(0,0,0));
#359=DIRECTION('',(-1,0,1.2246467991473532e-16));
#360=VECTOR('',#359,0.018);
#361=LINE('',#358,#360);
#362=EDGE_CURVE('',#75,#43,#361,.T.);
#363=CARTESIAN_POINT('',(0,0,0));
#364=DIRECTION('',(-0.9238795325112868,0,-0.38268343236508967));
#365=VECTOR('',#364,0.018);
#366=LINE('',#363,#365);
#367=EDGE_CURVE('',#75,#47,#366,.T.);
#368=CARTESIAN_POINT('',(0,0,0));
#369=DIRECTION('',(-0.7071067811865477,0,-0.7071067811865475));
#370=VECTOR('',#369,0.018);
#371=LINE('',#368,#370);
#372=EDGE_CURVE('',#75,#51,#371,.T.);
#373=CARTESIAN_POINT('',(0,0,0));
#374=DIRECTION('',(-0.38268343236509034,0,-0.9238795325112864));
#375=VECTOR('',#374,0.018);
#376=LINE('',#373,#375);
#377=EDGE_CURVE('',#75,#55,#376,.T.);
#378=CARTESIAN_POINT('',(0,0,0));
#379=DIRECTION('',(-1.8369701987210297e-16,0,-1));
#380=VECTOR('',#379,0.018);
#381=LINE('',#378,#380);
#382=EDGE_CURVE('',#75,#59,#381,.T.);
#383=CARTESIAN_POINT('',(0,0,0));
#384=DIRECTION('',(0.38268343236509,0,-0.9238795325112866));
#385=VECTOR('',#384,0.018);
#386=LINE('',#383,#385);
#387=EDGE_CURVE('',#75,#63,#386,.T.);
#388=CARTESIAN_POINT('',(0,0,0));
#389=DIRECTION('',(0.7071067811865474,0,-0.7071067811865477));
#390=VECTOR('',#389,0.018);
#391=LINE('',#388,#390);
#392=EDGE_CURVE('',#75,#67,#391,.T.);
#393=CARTESIAN_POINT('',(0,0,0));
#394=DIRECTION('',(0.9238795325112864,0,-0.3826834323650904));
#395=VECTOR('',#394,0.018);
#396=LINE('',#393,#395);
#397=EDGE_CURVE('',#75,#71,#396,.T.);
#398=CARTESIAN_POINT('',(0,0.09,0));
#399=DIRECTION('',(1,0,0));
#400=VECTOR('',#399,0.018);
#401=LINE('',#398,#400);
#402=EDGE_CURVE('',#77,#17,#401,.T.);
#403=CARTESIAN_POINT('',(0,0.09,0));
#404=DIRECTION('',(0.9238795325112868,0,0.3826834323650898));
#405=VECTOR('',#404,0.018);
#406=LINE('',#403,#405);
#407=EDGE_CURVE('',#77,#15,#406,.T.);
#408=CARTESIAN_POINT('',(0,0.09,0));
#409=DIRECTION('',(0.7071067811865476,0,0.7071067811865475));
#410=VECTOR('',#409,0.018);
#411=LINE('',#408,#410);
#412=EDGE_CURVE('',#77,#21,#411,.T.);
#413=CARTESIAN_POINT('',(0,0.09,0));
#414=DIRECTION('',(0.3826834323650897,0,0.9238795325112866));
#415=VECTOR('',#414,0.018000000000000002);
#416=LINE('',#413,#415);
#417=EDGE_CURVE('',#77,#25,#416,.T.);
#418=CARTESIAN_POINT('',(0,0.09,0));
#419=DIRECTION('',(6.123233995736766e-17,0,1));
#420=VECTOR('',#419,0.018);
#421=LINE('',#418,#420);
#422=EDGE_CURVE('',#77,#29,#421,.T.);
#423=CARTESIAN_POINT('',(0,0.09,0));
#424=DIRECTION('',(-0.3826834323650897,0,0.9238795325112868));
#425=VECTOR('',#424,0.018);
#426=LINE('',#423,#425);
#427=EDGE_CURVE('',#77,#33,#426,.T.);
#428=CARTESIAN_POINT('',(0,0.09,0));
#429=DIRECTION('',(-0.7071067811865475,0,0.7071067811865476));
#430=VECTOR('',#429,0.018);
#431=LINE('',#428,#430);
#432=EDGE_CURVE('',#77,#37,#431,.T.);
#433=CARTESIAN_POINT('',(0,0.09,0));
#434=DIRECTION('',(-0.9238795325112866,0,0.3826834323650898));
#435=VECTOR('',#434,0.018000000000000002);
#436=LINE('',#433,#435);
#437=EDGE_CURVE('',#77,#41,#436,.T.);
#438=CARTESIAN_POINT('',(0,0.09,0));
#439=DIRECTION('',(-1,0,1.2246467991473532e-16));
#440=VECTOR('',#439,0.018);
#441=LINE('',#438,#440);
#442=EDGE_CURVE('',#77,#45,#441,.T.);
#443=CARTESIAN_POINT('',(0,0.09,0));
#444=DIRECTION('',(-0.9238795325112868,0,-0.38268343236508967));
#445=VECTOR('',#444,0.018);
#446=LINE('',#443,#445);
#447=EDGE_CURVE('',#77,#49,#446,.T.);
#448=CARTESIAN_POINT('',(0,0.09,0));
#449=DIRECTION('',(-0.7071067811865477,0,-0.7071067811865475));
#450=VECTOR('',#449,0.018);
#451=LINE('',#448,#450);
#452=EDGE_CURVE('',#77,#53,#451,.T.);
#453=CARTESIAN_POINT('',(0,0.09,0));
#454=DIRECTION('',(-0.38268343236509034,0,-0.9238795325112864));
#455=VECTOR('',#454,0.018);
#456=LINE('',#453,#455);
#457=EDGE_CURVE('',#77,#57,#456,.T.);
#458=CARTESIAN_POINT('',(0,0.09,0));
#459=DIRECTION('',(-1.8369701987210297e-16,0,-1));
#460=VECTOR('',#459,0.018);
#461=LINE('',#458,#460);
#462=EDGE_CURVE('',#77,#61,#461,.T.);
#463=CARTESIAN_POINT('',(0,0.09,0));
#464=DIRECTION('',(0.38268343236509,0,-0.9238795325112866));
#465=VECTOR('',#464,0.018);
#466=LINE('',#463,#465);
#467=EDGE_CURVE('',#77,#65,#466,.T.);
#468=CARTESIAN_POINT('',(0,0.09,0));
#469=DIRECTION('',(0.7071067811865474,0,-0.7071067811865477));
#470=VECTOR('',#469,0.018);
#471=LINE('',#468,#470);
#472=EDGE_CURVE('',#77,#69,#471,.T.);
#473=CARTESIAN_POINT('',(0,0.09,0));
#474=DIRECTION('',(0.9238795325112864,0,-0.3826834323650904));
#475=VECTOR('',#474,0.018);
#476=LINE('',#473,#475);
#477=EDGE_CURVE('',#77,#73,#476,.T.);
#478=CARTESIAN_POINT('',(0.017314915792601582,0.045,0.0034441508912858077));
#479=DIRECTION('',(-0.9807852804032305,0,-0.1950903220161281));
#480=DIRECTION('',(0,-1,0));
#481=AXIS2_PLACEMENT_3D('',#478,#479,#480);
#482=PLANE('',#481);
#483=ORIENTED_EDGE('',*,*,#82,.T.);
#484=ORIENTED_EDGE('',*,*,#87,.T.);
#485=ORIENTED_EDGE('',*,*,#92,.F.);
#486=ORIENTED_EDGE('',*,*,#97,.F.);
#487=EDGE_LOOP('',(#483,#484,#485,#486));
#488=FACE_OUTER_BOUND('',#487,.T.);
#489=ADVANCED_FACE('',(#488),#482,.T.);
#490=CARTESIAN_POINT('',(0.014678876823280508,0.045,0.009808111921964735));
#491=DIRECTION('',(-0.8314696123025452,0,-0.5555702330196023));
#492=DIRECTION('',(0,-1,0));
#493=AXIS2_PLACEMENT_3D('',#490,#491,#492);
#494=PLANE('',#493);
#495=ORIENTED_EDGE('',*,*,#102,.T.);
#496=ORIENTED_EDGE('',*,*,#107,.T.);
#497=ORIENTED_EDGE('',*,*,#112,.F.);
#498=ORIENTED_EDGE('',*,*,#87,.F.);
#499=EDGE_LOOP('',(#495,#496,#497,#498));
#500=FACE_OUTER_BOUND('',#499,.T.);
#501=ADVANCED_FACE('',(#500),#494,.T.);
#502=CARTESIAN_POINT('',(0.009808111921964735,0.045,0.014678876823280507));
#503=DIRECTION('',(-0.5555702330196022,0,-0.8314696123025451));
#504=DIRECTION('',(0,-1,0));
#505=AXIS2_PLACEMENT_3D('',#502,#503,#504);
#506=PLANE('',#505);
#507=ORIENTED_EDGE('',*,*,#117,.T.);
#508=ORIENTED_EDGE('',*,*,#122,.T.);
#509=ORIENTED_EDGE('',*,*,#127,.F.);
#510=ORIENTED_EDGE('',*,*,#107,.F.);
#511=EDGE_LOOP('',(#507,#508,#509,#510));
#512=FACE_OUTER_BOUND('',#511,.T.);
#513=ADVANCED_FACE('',(#512),#506,.T.);
#514=CARTESIAN_POINT('',(0.0034441508912858086,0.045,0.017314915792601582));
#515=DIRECTION('',(-0.19509032201612836,0,-0.9807852804032305));
#516=DIRECTION('',(1,0,0));
#517=AXIS2_PLACEMENT_3D('',#514,#515,#516);
#518=PLANE('',#517);
#519=ORIENTED_EDGE('',*,*,#132,.T.);
#520=ORIENTED_EDGE('',*,*,#137,.T.);
#521=ORIENTED_EDGE('',*,*,#142,.F.);
#522=ORIENTED_EDGE('',*,*,#122,.F.);
#523=EDGE_LOOP('',(#519,#520,#521,#522));
#524=FACE_OUTER_BOUND('',#523,.T.);
#525=ADVANCED_FACE('',(#524),#518,.T.);
#526=CARTESIAN_POINT('',(-0.003444150891285807,0.045,0.017314915792601582));
#527=DIRECTION('',(0.19509032201612836,0,-0.9807852804032305));
#528=DIRECTION('',(1,0,0));
#529=AXIS2_PLACEMENT_3D('',#526,#527,#528);
#530=PLANE('',#529);
#531=ORIENTED_EDGE('',*,*,#147,.T.);
#532=ORIENTED_EDGE('',*,*,#152,.T.);
#533=ORIENTED_EDGE('',*,*,#157,.F.);
#534=ORIENTED_EDGE('',*,*,#137,.F.);
#535=EDGE_LOOP('',(#531,#532,#533,#534));
#536=FACE_OUTER_BOUND('',#535,.T.);
#537=ADVANCED_FACE('',(#536),#530,.T.);
#538=CARTESIAN_POINT('',(-0.009808111921964735,0.045,0.014678876823280508));
#539=DIRECTION('',(0.5555702330196021,0,-0.8314696123025455));
#540=DIRECTION('',(0,1,0));
#541=AXIS2_PLACEMENT_3D('',#538,#539,#540);
#542=PLANE('',#541);
#543=ORIENTED_EDGE('',*,*,#162,.T.);
#544=ORIENTED_EDGE('',*,*,#167,.T.);
#545=ORIENTED_EDGE('',*,*,#172,.F.);
#546=ORIENTED_EDGE('',*,*,#152,.F.);
#547=EDGE_LOOP('',(#543,#544,#545,#546));
#548=FACE_OUTER_BOUND('',#547,.T.);
#549=ADVANCED_FACE('',(#548),#542,.T.);
#550=CARTESIAN_POINT('',(-0.014678876823280507,0.045,0.009808111921964737));
#551=DIRECTION('',(0.8314696123025451,0,-0.5555702330196024));
#552=DIRECTION('',(0,1,0));
#553=AXIS2_PLACEMENT_3D('',#550,#551,#552);
#554=PLANE('',#553);
#555=ORIENTED_EDGE('',*,*,#177,.T.);
#556=ORIENTED_EDGE('',*,*,#182,.T.);
#557=ORIENTED_EDGE('',*,*,#187,.F.);
#558=ORIENTED_EDGE('',*,*,#167,.F.);
#559=EDGE_LOOP('',(#555,#556,#557,#558));
#560=FACE_OUTER_BOUND('',#559,.T.);
#561=ADVANCED_FACE('',(#560),#554,.T.);
#562=CARTESIAN_POINT('',(-0.017314915792601582,0.045,0.00344415089128581));
#563=DIRECTION('',(0.9807852804032304,0,-0.19509032201612814));
#564=DIRECTION('',(0,1,0));
#565=AXIS2_PLACEMENT_3D('',#562,#563,#564);
#566=PLANE('',#565);
#567=ORIENTED_EDGE('',*,*,#192,.T.);
#568=ORIENTED_EDGE('',*,*,#197,.T.);
#569=ORIENTED_EDGE('',*,*,#202,.F.);
#570=ORIENTED_EDGE('',*,*,#182,.F.);
#571=EDGE_LOOP('',(#567,#568,#569,#570));
#572=FACE_OUTER_BOUND('',#571,.T.);
#573=ADVANCED_FACE('',(#572),#566,.T.);
#574=CARTESIAN_POINT('',(-0.017314915792601582,0.045,-0.003444150891285806));
#575=DIRECTION('',(0.9807852804032305,0,0.1950903220161281));
#576=DIRECTION('',(0,1,0));
#577=AXIS2_PLACEMENT_3D('',#574,#575,#576);
#578=PLANE('',#577);
#579=ORIENTED_EDGE('',*,*,#207,.T.);
#580=ORIENTED_EDGE('',*,*,#212,.T.);
#581=ORIENTED_EDGE('',*,*,#217,.F.);
#582=ORIENTED_EDGE('',*,*,#197,.F.);
#583=EDGE_LOOP('',(#579,#580,#581,#582));
#584=FACE_OUTER_BOUND('',#583,.T.);
#585=ADVANCED_FACE('',(#584),#578,.T.);
#586=CARTESIAN_POINT('',(-0.01467887682328051,0.045,-0.009808111921964733));
#587=DIRECTION('',(0.8314696123025455,0,0.555570233019602));
#588=DIRECTION('',(0,1,0));
#589=AXIS2_PLACEMENT_3D('',#586,#587,#588);
#590=PLANE('',#589);
#591=ORIENTED_EDGE('',*,*,#222,.T.);
#592=ORIENTED_EDGE('',*,*,#227,.T.);
#593=ORIENTED_EDGE('',*,*,#232,.F.);
#594=ORIENTED_EDGE('',*,*,#212,.F.);
#595=EDGE_LOOP('',(#591,#592,#593,#594));
#596=FACE_OUTER_BOUND('',#595,.T.);
#597=ADVANCED_FACE('',(#596),#590,.T.);
#598=CARTESIAN_POINT('',(-0.009808111921964742,0.045,-0.014678876823280503));
#599=DIRECTION('',(0.5555702330196021,0,0.8314696123025452));
#600=DIRECTION('',(0,1,0));
#601=AXIS2_PLACEMENT_3D('',#598,#599,#600);
#602=PLANE('',#601);
#603=ORIENTED_EDGE('',*,*,#237,.T.);
#604=ORIENTED_EDGE('',*,*,#242,.T.);
#605=ORIENTED_EDGE('',*,*,#247,.F.);
#606=ORIENTED_EDGE('',*,*,#227,.F.);
#607=EDGE_LOOP('',(#603,#604,#605,#606));
#608=FACE_OUTER_BOUND('',#607,.T.);
#609=ADVANCED_FACE('',(#608),#602,.T.);
#610=CARTESIAN_POINT('',(-0.0034441508912858147,0.045,-0.017314915792601575));
#611=DIRECTION('',(0.19509032201612916,0,0.9807852804032303));
#612=DIRECTION('',(1,0,0));
#613=AXIS2_PLACEMENT_3D('',#610,#611,#612);
#614=PLANE('',#613);
#615=ORIENTED_EDGE('',*,*,#252,.T.);
#616=ORIENTED_EDGE('',*,*,#257,.T.);
#617=ORIENTED_EDGE('',*,*,#262,.F.);
#618=ORIENTED_EDGE('',*,*,#242,.F.);
#619=EDGE_LOOP('',(#615,#616,#617,#618));
#620=FACE_OUTER_BOUND('',#619,.T.);
#621=ADVANCED_FACE('',(#620),#614,.T.);
#622=CARTESIAN_POINT('',(0.003444150891285808,0.045,-0.01731491579260158));
#623=DIRECTION('',(-0.19509032201612847,0,0.9807852804032303));
#624=DIRECTION('',(1,0,0));
#625=AXIS2_PLACEMENT_3D('',#622,#623,#624);
#626=PLANE('',#625);
#627=ORIENTED_EDGE('',*,*,#267,.T.);
#628=ORIENTED_EDGE('',*,*,#272,.T.);
#629=ORIENTED_EDGE('',*,*,#277,.F.);
#630=ORIENTED_EDGE('',*,*,#257,.F.);
#631=EDGE_LOOP('',(#627,#628,#629,#630));
#632=FACE_OUTER_BOUND('',#631,.T.);
#633=ADVANCED_FACE('',(#632),#626,.T.);
#634=CARTESIAN_POINT('',(0.009808111921964735,0.045,-0.014678876823280507));
#635=DIRECTION('',(-0.5555702330196023,0,0.8314696123025452));
#636=DIRECTION('',(0,-1,0));
#637=AXIS2_PLACEMENT_3D('',#634,#635,#636);
#638=PLANE('',#637);
#639=ORIENTED_EDGE('',*,*,#282,.T.);
#640=ORIENTED_EDGE('',*,*,#287,.T.);
#641=ORIENTED_EDGE('',*,*,#292,.F.);
#642=ORIENTED_EDGE('',*,*,#272,.F.);
#643=EDGE_LOOP('',(#639,#640,#641,#642));
#644=FACE_OUTER_BOUND('',#643,.T.);
#645=ADVANCED_FACE('',(#644),#638,.T.);
#646=CARTESIAN_POINT('',(0.014678876823280503,0.045,-0.009808111921964742));
#647=DIRECTION('',(-0.831469612302545,0,0.5555702330196025));
#648=DIRECTION('',(0,-1,0));
#649=AXIS2_PLACEMENT_3D('',#646,#647,#648);
#650=PLANE('',#649);
#651=ORIENTED_EDGE('',*,*,#297,.T.);
#652=ORIENTED_EDGE('',*,*,#302,.T.);
#653=ORIENTED_EDGE('',*,*,#307,.F.);
#654=ORIENTED_EDGE('',*,*,#287,.F.);
#655=EDGE_LOOP('',(#651,#652,#653,#654));
#656=FACE_OUTER_BOUND('',#655,.T.);
#657=ADVANCED_FACE('',(#656),#650,.T.);
#658=CARTESIAN_POINT('',(0.017314915792601575,0.045,-0.0034441508912858134));
#659=DIRECTION('',(-0.9807852804032303,0,0.19509032201612878));
#660=DIRECTION('',(0,-1,0));
#661=AXIS2_PLACEMENT_3D('',#658,#659,#660);
#662=PLANE('',#661);
#663=ORIENTED_EDGE('',*,*,#312,.T.);
#664=ORIENTED_EDGE('',*,*,#97,.T.);
#665=ORIENTED_EDGE('',*,*,#317,.F.);
#666=ORIENTED_EDGE('',*,*,#302,.F.);
#667=EDGE_LOOP('',(#663,#664,#665,#666));
#668=FACE_OUTER_BOUND('',#667,.T.);
#669=ADVANCED_FACE('',(#668),#662,.T.);
#670=CARTESIAN_POINT('',(0.011543277195067722,0,0.0022961005941905385));
#671=DIRECTION('',(0,-1,0));
#672=DIRECTION('',(1,0,0));
#673=AXIS2_PLACEMENT_3D('',#670,#671,#672);
#674=PLANE('',#673);
#675=ORIENTED_EDGE('',*,*,#322,.T.);
#676=ORIENTED_EDGE('',*,*,#82,.T.);
#677=ORIENTED_EDGE('',*,*,#327,.F.);
#678=EDGE_LOOP('',(#675,#676,#677));
#679=FACE_OUTER_BOUND('',#678,.T.);
#680=ADVANCED_FACE('',(#679),#674,.T.);
#681=CARTESIAN_POINT('',(0.009785917882187006,0,0.006538741281309823));
#682=DIRECTION('',(0,-1,0));
#683=DIRECTION('',(1,0,0));
#684=AXIS2_PLACEMENT_3D('',#681,#682,#683);
#685=PLANE('',#684);
#686=ORIENTED_EDGE('',*,*,#327,.T.);
#687=ORIENTED_EDGE('',*,*,#102,.T.);
#688=ORIENTED_EDGE('',*,*,#332,.F.);
#689=EDGE_LOOP('',(#686,#687,#688));
#690=FACE_OUTER_BOUND('',#689,.T.);
#691=ADVANCED_FACE('',(#690),#685,.T.);
#692=CARTESIAN_POINT('',(0.006538741281309823,0,0.009785917882187004));
#693=DIRECTION('',(0,-1,0));
#694=DIRECTION('',(1,0,0));
#695=AXIS2_PLACEMENT_3D('',#692,#693,#694);
#696=PLANE('',#695);
#697=ORIENTED_EDGE('',*,*,#332,.T.);
#698=ORIENTED_EDGE('',*,*,#117,.T.);
#699=ORIENTED_EDGE('',*,*,#337,.F.);
#700=EDGE_LOOP('',(#697,#698,#699));
#701=FACE_OUTER_BOUND('',#700,.T.);
#702=ADVANCED_FACE('',(#701),#696,.T.);
#703=CARTESIAN_POINT('',(0.002296100594190539,0,0.011543277195067722));
#704=DIRECTION('',(0,-1,0));
#705=DIRECTION('',(1,0,0));
#706=AXIS2_PLACEMENT_3D('',#703,#704,#705);
#707=PLANE('',#706);
#708=ORIENTED_EDGE('',*,*,#337,.T.);
#709=ORIENTED_EDGE('',*,*,#132,.T.);
#710=ORIENTED_EDGE('',*,*,#342,.F.);
#711=EDGE_LOOP('',(#708,#709,#710));
#712=FACE_OUTER_BOUND('',#711,.T.);
#713=ADVANCED_FACE('',(#712),#707,.T.);
#714=CARTESIAN_POINT('',(-0.002296100594190538,0,0.011543277195067722));
#715=DIRECTION('',(0,-1,0));
#716=DIRECTION('',(1,0,0));
#717=AXIS2_PLACEMENT_3D('',#714,#715,#716);
#718=PLANE('',#717);
#719=ORIENTED_EDGE('',*,*,#342,.T.);
#720=ORIENTED_EDGE('',*,*,#147,.T.);
#721=ORIENTED_EDGE('',*,*,#347,.F.);
#722=EDGE_LOOP('',(#719,#720,#721));
#723=FACE_OUTER_BOUND('',#722,.T.);
#724=ADVANCED_FACE('',(#723),#718,.T.);
#725=CARTESIAN_POINT('',(-0.006538741281309823,0,0.009785917882187006));
#726=DIRECTION('',(0,-1,0));
#727=DIRECTION('',(1,0,0));
#728=AXIS2_PLACEMENT_3D('',#725,#726,#727);
#729=PLANE('',#728);
#730=ORIENTED_EDGE('',*,*,#347,.T.);
#731=ORIENTED_EDGE('',*,*,#162,.T.);
#732=ORIENTED_EDGE('',*,*,#352,.F.);
#733=EDGE_LOOP('',(#730,#731,#732));
#734=FACE_OUTER_BOUND('',#733,.T.);
#735=ADVANCED_FACE('',(#734),#729,.T.);
#736=CARTESIAN_POINT('',(-0.009785917882187004,0,0.006538741281309824));
#737=DIRECTION('',(0,-1,0));
#738=DIRECTION('',(1,0,0));
#739=AXIS2_PLACEMENT_3D('',#736,#737,#738);
#740=PLANE('',#739);
#741=ORIENTED_EDGE('',*,*,#352,.T.);
#742=ORIENTED_EDGE('',*,*,#177,.T.);
#743=ORIENTED_EDGE('',*,*,#357,.F.);
#744=EDGE_LOOP('',(#741,#742,#743));
#745=FACE_OUTER_BOUND('',#744,.T.);
#746=ADVANCED_FACE('',(#745),#740,.T.);
#747=CARTESIAN_POINT('',(-0.011543277195067722,0,0.00229610059419054));
#748=DIRECTION('',(0,-1,0));
#749=DIRECTION('',(1,0,0));
#750=AXIS2_PLACEMENT_3D('',#747,#748,#749);
#751=PLANE('',#750);
#752=ORIENTED_EDGE('',*,*,#357,.T.);
#753=ORIENTED_EDGE('',*,*,#192,.T.);
#754=ORIENTED_EDGE('',*,*,#362,.F.);
#755=EDGE_LOOP('',(#752,#753,#754));
#756=FACE_OUTER_BOUND('',#755,.T.);
#757=ADVANCED_FACE('',(#756),#751,.T.);
#758=CARTESIAN_POINT('',(-0.011543277195067722,0,-0.002296100594190537));
#759=DIRECTION('',(0,-1,0));
#760=DIRECTION('',(1,0,0));
#761=AXIS2_PLACEMENT_3D('',#758,#759,#760);
#762=PLANE('',#761);
#763=ORIENTED_EDGE('',*,*,#362,.T.);
#764=ORIENTED_EDGE('',*,*,#207,.T.);
#765=ORIENTED_EDGE('',*,*,#367,.F.);
#766=EDGE_LOOP('',(#763,#764,#765));
#767=FACE_OUTER_BOUND('',#766,.T.);
#768=ADVANCED_FACE('',(#767),#762,.T.);
#769=CARTESIAN_POINT('',(-0.009785917882187007,0,-0.0065387412813098225));
#770=DIRECTION('',(0,-1,0));
#771=DIRECTION('',(1,0,0));
#772=AXIS2_PLACEMENT_3D('',#769,#770,#771);
#773=PLANE('',#772);
#774=ORIENTED_EDGE('',*,*,#367,.T.);
#775=ORIENTED_EDGE('',*,*,#222,.T.);
#776=ORIENTED_EDGE('',*,*,#372,.F.);
#777=EDGE_LOOP('',(#774,#775,#776));
#778=FACE_OUTER_BOUND('',#777,.T.);
#779=ADVANCED_FACE('',(#778),#773,.T.);
#780=CARTESIAN_POINT('',(-0.006538741281309828,0,-0.009785917882187002));
#781=DIRECTION('',(0,-1,0));
#782=DIRECTION('',(1,0,0));
#783=AXIS2_PLACEMENT_3D('',#780,#781,#782);
#784=PLANE('',#783);
#785=ORIENTED_EDGE('',*,*,#372,.T.);
#786=ORIENTED_EDGE('',*,*,#237,.T.);
#787=ORIENTED_EDGE('',*,*,#377,.F.);
#788=EDGE_LOOP('',(#785,#786,#787));
#789=FACE_OUTER_BOUND('',#788,.T.);
#790=ADVANCED_FACE('',(#789),#784,.T.);
#791=CARTESIAN_POINT('',(-0.0022961005941905433,0,-0.011543277195067717));
#792=DIRECTION('',(0,-1,0));
#793=DIRECTION('',(1,0,0));
#794=AXIS2_PLACEMENT_3D('',#791,#792,#793);
#795=PLANE('',#794);
#796=ORIENTED_EDGE('',*,*,#377,.T.);
#797=ORIENTED_EDGE('',*,*,#252,.T.);
#798=ORIENTED_EDGE('',*,*,#382,.F.);
#799=EDGE_LOOP('',(#796,#797,#798));
#800=FACE_OUTER_BOUND('',#799,.T.);
#801=ADVANCED_FACE('',(#800),#795,.T.);
#802=CARTESIAN_POINT('',(0.002296100594190539,0,-0.011543277195067718));
#803=DIRECTION('',(0,-1,0));
#804=DIRECTION('',(1,0,0));
#805=AXIS2_PLACEMENT_3D('',#802,#803,#804);
#806=PLANE('',#805);
#807=ORIENTED_EDGE('',*,*,#382,.T.);
#808=ORIENTED_EDGE('',*,*,#267,.T.);
#809=ORIENTED_EDGE('',*,*,#387,.F.);
#810=EDGE_LOOP('',(#807,#808,#809));
#811=FACE_OUTER_BOUND('',#810,.T.);
#812=ADVANCED_FACE('',(#811),#806,.T.);
#813=CARTESIAN_POINT('',(0.006538741281309823,0,-0.009785917882187004));
#814=DIRECTION('',(0,-1,0));
#815=DIRECTION('',(1,0,0));
#816=AXIS2_PLACEMENT_3D('',#813,#814,#815);
#817=PLANE('',#816);
#818=ORIENTED_EDGE('',*,*,#387,.T.);
#819=ORIENTED_EDGE('',*,*,#282,.T.);
#820=ORIENTED_EDGE('',*,*,#392,.F.);
#821=EDGE_LOOP('',(#818,#819,#820));
#822=FACE_OUTER_BOUND('',#821,.T.);
#823=ADVANCED_FACE('',(#822),#817,.T.);
#824=CARTESIAN_POINT('',(0.009785917882187002,0,-0.006538741281309828));
#825=DIRECTION('',(0,-1,0));
#826=DIRECTION('',(1,0,0));
#827=AXIS2_PLACEMENT_3D('',#824,#825,#826);
#828=PLANE('',#827);
#829=ORIENTED_EDGE('',*,*,#392,.T.);
#830=ORIENTED_EDGE('',*,*,#297,.T.);
#831=ORIENTED_EDGE('',*,*,#397,.F.);
#832=EDGE_LOOP('',(#829,#830,#831));
#833=FACE_OUTER_BOUND('',#832,.T.);
#834=ADVANCED_FACE('',(#833),#828,.T.);
#835=CARTESIAN_POINT('',(0.011543277195067717,0,-0.0022961005941905424));
#836=DIRECTION('',(0,-1,0));
#837=DIRECTION('',(1,0,0));
#838=AXIS2_PLACEMENT_3D('',#835,#836,#837);
#839=PLANE('',#838);
#840=ORIENTED_EDGE('',*,*,#397,.T.);
#841=ORIENTED_EDGE('',*,*,#312,.T.);
#842=ORIENTED_EDGE('',*,*,#322,.F.);
#843=EDGE_LOOP('',(#840,#841,#842));
#844=FACE_OUTER_BOUND('',#843,.T.);
#845=ADVANCED_FACE('',(#844),#839,.T.);
#846=CARTESIAN_POINT('',(0.011543277195067722,0.09000000000000001,0.0022961005941905385));
#847=DIRECTION('',(0,-1,-3.497724456810047e-15));
#848=DIRECTION('',(1,0,0));
#849=AXIS2_PLACEMENT_3D('',#846,#847,#848);
#850=PLANE('',#849);
#851=ORIENTED_EDGE('',*,*,#402,.T.);
#852=ORIENTED_EDGE('',*,*,#92,.T.);
#853=ORIENTED_EDGE('',*,*,#407,.F.);
#854=EDGE_LOOP('',(#851,#852,#853));
#855=FACE_OUTER_BOUND('',#854,.T.);
#856=ADVANCED_FACE('',(#855),#850,.T.);
#857=CARTESIAN_POINT('',(0.009785917882187006,0.09000000000000001,0.006538741281309823));
#858=DIRECTION('',(0,-1,3.497724456810049e-15));
#859=DIRECTION('',(1,0,0));
#860=AXIS2_PLACEMENT_3D('',#857,#858,#859);
#861=PLANE('',#860);
#862=ORIENTED_EDGE('',*,*,#407,.T.);
#863=ORIENTED_EDGE('',*,*,#112,.T.);
#864=ORIENTED_EDGE('',*,*,#412,.F.);
#865=EDGE_LOOP('',(#862,#863,#864));
#866=FACE_OUTER_BOUND('',#865,.T.);
#867=ADVANCED_FACE('',(#866),#861,.T.);
#868=CARTESIAN_POINT('',(0.006538741281309823,0.09000000000000001,0.009785917882187004));
#869=DIRECTION('',(0,-1,-1.7488622284050238e-15));
#870=DIRECTION('',(1,0,0));
#871=AXIS2_PLACEMENT_3D('',#868,#869,#870);
#872=PLANE('',#871);
#873=ORIENTED_EDGE('',*,*,#412,.T.);
#874=ORIENTED_EDGE('',*,*,#127,.T.);
#875=ORIENTED_EDGE('',*,*,#417,.F.);
#876=EDGE_LOOP('',(#873,#874,#875));
#877=FACE_OUTER_BOUND('',#876,.T.);
#878=ADVANCED_FACE('',(#877),#872,.T.);
#879=CARTESIAN_POINT('',(0.002296100594190539,0.09000000000000001,0.011543277195067722));
#880=DIRECTION('',(0,-1,1.6000781528203305e-15));
#881=DIRECTION('',(1,0,0));
#882=AXIS2_PLACEMENT_3D('',#879,#880,#881);
#883=PLANE('',#882);
#884=ORIENTED_EDGE('',*,*,#417,.T.);
#885=ORIENTED_EDGE('',*,*,#142,.T.);
#886=ORIENTED_EDGE('',*,*,#422,.F.);
#887=EDGE_LOOP('',(#884,#885,#886));
#888=FACE_OUTER_BOUND('',#887,.T.);
#889=ADVANCED_FACE('',(#888),#883,.T.);
#890=CARTESIAN_POINT('',(-0.002296100594190538,0.09000000000000001,0.011543277195067722));
#891=DIRECTION('',(0,-1,0));
#892=DIRECTION('',(1,0,0));
#893=AXIS2_PLACEMENT_3D('',#890,#891,#892);
#894=PLANE('',#893);
#895=ORIENTED_EDGE('',*,*,#422,.T.);
#896=ORIENTED_EDGE('',*,*,#157,.T.);
#897=ORIENTED_EDGE('',*,*,#427,.F.);
#898=EDGE_LOOP('',(#895,#896,#897));
#899=FACE_OUTER_BOUND('',#898,.T.);
#900=ADVANCED_FACE('',(#899),#894,.T.);
#901=CARTESIAN_POINT('',(-0.006538741281309823,0.09000000000000001,0.009785917882187006));
#902=DIRECTION('',(0,-1,0));
#903=DIRECTION('',(1,0,0));
#904=AXIS2_PLACEMENT_3D('',#901,#902,#903);
#905=PLANE('',#904);
#906=ORIENTED_EDGE('',*,*,#427,.T.);
#907=ORIENTED_EDGE('',*,*,#172,.T.);
#908=ORIENTED_EDGE('',*,*,#432,.F.);
#909=EDGE_LOOP('',(#906,#907,#908));
#910=FACE_OUTER_BOUND('',#909,.T.);
#911=ADVANCED_FACE('',(#910),#905,.T.);
#912=CARTESIAN_POINT('',(-0.009785917882187004,0.09000000000000001,0.006538741281309824));
#913=DIRECTION('',(0,-1,0));
#914=DIRECTION('',(1,0,0));
#915=AXIS2_PLACEMENT_3D('',#912,#913,#914);
#916=PLANE('',#915);
#917=ORIENTED_EDGE('',*,*,#432,.T.);
#918=ORIENTED_EDGE('',*,*,#187,.T.);
#919=ORIENTED_EDGE('',*,*,#437,.F.);
#920=EDGE_LOOP('',(#917,#918,#919));
#921=FACE_OUTER_BOUND('',#920,.T.);
#922=ADVANCED_FACE('',(#921),#916,.T.);
#923=CARTESIAN_POINT('',(-0.011543277195067722,0.09000000000000001,0.00229610059419054));
#924=DIRECTION('',(0,-1,-3.4977244568100476e-15));
#925=DIRECTION('',(1,0,0));
#926=AXIS2_PLACEMENT_3D('',#923,#924,#925);
#927=PLANE('',#926);
#928=ORIENTED_EDGE('',*,*,#437,.T.);
#929=ORIENTED_EDGE('',*,*,#202,.T.);
#930=ORIENTED_EDGE('',*,*,#442,.F.);
#931=EDGE_LOOP('',(#928,#929,#930));
#932=FACE_OUTER_BOUND('',#931,.T.);
#933=ADVANCED_FACE('',(#932),#927,.T.);
#934=CARTESIAN_POINT('',(-0.011543277195067722,0.09000000000000001,-0.002296100594190537));
#935=DIRECTION('',(0,-1,3.497724456810046e-15));
#936=DIRECTION('',(1,0,0));
#937=AXIS2_PLACEMENT_3D('',#934,#935,#936);
#938=PLANE('',#937);
#939=ORIENTED_EDGE('',*,*,#442,.T.);
#940=ORIENTED_EDGE('',*,*,#217,.T.);
#941=ORIENTED_EDGE('',*,*,#447,.F.);
#942=EDGE_LOOP('',(#939,#940,#941));
#943=FACE_OUTER_BOUND('',#942,.T.);
#944=ADVANCED_FACE('',(#943),#938,.T.);
#945=CARTESIAN_POINT('',(-0.009785917882187007,0.09000000000000001,-0.0065387412813098225));
#946=DIRECTION('',(0,-1,0));
#947=DIRECTION('',(1,0,0));
#948=AXIS2_PLACEMENT_3D('',#945,#946,#947);
#949=PLANE('',#948);
#950=ORIENTED_EDGE('',*,*,#447,.T.);
#951=ORIENTED_EDGE('',*,*,#232,.T.);
#952=ORIENTED_EDGE('',*,*,#452,.F.);
#953=EDGE_LOOP('',(#950,#951,#952));
#954=FACE_OUTER_BOUND('',#953,.T.);
#955=ADVANCED_FACE('',(#954),#949,.T.);
#956=CARTESIAN_POINT('',(-0.006538741281309828,0.09000000000000001,-0.009785917882187002));
#957=DIRECTION('',(0,-1,0));
#958=DIRECTION('',(1,0,0));
#959=AXIS2_PLACEMENT_3D('',#956,#957,#958);
#960=PLANE('',#959);
#961=ORIENTED_EDGE('',*,*,#452,.T.);
#962=ORIENTED_EDGE('',*,*,#247,.T.);
#963=ORIENTED_EDGE('',*,*,#457,.F.);
#964=EDGE_LOOP('',(#961,#962,#963));
#965=FACE_OUTER_BOUND('',#964,.T.);
#966=ADVANCED_FACE('',(#965),#960,.T.);
#967=CARTESIAN_POINT('',(-0.0022961005941905433,0.09000000000000001,-0.011543277195067717));
#968=DIRECTION('',(0,-1,-1.302510001650941e-15));
#969=DIRECTION('',(1,0,0));
#970=AXIS2_PLACEMENT_3D('',#967,#968,#969);
#971=PLANE('',#970);
#972=ORIENTED_EDGE('',*,*,#457,.T.);
#973=ORIENTED_EDGE('',*,*,#262,.T.);
#974=ORIENTED_EDGE('',*,*,#462,.F.);
#975=EDGE_LOOP('',(#972,#973,#974));
#976=FACE_OUTER_BOUND('',#975,.T.);
#977=ADVANCED_FACE('',(#976),#971,.T.);
#978=CARTESIAN_POINT('',(0.002296100594190539,0.09000000000000001,-0.011543277195067718));
#979=DIRECTION('',(0,-1,0));
#980=DIRECTION('',(1,0,0));
#981=AXIS2_PLACEMENT_3D('',#978,#979,#980);
#982=PLANE('',#981);
#983=ORIENTED_EDGE('',*,*,#462,.T.);
#984=ORIENTED_EDGE('',*,*,#277,.T.);
#985=ORIENTED_EDGE('',*,*,#467,.F.);
#986=EDGE_LOOP('',(#983,#984,#985));
#987=FACE_OUTER_BOUND('',#986,.T.);
#988=ADVANCED_FACE('',(#987),#982,.T.);
#989=CARTESIAN_POINT('',(0.006538741281309823,0.09000000000000001,-0.009785917882187004));
#990=DIRECTION('',(0,-1,0));
#991=DIRECTION('',(1,0,0));
#992=AXIS2_PLACEMENT_3D('',#989,#990,#991);
#993=PLANE('',#992);
#994=ORIENTED_EDGE('',*,*,#467,.T.);
#995=ORIENTED_EDGE('',*,*,#292,.T.);
#996=ORIENTED_EDGE('',*,*,#472,.F.);
#997=EDGE_LOOP('',(#994,#995,#996));
#998=FACE_OUTER_BOUND('',#997,.T.);
#999=ADVANCED_FACE('',(#998),#993,.T.);
#1000=CARTESIAN_POINT('',(0.009785917882187002,0.09000000000000001,-0.006538741281309828));
#1001=DIRECTION('',(0,-1,0));
#1002=DIRECTION('',(1,0,0));
#1003=AXIS2_PLACEMENT_3D('',#1000,#1001,#1002);
#1004=PLANE('',#1003);
#1005=ORIENTED_EDGE('',*,*,#472,.T.);
#1006=ORIENTED_EDGE('',*,*,#307,.T.);
#1007=ORIENTED_EDGE('',*,*,#477,.F.);
#1008=EDGE_LOOP('',(#1005,#1006,#1007));
#1009=FACE_OUTER_BOUND('',#1008,.T.);
#1010=ADVANCED_FACE('',(#1009),#1004,.T.);
#1011=CARTESIAN_POINT('',(0.011543277195067717,0.09000000000000001,-0.0022961005941905424));
#1012=DIRECTION('',(0,-1,3.4977244568100433e-15));
#1013=DIRECTION('',(1,0,0));
#1014=AXIS2_PLACEMENT_3D('',#1011,#1012,#1013);
#1015=PLANE('',#1014);
#1016=ORIENTED_EDGE('',*,*,#477,.T.);
#1017=ORIENTED_EDGE('',*,*,#317,.T.);
#1018=ORIENTED_EDGE('',*,*,#402,.F.);
#1019=EDGE_LOOP('',(#1016,#1017,#1018));
#1020=FACE_OUTER_BOUND('',#1019,.T.);
#1021=ADVANCED_FACE('',(#1020),#1015,.T.);
#1022=CLOSED_SHELL('',(#489,#501,#513,#525,#537,#549,#561,#573,#585,#597,#609,#621,#633,#645,#657,#669,#680,#691,#702,#713,#724,#735,#746,#757,#768,#779,#790,#801,#812,#823,#834,#845,#856,#867,#878,#889,#900,#911,#922,#933,#944,#955,#966,#977,#988,#999,#1010,#1021));
#1023=MANIFOLD_SOLID_BREP('',#1022);
#1024=SHAPE_REPRESENTATION('TYV6-VLV-EX-0006',(#1023),#9);
#1025=SHAPE_DEFINITION_REPRESENTATION(#8,#1024);
ENDSEC;
END-ISO-10303-21;