ISO-10303-21;
HEADER;
FILE_DESCRIPTION(('ArchDisc Geometry Kernel Export'),'2;1');
FILE_NAME('TYV6-INT-MAN-0001.step','20260509T202348',('ArchDisc'),('ArchDisc Inc'),'ArchDisc Kernel 1.0','ArchDisc','');
FILE_SCHEMA(('AUTOMOTIVE_DESIGN'));
ENDSEC;
DATA;
#1=APPLICATION_CONTEXT('automotive design');
#2=APPLICATION_PROTOCOL_DEFINITION('international standard','automotive_design',2009,#1);
#3=PRODUCT_CONTEXT('',#1,'mechanical');
#4=PRODUCT('TYV6-INT-MAN-0001','TYV6-INT-MAN-0001','',(#3));
#5=PRODUCT_DEFINITION_FORMATION('','',#4);
#6=PRODUCT_DEFINITION_CONTEXT('design',#1,'design');
#7=PRODUCT_DEFINITION('design','',#5,#6);
#8=PRODUCT_DEFINITION_SHAPE('','',#7);
#9=(GEOMETRIC_REPRESENTATION_CONTEXT(3) GLOBAL_UNCERTAINTY_ASSIGNED_CONTEXT((#0)) GLOBAL_UNIT_ASSIGNED_CONTEXT((#0,#0,#0)) REPRESENTATION_CONTEXT('Context3D','');
#10=CARTESIAN_POINT('',(-0.15,-0.05,0.2));
#11=VERTEX_POINT('',#10);
#12=CARTESIAN_POINT('',(0.15,-0.05,0.2));
#13=VERTEX_POINT('',#12);
#14=CARTESIAN_POINT('',(0.15,0.05,0.2));
#15=VERTEX_POINT('',#14);
#16=CARTESIAN_POINT('',(-0.15,0.05,0.2));
#17=VERTEX_POINT('',#16);
#18=CARTESIAN_POINT('',(-0.15,-0.05,-0.2));
#19=VERTEX_POINT('',#18);
#20=CARTESIAN_POINT('',(-0.15,0.05,-0.2));
#21=VERTEX_POINT('',#20);
#22=CARTESIAN_POINT('',(0.15,0.05,-0.2));
#23=VERTEX_POINT('',#22);
#24=CARTESIAN_POINT('',(0.15,-0.05,-0.2));
#25=VERTEX_POINT('',#24);
#26=CARTESIAN_POINT('',(-0.15,-0.05,0.2));
#27=DIRECTION('',(1,0,0));
#28=VECTOR('',#27,0.3);
#29=LINE('',#26,#28);
#30=EDGE_CURVE('',#11,#13,#29,.T.);
#31=CARTESIAN_POINT('',(0.15,-0.05,0.2));
#32=DIRECTION('',(0,1,0));
#33=VECTOR('',#32,0.1);
#34=LINE('',#31,#33);
#35=EDGE_CURVE('',#13,#15,#34,.T.);
#36=CARTESIAN_POINT('',(0.15,0.05,0.2));
#37=DIRECTION('',(-1,0,0));
#38=VECTOR('',#37,0.3);
#39=LINE('',#36,#38);
#40=EDGE_CURVE('',#15,#17,#39,.T.);
#41=CARTESIAN_POINT('',(-0.15,0.05,0.2));
#42=DIRECTION('',(0,-1,0));
#43=VECTOR('',#42,0.1);
#44=LINE('',#41,#43);
#45=EDGE_CURVE('',#17,#11,#44,.T.);
#46=CARTESIAN_POINT('',(-0.15,0.05,-0.2));
#47=DIRECTION('',(0,-1,0));
#48=VECTOR('',#47,0.1);
#49=LINE('',#46,#48);
#50=EDGE_CURVE('',#21,#19,#49,.T.);
#51=CARTESIAN_POINT('',(0.15,0.05,-0.2));
#52=DIRECTION('',(-1,0,0));
#53=VECTOR('',#52,0.3);
#54=LINE('',#51,#53);
#55=EDGE_CURVE('',#23,#21,#54,.T.);
#56=CARTESIAN_POINT('',(0.15,-0.05,-0.2));
#57=DIRECTION('',(0,1,0));
#58=VECTOR('',#57,0.1);
#59=LINE('',#56,#58);
#60=EDGE_CURVE('',#25,#23,#59,.T.);
#61=CARTESIAN_POINT('',(-0.15,-0.05,-0.2));
#62=DIRECTION('',(1,0,0));
#63=VECTOR('',#62,0.3);
#64=LINE('',#61,#63);
#65=EDGE_CURVE('',#19,#25,#64,.T.);
#66=CARTESIAN_POINT('',(0.15,0.05,-0.2));
#67=DIRECTION('',(0,0,1));
#68=VECTOR('',#67,0.4);
#69=LINE('',#66,#68);
#70=EDGE_CURVE('',#23,#15,#69,.T.);
#71=CARTESIAN_POINT('',(-0.15,0.05,-0.2));
#72=DIRECTION('',(0,0,1));
#73=VECTOR('',#72,0.4);
#74=LINE('',#71,#73);
#75=EDGE_CURVE('',#21,#17,#74,.T.);
#76=CARTESIAN_POINT('',(0.15,-0.05,-0.2));
#77=DIRECTION('',(0,0,1));
#78=VECTOR('',#77,0.4);
#79=LINE('',#76,#78);
#80=EDGE_CURVE('',#25,#13,#79,.T.);
#81=CARTESIAN_POINT('',(-0.15,-0.05,-0.2));
#82=DIRECTION('',(0,0,1));
#83=VECTOR('',#82,0.4);
#84=LINE('',#81,#83);
#85=EDGE_CURVE('',#19,#11,#84,.T.);
#86=CARTESIAN_POINT('',(0,0,0.2));
#87=DIRECTION('',(0,0,1));
#88=DIRECTION('',(1,0,0));
#89=AXIS2_PLACEMENT_3D('',#86,#87,#88);
#90=PLANE('',#89);
#91=ORIENTED_EDGE('',*,*,#30,.T.);
#92=ORIENTED_EDGE('',*,*,#35,.T.);
#93=ORIENTED_EDGE('',*,*,#40,.T.);
#94=ORIENTED_EDGE('',*,*,#45,.T.);
#95=EDGE_LOOP('',(#91,#92,#93,#94));
#96=FACE_OUTER_BOUND('',#95,.T.);
#97=ADVANCED_FACE('',(#96),#90,.T.);
#98=CARTESIAN_POINT('',(0,0,-0.2));
#99=DIRECTION('',(0,0,-1));
#100=DIRECTION('',(1,0,0));
#101=AXIS2_PLACEMENT_3D('',#98,#99,#100);
#102=PLANE('',#101);
#103=ORIENTED_EDGE('',*,*,#50,.F.);
#104=ORIENTED_EDGE('',*,*,#55,.F.);
#105=ORIENTED_EDGE('',*,*,#60,.F.);
#106=ORIENTED_EDGE('',*,*,#65,.F.);
#107=EDGE_LOOP('',(#103,#104,#105,#106));
#108=FACE_OUTER_BOUND('',#107,.T.);
#109=ADVANCED_FACE('',(#108),#102,.T.);
#110=CARTESIAN_POINT('',(0,0.05,0));
#111=DIRECTION('',(0,0,1));
#112=DIRECTION('',(1,0,0));
#113=AXIS2_PLACEMENT_3D('',#110,#111,#112);
#114=PLANE('',#113);
#115=ORIENTED_EDGE('',*,*,#55,.T.);
#116=ORIENTED_EDGE('',*,*,#70,.T.);
#117=ORIENTED_EDGE('',*,*,#40,.F.);
#118=ORIENTED_EDGE('',*,*,#75,.F.);
#119=EDGE_LOOP('',(#115,#116,#117,#118));
#120=FACE_OUTER_BOUND('',#119,.T.);
#121=ADVANCED_FACE('',(#120),#114,.T.);
#122=CARTESIAN_POINT('',(0,-0.05,0));
#123=DIRECTION('',(0,-1,0));
#124=DIRECTION('',(1,0,0));
#125=AXIS2_PLACEMENT_3D('',#122,#123,#124);
#126=PLANE('',#125);
#127=ORIENTED_EDGE('',*,*,#65,.T.);
#128=ORIENTED_EDGE('',*,*,#80,.T.);
#129=ORIENTED_EDGE('',*,*,#30,.F.);
#130=ORIENTED_EDGE('',*,*,#85,.F.);
#131=EDGE_LOOP('',(#127,#128,#129,#130));
#132=FACE_OUTER_BOUND('',#131,.T.);
#133=ADVANCED_FACE('',(#132),#126,.T.);
#134=CARTESIAN_POINT('',(0.15,0,0));
#135=DIRECTION('',(1,0,0));
#136=DIRECTION('',(0,1,0));
#137=AXIS2_PLACEMENT_3D('',#134,#135,#136);
#138=PLANE('',#137);
#139=ORIENTED_EDGE('',*,*,#60,.T.);
#140=ORIENTED_EDGE('',*,*,#70,.T.);
#141=ORIENTED_EDGE('',*,*,#35,.F.);
#142=ORIENTED_EDGE('',*,*,#80,.F.);
#143=EDGE_LOOP('',(#139,#140,#141,#142));
#144=FACE_OUTER_BOUND('',#143,.T.);
#145=ADVANCED_FACE('',(#144),#138,.T.);
#146=CARTESIAN_POINT('',(-0.15,0,-0.1));
#147=DIRECTION('',(-1,0,0));
#148=DIRECTION('',(0,-1,0));
#149=AXIS2_PLACEMENT_3D('',#146,#147,#148);
#150=PLANE('',#149);
#151=ORIENTED_EDGE('',*,*,#85,.T.);
#152=ORIENTED_EDGE('',*,*,#45,.F.);
#153=ORIENTED_EDGE('',*,*,#75,.T.);
#154=ORIENTED_EDGE('',*,*,#50,.T.);
#155=EDGE_LOOP('',(#151,#152,#153,#154));
#156=FACE_OUTER_BOUND('',#155,.T.);
#157=ADVANCED_FACE('',(#156),#150,.T.);
#158=CLOSED_SHELL('',(#97,#109,#121,#133,#145,#157));
#159=MANIFOLD_SOLID_BREP('',#158);
#160=SHAPE_REPRESENTATION('TYV6-INT-MAN-0001',(#159),#9);
#161=SHAPE_DEFINITION_REPRESENTATION(#8,#160);
ENDSEC;
END-ISO-10303-21;