ISO-10303-21;
HEADER;
FILE_DESCRIPTION(('ArchDisc Geometry Kernel Export'),'2;1');
FILE_NAME('TYV6-BRG-ROD-0012.step','20260509T202338',('ArchDisc'),('ArchDisc Inc'),'ArchDisc Kernel 1.0','ArchDisc','');
FILE_SCHEMA(('AUTOMOTIVE_DESIGN'));
ENDSEC;
DATA;
#1=APPLICATION_CONTEXT('automotive design');
#2=APPLICATION_PROTOCOL_DEFINITION('international standard','automotive_design',2009,#1);
#3=PRODUCT_CONTEXT('',#1,'mechanical');
#4=PRODUCT('TYV6-BRG-ROD-0012','TYV6-BRG-ROD-0012','',(#3));
#5=PRODUCT_DEFINITION_FORMATION('','',#4);
#6=PRODUCT_DEFINITION_CONTEXT('design',#1,'design');
#7=PRODUCT_DEFINITION('design','',#5,#6);
#8=PRODUCT_DEFINITION_SHAPE('','',#7);
#9=(GEOMETRIC_REPRESENTATION_CONTEXT(3) GLOBAL_UNCERTAINTY_ASSIGNED_CONTEXT((#0)) GLOBAL_UNIT_ASSIGNED_CONTEXT((#0,#0,#0)) REPRESENTATION_CONTEXT('Context3D','');
#10=CARTESIAN_POINT('',(0.025,0,0));
#11=VERTEX_POINT('',#10);
#12=CARTESIAN_POINT('',(0.02414814565722671,0,0.0064704761275630185));
#13=VERTEX_POINT('',#12);
#14=CARTESIAN_POINT('',(0.02414814565722671,0.022,0.0064704761275630185));
#15=VERTEX_POINT('',#14);
#16=CARTESIAN_POINT('',(0.025,0.022,0));
#17=VERTEX_POINT('',#16);
#18=CARTESIAN_POINT('',(0.02165063509461097,0,0.012499999999999999));
#19=VERTEX_POINT('',#18);
#20=CARTESIAN_POINT('',(0.02165063509461097,0.022,0.012499999999999999));
#21=VERTEX_POINT('',#20);
#22=CARTESIAN_POINT('',(0.01767766952966369,0,0.017677669529663688));
#23=VERTEX_POINT('',#22);
#24=CARTESIAN_POINT('',(0.01767766952966369,0.022,0.017677669529663688));
#25=VERTEX_POINT('',#24);
#26=CARTESIAN_POINT('',(0.012500000000000004,0,0.021650635094610966));
#27=VERTEX_POINT('',#26);
#28=CARTESIAN_POINT('',(0.012500000000000004,0.022,0.021650635094610966));
#29=VERTEX_POINT('',#28);
#30=CARTESIAN_POINT('',(0.0064704761275630185,0,0.02414814565722671));
#31=VERTEX_POINT('',#30);
#32=CARTESIAN_POINT('',(0.0064704761275630185,0.022,0.02414814565722671));
#33=VERTEX_POINT('',#32);
#34=CARTESIAN_POINT('',(1.5308084989341916e-18,0,0.025));
#35=VERTEX_POINT('',#34);
#36=CARTESIAN_POINT('',(1.5308084989341916e-18,0.022,0.025));
#37=VERTEX_POINT('',#36);
#38=CARTESIAN_POINT('',(-0.006470476127563022,0,0.02414814565722671));
#39=VERTEX_POINT('',#38);
#40=CARTESIAN_POINT('',(-0.006470476127563022,0.022,0.02414814565722671));
#41=VERTEX_POINT('',#40);
#42=CARTESIAN_POINT('',(-0.012499999999999995,0,0.02165063509461097));
#43=VERTEX_POINT('',#42);
#44=CARTESIAN_POINT('',(-0.012499999999999995,0.022,0.02165063509461097));
#45=VERTEX_POINT('',#44);
#46=CARTESIAN_POINT('',(-0.017677669529663688,0,0.01767766952966369));
#47=VERTEX_POINT('',#46);
#48=CARTESIAN_POINT('',(-0.017677669529663688,0.022,0.01767766952966369));
#49=VERTEX_POINT('',#48);
#50=CARTESIAN_POINT('',(-0.02165063509461097,0,0.012499999999999999));
#51=VERTEX_POINT('',#50);
#52=CARTESIAN_POINT('',(-0.02165063509461097,0.022,0.012499999999999999));
#53=VERTEX_POINT('',#52);
#54=CARTESIAN_POINT('',(-0.024148145657226706,0,0.006470476127563025));
#55=VERTEX_POINT('',#54);
#56=CARTESIAN_POINT('',(-0.024148145657226706,0.022,0.006470476127563025));
#57=VERTEX_POINT('',#56);
#58=CARTESIAN_POINT('',(-0.025,0,3.061616997868383e-18));
#59=VERTEX_POINT('',#58);
#60=CARTESIAN_POINT('',(-0.025,0.022,3.061616997868383e-18));
#61=VERTEX_POINT('',#60);
#62=CARTESIAN_POINT('',(-0.024148145657226713,0,-0.006470476127563009));
#63=VERTEX_POINT('',#62);
#64=CARTESIAN_POINT('',(-0.024148145657226713,0.022,-0.006470476127563009));
#65=VERTEX_POINT('',#64);
#66=CARTESIAN_POINT('',(-0.021650635094610966,0,-0.012500000000000004));
#67=VERTEX_POINT('',#66);
#68=CARTESIAN_POINT('',(-0.021650635094610966,0.022,-0.012500000000000004));
#69=VERTEX_POINT('',#68);
#70=CARTESIAN_POINT('',(-0.01767766952966369,0,-0.017677669529663688));
#71=VERTEX_POINT('',#70);
#72=CARTESIAN_POINT('',(-0.01767766952966369,0.022,-0.017677669529663688));
#73=VERTEX_POINT('',#72);
#74=CARTESIAN_POINT('',(-0.012500000000000011,0,-0.02165063509461096));
#75=VERTEX_POINT('',#74);
#76=CARTESIAN_POINT('',(-0.012500000000000011,0.022,-0.02165063509461096));
#77=VERTEX_POINT('',#76);
#78=CARTESIAN_POINT('',(-0.006470476127563016,0,-0.02414814565722671));
#79=VERTEX_POINT('',#78);
#80=CARTESIAN_POINT('',(-0.006470476127563016,0.022,-0.02414814565722671));
#81=VERTEX_POINT('',#80);
#82=CARTESIAN_POINT('',(-4.592425496802574e-18,0,-0.025));
#83=VERTEX_POINT('',#82);
#84=CARTESIAN_POINT('',(-4.592425496802574e-18,0.022,-0.025));
#85=VERTEX_POINT('',#84);
#86=CARTESIAN_POINT('',(0.006470476127563008,0,-0.024148145657226713));
#87=VERTEX_POINT('',#86);
#88=CARTESIAN_POINT('',(0.006470476127563008,0.022,-0.024148145657226713));
#89=VERTEX_POINT('',#88);
#90=CARTESIAN_POINT('',(0.012500000000000004,0,-0.021650635094610966));
#91=VERTEX_POINT('',#90);
#92=CARTESIAN_POINT('',(0.012500000000000004,0.022,-0.021650635094610966));
#93=VERTEX_POINT('',#92);
#94=CARTESIAN_POINT('',(0.017677669529663684,0,-0.01767766952966369));
#95=VERTEX_POINT('',#94);
#96=CARTESIAN_POINT('',(0.017677669529663684,0.022,-0.01767766952966369));
#97=VERTEX_POINT('',#96);
#98=CARTESIAN_POINT('',(0.02165063509461096,0,-0.012500000000000011));
#99=VERTEX_POINT('',#98);
#100=CARTESIAN_POINT('',(0.02165063509461096,0.022,-0.012500000000000011));
#101=VERTEX_POINT('',#100);
#102=CARTESIAN_POINT('',(0.02414814565722671,0,-0.006470476127563018));
#103=VERTEX_POINT('',#102);
#104=CARTESIAN_POINT('',(0.02414814565722671,0.022,-0.006470476127563018));
#105=VERTEX_POINT('',#104);
#106=CARTESIAN_POINT('',(0,0,0));
#107=VERTEX_POINT('',#106);
#108=CARTESIAN_POINT('',(0,0.022,0));
#109=VERTEX_POINT('',#108);
#110=CARTESIAN_POINT('',(0.025,0,0));
#111=DIRECTION('',(-0.1305261922200514,0,0.9914448613738105));
#112=VECTOR('',#111,0.0065263096110025785);
#113=LINE('',#110,#112);
#114=EDGE_CURVE('',#11,#13,#113,.T.);
#115=CARTESIAN_POINT('',(0.02414814565722671,0,0.0064704761275630185));
#116=DIRECTION('',(0,1,0));
#117=VECTOR('',#116,0.022);
#118=LINE('',#115,#117);
#119=EDGE_CURVE('',#13,#15,#118,.T.);
#120=CARTESIAN_POINT('',(0.025,0.022,0));
#121=DIRECTION('',(-0.1305261922200514,0,0.9914448613738105));
#122=VECTOR('',#121,0.0065263096110025785);
#123=LINE('',#120,#122);
#124=EDGE_CURVE('',#17,#15,#123,.T.);
#125=CARTESIAN_POINT('',(0.025,0,0));
#126=DIRECTION('',(0,1,0));
#127=VECTOR('',#126,0.022);
#128=LINE('',#125,#127);
#129=EDGE_CURVE('',#11,#17,#128,.T.);
#130=CARTESIAN_POINT('',(0.02414814565722671,0,0.0064704761275630185));
#131=DIRECTION('',(-0.3826834323650897,0,0.9238795325112868));
#132=VECTOR('',#131,0.0065263096110025785);
#133=LINE('',#130,#132);
#134=EDGE_CURVE('',#13,#19,#133,.T.);
#135=CARTESIAN_POINT('',(0.02165063509461097,0,0.012499999999999999));
#136=DIRECTION('',(0,1,0));
#137=VECTOR('',#136,0.022);
#138=LINE('',#135,#137);
#139=EDGE_CURVE('',#19,#21,#138,.T.);
#140=CARTESIAN_POINT('',(0.02414814565722671,0.022,0.0064704761275630185));
#141=DIRECTION('',(-0.3826834323650897,0,0.9238795325112868));
#142=VECTOR('',#141,0.0065263096110025785);
#143=LINE('',#140,#142);
#144=EDGE_CURVE('',#15,#21,#143,.T.);
#145=CARTESIAN_POINT('',(0.02165063509461097,0,0.012499999999999999));
#146=DIRECTION('',(-0.6087614290087205,0,0.7933533402912352));
#147=VECTOR('',#146,0.006526309611002581);
#148=LINE('',#145,#147);
#149=EDGE_CURVE('',#19,#23,#148,.T.);
#150=CARTESIAN_POINT('',(0.01767766952966369,0,0.017677669529663688));
#151=DIRECTION('',(0,1,0));
#152=VECTOR('',#151,0.022);
#153=LINE('',#150,#152);
#154=EDGE_CURVE('',#23,#25,#153,.T.);
#155=CARTESIAN_POINT('',(0.02165063509461097,0.022,0.012499999999999999));
#156=DIRECTION('',(-0.6087614290087205,0,0.7933533402912352));
#157=VECTOR('',#156,0.006526309611002581);
#158=LINE('',#155,#157);
#159=EDGE_CURVE('',#21,#25,#158,.T.);
#160=CARTESIAN_POINT('',(0.01767766952966369,0,0.017677669529663688));
#161=DIRECTION('',(-0.7933533402912352,0,0.6087614290087208));
#162=VECTOR('',#161,0.0065263096110025785);
#163=LINE('',#160,#162);
#164=EDGE_CURVE('',#23,#27,#163,.T.);
#165=CARTESIAN_POINT('',(0.012500000000000004,0,0.021650635094610966));
#166=DIRECTION('',(0,1,0));
#167=VECTOR('',#166,0.022);
#168=LINE('',#165,#167);
#169=EDGE_CURVE('',#27,#29,#168,.T.);
#170=CARTESIAN_POINT('',(0.01767766952966369,0.022,0.017677669529663688));
#171=DIRECTION('',(-0.7933533402912352,0,0.6087614290087208));
#172=VECTOR('',#171,0.0065263096110025785);
#173=LINE('',#170,#172);
#174=EDGE_CURVE('',#25,#29,#173,.T.);
#175=CARTESIAN_POINT('',(0.012500000000000004,0,0.021650635094610966));
#176=DIRECTION('',(-0.9238795325112867,0,0.3826834323650899));
#177=VECTOR('',#176,0.006526309611002585);
#178=LINE('',#175,#177);
#179=EDGE_CURVE('',#27,#31,#178,.T.);
#180=CARTESIAN_POINT('',(0.0064704761275630185,0,0.02414814565722671));
#181=DIRECTION('',(0,1,0));
#182=VECTOR('',#181,0.022);
#183=LINE('',#180,#182);
#184=EDGE_CURVE('',#31,#33,#183,.T.);
#185=CARTESIAN_POINT('',(0.012500000000000004,0.022,0.021650635094610966));
#186=DIRECTION('',(-0.9238795325112867,0,0.3826834323650899));
#187=VECTOR('',#186,0.006526309611002585);
#188=LINE('',#185,#187);
#189=EDGE_CURVE('',#29,#33,#188,.T.);
#190=CARTESIAN_POINT('',(0.0064704761275630185,0,0.02414814565722671));
#191=DIRECTION('',(-0.9914448613738105,0,0.13052619222005143));
#192=VECTOR('',#191,0.006526309611002577);
#193=LINE('',#190,#192);
#194=EDGE_CURVE('',#31,#35,#193,.T.);
#195=CARTESIAN_POINT('',(1.5308084989341916e-18,0,0.025));
#196=DIRECTION('',(0,1,0));
#197=VECTOR('',#196,0.022);
#198=LINE('',#195,#197);
#199=EDGE_CURVE('',#35,#37,#198,.T.);
#200=CARTESIAN_POINT('',(0.0064704761275630185,0.022,0.02414814565722671));
#201=DIRECTION('',(-0.9914448613738105,0,0.13052619222005143));
#202=VECTOR('',#201,0.006526309611002577);
#203=LINE('',#200,#202);
#204=EDGE_CURVE('',#33,#37,#203,.T.);
#205=CARTESIAN_POINT('',(1.5308084989341916e-18,0,0.025));
#206=DIRECTION('',(-0.9914448613738105,0,-0.1305261922200513));
#207=VECTOR('',#206,0.006526309611002584);
#208=LINE('',#205,#207);
#209=EDGE_CURVE('',#35,#39,#208,.T.);
#210=CARTESIAN_POINT('',(-0.006470476127563022,0,0.02414814565722671));
#211=DIRECTION('',(0,1,0));
#212=VECTOR('',#211,0.022);
#213=LINE('',#210,#212);
#214=EDGE_CURVE('',#39,#41,#213,.T.);
#215=CARTESIAN_POINT('',(1.5308084989341916e-18,0.022,0.025));
#216=DIRECTION('',(-0.9914448613738105,0,-0.1305261922200513));
#217=VECTOR('',#216,0.006526309611002584);
#218=LINE('',#215,#217);
#219=EDGE_CURVE('',#37,#41,#218,.T.);
#220=CARTESIAN_POINT('',(-0.006470476127563022,0,0.02414814565722671));
#221=DIRECTION('',(-0.9238795325112866,0,-0.38268343236509006));
#222=VECTOR('',#221,0.006526309611002572);
#223=LINE('',#220,#222);
#224=EDGE_CURVE('',#39,#43,#223,.T.);
#225=CARTESIAN_POINT('',(-0.012499999999999995,0,0.02165063509461097));
#226=DIRECTION('',(0,1,0));
#227=VECTOR('',#226,0.022);
#228=LINE('',#225,#227);
#229=EDGE_CURVE('',#43,#45,#228,.T.);
#230=CARTESIAN_POINT('',(-0.006470476127563022,0.022,0.02414814565722671));
#231=DIRECTION('',(-0.9238795325112866,0,-0.38268343236509006));
#232=VECTOR('',#231,0.006526309611002572);
#233=LINE('',#230,#232);
#234=EDGE_CURVE('',#41,#45,#233,.T.);
#235=CARTESIAN_POINT('',(-0.012499999999999995,0,0.02165063509461097));
#236=DIRECTION('',(-0.7933533402912354,0,-0.6087614290087204));
#237=VECTOR('',#236,0.006526309611002583);
#238=LINE('',#235,#237);
#239=EDGE_CURVE('',#43,#47,#238,.T.);
#240=CARTESIAN_POINT('',(-0.017677669529663688,0,0.01767766952966369));
#241=DIRECTION('',(0,1,0));
#242=VECTOR('',#241,0.022);
#243=LINE('',#240,#242);
#244=EDGE_CURVE('',#47,#49,#243,.T.);
#245=CARTESIAN_POINT('',(-0.012499999999999995,0.022,0.02165063509461097));
#246=DIRECTION('',(-0.7933533402912354,0,-0.6087614290087204));
#247=VECTOR('',#246,0.006526309611002583);
#248=LINE('',#245,#247);
#249=EDGE_CURVE('',#45,#49,#248,.T.);
#250=CARTESIAN_POINT('',(-0.017677669529663688,0,0.01767766952966369));
#251=DIRECTION('',(-0.6087614290087207,0,-0.7933533402912352));
#252=VECTOR('',#251,0.0065263096110025854);
#253=LINE('',#250,#252);
#254=EDGE_CURVE('',#47,#51,#253,.T.);
#255=CARTESIAN_POINT('',(-0.02165063509461097,0,0.012499999999999999));
#256=DIRECTION('',(0,1,0));
#257=VECTOR('',#256,0.022);
#258=LINE('',#255,#257);
#259=EDGE_CURVE('',#51,#53,#258,.T.);
#260=CARTESIAN_POINT('',(-0.017677669529663688,0.022,0.01767766952966369));
#261=DIRECTION('',(-0.6087614290087207,0,-0.7933533402912352));
#262=VECTOR('',#261,0.0065263096110025854);
#263=LINE('',#260,#262);
#264=EDGE_CURVE('',#49,#53,#263,.T.);
#265=CARTESIAN_POINT('',(-0.02165063509461097,0,0.012499999999999999));
#266=DIRECTION('',(-0.38268343236508956,0,-0.9238795325112867));
#267=VECTOR('',#266,0.0065263096110025716);
#268=LINE('',#265,#267);
#269=EDGE_CURVE('',#51,#55,#268,.T.);
#270=CARTESIAN_POINT('',(-0.024148145657226706,0,0.006470476127563025));
#271=DIRECTION('',(0,1,0));
#272=VECTOR('',#271,0.022);
#273=LINE('',#270,#272);
#274=EDGE_CURVE('',#55,#57,#273,.T.);
#275=CARTESIAN_POINT('',(-0.02165063509461097,0.022,0.012499999999999999));
#276=DIRECTION('',(-0.38268343236508956,0,-0.9238795325112867));
#277=VECTOR('',#276,0.0065263096110025716);
#278=LINE('',#275,#277);
#279=EDGE_CURVE('',#53,#57,#278,.T.);
#280=CARTESIAN_POINT('',(-0.024148145657226706,0,0.006470476127563025));
#281=DIRECTION('',(-0.13052619222005185,0,-0.9914448613738104));
#282=VECTOR('',#281,0.006526309611002583);
#283=LINE('',#280,#282);
#284=EDGE_CURVE('',#55,#59,#283,.T.);
#285=CARTESIAN_POINT('',(-0.025,0,3.061616997868383e-18));
#286=DIRECTION('',(0,1,0));
#287=VECTOR('',#286,0.022);
#288=LINE('',#285,#287);
#289=EDGE_CURVE('',#59,#61,#288,.T.);
#290=CARTESIAN_POINT('',(-0.024148145657226706,0.022,0.006470476127563025));
#291=DIRECTION('',(-0.13052619222005185,0,-0.9914448613738104));
#292=VECTOR('',#291,0.006526309611002583);
#293=LINE('',#290,#292);
#294=EDGE_CURVE('',#57,#61,#293,.T.);
#295=CARTESIAN_POINT('',(-0.025,0,3.061616997868383e-18));
#296=DIRECTION('',(0.130526192220051,0,-0.9914448613738105));
#297=VECTOR('',#296,0.006526309611002572);
#298=LINE('',#295,#297);
#299=EDGE_CURVE('',#59,#63,#298,.T.);
#300=CARTESIAN_POINT('',(-0.024148145657226713,0,-0.006470476127563009));
#301=DIRECTION('',(0,1,0));
#302=VECTOR('',#301,0.022);
#303=LINE('',#300,#302);
#304=EDGE_CURVE('',#63,#65,#303,.T.);
#305=CARTESIAN_POINT('',(-0.025,0.022,3.061616997868383e-18));
#306=DIRECTION('',(0.130526192220051,0,-0.9914448613738105));
#307=VECTOR('',#306,0.006526309611002572);
#308=LINE('',#305,#307);
#309=EDGE_CURVE('',#61,#65,#308,.T.);
#310=CARTESIAN_POINT('',(-0.024148145657226713,0,-0.006470476127563009));
#311=DIRECTION('',(0.3826834323650898,0,-0.9238795325112867));
#312=VECTOR('',#311,0.006526309611002595);
#313=LINE('',#310,#312);
#314=EDGE_CURVE('',#63,#67,#313,.T.);
#315=CARTESIAN_POINT('',(-0.021650635094610966,0,-0.012500000000000004));
#316=DIRECTION('',(0,1,0));
#317=VECTOR('',#316,0.022);
#318=LINE('',#315,#317);
#319=EDGE_CURVE('',#67,#69,#318,.T.);
#320=CARTESIAN_POINT('',(-0.024148145657226713,0.022,-0.006470476127563009));
#321=DIRECTION('',(0.3826834323650898,0,-0.9238795325112867));
#322=VECTOR('',#321,0.006526309611002595);
#323=LINE('',#320,#322);
#324=EDGE_CURVE('',#65,#69,#323,.T.);
#325=CARTESIAN_POINT('',(-0.021650635094610966,0,-0.012500000000000004));
#326=DIRECTION('',(0.6087614290087207,0,-0.7933533402912352));
#327=VECTOR('',#326,0.006526309611002574);
#328=LINE('',#325,#327);
#329=EDGE_CURVE('',#67,#71,#328,.T.);
#330=CARTESIAN_POINT('',(-0.01767766952966369,0,-0.017677669529663688));
#331=DIRECTION('',(0,1,0));
#332=VECTOR('',#331,0.022);
#333=LINE('',#330,#332);
#334=EDGE_CURVE('',#71,#73,#333,.T.);
#335=CARTESIAN_POINT('',(-0.021650635094610966,0.022,-0.012500000000000004));
#336=DIRECTION('',(0.6087614290087207,0,-0.7933533402912352));
#337=VECTOR('',#336,0.006526309611002574);
#338=LINE('',#335,#337);
#339=EDGE_CURVE('',#69,#73,#338,.T.);
#340=CARTESIAN_POINT('',(-0.01767766952966369,0,-0.017677669529663688));
#341=DIRECTION('',(0.7933533402912353,0,-0.6087614290087207));
#342=VECTOR('',#341,0.006526309611002569);
#343=LINE('',#340,#342);
#344=EDGE_CURVE('',#71,#75,#343,.T.);
#345=CARTESIAN_POINT('',(-0.012500000000000011,0,-0.02165063509461096));
#346=DIRECTION('',(0,1,0));
#347=VECTOR('',#346,0.022);
#348=LINE('',#345,#347);
#349=EDGE_CURVE('',#75,#77,#348,.T.);
#350=CARTESIAN_POINT('',(-0.01767766952966369,0.022,-0.017677669529663688));
#351=DIRECTION('',(0.7933533402912353,0,-0.6087614290087207));
#352=VECTOR('',#351,0.006526309611002569);
#353=LINE('',#350,#352);
#354=EDGE_CURVE('',#73,#77,#353,.T.);
#355=CARTESIAN_POINT('',(-0.012500000000000011,0,-0.02165063509461096));
#356=DIRECTION('',(0.9238795325112865,0,-0.3826834323650902));
#357=VECTOR('',#356,0.006526309611002597);
#358=LINE('',#355,#357);
#359=EDGE_CURVE('',#75,#79,#358,.T.);
#360=CARTESIAN_POINT('',(-0.006470476127563016,0,-0.02414814565722671));
#361=DIRECTION('',(0,1,0));
#362=VECTOR('',#361,0.022);
#363=LINE('',#360,#362);
#364=EDGE_CURVE('',#79,#81,#363,.T.);
#365=CARTESIAN_POINT('',(-0.012500000000000011,0.022,-0.02165063509461096));
#366=DIRECTION('',(0.9238795325112865,0,-0.3826834323650902));
#367=VECTOR('',#366,0.006526309611002597);
#368=LINE('',#365,#367);
#369=EDGE_CURVE('',#77,#81,#368,.T.);
#370=CARTESIAN_POINT('',(-0.006470476127563016,0,-0.02414814565722671));
#371=DIRECTION('',(0.9914448613738105,0,-0.13052619222005155));
#372=VECTOR('',#371,0.0065263096110025716);
#373=LINE('',#370,#372);
#374=EDGE_CURVE('',#79,#83,#373,.T.);
#375=CARTESIAN_POINT('',(-4.592425496802574e-18,0,-0.025));
#376=DIRECTION('',(0,1,0));
#377=VECTOR('',#376,0.022);
#378=LINE('',#375,#377);
#379=EDGE_CURVE('',#83,#85,#378,.T.);
#380=CARTESIAN_POINT('',(-0.006470476127563016,0.022,-0.02414814565722671));
#381=DIRECTION('',(0.9914448613738105,0,-0.13052619222005155));
#382=VECTOR('',#381,0.0065263096110025716);
#383=LINE('',#380,#382);
#384=EDGE_CURVE('',#81,#85,#383,.T.);
#385=CARTESIAN_POINT('',(-4.592425496802574e-18,0,-0.025));
#386=DIRECTION('',(0.9914448613738105,0,0.130526192220051));
#387=VECTOR('',#386,0.006526309611002572);
#388=LINE('',#385,#387);
#389=EDGE_CURVE('',#83,#87,#388,.T.);
#390=CARTESIAN_POINT('',(0.006470476127563008,0,-0.024148145657226713));
#391=DIRECTION('',(0,1,0));
#392=VECTOR('',#391,0.022);
#393=LINE('',#390,#392);
#394=EDGE_CURVE('',#87,#89,#393,.T.);
#395=CARTESIAN_POINT('',(-4.592425496802574e-18,0.022,-0.025));
#396=DIRECTION('',(0.9914448613738105,0,0.130526192220051));
#397=VECTOR('',#396,0.006526309611002572);
#398=LINE('',#395,#397);
#399=EDGE_CURVE('',#85,#89,#398,.T.);
#400=CARTESIAN_POINT('',(0.006470476127563008,0,-0.024148145657226713));
#401=DIRECTION('',(0.9238795325112866,0,0.38268343236508967));
#402=VECTOR('',#401,0.006526309611002597);
#403=LINE('',#400,#402);
#404=EDGE_CURVE('',#87,#91,#403,.T.);
#405=CARTESIAN_POINT('',(0.012500000000000004,0,-0.021650635094610966));
#406=DIRECTION('',(0,1,0));
#407=VECTOR('',#406,0.022);
#408=LINE('',#405,#407);
#409=EDGE_CURVE('',#91,#93,#408,.T.);
#410=CARTESIAN_POINT('',(0.006470476127563008,0.022,-0.024148145657226713));
#411=DIRECTION('',(0.9238795325112866,0,0.38268343236508967));
#412=VECTOR('',#411,0.006526309611002597);
#413=LINE('',#410,#412);
#414=EDGE_CURVE('',#89,#93,#413,.T.);
#415=CARTESIAN_POINT('',(0.012500000000000004,0,-0.021650635094610966));
#416=DIRECTION('',(0.7933533402912349,0,0.6087614290087209));
#417=VECTOR('',#416,0.0065263096110025716);
#418=LINE('',#415,#417);
#419=EDGE_CURVE('',#91,#95,#418,.T.);
#420=CARTESIAN_POINT('',(0.017677669529663684,0,-0.01767766952966369));
#421=DIRECTION('',(0,1,0));
#422=VECTOR('',#421,0.022);
#423=LINE('',#420,#422);
#424=EDGE_CURVE('',#95,#97,#423,.T.);
#425=CARTESIAN_POINT('',(0.012500000000000004,0.022,-0.021650635094610966));
#426=DIRECTION('',(0.7933533402912349,0,0.6087614290087209));
#427=VECTOR('',#426,0.0065263096110025716);
#428=LINE('',#425,#427);
#429=EDGE_CURVE('',#93,#97,#428,.T.);
#430=CARTESIAN_POINT('',(0.017677669529663684,0,-0.01767766952966369));
#431=DIRECTION('',(0.6087614290087209,0,0.7933533402912349));
#432=VECTOR('',#431,0.0065263096110025716);
#433=LINE('',#430,#432);
#434=EDGE_CURVE('',#95,#99,#433,.T.);
#435=CARTESIAN_POINT('',(0.02165063509461096,0,-0.012500000000000011));
#436=DIRECTION('',(0,1,0));
#437=VECTOR('',#436,0.022);
#438=LINE('',#435,#437);
#439=EDGE_CURVE('',#99,#101,#438,.T.);
#440=CARTESIAN_POINT('',(0.017677669529663684,0.022,-0.01767766952966369));
#441=DIRECTION('',(0.6087614290087209,0,0.7933533402912349));
#442=VECTOR('',#441,0.0065263096110025716);
#443=LINE('',#440,#442);
#444=EDGE_CURVE('',#97,#101,#443,.T.);
#445=CARTESIAN_POINT('',(0.02165063509461096,0,-0.012500000000000011));
#446=DIRECTION('',(0.38268343236509034,0,0.9238795325112865));
#447=VECTOR('',#446,0.006526309611002595);
#448=LINE('',#445,#447);
#449=EDGE_CURVE('',#99,#103,#448,.T.);
#450=CARTESIAN_POINT('',(0.02414814565722671,0,-0.006470476127563018));
#451=DIRECTION('',(0,1,0));
#452=VECTOR('',#451,0.022);
#453=LINE('',#450,#452);
#454=EDGE_CURVE('',#103,#105,#453,.T.);
#455=CARTESIAN_POINT('',(0.02165063509461096,0.022,-0.012500000000000011));
#456=DIRECTION('',(0.38268343236509034,0,0.9238795325112865));
#457=VECTOR('',#456,0.006526309611002595);
#458=LINE('',#455,#457);
#459=EDGE_CURVE('',#101,#105,#458,.T.);
#460=CARTESIAN_POINT('',(0.02414814565722671,0,-0.006470476127563018));
#461=DIRECTION('',(0.1305261922200514,0,0.9914448613738104));
#462=VECTOR('',#461,0.0065263096110025785);
#463=LINE('',#460,#462);
#464=EDGE_CURVE('',#103,#11,#463,.T.);
#465=CARTESIAN_POINT('',(0.02414814565722671,0.022,-0.006470476127563018));
#466=DIRECTION('',(0.1305261922200514,0,0.9914448613738104));
#467=VECTOR('',#466,0.0065263096110025785);
#468=LINE('',#465,#467);
#469=EDGE_CURVE('',#105,#17,#468,.T.);
#470=CARTESIAN_POINT('',(0,0,0));
#471=DIRECTION('',(1,0,0));
#472=VECTOR('',#471,0.025);
#473=LINE('',#470,#472);
#474=EDGE_CURVE('',#107,#11,#473,.T.);
#475=CARTESIAN_POINT('',(0,0,0));
#476=DIRECTION('',(0.9659258262890683,0,0.25881904510252074));
#477=VECTOR('',#476,0.025);
#478=LINE('',#475,#477);
#479=EDGE_CURVE('',#107,#13,#478,.T.);
#480=CARTESIAN_POINT('',(0,0,0));
#481=DIRECTION('',(0.8660254037844387,0,0.49999999999999994));
#482=VECTOR('',#481,0.025);
#483=LINE('',#480,#482);
#484=EDGE_CURVE('',#107,#19,#483,.T.);
#485=CARTESIAN_POINT('',(0,0,0));
#486=DIRECTION('',(0.7071067811865476,0,0.7071067811865475));
#487=VECTOR('',#486,0.025);
#488=LINE('',#485,#487);
#489=EDGE_CURVE('',#107,#23,#488,.T.);
#490=CARTESIAN_POINT('',(0,0,0));
#491=DIRECTION('',(0.5000000000000001,0,0.8660254037844386));
#492=VECTOR('',#491,0.025);
#493=LINE('',#490,#492);
#494=EDGE_CURVE('',#107,#27,#493,.T.);
#495=CARTESIAN_POINT('',(0,0,0));
#496=DIRECTION('',(0.25881904510252074,0,0.9659258262890683));
#497=VECTOR('',#496,0.025);
#498=LINE('',#495,#497);
#499=EDGE_CURVE('',#107,#31,#498,.T.);
#500=CARTESIAN_POINT('',(0,0,0));
#501=DIRECTION('',(6.123233995736766e-17,0,1));
#502=VECTOR('',#501,0.025);
#503=LINE('',#500,#502);
#504=EDGE_CURVE('',#107,#35,#503,.T.);
#505=CARTESIAN_POINT('',(0,0,0));
#506=DIRECTION('',(-0.25881904510252085,0,0.9659258262890682));
#507=VECTOR('',#506,0.025000000000000005);
#508=LINE('',#505,#507);
#509=EDGE_CURVE('',#107,#39,#508,.T.);
#510=CARTESIAN_POINT('',(0,0,0));
#511=DIRECTION('',(-0.4999999999999998,0,0.8660254037844387));
#512=VECTOR('',#511,0.025);
#513=LINE('',#510,#512);
#514=EDGE_CURVE('',#107,#43,#513,.T.);
#515=CARTESIAN_POINT('',(0,0,0));
#516=DIRECTION('',(-0.7071067811865475,0,0.7071067811865476));
#517=VECTOR('',#516,0.025);
#518=LINE('',#515,#517);
#519=EDGE_CURVE('',#107,#47,#518,.T.);
#520=CARTESIAN_POINT('',(0,0,0));
#521=DIRECTION('',(-0.8660254037844387,0,0.49999999999999994));
#522=VECTOR('',#521,0.025);
#523=LINE('',#520,#522);
#524=EDGE_CURVE('',#107,#51,#523,.T.);
#525=CARTESIAN_POINT('',(0,0,0));
#526=DIRECTION('',(-0.9659258262890682,0,0.258819045102521));
#527=VECTOR('',#526,0.025);
#528=LINE('',#525,#527);
#529=EDGE_CURVE('',#107,#55,#528,.T.);
#530=CARTESIAN_POINT('',(0,0,0));
#531=DIRECTION('',(-1,0,1.2246467991473532e-16));
#532=VECTOR('',#531,0.025);
#533=LINE('',#530,#532);
#534=EDGE_CURVE('',#107,#59,#533,.T.);
#535=CARTESIAN_POINT('',(0,0,0));
#536=DIRECTION('',(-0.9659258262890685,0,-0.25881904510252035));
#537=VECTOR('',#536,0.025);
#538=LINE('',#535,#537);
#539=EDGE_CURVE('',#107,#63,#538,.T.);
#540=CARTESIAN_POINT('',(0,0,0));
#541=DIRECTION('',(-0.8660254037844386,0,-0.5000000000000001));
#542=VECTOR('',#541,0.025);
#543=LINE('',#540,#542);
#544=EDGE_CURVE('',#107,#67,#543,.T.);
#545=CARTESIAN_POINT('',(0,0,0));
#546=DIRECTION('',(-0.7071067811865476,0,-0.7071067811865475));
#547=VECTOR('',#546,0.025);
#548=LINE('',#545,#547);
#549=EDGE_CURVE('',#107,#71,#548,.T.);
#550=CARTESIAN_POINT('',(0,0,0));
#551=DIRECTION('',(-0.5000000000000004,0,-0.8660254037844384));
#552=VECTOR('',#551,0.025);
#553=LINE('',#550,#552);
#554=EDGE_CURVE('',#107,#75,#553,.T.);
#555=CARTESIAN_POINT('',(0,0,0));
#556=DIRECTION('',(-0.25881904510252063,0,-0.9659258262890683));
#557=VECTOR('',#556,0.025);
#558=LINE('',#555,#557);
#559=EDGE_CURVE('',#107,#79,#558,.T.);
#560=CARTESIAN_POINT('',(0,0,0));
#561=DIRECTION('',(-1.8369701987210297e-16,0,-1));
#562=VECTOR('',#561,0.025);
#563=LINE('',#560,#562);
#564=EDGE_CURVE('',#107,#83,#563,.T.);
#565=CARTESIAN_POINT('',(0,0,0));
#566=DIRECTION('',(0.2588190451025203,0,-0.9659258262890685));
#567=VECTOR('',#566,0.025);
#568=LINE('',#565,#567);
#569=EDGE_CURVE('',#107,#87,#568,.T.);
#570=CARTESIAN_POINT('',(0,0,0));
#571=DIRECTION('',(0.5000000000000001,0,-0.8660254037844386));
#572=VECTOR('',#571,0.025);
#573=LINE('',#570,#572);
#574=EDGE_CURVE('',#107,#91,#573,.T.);
#575=CARTESIAN_POINT('',(0,0,0));
#576=DIRECTION('',(0.7071067811865474,0,-0.7071067811865476));
#577=VECTOR('',#576,0.025);
#578=LINE('',#575,#577);
#579=EDGE_CURVE('',#107,#95,#578,.T.);
#580=CARTESIAN_POINT('',(0,0,0));
#581=DIRECTION('',(0.8660254037844384,0,-0.5000000000000004));
#582=VECTOR('',#581,0.025);
#583=LINE('',#580,#582);
#584=EDGE_CURVE('',#107,#99,#583,.T.);
#585=CARTESIAN_POINT('',(0,0,0));
#586=DIRECTION('',(0.9659258262890683,0,-0.2588190451025207));
#587=VECTOR('',#586,0.025);
#588=LINE('',#585,#587);
#589=EDGE_CURVE('',#107,#103,#588,.T.);
#590=CARTESIAN_POINT('',(0,0.022,0));
#591=DIRECTION('',(1,0,0));
#592=VECTOR('',#591,0.025);
#593=LINE('',#590,#592);
#594=EDGE_CURVE('',#109,#17,#593,.T.);
#595=CARTESIAN_POINT('',(0,0.022,0));
#596=DIRECTION('',(0.9659258262890683,0,0.25881904510252074));
#597=VECTOR('',#596,0.025);
#598=LINE('',#595,#597);
#599=EDGE_CURVE('',#109,#15,#598,.T.);
#600=CARTESIAN_POINT('',(0,0.022,0));
#601=DIRECTION('',(0.8660254037844387,0,0.49999999999999994));
#602=VECTOR('',#601,0.025);
#603=LINE('',#600,#602);
#604=EDGE_CURVE('',#109,#21,#603,.T.);
#605=CARTESIAN_POINT('',(0,0.022,0));
#606=DIRECTION('',(0.7071067811865476,0,0.7071067811865475));
#607=VECTOR('',#606,0.025);
#608=LINE('',#605,#607);
#609=EDGE_CURVE('',#109,#25,#608,.T.);
#610=CARTESIAN_POINT('',(0,0.022,0));
#611=DIRECTION('',(0.5000000000000001,0,0.8660254037844386));
#612=VECTOR('',#611,0.025);
#613=LINE('',#610,#612);
#614=EDGE_CURVE('',#109,#29,#613,.T.);
#615=CARTESIAN_POINT('',(0,0.022,0));
#616=DIRECTION('',(0.25881904510252074,0,0.9659258262890683));
#617=VECTOR('',#616,0.025);
#618=LINE('',#615,#617);
#619=EDGE_CURVE('',#109,#33,#618,.T.);
#620=CARTESIAN_POINT('',(0,0.022,0));
#621=DIRECTION('',(6.123233995736766e-17,0,1));
#622=VECTOR('',#621,0.025);
#623=LINE('',#620,#622);
#624=EDGE_CURVE('',#109,#37,#623,.T.);
#625=CARTESIAN_POINT('',(0,0.022,0));
#626=DIRECTION('',(-0.25881904510252085,0,0.9659258262890682));
#627=VECTOR('',#626,0.025000000000000005);
#628=LINE('',#625,#627);
#629=EDGE_CURVE('',#109,#41,#628,.T.);
#630=CARTESIAN_POINT('',(0,0.022,0));
#631=DIRECTION('',(-0.4999999999999998,0,0.8660254037844387));
#632=VECTOR('',#631,0.025);
#633=LINE('',#630,#632);
#634=EDGE_CURVE('',#109,#45,#633,.T.);
#635=CARTESIAN_POINT('',(0,0.022,0));
#636=DIRECTION('',(-0.7071067811865475,0,0.7071067811865476));
#637=VECTOR('',#636,0.025);
#638=LINE('',#635,#637);
#639=EDGE_CURVE('',#109,#49,#638,.T.);
#640=CARTESIAN_POINT('',(0,0.022,0));
#641=DIRECTION('',(-0.8660254037844387,0,0.49999999999999994));
#642=VECTOR('',#641,0.025);
#643=LINE('',#640,#642);
#644=EDGE_CURVE('',#109,#53,#643,.T.);
#645=CARTESIAN_POINT('',(0,0.022,0));
#646=DIRECTION('',(-0.9659258262890682,0,0.258819045102521));
#647=VECTOR('',#646,0.025);
#648=LINE('',#645,#647);
#649=EDGE_CURVE('',#109,#57,#648,.T.);
#650=CARTESIAN_POINT('',(0,0.022,0));
#651=DIRECTION('',(-1,0,1.2246467991473532e-16));
#652=VECTOR('',#651,0.025);
#653=LINE('',#650,#652);
#654=EDGE_CURVE('',#109,#61,#653,.T.);
#655=CARTESIAN_POINT('',(0,0.022,0));
#656=DIRECTION('',(-0.9659258262890685,0,-0.25881904510252035));
#657=VECTOR('',#656,0.025);
#658=LINE('',#655,#657);
#659=EDGE_CURVE('',#109,#65,#658,.T.);
#660=CARTESIAN_POINT('',(0,0.022,0));
#661=DIRECTION('',(-0.8660254037844386,0,-0.5000000000000001));
#662=VECTOR('',#661,0.025);
#663=LINE('',#660,#662);
#664=EDGE_CURVE('',#109,#69,#663,.T.);
#665=CARTESIAN_POINT('',(0,0.022,0));
#666=DIRECTION('',(-0.7071067811865476,0,-0.7071067811865475));
#667=VECTOR('',#666,0.025);
#668=LINE('',#665,#667);
#669=EDGE_CURVE('',#109,#73,#668,.T.);
#670=CARTESIAN_POINT('',(0,0.022,0));
#671=DIRECTION('',(-0.5000000000000004,0,-0.8660254037844384));
#672=VECTOR('',#671,0.025);
#673=LINE('',#670,#672);
#674=EDGE_CURVE('',#109,#77,#673,.T.);
#675=CARTESIAN_POINT('',(0,0.022,0));
#676=DIRECTION('',(-0.25881904510252063,0,-0.9659258262890683));
#677=VECTOR('',#676,0.025);
#678=LINE('',#675,#677);
#679=EDGE_CURVE('',#109,#81,#678,.T.);
#680=CARTESIAN_POINT('',(0,0.022,0));
#681=DIRECTION('',(-1.8369701987210297e-16,0,-1));
#682=VECTOR('',#681,0.025);
#683=LINE('',#680,#682);
#684=EDGE_CURVE('',#109,#85,#683,.T.);
#685=CARTESIAN_POINT('',(0,0.022,0));
#686=DIRECTION('',(0.2588190451025203,0,-0.9659258262890685));
#687=VECTOR('',#686,0.025);
#688=LINE('',#685,#687);
#689=EDGE_CURVE('',#109,#89,#688,.T.);
#690=CARTESIAN_POINT('',(0,0.022,0));
#691=DIRECTION('',(0.5000000000000001,0,-0.8660254037844386));
#692=VECTOR('',#691,0.025);
#693=LINE('',#690,#692);
#694=EDGE_CURVE('',#109,#93,#693,.T.);
#695=CARTESIAN_POINT('',(0,0.022,0));
#696=DIRECTION('',(0.7071067811865474,0,-0.7071067811865476));
#697=VECTOR('',#696,0.025);
#698=LINE('',#695,#697);
#699=EDGE_CURVE('',#109,#97,#698,.T.);
#700=CARTESIAN_POINT('',(0,0.022,0));
#701=DIRECTION('',(0.8660254037844384,0,-0.5000000000000004));
#702=VECTOR('',#701,0.025);
#703=LINE('',#700,#702);
#704=EDGE_CURVE('',#109,#101,#703,.T.);
#705=CARTESIAN_POINT('',(0,0.022,0));
#706=DIRECTION('',(0.9659258262890683,0,-0.2588190451025207));
#707=VECTOR('',#706,0.025);
#708=LINE('',#705,#707);
#709=EDGE_CURVE('',#109,#105,#708,.T.);
#710=CARTESIAN_POINT('',(0.024574072828613354,0.011,0.0032352380637815092));
#711=DIRECTION('',(-0.9914448613738104,0,-0.1305261922200514));
#712=DIRECTION('',(0,-1,0));
#713=AXIS2_PLACEMENT_3D('',#710,#711,#712);
#714=PLANE('',#713);
#715=ORIENTED_EDGE('',*,*,#114,.T.);
#716=ORIENTED_EDGE('',*,*,#119,.T.);
#717=ORIENTED_EDGE('',*,*,#124,.F.);
#718=ORIENTED_EDGE('',*,*,#129,.F.);
#719=EDGE_LOOP('',(#715,#716,#717,#718));
#720=FACE_OUTER_BOUND('',#719,.T.);
#721=ADVANCED_FACE('',(#720),#714,.T.);
#722=CARTESIAN_POINT('',(0.02289939037591884,0.011,0.009485238063781508));
#723=DIRECTION('',(-0.9238795325112868,0,-0.38268343236508967));
#724=DIRECTION('',(0,-1,0));
#725=AXIS2_PLACEMENT_3D('',#722,#723,#724);
#726=PLANE('',#725);
#727=ORIENTED_EDGE('',*,*,#134,.T.);
#728=ORIENTED_EDGE('',*,*,#139,.T.);
#729=ORIENTED_EDGE('',*,*,#144,.F.);
#730=ORIENTED_EDGE('',*,*,#119,.F.);
#731=EDGE_LOOP('',(#727,#728,#729,#730));
#732=FACE_OUTER_BOUND('',#731,.T.);
#733=ADVANCED_FACE('',(#732),#726,.T.);
#734=CARTESIAN_POINT('',(0.01966415231213733,0.011,0.015088834764831843));
#735=DIRECTION('',(-0.7933533402912352,0,-0.6087614290087205));
#736=DIRECTION('',(0,-1,0));
#737=AXIS2_PLACEMENT_3D('',#734,#735,#736);
#738=PLANE('',#737);
#739=ORIENTED_EDGE('',*,*,#149,.T.);
#740=ORIENTED_EDGE('',*,*,#154,.T.);
#741=ORIENTED_EDGE('',*,*,#159,.F.);
#742=ORIENTED_EDGE('',*,*,#139,.F.);
#743=EDGE_LOOP('',(#739,#740,#741,#742));
#744=FACE_OUTER_BOUND('',#743,.T.);
#745=ADVANCED_FACE('',(#744),#738,.T.);
#746=CARTESIAN_POINT('',(0.01508883476483185,0.011,0.019664152312137327));
#747=DIRECTION('',(-0.6087614290087208,0,-0.7933533402912352));
#748=DIRECTION('',(0,-1,0));
#749=AXIS2_PLACEMENT_3D('',#746,#747,#748);
#750=PLANE('',#749);
#751=ORIENTED_EDGE('',*,*,#164,.T.);
#752=ORIENTED_EDGE('',*,*,#169,.T.);
#753=ORIENTED_EDGE('',*,*,#174,.F.);
#754=ORIENTED_EDGE('',*,*,#154,.F.);
#755=EDGE_LOOP('',(#751,#752,#753,#754));
#756=FACE_OUTER_BOUND('',#755,.T.);
#757=ADVANCED_FACE('',(#756),#750,.T.);
#758=CARTESIAN_POINT('',(0.009485238063781511,0.011,0.022899390375918836));
#759=DIRECTION('',(-0.3826834323650897,0,-0.9238795325112867));
#760=DIRECTION('',(1,0,0));
#761=AXIS2_PLACEMENT_3D('',#758,#759,#760);
#762=PLANE('',#761);
#763=ORIENTED_EDGE('',*,*,#179,.T.);
#764=ORIENTED_EDGE('',*,*,#184,.T.);
#765=ORIENTED_EDGE('',*,*,#189,.F.);
#766=ORIENTED_EDGE('',*,*,#169,.F.);
#767=EDGE_LOOP('',(#763,#764,#765,#766));
#768=FACE_OUTER_BOUND('',#767,.T.);
#769=ADVANCED_FACE('',(#768),#762,.T.);
#770=CARTESIAN_POINT('',(0.00323523806378151,0.011,0.024574072828613357));
#771=DIRECTION('',(-0.13052619222005177,0,-0.9914448613738104));
#772=DIRECTION('',(1,0,0));
#773=AXIS2_PLACEMENT_3D('',#770,#771,#772);
#774=PLANE('',#773);
#775=ORIENTED_EDGE('',*,*,#194,.T.);
#776=ORIENTED_EDGE('',*,*,#199,.T.);
#777=ORIENTED_EDGE('',*,*,#204,.F.);
#778=ORIENTED_EDGE('',*,*,#184,.F.);
#779=EDGE_LOOP('',(#775,#776,#777,#778));
#780=FACE_OUTER_BOUND('',#779,.T.);
#781=ADVANCED_FACE('',(#780),#774,.T.);
#782=CARTESIAN_POINT('',(-0.00323523806378151,0.011,0.024574072828613354));
#783=DIRECTION('',(0.13052619222005166,0,-0.9914448613738104));
#784=DIRECTION('',(1,0,0));
#785=AXIS2_PLACEMENT_3D('',#782,#783,#784);
#786=PLANE('',#785);
#787=ORIENTED_EDGE('',*,*,#209,.T.);
#788=ORIENTED_EDGE('',*,*,#214,.T.);
#789=ORIENTED_EDGE('',*,*,#219,.F.);
#790=ORIENTED_EDGE('',*,*,#199,.F.);
#791=EDGE_LOOP('',(#787,#788,#789,#790));
#792=FACE_OUTER_BOUND('',#791,.T.);
#793=ADVANCED_FACE('',(#792),#786,.T.);
#794=CARTESIAN_POINT('',(-0.009485238063781508,0.011,0.02289939037591884));
#795=DIRECTION('',(0.38268343236509006,0,-0.9238795325112866));
#796=DIRECTION('',(1,0,0));
#797=AXIS2_PLACEMENT_3D('',#794,#795,#796);
#798=PLANE('',#797);
#799=ORIENTED_EDGE('',*,*,#224,.T.);
#800=ORIENTED_EDGE('',*,*,#229,.T.);
#801=ORIENTED_EDGE('',*,*,#234,.F.);
#802=ORIENTED_EDGE('',*,*,#214,.F.);
#803=EDGE_LOOP('',(#799,#800,#801,#802));
#804=FACE_OUTER_BOUND('',#803,.T.);
#805=ADVANCED_FACE('',(#804),#798,.T.);
#806=CARTESIAN_POINT('',(-0.015088834764831843,0.011,0.01966415231213733));
#807=DIRECTION('',(0.6087614290087202,0,-0.7933533402912354));
#808=DIRECTION('',(0,1,0));
#809=AXIS2_PLACEMENT_3D('',#806,#807,#808);
#810=PLANE('',#809);
#811=ORIENTED_EDGE('',*,*,#239,.T.);
#812=ORIENTED_EDGE('',*,*,#244,.T.);
#813=ORIENTED_EDGE('',*,*,#249,.F.);
#814=ORIENTED_EDGE('',*,*,#229,.F.);
#815=EDGE_LOOP('',(#811,#812,#813,#814));
#816=FACE_OUTER_BOUND('',#815,.T.);
#817=ADVANCED_FACE('',(#816),#810,.T.);
#818=CARTESIAN_POINT('',(-0.019664152312137327,0.011,0.015088834764831846));
#819=DIRECTION('',(0.7933533402912352,0,-0.6087614290087208));
#820=DIRECTION('',(0,1,0));
#821=AXIS2_PLACEMENT_3D('',#818,#819,#820);
#822=PLANE('',#821);
#823=ORIENTED_EDGE('',*,*,#254,.T.);
#824=ORIENTED_EDGE('',*,*,#259,.T.);
#825=ORIENTED_EDGE('',*,*,#264,.F.);
#826=ORIENTED_EDGE('',*,*,#244,.F.);
#827=EDGE_LOOP('',(#823,#824,#825,#826));
#828=FACE_OUTER_BOUND('',#827,.T.);
#829=ADVANCED_FACE('',(#828),#822,.T.);
#830=CARTESIAN_POINT('',(-0.02289939037591884,0.011,0.009485238063781511));
#831=DIRECTION('',(0.923879532511287,0,-0.38268343236508967));
#832=DIRECTION('',(0,1,0));
#833=AXIS2_PLACEMENT_3D('',#830,#831,#832);
#834=PLANE('',#833);
#835=ORIENTED_EDGE('',*,*,#269,.T.);
#836=ORIENTED_EDGE('',*,*,#274,.T.);
#837=ORIENTED_EDGE('',*,*,#279,.F.);
#838=ORIENTED_EDGE('',*,*,#259,.F.);
#839=EDGE_LOOP('',(#835,#836,#837,#838));
#840=FACE_OUTER_BOUND('',#839,.T.);
#841=ADVANCED_FACE('',(#840),#834,.T.);
#842=CARTESIAN_POINT('',(-0.024574072828613354,0.011,0.0032352380637815144));
#843=DIRECTION('',(0.9914448613738104,0,-0.13052619222005182));
#844=DIRECTION('',(0,1,0));
#845=AXIS2_PLACEMENT_3D('',#842,#843,#844);
#846=PLANE('',#845);
#847=ORIENTED_EDGE('',*,*,#284,.T.);
#848=ORIENTED_EDGE('',*,*,#289,.T.);
#849=ORIENTED_EDGE('',*,*,#294,.F.);
#850=ORIENTED_EDGE('',*,*,#274,.F.);
#851=EDGE_LOOP('',(#847,#848,#849,#850));
#852=FACE_OUTER_BOUND('',#851,.T.);
#853=ADVANCED_FACE('',(#852),#846,.T.);
#854=CARTESIAN_POINT('',(-0.024574072828613354,0.011,-0.0032352380637815027));
#855=DIRECTION('',(0.9914448613738104,0,0.130526192220051));
#856=DIRECTION('',(0,1,0));
#857=AXIS2_PLACEMENT_3D('',#854,#855,#856);
#858=PLANE('',#857);
#859=ORIENTED_EDGE('',*,*,#299,.T.);
#860=ORIENTED_EDGE('',*,*,#304,.T.);
#861=ORIENTED_EDGE('',*,*,#309,.F.);
#862=ORIENTED_EDGE('',*,*,#289,.F.);
#863=EDGE_LOOP('',(#859,#860,#861,#862));
#864=FACE_OUTER_BOUND('',#863,.T.);
#865=ADVANCED_FACE('',(#864),#858,.T.);
#866=CARTESIAN_POINT('',(-0.02289939037591884,0.011,-0.009485238063781506));
#867=DIRECTION('',(0.9238795325112866,0,0.38268343236508984));
#868=DIRECTION('',(0,1,0));
#869=AXIS2_PLACEMENT_3D('',#866,#867,#868);
#870=PLANE('',#869);
#871=ORIENTED_EDGE('',*,*,#314,.T.);
#872=ORIENTED_EDGE('',*,*,#319,.T.);
#873=ORIENTED_EDGE('',*,*,#324,.F.);
#874=ORIENTED_EDGE('',*,*,#304,.F.);
#875=EDGE_LOOP('',(#871,#872,#873,#874));
#876=FACE_OUTER_BOUND('',#875,.T.);
#877=ADVANCED_FACE('',(#876),#870,.T.);
#878=CARTESIAN_POINT('',(-0.019664152312137327,0.011,-0.015088834764831846));
#879=DIRECTION('',(0.7933533402912352,0,0.6087614290087205));
#880=DIRECTION('',(0,1,0));
#881=AXIS2_PLACEMENT_3D('',#878,#879,#880);
#882=PLANE('',#881);
#883=ORIENTED_EDGE('',*,*,#329,.T.);
#884=ORIENTED_EDGE('',*,*,#334,.T.);
#885=ORIENTED_EDGE('',*,*,#339,.F.);
#886=ORIENTED_EDGE('',*,*,#319,.F.);
#887=EDGE_LOOP('',(#883,#884,#885,#886));
#888=FACE_OUTER_BOUND('',#887,.T.);
#889=ADVANCED_FACE('',(#888),#882,.T.);
#890=CARTESIAN_POINT('',(-0.015088834764831853,0.011,-0.019664152312137324));
#891=DIRECTION('',(0.6087614290087205,0,0.7933533402912353));
#892=DIRECTION('',(0,1,0));
#893=AXIS2_PLACEMENT_3D('',#890,#891,#892);
#894=PLANE('',#893);
#895=ORIENTED_EDGE('',*,*,#344,.T.);
#896=ORIENTED_EDGE('',*,*,#349,.T.);
#897=ORIENTED_EDGE('',*,*,#354,.F.);
#898=ORIENTED_EDGE('',*,*,#334,.F.);
#899=EDGE_LOOP('',(#895,#896,#897,#898));
#900=FACE_OUTER_BOUND('',#899,.T.);
#901=ADVANCED_FACE('',(#900),#894,.T.);
#902=CARTESIAN_POINT('',(-0.009485238063781513,0.011,-0.022899390375918836));
#903=DIRECTION('',(0.3826834323650901,0,0.9238795325112865));
#904=DIRECTION('',(1,0,0));
#905=AXIS2_PLACEMENT_3D('',#902,#903,#904);
#906=PLANE('',#905);
#907=ORIENTED_EDGE('',*,*,#359,.T.);
#908=ORIENTED_EDGE('',*,*,#364,.T.);
#909=ORIENTED_EDGE('',*,*,#369,.F.);
#910=ORIENTED_EDGE('',*,*,#349,.F.);
#911=EDGE_LOOP('',(#907,#908,#909,#910));
#912=FACE_OUTER_BOUND('',#911,.T.);
#913=ADVANCED_FACE('',(#912),#906,.T.);
#914=CARTESIAN_POINT('',(-0.00323523806378151,0.011,-0.024574072828613357));
#915=DIRECTION('',(0.13052619222005188,0,0.9914448613738104));
#916=DIRECTION('',(1,0,0));
#917=AXIS2_PLACEMENT_3D('',#914,#915,#916);
#918=PLANE('',#917);
#919=ORIENTED_EDGE('',*,*,#374,.T.);
#920=ORIENTED_EDGE('',*,*,#379,.T.);
#921=ORIENTED_EDGE('',*,*,#384,.F.);
#922=ORIENTED_EDGE('',*,*,#364,.F.);
#923=EDGE_LOOP('',(#919,#920,#921,#922));
#924=FACE_OUTER_BOUND('',#923,.T.);
#925=ADVANCED_FACE('',(#924),#918,.T.);
#926=CARTESIAN_POINT('',(0.003235238063781502,0.011,-0.024574072828613354));
#927=DIRECTION('',(-0.1305261922200511,0,0.9914448613738104));
#928=DIRECTION('',(1,0,0));
#929=AXIS2_PLACEMENT_3D('',#926,#927,#928);
#930=PLANE('',#929);
#931=ORIENTED_EDGE('',*,*,#389,.T.);
#932=ORIENTED_EDGE('',*,*,#394,.T.);
#933=ORIENTED_EDGE('',*,*,#399,.F.);
#934=ORIENTED_EDGE('',*,*,#379,.F.);
#935=EDGE_LOOP('',(#931,#932,#933,#934));
#936=FACE_OUTER_BOUND('',#935,.T.);
#937=ADVANCED_FACE('',(#936),#930,.T.);
#938=CARTESIAN_POINT('',(0.009485238063781504,0.011,-0.02289939037591884));
#939=DIRECTION('',(-0.3826834323650898,0,0.9238795325112867));
#940=DIRECTION('',(1,0,0));
#941=AXIS2_PLACEMENT_3D('',#938,#939,#940);
#942=PLANE('',#941);
#943=ORIENTED_EDGE('',*,*,#404,.T.);
#944=ORIENTED_EDGE('',*,*,#409,.T.);
#945=ORIENTED_EDGE('',*,*,#414,.F.);
#946=ORIENTED_EDGE('',*,*,#394,.F.);
#947=EDGE_LOOP('',(#943,#944,#945,#946));
#948=FACE_OUTER_BOUND('',#947,.T.);
#949=ADVANCED_FACE('',(#948),#942,.T.);
#950=CARTESIAN_POINT('',(0.015088834764831844,0.011,-0.019664152312137327));
#951=DIRECTION('',(-0.6087614290087209,0,0.7933533402912348));
#952=DIRECTION('',(0,-1,0));
#953=AXIS2_PLACEMENT_3D('',#950,#951,#952);
#954=PLANE('',#953);
#955=ORIENTED_EDGE('',*,*,#419,.T.);
#956=ORIENTED_EDGE('',*,*,#424,.T.);
#957=ORIENTED_EDGE('',*,*,#429,.F.);
#958=ORIENTED_EDGE('',*,*,#409,.F.);
#959=EDGE_LOOP('',(#955,#956,#957,#958));
#960=FACE_OUTER_BOUND('',#959,.T.);
#961=ADVANCED_FACE('',(#960),#954,.T.);
#962=CARTESIAN_POINT('',(0.01966415231213732,0.011,-0.015088834764831853));
#963=DIRECTION('',(-0.7933533402912349,0,0.608761429008721));
#964=DIRECTION('',(0,-1,0));
#965=AXIS2_PLACEMENT_3D('',#962,#963,#964);
#966=PLANE('',#965);
#967=ORIENTED_EDGE('',*,*,#434,.T.);
#968=ORIENTED_EDGE('',*,*,#439,.T.);
#969=ORIENTED_EDGE('',*,*,#444,.F.);
#970=ORIENTED_EDGE('',*,*,#424,.F.);
#971=EDGE_LOOP('',(#967,#968,#969,#970));
#972=FACE_OUTER_BOUND('',#971,.T.);
#973=ADVANCED_FACE('',(#972),#966,.T.);
#974=CARTESIAN_POINT('',(0.022899390375918836,0.011,-0.009485238063781515));
#975=DIRECTION('',(-0.9238795325112865,0,0.38268343236509034));
#976=DIRECTION('',(0,-1,0));
#977=AXIS2_PLACEMENT_3D('',#974,#975,#976);
#978=PLANE('',#977);
#979=ORIENTED_EDGE('',*,*,#449,.T.);
#980=ORIENTED_EDGE('',*,*,#454,.T.);
#981=ORIENTED_EDGE('',*,*,#459,.F.);
#982=ORIENTED_EDGE('',*,*,#439,.F.);
#983=EDGE_LOOP('',(#979,#980,#981,#982));
#984=FACE_OUTER_BOUND('',#983,.T.);
#985=ADVANCED_FACE('',(#984),#978,.T.);
#986=CARTESIAN_POINT('',(0.024574072828613357,0.011,-0.003235238063781509));
#987=DIRECTION('',(-0.9914448613738104,0,0.1305261922200514));
#988=DIRECTION('',(0,-1,0));
#989=AXIS2_PLACEMENT_3D('',#986,#987,#988);
#990=PLANE('',#989);
#991=ORIENTED_EDGE('',*,*,#464,.T.);
#992=ORIENTED_EDGE('',*,*,#129,.T.);
#993=ORIENTED_EDGE('',*,*,#469,.F.);
#994=ORIENTED_EDGE('',*,*,#454,.F.);
#995=EDGE_LOOP('',(#991,#992,#993,#994));
#996=FACE_OUTER_BOUND('',#995,.T.);
#997=ADVANCED_FACE('',(#996),#990,.T.);
#998=CARTESIAN_POINT('',(0.01638271521907557,0,0.0021568253758543396));
#999=DIRECTION('',(0,-1,0));
#1000=DIRECTION('',(1,0,0));
#1001=AXIS2_PLACEMENT_3D('',#998,#999,#1000);
#1002=PLANE('',#1001);
#1003=ORIENTED_EDGE('',*,*,#474,.T.);
#1004=ORIENTED_EDGE('',*,*,#114,.T.);
#1005=ORIENTED_EDGE('',*,*,#479,.F.);
#1006=EDGE_LOOP('',(#1003,#1004,#1005));
#1007=FACE_OUTER_BOUND('',#1006,.T.);
#1008=ADVANCED_FACE('',(#1007),#1002,.T.);
#1009=CARTESIAN_POINT('',(0.01526626025061256,0,0.006323492042521005));
#1010=DIRECTION('',(0,-1,0));
#1011=DIRECTION('',(1,0,0));
#1012=AXIS2_PLACEMENT_3D('',#1009,#1010,#1011);
#1013=PLANE('',#1012);
#1014=ORIENTED_EDGE('',*,*,#479,.T.);
#1015=ORIENTED_EDGE('',*,*,#134,.T.);
#1016=ORIENTED_EDGE('',*,*,#484,.F.);
#1017=EDGE_LOOP('',(#1014,#1015,#1016));
#1018=FACE_OUTER_BOUND('',#1017,.T.);
#1019=ADVANCED_FACE('',(#1018),#1013,.T.);
#1020=CARTESIAN_POINT('',(0.01310943487475822,0,0.010059223176554562));
#1021=DIRECTION('',(0,-1,0));
#1022=DIRECTION('',(1,0,0));
#1023=AXIS2_PLACEMENT_3D('',#1020,#1021,#1022);
#1024=PLANE('',#1023);
#1025=ORIENTED_EDGE('',*,*,#484,.T.);
#1026=ORIENTED_EDGE('',*,*,#149,.T.);
#1027=ORIENTED_EDGE('',*,*,#489,.F.);
#1028=EDGE_LOOP('',(#1025,#1026,#1027));
#1029=FACE_OUTER_BOUND('',#1028,.T.);
#1030=ADVANCED_FACE('',(#1029),#1024,.T.);
#1031=CARTESIAN_POINT('',(0.010059223176554565,0,0.013109434874758219));
#1032=DIRECTION('',(0,-1,0));
#1033=DIRECTION('',(1,0,0));
#1034=AXIS2_PLACEMENT_3D('',#1031,#1032,#1033);
#1035=PLANE('',#1034);
#1036=ORIENTED_EDGE('',*,*,#489,.T.);
#1037=ORIENTED_EDGE('',*,*,#164,.T.);
#1038=ORIENTED_EDGE('',*,*,#494,.F.);
#1039=EDGE_LOOP('',(#1036,#1037,#1038));
#1040=FACE_OUTER_BOUND('',#1039,.T.);
#1041=ADVANCED_FACE('',(#1040),#1035,.T.);
#1042=CARTESIAN_POINT('',(0.0063234920425210076,0,0.015266260250612557));
#1043=DIRECTION('',(0,-1,0));
#1044=DIRECTION('',(1,0,0));
#1045=AXIS2_PLACEMENT_3D('',#1042,#1043,#1044);
#1046=PLANE('',#1045);
#1047=ORIENTED_EDGE('',*,*,#494,.T.);
#1048=ORIENTED_EDGE('',*,*,#179,.T.);
#1049=ORIENTED_EDGE('',*,*,#499,.F.);
#1050=EDGE_LOOP('',(#1047,#1048,#1049));
#1051=FACE_OUTER_BOUND('',#1050,.T.);
#1052=ADVANCED_FACE('',(#1051),#1046,.T.);
#1053=CARTESIAN_POINT('',(0.00215682537585434,0,0.01638271521907557));
#1054=DIRECTION('',(0,-1,0));
#1055=DIRECTION('',(1,0,0));
#1056=AXIS2_PLACEMENT_3D('',#1053,#1054,#1055);
#1057=PLANE('',#1056);
#1058=ORIENTED_EDGE('',*,*,#499,.T.);
#1059=ORIENTED_EDGE('',*,*,#194,.T.);
#1060=ORIENTED_EDGE('',*,*,#504,.F.);
#1061=EDGE_LOOP('',(#1058,#1059,#1060));
#1062=FACE_OUTER_BOUND('',#1061,.T.);
#1063=ADVANCED_FACE('',(#1062),#1057,.T.);
#1064=CARTESIAN_POINT('',(-0.00215682537585434,0,0.01638271521907557));
#1065=DIRECTION('',(0,-1,0));
#1066=DIRECTION('',(1,0,0));
#1067=AXIS2_PLACEMENT_3D('',#1064,#1065,#1066);
#1068=PLANE('',#1067);
#1069=ORIENTED_EDGE('',*,*,#504,.T.);
#1070=ORIENTED_EDGE('',*,*,#209,.T.);
#1071=ORIENTED_EDGE('',*,*,#509,.F.);
#1072=EDGE_LOOP('',(#1069,#1070,#1071));
#1073=FACE_OUTER_BOUND('',#1072,.T.);
#1074=ADVANCED_FACE('',(#1073),#1068,.T.);
#1075=CARTESIAN_POINT('',(-0.006323492042521005,0,0.01526626025061256));
#1076=DIRECTION('',(0,-1,0));
#1077=DIRECTION('',(1,0,0));
#1078=AXIS2_PLACEMENT_3D('',#1075,#1076,#1077);
#1079=PLANE('',#1078);
#1080=ORIENTED_EDGE('',*,*,#509,.T.);
#1081=ORIENTED_EDGE('',*,*,#224,.T.);
#1082=ORIENTED_EDGE('',*,*,#514,.F.);
#1083=EDGE_LOOP('',(#1080,#1081,#1082));
#1084=FACE_OUTER_BOUND('',#1083,.T.);
#1085=ADVANCED_FACE('',(#1084),#1079,.T.);
#1086=CARTESIAN_POINT('',(-0.010059223176554562,0,0.01310943487475822));
#1087=DIRECTION('',(0,-1,0));
#1088=DIRECTION('',(1,0,0));
#1089=AXIS2_PLACEMENT_3D('',#1086,#1087,#1088);
#1090=PLANE('',#1089);
#1091=ORIENTED_EDGE('',*,*,#514,.T.);
#1092=ORIENTED_EDGE('',*,*,#239,.T.);
#1093=ORIENTED_EDGE('',*,*,#519,.F.);
#1094=EDGE_LOOP('',(#1091,#1092,#1093));
#1095=FACE_OUTER_BOUND('',#1094,.T.);
#1096=ADVANCED_FACE('',(#1095),#1090,.T.);
#1097=CARTESIAN_POINT('',(-0.013109434874758219,0,0.010059223176554563));
#1098=DIRECTION('',(0,-1,0));
#1099=DIRECTION('',(1,0,0));
#1100=AXIS2_PLACEMENT_3D('',#1097,#1098,#1099);
#1101=PLANE('',#1100);
#1102=ORIENTED_EDGE('',*,*,#519,.T.);
#1103=ORIENTED_EDGE('',*,*,#254,.T.);
#1104=ORIENTED_EDGE('',*,*,#524,.F.);
#1105=EDGE_LOOP('',(#1102,#1103,#1104));
#1106=FACE_OUTER_BOUND('',#1105,.T.);
#1107=ADVANCED_FACE('',(#1106),#1101,.T.);
#1108=CARTESIAN_POINT('',(-0.015266260250612557,0,0.0063234920425210076));
#1109=DIRECTION('',(0,-1,0));
#1110=DIRECTION('',(1,0,0));
#1111=AXIS2_PLACEMENT_3D('',#1108,#1109,#1110);
#1112=PLANE('',#1111);
#1113=ORIENTED_EDGE('',*,*,#524,.T.);
#1114=ORIENTED_EDGE('',*,*,#269,.T.);
#1115=ORIENTED_EDGE('',*,*,#529,.F.);
#1116=EDGE_LOOP('',(#1113,#1114,#1115));
#1117=FACE_OUTER_BOUND('',#1116,.T.);
#1118=ADVANCED_FACE('',(#1117),#1112,.T.);
#1119=CARTESIAN_POINT('',(-0.01638271521907557,0,0.002156825375854343));
#1120=DIRECTION('',(0,-1,0));
#1121=DIRECTION('',(1,0,0));
#1122=AXIS2_PLACEMENT_3D('',#1119,#1120,#1121);
#1123=PLANE('',#1122);
#1124=ORIENTED_EDGE('',*,*,#529,.T.);
#1125=ORIENTED_EDGE('',*,*,#284,.T.);
#1126=ORIENTED_EDGE('',*,*,#534,.F.);
#1127=EDGE_LOOP('',(#1124,#1125,#1126));
#1128=FACE_OUTER_BOUND('',#1127,.T.);
#1129=ADVANCED_FACE('',(#1128),#1123,.T.);
#1130=CARTESIAN_POINT('',(-0.016382715219075573,0,-0.0021568253758543353));
#1131=DIRECTION('',(0,-1,0));
#1132=DIRECTION('',(1,0,0));
#1133=AXIS2_PLACEMENT_3D('',#1130,#1131,#1132);
#1134=PLANE('',#1133);
#1135=ORIENTED_EDGE('',*,*,#534,.T.);
#1136=ORIENTED_EDGE('',*,*,#299,.T.);
#1137=ORIENTED_EDGE('',*,*,#539,.F.);
#1138=EDGE_LOOP('',(#1135,#1136,#1137));
#1139=FACE_OUTER_BOUND('',#1138,.T.);
#1140=ADVANCED_FACE('',(#1139),#1134,.T.);
#1141=CARTESIAN_POINT('',(-0.01526626025061256,0,-0.006323492042521004));
#1142=DIRECTION('',(0,-1,0));
#1143=DIRECTION('',(1,0,0));
#1144=AXIS2_PLACEMENT_3D('',#1141,#1142,#1143);
#1145=PLANE('',#1144);
#1146=ORIENTED_EDGE('',*,*,#539,.T.);
#1147=ORIENTED_EDGE('',*,*,#314,.T.);
#1148=ORIENTED_EDGE('',*,*,#544,.F.);
#1149=EDGE_LOOP('',(#1146,#1147,#1148));
#1150=FACE_OUTER_BOUND('',#1149,.T.);
#1151=ADVANCED_FACE('',(#1150),#1145,.T.);
#1152=CARTESIAN_POINT('',(-0.013109434874758219,0,-0.010059223176554563));
#1153=DIRECTION('',(0,-1,0));
#1154=DIRECTION('',(1,0,0));
#1155=AXIS2_PLACEMENT_3D('',#1152,#1153,#1154);
#1156=PLANE('',#1155);
#1157=ORIENTED_EDGE('',*,*,#544,.T.);
#1158=ORIENTED_EDGE('',*,*,#329,.T.);
#1159=ORIENTED_EDGE('',*,*,#549,.F.);
#1160=EDGE_LOOP('',(#1157,#1158,#1159));
#1161=FACE_OUTER_BOUND('',#1160,.T.);
#1162=ADVANCED_FACE('',(#1161),#1156,.T.);
#1163=CARTESIAN_POINT('',(-0.010059223176554567,0,-0.013109434874758215));
#1164=DIRECTION('',(0,-1,0));
#1165=DIRECTION('',(1,0,0));
#1166=AXIS2_PLACEMENT_3D('',#1163,#1164,#1165);
#1167=PLANE('',#1166);
#1168=ORIENTED_EDGE('',*,*,#549,.T.);
#1169=ORIENTED_EDGE('',*,*,#344,.T.);
#1170=ORIENTED_EDGE('',*,*,#554,.F.);
#1171=EDGE_LOOP('',(#1168,#1169,#1170));
#1172=FACE_OUTER_BOUND('',#1171,.T.);
#1173=ADVANCED_FACE('',(#1172),#1167,.T.);
#1174=CARTESIAN_POINT('',(-0.006323492042521008,0,-0.015266260250612557));
#1175=DIRECTION('',(0,-1,0));
#1176=DIRECTION('',(1,0,0));
#1177=AXIS2_PLACEMENT_3D('',#1174,#1175,#1176);
#1178=PLANE('',#1177);
#1179=ORIENTED_EDGE('',*,*,#554,.T.);
#1180=ORIENTED_EDGE('',*,*,#359,.T.);
#1181=ORIENTED_EDGE('',*,*,#559,.F.);
#1182=EDGE_LOOP('',(#1179,#1180,#1181));
#1183=FACE_OUTER_BOUND('',#1182,.T.);
#1184=ADVANCED_FACE('',(#1183),#1178,.T.);
#1185=CARTESIAN_POINT('',(-0.00215682537585434,0,-0.01638271521907557));
#1186=DIRECTION('',(0,-1,0));
#1187=DIRECTION('',(1,0,0));
#1188=AXIS2_PLACEMENT_3D('',#1185,#1186,#1187);
#1189=PLANE('',#1188);
#1190=ORIENTED_EDGE('',*,*,#559,.T.);
#1191=ORIENTED_EDGE('',*,*,#374,.T.);
#1192=ORIENTED_EDGE('',*,*,#564,.F.);
#1193=EDGE_LOOP('',(#1190,#1191,#1192));
#1194=FACE_OUTER_BOUND('',#1193,.T.);
#1195=ADVANCED_FACE('',(#1194),#1189,.T.);
#1196=CARTESIAN_POINT('',(0.0021568253758543344,0,-0.016382715219075573));
#1197=DIRECTION('',(0,-1,0));
#1198=DIRECTION('',(1,0,0));
#1199=AXIS2_PLACEMENT_3D('',#1196,#1197,#1198);
#1200=PLANE('',#1199);
#1201=ORIENTED_EDGE('',*,*,#564,.T.);
#1202=ORIENTED_EDGE('',*,*,#389,.T.);
#1203=ORIENTED_EDGE('',*,*,#569,.F.);
#1204=EDGE_LOOP('',(#1201,#1202,#1203));
#1205=FACE_OUTER_BOUND('',#1204,.T.);
#1206=ADVANCED_FACE('',(#1205),#1200,.T.);
#1207=CARTESIAN_POINT('',(0.006323492042521004,0,-0.01526626025061256));
#1208=DIRECTION('',(0,-1,0));
#1209=DIRECTION('',(1,0,0));
#1210=AXIS2_PLACEMENT_3D('',#1207,#1208,#1209);
#1211=PLANE('',#1210);
#1212=ORIENTED_EDGE('',*,*,#569,.T.);
#1213=ORIENTED_EDGE('',*,*,#404,.T.);
#1214=ORIENTED_EDGE('',*,*,#574,.F.);
#1215=EDGE_LOOP('',(#1212,#1213,#1214));
#1216=FACE_OUTER_BOUND('',#1215,.T.);
#1217=ADVANCED_FACE('',(#1216),#1211,.T.);
#1218=CARTESIAN_POINT('',(0.010059223176554563,0,-0.013109434874758219));
#1219=DIRECTION('',(0,-1,0));
#1220=DIRECTION('',(1,0,0));
#1221=AXIS2_PLACEMENT_3D('',#1218,#1219,#1220);
#1222=PLANE('',#1221);
#1223=ORIENTED_EDGE('',*,*,#574,.T.);
#1224=ORIENTED_EDGE('',*,*,#419,.T.);
#1225=ORIENTED_EDGE('',*,*,#579,.F.);
#1226=EDGE_LOOP('',(#1223,#1224,#1225));
#1227=FACE_OUTER_BOUND('',#1226,.T.);
#1228=ADVANCED_FACE('',(#1227),#1222,.T.);
#1229=CARTESIAN_POINT('',(0.013109434874758213,0,-0.010059223176554567));
#1230=DIRECTION('',(0,-1,0));
#1231=DIRECTION('',(1,0,0));
#1232=AXIS2_PLACEMENT_3D('',#1229,#1230,#1231);
#1233=PLANE('',#1232);
#1234=ORIENTED_EDGE('',*,*,#579,.T.);
#1235=ORIENTED_EDGE('',*,*,#434,.T.);
#1236=ORIENTED_EDGE('',*,*,#584,.F.);
#1237=EDGE_LOOP('',(#1234,#1235,#1236));
#1238=FACE_OUTER_BOUND('',#1237,.T.);
#1239=ADVANCED_FACE('',(#1238),#1233,.T.);
#1240=CARTESIAN_POINT('',(0.015266260250612557,0,-0.00632349204252101));
#1241=DIRECTION('',(0,-1,0));
#1242=DIRECTION('',(1,0,0));
#1243=AXIS2_PLACEMENT_3D('',#1240,#1241,#1242);
#1244=PLANE('',#1243);
#1245=ORIENTED_EDGE('',*,*,#584,.T.);
#1246=ORIENTED_EDGE('',*,*,#449,.T.);
#1247=ORIENTED_EDGE('',*,*,#589,.F.);
#1248=EDGE_LOOP('',(#1245,#1246,#1247));
#1249=FACE_OUTER_BOUND('',#1248,.T.);
#1250=ADVANCED_FACE('',(#1249),#1244,.T.);
#1251=CARTESIAN_POINT('',(0.01638271521907557,0,-0.002156825375854339));
#1252=DIRECTION('',(0,-1,0));
#1253=DIRECTION('',(1,0,0));
#1254=AXIS2_PLACEMENT_3D('',#1251,#1252,#1253);
#1255=PLANE('',#1254);
#1256=ORIENTED_EDGE('',*,*,#589,.T.);
#1257=ORIENTED_EDGE('',*,*,#464,.T.);
#1258=ORIENTED_EDGE('',*,*,#474,.F.);
#1259=EDGE_LOOP('',(#1256,#1257,#1258));
#1260=FACE_OUTER_BOUND('',#1259,.T.);
#1261=ADVANCED_FACE('',(#1260),#1255,.T.);
#1262=CARTESIAN_POINT('',(0.01638271521907557,0.022000000000000002,0.0021568253758543396));
#1263=DIRECTION('',(0,-1,0));
#1264=DIRECTION('',(1,0,0));
#1265=AXIS2_PLACEMENT_3D('',#1262,#1263,#1264);
#1266=PLANE('',#1265);
#1267=ORIENTED_EDGE('',*,*,#594,.T.);
#1268=ORIENTED_EDGE('',*,*,#124,.T.);
#1269=ORIENTED_EDGE('',*,*,#599,.F.);
#1270=EDGE_LOOP('',(#1267,#1268,#1269));
#1271=FACE_OUTER_BOUND('',#1270,.T.);
#1272=ADVANCED_FACE('',(#1271),#1266,.T.);
#1273=CARTESIAN_POINT('',(0.01526626025061256,0.022000000000000002,0.006323492042521005));
#1274=DIRECTION('',(0,-1,0));
#1275=DIRECTION('',(1,0,0));
#1276=AXIS2_PLACEMENT_3D('',#1273,#1274,#1275);
#1277=PLANE('',#1276);
#1278=ORIENTED_EDGE('',*,*,#599,.T.);
#1279=ORIENTED_EDGE('',*,*,#144,.T.);
#1280=ORIENTED_EDGE('',*,*,#604,.F.);
#1281=EDGE_LOOP('',(#1278,#1279,#1280));
#1282=FACE_OUTER_BOUND('',#1281,.T.);
#1283=ADVANCED_FACE('',(#1282),#1277,.T.);
#1284=CARTESIAN_POINT('',(0.01310943487475822,0.022000000000000002,0.010059223176554562));
#1285=DIRECTION('',(0,-1,0));
#1286=DIRECTION('',(1,0,0));
#1287=AXIS2_PLACEMENT_3D('',#1284,#1285,#1286);
#1288=PLANE('',#1287);
#1289=ORIENTED_EDGE('',*,*,#604,.T.);
#1290=ORIENTED_EDGE('',*,*,#159,.T.);
#1291=ORIENTED_EDGE('',*,*,#609,.F.);
#1292=EDGE_LOOP('',(#1289,#1290,#1291));
#1293=FACE_OUTER_BOUND('',#1292,.T.);
#1294=ADVANCED_FACE('',(#1293),#1288,.T.);
#1295=CARTESIAN_POINT('',(0.010059223176554565,0.022000000000000002,0.013109434874758219));
#1296=DIRECTION('',(0,-1,0));
#1297=DIRECTION('',(1,0,0));
#1298=AXIS2_PLACEMENT_3D('',#1295,#1296,#1297);
#1299=PLANE('',#1298);
#1300=ORIENTED_EDGE('',*,*,#609,.T.);
#1301=ORIENTED_EDGE('',*,*,#174,.T.);
#1302=ORIENTED_EDGE('',*,*,#614,.F.);
#1303=EDGE_LOOP('',(#1300,#1301,#1302));
#1304=FACE_OUTER_BOUND('',#1303,.T.);
#1305=ADVANCED_FACE('',(#1304),#1299,.T.);
#1306=CARTESIAN_POINT('',(0.0063234920425210076,0.022000000000000002,0.015266260250612557));
#1307=DIRECTION('',(0,-1,0));
#1308=DIRECTION('',(1,0,0));
#1309=AXIS2_PLACEMENT_3D('',#1306,#1307,#1308);
#1310=PLANE('',#1309);
#1311=ORIENTED_EDGE('',*,*,#614,.T.);
#1312=ORIENTED_EDGE('',*,*,#189,.T.);
#1313=ORIENTED_EDGE('',*,*,#619,.F.);
#1314=EDGE_LOOP('',(#1311,#1312,#1313));
#1315=FACE_OUTER_BOUND('',#1314,.T.);
#1316=ADVANCED_FACE('',(#1315),#1310,.T.);
#1317=CARTESIAN_POINT('',(0.00215682537585434,0.022000000000000002,0.01638271521907557));
#1318=DIRECTION('',(0,-1,8.126428454210338e-17));
#1319=DIRECTION('',(1,0,0));
#1320=AXIS2_PLACEMENT_3D('',#1317,#1318,#1319);
#1321=PLANE('',#1320);
#1322=ORIENTED_EDGE('',*,*,#619,.T.);
#1323=ORIENTED_EDGE('',*,*,#204,.T.);
#1324=ORIENTED_EDGE('',*,*,#624,.F.);
#1325=EDGE_LOOP('',(#1322,#1323,#1324));
#1326=FACE_OUTER_BOUND('',#1325,.T.);
#1327=ADVANCED_FACE('',(#1326),#1321,.T.);
#1328=CARTESIAN_POINT('',(-0.00215682537585434,0.022000000000000002,0.01638271521907557));
#1329=DIRECTION('',(0,-1,0));
#1330=DIRECTION('',(1,0,0));
#1331=AXIS2_PLACEMENT_3D('',#1328,#1329,#1330);
#1332=PLANE('',#1331);
#1333=ORIENTED_EDGE('',*,*,#624,.T.);
#1334=ORIENTED_EDGE('',*,*,#219,.T.);
#1335=ORIENTED_EDGE('',*,*,#629,.F.);
#1336=EDGE_LOOP('',(#1333,#1334,#1335));
#1337=FACE_OUTER_BOUND('',#1336,.T.);
#1338=ADVANCED_FACE('',(#1337),#1332,.T.);
#1339=CARTESIAN_POINT('',(-0.006323492042521005,0.022000000000000002,0.01526626025061256));
#1340=DIRECTION('',(0,-1,-6.702456827663776e-16));
#1341=DIRECTION('',(1,0,0));
#1342=AXIS2_PLACEMENT_3D('',#1339,#1340,#1341);
#1343=PLANE('',#1342);
#1344=ORIENTED_EDGE('',*,*,#629,.T.);
#1345=ORIENTED_EDGE('',*,*,#234,.T.);
#1346=ORIENTED_EDGE('',*,*,#634,.F.);
#1347=EDGE_LOOP('',(#1344,#1345,#1346));
#1348=FACE_OUTER_BOUND('',#1347,.T.);
#1349=ADVANCED_FACE('',(#1348),#1343,.T.);
#1350=CARTESIAN_POINT('',(-0.010059223176554562,0.022000000000000002,0.01310943487475822));
#1351=DIRECTION('',(0,-1,0));
#1352=DIRECTION('',(1,0,0));
#1353=AXIS2_PLACEMENT_3D('',#1350,#1351,#1352);
#1354=PLANE('',#1353);
#1355=ORIENTED_EDGE('',*,*,#634,.T.);
#1356=ORIENTED_EDGE('',*,*,#249,.T.);
#1357=ORIENTED_EDGE('',*,*,#639,.F.);
#1358=EDGE_LOOP('',(#1355,#1356,#1357));
#1359=FACE_OUTER_BOUND('',#1358,.T.);
#1360=ADVANCED_FACE('',(#1359),#1354,.T.);
#1361=CARTESIAN_POINT('',(-0.013109434874758219,0.022000000000000002,0.010059223176554563));
#1362=DIRECTION('',(0,-1,0));
#1363=DIRECTION('',(1,0,0));
#1364=AXIS2_PLACEMENT_3D('',#1361,#1362,#1363);
#1365=PLANE('',#1364);
#1366=ORIENTED_EDGE('',*,*,#639,.T.);
#1367=ORIENTED_EDGE('',*,*,#264,.T.);
#1368=ORIENTED_EDGE('',*,*,#644,.F.);
#1369=EDGE_LOOP('',(#1366,#1367,#1368));
#1370=FACE_OUTER_BOUND('',#1369,.T.);
#1371=ADVANCED_FACE('',(#1370),#1365,.T.);
#1372=CARTESIAN_POINT('',(-0.015266260250612557,0.022000000000000002,0.0063234920425210076));
#1373=DIRECTION('',(0,-1,0));
#1374=DIRECTION('',(1,0,0));
#1375=AXIS2_PLACEMENT_3D('',#1372,#1373,#1374);
#1376=PLANE('',#1375);
#1377=ORIENTED_EDGE('',*,*,#644,.T.);
#1378=ORIENTED_EDGE('',*,*,#279,.T.);
#1379=ORIENTED_EDGE('',*,*,#649,.F.);
#1380=EDGE_LOOP('',(#1377,#1378,#1379));
#1381=FACE_OUTER_BOUND('',#1380,.T.);
#1382=ADVANCED_FACE('',(#1381),#1376,.T.);
#1383=CARTESIAN_POINT('',(-0.01638271521907557,0.022000000000000002,0.002156825375854343));
#1384=DIRECTION('',(0,-1,-1.340491365532753e-15));
#1385=DIRECTION('',(1,0,0));
#1386=AXIS2_PLACEMENT_3D('',#1383,#1384,#1385);
#1387=PLANE('',#1386);
#1388=ORIENTED_EDGE('',*,*,#649,.T.);
#1389=ORIENTED_EDGE('',*,*,#294,.T.);
#1390=ORIENTED_EDGE('',*,*,#654,.F.);
#1391=EDGE_LOOP('',(#1388,#1389,#1390));
#1392=FACE_OUTER_BOUND('',#1391,.T.);
#1393=ADVANCED_FACE('',(#1392),#1387,.T.);
#1394=CARTESIAN_POINT('',(-0.016382715219075573,0.022000000000000002,-0.0021568253758543353));
#1395=DIRECTION('',(0,-1,0));
#1396=DIRECTION('',(1,0,0));
#1397=AXIS2_PLACEMENT_3D('',#1394,#1395,#1396);
#1398=PLANE('',#1397);
#1399=ORIENTED_EDGE('',*,*,#654,.T.);
#1400=ORIENTED_EDGE('',*,*,#309,.T.);
#1401=ORIENTED_EDGE('',*,*,#659,.F.);
#1402=EDGE_LOOP('',(#1399,#1400,#1401));
#1403=FACE_OUTER_BOUND('',#1402,.T.);
#1404=ADVANCED_FACE('',(#1403),#1398,.T.);
#1405=CARTESIAN_POINT('',(-0.01526626025061256,0.022000000000000002,-0.006323492042521004));
#1406=DIRECTION('',(0,-1,0));
#1407=DIRECTION('',(1,0,0));
#1408=AXIS2_PLACEMENT_3D('',#1405,#1406,#1407);
#1409=PLANE('',#1408);
#1410=ORIENTED_EDGE('',*,*,#659,.T.);
#1411=ORIENTED_EDGE('',*,*,#324,.T.);
#1412=ORIENTED_EDGE('',*,*,#664,.F.);
#1413=EDGE_LOOP('',(#1410,#1411,#1412));
#1414=FACE_OUTER_BOUND('',#1413,.T.);
#1415=ADVANCED_FACE('',(#1414),#1409,.T.);
#1416=CARTESIAN_POINT('',(-0.013109434874758219,0.022000000000000002,-0.010059223176554563));
#1417=DIRECTION('',(0,-1,0));
#1418=DIRECTION('',(1,0,0));
#1419=AXIS2_PLACEMENT_3D('',#1416,#1417,#1418);
#1420=PLANE('',#1419);
#1421=ORIENTED_EDGE('',*,*,#664,.T.);
#1422=ORIENTED_EDGE('',*,*,#339,.T.);
#1423=ORIENTED_EDGE('',*,*,#669,.F.);
#1424=EDGE_LOOP('',(#1421,#1422,#1423));
#1425=FACE_OUTER_BOUND('',#1424,.T.);
#1426=ADVANCED_FACE('',(#1425),#1420,.T.);
#1427=CARTESIAN_POINT('',(-0.010059223176554567,0.022000000000000002,-0.013109434874758215));
#1428=DIRECTION('',(0,-1,0));
#1429=DIRECTION('',(1,0,0));
#1430=AXIS2_PLACEMENT_3D('',#1427,#1428,#1429);
#1431=PLANE('',#1430);
#1432=ORIENTED_EDGE('',*,*,#669,.T.);
#1433=ORIENTED_EDGE('',*,*,#354,.T.);
#1434=ORIENTED_EDGE('',*,*,#674,.F.);
#1435=EDGE_LOOP('',(#1432,#1433,#1434));
#1436=FACE_OUTER_BOUND('',#1435,.T.);
#1437=ADVANCED_FACE('',(#1436),#1431,.T.);
#1438=CARTESIAN_POINT('',(-0.006323492042521008,0.022000000000000002,-0.015266260250612557));
#1439=DIRECTION('',(0,-1,0));
#1440=DIRECTION('',(1,0,0));
#1441=AXIS2_PLACEMENT_3D('',#1438,#1439,#1440);
#1442=PLANE('',#1441);
#1443=ORIENTED_EDGE('',*,*,#674,.T.);
#1444=ORIENTED_EDGE('',*,*,#369,.T.);
#1445=ORIENTED_EDGE('',*,*,#679,.F.);
#1446=EDGE_LOOP('',(#1443,#1444,#1445));
#1447=FACE_OUTER_BOUND('',#1446,.T.);
#1448=ADVANCED_FACE('',(#1447),#1442,.T.);
#1449=CARTESIAN_POINT('',(-0.00215682537585434,0.022000000000000002,-0.01638271521907557));
#1450=DIRECTION('',(0,-1,-2.4379285362631015e-16));
#1451=DIRECTION('',(1,0,0));
#1452=AXIS2_PLACEMENT_3D('',#1449,#1450,#1451);
#1453=PLANE('',#1452);
#1454=ORIENTED_EDGE('',*,*,#679,.T.);
#1455=ORIENTED_EDGE('',*,*,#384,.T.);
#1456=ORIENTED_EDGE('',*,*,#684,.F.);
#1457=EDGE_LOOP('',(#1454,#1455,#1456));
#1458=FACE_OUTER_BOUND('',#1457,.T.);
#1459=ADVANCED_FACE('',(#1458),#1453,.T.);
#1460=CARTESIAN_POINT('',(0.0021568253758543344,0.022000000000000002,-0.016382715219075573));
#1461=DIRECTION('',(0,-1,3.3512284138318875e-16));
#1462=DIRECTION('',(1,0,0));
#1463=AXIS2_PLACEMENT_3D('',#1460,#1461,#1462);
#1464=PLANE('',#1463);
#1465=ORIENTED_EDGE('',*,*,#684,.T.);
#1466=ORIENTED_EDGE('',*,*,#399,.T.);
#1467=ORIENTED_EDGE('',*,*,#689,.F.);
#1468=EDGE_LOOP('',(#1465,#1466,#1467));
#1469=FACE_OUTER_BOUND('',#1468,.T.);
#1470=ADVANCED_FACE('',(#1469),#1464,.T.);
#1471=CARTESIAN_POINT('',(0.006323492042521004,0.022000000000000002,-0.01526626025061256));
#1472=DIRECTION('',(0,-1,0));
#1473=DIRECTION('',(1,0,0));
#1474=AXIS2_PLACEMENT_3D('',#1471,#1472,#1473);
#1475=PLANE('',#1474);
#1476=ORIENTED_EDGE('',*,*,#689,.T.);
#1477=ORIENTED_EDGE('',*,*,#414,.T.);
#1478=ORIENTED_EDGE('',*,*,#694,.F.);
#1479=EDGE_LOOP('',(#1476,#1477,#1478));
#1480=FACE_OUTER_BOUND('',#1479,.T.);
#1481=ADVANCED_FACE('',(#1480),#1475,.T.);
#1482=CARTESIAN_POINT('',(0.010059223176554563,0.022000000000000002,-0.013109434874758219));
#1483=DIRECTION('',(0,-1,0));
#1484=DIRECTION('',(1,0,0));
#1485=AXIS2_PLACEMENT_3D('',#1482,#1483,#1484);
#1486=PLANE('',#1485);
#1487=ORIENTED_EDGE('',*,*,#694,.T.);
#1488=ORIENTED_EDGE('',*,*,#429,.T.);
#1489=ORIENTED_EDGE('',*,*,#699,.F.);
#1490=EDGE_LOOP('',(#1487,#1488,#1489));
#1491=FACE_OUTER_BOUND('',#1490,.T.);
#1492=ADVANCED_FACE('',(#1491),#1486,.T.);
#1493=CARTESIAN_POINT('',(0.013109434874758213,0.022000000000000002,-0.010059223176554567));
#1494=DIRECTION('',(0,-1,0));
#1495=DIRECTION('',(1,0,0));
#1496=AXIS2_PLACEMENT_3D('',#1493,#1494,#1495);
#1497=PLANE('',#1496);
#1498=ORIENTED_EDGE('',*,*,#699,.T.);
#1499=ORIENTED_EDGE('',*,*,#444,.T.);
#1500=ORIENTED_EDGE('',*,*,#704,.F.);
#1501=EDGE_LOOP('',(#1498,#1499,#1500));
#1502=FACE_OUTER_BOUND('',#1501,.T.);
#1503=ADVANCED_FACE('',(#1502),#1497,.T.);
#1504=CARTESIAN_POINT('',(0.015266260250612557,0.022000000000000002,-0.00632349204252101));
#1505=DIRECTION('',(0,-1,0));
#1506=DIRECTION('',(1,0,0));
#1507=AXIS2_PLACEMENT_3D('',#1504,#1505,#1506);
#1508=PLANE('',#1507);
#1509=ORIENTED_EDGE('',*,*,#704,.T.);
#1510=ORIENTED_EDGE('',*,*,#459,.T.);
#1511=ORIENTED_EDGE('',*,*,#709,.F.);
#1512=EDGE_LOOP('',(#1509,#1510,#1511));
#1513=FACE_OUTER_BOUND('',#1512,.T.);
#1514=ADVANCED_FACE('',(#1513),#1508,.T.);
#1515=CARTESIAN_POINT('',(0.01638271521907557,0.022000000000000002,-0.002156825375854339));
#1516=DIRECTION('',(0,-1,0));
#1517=DIRECTION('',(1,0,0));
#1518=AXIS2_PLACEMENT_3D('',#1515,#1516,#1517);
#1519=PLANE('',#1518);
#1520=ORIENTED_EDGE('',*,*,#709,.T.);
#1521=ORIENTED_EDGE('',*,*,#469,.T.);
#1522=ORIENTED_EDGE('',*,*,#594,.F.);
#1523=EDGE_LOOP('',(#1520,#1521,#1522));
#1524=FACE_OUTER_BOUND('',#1523,.T.);
#1525=ADVANCED_FACE('',(#1524),#1519,.T.);
#1526=CLOSED_SHELL('',(#721,#733,#745,#757,#769,#781,#793,#805,#817,#829,#841,#853,#865,#877,#889,#901,#913,#925,#937,#949,#961,#973,#985,#997,#1008,#1019,#1030,#1041,#1052,#1063,#1074,#1085,#1096,#1107,#1118,#1129,#1140,#1151,#1162,#1173,#1184,#1195,#1206,#1217,#1228,#1239,#1250,#1261,#1272,#1283,#1294,#1305,#1316,#1327,#1338,#1349,#1360,#1371,#1382,#1393,#1404,#1415,#1426,#1437,#1448,#1459,#1470,#1481,#1492,#1503,#1514,#1525));
#1527=MANIFOLD_SOLID_BREP('',#1526);
#1528=SHAPE_REPRESENTATION('TYV6-BRG-ROD-0012',(#1527),#9);
#1529=SHAPE_DEFINITION_REPRESENTATION(#8,#1528);
ENDSEC;
END-ISO-10303-21;