ISO-10303-21;
HEADER;
FILE_DESCRIPTION(('ArchDisc Foundation NURBS export'),'2;1');
FILE_NAME('NURBS_Test_Collection.step','2026-05-10T09:27:15',('ArchDisc Foundation'),('ArchDisc'),'ArchDisc NURBS Exporter','manifold-3d agnostic','');
FILE_SCHEMA(('CONFIG_CONTROL_DESIGN'));
ENDSEC;
DATA;
#1=APPLICATION_CONTEXT('configuration controlled 3d designs of mechanical parts and assemblies');
#2=APPLICATION_PROTOCOL_DEFINITION('international standard','config_control_design',1994,#1);
#3=PRODUCT_CONTEXT('',#1,'mechanical');
#4=PRODUCT_DEFINITION_CONTEXT('part definition',#1,'design');
#5=PRODUCT('NURBS_Test_Collection','NURBS_Test_Collection','',(#3));
#6=PRODUCT_DEFINITION_FORMATION('','',#5);
#7=PRODUCT_DEFINITION('design','',#6,#4);
#8=PRODUCT_DEFINITION_SHAPE('','',#7);
#9=(LENGTH_UNIT()NAMED_UNIT(*)SI_UNIT(.MILLI.,.METRE.));
#10=(NAMED_UNIT(*)PLANE_ANGLE_UNIT()SI_UNIT($,.RADIAN.));
#11=(NAMED_UNIT(*)SI_UNIT($,.STERADIAN.)SOLID_ANGLE_UNIT());
#12=UNCERTAINTY_MEASURE_WITH_UNIT(LENGTH_MEASURE(1.E-6),#9,'distance_accuracy_value','tolerance');
#13=(GEOMETRIC_REPRESENTATION_CONTEXT(3)GLOBAL_UNCERTAINTY_ASSIGNED_CONTEXT((#12))GLOBAL_UNIT_ASSIGNED_CONTEXT((#9,#10,#11))REPRESENTATION_CONTEXT('Context #1','3D Context with UNIT and UNCERTAINTY'));
#14=CARTESIAN_POINT('',(20.0,0.,0.));
#15=CARTESIAN_POINT('',(20.0,20.0,1.25));
#16=CARTESIAN_POINT('',(0.0,20.0,2.5));
#17=CARTESIAN_POINT('',(-20.0,20.0,3.75));
#18=CARTESIAN_POINT('',(-20.0,0.0,5.0));
#19=CARTESIAN_POINT('',(-20.0,-20.0,6.25));
#20=CARTESIAN_POINT('',(-0.0,-20.0,7.5));
#21=CARTESIAN_POINT('',(20.0,-20.0,8.75));
#22=CARTESIAN_POINT('',(20.0,-0.0,10.0));
#23=CARTESIAN_POINT('',(20.0,20.0,11.25));
#24=CARTESIAN_POINT('',(0.0,20.0,12.5));
#25=CARTESIAN_POINT('',(-20.0,20.0,13.75));
#26=CARTESIAN_POINT('',(-20.0,0.0,15.0));
#27=CARTESIAN_POINT('',(-20.0,-20.0,16.25));
#28=CARTESIAN_POINT('',(-0.0,-20.0,17.5));
#29=CARTESIAN_POINT('',(20.0,-20.0,18.75));
#30=CARTESIAN_POINT('',(20.0,-0.0,20.0));
#31=CARTESIAN_POINT('',(20.0,20.0,21.25));
#32=CARTESIAN_POINT('',(0.0,20.0,22.5));
#33=CARTESIAN_POINT('',(-20.0,20.0,23.75));
#34=CARTESIAN_POINT('',(-20.0,0.0,25.0));
#35=CARTESIAN_POINT('',(-20.0,-20.0,26.25));
#36=CARTESIAN_POINT('',(-0.0,-20.0,27.5));
#37=CARTESIAN_POINT('',(20.0,-20.0,28.75));
#38=CARTESIAN_POINT('',(20.0,-0.0,30.0));
#39=(BOUNDED_CURVE()B_SPLINE_CURVE(2,(#14,#15,#16,#17,#18,#19,#20,#21,#22,#23,#24,#25,#26,#27,#28,#29,#30,#31,#32,#33,#34,#35,#36,#37,#38),.UNSPECIFIED.,.F.,.F.)B_SPLINE_CURVE_WITH_KNOTS((3,2,2,2,2,2,2,2,2,2,2,2,3),(0.,0.0833333333,0.1666666667,0.25,0.3333333333,0.4166666667,0.5,0.5833333333,0.6666666667,0.75,0.8333333333,0.9166666667,1.0),.UNSPECIFIED.)CURVE()GEOMETRIC_REPRESENTATION_ITEM()RATIONAL_B_SPLINE_CURVE((1.0,0.7071067812,1.0,0.7071067812,1.0,0.7071067812,1.0,0.7071067812,1.0,0.7071067812,1.0,0.7071067812,1.0,0.7071067812,1.0,0.7071067812,1.0,0.7071067812,1.0,0.7071067812,1.0,0.7071067812,1.0,0.7071067812,1.0))REPRESENTATION_ITEM(''));
#40=CARTESIAN_POINT('',(0.,0.,-15.0));
#41=CARTESIAN_POINT('',(15.0,0.,-15.0));
#42=CARTESIAN_POINT('',(15.0,0.,0.));
#43=CARTESIAN_POINT('',(15.0,0.,15.0));
#44=CARTESIAN_POINT('',(0.,0.,15.0));
#45=CARTESIAN_POINT('',(0.,0.,-15.0));
#46=CARTESIAN_POINT('',(15.0,15.0,-15.0));
#47=CARTESIAN_POINT('',(15.0,15.0,0.));
#48=CARTESIAN_POINT('',(15.0,15.0,15.0));
#49=CARTESIAN_POINT('',(0.,0.,15.0));
#50=CARTESIAN_POINT('',(0.,0.,-15.0));
#51=CARTESIAN_POINT('',(0.,15.0,-15.0));
#52=CARTESIAN_POINT('',(0.,15.0,0.));
#53=CARTESIAN_POINT('',(0.,15.0,15.0));
#54=CARTESIAN_POINT('',(0.,0.,15.0));
#55=CARTESIAN_POINT('',(0.,0.,-15.0));
#56=CARTESIAN_POINT('',(-15.0,15.0,-15.0));
#57=CARTESIAN_POINT('',(-15.0,15.0,0.));
#58=CARTESIAN_POINT('',(-15.0,15.0,15.0));
#59=CARTESIAN_POINT('',(0.,0.,15.0));
#60=CARTESIAN_POINT('',(0.,0.,-15.0));
#61=CARTESIAN_POINT('',(-15.0,0.,-15.0));
#62=CARTESIAN_POINT('',(-15.0,0.,0.));
#63=CARTESIAN_POINT('',(-15.0,0.,15.0));
#64=CARTESIAN_POINT('',(0.,0.,15.0));
#65=CARTESIAN_POINT('',(0.,0.,-15.0));
#66=CARTESIAN_POINT('',(-15.0,-15.0,-15.0));
#67=CARTESIAN_POINT('',(-15.0,-15.0,0.));
#68=CARTESIAN_POINT('',(-15.0,-15.0,15.0));
#69=CARTESIAN_POINT('',(0.,0.,15.0));
#70=CARTESIAN_POINT('',(0.,0.,-15.0));
#71=CARTESIAN_POINT('',(0.,-15.0,-15.0));
#72=CARTESIAN_POINT('',(0.,-15.0,0.));
#73=CARTESIAN_POINT('',(0.,-15.0,15.0));
#74=CARTESIAN_POINT('',(0.,0.,15.0));
#75=CARTESIAN_POINT('',(0.,0.,-15.0));
#76=CARTESIAN_POINT('',(15.0,-15.0,-15.0));
#77=CARTESIAN_POINT('',(15.0,-15.0,0.));
#78=CARTESIAN_POINT('',(15.0,-15.0,15.0));
#79=CARTESIAN_POINT('',(0.,0.,15.0));
#80=CARTESIAN_POINT('',(0.,0.,-15.0));
#81=CARTESIAN_POINT('',(15.0,0.,-15.0));
#82=CARTESIAN_POINT('',(15.0,0.,0.));
#83=CARTESIAN_POINT('',(15.0,0.,15.0));
#84=CARTESIAN_POINT('',(0.,0.,15.0));
#85=(BOUNDED_SURFACE()B_SPLINE_SURFACE(2,2,((#40,#41,#42,#43,#44),(#45,#46,#47,#48,#49),(#50,#51,#52,#53,#54),(#55,#56,#57,#58,#59),(#60,#61,#62,#63,#64),(#65,#66,#67,#68,#69),(#70,#71,#72,#73,#74),(#75,#76,#77,#78,#79),(#80,#81,#82,#83,#84)),.UNSPECIFIED.,.F.,.F.,.F.)B_SPLINE_SURFACE_WITH_KNOTS((3,2,2,2,3),(3,2,3),(0.,0.25,0.5,0.75,1.0),(0.,0.5,1.0),.UNSPECIFIED.)GEOMETRIC_REPRESENTATION_ITEM()RATIONAL_B_SPLINE_SURFACE(((1.0,0.7071067812,1.0,0.7071067812,1.0),(0.7071067812,0.5,0.7071067812,0.5,0.7071067812),(1.0,0.7071067812,1.0,0.7071067812,1.0),(0.7071067812,0.5,0.7071067812,0.5,0.7071067812),(1.0,0.7071067812,1.0,0.7071067812,1.0),(0.7071067812,0.5,0.7071067812,0.5,0.7071067812),(1.0,0.7071067812,1.0,0.7071067812,1.0),(0.7071067812,0.5,0.7071067812,0.5,0.7071067812),(1.0,0.7071067812,1.0,0.7071067812,1.0)))REPRESENTATION_ITEM('')SURFACE());
#86=CARTESIAN_POINT('',(8.0,0.,0.));
#87=CARTESIAN_POINT('',(8.0,0.,25.0));
#88=CARTESIAN_POINT('',(8.0,8.0,0.));
#89=CARTESIAN_POINT('',(8.0,8.0,25.0));
#90=CARTESIAN_POINT('',(0.,8.0,0.));
#91=CARTESIAN_POINT('',(0.,8.0,25.0));
#92=CARTESIAN_POINT('',(-8.0,8.0,0.));
#93=CARTESIAN_POINT('',(-8.0,8.0,25.0));
#94=CARTESIAN_POINT('',(-8.0,0.,0.));
#95=CARTESIAN_POINT('',(-8.0,0.,25.0));
#96=CARTESIAN_POINT('',(-8.0,-8.0,0.));
#97=CARTESIAN_POINT('',(-8.0,-8.0,25.0));
#98=CARTESIAN_POINT('',(0.,-8.0,0.));
#99=CARTESIAN_POINT('',(0.,-8.0,25.0));
#100=CARTESIAN_POINT('',(8.0,-8.0,0.));
#101=CARTESIAN_POINT('',(8.0,-8.0,25.0));
#102=CARTESIAN_POINT('',(8.0,0.,0.));
#103=CARTESIAN_POINT('',(8.0,0.,25.0));
#104=(BOUNDED_SURFACE()B_SPLINE_SURFACE(2,1,((#86,#87),(#88,#89),(#90,#91),(#92,#93),(#94,#95),(#96,#97),(#98,#99),(#100,#101),(#102,#103)),.UNSPECIFIED.,.F.,.F.,.F.)B_SPLINE_SURFACE_WITH_KNOTS((3,2,2,2,3),(2,2),(0.,0.25,0.5,0.75,1.0),(0.,1.0),.UNSPECIFIED.)GEOMETRIC_REPRESENTATION_ITEM()RATIONAL_B_SPLINE_SURFACE(((1.0,1.0),(0.7071067812,0.7071067812),(1.0,1.0),(0.7071067812,0.7071067812),(1.0,1.0),(0.7071067812,0.7071067812),(1.0,1.0),(0.7071067812,0.7071067812),(1.0,1.0)))REPRESENTATION_ITEM('')SURFACE());
#105=CARTESIAN_POINT('',(0.,0.,0.));
#106=DIRECTION('',(0.,0.,1.));
#107=DIRECTION('',(1.,0.,0.));
#108=AXIS2_PLACEMENT_3D('',#105,#106,#107);
#109=SHAPE_REPRESENTATION('',(#108,#39,#85,#104),#13);
#110=SHAPE_DEFINITION_REPRESENTATION(#8,#109);
ENDSEC;
END-ISO-10303-21;