ISO-10303-21;
HEADER;
FILE_DESCRIPTION(('ArchDisc Foundation NURBS export'),'2;1');
FILE_NAME('Sphere_R10_NURBS.step','2026-05-10T09:27:11',('ArchDisc Foundation'),('ArchDisc'),'ArchDisc NURBS Exporter','manifold-3d agnostic','');
FILE_SCHEMA(('CONFIG_CONTROL_DESIGN'));
ENDSEC;
DATA;
#1=APPLICATION_CONTEXT('configuration controlled 3d designs of mechanical parts and assemblies');
#2=APPLICATION_PROTOCOL_DEFINITION('international standard','config_control_design',1994,#1);
#3=PRODUCT_CONTEXT('',#1,'mechanical');
#4=PRODUCT_DEFINITION_CONTEXT('part definition',#1,'design');
#5=PRODUCT('Sphere_R10_NURBS','Sphere_R10_NURBS','',(#3));
#6=PRODUCT_DEFINITION_FORMATION('','',#5);
#7=PRODUCT_DEFINITION('design','',#6,#4);
#8=PRODUCT_DEFINITION_SHAPE('','',#7);
#9=(LENGTH_UNIT()NAMED_UNIT(*)SI_UNIT(.MILLI.,.METRE.));
#10=(NAMED_UNIT(*)PLANE_ANGLE_UNIT()SI_UNIT($,.RADIAN.));
#11=(NAMED_UNIT(*)SI_UNIT($,.STERADIAN.)SOLID_ANGLE_UNIT());
#12=UNCERTAINTY_MEASURE_WITH_UNIT(LENGTH_MEASURE(1.E-6),#9,'distance_accuracy_value','tolerance');
#13=(GEOMETRIC_REPRESENTATION_CONTEXT(3)GLOBAL_UNCERTAINTY_ASSIGNED_CONTEXT((#12))GLOBAL_UNIT_ASSIGNED_CONTEXT((#9,#10,#11))REPRESENTATION_CONTEXT('Context #1','3D Context with UNIT and UNCERTAINTY'));
#14=CARTESIAN_POINT('',(0.,0.,-10.0));
#15=CARTESIAN_POINT('',(10.0,0.,-10.0));
#16=CARTESIAN_POINT('',(10.0,0.,0.));
#17=CARTESIAN_POINT('',(10.0,0.,10.0));
#18=CARTESIAN_POINT('',(0.,0.,10.0));
#19=CARTESIAN_POINT('',(0.,0.,-10.0));
#20=CARTESIAN_POINT('',(10.0,10.0,-10.0));
#21=CARTESIAN_POINT('',(10.0,10.0,0.));
#22=CARTESIAN_POINT('',(10.0,10.0,10.0));
#23=CARTESIAN_POINT('',(0.,0.,10.0));
#24=CARTESIAN_POINT('',(0.,0.,-10.0));
#25=CARTESIAN_POINT('',(0.,10.0,-10.0));
#26=CARTESIAN_POINT('',(0.,10.0,0.));
#27=CARTESIAN_POINT('',(0.,10.0,10.0));
#28=CARTESIAN_POINT('',(0.,0.,10.0));
#29=CARTESIAN_POINT('',(0.,0.,-10.0));
#30=CARTESIAN_POINT('',(-10.0,10.0,-10.0));
#31=CARTESIAN_POINT('',(-10.0,10.0,0.));
#32=CARTESIAN_POINT('',(-10.0,10.0,10.0));
#33=CARTESIAN_POINT('',(0.,0.,10.0));
#34=CARTESIAN_POINT('',(0.,0.,-10.0));
#35=CARTESIAN_POINT('',(-10.0,0.,-10.0));
#36=CARTESIAN_POINT('',(-10.0,0.,0.));
#37=CARTESIAN_POINT('',(-10.0,0.,10.0));
#38=CARTESIAN_POINT('',(0.,0.,10.0));
#39=CARTESIAN_POINT('',(0.,0.,-10.0));
#40=CARTESIAN_POINT('',(-10.0,-10.0,-10.0));
#41=CARTESIAN_POINT('',(-10.0,-10.0,0.));
#42=CARTESIAN_POINT('',(-10.0,-10.0,10.0));
#43=CARTESIAN_POINT('',(0.,0.,10.0));
#44=CARTESIAN_POINT('',(0.,0.,-10.0));
#45=CARTESIAN_POINT('',(0.,-10.0,-10.0));
#46=CARTESIAN_POINT('',(0.,-10.0,0.));
#47=CARTESIAN_POINT('',(0.,-10.0,10.0));
#48=CARTESIAN_POINT('',(0.,0.,10.0));
#49=CARTESIAN_POINT('',(0.,0.,-10.0));
#50=CARTESIAN_POINT('',(10.0,-10.0,-10.0));
#51=CARTESIAN_POINT('',(10.0,-10.0,0.));
#52=CARTESIAN_POINT('',(10.0,-10.0,10.0));
#53=CARTESIAN_POINT('',(0.,0.,10.0));
#54=CARTESIAN_POINT('',(0.,0.,-10.0));
#55=CARTESIAN_POINT('',(10.0,0.,-10.0));
#56=CARTESIAN_POINT('',(10.0,0.,0.));
#57=CARTESIAN_POINT('',(10.0,0.,10.0));
#58=CARTESIAN_POINT('',(0.,0.,10.0));
#59=(BOUNDED_SURFACE()B_SPLINE_SURFACE(2,2,((#14,#15,#16,#17,#18),(#19,#20,#21,#22,#23),(#24,#25,#26,#27,#28),(#29,#30,#31,#32,#33),(#34,#35,#36,#37,#38),(#39,#40,#41,#42,#43),(#44,#45,#46,#47,#48),(#49,#50,#51,#52,#53),(#54,#55,#56,#57,#58)),.UNSPECIFIED.,.F.,.F.,.F.)B_SPLINE_SURFACE_WITH_KNOTS((3,2,2,2,3),(3,2,3),(0.,0.25,0.5,0.75,1.0),(0.,0.5,1.0),.UNSPECIFIED.)GEOMETRIC_REPRESENTATION_ITEM()RATIONAL_B_SPLINE_SURFACE(((1.0,0.7071067812,1.0,0.7071067812,1.0),(0.7071067812,0.5,0.7071067812,0.5,0.7071067812),(1.0,0.7071067812,1.0,0.7071067812,1.0),(0.7071067812,0.5,0.7071067812,0.5,0.7071067812),(1.0,0.7071067812,1.0,0.7071067812,1.0),(0.7071067812,0.5,0.7071067812,0.5,0.7071067812),(1.0,0.7071067812,1.0,0.7071067812,1.0),(0.7071067812,0.5,0.7071067812,0.5,0.7071067812),(1.0,0.7071067812,1.0,0.7071067812,1.0)))REPRESENTATION_ITEM('')SURFACE());
#60=CARTESIAN_POINT('',(0.,0.,0.));
#61=DIRECTION('',(0.,0.,1.));
#62=DIRECTION('',(1.,0.,0.));
#63=AXIS2_PLACEMENT_3D('',#60,#61,#62);
#64=GEOMETRICALLY_BOUNDED_SURFACE_SHAPE_REPRESENTATION('',(#63,#59),#13);
#65=SHAPE_DEFINITION_REPRESENTATION(#8,#64);
ENDSEC;
END-ISO-10303-21;