ISO-10303-21;
HEADER;
FILE_DESCRIPTION(('ArchDisc Geometry Kernel Export'),'2;1');
FILE_NAME('TPSL-INST-PRT-0001.step','20260509T193852',('ArchDisc'),('ArchDisc Inc'),'ArchDisc Kernel 1.0','ArchDisc','');
FILE_SCHEMA(('AUTOMOTIVE_DESIGN'));
ENDSEC;
DATA;
#1=APPLICATION_CONTEXT('automotive design');
#2=APPLICATION_PROTOCOL_DEFINITION('international standard','automotive_design',2009,#1);
#3=PRODUCT_CONTEXT('',#1,'mechanical');
#4=PRODUCT('TPSL-INST-PRT-0001','TPSL-INST-PRT-0001','',(#3));
#5=PRODUCT_DEFINITION_FORMATION('','',#4);
#6=PRODUCT_DEFINITION_CONTEXT('design',#1,'design');
#7=PRODUCT_DEFINITION('design','',#5,#6);
#8=PRODUCT_DEFINITION_SHAPE('','',#7);
#9=(GEOMETRIC_REPRESENTATION_CONTEXT(3) GLOBAL_UNCERTAINTY_ASSIGNED_CONTEXT((#0)) GLOBAL_UNIT_ASSIGNED_CONTEXT((#0,#0,#0)) REPRESENTATION_CONTEXT('Context3D','');
#10=CARTESIAN_POINT('',(0.002,0,0));
#11=VERTEX_POINT('',#10);
#12=CARTESIAN_POINT('',(0.0014142135623730952,0,0.001414213562373095));
#13=VERTEX_POINT('',#12);
#14=CARTESIAN_POINT('',(0.0014142135623730952,0.02,0.001414213562373095));
#15=VERTEX_POINT('',#14);
#16=CARTESIAN_POINT('',(0.002,0.02,0));
#17=VERTEX_POINT('',#16);
#18=CARTESIAN_POINT('',(1.2246467991473531e-19,0,0.002));
#19=VERTEX_POINT('',#18);
#20=CARTESIAN_POINT('',(1.2246467991473531e-19,0.02,0.002));
#21=VERTEX_POINT('',#20);
#22=CARTESIAN_POINT('',(-0.001414213562373095,0,0.0014142135623730952));
#23=VERTEX_POINT('',#22);
#24=CARTESIAN_POINT('',(-0.001414213562373095,0.02,0.0014142135623730952));
#25=VERTEX_POINT('',#24);
#26=CARTESIAN_POINT('',(-0.002,0,2.4492935982947063e-19));
#27=VERTEX_POINT('',#26);
#28=CARTESIAN_POINT('',(-0.002,0.02,2.4492935982947063e-19));
#29=VERTEX_POINT('',#28);
#30=CARTESIAN_POINT('',(-0.0014142135623730955,0,-0.001414213562373095));
#31=VERTEX_POINT('',#30);
#32=CARTESIAN_POINT('',(-0.0014142135623730955,0.02,-0.001414213562373095));
#33=VERTEX_POINT('',#32);
#34=CARTESIAN_POINT('',(-3.6739403974420597e-19,0,-0.002));
#35=VERTEX_POINT('',#34);
#36=CARTESIAN_POINT('',(-3.6739403974420597e-19,0.02,-0.002));
#37=VERTEX_POINT('',#36);
#38=CARTESIAN_POINT('',(0.0014142135623730948,0,-0.0014142135623730955));
#39=VERTEX_POINT('',#38);
#40=CARTESIAN_POINT('',(0.0014142135623730948,0.02,-0.0014142135623730955));
#41=VERTEX_POINT('',#40);
#42=CARTESIAN_POINT('',(0,0,0));
#43=VERTEX_POINT('',#42);
#44=CARTESIAN_POINT('',(0,0.02,0));
#45=VERTEX_POINT('',#44);
#46=CARTESIAN_POINT('',(0.002,0,0));
#47=DIRECTION('',(-0.3826834323650897,0,0.9238795325112868));
#48=VECTOR('',#47,0.001530733729460359);
#49=LINE('',#46,#48);
#50=EDGE_CURVE('',#11,#13,#49,.T.);
#51=CARTESIAN_POINT('',(0.0014142135623730952,0,0.001414213562373095));
#52=DIRECTION('',(0,1,0));
#53=VECTOR('',#52,0.02);
#54=LINE('',#51,#53);
#55=EDGE_CURVE('',#13,#15,#54,.T.);
#56=CARTESIAN_POINT('',(0.002,0.02,0));
#57=DIRECTION('',(-0.3826834323650897,0,0.9238795325112868));
#58=VECTOR('',#57,0.001530733729460359);
#59=LINE('',#56,#58);
#60=EDGE_CURVE('',#17,#15,#59,.T.);
#61=CARTESIAN_POINT('',(0.002,0,0));
#62=DIRECTION('',(0,1,0));
#63=VECTOR('',#62,0.02);
#64=LINE('',#61,#63);
#65=EDGE_CURVE('',#11,#17,#64,.T.);
#66=CARTESIAN_POINT('',(0.0014142135623730952,0,0.001414213562373095));
#67=DIRECTION('',(-0.9238795325112867,0,0.3826834323650898));
#68=VECTOR('',#67,0.0015307337294603591);
#69=LINE('',#66,#68);
#70=EDGE_CURVE('',#13,#19,#69,.T.);
#71=CARTESIAN_POINT('',(1.2246467991473531e-19,0,0.002));
#72=DIRECTION('',(0,1,0));
#73=VECTOR('',#72,0.02);
#74=LINE('',#71,#73);
#75=EDGE_CURVE('',#19,#21,#74,.T.);
#76=CARTESIAN_POINT('',(0.0014142135623730952,0.02,0.001414213562373095));
#77=DIRECTION('',(-0.9238795325112867,0,0.3826834323650898));
#78=VECTOR('',#77,0.0015307337294603591);
#79=LINE('',#76,#78);
#80=EDGE_CURVE('',#15,#21,#79,.T.);
#81=CARTESIAN_POINT('',(1.2246467991473531e-19,0,0.002));
#82=DIRECTION('',(-0.9238795325112868,0,-0.38268343236508967));
#83=VECTOR('',#82,0.0015307337294603591);
#84=LINE('',#81,#83);
#85=EDGE_CURVE('',#19,#23,#84,.T.);
#86=CARTESIAN_POINT('',(-0.001414213562373095,0,0.0014142135623730952));
#87=DIRECTION('',(0,1,0));
#88=VECTOR('',#87,0.02);
#89=LINE('',#86,#88);
#90=EDGE_CURVE('',#23,#25,#89,.T.);
#91=CARTESIAN_POINT('',(1.2246467991473531e-19,0.02,0.002));
#92=DIRECTION('',(-0.9238795325112868,0,-0.38268343236508967));
#93=VECTOR('',#92,0.0015307337294603591);
#94=LINE('',#91,#93);
#95=EDGE_CURVE('',#21,#25,#94,.T.);
#96=CARTESIAN_POINT('',(-0.001414213562373095,0,0.0014142135623730952));
#97=DIRECTION('',(-0.3826834323650898,0,-0.9238795325112867));
#98=VECTOR('',#97,0.0015307337294603591);
#99=LINE('',#96,#98);
#100=EDGE_CURVE('',#23,#27,#99,.T.);
#101=CARTESIAN_POINT('',(-0.002,0,2.4492935982947063e-19));
#102=DIRECTION('',(0,1,0));
#103=VECTOR('',#102,0.02);
#104=LINE('',#101,#103);
#105=EDGE_CURVE('',#27,#29,#104,.T.);
#106=CARTESIAN_POINT('',(-0.001414213562373095,0.02,0.0014142135623730952));
#107=DIRECTION('',(-0.3826834323650898,0,-0.9238795325112867));
#108=VECTOR('',#107,0.0015307337294603591);
#109=LINE('',#106,#108);
#110=EDGE_CURVE('',#25,#29,#109,.T.);
#111=CARTESIAN_POINT('',(-0.002,0,2.4492935982947063e-19));
#112=DIRECTION('',(0.3826834323650895,0,-0.9238795325112868));
#113=VECTOR('',#112,0.0015307337294603591);
#114=LINE('',#111,#113);
#115=EDGE_CURVE('',#27,#31,#114,.T.);
#116=CARTESIAN_POINT('',(-0.0014142135623730955,0,-0.001414213562373095));
#117=DIRECTION('',(0,1,0));
#118=VECTOR('',#117,0.02);
#119=LINE('',#116,#118);
#120=EDGE_CURVE('',#31,#33,#119,.T.);
#121=CARTESIAN_POINT('',(-0.002,0.02,2.4492935982947063e-19));
#122=DIRECTION('',(0.3826834323650895,0,-0.9238795325112868));
#123=VECTOR('',#122,0.0015307337294603591);
#124=LINE('',#121,#123);
#125=EDGE_CURVE('',#29,#33,#124,.T.);
#126=CARTESIAN_POINT('',(-0.0014142135623730955,0,-0.001414213562373095));
#127=DIRECTION('',(0.9238795325112867,0,-0.3826834323650898));
#128=VECTOR('',#127,0.0015307337294603591);
#129=LINE('',#126,#128);
#130=EDGE_CURVE('',#31,#35,#129,.T.);
#131=CARTESIAN_POINT('',(-3.6739403974420597e-19,0,-0.002));
#132=DIRECTION('',(0,1,0));
#133=VECTOR('',#132,0.02);
#134=LINE('',#131,#133);
#135=EDGE_CURVE('',#35,#37,#134,.T.);
#136=CARTESIAN_POINT('',(-0.0014142135623730955,0.02,-0.001414213562373095));
#137=DIRECTION('',(0.9238795325112867,0,-0.3826834323650898));
#138=VECTOR('',#137,0.0015307337294603591);
#139=LINE('',#136,#138);
#140=EDGE_CURVE('',#33,#37,#139,.T.);
#141=CARTESIAN_POINT('',(-3.6739403974420597e-19,0,-0.002));
#142=DIRECTION('',(0.9238795325112868,0,0.3826834323650895));
#143=VECTOR('',#142,0.0015307337294603591);
#144=LINE('',#141,#143);
#145=EDGE_CURVE('',#35,#39,#144,.T.);
#146=CARTESIAN_POINT('',(0.0014142135623730948,0,-0.0014142135623730955));
#147=DIRECTION('',(0,1,0));
#148=VECTOR('',#147,0.02);
#149=LINE('',#146,#148);
#150=EDGE_CURVE('',#39,#41,#149,.T.);
#151=CARTESIAN_POINT('',(-3.6739403974420597e-19,0.02,-0.002));
#152=DIRECTION('',(0.9238795325112868,0,0.3826834323650895));
#153=VECTOR('',#152,0.0015307337294603591);
#154=LINE('',#151,#153);
#155=EDGE_CURVE('',#37,#41,#154,.T.);
#156=CARTESIAN_POINT('',(0.0014142135623730948,0,-0.0014142135623730955));
#157=DIRECTION('',(0.38268343236508984,0,0.9238795325112867));
#158=VECTOR('',#157,0.0015307337294603596);
#159=LINE('',#156,#158);
#160=EDGE_CURVE('',#39,#11,#159,.T.);
#161=CARTESIAN_POINT('',(0.0014142135623730948,0.02,-0.0014142135623730955));
#162=DIRECTION('',(0.38268343236508984,0,0.9238795325112867));
#163=VECTOR('',#162,0.0015307337294603596);
#164=LINE('',#161,#163);
#165=EDGE_CURVE('',#41,#17,#164,.T.);
#166=CARTESIAN_POINT('',(0,0,0));
#167=DIRECTION('',(1,0,0));
#168=VECTOR('',#167,0.002);
#169=LINE('',#166,#168);
#170=EDGE_CURVE('',#43,#11,#169,.T.);
#171=CARTESIAN_POINT('',(0,0,0));
#172=DIRECTION('',(0.7071067811865476,0,0.7071067811865475));
#173=VECTOR('',#172,0.002);
#174=LINE('',#171,#173);
#175=EDGE_CURVE('',#43,#13,#174,.T.);
#176=CARTESIAN_POINT('',(0,0,0));
#177=DIRECTION('',(6.123233995736766e-17,0,1));
#178=VECTOR('',#177,0.002);
#179=LINE('',#176,#178);
#180=EDGE_CURVE('',#43,#19,#179,.T.);
#181=CARTESIAN_POINT('',(0,0,0));
#182=DIRECTION('',(-0.7071067811865475,0,0.7071067811865476));
#183=VECTOR('',#182,0.002);
#184=LINE('',#181,#183);
#185=EDGE_CURVE('',#43,#23,#184,.T.);
#186=CARTESIAN_POINT('',(0,0,0));
#187=DIRECTION('',(-1,0,1.2246467991473532e-16));
#188=VECTOR('',#187,0.002);
#189=LINE('',#186,#188);
#190=EDGE_CURVE('',#43,#27,#189,.T.);
#191=CARTESIAN_POINT('',(0,0,0));
#192=DIRECTION('',(-0.7071067811865477,0,-0.7071067811865475));
#193=VECTOR('',#192,0.002);
#194=LINE('',#191,#193);
#195=EDGE_CURVE('',#43,#31,#194,.T.);
#196=CARTESIAN_POINT('',(0,0,0));
#197=DIRECTION('',(-1.8369701987210297e-16,0,-1));
#198=VECTOR('',#197,0.002);
#199=LINE('',#196,#198);
#200=EDGE_CURVE('',#43,#35,#199,.T.);
#201=CARTESIAN_POINT('',(0,0,0));
#202=DIRECTION('',(0.7071067811865474,0,-0.7071067811865477));
#203=VECTOR('',#202,0.002);
#204=LINE('',#201,#203);
#205=EDGE_CURVE('',#43,#39,#204,.T.);
#206=CARTESIAN_POINT('',(0,0.02,0));
#207=DIRECTION('',(1,0,0));
#208=VECTOR('',#207,0.002);
#209=LINE('',#206,#208);
#210=EDGE_CURVE('',#45,#17,#209,.T.);
#211=CARTESIAN_POINT('',(0,0.02,0));
#212=DIRECTION('',(0.7071067811865476,0,0.7071067811865475));
#213=VECTOR('',#212,0.002);
#214=LINE('',#211,#213);
#215=EDGE_CURVE('',#45,#15,#214,.T.);
#216=CARTESIAN_POINT('',(0,0.02,0));
#217=DIRECTION('',(6.123233995736766e-17,0,1));
#218=VECTOR('',#217,0.002);
#219=LINE('',#216,#218);
#220=EDGE_CURVE('',#45,#21,#219,.T.);
#221=CARTESIAN_POINT('',(0,0.02,0));
#222=DIRECTION('',(-0.7071067811865475,0,0.7071067811865476));
#223=VECTOR('',#222,0.002);
#224=LINE('',#221,#223);
#225=EDGE_CURVE('',#45,#25,#224,.T.);
#226=CARTESIAN_POINT('',(0,0.02,0));
#227=DIRECTION('',(-1,0,1.2246467991473532e-16));
#228=VECTOR('',#227,0.002);
#229=LINE('',#226,#228);
#230=EDGE_CURVE('',#45,#29,#229,.T.);
#231=CARTESIAN_POINT('',(0,0.02,0));
#232=DIRECTION('',(-0.7071067811865477,0,-0.7071067811865475));
#233=VECTOR('',#232,0.002);
#234=LINE('',#231,#233);
#235=EDGE_CURVE('',#45,#33,#234,.T.);
#236=CARTESIAN_POINT('',(0,0.02,0));
#237=DIRECTION('',(-1.8369701987210297e-16,0,-1));
#238=VECTOR('',#237,0.002);
#239=LINE('',#236,#238);
#240=EDGE_CURVE('',#45,#37,#239,.T.);
#241=CARTESIAN_POINT('',(0,0.02,0));
#242=DIRECTION('',(0.7071067811865474,0,-0.7071067811865477));
#243=VECTOR('',#242,0.002);
#244=LINE('',#241,#243);
#245=EDGE_CURVE('',#45,#41,#244,.T.);
#246=CARTESIAN_POINT('',(0.0017071067811865476,0.01,0.0007071067811865475));
#247=DIRECTION('',(-0.9238795325112867,0,-0.38268343236508967));
#248=DIRECTION('',(0,-1,0));
#249=AXIS2_PLACEMENT_3D('',#246,#247,#248);
#250=PLANE('',#249);
#251=ORIENTED_EDGE('',*,*,#50,.T.);
#252=ORIENTED_EDGE('',*,*,#55,.T.);
#253=ORIENTED_EDGE('',*,*,#60,.F.);
#254=ORIENTED_EDGE('',*,*,#65,.F.);
#255=EDGE_LOOP('',(#251,#252,#253,#254));
#256=FACE_OUTER_BOUND('',#255,.T.);
#257=ADVANCED_FACE('',(#256),#250,.T.);
#258=CARTESIAN_POINT('',(0.0007071067811865477,0.01,0.0017071067811865476));
#259=DIRECTION('',(-0.38268343236508984,0,-0.9238795325112867));
#260=DIRECTION('',(1,0,0));
#261=AXIS2_PLACEMENT_3D('',#258,#259,#260);
#262=PLANE('',#261);
#263=ORIENTED_EDGE('',*,*,#70,.T.);
#264=ORIENTED_EDGE('',*,*,#75,.T.);
#265=ORIENTED_EDGE('',*,*,#80,.F.);
#266=ORIENTED_EDGE('',*,*,#55,.F.);
#267=EDGE_LOOP('',(#263,#264,#265,#266));
#268=FACE_OUTER_BOUND('',#267,.T.);
#269=ADVANCED_FACE('',(#268),#262,.T.);
#270=CARTESIAN_POINT('',(-0.0007071067811865474,0.01,0.0017071067811865476));
#271=DIRECTION('',(0.3826834323650897,0,-0.9238795325112868));
#272=DIRECTION('',(1,0,0));
#273=AXIS2_PLACEMENT_3D('',#270,#271,#272);
#274=PLANE('',#273);
#275=ORIENTED_EDGE('',*,*,#85,.T.);
#276=ORIENTED_EDGE('',*,*,#90,.T.);
#277=ORIENTED_EDGE('',*,*,#95,.F.);
#278=ORIENTED_EDGE('',*,*,#75,.F.);
#279=EDGE_LOOP('',(#275,#276,#277,#278));
#280=FACE_OUTER_BOUND('',#279,.T.);
#281=ADVANCED_FACE('',(#280),#274,.T.);
#282=CARTESIAN_POINT('',(-0.0017071067811865476,0.01,0.0007071067811865477));
#283=DIRECTION('',(0.9238795325112867,0,-0.38268343236508984));
#284=DIRECTION('',(0,1,0));
#285=AXIS2_PLACEMENT_3D('',#282,#283,#284);
#286=PLANE('',#285);
#287=ORIENTED_EDGE('',*,*,#100,.T.);
#288=ORIENTED_EDGE('',*,*,#105,.T.);
#289=ORIENTED_EDGE('',*,*,#110,.F.);
#290=ORIENTED_EDGE('',*,*,#90,.F.);
#291=EDGE_LOOP('',(#287,#288,#289,#290));
#292=FACE_OUTER_BOUND('',#291,.T.);
#293=ADVANCED_FACE('',(#292),#286,.T.);
#294=CARTESIAN_POINT('',(-0.0017071067811865476,0.01,-0.0007071067811865473));
#295=DIRECTION('',(0.9238795325112868,0,0.38268343236508956));
#296=DIRECTION('',(0,1,0));
#297=AXIS2_PLACEMENT_3D('',#294,#295,#296);
#298=PLANE('',#297);
#299=ORIENTED_EDGE('',*,*,#115,.T.);
#300=ORIENTED_EDGE('',*,*,#120,.T.);
#301=ORIENTED_EDGE('',*,*,#125,.F.);
#302=ORIENTED_EDGE('',*,*,#105,.F.);
#303=EDGE_LOOP('',(#299,#300,#301,#302));
#304=FACE_OUTER_BOUND('',#303,.T.);
#305=ADVANCED_FACE('',(#304),#298,.T.);
#306=CARTESIAN_POINT('',(-0.000707106781186548,0.01,-0.0017071067811865476));
#307=DIRECTION('',(0.38268343236508984,0,0.9238795325112867));
#308=DIRECTION('',(1,0,0));
#309=AXIS2_PLACEMENT_3D('',#306,#307,#308);
#310=PLANE('',#309);
#311=ORIENTED_EDGE('',*,*,#130,.T.);
#312=ORIENTED_EDGE('',*,*,#135,.T.);
#313=ORIENTED_EDGE('',*,*,#140,.F.);
#314=ORIENTED_EDGE('',*,*,#120,.F.);
#315=EDGE_LOOP('',(#311,#312,#313,#314));
#316=FACE_OUTER_BOUND('',#315,.T.);
#317=ADVANCED_FACE('',(#316),#310,.T.);
#318=CARTESIAN_POINT('',(0.0007071067811865472,0.01,-0.0017071067811865476));
#319=DIRECTION('',(-0.3826834323650896,0,0.9238795325112868));
#320=DIRECTION('',(1,0,0));
#321=AXIS2_PLACEMENT_3D('',#318,#319,#320);
#322=PLANE('',#321);
#323=ORIENTED_EDGE('',*,*,#145,.T.);
#324=ORIENTED_EDGE('',*,*,#150,.T.);
#325=ORIENTED_EDGE('',*,*,#155,.F.);
#326=ORIENTED_EDGE('',*,*,#135,.F.);
#327=EDGE_LOOP('',(#323,#324,#325,#326));
#328=FACE_OUTER_BOUND('',#327,.T.);
#329=ADVANCED_FACE('',(#328),#322,.T.);
#330=CARTESIAN_POINT('',(0.0017071067811865476,0.01,-0.0007071067811865477));
#331=DIRECTION('',(-0.9238795325112867,0,0.38268343236508984));
#332=DIRECTION('',(0,-1,0));
#333=AXIS2_PLACEMENT_3D('',#330,#331,#332);
#334=PLANE('',#333);
#335=ORIENTED_EDGE('',*,*,#160,.T.);
#336=ORIENTED_EDGE('',*,*,#65,.T.);
#337=ORIENTED_EDGE('',*,*,#165,.F.);
#338=ORIENTED_EDGE('',*,*,#150,.F.);
#339=EDGE_LOOP('',(#335,#336,#337,#338));
#340=FACE_OUTER_BOUND('',#339,.T.);
#341=ADVANCED_FACE('',(#340),#334,.T.);
#342=CARTESIAN_POINT('',(0.0011380711874576985,0,0.0004714045207910317));
#343=DIRECTION('',(0,-1,0));
#344=DIRECTION('',(1,0,0));
#345=AXIS2_PLACEMENT_3D('',#342,#343,#344);
#346=PLANE('',#345);
#347=ORIENTED_EDGE('',*,*,#170,.T.);
#348=ORIENTED_EDGE('',*,*,#50,.T.);
#349=ORIENTED_EDGE('',*,*,#175,.F.);
#350=EDGE_LOOP('',(#347,#348,#349));
#351=FACE_OUTER_BOUND('',#350,.T.);
#352=ADVANCED_FACE('',(#351),#346,.T.);
#353=CARTESIAN_POINT('',(0.0004714045207910318,0,0.0011380711874576985));
#354=DIRECTION('',(0,-1,0));
#355=DIRECTION('',(1,0,0));
#356=AXIS2_PLACEMENT_3D('',#353,#354,#355);
#357=PLANE('',#356);
#358=ORIENTED_EDGE('',*,*,#175,.T.);
#359=ORIENTED_EDGE('',*,*,#70,.T.);
#360=ORIENTED_EDGE('',*,*,#180,.F.);
#361=EDGE_LOOP('',(#358,#359,#360));
#362=FACE_OUTER_BOUND('',#361,.T.);
#363=ADVANCED_FACE('',(#362),#357,.T.);
#364=CARTESIAN_POINT('',(-0.0004714045207910316,0,0.0011380711874576985));
#365=DIRECTION('',(0,-1,0));
#366=DIRECTION('',(1,0,0));
#367=AXIS2_PLACEMENT_3D('',#364,#365,#366);
#368=PLANE('',#367);
#369=ORIENTED_EDGE('',*,*,#180,.T.);
#370=ORIENTED_EDGE('',*,*,#85,.T.);
#371=ORIENTED_EDGE('',*,*,#185,.F.);
#372=EDGE_LOOP('',(#369,#370,#371));
#373=FACE_OUTER_BOUND('',#372,.T.);
#374=ADVANCED_FACE('',(#373),#368,.T.);
#375=CARTESIAN_POINT('',(-0.0011380711874576985,0,0.0004714045207910318));
#376=DIRECTION('',(0,-1,0));
#377=DIRECTION('',(1,0,0));
#378=AXIS2_PLACEMENT_3D('',#375,#376,#377);
#379=PLANE('',#378);
#380=ORIENTED_EDGE('',*,*,#185,.T.);
#381=ORIENTED_EDGE('',*,*,#100,.T.);
#382=ORIENTED_EDGE('',*,*,#190,.F.);
#383=EDGE_LOOP('',(#380,#381,#382));
#384=FACE_OUTER_BOUND('',#383,.T.);
#385=ADVANCED_FACE('',(#384),#379,.T.);
#386=CARTESIAN_POINT('',(-0.0011380711874576985,0,-0.0004714045207910316));
#387=DIRECTION('',(0,-1,0));
#388=DIRECTION('',(1,0,0));
#389=AXIS2_PLACEMENT_3D('',#386,#387,#388);
#390=PLANE('',#389);
#391=ORIENTED_EDGE('',*,*,#190,.T.);
#392=ORIENTED_EDGE('',*,*,#115,.T.);
#393=ORIENTED_EDGE('',*,*,#195,.F.);
#394=EDGE_LOOP('',(#391,#392,#393));
#395=FACE_OUTER_BOUND('',#394,.T.);
#396=ADVANCED_FACE('',(#395),#390,.T.);
#397=CARTESIAN_POINT('',(-0.00047140452079103196,0,-0.0011380711874576985));
#398=DIRECTION('',(0,-1,0));
#399=DIRECTION('',(1,0,0));
#400=AXIS2_PLACEMENT_3D('',#397,#398,#399);
#401=PLANE('',#400);
#402=ORIENTED_EDGE('',*,*,#195,.T.);
#403=ORIENTED_EDGE('',*,*,#130,.T.);
#404=ORIENTED_EDGE('',*,*,#200,.F.);
#405=EDGE_LOOP('',(#402,#403,#404));
#406=FACE_OUTER_BOUND('',#405,.T.);
#407=ADVANCED_FACE('',(#406),#401,.T.);
#408=CARTESIAN_POINT('',(0.0004714045207910315,0,-0.0011380711874576985));
#409=DIRECTION('',(0,-1,0));
#410=DIRECTION('',(1,0,0));
#411=AXIS2_PLACEMENT_3D('',#408,#409,#410);
#412=PLANE('',#411);
#413=ORIENTED_EDGE('',*,*,#200,.T.);
#414=ORIENTED_EDGE('',*,*,#145,.T.);
#415=ORIENTED_EDGE('',*,*,#205,.F.);
#416=EDGE_LOOP('',(#413,#414,#415));
#417=FACE_OUTER_BOUND('',#416,.T.);
#418=ADVANCED_FACE('',(#417),#412,.T.);
#419=CARTESIAN_POINT('',(0.0011380711874576983,0,-0.0004714045207910318));
#420=DIRECTION('',(0,-1,0));
#421=DIRECTION('',(1,0,0));
#422=AXIS2_PLACEMENT_3D('',#419,#420,#421);
#423=PLANE('',#422);
#424=ORIENTED_EDGE('',*,*,#205,.T.);
#425=ORIENTED_EDGE('',*,*,#160,.T.);
#426=ORIENTED_EDGE('',*,*,#170,.F.);
#427=EDGE_LOOP('',(#424,#425,#426));
#428=FACE_OUTER_BOUND('',#427,.T.);
#429=ADVANCED_FACE('',(#428),#423,.T.);
#430=CARTESIAN_POINT('',(0.0011380711874576985,0.02,0.0004714045207910317));
#431=DIRECTION('',(0,-1,0));
#432=DIRECTION('',(1,0,0));
#433=AXIS2_PLACEMENT_3D('',#430,#431,#432);
#434=PLANE('',#433);
#435=ORIENTED_EDGE('',*,*,#210,.T.);
#436=ORIENTED_EDGE('',*,*,#60,.T.);
#437=ORIENTED_EDGE('',*,*,#215,.F.);
#438=EDGE_LOOP('',(#435,#436,#437));
#439=FACE_OUTER_BOUND('',#438,.T.);
#440=ADVANCED_FACE('',(#439),#434,.T.);
#441=CARTESIAN_POINT('',(0.0004714045207910318,0.02,0.0011380711874576985));
#442=DIRECTION('',(0,-1,-6.638588510967853e-16));
#443=DIRECTION('',(1,0,0));
#444=AXIS2_PLACEMENT_3D('',#441,#442,#443);
#445=PLANE('',#444);
#446=ORIENTED_EDGE('',*,*,#215,.T.);
#447=ORIENTED_EDGE('',*,*,#80,.T.);
#448=ORIENTED_EDGE('',*,*,#220,.F.);
#449=EDGE_LOOP('',(#446,#447,#448));
#450=FACE_OUTER_BOUND('',#449,.T.);
#451=ADVANCED_FACE('',(#450),#445,.T.);
#452=CARTESIAN_POINT('',(-0.0004714045207910316,0.02,0.0011380711874576985));
#453=DIRECTION('',(0,-1,0));
#454=DIRECTION('',(1,0,0));
#455=AXIS2_PLACEMENT_3D('',#452,#453,#454);
#456=PLANE('',#455);
#457=ORIENTED_EDGE('',*,*,#220,.T.);
#458=ORIENTED_EDGE('',*,*,#95,.T.);
#459=ORIENTED_EDGE('',*,*,#225,.F.);
#460=EDGE_LOOP('',(#457,#458,#459));
#461=FACE_OUTER_BOUND('',#460,.T.);
#462=ADVANCED_FACE('',(#461),#456,.T.);
#463=CARTESIAN_POINT('',(-0.0011380711874576985,0.02,0.0004714045207910318));
#464=DIRECTION('',(0,-1,0));
#465=DIRECTION('',(1,0,0));
#466=AXIS2_PLACEMENT_3D('',#463,#464,#465);
#467=PLANE('',#466);
#468=ORIENTED_EDGE('',*,*,#225,.T.);
#469=ORIENTED_EDGE('',*,*,#110,.T.);
#470=ORIENTED_EDGE('',*,*,#230,.F.);
#471=EDGE_LOOP('',(#468,#469,#470));
#472=FACE_OUTER_BOUND('',#471,.T.);
#473=ADVANCED_FACE('',(#472),#467,.T.);
#474=CARTESIAN_POINT('',(-0.0011380711874576985,0.02,-0.0004714045207910316));
#475=DIRECTION('',(0,-1,2.3957709635677726e-15));
#476=DIRECTION('',(1,0,0));
#477=AXIS2_PLACEMENT_3D('',#474,#475,#476);
#478=PLANE('',#477);
#479=ORIENTED_EDGE('',*,*,#230,.T.);
#480=ORIENTED_EDGE('',*,*,#125,.T.);
#481=ORIENTED_EDGE('',*,*,#235,.F.);
#482=EDGE_LOOP('',(#479,#480,#481));
#483=FACE_OUTER_BOUND('',#482,.T.);
#484=ADVANCED_FACE('',(#483),#478,.T.);
#485=CARTESIAN_POINT('',(-0.00047140452079103196,0.02,-0.0011380711874576985));
#486=DIRECTION('',(0,-1,-4.041944102774155e-16));
#487=DIRECTION('',(1,0,0));
#488=AXIS2_PLACEMENT_3D('',#485,#486,#487);
#489=PLANE('',#488);
#490=ORIENTED_EDGE('',*,*,#235,.T.);
#491=ORIENTED_EDGE('',*,*,#140,.T.);
#492=ORIENTED_EDGE('',*,*,#240,.F.);
#493=EDGE_LOOP('',(#490,#491,#492));
#494=FACE_OUTER_BOUND('',#493,.T.);
#495=ADVANCED_FACE('',(#494),#489,.T.);
#496=CARTESIAN_POINT('',(0.0004714045207910315,0.02,-0.0011380711874576985));
#497=DIRECTION('',(0,-1,-2.395770963567772e-15));
#498=DIRECTION('',(1,0,0));
#499=AXIS2_PLACEMENT_3D('',#496,#497,#498);
#500=PLANE('',#499);
#501=ORIENTED_EDGE('',*,*,#240,.T.);
#502=ORIENTED_EDGE('',*,*,#155,.T.);
#503=ORIENTED_EDGE('',*,*,#245,.F.);
#504=EDGE_LOOP('',(#501,#502,#503));
#505=FACE_OUTER_BOUND('',#504,.T.);
#506=ADVANCED_FACE('',(#505),#500,.T.);
#507=CARTESIAN_POINT('',(0.0011380711874576983,0.02,-0.0004714045207910318));
#508=DIRECTION('',(0,-1,4.791541927135543e-15));
#509=DIRECTION('',(1,0,0));
#510=AXIS2_PLACEMENT_3D('',#507,#508,#509);
#511=PLANE('',#510);
#512=ORIENTED_EDGE('',*,*,#245,.T.);
#513=ORIENTED_EDGE('',*,*,#165,.T.);
#514=ORIENTED_EDGE('',*,*,#210,.F.);
#515=EDGE_LOOP('',(#512,#513,#514));
#516=FACE_OUTER_BOUND('',#515,.T.);
#517=ADVANCED_FACE('',(#516),#511,.T.);
#518=CLOSED_SHELL('',(#257,#269,#281,#293,#305,#317,#329,#341,#352,#363,#374,#385,#396,#407,#418,#429,#440,#451,#462,#473,#484,#495,#506,#517));
#519=MANIFOLD_SOLID_BREP('',#518);
#520=SHAPE_REPRESENTATION('TPSL-INST-PRT-0001',(#519),#9);
#521=SHAPE_DEFINITION_REPRESENTATION(#8,#520);
ENDSEC;
END-ISO-10303-21;