{
  "asset": {
    "version": "2.0",
    "generator": "ArchDisc Foundation"
  },
  "scene": 0,
  "scenes": [
    {
      "nodes": [
        0
      ]
    }
  ],
  "nodes": [
    {
      "mesh": 0,
      "name": "PhoneStandBracket"
    }
  ],
  "meshes": [
    {
      "name": "PhoneStandBracket",
      "primitives": [
        {
          "attributes": {
            "POSITION": 0,
            "NORMAL": 1
          },
          "indices": 2,
          "material": 0
        }
      ]
    }
  ],
  "materials": [
    {
      "name": "PBR",
      "pbrMetallicRoughness": {
        "baseColorFactor": [
          0.36,
          0.61,
          0.83,
          1
        ],
        "metallicFactor": 0.4,
        "roughnessFactor": 0.55
      }
    }
  ],
  "accessors": [
    {
      "bufferView": 0,
      "componentType": 5126,
      "count": 217,
      "type": "VEC3",
      "min": [
        0,
        0,
        -8.94095230102539
      ],
      "max": [
        80,
        105.3315658569336,
        12
      ]
    },
    {
      "bufferView": 1,
      "componentType": 5126,
      "count": 217,
      "type": "VEC3"
    },
    {
      "bufferView": 2,
      "componentType": 5125,
      "count": 1314,
      "type": "SCALAR"
    }
  ],
  "bufferViews": [
    {
      "buffer": 0,
      "byteOffset": 0,
      "byteLength": 2604,
      "target": 34962
    },
    {
      "buffer": 0,
      "byteOffset": 2604,
      "byteLength": 2604,
      "target": 34962
    },
    {
      "buffer": 0,
      "byteOffset": 5208,
      "byteLength": 5256,
      "target": 34963
    }
  ],
  "buffers": [
    {
      "byteLength": 10464,
      "uri": "data:application/octet-stream;base64,"
    }
  ]
}