{
  "asset": {
    "version": "2.0",
    "generator": "ArchDisc Foundation"
  },
  "scene": 0,
  "scenes": [
    {
      "nodes": [
        0
      ]
    }
  ],
  "nodes": [
    {
      "mesh": 0,
      "name": "NURBSCylinder_R8_H25"
    }
  ],
  "meshes": [
    {
      "name": "NURBSCylinder_R8_H25",
      "primitives": [
        {
          "attributes": {
            "POSITION": 0,
            "NORMAL": 1
          },
          "indices": 2,
          "material": 0
        }
      ]
    }
  ],
  "materials": [
    {
      "name": "PBR",
      "pbrMetallicRoughness": {
        "baseColorFactor": [
          0.43,
          0.68,
          0.28,
          1
        ],
        "metallicFactor": 0.4,
        "roughnessFactor": 0.55
      }
    }
  ],
  "accessors": [
    {
      "bufferView": 0,
      "componentType": 5126,
      "count": 322,
      "type": "VEC3",
      "min": [
        -8,
        -8,
        0
      ],
      "max": [
        8,
        8,
        25
      ]
    },
    {
      "bufferView": 1,
      "componentType": 5126,
      "count": 322,
      "type": "VEC3"
    },
    {
      "bufferView": 2,
      "componentType": 5125,
      "count": 1920,
      "type": "SCALAR"
    }
  ],
  "bufferViews": [
    {
      "buffer": 0,
      "byteOffset": 0,
      "byteLength": 3864,
      "target": 34962
    },
    {
      "buffer": 0,
      "byteOffset": 3864,
      "byteLength": 3864,
      "target": 34962
    },
    {
      "buffer": 0,
      "byteOffset": 7728,
      "byteLength": 7680,
      "target": 34963
    }
  ],
  "buffers": [
    {
      "byteLength": 15408,
      "uri": "data:application/octet-stream;base64,"
    }
  ]
}