{
  "asset": {
    "version": "2.0",
    "generator": "ArchDisc Foundation"
  },
  "scene": 0,
  "scenes": [
    {
      "nodes": [
        0
      ]
    }
  ],
  "nodes": [
    {
      "mesh": 0,
      "name": "NURBSSphere_R15"
    }
  ],
  "meshes": [
    {
      "name": "NURBSSphere_R15",
      "primitives": [
        {
          "attributes": {
            "POSITION": 0,
            "NORMAL": 1
          },
          "indices": 2,
          "material": 0
        }
      ]
    }
  ],
  "materials": [
    {
      "name": "PBR",
      "pbrMetallicRoughness": {
        "baseColorFactor": [
          0.93,
          0.7,
          0.2,
          1
        ],
        "metallicFactor": 0.7,
        "roughnessFactor": 0.3
      }
    }
  ],
  "accessors": [
    {
      "bufferView": 0,
      "componentType": 5126,
      "count": 1986,
      "type": "VEC3",
      "min": [
        -15,
        -15,
        -15
      ],
      "max": [
        15,
        15,
        15
      ]
    },
    {
      "bufferView": 1,
      "componentType": 5126,
      "count": 1986,
      "type": "VEC3"
    },
    {
      "bufferView": 2,
      "componentType": 5125,
      "count": 11904,
      "type": "SCALAR"
    }
  ],
  "bufferViews": [
    {
      "buffer": 0,
      "byteOffset": 0,
      "byteLength": 23832,
      "target": 34962
    },
    {
      "buffer": 0,
      "byteOffset": 23832,
      "byteLength": 23832,
      "target": 34962
    },
    {
      "buffer": 0,
      "byteOffset": 47664,
      "byteLength": 47616,
      "target": 34963
    }
  ],
  "buffers": [
    {
      "byteLength": 95280,
      "uri": "data:application/octet-stream;base64,"
    }
  ]
}