ISO-10303-21;
HEADER;
FILE_DESCRIPTION(('ArchDisc Geometry Kernel Export'),'2;1');
FILE_NAME('TYV6-BLK-LNR-0006.step','20260509T202336',('ArchDisc'),('ArchDisc Inc'),'ArchDisc Kernel 1.0','ArchDisc','');
FILE_SCHEMA(('AUTOMOTIVE_DESIGN'));
ENDSEC;
DATA;
#1=APPLICATION_CONTEXT('automotive design');
#2=APPLICATION_PROTOCOL_DEFINITION('international standard','automotive_design',2009,#1);
#3=PRODUCT_CONTEXT('',#1,'mechanical');
#4=PRODUCT('TYV6-BLK-LNR-0006','TYV6-BLK-LNR-0006','',(#3));
#5=PRODUCT_DEFINITION_FORMATION('','',#4);
#6=PRODUCT_DEFINITION_CONTEXT('design',#1,'design');
#7=PRODUCT_DEFINITION('design','',#5,#6);
#8=PRODUCT_DEFINITION_SHAPE('','',#7);
#9=(GEOMETRIC_REPRESENTATION_CONTEXT(3) GLOBAL_UNCERTAINTY_ASSIGNED_CONTEXT((#0)) GLOBAL_UNIT_ASSIGNED_CONTEXT((#0,#0,#0)) REPRESENTATION_CONTEXT('Context3D','');
#10=CARTESIAN_POINT('',(0.04925,0,0));
#11=VERTEX_POINT('',#10);
#12=CARTESIAN_POINT('',(0.0483036750598591,0,0.009608198359294317));
#13=VERTEX_POINT('',#12);
#14=CARTESIAN_POINT('',(0.0483036750598591,0.15,0.009608198359294317));
#15=VERTEX_POINT('',#14);
#16=CARTESIAN_POINT('',(0.04925,0.15,0));
#17=VERTEX_POINT('',#16);
#18=CARTESIAN_POINT('',(0.04550106697618087,0,0.018847159043980672));
#19=VERTEX_POINT('',#18);
#20=CARTESIAN_POINT('',(0.04550106697618087,0.15,0.018847159043980672));
#21=VERTEX_POINT('',#20);
#22=CARTESIAN_POINT('',(0.04094987840590036,0,0.02736183397621541));
#23=VERTEX_POINT('',#22);
#24=CARTESIAN_POINT('',(0.04094987840590036,0.15,0.02736183397621541));
#25=VERTEX_POINT('',#24);
#26=CARTESIAN_POINT('',(0.03482500897343747,0,0.03482500897343747));
#27=VERTEX_POINT('',#26);
#28=CARTESIAN_POINT('',(0.03482500897343747,0.15,0.03482500897343747));
#29=VERTEX_POINT('',#28);
#30=CARTESIAN_POINT('',(0.027361833976215413,0,0.04094987840590036));
#31=VERTEX_POINT('',#30);
#32=CARTESIAN_POINT('',(0.027361833976215413,0.15,0.04094987840590036));
#33=VERTEX_POINT('',#32);
#34=CARTESIAN_POINT('',(0.018847159043980675,0,0.04550106697618087));
#35=VERTEX_POINT('',#34);
#36=CARTESIAN_POINT('',(0.018847159043980675,0.15,0.04550106697618087));
#37=VERTEX_POINT('',#36);
#38=CARTESIAN_POINT('',(0.00960819835929432,0,0.0483036750598591));
#39=VERTEX_POINT('',#38);
#40=CARTESIAN_POINT('',(0.00960819835929432,0.15,0.0483036750598591));
#41=VERTEX_POINT('',#40);
#42=CARTESIAN_POINT('',(3.0156927429003575e-18,0,0.04925));
#43=VERTEX_POINT('',#42);
#44=CARTESIAN_POINT('',(3.0156927429003575e-18,0.15,0.04925));
#45=VERTEX_POINT('',#44);
#46=CARTESIAN_POINT('',(-0.009608198359294313,0,0.0483036750598591));
#47=VERTEX_POINT('',#46);
#48=CARTESIAN_POINT('',(-0.009608198359294313,0.15,0.0483036750598591));
#49=VERTEX_POINT('',#48);
#50=CARTESIAN_POINT('',(-0.01884715904398067,0,0.04550106697618087));
#51=VERTEX_POINT('',#50);
#52=CARTESIAN_POINT('',(-0.01884715904398067,0.15,0.04550106697618087));
#53=VERTEX_POINT('',#52);
#54=CARTESIAN_POINT('',(-0.0273618339762154,0,0.040949878405900364));
#55=VERTEX_POINT('',#54);
#56=CARTESIAN_POINT('',(-0.0273618339762154,0.15,0.040949878405900364));
#57=VERTEX_POINT('',#56);
#58=CARTESIAN_POINT('',(-0.03482500897343747,0,0.03482500897343747));
#59=VERTEX_POINT('',#58);
#60=CARTESIAN_POINT('',(-0.03482500897343747,0.15,0.03482500897343747));
#61=VERTEX_POINT('',#60);
#62=CARTESIAN_POINT('',(-0.04094987840590036,0,0.02736183397621541));
#63=VERTEX_POINT('',#62);
#64=CARTESIAN_POINT('',(-0.04094987840590036,0.15,0.02736183397621541));
#65=VERTEX_POINT('',#64);
#66=CARTESIAN_POINT('',(-0.04550106697618087,0,0.01884715904398068));
#67=VERTEX_POINT('',#66);
#68=CARTESIAN_POINT('',(-0.04550106697618087,0.15,0.01884715904398068));
#69=VERTEX_POINT('',#68);
#70=CARTESIAN_POINT('',(-0.0483036750598591,0,0.009608198359294334));
#71=VERTEX_POINT('',#70);
#72=CARTESIAN_POINT('',(-0.0483036750598591,0.15,0.009608198359294334));
#73=VERTEX_POINT('',#72);
#74=CARTESIAN_POINT('',(-0.04925,0,6.031385485800715e-18));
#75=VERTEX_POINT('',#74);
#76=CARTESIAN_POINT('',(-0.04925,0.15,6.031385485800715e-18));
#77=VERTEX_POINT('',#76);
#78=CARTESIAN_POINT('',(-0.0483036750598591,0,-0.009608198359294322));
#79=VERTEX_POINT('',#78);
#80=CARTESIAN_POINT('',(-0.0483036750598591,0.15,-0.009608198359294322));
#81=VERTEX_POINT('',#80);
#82=CARTESIAN_POINT('',(-0.04550106697618088,0,-0.01884715904398067));
#83=VERTEX_POINT('',#82);
#84=CARTESIAN_POINT('',(-0.04550106697618088,0.15,-0.01884715904398067));
#85=VERTEX_POINT('',#84);
#86=CARTESIAN_POINT('',(-0.040949878405900364,0,-0.0273618339762154));
#87=VERTEX_POINT('',#86);
#88=CARTESIAN_POINT('',(-0.040949878405900364,0.15,-0.0273618339762154));
#89=VERTEX_POINT('',#88);
#90=CARTESIAN_POINT('',(-0.034825008973437474,0,-0.03482500897343747));
#91=VERTEX_POINT('',#90);
#92=CARTESIAN_POINT('',(-0.034825008973437474,0.15,-0.03482500897343747));
#93=VERTEX_POINT('',#92);
#94=CARTESIAN_POINT('',(-0.02736183397621541,0,-0.04094987840590036));
#95=VERTEX_POINT('',#94);
#96=CARTESIAN_POINT('',(-0.02736183397621541,0.15,-0.04094987840590036));
#97=VERTEX_POINT('',#96);
#98=CARTESIAN_POINT('',(-0.0188471590439807,0,-0.045501066976180865));
#99=VERTEX_POINT('',#98);
#100=CARTESIAN_POINT('',(-0.0188471590439807,0.15,-0.045501066976180865));
#101=VERTEX_POINT('',#100);
#102=CARTESIAN_POINT('',(-0.009608198359294337,0,-0.048303675059859094));
#103=VERTEX_POINT('',#102);
#104=CARTESIAN_POINT('',(-0.009608198359294337,0.15,-0.048303675059859094));
#105=VERTEX_POINT('',#104);
#106=CARTESIAN_POINT('',(-9.047078228701072e-18,0,-0.04925));
#107=VERTEX_POINT('',#106);
#108=CARTESIAN_POINT('',(-9.047078228701072e-18,0.15,-0.04925));
#109=VERTEX_POINT('',#108);
#110=CARTESIAN_POINT('',(0.00960819835929432,0,-0.0483036750598591));
#111=VERTEX_POINT('',#110);
#112=CARTESIAN_POINT('',(0.00960819835929432,0.15,-0.0483036750598591));
#113=VERTEX_POINT('',#112);
#114=CARTESIAN_POINT('',(0.018847159043980682,0,-0.045501066976180865));
#115=VERTEX_POINT('',#114);
#116=CARTESIAN_POINT('',(0.018847159043980682,0.15,-0.045501066976180865));
#117=VERTEX_POINT('',#116);
#118=CARTESIAN_POINT('',(0.027361833976215392,0,-0.040949878405900364));
#119=VERTEX_POINT('',#118);
#120=CARTESIAN_POINT('',(0.027361833976215392,0.15,-0.040949878405900364));
#121=VERTEX_POINT('',#120);
#122=CARTESIAN_POINT('',(0.03482500897343746,0,-0.034825008973437474));
#123=VERTEX_POINT('',#122);
#124=CARTESIAN_POINT('',(0.03482500897343746,0.15,-0.034825008973437474));
#125=VERTEX_POINT('',#124);
#126=CARTESIAN_POINT('',(0.04094987840590036,0,-0.02736183397621541));
#127=VERTEX_POINT('',#126);
#128=CARTESIAN_POINT('',(0.04094987840590036,0.15,-0.02736183397621541));
#129=VERTEX_POINT('',#128);
#130=CARTESIAN_POINT('',(0.045501066976180865,0,-0.018847159043980703));
#131=VERTEX_POINT('',#130);
#132=CARTESIAN_POINT('',(0.045501066976180865,0.15,-0.018847159043980703));
#133=VERTEX_POINT('',#132);
#134=CARTESIAN_POINT('',(0.048303675059859094,0,-0.00960819835929434));
#135=VERTEX_POINT('',#134);
#136=CARTESIAN_POINT('',(0.048303675059859094,0.15,-0.00960819835929434));
#137=VERTEX_POINT('',#136);
#138=CARTESIAN_POINT('',(0,0,0));
#139=VERTEX_POINT('',#138);
#140=CARTESIAN_POINT('',(0,0.15,0));
#141=VERTEX_POINT('',#140);
#142=CARTESIAN_POINT('',(0.04925,0,0));
#143=DIRECTION('',(-0.09801714032956067,0,0.9951847266721969));
#144=VECTOR('',#143,0.009654688322461719);
#145=LINE('',#142,#144);
#146=EDGE_CURVE('',#11,#13,#145,.T.);
#147=CARTESIAN_POINT('',(0.0483036750598591,0,0.009608198359294317));
#148=DIRECTION('',(0,1,0));
#149=VECTOR('',#148,0.15);
#150=LINE('',#147,#149);
#151=EDGE_CURVE('',#13,#15,#150,.T.);
#152=CARTESIAN_POINT('',(0.04925,0.15,0));
#153=DIRECTION('',(-0.09801714032956067,0,0.9951847266721969));
#154=VECTOR('',#153,0.009654688322461719);
#155=LINE('',#152,#154);
#156=EDGE_CURVE('',#17,#15,#155,.T.);
#157=CARTESIAN_POINT('',(0.04925,0,0));
#158=DIRECTION('',(0,1,0));
#159=VECTOR('',#158,0.15);
#160=LINE('',#157,#159);
#161=EDGE_CURVE('',#11,#17,#160,.T.);
#162=CARTESIAN_POINT('',(0.0483036750598591,0,0.009608198359294317));
#163=DIRECTION('',(-0.29028467725446255,0,0.9569403357322089));
#164=VECTOR('',#163,0.00965468832246172);
#165=LINE('',#162,#164);
#166=EDGE_CURVE('',#13,#19,#165,.T.);
#167=CARTESIAN_POINT('',(0.04550106697618087,0,0.018847159043980672));
#168=DIRECTION('',(0,1,0));
#169=VECTOR('',#168,0.15);
#170=LINE('',#167,#169);
#171=EDGE_CURVE('',#19,#21,#170,.T.);
#172=CARTESIAN_POINT('',(0.0483036750598591,0.15,0.009608198359294317));
#173=DIRECTION('',(-0.29028467725446255,0,0.9569403357322089));
#174=VECTOR('',#173,0.00965468832246172);
#175=LINE('',#172,#174);
#176=EDGE_CURVE('',#15,#21,#175,.T.);
#177=CARTESIAN_POINT('',(0.04550106697618087,0,0.018847159043980672));
#178=DIRECTION('',(-0.47139673682599736,0,0.8819212643483553));
#179=VECTOR('',#178,0.009654688322461715);
#180=LINE('',#177,#179);
#181=EDGE_CURVE('',#19,#23,#180,.T.);
#182=CARTESIAN_POINT('',(0.04094987840590036,0,0.02736183397621541));
#183=DIRECTION('',(0,1,0));
#184=VECTOR('',#183,0.15);
#185=LINE('',#182,#184);
#186=EDGE_CURVE('',#23,#25,#185,.T.);
#187=CARTESIAN_POINT('',(0.04550106697618087,0.15,0.018847159043980672));
#188=DIRECTION('',(-0.47139673682599736,0,0.8819212643483553));
#189=VECTOR('',#188,0.009654688322461715);
#190=LINE('',#187,#189);
#191=EDGE_CURVE('',#21,#25,#190,.T.);
#192=CARTESIAN_POINT('',(0.04094987840590036,0,0.02736183397621541));
#193=DIRECTION('',(-0.6343932841636456,0,0.7730104533627369));
#194=VECTOR('',#193,0.009654688322461722);
#195=LINE('',#192,#194);
#196=EDGE_CURVE('',#23,#27,#195,.T.);
#197=CARTESIAN_POINT('',(0.03482500897343747,0,0.03482500897343747));
#198=DIRECTION('',(0,1,0));
#199=VECTOR('',#198,0.15);
#200=LINE('',#197,#199);
#201=EDGE_CURVE('',#27,#29,#200,.T.);
#202=CARTESIAN_POINT('',(0.04094987840590036,0.15,0.02736183397621541));
#203=DIRECTION('',(-0.6343932841636456,0,0.7730104533627369));
#204=VECTOR('',#203,0.009654688322461722);
#205=LINE('',#202,#204);
#206=EDGE_CURVE('',#25,#29,#205,.T.);
#207=CARTESIAN_POINT('',(0.03482500897343747,0,0.03482500897343747));
#208=DIRECTION('',(-0.7730104533627369,0,0.6343932841636458));
#209=VECTOR('',#208,0.009654688322461719);
#210=LINE('',#207,#209);
#211=EDGE_CURVE('',#27,#31,#210,.T.);
#212=CARTESIAN_POINT('',(0.027361833976215413,0,0.04094987840590036));
#213=DIRECTION('',(0,1,0));
#214=VECTOR('',#213,0.15);
#215=LINE('',#212,#214);
#216=EDGE_CURVE('',#31,#33,#215,.T.);
#217=CARTESIAN_POINT('',(0.03482500897343747,0.15,0.03482500897343747));
#218=DIRECTION('',(-0.7730104533627369,0,0.6343932841636458));
#219=VECTOR('',#218,0.009654688322461719);
#220=LINE('',#217,#219);
#221=EDGE_CURVE('',#29,#33,#220,.T.);
#222=CARTESIAN_POINT('',(0.027361833976215413,0,0.04094987840590036));
#223=DIRECTION('',(-0.8819212643483553,0,0.47139673682599736));
#224=VECTOR('',#223,0.009654688322461715);
#225=LINE('',#222,#224);
#226=EDGE_CURVE('',#31,#35,#225,.T.);
#227=CARTESIAN_POINT('',(0.018847159043980675,0,0.04550106697618087));
#228=DIRECTION('',(0,1,0));
#229=VECTOR('',#228,0.15);
#230=LINE('',#227,#229);
#231=EDGE_CURVE('',#35,#37,#230,.T.);
#232=CARTESIAN_POINT('',(0.027361833976215413,0.15,0.04094987840590036));
#233=DIRECTION('',(-0.8819212643483553,0,0.47139673682599736));
#234=VECTOR('',#233,0.009654688322461715);
#235=LINE('',#232,#234);
#236=EDGE_CURVE('',#33,#37,#235,.T.);
#237=CARTESIAN_POINT('',(0.018847159043980675,0,0.04550106697618087));
#238=DIRECTION('',(-0.9569403357322089,0,0.29028467725446255));
#239=VECTOR('',#238,0.00965468832246172);
#240=LINE('',#237,#239);
#241=EDGE_CURVE('',#35,#39,#240,.T.);
#242=CARTESIAN_POINT('',(0.00960819835929432,0,0.0483036750598591));
#243=DIRECTION('',(0,1,0));
#244=VECTOR('',#243,0.15);
#245=LINE('',#242,#244);
#246=EDGE_CURVE('',#39,#41,#245,.T.);
#247=CARTESIAN_POINT('',(0.018847159043980675,0.15,0.04550106697618087));
#248=DIRECTION('',(-0.9569403357322089,0,0.29028467725446255));
#249=VECTOR('',#248,0.00965468832246172);
#250=LINE('',#247,#249);
#251=EDGE_CURVE('',#37,#41,#250,.T.);
#252=CARTESIAN_POINT('',(0.00960819835929432,0,0.0483036750598591));
#253=DIRECTION('',(-0.9951847266721969,0,0.09801714032956067));
#254=VECTOR('',#253,0.009654688322461719);
#255=LINE('',#252,#254);
#256=EDGE_CURVE('',#39,#43,#255,.T.);
#257=CARTESIAN_POINT('',(3.0156927429003575e-18,0,0.04925));
#258=DIRECTION('',(0,1,0));
#259=VECTOR('',#258,0.15);
#260=LINE('',#257,#259);
#261=EDGE_CURVE('',#43,#45,#260,.T.);
#262=CARTESIAN_POINT('',(0.00960819835929432,0.15,0.0483036750598591));
#263=DIRECTION('',(-0.9951847266721969,0,0.09801714032956067));
#264=VECTOR('',#263,0.009654688322461719);
#265=LINE('',#262,#264);
#266=EDGE_CURVE('',#41,#45,#265,.T.);
#267=CARTESIAN_POINT('',(3.0156927429003575e-18,0,0.04925));
#268=DIRECTION('',(-0.9951847266721969,0,-0.09801714032956067));
#269=VECTOR('',#268,0.009654688322461719);
#270=LINE('',#267,#269);
#271=EDGE_CURVE('',#43,#47,#270,.T.);
#272=CARTESIAN_POINT('',(-0.009608198359294313,0,0.0483036750598591));
#273=DIRECTION('',(0,1,0));
#274=VECTOR('',#273,0.15);
#275=LINE('',#272,#274);
#276=EDGE_CURVE('',#47,#49,#275,.T.);
#277=CARTESIAN_POINT('',(3.0156927429003575e-18,0.15,0.04925));
#278=DIRECTION('',(-0.9951847266721969,0,-0.09801714032956067));
#279=VECTOR('',#278,0.009654688322461719);
#280=LINE('',#277,#279);
#281=EDGE_CURVE('',#45,#49,#280,.T.);
#282=CARTESIAN_POINT('',(-0.009608198359294313,0,0.0483036750598591));
#283=DIRECTION('',(-0.9569403357322089,0,-0.29028467725446255));
#284=VECTOR('',#283,0.00965468832246172);
#285=LINE('',#282,#284);
#286=EDGE_CURVE('',#47,#51,#285,.T.);
#287=CARTESIAN_POINT('',(-0.01884715904398067,0,0.04550106697618087));
#288=DIRECTION('',(0,1,0));
#289=VECTOR('',#288,0.15);
#290=LINE('',#287,#289);
#291=EDGE_CURVE('',#51,#53,#290,.T.);
#292=CARTESIAN_POINT('',(-0.009608198359294313,0.15,0.0483036750598591));
#293=DIRECTION('',(-0.9569403357322089,0,-0.29028467725446255));
#294=VECTOR('',#293,0.00965468832246172);
#295=LINE('',#292,#294);
#296=EDGE_CURVE('',#49,#53,#295,.T.);
#297=CARTESIAN_POINT('',(-0.01884715904398067,0,0.04550106697618087));
#298=DIRECTION('',(-0.8819212643483554,0,-0.47139673682599703));
#299=VECTOR('',#298,0.009654688322461706);
#300=LINE('',#297,#299);
#301=EDGE_CURVE('',#51,#55,#300,.T.);
#302=CARTESIAN_POINT('',(-0.0273618339762154,0,0.040949878405900364));
#303=DIRECTION('',(0,1,0));
#304=VECTOR('',#303,0.15);
#305=LINE('',#302,#304);
#306=EDGE_CURVE('',#55,#57,#305,.T.);
#307=CARTESIAN_POINT('',(-0.01884715904398067,0.15,0.04550106697618087));
#308=DIRECTION('',(-0.8819212643483554,0,-0.47139673682599703));
#309=VECTOR('',#308,0.009654688322461706);
#310=LINE('',#307,#309);
#311=EDGE_CURVE('',#53,#57,#310,.T.);
#312=CARTESIAN_POINT('',(-0.0273618339762154,0,0.040949878405900364));
#313=DIRECTION('',(-0.773010453362737,0,-0.6343932841636455));
#314=VECTOR('',#313,0.009654688322461734);
#315=LINE('',#312,#314);
#316=EDGE_CURVE('',#55,#59,#315,.T.);
#317=CARTESIAN_POINT('',(-0.03482500897343747,0,0.03482500897343747));
#318=DIRECTION('',(0,1,0));
#319=VECTOR('',#318,0.15);
#320=LINE('',#317,#319);
#321=EDGE_CURVE('',#59,#61,#320,.T.);
#322=CARTESIAN_POINT('',(-0.0273618339762154,0.15,0.040949878405900364));
#323=DIRECTION('',(-0.773010453362737,0,-0.6343932841636455));
#324=VECTOR('',#323,0.009654688322461734);
#325=LINE('',#322,#324);
#326=EDGE_CURVE('',#57,#61,#325,.T.);
#327=CARTESIAN_POINT('',(-0.03482500897343747,0,0.03482500897343747));
#328=DIRECTION('',(-0.6343932841636456,0,-0.7730104533627369));
#329=VECTOR('',#328,0.009654688322461722);
#330=LINE('',#327,#329);
#331=EDGE_CURVE('',#59,#63,#330,.T.);
#332=CARTESIAN_POINT('',(-0.04094987840590036,0,0.02736183397621541));
#333=DIRECTION('',(0,1,0));
#334=VECTOR('',#333,0.15);
#335=LINE('',#332,#334);
#336=EDGE_CURVE('',#63,#65,#335,.T.);
#337=CARTESIAN_POINT('',(-0.03482500897343747,0.15,0.03482500897343747));
#338=DIRECTION('',(-0.6343932841636456,0,-0.7730104533627369));
#339=VECTOR('',#338,0.009654688322461722);
#340=LINE('',#337,#339);
#341=EDGE_CURVE('',#61,#65,#340,.T.);
#342=CARTESIAN_POINT('',(-0.04094987840590036,0,0.02736183397621541));
#343=DIRECTION('',(-0.4713967368259976,0,-0.881921264348355));
#344=VECTOR('',#343,0.00965468832246171);
#345=LINE('',#342,#344);
#346=EDGE_CURVE('',#63,#67,#345,.T.);
#347=CARTESIAN_POINT('',(-0.04550106697618087,0,0.01884715904398068));
#348=DIRECTION('',(0,1,0));
#349=VECTOR('',#348,0.15);
#350=LINE('',#347,#349);
#351=EDGE_CURVE('',#67,#69,#350,.T.);
#352=CARTESIAN_POINT('',(-0.04094987840590036,0.15,0.02736183397621541));
#353=DIRECTION('',(-0.4713967368259976,0,-0.881921264348355));
#354=VECTOR('',#353,0.00965468832246171);
#355=LINE('',#352,#354);
#356=EDGE_CURVE('',#65,#69,#355,.T.);
#357=CARTESIAN_POINT('',(-0.04550106697618087,0,0.01884715904398068));
#358=DIRECTION('',(-0.29028467725446283,0,-0.9569403357322087));
#359=VECTOR('',#358,0.009654688322461712);
#360=LINE('',#357,#359);
#361=EDGE_CURVE('',#67,#71,#360,.T.);
#362=CARTESIAN_POINT('',(-0.0483036750598591,0,0.009608198359294334));
#363=DIRECTION('',(0,1,0));
#364=VECTOR('',#363,0.15);
#365=LINE('',#362,#364);
#366=EDGE_CURVE('',#71,#73,#365,.T.);
#367=CARTESIAN_POINT('',(-0.04550106697618087,0.15,0.01884715904398068));
#368=DIRECTION('',(-0.29028467725446283,0,-0.9569403357322087));
#369=VECTOR('',#368,0.009654688322461712);
#370=LINE('',#367,#369);
#371=EDGE_CURVE('',#69,#73,#370,.T.);
#372=CARTESIAN_POINT('',(-0.0483036750598591,0,0.009608198359294334));
#373=DIRECTION('',(-0.09801714032956055,0,-0.9951847266721969));
#374=VECTOR('',#373,0.00965468832246173);
#375=LINE('',#372,#374);
#376=EDGE_CURVE('',#71,#75,#375,.T.);
#377=CARTESIAN_POINT('',(-0.04925,0,6.031385485800715e-18));
#378=DIRECTION('',(0,1,0));
#379=VECTOR('',#378,0.15);
#380=LINE('',#377,#379);
#381=EDGE_CURVE('',#75,#77,#380,.T.);
#382=CARTESIAN_POINT('',(-0.0483036750598591,0.15,0.009608198359294334));
#383=DIRECTION('',(-0.09801714032956055,0,-0.9951847266721969));
#384=VECTOR('',#383,0.00965468832246173);
#385=LINE('',#382,#384);
#386=EDGE_CURVE('',#73,#77,#385,.T.);
#387=CARTESIAN_POINT('',(-0.04925,0,6.031385485800715e-18));
#388=DIRECTION('',(0.09801714032956058,0,-0.9951847266721969));
#389=VECTOR('',#388,0.009654688322461729);
#390=LINE('',#387,#389);
#391=EDGE_CURVE('',#75,#79,#390,.T.);
#392=CARTESIAN_POINT('',(-0.0483036750598591,0,-0.009608198359294322));
#393=DIRECTION('',(0,1,0));
#394=VECTOR('',#393,0.15);
#395=LINE('',#392,#394);
#396=EDGE_CURVE('',#79,#81,#395,.T.);
#397=CARTESIAN_POINT('',(-0.04925,0.15,6.031385485800715e-18));
#398=DIRECTION('',(0.09801714032956058,0,-0.9951847266721969));
#399=VECTOR('',#398,0.009654688322461729);
#400=LINE('',#397,#399);
#401=EDGE_CURVE('',#77,#81,#400,.T.);
#402=CARTESIAN_POINT('',(-0.0483036750598591,0,-0.009608198359294322));
#403=DIRECTION('',(0.2902846772544621,0,-0.9569403357322088));
#404=VECTOR('',#403,0.009654688322461712);
#405=LINE('',#402,#404);
#406=EDGE_CURVE('',#79,#83,#405,.T.);
#407=CARTESIAN_POINT('',(-0.04550106697618088,0,-0.01884715904398067));
#408=DIRECTION('',(0,1,0));
#409=VECTOR('',#408,0.15);
#410=LINE('',#407,#409);
#411=EDGE_CURVE('',#83,#85,#410,.T.);
#412=CARTESIAN_POINT('',(-0.0483036750598591,0.15,-0.009608198359294322));
#413=DIRECTION('',(0.2902846772544621,0,-0.9569403357322088));
#414=VECTOR('',#413,0.009654688322461712);
#415=LINE('',#412,#414);
#416=EDGE_CURVE('',#81,#85,#415,.T.);
#417=CARTESIAN_POINT('',(-0.04550106697618088,0,-0.01884715904398067));
#418=DIRECTION('',(0.4713967368259976,0,-0.881921264348355));
#419=VECTOR('',#418,0.00965468832246171);
#420=LINE('',#417,#419);
#421=EDGE_CURVE('',#83,#87,#420,.T.);
#422=CARTESIAN_POINT('',(-0.040949878405900364,0,-0.0273618339762154));
#423=DIRECTION('',(0,1,0));
#424=VECTOR('',#423,0.15);
#425=LINE('',#422,#424);
#426=EDGE_CURVE('',#87,#89,#425,.T.);
#427=CARTESIAN_POINT('',(-0.04550106697618088,0.15,-0.01884715904398067));
#428=DIRECTION('',(0.4713967368259976,0,-0.881921264348355));
#429=VECTOR('',#428,0.00965468832246171);
#430=LINE('',#427,#429);
#431=EDGE_CURVE('',#85,#89,#430,.T.);
#432=CARTESIAN_POINT('',(-0.040949878405900364,0,-0.0273618339762154));
#433=DIRECTION('',(0.634393284163645,0,-0.7730104533627373));
#434=VECTOR('',#433,0.00965468832246173);
#435=LINE('',#432,#434);
#436=EDGE_CURVE('',#87,#91,#435,.T.);
#437=CARTESIAN_POINT('',(-0.034825008973437474,0,-0.03482500897343747));
#438=DIRECTION('',(0,1,0));
#439=VECTOR('',#438,0.15);
#440=LINE('',#437,#439);
#441=EDGE_CURVE('',#91,#93,#440,.T.);
#442=CARTESIAN_POINT('',(-0.040949878405900364,0.15,-0.0273618339762154));
#443=DIRECTION('',(0.634393284163645,0,-0.7730104533627373));
#444=VECTOR('',#443,0.00965468832246173);
#445=LINE('',#442,#444);
#446=EDGE_CURVE('',#89,#93,#445,.T.);
#447=CARTESIAN_POINT('',(-0.034825008973437474,0,-0.03482500897343747));
#448=DIRECTION('',(0.7730104533627372,0,-0.6343932841636453));
#449=VECTOR('',#448,0.009654688322461727);
#450=LINE('',#447,#449);
#451=EDGE_CURVE('',#91,#95,#450,.T.);
#452=CARTESIAN_POINT('',(-0.02736183397621541,0,-0.04094987840590036));
#453=DIRECTION('',(0,1,0));
#454=VECTOR('',#453,0.15);
#455=LINE('',#452,#454);
#456=EDGE_CURVE('',#95,#97,#455,.T.);
#457=CARTESIAN_POINT('',(-0.034825008973437474,0.15,-0.03482500897343747));
#458=DIRECTION('',(0.7730104533627372,0,-0.6343932841636453));
#459=VECTOR('',#458,0.009654688322461727);
#460=LINE('',#457,#459);
#461=EDGE_CURVE('',#93,#97,#460,.T.);
#462=CARTESIAN_POINT('',(-0.02736183397621541,0,-0.04094987840590036));
#463=DIRECTION('',(0.8819212643483549,0,-0.471396736825998));
#464=VECTOR('',#463,0.009654688322461687);
#465=LINE('',#462,#464);
#466=EDGE_CURVE('',#95,#99,#465,.T.);
#467=CARTESIAN_POINT('',(-0.0188471590439807,0,-0.045501066976180865));
#468=DIRECTION('',(0,1,0));
#469=VECTOR('',#468,0.15);
#470=LINE('',#467,#469);
#471=EDGE_CURVE('',#99,#101,#470,.T.);
#472=CARTESIAN_POINT('',(-0.02736183397621541,0.15,-0.04094987840590036));
#473=DIRECTION('',(0.8819212643483549,0,-0.471396736825998));
#474=VECTOR('',#473,0.009654688322461687);
#475=LINE('',#472,#474);
#476=EDGE_CURVE('',#97,#101,#475,.T.);
#477=CARTESIAN_POINT('',(-0.0188471590439807,0,-0.045501066976180865));
#478=DIRECTION('',(0.9569403357322089,0,-0.2902846772544624));
#479=VECTOR('',#478,0.009654688322461727);
#480=LINE('',#477,#479);
#481=EDGE_CURVE('',#99,#103,#480,.T.);
#482=CARTESIAN_POINT('',(-0.009608198359294337,0,-0.048303675059859094));
#483=DIRECTION('',(0,1,0));
#484=VECTOR('',#483,0.15);
#485=LINE('',#482,#484);
#486=EDGE_CURVE('',#103,#105,#485,.T.);
#487=CARTESIAN_POINT('',(-0.0188471590439807,0.15,-0.045501066976180865));
#488=DIRECTION('',(0.9569403357322089,0,-0.2902846772544624));
#489=VECTOR('',#488,0.009654688322461727);
#490=LINE('',#487,#489);
#491=EDGE_CURVE('',#101,#105,#490,.T.);
#492=CARTESIAN_POINT('',(-0.009608198359294337,0,-0.048303675059859094));
#493=DIRECTION('',(0.9951847266721967,0,-0.09801714032956126));
#494=VECTOR('',#493,0.009654688322461732);
#495=LINE('',#492,#494);
#496=EDGE_CURVE('',#103,#107,#495,.T.);
#497=CARTESIAN_POINT('',(-9.047078228701072e-18,0,-0.04925));
#498=DIRECTION('',(0,1,0));
#499=VECTOR('',#498,0.15);
#500=LINE('',#497,#499);
#501=EDGE_CURVE('',#107,#109,#500,.T.);
#502=CARTESIAN_POINT('',(-0.009608198359294337,0.15,-0.048303675059859094));
#503=DIRECTION('',(0.9951847266721967,0,-0.09801714032956126));
#504=VECTOR('',#503,0.009654688322461732);
#505=LINE('',#502,#504);
#506=EDGE_CURVE('',#105,#109,#505,.T.);
#507=CARTESIAN_POINT('',(-9.047078228701072e-18,0,-0.04925));
#508=DIRECTION('',(0.9951847266721969,0,0.09801714032956055));
#509=VECTOR('',#508,0.00965468832246173);
#510=LINE('',#507,#509);
#511=EDGE_CURVE('',#107,#111,#510,.T.);
#512=CARTESIAN_POINT('',(0.00960819835929432,0,-0.0483036750598591));
#513=DIRECTION('',(0,1,0));
#514=VECTOR('',#513,0.15);
#515=LINE('',#512,#514);
#516=EDGE_CURVE('',#111,#113,#515,.T.);
#517=CARTESIAN_POINT('',(-9.047078228701072e-18,0.15,-0.04925));
#518=DIRECTION('',(0.9951847266721969,0,0.09801714032956055));
#519=VECTOR('',#518,0.00965468832246173);
#520=LINE('',#517,#519);
#521=EDGE_CURVE('',#109,#113,#520,.T.);
#522=CARTESIAN_POINT('',(0.00960819835929432,0,-0.0483036750598591));
#523=DIRECTION('',(0.9569403357322086,0,0.290284677254463));
#524=VECTOR('',#523,0.00965468832246173);
#525=LINE('',#522,#524);
#526=EDGE_CURVE('',#111,#115,#525,.T.);
#527=CARTESIAN_POINT('',(0.018847159043980682,0,-0.045501066976180865));
#528=DIRECTION('',(0,1,0));
#529=VECTOR('',#528,0.15);
#530=LINE('',#527,#529);
#531=EDGE_CURVE('',#115,#117,#530,.T.);
#532=CARTESIAN_POINT('',(0.00960819835929432,0.15,-0.0483036750598591));
#533=DIRECTION('',(0.9569403357322086,0,0.290284677254463));
#534=VECTOR('',#533,0.00965468832246173);
#535=LINE('',#532,#534);
#536=EDGE_CURVE('',#113,#117,#535,.T.);
#537=CARTESIAN_POINT('',(0.018847159043980682,0,-0.045501066976180865));
#538=DIRECTION('',(0.8819212643483553,0,0.4713967368259974));
#539=VECTOR('',#538,0.009654688322461684);
#540=LINE('',#537,#539);
#541=EDGE_CURVE('',#115,#119,#540,.T.);
#542=CARTESIAN_POINT('',(0.027361833976215392,0,-0.040949878405900364));
#543=DIRECTION('',(0,1,0));
#544=VECTOR('',#543,0.15);
#545=LINE('',#542,#544);
#546=EDGE_CURVE('',#119,#121,#545,.T.);
#547=CARTESIAN_POINT('',(0.018847159043980682,0.15,-0.045501066976180865));
#548=DIRECTION('',(0.8819212643483553,0,0.4713967368259974));
#549=VECTOR('',#548,0.009654688322461684);
#550=LINE('',#547,#549);
#551=EDGE_CURVE('',#117,#121,#550,.T.);
#552=CARTESIAN_POINT('',(0.027361833976215392,0,-0.040949878405900364));
#553=DIRECTION('',(0.7730104533627373,0,0.634393284163645));
#554=VECTOR('',#553,0.00965468832246173);
#555=LINE('',#552,#554);
#556=EDGE_CURVE('',#119,#123,#555,.T.);
#557=CARTESIAN_POINT('',(0.03482500897343746,0,-0.034825008973437474));
#558=DIRECTION('',(0,1,0));
#559=VECTOR('',#558,0.15);
#560=LINE('',#557,#559);
#561=EDGE_CURVE('',#123,#125,#560,.T.);
#562=CARTESIAN_POINT('',(0.027361833976215392,0.15,-0.040949878405900364));
#563=DIRECTION('',(0.7730104533627373,0,0.634393284163645));
#564=VECTOR('',#563,0.00965468832246173);
#565=LINE('',#562,#564);
#566=EDGE_CURVE('',#121,#125,#565,.T.);
#567=CARTESIAN_POINT('',(0.03482500897343746,0,-0.034825008973437474));
#568=DIRECTION('',(0.6343932841636456,0,0.7730104533627368));
#569=VECTOR('',#568,0.009654688322461732);
#570=LINE('',#567,#569);
#571=EDGE_CURVE('',#123,#127,#570,.T.);
#572=CARTESIAN_POINT('',(0.04094987840590036,0,-0.02736183397621541));
#573=DIRECTION('',(0,1,0));
#574=VECTOR('',#573,0.15);
#575=LINE('',#572,#574);
#576=EDGE_CURVE('',#127,#129,#575,.T.);
#577=CARTESIAN_POINT('',(0.03482500897343746,0.15,-0.034825008973437474));
#578=DIRECTION('',(0.6343932841636456,0,0.7730104533627368));
#579=VECTOR('',#578,0.009654688322461732);
#580=LINE('',#577,#579);
#581=EDGE_CURVE('',#125,#129,#580,.T.);
#582=CARTESIAN_POINT('',(0.04094987840590036,0,-0.02736183397621541));
#583=DIRECTION('',(0.4713967368259981,0,0.8819212643483547));
#584=VECTOR('',#583,0.009654688322461686);
#585=LINE('',#582,#584);
#586=EDGE_CURVE('',#127,#131,#585,.T.);
#587=CARTESIAN_POINT('',(0.045501066976180865,0,-0.018847159043980703));
#588=DIRECTION('',(0,1,0));
#589=VECTOR('',#588,0.15);
#590=LINE('',#587,#589);
#591=EDGE_CURVE('',#131,#133,#590,.T.);
#592=CARTESIAN_POINT('',(0.04094987840590036,0.15,-0.02736183397621541));
#593=DIRECTION('',(0.4713967368259981,0,0.8819212643483547));
#594=VECTOR('',#593,0.009654688322461686);
#595=LINE('',#592,#594);
#596=EDGE_CURVE('',#129,#133,#595,.T.);
#597=CARTESIAN_POINT('',(0.045501066976180865,0,-0.018847159043980703));
#598=DIRECTION('',(0.29028467725446233,0,0.9569403357322089));
#599=VECTOR('',#598,0.009654688322461729);
#600=LINE('',#597,#599);
#601=EDGE_CURVE('',#131,#135,#600,.T.);
#602=CARTESIAN_POINT('',(0.048303675059859094,0,-0.00960819835929434));
#603=DIRECTION('',(0,1,0));
#604=VECTOR('',#603,0.15);
#605=LINE('',#602,#604);
#606=EDGE_CURVE('',#135,#137,#605,.T.);
#607=CARTESIAN_POINT('',(0.045501066976180865,0.15,-0.018847159043980703));
#608=DIRECTION('',(0.29028467725446233,0,0.9569403357322089));
#609=VECTOR('',#608,0.009654688322461729);
#610=LINE('',#607,#609);
#611=EDGE_CURVE('',#133,#137,#610,.T.);
#612=CARTESIAN_POINT('',(0.048303675059859094,0,-0.00960819835929434));
#613=DIRECTION('',(0.09801714032956116,0,0.9951847266721969));
#614=VECTOR('',#613,0.009654688322461741);
#615=LINE('',#612,#614);
#616=EDGE_CURVE('',#135,#11,#615,.T.);
#617=CARTESIAN_POINT('',(0.048303675059859094,0.15,-0.00960819835929434));
#618=DIRECTION('',(0.09801714032956116,0,0.9951847266721969));
#619=VECTOR('',#618,0.009654688322461741);
#620=LINE('',#617,#619);
#621=EDGE_CURVE('',#137,#17,#620,.T.);
#622=CARTESIAN_POINT('',(0,0,0));
#623=DIRECTION('',(1,0,0));
#624=VECTOR('',#623,0.04925);
#625=LINE('',#622,#624);
#626=EDGE_CURVE('',#139,#11,#625,.T.);
#627=CARTESIAN_POINT('',(0,0,0));
#628=DIRECTION('',(0.9807852804032304,0,0.19509032201612825));
#629=VECTOR('',#628,0.04925);
#630=LINE('',#627,#629);
#631=EDGE_CURVE('',#139,#13,#630,.T.);
#632=CARTESIAN_POINT('',(0,0,0));
#633=DIRECTION('',(0.9238795325112867,0,0.3826834323650898));
#634=VECTOR('',#633,0.04925);
#635=LINE('',#632,#634);
#636=EDGE_CURVE('',#139,#19,#635,.T.);
#637=CARTESIAN_POINT('',(0,0,0));
#638=DIRECTION('',(0.8314696123025452,0,0.5555702330196022));
#639=VECTOR('',#638,0.04925);
#640=LINE('',#637,#639);
#641=EDGE_CURVE('',#139,#23,#640,.T.);
#642=CARTESIAN_POINT('',(0,0,0));
#643=DIRECTION('',(0.7071067811865476,0,0.7071067811865476));
#644=VECTOR('',#643,0.04925);
#645=LINE('',#642,#644);
#646=EDGE_CURVE('',#139,#27,#645,.T.);
#647=CARTESIAN_POINT('',(0,0,0));
#648=DIRECTION('',(0.5555702330196022,0,0.8314696123025451));
#649=VECTOR('',#648,0.04925000000000001);
#650=LINE('',#647,#649);
#651=EDGE_CURVE('',#139,#31,#650,.T.);
#652=CARTESIAN_POINT('',(0,0,0));
#653=DIRECTION('',(0.38268343236508984,0,0.9238795325112867));
#654=VECTOR('',#653,0.04925);
#655=LINE('',#652,#654);
#656=EDGE_CURVE('',#139,#35,#655,.T.);
#657=CARTESIAN_POINT('',(0,0,0));
#658=DIRECTION('',(0.19509032201612833,0,0.9807852804032304));
#659=VECTOR('',#658,0.04925);
#660=LINE('',#657,#659);
#661=EDGE_CURVE('',#139,#39,#660,.T.);
#662=CARTESIAN_POINT('',(0,0,0));
#663=DIRECTION('',(6.123233995736766e-17,0,1));
#664=VECTOR('',#663,0.04925);
#665=LINE('',#662,#664);
#666=EDGE_CURVE('',#139,#43,#665,.T.);
#667=CARTESIAN_POINT('',(0,0,0));
#668=DIRECTION('',(-0.19509032201612816,0,0.9807852804032304));
#669=VECTOR('',#668,0.04925);
#670=LINE('',#667,#669);
#671=EDGE_CURVE('',#139,#47,#670,.T.);
#672=CARTESIAN_POINT('',(0,0,0));
#673=DIRECTION('',(-0.3826834323650898,0,0.9238795325112868));
#674=VECTOR('',#673,0.049249999999999995);
#675=LINE('',#672,#674);
#676=EDGE_CURVE('',#139,#51,#675,.T.);
#677=CARTESIAN_POINT('',(0,0,0));
#678=DIRECTION('',(-0.555570233019602,0,0.8314696123025453));
#679=VECTOR('',#678,0.04925000000000001);
#680=LINE('',#677,#679);
#681=EDGE_CURVE('',#139,#55,#680,.T.);
#682=CARTESIAN_POINT('',(0,0,0));
#683=DIRECTION('',(-0.7071067811865476,0,0.7071067811865476));
#684=VECTOR('',#683,0.04925);
#685=LINE('',#682,#684);
#686=EDGE_CURVE('',#139,#59,#685,.T.);
#687=CARTESIAN_POINT('',(0,0,0));
#688=DIRECTION('',(-0.8314696123025452,0,0.5555702330196022));
#689=VECTOR('',#688,0.04925);
#690=LINE('',#687,#689);
#691=EDGE_CURVE('',#139,#63,#690,.T.);
#692=CARTESIAN_POINT('',(0,0,0));
#693=DIRECTION('',(-0.9238795325112867,0,0.3826834323650899));
#694=VECTOR('',#693,0.04925);
#695=LINE('',#692,#694);
#696=EDGE_CURVE('',#139,#67,#695,.T.);
#697=CARTESIAN_POINT('',(0,0,0));
#698=DIRECTION('',(-0.9807852804032303,0,0.19509032201612858));
#699=VECTOR('',#698,0.04925000000000001);
#700=LINE('',#697,#699);
#701=EDGE_CURVE('',#139,#71,#700,.T.);
#702=CARTESIAN_POINT('',(0,0,0));
#703=DIRECTION('',(-1,0,1.2246467991473532e-16));
#704=VECTOR('',#703,0.04925);
#705=LINE('',#702,#704);
#706=EDGE_CURVE('',#139,#75,#705,.T.);
#707=CARTESIAN_POINT('',(0,0,0));
#708=DIRECTION('',(-0.9807852804032303,0,-0.19509032201612833));
#709=VECTOR('',#708,0.04925000000000001);
#710=LINE('',#707,#709);
#711=EDGE_CURVE('',#139,#79,#710,.T.);
#712=CARTESIAN_POINT('',(0,0,0));
#713=DIRECTION('',(-0.9238795325112868,0,-0.3826834323650897));
#714=VECTOR('',#713,0.04925);
#715=LINE('',#712,#714);
#716=EDGE_CURVE('',#139,#83,#715,.T.);
#717=CARTESIAN_POINT('',(0,0,0));
#718=DIRECTION('',(-0.8314696123025453,0,-0.555570233019602));
#719=VECTOR('',#718,0.04925000000000001);
#720=LINE('',#717,#719);
#721=EDGE_CURVE('',#139,#87,#720,.T.);
#722=CARTESIAN_POINT('',(0,0,0));
#723=DIRECTION('',(-0.7071067811865476,0,-0.7071067811865475));
#724=VECTOR('',#723,0.04925000000000001);
#725=LINE('',#722,#724);
#726=EDGE_CURVE('',#139,#91,#725,.T.);
#727=CARTESIAN_POINT('',(0,0,0));
#728=DIRECTION('',(-0.5555702330196022,0,-0.8314696123025452));
#729=VECTOR('',#728,0.04925);
#730=LINE('',#727,#729);
#731=EDGE_CURVE('',#139,#95,#730,.T.);
#732=CARTESIAN_POINT('',(0,0,0));
#733=DIRECTION('',(-0.38268343236509034,0,-0.9238795325112865));
#734=VECTOR('',#733,0.04925);
#735=LINE('',#732,#734);
#736=EDGE_CURVE('',#139,#99,#735,.T.);
#737=CARTESIAN_POINT('',(0,0,0));
#738=DIRECTION('',(-0.1950903220161287,0,-0.9807852804032304));
#739=VECTOR('',#738,0.049249999999999995);
#740=LINE('',#737,#739);
#741=EDGE_CURVE('',#139,#103,#740,.T.);
#742=CARTESIAN_POINT('',(0,0,0));
#743=DIRECTION('',(-1.8369701987210297e-16,0,-1));
#744=VECTOR('',#743,0.04925);
#745=LINE('',#742,#744);
#746=EDGE_CURVE('',#139,#107,#745,.T.);
#747=CARTESIAN_POINT('',(0,0,0));
#748=DIRECTION('',(0.19509032201612833,0,-0.9807852804032304));
#749=VECTOR('',#748,0.04925);
#750=LINE('',#747,#749);
#751=EDGE_CURVE('',#139,#111,#750,.T.);
#752=CARTESIAN_POINT('',(0,0,0));
#753=DIRECTION('',(0.38268343236509006,0,-0.9238795325112867));
#754=VECTOR('',#753,0.049249999999999995);
#755=LINE('',#752,#754);
#756=EDGE_CURVE('',#139,#115,#755,.T.);
#757=CARTESIAN_POINT('',(0,0,0));
#758=DIRECTION('',(0.5555702330196018,0,-0.8314696123025455));
#759=VECTOR('',#758,0.04925);
#760=LINE('',#757,#759);
#761=EDGE_CURVE('',#139,#119,#760,.T.);
#762=CARTESIAN_POINT('',(0,0,0));
#763=DIRECTION('',(0.7071067811865474,0,-0.7071067811865477));
#764=VECTOR('',#763,0.04925);
#765=LINE('',#762,#764);
#766=EDGE_CURVE('',#139,#123,#765,.T.);
#767=CARTESIAN_POINT('',(0,0,0));
#768=DIRECTION('',(0.8314696123025452,0,-0.5555702330196022));
#769=VECTOR('',#768,0.04925);
#770=LINE('',#767,#769);
#771=EDGE_CURVE('',#139,#127,#770,.T.);
#772=CARTESIAN_POINT('',(0,0,0));
#773=DIRECTION('',(0.9238795325112865,0,-0.3826834323650904));
#774=VECTOR('',#773,0.04925);
#775=LINE('',#772,#774);
#776=EDGE_CURVE('',#139,#131,#775,.T.);
#777=CARTESIAN_POINT('',(0,0,0));
#778=DIRECTION('',(0.9807852804032304,0,-0.19509032201612872));
#779=VECTOR('',#778,0.049249999999999995);
#780=LINE('',#777,#779);
#781=EDGE_CURVE('',#139,#135,#780,.T.);
#782=CARTESIAN_POINT('',(0,0.15,0));
#783=DIRECTION('',(1,0,0));
#784=VECTOR('',#783,0.04925);
#785=LINE('',#782,#784);
#786=EDGE_CURVE('',#141,#17,#785,.T.);
#787=CARTESIAN_POINT('',(0,0.15,0));
#788=DIRECTION('',(0.9807852804032304,0,0.19509032201612825));
#789=VECTOR('',#788,0.04925);
#790=LINE('',#787,#789);
#791=EDGE_CURVE('',#141,#15,#790,.T.);
#792=CARTESIAN_POINT('',(0,0.15,0));
#793=DIRECTION('',(0.9238795325112867,0,0.3826834323650898));
#794=VECTOR('',#793,0.04925);
#795=LINE('',#792,#794);
#796=EDGE_CURVE('',#141,#21,#795,.T.);
#797=CARTESIAN_POINT('',(0,0.15,0));
#798=DIRECTION('',(0.8314696123025452,0,0.5555702330196022));
#799=VECTOR('',#798,0.04925);
#800=LINE('',#797,#799);
#801=EDGE_CURVE('',#141,#25,#800,.T.);
#802=CARTESIAN_POINT('',(0,0.15,0));
#803=DIRECTION('',(0.7071067811865476,0,0.7071067811865476));
#804=VECTOR('',#803,0.04925);
#805=LINE('',#802,#804);
#806=EDGE_CURVE('',#141,#29,#805,.T.);
#807=CARTESIAN_POINT('',(0,0.15,0));
#808=DIRECTION('',(0.5555702330196022,0,0.8314696123025451));
#809=VECTOR('',#808,0.04925000000000001);
#810=LINE('',#807,#809);
#811=EDGE_CURVE('',#141,#33,#810,.T.);
#812=CARTESIAN_POINT('',(0,0.15,0));
#813=DIRECTION('',(0.38268343236508984,0,0.9238795325112867));
#814=VECTOR('',#813,0.04925);
#815=LINE('',#812,#814);
#816=EDGE_CURVE('',#141,#37,#815,.T.);
#817=CARTESIAN_POINT('',(0,0.15,0));
#818=DIRECTION('',(0.19509032201612833,0,0.9807852804032304));
#819=VECTOR('',#818,0.04925);
#820=LINE('',#817,#819);
#821=EDGE_CURVE('',#141,#41,#820,.T.);
#822=CARTESIAN_POINT('',(0,0.15,0));
#823=DIRECTION('',(6.123233995736766e-17,0,1));
#824=VECTOR('',#823,0.04925);
#825=LINE('',#822,#824);
#826=EDGE_CURVE('',#141,#45,#825,.T.);
#827=CARTESIAN_POINT('',(0,0.15,0));
#828=DIRECTION('',(-0.19509032201612816,0,0.9807852804032304));
#829=VECTOR('',#828,0.04925);
#830=LINE('',#827,#829);
#831=EDGE_CURVE('',#141,#49,#830,.T.);
#832=CARTESIAN_POINT('',(0,0.15,0));
#833=DIRECTION('',(-0.3826834323650898,0,0.9238795325112868));
#834=VECTOR('',#833,0.049249999999999995);
#835=LINE('',#832,#834);
#836=EDGE_CURVE('',#141,#53,#835,.T.);
#837=CARTESIAN_POINT('',(0,0.15,0));
#838=DIRECTION('',(-0.555570233019602,0,0.8314696123025453));
#839=VECTOR('',#838,0.04925000000000001);
#840=LINE('',#837,#839);
#841=EDGE_CURVE('',#141,#57,#840,.T.);
#842=CARTESIAN_POINT('',(0,0.15,0));
#843=DIRECTION('',(-0.7071067811865476,0,0.7071067811865476));
#844=VECTOR('',#843,0.04925);
#845=LINE('',#842,#844);
#846=EDGE_CURVE('',#141,#61,#845,.T.);
#847=CARTESIAN_POINT('',(0,0.15,0));
#848=DIRECTION('',(-0.8314696123025452,0,0.5555702330196022));
#849=VECTOR('',#848,0.04925);
#850=LINE('',#847,#849);
#851=EDGE_CURVE('',#141,#65,#850,.T.);
#852=CARTESIAN_POINT('',(0,0.15,0));
#853=DIRECTION('',(-0.9238795325112867,0,0.3826834323650899));
#854=VECTOR('',#853,0.04925);
#855=LINE('',#852,#854);
#856=EDGE_CURVE('',#141,#69,#855,.T.);
#857=CARTESIAN_POINT('',(0,0.15,0));
#858=DIRECTION('',(-0.9807852804032303,0,0.19509032201612858));
#859=VECTOR('',#858,0.04925000000000001);
#860=LINE('',#857,#859);
#861=EDGE_CURVE('',#141,#73,#860,.T.);
#862=CARTESIAN_POINT('',(0,0.15,0));
#863=DIRECTION('',(-1,0,1.2246467991473532e-16));
#864=VECTOR('',#863,0.04925);
#865=LINE('',#862,#864);
#866=EDGE_CURVE('',#141,#77,#865,.T.);
#867=CARTESIAN_POINT('',(0,0.15,0));
#868=DIRECTION('',(-0.9807852804032303,0,-0.19509032201612833));
#869=VECTOR('',#868,0.04925000000000001);
#870=LINE('',#867,#869);
#871=EDGE_CURVE('',#141,#81,#870,.T.);
#872=CARTESIAN_POINT('',(0,0.15,0));
#873=DIRECTION('',(-0.9238795325112868,0,-0.3826834323650897));
#874=VECTOR('',#873,0.04925);
#875=LINE('',#872,#874);
#876=EDGE_CURVE('',#141,#85,#875,.T.);
#877=CARTESIAN_POINT('',(0,0.15,0));
#878=DIRECTION('',(-0.8314696123025453,0,-0.555570233019602));
#879=VECTOR('',#878,0.04925000000000001);
#880=LINE('',#877,#879);
#881=EDGE_CURVE('',#141,#89,#880,.T.);
#882=CARTESIAN_POINT('',(0,0.15,0));
#883=DIRECTION('',(-0.7071067811865476,0,-0.7071067811865475));
#884=VECTOR('',#883,0.04925000000000001);
#885=LINE('',#882,#884);
#886=EDGE_CURVE('',#141,#93,#885,.T.);
#887=CARTESIAN_POINT('',(0,0.15,0));
#888=DIRECTION('',(-0.5555702330196022,0,-0.8314696123025452));
#889=VECTOR('',#888,0.04925);
#890=LINE('',#887,#889);
#891=EDGE_CURVE('',#141,#97,#890,.T.);
#892=CARTESIAN_POINT('',(0,0.15,0));
#893=DIRECTION('',(-0.38268343236509034,0,-0.9238795325112865));
#894=VECTOR('',#893,0.04925);
#895=LINE('',#892,#894);
#896=EDGE_CURVE('',#141,#101,#895,.T.);
#897=CARTESIAN_POINT('',(0,0.15,0));
#898=DIRECTION('',(-0.1950903220161287,0,-0.9807852804032304));
#899=VECTOR('',#898,0.049249999999999995);
#900=LINE('',#897,#899);
#901=EDGE_CURVE('',#141,#105,#900,.T.);
#902=CARTESIAN_POINT('',(0,0.15,0));
#903=DIRECTION('',(-1.8369701987210297e-16,0,-1));
#904=VECTOR('',#903,0.04925);
#905=LINE('',#902,#904);
#906=EDGE_CURVE('',#141,#109,#905,.T.);
#907=CARTESIAN_POINT('',(0,0.15,0));
#908=DIRECTION('',(0.19509032201612833,0,-0.9807852804032304));
#909=VECTOR('',#908,0.04925);
#910=LINE('',#907,#909);
#911=EDGE_CURVE('',#141,#113,#910,.T.);
#912=CARTESIAN_POINT('',(0,0.15,0));
#913=DIRECTION('',(0.38268343236509006,0,-0.9238795325112867));
#914=VECTOR('',#913,0.049249999999999995);
#915=LINE('',#912,#914);
#916=EDGE_CURVE('',#141,#117,#915,.T.);
#917=CARTESIAN_POINT('',(0,0.15,0));
#918=DIRECTION('',(0.5555702330196018,0,-0.8314696123025455));
#919=VECTOR('',#918,0.04925);
#920=LINE('',#917,#919);
#921=EDGE_CURVE('',#141,#121,#920,.T.);
#922=CARTESIAN_POINT('',(0,0.15,0));
#923=DIRECTION('',(0.7071067811865474,0,-0.7071067811865477));
#924=VECTOR('',#923,0.04925);
#925=LINE('',#922,#924);
#926=EDGE_CURVE('',#141,#125,#925,.T.);
#927=CARTESIAN_POINT('',(0,0.15,0));
#928=DIRECTION('',(0.8314696123025452,0,-0.5555702330196022));
#929=VECTOR('',#928,0.04925);
#930=LINE('',#927,#929);
#931=EDGE_CURVE('',#141,#129,#930,.T.);
#932=CARTESIAN_POINT('',(0,0.15,0));
#933=DIRECTION('',(0.9238795325112865,0,-0.3826834323650904));
#934=VECTOR('',#933,0.04925);
#935=LINE('',#932,#934);
#936=EDGE_CURVE('',#141,#133,#935,.T.);
#937=CARTESIAN_POINT('',(0,0.15,0));
#938=DIRECTION('',(0.9807852804032304,0,-0.19509032201612872));
#939=VECTOR('',#938,0.049249999999999995);
#940=LINE('',#937,#939);
#941=EDGE_CURVE('',#141,#137,#940,.T.);
#942=CARTESIAN_POINT('',(0.04877683752992955,0.075,0.004804099179647158));
#943=DIRECTION('',(-0.9951847266721968,0,-0.09801714032956066));
#944=DIRECTION('',(0,-1,0));
#945=AXIS2_PLACEMENT_3D('',#942,#943,#944);
#946=PLANE('',#945);
#947=ORIENTED_EDGE('',*,*,#146,.T.);
#948=ORIENTED_EDGE('',*,*,#151,.T.);
#949=ORIENTED_EDGE('',*,*,#156,.F.);
#950=ORIENTED_EDGE('',*,*,#161,.F.);
#951=EDGE_LOOP('',(#947,#948,#949,#950));
#952=FACE_OUTER_BOUND('',#951,.T.);
#953=ADVANCED_FACE('',(#952),#946,.T.);
#954=CARTESIAN_POINT('',(0.04690237101801999,0.075,0.014227678701637495));
#955=DIRECTION('',(-0.9569403357322088,0,-0.2902846772544625));
#956=DIRECTION('',(0,-1,0));
#957=AXIS2_PLACEMENT_3D('',#954,#955,#956);
#958=PLANE('',#957);
#959=ORIENTED_EDGE('',*,*,#166,.T.);
#960=ORIENTED_EDGE('',*,*,#171,.T.);
#961=ORIENTED_EDGE('',*,*,#176,.F.);
#962=ORIENTED_EDGE('',*,*,#151,.F.);
#963=EDGE_LOOP('',(#959,#960,#961,#962));
#964=FACE_OUTER_BOUND('',#963,.T.);
#965=ADVANCED_FACE('',(#964),#958,.T.);
#966=CARTESIAN_POINT('',(0.043225472691040615,0.075,0.02310449651009804));
#967=DIRECTION('',(-0.8819212643483552,0,-0.47139673682599736));
#968=DIRECTION('',(0,-1,0));
#969=AXIS2_PLACEMENT_3D('',#966,#967,#968);
#970=PLANE('',#969);
#971=ORIENTED_EDGE('',*,*,#181,.T.);
#972=ORIENTED_EDGE('',*,*,#186,.T.);
#973=ORIENTED_EDGE('',*,*,#191,.F.);
#974=ORIENTED_EDGE('',*,*,#171,.F.);
#975=EDGE_LOOP('',(#971,#972,#973,#974));
#976=FACE_OUTER_BOUND('',#975,.T.);
#977=ADVANCED_FACE('',(#976),#970,.T.);
#978=CARTESIAN_POINT('',(0.03788744368966891,0.075,0.031093421474826438));
#979=DIRECTION('',(-0.773010453362737,0,-0.6343932841636454));
#980=DIRECTION('',(0,-1,0));
#981=AXIS2_PLACEMENT_3D('',#978,#979,#980);
#982=PLANE('',#981);
#983=ORIENTED_EDGE('',*,*,#196,.T.);
#984=ORIENTED_EDGE('',*,*,#201,.T.);
#985=ORIENTED_EDGE('',*,*,#206,.F.);
#986=ORIENTED_EDGE('',*,*,#186,.F.);
#987=EDGE_LOOP('',(#983,#984,#985,#986));
#988=FACE_OUTER_BOUND('',#987,.T.);
#989=ADVANCED_FACE('',(#988),#982,.T.);
#990=CARTESIAN_POINT('',(0.031093421474826438,0.075,0.03788744368966891));
#991=DIRECTION('',(-0.6343932841636457,0,-0.7730104533627367));
#992=DIRECTION('',(0,-1,0));
#993=AXIS2_PLACEMENT_3D('',#990,#991,#992);
#994=PLANE('',#993);
#995=ORIENTED_EDGE('',*,*,#211,.T.);
#996=ORIENTED_EDGE('',*,*,#216,.T.);
#997=ORIENTED_EDGE('',*,*,#221,.F.);
#998=ORIENTED_EDGE('',*,*,#201,.F.);
#999=EDGE_LOOP('',(#995,#996,#997,#998));
#1000=FACE_OUTER_BOUND('',#999,.T.);
#1001=ADVANCED_FACE('',(#1000),#994,.T.);
#1002=CARTESIAN_POINT('',(0.023104496510098042,0.075,0.043225472691040615));
#1003=DIRECTION('',(-0.47139673682599714,0,-0.8819212643483553));
#1004=DIRECTION('',(0,-1,0));
#1005=AXIS2_PLACEMENT_3D('',#1002,#1003,#1004);
#1006=PLANE('',#1005);
#1007=ORIENTED_EDGE('',*,*,#226,.T.);
#1008=ORIENTED_EDGE('',*,*,#231,.T.);
#1009=ORIENTED_EDGE('',*,*,#236,.F.);
#1010=ORIENTED_EDGE('',*,*,#216,.F.);
#1011=EDGE_LOOP('',(#1007,#1008,#1009,#1010));
#1012=FACE_OUTER_BOUND('',#1011,.T.);
#1013=ADVANCED_FACE('',(#1012),#1006,.T.);
#1014=CARTESIAN_POINT('',(0.014227678701637499,0.075,0.04690237101801999));
#1015=DIRECTION('',(-0.29028467725446233,0,-0.9569403357322089));
#1016=DIRECTION('',(1,0,0));
#1017=AXIS2_PLACEMENT_3D('',#1014,#1015,#1016);
#1018=PLANE('',#1017);
#1019=ORIENTED_EDGE('',*,*,#241,.T.);
#1020=ORIENTED_EDGE('',*,*,#246,.T.);
#1021=ORIENTED_EDGE('',*,*,#251,.F.);
#1022=ORIENTED_EDGE('',*,*,#231,.F.);
#1023=EDGE_LOOP('',(#1019,#1020,#1021,#1022));
#1024=FACE_OUTER_BOUND('',#1023,.T.);
#1025=ADVANCED_FACE('',(#1024),#1018,.T.);
#1026=CARTESIAN_POINT('',(0.004804099179647162,0.075,0.04877683752992955));
#1027=DIRECTION('',(-0.0980171403295608,0,-0.9951847266721968));
#1028=DIRECTION('',(1,0,0));
#1029=AXIS2_PLACEMENT_3D('',#1026,#1027,#1028);
#1030=PLANE('',#1029);
#1031=ORIENTED_EDGE('',*,*,#256,.T.);
#1032=ORIENTED_EDGE('',*,*,#261,.T.);
#1033=ORIENTED_EDGE('',*,*,#266,.F.);
#1034=ORIENTED_EDGE('',*,*,#246,.F.);
#1035=EDGE_LOOP('',(#1031,#1032,#1033,#1034));
#1036=FACE_OUTER_BOUND('',#1035,.T.);
#1037=ADVANCED_FACE('',(#1036),#1030,.T.);
#1038=CARTESIAN_POINT('',(-0.004804099179647155,0.075,0.04877683752992955));
#1039=DIRECTION('',(0.0980171403295608,0,-0.9951847266721968));
#1040=DIRECTION('',(1,0,0));
#1041=AXIS2_PLACEMENT_3D('',#1038,#1039,#1040);
#1042=PLANE('',#1041);
#1043=ORIENTED_EDGE('',*,*,#271,.T.);
#1044=ORIENTED_EDGE('',*,*,#276,.T.);
#1045=ORIENTED_EDGE('',*,*,#281,.F.);
#1046=ORIENTED_EDGE('',*,*,#261,.F.);
#1047=EDGE_LOOP('',(#1043,#1044,#1045,#1046));
#1048=FACE_OUTER_BOUND('',#1047,.T.);
#1049=ADVANCED_FACE('',(#1048),#1042,.T.);
#1050=CARTESIAN_POINT('',(-0.014227678701637492,0.075,0.04690237101801999));
#1051=DIRECTION('',(0.29028467725446233,0,-0.9569403357322089));
#1052=DIRECTION('',(1,0,0));
#1053=AXIS2_PLACEMENT_3D('',#1050,#1051,#1052);
#1054=PLANE('',#1053);
#1055=ORIENTED_EDGE('',*,*,#286,.T.);
#1056=ORIENTED_EDGE('',*,*,#291,.T.);
#1057=ORIENTED_EDGE('',*,*,#296,.F.);
#1058=ORIENTED_EDGE('',*,*,#276,.F.);
#1059=EDGE_LOOP('',(#1055,#1056,#1057,#1058));
#1060=FACE_OUTER_BOUND('',#1059,.T.);
#1061=ADVANCED_FACE('',(#1060),#1054,.T.);
#1062=CARTESIAN_POINT('',(-0.023104496510098035,0.075,0.043225472691040615));
#1063=DIRECTION('',(0.471396736825997,0,-0.8819212643483555));
#1064=DIRECTION('',(0,1,0));
#1065=AXIS2_PLACEMENT_3D('',#1062,#1063,#1064);
#1066=PLANE('',#1065);
#1067=ORIENTED_EDGE('',*,*,#301,.T.);
#1068=ORIENTED_EDGE('',*,*,#306,.T.);
#1069=ORIENTED_EDGE('',*,*,#311,.F.);
#1070=ORIENTED_EDGE('',*,*,#291,.F.);
#1071=EDGE_LOOP('',(#1067,#1068,#1069,#1070));
#1072=FACE_OUTER_BOUND('',#1071,.T.);
#1073=ADVANCED_FACE('',(#1072),#1066,.T.);
#1074=CARTESIAN_POINT('',(-0.031093421474826435,0.075,0.03788744368966891));
#1075=DIRECTION('',(0.6343932841636454,0,-0.773010453362737));
#1076=DIRECTION('',(0,1,0));
#1077=AXIS2_PLACEMENT_3D('',#1074,#1075,#1076);
#1078=PLANE('',#1077);
#1079=ORIENTED_EDGE('',*,*,#316,.T.);
#1080=ORIENTED_EDGE('',*,*,#321,.T.);
#1081=ORIENTED_EDGE('',*,*,#326,.F.);
#1082=ORIENTED_EDGE('',*,*,#306,.F.);
#1083=EDGE_LOOP('',(#1079,#1080,#1081,#1082));
#1084=FACE_OUTER_BOUND('',#1083,.T.);
#1085=ADVANCED_FACE('',(#1084),#1078,.T.);
#1086=CARTESIAN_POINT('',(-0.03788744368966891,0.075,0.031093421474826438));
#1087=DIRECTION('',(0.773010453362737,0,-0.6343932841636454));
#1088=DIRECTION('',(0,1,0));
#1089=AXIS2_PLACEMENT_3D('',#1086,#1087,#1088);
#1090=PLANE('',#1089);
#1091=ORIENTED_EDGE('',*,*,#331,.T.);
#1092=ORIENTED_EDGE('',*,*,#336,.T.);
#1093=ORIENTED_EDGE('',*,*,#341,.F.);
#1094=ORIENTED_EDGE('',*,*,#321,.F.);
#1095=EDGE_LOOP('',(#1091,#1092,#1093,#1094));
#1096=FACE_OUTER_BOUND('',#1095,.T.);
#1097=ADVANCED_FACE('',(#1096),#1090,.T.);
#1098=CARTESIAN_POINT('',(-0.043225472691040615,0.075,0.023104496510098042));
#1099=DIRECTION('',(0.881921264348355,0,-0.47139673682599764));
#1100=DIRECTION('',(0,1,0));
#1101=AXIS2_PLACEMENT_3D('',#1098,#1099,#1100);
#1102=PLANE('',#1101);
#1103=ORIENTED_EDGE('',*,*,#346,.T.);
#1104=ORIENTED_EDGE('',*,*,#351,.T.);
#1105=ORIENTED_EDGE('',*,*,#356,.F.);
#1106=ORIENTED_EDGE('',*,*,#336,.F.);
#1107=EDGE_LOOP('',(#1103,#1104,#1105,#1106));
#1108=FACE_OUTER_BOUND('',#1107,.T.);
#1109=ADVANCED_FACE('',(#1108),#1102,.T.);
#1110=CARTESIAN_POINT('',(-0.04690237101801999,0.075,0.014227678701637506));
#1111=DIRECTION('',(0.9569403357322086,0,-0.29028467725446283));
#1112=DIRECTION('',(0,1,0));
#1113=AXIS2_PLACEMENT_3D('',#1110,#1111,#1112);
#1114=PLANE('',#1113);
#1115=ORIENTED_EDGE('',*,*,#361,.T.);
#1116=ORIENTED_EDGE('',*,*,#366,.T.);
#1117=ORIENTED_EDGE('',*,*,#371,.F.);
#1118=ORIENTED_EDGE('',*,*,#351,.F.);
#1119=EDGE_LOOP('',(#1115,#1116,#1117,#1118));
#1120=FACE_OUTER_BOUND('',#1119,.T.);
#1121=ADVANCED_FACE('',(#1120),#1114,.T.);
#1122=CARTESIAN_POINT('',(-0.04877683752992955,0.075,0.00480409917964717));
#1123=DIRECTION('',(0.9951847266721969,0,-0.09801714032956055));
#1124=DIRECTION('',(0,1,0));
#1125=AXIS2_PLACEMENT_3D('',#1122,#1123,#1124);
#1126=PLANE('',#1125);
#1127=ORIENTED_EDGE('',*,*,#376,.T.);
#1128=ORIENTED_EDGE('',*,*,#381,.T.);
#1129=ORIENTED_EDGE('',*,*,#386,.F.);
#1130=ORIENTED_EDGE('',*,*,#366,.F.);
#1131=EDGE_LOOP('',(#1127,#1128,#1129,#1130));
#1132=FACE_OUTER_BOUND('',#1131,.T.);
#1133=ADVANCED_FACE('',(#1132),#1126,.T.);
#1134=CARTESIAN_POINT('',(-0.04877683752992955,0.075,-0.0048040991796471574));
#1135=DIRECTION('',(0.9951847266721969,0,0.09801714032956055));
#1136=DIRECTION('',(0,1,0));
#1137=AXIS2_PLACEMENT_3D('',#1134,#1135,#1136);
#1138=PLANE('',#1137);
#1139=ORIENTED_EDGE('',*,*,#391,.T.);
#1140=ORIENTED_EDGE('',*,*,#396,.T.);
#1141=ORIENTED_EDGE('',*,*,#401,.F.);
#1142=ORIENTED_EDGE('',*,*,#381,.F.);
#1143=EDGE_LOOP('',(#1139,#1140,#1141,#1142));
#1144=FACE_OUTER_BOUND('',#1143,.T.);
#1145=ADVANCED_FACE('',(#1144),#1138,.T.);
#1146=CARTESIAN_POINT('',(-0.04690237101801999,0.075,-0.014227678701637495));
#1147=DIRECTION('',(0.9569403357322089,0,0.2902846772544621));
#1148=DIRECTION('',(0,1,0));
#1149=AXIS2_PLACEMENT_3D('',#1146,#1147,#1148);
#1150=PLANE('',#1149);
#1151=ORIENTED_EDGE('',*,*,#406,.T.);
#1152=ORIENTED_EDGE('',*,*,#411,.T.);
#1153=ORIENTED_EDGE('',*,*,#416,.F.);
#1154=ORIENTED_EDGE('',*,*,#396,.F.);
#1155=EDGE_LOOP('',(#1151,#1152,#1153,#1154));
#1156=FACE_OUTER_BOUND('',#1155,.T.);
#1157=ADVANCED_FACE('',(#1156),#1150,.T.);
#1158=CARTESIAN_POINT('',(-0.04322547269104063,0.075,-0.023104496510098035));
#1159=DIRECTION('',(0.881921264348355,0,0.4713967368259978));
#1160=DIRECTION('',(0,1,0));
#1161=AXIS2_PLACEMENT_3D('',#1158,#1159,#1160);
#1162=PLANE('',#1161);
#1163=ORIENTED_EDGE('',*,*,#421,.T.);
#1164=ORIENTED_EDGE('',*,*,#426,.T.);
#1165=ORIENTED_EDGE('',*,*,#431,.F.);
#1166=ORIENTED_EDGE('',*,*,#411,.F.);
#1167=EDGE_LOOP('',(#1163,#1164,#1165,#1166));
#1168=FACE_OUTER_BOUND('',#1167,.T.);
#1169=ADVANCED_FACE('',(#1168),#1162,.T.);
#1170=CARTESIAN_POINT('',(-0.03788744368966892,0.075,-0.031093421474826435));
#1171=DIRECTION('',(0.7730104533627375,0,0.6343932841636448));
#1172=DIRECTION('',(0,1,0));
#1173=AXIS2_PLACEMENT_3D('',#1170,#1171,#1172);
#1174=PLANE('',#1173);
#1175=ORIENTED_EDGE('',*,*,#436,.T.);
#1176=ORIENTED_EDGE('',*,*,#441,.T.);
#1177=ORIENTED_EDGE('',*,*,#446,.F.);
#1178=ORIENTED_EDGE('',*,*,#426,.F.);
#1179=EDGE_LOOP('',(#1175,#1176,#1177,#1178));
#1180=FACE_OUTER_BOUND('',#1179,.T.);
#1181=ADVANCED_FACE('',(#1180),#1174,.T.);
#1182=CARTESIAN_POINT('',(-0.03109342147482644,0.075,-0.03788744368966891));
#1183=DIRECTION('',(0.6343932841636453,0,0.7730104533627372));
#1184=DIRECTION('',(0,1,0));
#1185=AXIS2_PLACEMENT_3D('',#1182,#1183,#1184);
#1186=PLANE('',#1185);
#1187=ORIENTED_EDGE('',*,*,#451,.T.);
#1188=ORIENTED_EDGE('',*,*,#456,.T.);
#1189=ORIENTED_EDGE('',*,*,#461,.F.);
#1190=ORIENTED_EDGE('',*,*,#441,.F.);
#1191=EDGE_LOOP('',(#1187,#1188,#1189,#1190));
#1192=FACE_OUTER_BOUND('',#1191,.T.);
#1193=ADVANCED_FACE('',(#1192),#1186,.T.);
#1194=CARTESIAN_POINT('',(-0.023104496510098056,0.075,-0.043225472691040615));
#1195=DIRECTION('',(0.47139673682599786,0,0.8819212643483549));
#1196=DIRECTION('',(0,1,0));
#1197=AXIS2_PLACEMENT_3D('',#1194,#1195,#1196);
#1198=PLANE('',#1197);
#1199=ORIENTED_EDGE('',*,*,#466,.T.);
#1200=ORIENTED_EDGE('',*,*,#471,.T.);
#1201=ORIENTED_EDGE('',*,*,#476,.F.);
#1202=ORIENTED_EDGE('',*,*,#456,.F.);
#1203=EDGE_LOOP('',(#1199,#1200,#1201,#1202));
#1204=FACE_OUTER_BOUND('',#1203,.T.);
#1205=ADVANCED_FACE('',(#1204),#1198,.T.);
#1206=CARTESIAN_POINT('',(-0.01422767870163752,0.075,-0.04690237101801998));
#1207=DIRECTION('',(0.29028467725446216,0,0.9569403357322089));
#1208=DIRECTION('',(1,0,0));
#1209=AXIS2_PLACEMENT_3D('',#1206,#1207,#1208);
#1210=PLANE('',#1209);
#1211=ORIENTED_EDGE('',*,*,#481,.T.);
#1212=ORIENTED_EDGE('',*,*,#486,.T.);
#1213=ORIENTED_EDGE('',*,*,#491,.F.);
#1214=ORIENTED_EDGE('',*,*,#471,.F.);
#1215=EDGE_LOOP('',(#1211,#1212,#1213,#1214));
#1216=FACE_OUTER_BOUND('',#1215,.T.);
#1217=ADVANCED_FACE('',(#1216),#1210,.T.);
#1218=CARTESIAN_POINT('',(-0.004804099179647173,0.075,-0.04877683752992955));
#1219=DIRECTION('',(0.09801714032956127,0,0.9951847266721969));
#1220=DIRECTION('',(1,0,0));
#1221=AXIS2_PLACEMENT_3D('',#1218,#1219,#1220);
#1222=PLANE('',#1221);
#1223=ORIENTED_EDGE('',*,*,#496,.T.);
#1224=ORIENTED_EDGE('',*,*,#501,.T.);
#1225=ORIENTED_EDGE('',*,*,#506,.F.);
#1226=ORIENTED_EDGE('',*,*,#486,.F.);
#1227=EDGE_LOOP('',(#1223,#1224,#1225,#1226));
#1228=FACE_OUTER_BOUND('',#1227,.T.);
#1229=ADVANCED_FACE('',(#1228),#1222,.T.);
#1230=CARTESIAN_POINT('',(0.004804099179647155,0.075,-0.04877683752992955));
#1231=DIRECTION('',(-0.09801714032956067,0,0.9951847266721969));
#1232=DIRECTION('',(1,0,0));
#1233=AXIS2_PLACEMENT_3D('',#1230,#1231,#1232);
#1234=PLANE('',#1233);
#1235=ORIENTED_EDGE('',*,*,#511,.T.);
#1236=ORIENTED_EDGE('',*,*,#516,.T.);
#1237=ORIENTED_EDGE('',*,*,#521,.F.);
#1238=ORIENTED_EDGE('',*,*,#501,.F.);
#1239=EDGE_LOOP('',(#1235,#1236,#1237,#1238));
#1240=FACE_OUTER_BOUND('',#1239,.T.);
#1241=ADVANCED_FACE('',(#1240),#1234,.T.);
#1242=CARTESIAN_POINT('',(0.014227678701637502,0.075,-0.04690237101801999));
#1243=DIRECTION('',(-0.29028467725446266,0,0.9569403357322087));
#1244=DIRECTION('',(1,0,0));
#1245=AXIS2_PLACEMENT_3D('',#1242,#1243,#1244);
#1246=PLANE('',#1245);
#1247=ORIENTED_EDGE('',*,*,#526,.T.);
#1248=ORIENTED_EDGE('',*,*,#531,.T.);
#1249=ORIENTED_EDGE('',*,*,#536,.F.);
#1250=ORIENTED_EDGE('',*,*,#516,.F.);
#1251=EDGE_LOOP('',(#1247,#1248,#1249,#1250));
#1252=FACE_OUTER_BOUND('',#1251,.T.);
#1253=ADVANCED_FACE('',(#1252),#1246,.T.);
#1254=CARTESIAN_POINT('',(0.023104496510098035,0.075,-0.043225472691040615));
#1255=DIRECTION('',(-0.4713967368259974,0,0.8819212643483552));
#1256=DIRECTION('',(0,-1,0));
#1257=AXIS2_PLACEMENT_3D('',#1254,#1255,#1256);
#1258=PLANE('',#1257);
#1259=ORIENTED_EDGE('',*,*,#541,.T.);
#1260=ORIENTED_EDGE('',*,*,#546,.T.);
#1261=ORIENTED_EDGE('',*,*,#551,.F.);
#1262=ORIENTED_EDGE('',*,*,#531,.F.);
#1263=EDGE_LOOP('',(#1259,#1260,#1261,#1262));
#1264=FACE_OUTER_BOUND('',#1263,.T.);
#1265=ADVANCED_FACE('',(#1264),#1258,.T.);
#1266=CARTESIAN_POINT('',(0.031093421474826424,0.075,-0.03788744368966892));
#1267=DIRECTION('',(-0.634393284163645,0,0.7730104533627374));
#1268=DIRECTION('',(0,-1,0));
#1269=AXIS2_PLACEMENT_3D('',#1266,#1267,#1268);
#1270=PLANE('',#1269);
#1271=ORIENTED_EDGE('',*,*,#556,.T.);
#1272=ORIENTED_EDGE('',*,*,#561,.T.);
#1273=ORIENTED_EDGE('',*,*,#566,.F.);
#1274=ORIENTED_EDGE('',*,*,#546,.F.);
#1275=EDGE_LOOP('',(#1271,#1272,#1273,#1274));
#1276=FACE_OUTER_BOUND('',#1275,.T.);
#1277=ADVANCED_FACE('',(#1276),#1270,.T.);
#1278=CARTESIAN_POINT('',(0.03788744368966891,0.075,-0.03109342147482644));
#1279=DIRECTION('',(-0.773010453362737,0,0.6343932841636455));
#1280=DIRECTION('',(0,-1,0));
#1281=AXIS2_PLACEMENT_3D('',#1278,#1279,#1280);
#1282=PLANE('',#1281);
#1283=ORIENTED_EDGE('',*,*,#571,.T.);
#1284=ORIENTED_EDGE('',*,*,#576,.T.);
#1285=ORIENTED_EDGE('',*,*,#581,.F.);
#1286=ORIENTED_EDGE('',*,*,#561,.F.);
#1287=EDGE_LOOP('',(#1283,#1284,#1285,#1286));
#1288=FACE_OUTER_BOUND('',#1287,.T.);
#1289=ADVANCED_FACE('',(#1288),#1282,.T.);
#1290=CARTESIAN_POINT('',(0.043225472691040615,0.075,-0.023104496510098056));
#1291=DIRECTION('',(-0.8819212643483547,0,0.4713967368259982));
#1292=DIRECTION('',(0,-1,0));
#1293=AXIS2_PLACEMENT_3D('',#1290,#1291,#1292);
#1294=PLANE('',#1293);
#1295=ORIENTED_EDGE('',*,*,#586,.T.);
#1296=ORIENTED_EDGE('',*,*,#591,.T.);
#1297=ORIENTED_EDGE('',*,*,#596,.F.);
#1298=ORIENTED_EDGE('',*,*,#576,.F.);
#1299=EDGE_LOOP('',(#1295,#1296,#1297,#1298));
#1300=FACE_OUTER_BOUND('',#1299,.T.);
#1301=ADVANCED_FACE('',(#1300),#1294,.T.);
#1302=CARTESIAN_POINT('',(0.04690237101801998,0.075,-0.014227678701637521));
#1303=DIRECTION('',(-0.9569403357322088,0,0.2902846772544623));
#1304=DIRECTION('',(0,-1,0));
#1305=AXIS2_PLACEMENT_3D('',#1302,#1303,#1304);
#1306=PLANE('',#1305);
#1307=ORIENTED_EDGE('',*,*,#601,.T.);
#1308=ORIENTED_EDGE('',*,*,#606,.T.);
#1309=ORIENTED_EDGE('',*,*,#611,.F.);
#1310=ORIENTED_EDGE('',*,*,#591,.F.);
#1311=EDGE_LOOP('',(#1307,#1308,#1309,#1310));
#1312=FACE_OUTER_BOUND('',#1311,.T.);
#1313=ADVANCED_FACE('',(#1312),#1306,.T.);
#1314=CARTESIAN_POINT('',(0.04877683752992955,0.075,-0.00480409917964717));
#1315=DIRECTION('',(-0.9951847266721969,0,0.09801714032956116));
#1316=DIRECTION('',(0,-1,0));
#1317=AXIS2_PLACEMENT_3D('',#1314,#1315,#1316);
#1318=PLANE('',#1317);
#1319=ORIENTED_EDGE('',*,*,#616,.T.);
#1320=ORIENTED_EDGE('',*,*,#161,.T.);
#1321=ORIENTED_EDGE('',*,*,#621,.F.);
#1322=ORIENTED_EDGE('',*,*,#606,.F.);
#1323=EDGE_LOOP('',(#1319,#1320,#1321,#1322));
#1324=FACE_OUTER_BOUND('',#1323,.T.);
#1325=ADVANCED_FACE('',(#1324),#1318,.T.);
#1326=CARTESIAN_POINT('',(0.0325178916866197,0,0.003202732786431439));
#1327=DIRECTION('',(0,-1,0));
#1328=DIRECTION('',(1,0,0));
#1329=AXIS2_PLACEMENT_3D('',#1326,#1327,#1328);
#1330=PLANE('',#1329);
#1331=ORIENTED_EDGE('',*,*,#626,.T.);
#1332=ORIENTED_EDGE('',*,*,#146,.T.);
#1333=ORIENTED_EDGE('',*,*,#631,.F.);
#1334=EDGE_LOOP('',(#1331,#1332,#1333));
#1335=FACE_OUTER_BOUND('',#1334,.T.);
#1336=ADVANCED_FACE('',(#1335),#1330,.T.);
#1337=CARTESIAN_POINT('',(0.03126824734534666,0,0.009485119134424997));
#1338=DIRECTION('',(0,-1,0));
#1339=DIRECTION('',(1,0,0));
#1340=AXIS2_PLACEMENT_3D('',#1337,#1338,#1339);
#1341=PLANE('',#1340);
#1342=ORIENTED_EDGE('',*,*,#631,.T.);
#1343=ORIENTED_EDGE('',*,*,#166,.T.);
#1344=ORIENTED_EDGE('',*,*,#636,.F.);
#1345=EDGE_LOOP('',(#1342,#1343,#1344));
#1346=FACE_OUTER_BOUND('',#1345,.T.);
#1347=ADVANCED_FACE('',(#1346),#1341,.T.);
#1348=CARTESIAN_POINT('',(0.028816981794027075,0,0.015402997673398694));
#1349=DIRECTION('',(0,-1,0));
#1350=DIRECTION('',(1,0,0));
#1351=AXIS2_PLACEMENT_3D('',#1348,#1349,#1350);
#1352=PLANE('',#1351);
#1353=ORIENTED_EDGE('',*,*,#636,.T.);
#1354=ORIENTED_EDGE('',*,*,#181,.T.);
#1355=ORIENTED_EDGE('',*,*,#641,.F.);
#1356=EDGE_LOOP('',(#1353,#1354,#1355));
#1357=FACE_OUTER_BOUND('',#1356,.T.);
#1358=ADVANCED_FACE('',(#1357),#1352,.T.);
#1359=CARTESIAN_POINT('',(0.025258295793112607,0,0.020728947649884293));
#1360=DIRECTION('',(0,-1,0));
#1361=DIRECTION('',(1,0,0));
#1362=AXIS2_PLACEMENT_3D('',#1359,#1360,#1361);
#1363=PLANE('',#1362);
#1364=ORIENTED_EDGE('',*,*,#641,.T.);
#1365=ORIENTED_EDGE('',*,*,#196,.T.);
#1366=ORIENTED_EDGE('',*,*,#646,.F.);
#1367=EDGE_LOOP('',(#1364,#1365,#1366));
#1368=FACE_OUTER_BOUND('',#1367,.T.);
#1369=ADVANCED_FACE('',(#1368),#1363,.T.);
#1370=CARTESIAN_POINT('',(0.020728947649884293,0,0.025258295793112607));
#1371=DIRECTION('',(0,-1,0));
#1372=DIRECTION('',(1,0,0));
#1373=AXIS2_PLACEMENT_3D('',#1370,#1371,#1372);
#1374=PLANE('',#1373);
#1375=ORIENTED_EDGE('',*,*,#646,.T.);
#1376=ORIENTED_EDGE('',*,*,#211,.T.);
#1377=ORIENTED_EDGE('',*,*,#651,.F.);
#1378=EDGE_LOOP('',(#1375,#1376,#1377));
#1379=FACE_OUTER_BOUND('',#1378,.T.);
#1380=ADVANCED_FACE('',(#1379),#1374,.T.);
#1381=CARTESIAN_POINT('',(0.015402997673398694,0,0.028816981794027075));
#1382=DIRECTION('',(0,-1,0));
#1383=DIRECTION('',(1,0,0));
#1384=AXIS2_PLACEMENT_3D('',#1381,#1382,#1383);
#1385=PLANE('',#1384);
#1386=ORIENTED_EDGE('',*,*,#651,.T.);
#1387=ORIENTED_EDGE('',*,*,#226,.T.);
#1388=ORIENTED_EDGE('',*,*,#656,.F.);
#1389=EDGE_LOOP('',(#1386,#1387,#1388));
#1390=FACE_OUTER_BOUND('',#1389,.T.);
#1391=ADVANCED_FACE('',(#1390),#1385,.T.);
#1392=CARTESIAN_POINT('',(0.009485119134424999,0,0.03126824734534666));
#1393=DIRECTION('',(0,-1,0));
#1394=DIRECTION('',(1,0,0));
#1395=AXIS2_PLACEMENT_3D('',#1392,#1393,#1394);
#1396=PLANE('',#1395);
#1397=ORIENTED_EDGE('',*,*,#656,.T.);
#1398=ORIENTED_EDGE('',*,*,#241,.T.);
#1399=ORIENTED_EDGE('',*,*,#661,.F.);
#1400=EDGE_LOOP('',(#1397,#1398,#1399));
#1401=FACE_OUTER_BOUND('',#1400,.T.);
#1402=ADVANCED_FACE('',(#1401),#1396,.T.);
#1403=CARTESIAN_POINT('',(0.003202732786431441,0,0.0325178916866197));
#1404=DIRECTION('',(0,-1,0));
#1405=DIRECTION('',(1,0,0));
#1406=AXIS2_PLACEMENT_3D('',#1403,#1404,#1405);
#1407=PLANE('',#1406);
#1408=ORIENTED_EDGE('',*,*,#661,.T.);
#1409=ORIENTED_EDGE('',*,*,#256,.T.);
#1410=ORIENTED_EDGE('',*,*,#666,.F.);
#1411=EDGE_LOOP('',(#1408,#1409,#1410));
#1412=FACE_OUTER_BOUND('',#1411,.T.);
#1413=ADVANCED_FACE('',(#1412),#1407,.T.);
#1414=CARTESIAN_POINT('',(-0.0032027327864314367,0,0.0325178916866197));
#1415=DIRECTION('',(0,-1,0));
#1416=DIRECTION('',(1,0,0));
#1417=AXIS2_PLACEMENT_3D('',#1414,#1415,#1416);
#1418=PLANE('',#1417);
#1419=ORIENTED_EDGE('',*,*,#666,.T.);
#1420=ORIENTED_EDGE('',*,*,#271,.T.);
#1421=ORIENTED_EDGE('',*,*,#671,.F.);
#1422=EDGE_LOOP('',(#1419,#1420,#1421));
#1423=FACE_OUTER_BOUND('',#1422,.T.);
#1424=ADVANCED_FACE('',(#1423),#1418,.T.);
#1425=CARTESIAN_POINT('',(-0.009485119134424994,0,0.03126824734534666));
#1426=DIRECTION('',(0,-1,0));
#1427=DIRECTION('',(1,0,0));
#1428=AXIS2_PLACEMENT_3D('',#1425,#1426,#1427);
#1429=PLANE('',#1428);
#1430=ORIENTED_EDGE('',*,*,#671,.T.);
#1431=ORIENTED_EDGE('',*,*,#286,.T.);
#1432=ORIENTED_EDGE('',*,*,#676,.F.);
#1433=EDGE_LOOP('',(#1430,#1431,#1432));
#1434=FACE_OUTER_BOUND('',#1433,.T.);
#1435=ADVANCED_FACE('',(#1434),#1429,.T.);
#1436=CARTESIAN_POINT('',(-0.01540299767339869,0,0.028816981794027075));
#1437=DIRECTION('',(0,-1,0));
#1438=DIRECTION('',(1,0,0));
#1439=AXIS2_PLACEMENT_3D('',#1436,#1437,#1438);
#1440=PLANE('',#1439);
#1441=ORIENTED_EDGE('',*,*,#676,.T.);
#1442=ORIENTED_EDGE('',*,*,#301,.T.);
#1443=ORIENTED_EDGE('',*,*,#681,.F.);
#1444=EDGE_LOOP('',(#1441,#1442,#1443));
#1445=FACE_OUTER_BOUND('',#1444,.T.);
#1446=ADVANCED_FACE('',(#1445),#1440,.T.);
#1447=CARTESIAN_POINT('',(-0.020728947649884286,0,0.025258295793112607));
#1448=DIRECTION('',(0,-1,0));
#1449=DIRECTION('',(1,0,0));
#1450=AXIS2_PLACEMENT_3D('',#1447,#1448,#1449);
#1451=PLANE('',#1450);
#1452=ORIENTED_EDGE('',*,*,#681,.T.);
#1453=ORIENTED_EDGE('',*,*,#316,.T.);
#1454=ORIENTED_EDGE('',*,*,#686,.F.);
#1455=EDGE_LOOP('',(#1452,#1453,#1454));
#1456=FACE_OUTER_BOUND('',#1455,.T.);
#1457=ADVANCED_FACE('',(#1456),#1451,.T.);
#1458=CARTESIAN_POINT('',(-0.025258295793112607,0,0.020728947649884293));
#1459=DIRECTION('',(0,-1,0));
#1460=DIRECTION('',(1,0,0));
#1461=AXIS2_PLACEMENT_3D('',#1458,#1459,#1460);
#1462=PLANE('',#1461);
#1463=ORIENTED_EDGE('',*,*,#686,.T.);
#1464=ORIENTED_EDGE('',*,*,#331,.T.);
#1465=ORIENTED_EDGE('',*,*,#691,.F.);
#1466=EDGE_LOOP('',(#1463,#1464,#1465));
#1467=FACE_OUTER_BOUND('',#1466,.T.);
#1468=ADVANCED_FACE('',(#1467),#1462,.T.);
#1469=CARTESIAN_POINT('',(-0.028816981794027075,0,0.015402997673398694));
#1470=DIRECTION('',(0,-1,0));
#1471=DIRECTION('',(1,0,0));
#1472=AXIS2_PLACEMENT_3D('',#1469,#1470,#1471);
#1473=PLANE('',#1472);
#1474=ORIENTED_EDGE('',*,*,#691,.T.);
#1475=ORIENTED_EDGE('',*,*,#346,.T.);
#1476=ORIENTED_EDGE('',*,*,#696,.F.);
#1477=EDGE_LOOP('',(#1474,#1475,#1476));
#1478=FACE_OUTER_BOUND('',#1477,.T.);
#1479=ADVANCED_FACE('',(#1478),#1473,.T.);
#1480=CARTESIAN_POINT('',(-0.03126824734534666,0,0.009485119134425004));
#1481=DIRECTION('',(0,-1,0));
#1482=DIRECTION('',(1,0,0));
#1483=AXIS2_PLACEMENT_3D('',#1480,#1481,#1482);
#1484=PLANE('',#1483);
#1485=ORIENTED_EDGE('',*,*,#696,.T.);
#1486=ORIENTED_EDGE('',*,*,#361,.T.);
#1487=ORIENTED_EDGE('',*,*,#701,.F.);
#1488=EDGE_LOOP('',(#1485,#1486,#1487));
#1489=FACE_OUTER_BOUND('',#1488,.T.);
#1490=ADVANCED_FACE('',(#1489),#1484,.T.);
#1491=CARTESIAN_POINT('',(-0.0325178916866197,0,0.0032027327864314462));
#1492=DIRECTION('',(0,-1,0));
#1493=DIRECTION('',(1,0,0));
#1494=AXIS2_PLACEMENT_3D('',#1491,#1492,#1493);
#1495=PLANE('',#1494);
#1496=ORIENTED_EDGE('',*,*,#701,.T.);
#1497=ORIENTED_EDGE('',*,*,#376,.T.);
#1498=ORIENTED_EDGE('',*,*,#706,.F.);
#1499=EDGE_LOOP('',(#1496,#1497,#1498));
#1500=FACE_OUTER_BOUND('',#1499,.T.);
#1501=ADVANCED_FACE('',(#1500),#1495,.T.);
#1502=CARTESIAN_POINT('',(-0.0325178916866197,0,-0.003202732786431439));
#1503=DIRECTION('',(0,-1,0));
#1504=DIRECTION('',(1,0,0));
#1505=AXIS2_PLACEMENT_3D('',#1502,#1503,#1504);
#1506=PLANE('',#1505);
#1507=ORIENTED_EDGE('',*,*,#706,.T.);
#1508=ORIENTED_EDGE('',*,*,#391,.T.);
#1509=ORIENTED_EDGE('',*,*,#711,.F.);
#1510=EDGE_LOOP('',(#1507,#1508,#1509));
#1511=FACE_OUTER_BOUND('',#1510,.T.);
#1512=ADVANCED_FACE('',(#1511),#1506,.T.);
#1513=CARTESIAN_POINT('',(-0.03126824734534666,0,-0.009485119134424997));
#1514=DIRECTION('',(0,-1,0));
#1515=DIRECTION('',(1,0,0));
#1516=AXIS2_PLACEMENT_3D('',#1513,#1514,#1515);
#1517=PLANE('',#1516);
#1518=ORIENTED_EDGE('',*,*,#711,.T.);
#1519=ORIENTED_EDGE('',*,*,#406,.T.);
#1520=ORIENTED_EDGE('',*,*,#716,.F.);
#1521=EDGE_LOOP('',(#1518,#1519,#1520));
#1522=FACE_OUTER_BOUND('',#1521,.T.);
#1523=ADVANCED_FACE('',(#1522),#1517,.T.);
#1524=CARTESIAN_POINT('',(-0.028816981794027082,0,-0.01540299767339869));
#1525=DIRECTION('',(0,-1,0));
#1526=DIRECTION('',(1,0,0));
#1527=AXIS2_PLACEMENT_3D('',#1524,#1525,#1526);
#1528=PLANE('',#1527);
#1529=ORIENTED_EDGE('',*,*,#716,.T.);
#1530=ORIENTED_EDGE('',*,*,#421,.T.);
#1531=ORIENTED_EDGE('',*,*,#721,.F.);
#1532=EDGE_LOOP('',(#1529,#1530,#1531));
#1533=FACE_OUTER_BOUND('',#1532,.T.);
#1534=ADVANCED_FACE('',(#1533),#1528,.T.);
#1535=CARTESIAN_POINT('',(-0.025258295793112614,0,-0.020728947649884286));
#1536=DIRECTION('',(0,-1,0));
#1537=DIRECTION('',(1,0,0));
#1538=AXIS2_PLACEMENT_3D('',#1535,#1536,#1537);
#1539=PLANE('',#1538);
#1540=ORIENTED_EDGE('',*,*,#721,.T.);
#1541=ORIENTED_EDGE('',*,*,#436,.T.);
#1542=ORIENTED_EDGE('',*,*,#726,.F.);
#1543=EDGE_LOOP('',(#1540,#1541,#1542));
#1544=FACE_OUTER_BOUND('',#1543,.T.);
#1545=ADVANCED_FACE('',(#1544),#1539,.T.);
#1546=CARTESIAN_POINT('',(-0.020728947649884293,0,-0.025258295793112607));
#1547=DIRECTION('',(0,-1,0));
#1548=DIRECTION('',(1,0,0));
#1549=AXIS2_PLACEMENT_3D('',#1546,#1547,#1548);
#1550=PLANE('',#1549);
#1551=ORIENTED_EDGE('',*,*,#726,.T.);
#1552=ORIENTED_EDGE('',*,*,#451,.T.);
#1553=ORIENTED_EDGE('',*,*,#731,.F.);
#1554=EDGE_LOOP('',(#1551,#1552,#1553));
#1555=FACE_OUTER_BOUND('',#1554,.T.);
#1556=ADVANCED_FACE('',(#1555),#1550,.T.);
#1557=CARTESIAN_POINT('',(-0.015402997673398705,0,-0.028816981794027075));
#1558=DIRECTION('',(0,-1,0));
#1559=DIRECTION('',(1,0,0));
#1560=AXIS2_PLACEMENT_3D('',#1557,#1558,#1559);
#1561=PLANE('',#1560);
#1562=ORIENTED_EDGE('',*,*,#731,.T.);
#1563=ORIENTED_EDGE('',*,*,#466,.T.);
#1564=ORIENTED_EDGE('',*,*,#736,.F.);
#1565=EDGE_LOOP('',(#1562,#1563,#1564));
#1566=FACE_OUTER_BOUND('',#1565,.T.);
#1567=ADVANCED_FACE('',(#1566),#1561,.T.);
#1568=CARTESIAN_POINT('',(-0.009485119134425013,0,-0.03126824734534665));
#1569=DIRECTION('',(0,-1,0));
#1570=DIRECTION('',(1,0,0));
#1571=AXIS2_PLACEMENT_3D('',#1568,#1569,#1570);
#1572=PLANE('',#1571);
#1573=ORIENTED_EDGE('',*,*,#736,.T.);
#1574=ORIENTED_EDGE('',*,*,#481,.T.);
#1575=ORIENTED_EDGE('',*,*,#741,.F.);
#1576=EDGE_LOOP('',(#1573,#1574,#1575));
#1577=FACE_OUTER_BOUND('',#1576,.T.);
#1578=ADVANCED_FACE('',(#1577),#1572,.T.);
#1579=CARTESIAN_POINT('',(-0.003202732786431449,0,-0.0325178916866197));
#1580=DIRECTION('',(0,-1,0));
#1581=DIRECTION('',(1,0,0));
#1582=AXIS2_PLACEMENT_3D('',#1579,#1580,#1581);
#1583=PLANE('',#1582);
#1584=ORIENTED_EDGE('',*,*,#741,.T.);
#1585=ORIENTED_EDGE('',*,*,#496,.T.);
#1586=ORIENTED_EDGE('',*,*,#746,.F.);
#1587=EDGE_LOOP('',(#1584,#1585,#1586));
#1588=FACE_OUTER_BOUND('',#1587,.T.);
#1589=ADVANCED_FACE('',(#1588),#1583,.T.);
#1590=CARTESIAN_POINT('',(0.003202732786431437,0,-0.0325178916866197));
#1591=DIRECTION('',(0,-1,0));
#1592=DIRECTION('',(1,0,0));
#1593=AXIS2_PLACEMENT_3D('',#1590,#1591,#1592);
#1594=PLANE('',#1593);
#1595=ORIENTED_EDGE('',*,*,#746,.T.);
#1596=ORIENTED_EDGE('',*,*,#511,.T.);
#1597=ORIENTED_EDGE('',*,*,#751,.F.);
#1598=EDGE_LOOP('',(#1595,#1596,#1597));
#1599=FACE_OUTER_BOUND('',#1598,.T.);
#1600=ADVANCED_FACE('',(#1599),#1594,.T.);
#1601=CARTESIAN_POINT('',(0.009485119134425,0,-0.03126824734534666));
#1602=DIRECTION('',(0,-1,0));
#1603=DIRECTION('',(1,0,0));
#1604=AXIS2_PLACEMENT_3D('',#1601,#1602,#1603);
#1605=PLANE('',#1604);
#1606=ORIENTED_EDGE('',*,*,#751,.T.);
#1607=ORIENTED_EDGE('',*,*,#526,.T.);
#1608=ORIENTED_EDGE('',*,*,#756,.F.);
#1609=EDGE_LOOP('',(#1606,#1607,#1608));
#1610=FACE_OUTER_BOUND('',#1609,.T.);
#1611=ADVANCED_FACE('',(#1610),#1605,.T.);
#1612=CARTESIAN_POINT('',(0.01540299767339869,0,-0.028816981794027075));
#1613=DIRECTION('',(0,-1,0));
#1614=DIRECTION('',(1,0,0));
#1615=AXIS2_PLACEMENT_3D('',#1612,#1613,#1614);
#1616=PLANE('',#1615);
#1617=ORIENTED_EDGE('',*,*,#756,.T.);
#1618=ORIENTED_EDGE('',*,*,#541,.T.);
#1619=ORIENTED_EDGE('',*,*,#761,.F.);
#1620=EDGE_LOOP('',(#1617,#1618,#1619));
#1621=FACE_OUTER_BOUND('',#1620,.T.);
#1622=ADVANCED_FACE('',(#1621),#1616,.T.);
#1623=CARTESIAN_POINT('',(0.020728947649884283,0,-0.025258295793112614));
#1624=DIRECTION('',(0,-1,0));
#1625=DIRECTION('',(1,0,0));
#1626=AXIS2_PLACEMENT_3D('',#1623,#1624,#1625);
#1627=PLANE('',#1626);
#1628=ORIENTED_EDGE('',*,*,#761,.T.);
#1629=ORIENTED_EDGE('',*,*,#556,.T.);
#1630=ORIENTED_EDGE('',*,*,#766,.F.);
#1631=EDGE_LOOP('',(#1628,#1629,#1630));
#1632=FACE_OUTER_BOUND('',#1631,.T.);
#1633=ADVANCED_FACE('',(#1632),#1627,.T.);
#1634=CARTESIAN_POINT('',(0.025258295793112607,0,-0.020728947649884293));
#1635=DIRECTION('',(0,-1,0));
#1636=DIRECTION('',(1,0,0));
#1637=AXIS2_PLACEMENT_3D('',#1634,#1635,#1636);
#1638=PLANE('',#1637);
#1639=ORIENTED_EDGE('',*,*,#766,.T.);
#1640=ORIENTED_EDGE('',*,*,#571,.T.);
#1641=ORIENTED_EDGE('',*,*,#771,.F.);
#1642=EDGE_LOOP('',(#1639,#1640,#1641));
#1643=FACE_OUTER_BOUND('',#1642,.T.);
#1644=ADVANCED_FACE('',(#1643),#1638,.T.);
#1645=CARTESIAN_POINT('',(0.028816981794027075,0,-0.015402997673398705));
#1646=DIRECTION('',(0,-1,0));
#1647=DIRECTION('',(1,0,0));
#1648=AXIS2_PLACEMENT_3D('',#1645,#1646,#1647);
#1649=PLANE('',#1648);
#1650=ORIENTED_EDGE('',*,*,#771,.T.);
#1651=ORIENTED_EDGE('',*,*,#586,.T.);
#1652=ORIENTED_EDGE('',*,*,#776,.F.);
#1653=EDGE_LOOP('',(#1650,#1651,#1652));
#1654=FACE_OUTER_BOUND('',#1653,.T.);
#1655=ADVANCED_FACE('',(#1654),#1649,.T.);
#1656=CARTESIAN_POINT('',(0.03126824734534665,0,-0.009485119134425015));
#1657=DIRECTION('',(0,-1,0));
#1658=DIRECTION('',(1,0,0));
#1659=AXIS2_PLACEMENT_3D('',#1656,#1657,#1658);
#1660=PLANE('',#1659);
#1661=ORIENTED_EDGE('',*,*,#776,.T.);
#1662=ORIENTED_EDGE('',*,*,#601,.T.);
#1663=ORIENTED_EDGE('',*,*,#781,.F.);
#1664=EDGE_LOOP('',(#1661,#1662,#1663));
#1665=FACE_OUTER_BOUND('',#1664,.T.);
#1666=ADVANCED_FACE('',(#1665),#1660,.T.);
#1667=CARTESIAN_POINT('',(0.0325178916866197,0,-0.0032027327864314462));
#1668=DIRECTION('',(0,-1,0));
#1669=DIRECTION('',(1,0,0));
#1670=AXIS2_PLACEMENT_3D('',#1667,#1668,#1669);
#1671=PLANE('',#1670);
#1672=ORIENTED_EDGE('',*,*,#781,.T.);
#1673=ORIENTED_EDGE('',*,*,#616,.T.);
#1674=ORIENTED_EDGE('',*,*,#626,.F.);
#1675=EDGE_LOOP('',(#1672,#1673,#1674));
#1676=FACE_OUTER_BOUND('',#1675,.T.);
#1677=ADVANCED_FACE('',(#1676),#1671,.T.);
#1678=CARTESIAN_POINT('',(0.0325178916866197,0.15,0.003202732786431439));
#1679=DIRECTION('',(0,-1,0));
#1680=DIRECTION('',(1,0,0));
#1681=AXIS2_PLACEMENT_3D('',#1678,#1679,#1680);
#1682=PLANE('',#1681);
#1683=ORIENTED_EDGE('',*,*,#786,.T.);
#1684=ORIENTED_EDGE('',*,*,#156,.T.);
#1685=ORIENTED_EDGE('',*,*,#791,.F.);
#1686=EDGE_LOOP('',(#1683,#1684,#1685));
#1687=FACE_OUTER_BOUND('',#1686,.T.);
#1688=ADVANCED_FACE('',(#1687),#1682,.T.);
#1689=CARTESIAN_POINT('',(0.03126824734534666,0.15,0.009485119134424997));
#1690=DIRECTION('',(0,-1,0));
#1691=DIRECTION('',(1,0,0));
#1692=AXIS2_PLACEMENT_3D('',#1689,#1690,#1691);
#1693=PLANE('',#1692);
#1694=ORIENTED_EDGE('',*,*,#791,.T.);
#1695=ORIENTED_EDGE('',*,*,#176,.T.);
#1696=ORIENTED_EDGE('',*,*,#796,.F.);
#1697=EDGE_LOOP('',(#1694,#1695,#1696));
#1698=FACE_OUTER_BOUND('',#1697,.T.);
#1699=ADVANCED_FACE('',(#1698),#1693,.T.);
#1700=CARTESIAN_POINT('',(0.028816981794027075,0.15,0.015402997673398694));
#1701=DIRECTION('',(0,-1,0));
#1702=DIRECTION('',(1,0,0));
#1703=AXIS2_PLACEMENT_3D('',#1700,#1701,#1702);
#1704=PLANE('',#1703);
#1705=ORIENTED_EDGE('',*,*,#796,.T.);
#1706=ORIENTED_EDGE('',*,*,#191,.T.);
#1707=ORIENTED_EDGE('',*,*,#801,.F.);
#1708=EDGE_LOOP('',(#1705,#1706,#1707));
#1709=FACE_OUTER_BOUND('',#1708,.T.);
#1710=ADVANCED_FACE('',(#1709),#1704,.T.);
#1711=CARTESIAN_POINT('',(0.025258295793112607,0.15,0.020728947649884293));
#1712=DIRECTION('',(0,-1,0));
#1713=DIRECTION('',(1,0,0));
#1714=AXIS2_PLACEMENT_3D('',#1711,#1712,#1713);
#1715=PLANE('',#1714);
#1716=ORIENTED_EDGE('',*,*,#801,.T.);
#1717=ORIENTED_EDGE('',*,*,#206,.T.);
#1718=ORIENTED_EDGE('',*,*,#806,.F.);
#1719=EDGE_LOOP('',(#1716,#1717,#1718));
#1720=FACE_OUTER_BOUND('',#1719,.T.);
#1721=ADVANCED_FACE('',(#1720),#1715,.T.);
#1722=CARTESIAN_POINT('',(0.020728947649884293,0.15,0.025258295793112607));
#1723=DIRECTION('',(0,-1,0));
#1724=DIRECTION('',(1,0,0));
#1725=AXIS2_PLACEMENT_3D('',#1722,#1723,#1724);
#1726=PLANE('',#1725);
#1727=ORIENTED_EDGE('',*,*,#806,.T.);
#1728=ORIENTED_EDGE('',*,*,#221,.T.);
#1729=ORIENTED_EDGE('',*,*,#811,.F.);
#1730=EDGE_LOOP('',(#1727,#1728,#1729));
#1731=FACE_OUTER_BOUND('',#1730,.T.);
#1732=ADVANCED_FACE('',(#1731),#1726,.T.);
#1733=CARTESIAN_POINT('',(0.015402997673398694,0.15,0.028816981794027075));
#1734=DIRECTION('',(0,-1,-1.8329561057036466e-15));
#1735=DIRECTION('',(1,0,0));
#1736=AXIS2_PLACEMENT_3D('',#1733,#1734,#1735);
#1737=PLANE('',#1736);
#1738=ORIENTED_EDGE('',*,*,#811,.T.);
#1739=ORIENTED_EDGE('',*,*,#236,.T.);
#1740=ORIENTED_EDGE('',*,*,#816,.F.);
#1741=EDGE_LOOP('',(#1738,#1739,#1740));
#1742=FACE_OUTER_BOUND('',#1741,.T.);
#1743=ADVANCED_FACE('',(#1742),#1737,.T.);
#1744=CARTESIAN_POINT('',(0.009485119134424999,0.15,0.03126824734534666));
#1745=DIRECTION('',(0,-1,0));
#1746=DIRECTION('',(1,0,0));
#1747=AXIS2_PLACEMENT_3D('',#1744,#1745,#1746);
#1748=PLANE('',#1747);
#1749=ORIENTED_EDGE('',*,*,#816,.T.);
#1750=ORIENTED_EDGE('',*,*,#251,.T.);
#1751=ORIENTED_EDGE('',*,*,#821,.F.);
#1752=EDGE_LOOP('',(#1749,#1750,#1751));
#1753=FACE_OUTER_BOUND('',#1752,.T.);
#1754=ADVANCED_FACE('',(#1753),#1748,.T.);
#1755=CARTESIAN_POINT('',(0.003202732786431441,0.15,0.0325178916866197));
#1756=DIRECTION('',(0,-1,7.892178235438903e-17));
#1757=DIRECTION('',(1,0,0));
#1758=AXIS2_PLACEMENT_3D('',#1755,#1756,#1757);
#1759=PLANE('',#1758);
#1760=ORIENTED_EDGE('',*,*,#821,.T.);
#1761=ORIENTED_EDGE('',*,*,#266,.T.);
#1762=ORIENTED_EDGE('',*,*,#826,.F.);
#1763=EDGE_LOOP('',(#1760,#1761,#1762));
#1764=FACE_OUTER_BOUND('',#1763,.T.);
#1765=ADVANCED_FACE('',(#1764),#1759,.T.);
#1766=CARTESIAN_POINT('',(-0.0032027327864314367,0.15,0.0325178916866197));
#1767=DIRECTION('',(0,-1,0));
#1768=DIRECTION('',(1,0,0));
#1769=AXIS2_PLACEMENT_3D('',#1766,#1767,#1768);
#1770=PLANE('',#1769);
#1771=ORIENTED_EDGE('',*,*,#826,.T.);
#1772=ORIENTED_EDGE('',*,*,#281,.T.);
#1773=ORIENTED_EDGE('',*,*,#831,.F.);
#1774=EDGE_LOOP('',(#1771,#1772,#1773));
#1775=FACE_OUTER_BOUND('',#1774,.T.);
#1776=ADVANCED_FACE('',(#1775),#1770,.T.);
#1777=CARTESIAN_POINT('',(-0.009485119134424994,0.15,0.03126824734534666));
#1778=DIRECTION('',(0,-1,0));
#1779=DIRECTION('',(1,0,0));
#1780=AXIS2_PLACEMENT_3D('',#1777,#1778,#1779);
#1781=PLANE('',#1780);
#1782=ORIENTED_EDGE('',*,*,#831,.T.);
#1783=ORIENTED_EDGE('',*,*,#296,.T.);
#1784=ORIENTED_EDGE('',*,*,#836,.F.);
#1785=EDGE_LOOP('',(#1782,#1783,#1784));
#1786=FACE_OUTER_BOUND('',#1785,.T.);
#1787=ADVANCED_FACE('',(#1786),#1781,.T.);
#1788=CARTESIAN_POINT('',(-0.01540299767339869,0.15,0.028816981794027075));
#1789=DIRECTION('',(0,-1,3.665912211407297e-15));
#1790=DIRECTION('',(1,0,0));
#1791=AXIS2_PLACEMENT_3D('',#1788,#1789,#1790);
#1792=PLANE('',#1791);
#1793=ORIENTED_EDGE('',*,*,#836,.T.);
#1794=ORIENTED_EDGE('',*,*,#311,.T.);
#1795=ORIENTED_EDGE('',*,*,#841,.F.);
#1796=EDGE_LOOP('',(#1793,#1794,#1795));
#1797=FACE_OUTER_BOUND('',#1796,.T.);
#1798=ADVANCED_FACE('',(#1797),#1792,.T.);
#1799=CARTESIAN_POINT('',(-0.020728947649884286,0.15,0.025258295793112607));
#1800=DIRECTION('',(0,-1,-3.665912211407287e-15));
#1801=DIRECTION('',(1,0,0));
#1802=AXIS2_PLACEMENT_3D('',#1799,#1800,#1801);
#1803=PLANE('',#1802);
#1804=ORIENTED_EDGE('',*,*,#841,.T.);
#1805=ORIENTED_EDGE('',*,*,#326,.T.);
#1806=ORIENTED_EDGE('',*,*,#846,.F.);
#1807=EDGE_LOOP('',(#1804,#1805,#1806));
#1808=FACE_OUTER_BOUND('',#1807,.T.);
#1809=ADVANCED_FACE('',(#1808),#1803,.T.);
#1810=CARTESIAN_POINT('',(-0.025258295793112607,0.15,0.020728947649884293));
#1811=DIRECTION('',(0,-1,0));
#1812=DIRECTION('',(1,0,0));
#1813=AXIS2_PLACEMENT_3D('',#1810,#1811,#1812);
#1814=PLANE('',#1813);
#1815=ORIENTED_EDGE('',*,*,#846,.T.);
#1816=ORIENTED_EDGE('',*,*,#341,.T.);
#1817=ORIENTED_EDGE('',*,*,#851,.F.);
#1818=EDGE_LOOP('',(#1815,#1816,#1817));
#1819=FACE_OUTER_BOUND('',#1818,.T.);
#1820=ADVANCED_FACE('',(#1819),#1814,.T.);
#1821=CARTESIAN_POINT('',(-0.028816981794027075,0.15,0.015402997673398694));
#1822=DIRECTION('',(0,-1,0));
#1823=DIRECTION('',(1,0,0));
#1824=AXIS2_PLACEMENT_3D('',#1821,#1822,#1823);
#1825=PLANE('',#1824);
#1826=ORIENTED_EDGE('',*,*,#851,.T.);
#1827=ORIENTED_EDGE('',*,*,#356,.T.);
#1828=ORIENTED_EDGE('',*,*,#856,.F.);
#1829=EDGE_LOOP('',(#1826,#1827,#1828));
#1830=FACE_OUTER_BOUND('',#1829,.T.);
#1831=ADVANCED_FACE('',(#1830),#1825,.T.);
#1832=CARTESIAN_POINT('',(-0.03126824734534666,0.15,0.009485119134425004));
#1833=DIRECTION('',(0,-1,0));
#1834=DIRECTION('',(1,0,0));
#1835=AXIS2_PLACEMENT_3D('',#1832,#1833,#1834);
#1836=PLANE('',#1835);
#1837=ORIENTED_EDGE('',*,*,#856,.T.);
#1838=ORIENTED_EDGE('',*,*,#371,.T.);
#1839=ORIENTED_EDGE('',*,*,#861,.F.);
#1840=EDGE_LOOP('',(#1837,#1838,#1839));
#1841=FACE_OUTER_BOUND('',#1840,.T.);
#1842=ADVANCED_FACE('',(#1841),#1836,.T.);
#1843=CARTESIAN_POINT('',(-0.0325178916866197,0.15,0.0032027327864314462));
#1844=DIRECTION('',(0,-1,0));
#1845=DIRECTION('',(1,0,0));
#1846=AXIS2_PLACEMENT_3D('',#1843,#1844,#1845);
#1847=PLANE('',#1846);
#1848=ORIENTED_EDGE('',*,*,#861,.T.);
#1849=ORIENTED_EDGE('',*,*,#386,.T.);
#1850=ORIENTED_EDGE('',*,*,#866,.F.);
#1851=EDGE_LOOP('',(#1848,#1849,#1850));
#1852=FACE_OUTER_BOUND('',#1851,.T.);
#1853=ADVANCED_FACE('',(#1852),#1847,.T.);
#1854=CARTESIAN_POINT('',(-0.0325178916866197,0.15,-0.003202732786431439));
#1855=DIRECTION('',(0,-1,0));
#1856=DIRECTION('',(1,0,0));
#1857=AXIS2_PLACEMENT_3D('',#1854,#1855,#1856);
#1858=PLANE('',#1857);
#1859=ORIENTED_EDGE('',*,*,#866,.T.);
#1860=ORIENTED_EDGE('',*,*,#401,.T.);
#1861=ORIENTED_EDGE('',*,*,#871,.F.);
#1862=EDGE_LOOP('',(#1859,#1860,#1861));
#1863=FACE_OUTER_BOUND('',#1862,.T.);
#1864=ADVANCED_FACE('',(#1863),#1858,.T.);
#1865=CARTESIAN_POINT('',(-0.03126824734534666,0.15,-0.009485119134424997));
#1866=DIRECTION('',(0,-1,0));
#1867=DIRECTION('',(1,0,0));
#1868=AXIS2_PLACEMENT_3D('',#1865,#1866,#1867);
#1869=PLANE('',#1868);
#1870=ORIENTED_EDGE('',*,*,#871,.T.);
#1871=ORIENTED_EDGE('',*,*,#416,.T.);
#1872=ORIENTED_EDGE('',*,*,#876,.F.);
#1873=EDGE_LOOP('',(#1870,#1871,#1872));
#1874=FACE_OUTER_BOUND('',#1873,.T.);
#1875=ADVANCED_FACE('',(#1874),#1869,.T.);
#1876=CARTESIAN_POINT('',(-0.028816981794027082,0.15,-0.01540299767339869));
#1877=DIRECTION('',(0,-1,0));
#1878=DIRECTION('',(1,0,0));
#1879=AXIS2_PLACEMENT_3D('',#1876,#1877,#1878);
#1880=PLANE('',#1879);
#1881=ORIENTED_EDGE('',*,*,#876,.T.);
#1882=ORIENTED_EDGE('',*,*,#431,.T.);
#1883=ORIENTED_EDGE('',*,*,#881,.F.);
#1884=EDGE_LOOP('',(#1881,#1882,#1883));
#1885=FACE_OUTER_BOUND('',#1884,.T.);
#1886=ADVANCED_FACE('',(#1885),#1880,.T.);
#1887=CARTESIAN_POINT('',(-0.025258295793112614,0.15,-0.020728947649884286));
#1888=DIRECTION('',(0,-1,0));
#1889=DIRECTION('',(1,0,0));
#1890=AXIS2_PLACEMENT_3D('',#1887,#1888,#1889);
#1891=PLANE('',#1890);
#1892=ORIENTED_EDGE('',*,*,#881,.T.);
#1893=ORIENTED_EDGE('',*,*,#446,.T.);
#1894=ORIENTED_EDGE('',*,*,#886,.F.);
#1895=EDGE_LOOP('',(#1892,#1893,#1894));
#1896=FACE_OUTER_BOUND('',#1895,.T.);
#1897=ADVANCED_FACE('',(#1896),#1891,.T.);
#1898=CARTESIAN_POINT('',(-0.020728947649884293,0.15,-0.025258295793112607));
#1899=DIRECTION('',(0,-1,0));
#1900=DIRECTION('',(1,0,0));
#1901=AXIS2_PLACEMENT_3D('',#1898,#1899,#1900);
#1902=PLANE('',#1901);
#1903=ORIENTED_EDGE('',*,*,#886,.T.);
#1904=ORIENTED_EDGE('',*,*,#461,.T.);
#1905=ORIENTED_EDGE('',*,*,#891,.F.);
#1906=EDGE_LOOP('',(#1903,#1904,#1905));
#1907=FACE_OUTER_BOUND('',#1906,.T.);
#1908=ADVANCED_FACE('',(#1907),#1902,.T.);
#1909=CARTESIAN_POINT('',(-0.015402997673398705,0.15,-0.028816981794027075));
#1910=DIRECTION('',(0,-1,0));
#1911=DIRECTION('',(1,0,0));
#1912=AXIS2_PLACEMENT_3D('',#1909,#1910,#1911);
#1913=PLANE('',#1912);
#1914=ORIENTED_EDGE('',*,*,#891,.T.);
#1915=ORIENTED_EDGE('',*,*,#476,.T.);
#1916=ORIENTED_EDGE('',*,*,#896,.F.);
#1917=EDGE_LOOP('',(#1914,#1915,#1916));
#1918=FACE_OUTER_BOUND('',#1917,.T.);
#1919=ADVANCED_FACE('',(#1918),#1913,.T.);
#1920=CARTESIAN_POINT('',(-0.009485119134425013,0.15,-0.03126824734534665));
#1921=DIRECTION('',(0,-1,0));
#1922=DIRECTION('',(1,0,0));
#1923=AXIS2_PLACEMENT_3D('',#1920,#1921,#1922);
#1924=PLANE('',#1923);
#1925=ORIENTED_EDGE('',*,*,#896,.T.);
#1926=ORIENTED_EDGE('',*,*,#491,.T.);
#1927=ORIENTED_EDGE('',*,*,#901,.F.);
#1928=EDGE_LOOP('',(#1925,#1926,#1927));
#1929=FACE_OUTER_BOUND('',#1928,.T.);
#1930=ADVANCED_FACE('',(#1929),#1924,.T.);
#1931=CARTESIAN_POINT('',(-0.003202732786431449,0.15,-0.0325178916866197));
#1932=DIRECTION('',(0,-1,-2.367653470631664e-16));
#1933=DIRECTION('',(1,0,0));
#1934=AXIS2_PLACEMENT_3D('',#1931,#1932,#1933);
#1935=PLANE('',#1934);
#1936=ORIENTED_EDGE('',*,*,#901,.T.);
#1937=ORIENTED_EDGE('',*,*,#506,.T.);
#1938=ORIENTED_EDGE('',*,*,#906,.F.);
#1939=EDGE_LOOP('',(#1936,#1937,#1938));
#1940=FACE_OUTER_BOUND('',#1939,.T.);
#1941=ADVANCED_FACE('',(#1940),#1935,.T.);
#1942=CARTESIAN_POINT('',(0.003202732786431437,0.15,-0.0325178916866197));
#1943=DIRECTION('',(0,-1,0));
#1944=DIRECTION('',(1,0,0));
#1945=AXIS2_PLACEMENT_3D('',#1942,#1943,#1944);
#1946=PLANE('',#1945);
#1947=ORIENTED_EDGE('',*,*,#906,.T.);
#1948=ORIENTED_EDGE('',*,*,#521,.T.);
#1949=ORIENTED_EDGE('',*,*,#911,.F.);
#1950=EDGE_LOOP('',(#1947,#1948,#1949));
#1951=FACE_OUTER_BOUND('',#1950,.T.);
#1952=ADVANCED_FACE('',(#1951),#1946,.T.);
#1953=CARTESIAN_POINT('',(0.009485119134425,0.15,-0.03126824734534666));
#1954=DIRECTION('',(0,-1,0));
#1955=DIRECTION('',(1,0,0));
#1956=AXIS2_PLACEMENT_3D('',#1953,#1954,#1955);
#1957=PLANE('',#1956);
#1958=ORIENTED_EDGE('',*,*,#911,.T.);
#1959=ORIENTED_EDGE('',*,*,#536,.T.);
#1960=ORIENTED_EDGE('',*,*,#916,.F.);
#1961=EDGE_LOOP('',(#1958,#1959,#1960));
#1962=FACE_OUTER_BOUND('',#1961,.T.);
#1963=ADVANCED_FACE('',(#1962),#1957,.T.);
#1964=CARTESIAN_POINT('',(0.01540299767339869,0.15,-0.028816981794027075));
#1965=DIRECTION('',(0,-1,0));
#1966=DIRECTION('',(1,0,0));
#1967=AXIS2_PLACEMENT_3D('',#1964,#1965,#1966);
#1968=PLANE('',#1967);
#1969=ORIENTED_EDGE('',*,*,#916,.T.);
#1970=ORIENTED_EDGE('',*,*,#551,.T.);
#1971=ORIENTED_EDGE('',*,*,#921,.F.);
#1972=EDGE_LOOP('',(#1969,#1970,#1971));
#1973=FACE_OUTER_BOUND('',#1972,.T.);
#1974=ADVANCED_FACE('',(#1973),#1968,.T.);
#1975=CARTESIAN_POINT('',(0.020728947649884283,0.15,-0.025258295793112614));
#1976=DIRECTION('',(0,-1,0));
#1977=DIRECTION('',(1,0,0));
#1978=AXIS2_PLACEMENT_3D('',#1975,#1976,#1977);
#1979=PLANE('',#1978);
#1980=ORIENTED_EDGE('',*,*,#921,.T.);
#1981=ORIENTED_EDGE('',*,*,#566,.T.);
#1982=ORIENTED_EDGE('',*,*,#926,.F.);
#1983=EDGE_LOOP('',(#1980,#1981,#1982));
#1984=FACE_OUTER_BOUND('',#1983,.T.);
#1985=ADVANCED_FACE('',(#1984),#1979,.T.);
#1986=CARTESIAN_POINT('',(0.025258295793112607,0.15,-0.020728947649884293));
#1987=DIRECTION('',(0,-1,3.665912211407288e-15));
#1988=DIRECTION('',(1,0,0));
#1989=AXIS2_PLACEMENT_3D('',#1986,#1987,#1988);
#1990=PLANE('',#1989);
#1991=ORIENTED_EDGE('',*,*,#926,.T.);
#1992=ORIENTED_EDGE('',*,*,#581,.T.);
#1993=ORIENTED_EDGE('',*,*,#931,.F.);
#1994=EDGE_LOOP('',(#1991,#1992,#1993));
#1995=FACE_OUTER_BOUND('',#1994,.T.);
#1996=ADVANCED_FACE('',(#1995),#1990,.T.);
#1997=CARTESIAN_POINT('',(0.028816981794027075,0.15,-0.015402997673398705));
#1998=DIRECTION('',(0,-1,0));
#1999=DIRECTION('',(1,0,0));
#2000=AXIS2_PLACEMENT_3D('',#1997,#1998,#1999);
#2001=PLANE('',#2000);
#2002=ORIENTED_EDGE('',*,*,#931,.T.);
#2003=ORIENTED_EDGE('',*,*,#596,.T.);
#2004=ORIENTED_EDGE('',*,*,#936,.F.);
#2005=EDGE_LOOP('',(#2002,#2003,#2004));
#2006=FACE_OUTER_BOUND('',#2005,.T.);
#2007=ADVANCED_FACE('',(#2006),#2001,.T.);
#2008=CARTESIAN_POINT('',(0.03126824734534665,0.15,-0.009485119134425015));
#2009=DIRECTION('',(0,-1,0));
#2010=DIRECTION('',(1,0,0));
#2011=AXIS2_PLACEMENT_3D('',#2008,#2009,#2010);
#2012=PLANE('',#2011);
#2013=ORIENTED_EDGE('',*,*,#936,.T.);
#2014=ORIENTED_EDGE('',*,*,#611,.T.);
#2015=ORIENTED_EDGE('',*,*,#941,.F.);
#2016=EDGE_LOOP('',(#2013,#2014,#2015));
#2017=FACE_OUTER_BOUND('',#2016,.T.);
#2018=ADVANCED_FACE('',(#2017),#2012,.T.);
#2019=CARTESIAN_POINT('',(0.0325178916866197,0.15,-0.0032027327864314462));
#2020=DIRECTION('',(0,-1,0));
#2021=DIRECTION('',(1,0,0));
#2022=AXIS2_PLACEMENT_3D('',#2019,#2020,#2021);
#2023=PLANE('',#2022);
#2024=ORIENTED_EDGE('',*,*,#941,.T.);
#2025=ORIENTED_EDGE('',*,*,#621,.T.);
#2026=ORIENTED_EDGE('',*,*,#786,.F.);
#2027=EDGE_LOOP('',(#2024,#2025,#2026));
#2028=FACE_OUTER_BOUND('',#2027,.T.);
#2029=ADVANCED_FACE('',(#2028),#2023,.T.);
#2030=CLOSED_SHELL('',(#953,#965,#977,#989,#1001,#1013,#1025,#1037,#1049,#1061,#1073,#1085,#1097,#1109,#1121,#1133,#1145,#1157,#1169,#1181,#1193,#1205,#1217,#1229,#1241,#1253,#1265,#1277,#1289,#1301,#1313,#1325,#1336,#1347,#1358,#1369,#1380,#1391,#1402,#1413,#1424,#1435,#1446,#1457,#1468,#1479,#1490,#1501,#1512,#1523,#1534,#1545,#1556,#1567,#1578,#1589,#1600,#1611,#1622,#1633,#1644,#1655,#1666,#1677,#1688,#1699,#1710,#1721,#1732,#1743,#1754,#1765,#1776,#1787,#1798,#1809,#1820,#1831,#1842,#1853,#1864,#1875,#1886,#1897,#1908,#1919,#1930,#1941,#1952,#1963,#1974,#1985,#1996,#2007,#2018,#2029));
#2031=MANIFOLD_SOLID_BREP('',#2030);
#2032=SHAPE_REPRESENTATION('TYV6-BLK-LNR-0006',(#2031),#9);
#2033=SHAPE_DEFINITION_REPRESENTATION(#8,#2032);
ENDSEC;
END-ISO-10303-21;