<?xml version="1.0" encoding="UTF-8"?>
<svg xmlns="http://www.w3.org/2000/svg" viewBox="0 0 420 297" width="420mm" height="297mm" font-family="Helvetica, Arial, sans-serif">
<rect width="420" height="297" fill="#ffffff"/>
<rect x="10" y="10" width="400" height="277" fill="none" stroke="#000" stroke-width="0.6"/>
<rect x="10" y="10" width="400" height="18" fill="#1a1a2e"/>
<text x="14" y="20.5" font-size="4" fill="#ffffff" font-weight="700">TPSL</text>
<text x="210" y="21" text-anchor="middle" font-size="5" fill="#ffffff" font-weight="700">PRIMARY CARBON-GRAPHITE SEAL RING</text>
<rect x="380" y="12" width="28" height="14" fill="#4ed99d"/>
<text x="394" y="20.5" text-anchor="middle" font-size="3.5" fill="#000" font-weight="700">Class 3</text>
<g class="view-front">
        <rect x="14" y="38" width="81" height="92.5" fill="none" stroke="#ccc" stroke-width="0.3"/>
        <text x="17" y="44" font-size="3.5" fill="#444" font-weight="700">FRONT</text>
        <line x1="46.9" y1="85.5" x2="47.0" y2="85.5" stroke="#888" stroke-width="0.4" stroke-dasharray="2,2"/><line x1="46.9" y1="83.0" x2="47.0" y2="83.0" stroke="#888" stroke-width="0.4" stroke-dasharray="2,2"/><line x1="47.0" y1="85.5" x2="47.2" y2="85.5" stroke="#888" stroke-width="0.4" stroke-dasharray="2,2"/><line x1="47.0" y1="83.0" x2="47.2" y2="83.0" stroke="#888" stroke-width="0.4" stroke-dasharray="2,2"/><line x1="47.2" y1="85.5" x2="47.5" y2="85.5" stroke="#888" stroke-width="0.4" stroke-dasharray="2,2"/><line x1="47.2" y1="83.0" x2="47.5" y2="83.0" stroke="#000" stroke-width="0.4" /><line x1="47.5" y1="85.5" x2="47.9" y2="85.5" stroke="#888" stroke-width="0.4" stroke-dasharray="2,2"/><line x1="47.5" y1="83.0" x2="47.9" y2="83.0" stroke="#888" stroke-width="0.4" stroke-dasharray="2,2"/><line x1="47.9" y1="85.5" x2="48.5" y2="85.5" stroke="#888" stroke-width="0.4" stroke-dasharray="2,2"/><line x1="47.9" y1="83.0" x2="48.5" y2="83.0" stroke="#888" stroke-width="0.4" stroke-dasharray="2,2"/><line x1="48.5" y1="85.5" x2="49.1" y2="85.5" stroke="#888" stroke-width="0.4" stroke-dasharray="2,2"/><line x1="48.5" y1="83.0" x2="49.1" y2="83.0" stroke="#888" stroke-width="0.4" stroke-dasharray="2,2"/><line x1="49.1" y1="85.5" x2="49.9" y2="85.5" stroke="#888" stroke-width="0.4" stroke-dasharray="2,2"/><line x1="49.1" y1="83.0" x2="49.9" y2="83.0" stroke="#888" stroke-width="0.4" stroke-dasharray="2,2"/><line x1="49.9" y1="85.5" x2="50.7" y2="85.5" stroke="#888" stroke-width="0.4" stroke-dasharray="2,2"/><line x1="49.9" y1="83.0" x2="50.7" y2="83.0" stroke="#888" stroke-width="0.4" stroke-dasharray="2,2"/><line x1="50.7" y1="85.5" x2="51.6" y2="85.5" stroke="#888" stroke-width="0.4" stroke-dasharray="2,2"/><line x1="50.7" y1="83.0" x2="51.6" y2="83.0" stroke="#888" stroke-width="0.4" stroke-dasharray="2,2"/><line x1="51.6" y1="85.5" x2="52.5" y2="85.5" stroke="#888" stroke-width="0.4" stroke-dasharray="2,2"/><line x1="51.6" y1="83.0" x2="52.5" y2="83.0" stroke="#888" stroke-width="0.4" stroke-dasharray="2,2"/><line x1="52.5" y1="85.5" x2="53.5" y2="85.5" stroke="#888" stroke-width="0.4" stroke-dasharray="2,2"/><line x1="52.5" y1="83.0" x2="53.5" y2="83.0" stroke="#888" stroke-width="0.4" stroke-dasharray="2,2"/><line x1="53.5" y1="85.5" x2="54.5" y2="85.5" stroke="#888" stroke-width="0.4" stroke-dasharray="2,2"/><line x1="53.5" y1="83.0" x2="54.5" y2="83.0" stroke="#888" stroke-width="0.4" stroke-dasharray="2,2"/><line x1="54.5" y1="85.5" x2="55.5" y2="85.5" stroke="#888" stroke-width="0.4" stroke-dasharray="2,2"/><line x1="54.5" y1="83.0" x2="55.5" y2="83.0" stroke="#888" stroke-width="0.4" stroke-dasharray="2,2"/><line x1="55.5" y1="85.5" x2="56.5" y2="85.5" stroke="#888" stroke-width="0.4" stroke-dasharray="2,2"/><line x1="55.5" y1="83.0" x2="56.5" y2="83.0" stroke="#888" stroke-width="0.4" stroke-dasharray="2,2"/><line x1="56.5" y1="85.5" x2="57.4" y2="85.5" stroke="#888" stroke-width="0.4" stroke-dasharray="2,2"/><line x1="56.5" y1="83.0" x2="57.4" y2="83.0" stroke="#000" stroke-width="0.4" /><line x1="57.4" y1="85.5" x2="58.3" y2="85.5" stroke="#888" stroke-width="0.4" stroke-dasharray="2,2"/><line x1="57.4" y1="83.0" x2="58.3" y2="83.0" stroke="#888" stroke-width="0.4" stroke-dasharray="2,2"/><line x1="58.3" y1="85.5" x2="59.1" y2="85.5" stroke="#888" stroke-width="0.4" stroke-dasharray="2,2"/><line x1="58.3" y1="83.0" x2="59.1" y2="83.0" stroke="#888" stroke-width="0.4" stroke-dasharray="2,2"/><line x1="59.1" y1="85.5" x2="59.9" y2="85.5" stroke="#888" stroke-width="0.4" stroke-dasharray="2,2"/><line x1="59.1" y1="83.0" x2="59.9" y2="83.0" stroke="#888" stroke-width="0.4" stroke-dasharray="2,2"/><line x1="59.9" y1="85.5" x2="60.5" y2="85.5" stroke="#888" stroke-width="0.4" stroke-dasharray="2,2"/><line x1="59.9" y1="83.0" x2="60.5" y2="83.0" stroke="#888" stroke-width="0.4" stroke-dasharray="2,2"/><line x1="60.5" y1="85.5" x2="61.1" y2="85.5" stroke="#888" stroke-width="0.4" stroke-dasharray="2,2"/><line x1="60.5" y1="83.0" x2="61.1" y2="83.0" stroke="#888" stroke-width="0.4" stroke-dasharray="2,2"/><line x1="61.1" y1="85.5" x2="61.5" y2="85.5" stroke="#888" stroke-width="0.4" stroke-dasharray="2,2"/><line x1="61.1" y1="83.0" x2="61.5" y2="83.0" stroke="#888" stroke-width="0.4" stroke-dasharray="2,2"/><line x1="61.5" y1="85.5" x2="61.8" y2="85.5" stroke="#888" stroke-width="0.4" stroke-dasharray="2,2"/><line x1="61.5" y1="83.0" x2="61.8" y2="83.0" stroke="#000" stroke-width="0.4" /><line x1="61.8" y1="85.5" x2="62.0" y2="85.5" stroke="#888" stroke-width="0.4" stroke-dasharray="2,2"/><line x1="61.8" y1="83.0" x2="62.0" y2="83.0" stroke="#888" stroke-width="0.4" stroke-dasharray="2,2"/><line x1="62.0" y1="85.5" x2="62.1" y2="85.5" stroke="#888" stroke-width="0.4" stroke-dasharray="2,2"/><line x1="62.0" y1="83.0" x2="62.1" y2="83.0" stroke="#888" stroke-width="0.4" stroke-dasharray="2,2"/><line x1="62.1" y1="85.5" x2="62.0" y2="85.5" stroke="#000" stroke-width="0.4" /><line x1="62.1" y1="83.0" x2="62.0" y2="83.0" stroke="#000" stroke-width="0.4" /><line x1="62.0" y1="85.5" x2="61.8" y2="85.5" stroke="#000" stroke-width="0.4" /><line x1="62.0" y1="83.0" x2="61.8" y2="83.0" stroke="#000" stroke-width="0.4" /><line x1="61.8" y1="85.5" x2="61.5" y2="85.5" stroke="#000" stroke-width="0.4" /><line x1="61.8" y1="83.0" x2="61.5" y2="83.0" stroke="#000" stroke-width="0.4" /><line x1="61.5" y1="85.5" x2="61.1" y2="85.5" stroke="#000" stroke-width="0.4" /><line x1="61.5" y1="83.0" x2="61.1" y2="83.0" stroke="#000" stroke-width="0.4" /><line x1="61.1" y1="85.5" x2="60.5" y2="85.5" stroke="#000" stroke-width="0.4" /><line x1="61.1" y1="83.0" x2="60.5" y2="83.0" stroke="#000" stroke-width="0.4" /><line x1="60.5" y1="85.5" x2="59.9" y2="85.5" stroke="#000" stroke-width="0.4" /><line x1="60.5" y1="83.0" x2="59.9" y2="83.0" stroke="#000" stroke-width="0.4" /><line x1="59.9" y1="85.5" x2="59.1" y2="85.5" stroke="#000" stroke-width="0.4" /><line x1="59.9" y1="83.0" x2="59.1" y2="83.0" stroke="#000" stroke-width="0.4" /><line x1="59.1" y1="85.5" x2="58.3" y2="85.5" stroke="#000" stroke-width="0.4" /><line x1="59.1" y1="83.0" x2="58.3" y2="83.0" stroke="#000" stroke-width="0.4" /><line x1="58.3" y1="85.5" x2="57.4" y2="85.5" stroke="#000" stroke-width="0.4" /><line x1="58.3" y1="83.0" x2="57.4" y2="83.0" stroke="#000" stroke-width="0.4" /><line x1="57.4" y1="85.5" x2="56.5" y2="85.5" stroke="#000" stroke-width="0.4" /><line x1="57.4" y1="83.0" x2="56.5" y2="83.0" stroke="#000" stroke-width="0.4" /><line x1="56.5" y1="85.5" x2="55.5" y2="85.5" stroke="#000" stroke-width="0.4" /><line x1="56.5" y1="83.0" x2="55.5" y2="83.0" stroke="#000" stroke-width="0.4" /><line x1="55.5" y1="85.5" x2="54.5" y2="85.5" stroke="#000" stroke-width="0.4" /><line x1="55.5" y1="83.0" x2="54.5" y2="83.0" stroke="#000" stroke-width="0.4" /><line x1="54.5" y1="85.5" x2="53.5" y2="85.5" stroke="#000" stroke-width="0.4" /><line x1="54.5" y1="83.0" x2="53.5" y2="83.0" stroke="#000" stroke-width="0.4" /><line x1="53.5" y1="85.5" x2="52.5" y2="85.5" stroke="#000" stroke-width="0.4" /><line x1="53.5" y1="83.0" x2="52.5" y2="83.0" stroke="#000" stroke-width="0.4" /><line x1="52.5" y1="85.5" x2="51.6" y2="85.5" stroke="#000" stroke-width="0.4" /><line x1="52.5" y1="83.0" x2="51.6" y2="83.0" stroke="#000" stroke-width="0.4" /><line x1="51.6" y1="85.5" x2="50.7" y2="85.5" stroke="#000" stroke-width="0.4" /><line x1="51.6" y1="83.0" x2="50.7" y2="83.0" stroke="#000" stroke-width="0.4" /><line x1="50.7" y1="85.5" x2="49.9" y2="85.5" stroke="#000" stroke-width="0.4" /><line x1="50.7" y1="83.0" x2="49.9" y2="83.0" stroke="#000" stroke-width="0.4" /><line x1="49.9" y1="85.5" x2="49.1" y2="85.5" stroke="#000" stroke-width="0.4" /><line x1="49.9" y1="83.0" x2="49.1" y2="83.0" stroke="#000" stroke-width="0.4" /><line x1="49.1" y1="85.5" x2="48.5" y2="85.5" stroke="#000" stroke-width="0.4" /><line x1="49.1" y1="83.0" x2="48.5" y2="83.0" stroke="#000" stroke-width="0.4" /><line x1="48.5" y1="85.5" x2="47.9" y2="85.5" stroke="#000" stroke-width="0.4" /><line x1="48.5" y1="83.0" x2="47.9" y2="83.0" stroke="#000" stroke-width="0.4" /><line x1="47.9" y1="85.5" x2="47.5" y2="85.5" stroke="#000" stroke-width="0.4" /><line x1="47.9" y1="83.0" x2="47.5" y2="83.0" stroke="#000" stroke-width="0.4" /><line x1="47.5" y1="85.5" x2="47.2" y2="85.5" stroke="#000" stroke-width="0.4" /><line x1="47.5" y1="83.0" x2="47.2" y2="83.0" stroke="#000" stroke-width="0.4" /><line x1="47.2" y1="85.5" x2="47.0" y2="85.5" stroke="#000" stroke-width="0.4" /><line x1="47.2" y1="83.0" x2="47.0" y2="83.0" stroke="#000" stroke-width="0.4" /><line x1="47.0" y1="85.5" x2="46.9" y2="85.5" stroke="#000" stroke-width="0.4" /><line x1="47.0" y1="83.0" x2="46.9" y2="83.0" stroke="#000" stroke-width="0.4" />
        
      <line x1="46.9" y1="126.5" x2="62.1" y2="126.5" stroke="#000" stroke-width="0.3"/>
      <text x="54.5" y="125.5" text-anchor="middle" font-size="2.5" fill="#000">76.0</text>
      </g>
<g class="view-right">
        <rect x="99" y="38" width="81" height="92.5" fill="none" stroke="#ccc" stroke-width="0.3"/>
        <text x="102" y="44" font-size="3.5" fill="#444" font-weight="700">RIGHT</text>
        <line x1="139.5" y1="85.5" x2="140.5" y2="85.5" stroke="#888" stroke-width="0.4" stroke-dasharray="2,2"/><line x1="139.5" y1="83.0" x2="140.5" y2="83.0" stroke="#888" stroke-width="0.4" stroke-dasharray="2,2"/><line x1="140.5" y1="85.5" x2="141.5" y2="85.5" stroke="#888" stroke-width="0.4" stroke-dasharray="2,2"/><line x1="140.5" y1="83.0" x2="141.5" y2="83.0" stroke="#888" stroke-width="0.4" stroke-dasharray="2,2"/><line x1="141.5" y1="85.5" x2="142.4" y2="85.5" stroke="#888" stroke-width="0.4" stroke-dasharray="2,2"/><line x1="141.5" y1="83.0" x2="142.4" y2="83.0" stroke="#888" stroke-width="0.4" stroke-dasharray="2,2"/><line x1="142.4" y1="85.5" x2="143.3" y2="85.5" stroke="#888" stroke-width="0.4" stroke-dasharray="2,2"/><line x1="142.4" y1="83.0" x2="143.3" y2="83.0" stroke="#888" stroke-width="0.4" stroke-dasharray="2,2"/><line x1="143.3" y1="85.5" x2="144.1" y2="85.5" stroke="#888" stroke-width="0.4" stroke-dasharray="2,2"/><line x1="143.3" y1="83.0" x2="144.1" y2="83.0" stroke="#888" stroke-width="0.4" stroke-dasharray="2,2"/><line x1="144.1" y1="85.5" x2="144.9" y2="85.5" stroke="#888" stroke-width="0.4" stroke-dasharray="2,2"/><line x1="144.1" y1="83.0" x2="144.9" y2="83.0" stroke="#888" stroke-width="0.4" stroke-dasharray="2,2"/><line x1="144.9" y1="85.5" x2="145.5" y2="85.5" stroke="#888" stroke-width="0.4" stroke-dasharray="2,2"/><line x1="144.9" y1="83.0" x2="145.5" y2="83.0" stroke="#888" stroke-width="0.4" stroke-dasharray="2,2"/><line x1="145.5" y1="85.5" x2="146.1" y2="85.5" stroke="#888" stroke-width="0.4" stroke-dasharray="2,2"/><line x1="145.5" y1="83.0" x2="146.1" y2="83.0" stroke="#888" stroke-width="0.4" stroke-dasharray="2,2"/><line x1="146.1" y1="85.5" x2="146.5" y2="85.5" stroke="#888" stroke-width="0.4" stroke-dasharray="2,2"/><line x1="146.1" y1="83.0" x2="146.5" y2="83.0" stroke="#888" stroke-width="0.4" stroke-dasharray="2,2"/><line x1="146.5" y1="85.5" x2="146.8" y2="85.5" stroke="#888" stroke-width="0.4" stroke-dasharray="2,2"/><line x1="146.5" y1="83.0" x2="146.8" y2="83.0" stroke="#888" stroke-width="0.4" stroke-dasharray="2,2"/><line x1="146.8" y1="85.5" x2="147.0" y2="85.5" stroke="#888" stroke-width="0.4" stroke-dasharray="2,2"/><line x1="146.8" y1="83.0" x2="147.0" y2="83.0" stroke="#888" stroke-width="0.4" stroke-dasharray="2,2"/><line x1="147.0" y1="85.5" x2="147.1" y2="85.5" stroke="#888" stroke-width="0.4" stroke-dasharray="2,2"/><line x1="147.0" y1="83.0" x2="147.1" y2="83.0" stroke="#888" stroke-width="0.4" stroke-dasharray="2,2"/><line x1="147.1" y1="85.5" x2="147.0" y2="85.5" stroke="#000" stroke-width="0.4" /><line x1="147.1" y1="83.0" x2="147.0" y2="83.0" stroke="#000" stroke-width="0.4" /><line x1="147.0" y1="85.5" x2="146.8" y2="85.5" stroke="#000" stroke-width="0.4" /><line x1="147.0" y1="83.0" x2="146.8" y2="83.0" stroke="#000" stroke-width="0.4" /><line x1="146.8" y1="85.5" x2="146.5" y2="85.5" stroke="#000" stroke-width="0.4" /><line x1="146.8" y1="83.0" x2="146.5" y2="83.0" stroke="#000" stroke-width="0.4" /><line x1="146.5" y1="85.5" x2="146.1" y2="85.5" stroke="#000" stroke-width="0.4" /><line x1="146.5" y1="83.0" x2="146.1" y2="83.0" stroke="#000" stroke-width="0.4" /><line x1="146.1" y1="85.5" x2="145.5" y2="85.5" stroke="#000" stroke-width="0.4" /><line x1="146.1" y1="83.0" x2="145.5" y2="83.0" stroke="#000" stroke-width="0.4" /><line x1="145.5" y1="85.5" x2="144.9" y2="85.5" stroke="#000" stroke-width="0.4" /><line x1="145.5" y1="83.0" x2="144.9" y2="83.0" stroke="#000" stroke-width="0.4" /><line x1="144.9" y1="85.5" x2="144.1" y2="85.5" stroke="#000" stroke-width="0.4" /><line x1="144.9" y1="83.0" x2="144.1" y2="83.0" stroke="#000" stroke-width="0.4" /><line x1="144.1" y1="85.5" x2="143.3" y2="85.5" stroke="#000" stroke-width="0.4" /><line x1="144.1" y1="83.0" x2="143.3" y2="83.0" stroke="#000" stroke-width="0.4" /><line x1="143.3" y1="85.5" x2="142.4" y2="85.5" stroke="#000" stroke-width="0.4" /><line x1="143.3" y1="83.0" x2="142.4" y2="83.0" stroke="#000" stroke-width="0.4" /><line x1="142.4" y1="85.5" x2="141.5" y2="85.5" stroke="#000" stroke-width="0.4" /><line x1="142.4" y1="83.0" x2="141.5" y2="83.0" stroke="#000" stroke-width="0.4" /><line x1="141.5" y1="85.5" x2="140.5" y2="85.5" stroke="#000" stroke-width="0.4" /><line x1="141.5" y1="83.0" x2="140.5" y2="83.0" stroke="#000" stroke-width="0.4" /><line x1="140.5" y1="85.5" x2="139.5" y2="85.5" stroke="#000" stroke-width="0.4" /><line x1="140.5" y1="83.0" x2="139.5" y2="83.0" stroke="#000" stroke-width="0.4" /><line x1="139.5" y1="85.5" x2="138.5" y2="85.5" stroke="#000" stroke-width="0.4" /><line x1="139.5" y1="83.0" x2="138.5" y2="83.0" stroke="#000" stroke-width="0.4" /><line x1="138.5" y1="85.5" x2="137.5" y2="85.5" stroke="#000" stroke-width="0.4" /><line x1="138.5" y1="83.0" x2="137.5" y2="83.0" stroke="#000" stroke-width="0.4" /><line x1="137.5" y1="85.5" x2="136.6" y2="85.5" stroke="#000" stroke-width="0.4" /><line x1="137.5" y1="83.0" x2="136.6" y2="83.0" stroke="#000" stroke-width="0.4" /><line x1="136.6" y1="85.5" x2="135.7" y2="85.5" stroke="#000" stroke-width="0.4" /><line x1="136.6" y1="83.0" x2="135.7" y2="83.0" stroke="#000" stroke-width="0.4" /><line x1="135.7" y1="85.5" x2="134.9" y2="85.5" stroke="#000" stroke-width="0.4" /><line x1="135.7" y1="83.0" x2="134.9" y2="83.0" stroke="#000" stroke-width="0.4" /><line x1="134.9" y1="85.5" x2="134.1" y2="85.5" stroke="#000" stroke-width="0.4" /><line x1="134.9" y1="83.0" x2="134.1" y2="83.0" stroke="#000" stroke-width="0.4" /><line x1="134.1" y1="85.5" x2="133.5" y2="85.5" stroke="#000" stroke-width="0.4" /><line x1="134.1" y1="83.0" x2="133.5" y2="83.0" stroke="#000" stroke-width="0.4" /><line x1="133.5" y1="85.5" x2="132.9" y2="85.5" stroke="#000" stroke-width="0.4" /><line x1="133.5" y1="83.0" x2="132.9" y2="83.0" stroke="#000" stroke-width="0.4" /><line x1="132.9" y1="85.5" x2="132.5" y2="85.5" stroke="#000" stroke-width="0.4" /><line x1="132.9" y1="83.0" x2="132.5" y2="83.0" stroke="#000" stroke-width="0.4" /><line x1="132.5" y1="85.5" x2="132.2" y2="85.5" stroke="#000" stroke-width="0.4" /><line x1="132.5" y1="83.0" x2="132.2" y2="83.0" stroke="#000" stroke-width="0.4" /><line x1="132.2" y1="85.5" x2="132.0" y2="85.5" stroke="#000" stroke-width="0.4" /><line x1="132.2" y1="83.0" x2="132.0" y2="83.0" stroke="#000" stroke-width="0.4" /><line x1="132.0" y1="85.5" x2="131.9" y2="85.5" stroke="#000" stroke-width="0.4" /><line x1="132.0" y1="83.0" x2="131.9" y2="83.0" stroke="#000" stroke-width="0.4" /><line x1="131.9" y1="85.5" x2="132.0" y2="85.5" stroke="#888" stroke-width="0.4" stroke-dasharray="2,2"/><line x1="131.9" y1="83.0" x2="132.0" y2="83.0" stroke="#888" stroke-width="0.4" stroke-dasharray="2,2"/><line x1="132.0" y1="85.5" x2="132.2" y2="85.5" stroke="#888" stroke-width="0.4" stroke-dasharray="2,2"/><line x1="132.0" y1="83.0" x2="132.2" y2="83.0" stroke="#888" stroke-width="0.4" stroke-dasharray="2,2"/><line x1="132.2" y1="85.5" x2="132.5" y2="85.5" stroke="#888" stroke-width="0.4" stroke-dasharray="2,2"/><line x1="132.2" y1="83.0" x2="132.5" y2="83.0" stroke="#888" stroke-width="0.4" stroke-dasharray="2,2"/><line x1="132.5" y1="85.5" x2="132.9" y2="85.5" stroke="#888" stroke-width="0.4" stroke-dasharray="2,2"/><line x1="132.5" y1="83.0" x2="132.9" y2="83.0" stroke="#888" stroke-width="0.4" stroke-dasharray="2,2"/><line x1="132.9" y1="85.5" x2="133.5" y2="85.5" stroke="#888" stroke-width="0.4" stroke-dasharray="2,2"/><line x1="132.9" y1="83.0" x2="133.5" y2="83.0" stroke="#888" stroke-width="0.4" stroke-dasharray="2,2"/><line x1="133.5" y1="85.5" x2="134.1" y2="85.5" stroke="#888" stroke-width="0.4" stroke-dasharray="2,2"/><line x1="133.5" y1="83.0" x2="134.1" y2="83.0" stroke="#888" stroke-width="0.4" stroke-dasharray="2,2"/><line x1="134.1" y1="85.5" x2="134.9" y2="85.5" stroke="#888" stroke-width="0.4" stroke-dasharray="2,2"/><line x1="134.1" y1="83.0" x2="134.9" y2="83.0" stroke="#888" stroke-width="0.4" stroke-dasharray="2,2"/><line x1="134.9" y1="85.5" x2="135.7" y2="85.5" stroke="#888" stroke-width="0.4" stroke-dasharray="2,2"/><line x1="134.9" y1="83.0" x2="135.7" y2="83.0" stroke="#888" stroke-width="0.4" stroke-dasharray="2,2"/><line x1="135.7" y1="85.5" x2="136.6" y2="85.5" stroke="#888" stroke-width="0.4" stroke-dasharray="2,2"/><line x1="135.7" y1="83.0" x2="136.6" y2="83.0" stroke="#888" stroke-width="0.4" stroke-dasharray="2,2"/><line x1="136.6" y1="85.5" x2="137.5" y2="85.5" stroke="#888" stroke-width="0.4" stroke-dasharray="2,2"/><line x1="136.6" y1="83.0" x2="137.5" y2="83.0" stroke="#888" stroke-width="0.4" stroke-dasharray="2,2"/><line x1="137.5" y1="85.5" x2="138.5" y2="85.5" stroke="#888" stroke-width="0.4" stroke-dasharray="2,2"/><line x1="137.5" y1="83.0" x2="138.5" y2="83.0" stroke="#888" stroke-width="0.4" stroke-dasharray="2,2"/><line x1="138.5" y1="85.5" x2="139.5" y2="85.5" stroke="#888" stroke-width="0.4" stroke-dasharray="2,2"/><line x1="138.5" y1="83.0" x2="139.5" y2="83.0" stroke="#888" stroke-width="0.4" stroke-dasharray="2,2"/>
        
      <line x1="131.9" y1="126.5" x2="147.1" y2="126.5" stroke="#000" stroke-width="0.3"/>
      <text x="139.5" y="125.5" text-anchor="middle" font-size="2.5" fill="#000">76.0</text>
      </g>
<g class="view-top">
        <rect x="14" y="134.5" width="81" height="92.5" fill="none" stroke="#ccc" stroke-width="0.3"/>
        <text x="17" y="140.5" font-size="3.5" fill="#444" font-weight="700">TOP</text>
        <line x1="46.9" y1="180.8" x2="47.0" y2="181.7" stroke="#888" stroke-width="0.4" stroke-dasharray="2,2"/><line x1="46.9" y1="180.8" x2="47.0" y2="181.7" stroke="#888" stroke-width="0.4" stroke-dasharray="2,2"/><line x1="47.0" y1="181.7" x2="47.2" y2="182.7" stroke="#888" stroke-width="0.4" stroke-dasharray="2,2"/><line x1="47.0" y1="181.7" x2="47.2" y2="182.7" stroke="#888" stroke-width="0.4" stroke-dasharray="2,2"/><line x1="47.2" y1="182.7" x2="47.5" y2="183.7" stroke="#888" stroke-width="0.4" stroke-dasharray="2,2"/><line x1="47.2" y1="182.7" x2="47.5" y2="183.7" stroke="#888" stroke-width="0.4" stroke-dasharray="2,2"/><line x1="47.5" y1="183.7" x2="47.9" y2="184.6" stroke="#888" stroke-width="0.4" stroke-dasharray="2,2"/><line x1="47.5" y1="183.7" x2="47.9" y2="184.6" stroke="#888" stroke-width="0.4" stroke-dasharray="2,2"/><line x1="47.9" y1="184.6" x2="48.5" y2="185.4" stroke="#888" stroke-width="0.4" stroke-dasharray="2,2"/><line x1="47.9" y1="184.6" x2="48.5" y2="185.4" stroke="#888" stroke-width="0.4" stroke-dasharray="2,2"/><line x1="48.5" y1="185.4" x2="49.1" y2="186.1" stroke="#888" stroke-width="0.4" stroke-dasharray="2,2"/><line x1="48.5" y1="185.4" x2="49.1" y2="186.1" stroke="#888" stroke-width="0.4" stroke-dasharray="2,2"/><line x1="49.1" y1="186.1" x2="49.9" y2="186.8" stroke="#888" stroke-width="0.4" stroke-dasharray="2,2"/><line x1="49.1" y1="186.1" x2="49.9" y2="186.8" stroke="#888" stroke-width="0.4" stroke-dasharray="2,2"/><line x1="49.9" y1="186.8" x2="50.7" y2="187.3" stroke="#888" stroke-width="0.4" stroke-dasharray="2,2"/><line x1="49.9" y1="186.8" x2="50.7" y2="187.3" stroke="#888" stroke-width="0.4" stroke-dasharray="2,2"/><line x1="50.7" y1="187.3" x2="51.6" y2="187.8" stroke="#888" stroke-width="0.4" stroke-dasharray="2,2"/><line x1="50.7" y1="187.3" x2="51.6" y2="187.8" stroke="#888" stroke-width="0.4" stroke-dasharray="2,2"/><line x1="51.6" y1="187.8" x2="52.5" y2="188.1" stroke="#888" stroke-width="0.4" stroke-dasharray="2,2"/><line x1="51.6" y1="187.8" x2="52.5" y2="188.1" stroke="#888" stroke-width="0.4" stroke-dasharray="2,2"/><line x1="52.5" y1="188.1" x2="53.5" y2="188.3" stroke="#888" stroke-width="0.4" stroke-dasharray="2,2"/><line x1="52.5" y1="188.1" x2="53.5" y2="188.3" stroke="#888" stroke-width="0.4" stroke-dasharray="2,2"/><line x1="53.5" y1="188.3" x2="54.5" y2="188.3" stroke="#888" stroke-width="0.4" stroke-dasharray="2,2"/><line x1="53.5" y1="188.3" x2="54.5" y2="188.3" stroke="#888" stroke-width="0.4" stroke-dasharray="2,2"/><line x1="54.5" y1="188.3" x2="55.5" y2="188.3" stroke="#888" stroke-width="0.4" stroke-dasharray="2,2"/><line x1="54.5" y1="188.3" x2="55.5" y2="188.3" stroke="#888" stroke-width="0.4" stroke-dasharray="2,2"/><line x1="55.5" y1="188.3" x2="56.5" y2="188.1" stroke="#888" stroke-width="0.4" stroke-dasharray="2,2"/><line x1="55.5" y1="188.3" x2="56.5" y2="188.1" stroke="#888" stroke-width="0.4" stroke-dasharray="2,2"/><line x1="56.5" y1="188.1" x2="57.4" y2="187.8" stroke="#888" stroke-width="0.4" stroke-dasharray="2,2"/><line x1="56.5" y1="188.1" x2="57.4" y2="187.8" stroke="#888" stroke-width="0.4" stroke-dasharray="2,2"/><line x1="57.4" y1="187.8" x2="58.3" y2="187.3" stroke="#888" stroke-width="0.4" stroke-dasharray="2,2"/><line x1="57.4" y1="187.8" x2="58.3" y2="187.3" stroke="#888" stroke-width="0.4" stroke-dasharray="2,2"/><line x1="58.3" y1="187.3" x2="59.1" y2="186.8" stroke="#888" stroke-width="0.4" stroke-dasharray="2,2"/><line x1="58.3" y1="187.3" x2="59.1" y2="186.8" stroke="#888" stroke-width="0.4" stroke-dasharray="2,2"/><line x1="59.1" y1="186.8" x2="59.9" y2="186.1" stroke="#888" stroke-width="0.4" stroke-dasharray="2,2"/><line x1="59.1" y1="186.8" x2="59.9" y2="186.1" stroke="#888" stroke-width="0.4" stroke-dasharray="2,2"/><line x1="59.9" y1="186.1" x2="60.5" y2="185.4" stroke="#888" stroke-width="0.4" stroke-dasharray="2,2"/><line x1="59.9" y1="186.1" x2="60.5" y2="185.4" stroke="#888" stroke-width="0.4" stroke-dasharray="2,2"/><line x1="60.5" y1="185.4" x2="61.1" y2="184.6" stroke="#888" stroke-width="0.4" stroke-dasharray="2,2"/><line x1="60.5" y1="185.4" x2="61.1" y2="184.6" stroke="#888" stroke-width="0.4" stroke-dasharray="2,2"/><line x1="61.1" y1="184.6" x2="61.5" y2="183.7" stroke="#888" stroke-width="0.4" stroke-dasharray="2,2"/><line x1="61.1" y1="184.6" x2="61.5" y2="183.7" stroke="#888" stroke-width="0.4" stroke-dasharray="2,2"/><line x1="61.5" y1="183.7" x2="61.8" y2="182.7" stroke="#888" stroke-width="0.4" stroke-dasharray="2,2"/><line x1="61.5" y1="183.7" x2="61.8" y2="182.7" stroke="#888" stroke-width="0.4" stroke-dasharray="2,2"/><line x1="61.8" y1="182.7" x2="62.0" y2="181.7" stroke="#888" stroke-width="0.4" stroke-dasharray="2,2"/><line x1="61.8" y1="182.7" x2="62.0" y2="181.7" stroke="#888" stroke-width="0.4" stroke-dasharray="2,2"/><line x1="62.0" y1="181.7" x2="62.1" y2="180.8" stroke="#888" stroke-width="0.4" stroke-dasharray="2,2"/><line x1="62.0" y1="181.7" x2="62.1" y2="180.8" stroke="#888" stroke-width="0.4" stroke-dasharray="2,2"/><line x1="62.1" y1="180.8" x2="62.0" y2="179.8" stroke="#888" stroke-width="0.4" stroke-dasharray="2,2"/><line x1="62.1" y1="180.8" x2="62.0" y2="179.8" stroke="#888" stroke-width="0.4" stroke-dasharray="2,2"/><line x1="62.0" y1="179.8" x2="61.8" y2="178.8" stroke="#888" stroke-width="0.4" stroke-dasharray="2,2"/><line x1="62.0" y1="179.8" x2="61.8" y2="178.8" stroke="#888" stroke-width="0.4" stroke-dasharray="2,2"/><line x1="61.8" y1="178.8" x2="61.5" y2="177.8" stroke="#888" stroke-width="0.4" stroke-dasharray="2,2"/><line x1="61.8" y1="178.8" x2="61.5" y2="177.8" stroke="#888" stroke-width="0.4" stroke-dasharray="2,2"/><line x1="61.5" y1="177.8" x2="61.1" y2="176.9" stroke="#888" stroke-width="0.4" stroke-dasharray="2,2"/><line x1="61.5" y1="177.8" x2="61.1" y2="176.9" stroke="#888" stroke-width="0.4" stroke-dasharray="2,2"/><line x1="61.1" y1="176.9" x2="60.5" y2="176.1" stroke="#888" stroke-width="0.4" stroke-dasharray="2,2"/><line x1="61.1" y1="176.9" x2="60.5" y2="176.1" stroke="#888" stroke-width="0.4" stroke-dasharray="2,2"/><line x1="60.5" y1="176.1" x2="59.9" y2="175.4" stroke="#888" stroke-width="0.4" stroke-dasharray="2,2"/><line x1="60.5" y1="176.1" x2="59.9" y2="175.4" stroke="#888" stroke-width="0.4" stroke-dasharray="2,2"/><line x1="59.9" y1="175.4" x2="59.1" y2="174.7" stroke="#888" stroke-width="0.4" stroke-dasharray="2,2"/><line x1="59.9" y1="175.4" x2="59.1" y2="174.7" stroke="#888" stroke-width="0.4" stroke-dasharray="2,2"/><line x1="59.1" y1="174.7" x2="58.3" y2="174.2" stroke="#888" stroke-width="0.4" stroke-dasharray="2,2"/><line x1="59.1" y1="174.7" x2="58.3" y2="174.2" stroke="#888" stroke-width="0.4" stroke-dasharray="2,2"/><line x1="58.3" y1="174.2" x2="57.4" y2="173.7" stroke="#888" stroke-width="0.4" stroke-dasharray="2,2"/><line x1="58.3" y1="174.2" x2="57.4" y2="173.7" stroke="#888" stroke-width="0.4" stroke-dasharray="2,2"/><line x1="57.4" y1="173.7" x2="56.5" y2="173.4" stroke="#888" stroke-width="0.4" stroke-dasharray="2,2"/><line x1="57.4" y1="173.7" x2="56.5" y2="173.4" stroke="#888" stroke-width="0.4" stroke-dasharray="2,2"/><line x1="56.5" y1="173.4" x2="55.5" y2="173.2" stroke="#888" stroke-width="0.4" stroke-dasharray="2,2"/><line x1="56.5" y1="173.4" x2="55.5" y2="173.2" stroke="#888" stroke-width="0.4" stroke-dasharray="2,2"/><line x1="55.5" y1="173.2" x2="54.5" y2="173.2" stroke="#888" stroke-width="0.4" stroke-dasharray="2,2"/><line x1="55.5" y1="173.2" x2="54.5" y2="173.2" stroke="#888" stroke-width="0.4" stroke-dasharray="2,2"/><line x1="54.5" y1="173.2" x2="53.5" y2="173.2" stroke="#888" stroke-width="0.4" stroke-dasharray="2,2"/><line x1="54.5" y1="173.2" x2="53.5" y2="173.2" stroke="#888" stroke-width="0.4" stroke-dasharray="2,2"/><line x1="53.5" y1="173.2" x2="52.5" y2="173.4" stroke="#888" stroke-width="0.4" stroke-dasharray="2,2"/><line x1="53.5" y1="173.2" x2="52.5" y2="173.4" stroke="#888" stroke-width="0.4" stroke-dasharray="2,2"/><line x1="52.5" y1="173.4" x2="51.6" y2="173.7" stroke="#888" stroke-width="0.4" stroke-dasharray="2,2"/><line x1="52.5" y1="173.4" x2="51.6" y2="173.7" stroke="#888" stroke-width="0.4" stroke-dasharray="2,2"/><line x1="51.6" y1="173.7" x2="50.7" y2="174.2" stroke="#888" stroke-width="0.4" stroke-dasharray="2,2"/><line x1="51.6" y1="173.7" x2="50.7" y2="174.2" stroke="#888" stroke-width="0.4" stroke-dasharray="2,2"/><line x1="50.7" y1="174.2" x2="49.9" y2="174.7" stroke="#888" stroke-width="0.4" stroke-dasharray="2,2"/><line x1="50.7" y1="174.2" x2="49.9" y2="174.7" stroke="#888" stroke-width="0.4" stroke-dasharray="2,2"/><line x1="49.9" y1="174.7" x2="49.1" y2="175.4" stroke="#888" stroke-width="0.4" stroke-dasharray="2,2"/><line x1="49.9" y1="174.7" x2="49.1" y2="175.4" stroke="#888" stroke-width="0.4" stroke-dasharray="2,2"/><line x1="49.1" y1="175.4" x2="48.5" y2="176.1" stroke="#888" stroke-width="0.4" stroke-dasharray="2,2"/><line x1="49.1" y1="175.4" x2="48.5" y2="176.1" stroke="#888" stroke-width="0.4" stroke-dasharray="2,2"/><line x1="48.5" y1="176.1" x2="47.9" y2="176.9" stroke="#888" stroke-width="0.4" stroke-dasharray="2,2"/><line x1="48.5" y1="176.1" x2="47.9" y2="176.9" stroke="#888" stroke-width="0.4" stroke-dasharray="2,2"/><line x1="47.9" y1="176.9" x2="47.5" y2="177.8" stroke="#888" stroke-width="0.4" stroke-dasharray="2,2"/><line x1="47.9" y1="176.9" x2="47.5" y2="177.8" stroke="#888" stroke-width="0.4" stroke-dasharray="2,2"/><line x1="47.5" y1="177.8" x2="47.2" y2="178.8" stroke="#888" stroke-width="0.4" stroke-dasharray="2,2"/><line x1="47.5" y1="177.8" x2="47.2" y2="178.8" stroke="#888" stroke-width="0.4" stroke-dasharray="2,2"/><line x1="47.2" y1="178.8" x2="47.0" y2="179.8" stroke="#888" stroke-width="0.4" stroke-dasharray="2,2"/><line x1="47.2" y1="178.8" x2="47.0" y2="179.8" stroke="#888" stroke-width="0.4" stroke-dasharray="2,2"/><line x1="47.0" y1="179.8" x2="46.9" y2="180.8" stroke="#888" stroke-width="0.4" stroke-dasharray="2,2"/><line x1="47.0" y1="179.8" x2="46.9" y2="180.8" stroke="#888" stroke-width="0.4" stroke-dasharray="2,2"/>
        
      <line x1="46.9" y1="223" x2="62.1" y2="223" stroke="#000" stroke-width="0.3"/>
      <text x="54.5" y="222" text-anchor="middle" font-size="2.5" fill="#000">76.0</text>
      </g>
<g class="view-iso">
        <rect x="99" y="134.5" width="81" height="92.5" fill="none" stroke="#ccc" stroke-width="0.3"/>
        <text x="102" y="140.5" font-size="3.5" fill="#444" font-weight="700">ISO</text>
        <line x1="134.1" y1="184.8" x2="134.9" y2="185.2" stroke="#888" stroke-width="0.4" stroke-dasharray="2,2"/><line x1="134.1" y1="182.9" x2="134.9" y2="183.3" stroke="#888" stroke-width="0.4" stroke-dasharray="2,2"/><line x1="134.9" y1="185.2" x2="135.7" y2="185.5" stroke="#888" stroke-width="0.4" stroke-dasharray="2,2"/><line x1="134.9" y1="183.3" x2="135.7" y2="183.6" stroke="#888" stroke-width="0.4" stroke-dasharray="2,2"/><line x1="135.7" y1="185.5" x2="136.6" y2="185.8" stroke="#888" stroke-width="0.4" stroke-dasharray="2,2"/><line x1="135.7" y1="183.6" x2="136.6" y2="183.8" stroke="#888" stroke-width="0.4" stroke-dasharray="2,2"/><line x1="136.6" y1="185.8" x2="137.5" y2="186.0" stroke="#888" stroke-width="0.4" stroke-dasharray="2,2"/><line x1="136.6" y1="183.8" x2="137.5" y2="184.0" stroke="#888" stroke-width="0.4" stroke-dasharray="2,2"/><line x1="137.5" y1="186.0" x2="138.5" y2="186.1" stroke="#888" stroke-width="0.4" stroke-dasharray="2,2"/><line x1="137.5" y1="184.0" x2="138.5" y2="184.1" stroke="#888" stroke-width="0.4" stroke-dasharray="2,2"/><line x1="138.5" y1="186.1" x2="139.5" y2="186.1" stroke="#888" stroke-width="0.4" stroke-dasharray="2,2"/><line x1="138.5" y1="184.1" x2="139.5" y2="184.2" stroke="#888" stroke-width="0.4" stroke-dasharray="2,2"/><line x1="139.5" y1="186.1" x2="140.5" y2="186.1" stroke="#888" stroke-width="0.4" stroke-dasharray="2,2"/><line x1="139.5" y1="184.2" x2="140.5" y2="184.1" stroke="#888" stroke-width="0.4" stroke-dasharray="2,2"/><line x1="140.5" y1="186.1" x2="141.5" y2="186.0" stroke="#888" stroke-width="0.4" stroke-dasharray="2,2"/><line x1="140.5" y1="184.1" x2="141.5" y2="184.0" stroke="#888" stroke-width="0.4" stroke-dasharray="2,2"/><line x1="141.5" y1="186.0" x2="142.4" y2="185.8" stroke="#888" stroke-width="0.4" stroke-dasharray="2,2"/><line x1="141.5" y1="184.0" x2="142.4" y2="183.8" stroke="#888" stroke-width="0.4" stroke-dasharray="2,2"/><line x1="142.4" y1="185.8" x2="143.3" y2="185.5" stroke="#888" stroke-width="0.4" stroke-dasharray="2,2"/><line x1="142.4" y1="183.8" x2="143.3" y2="183.6" stroke="#888" stroke-width="0.4" stroke-dasharray="2,2"/><line x1="143.3" y1="185.5" x2="144.1" y2="185.2" stroke="#888" stroke-width="0.4" stroke-dasharray="2,2"/><line x1="143.3" y1="183.6" x2="144.1" y2="183.3" stroke="#888" stroke-width="0.4" stroke-dasharray="2,2"/><line x1="144.1" y1="185.2" x2="144.9" y2="184.8" stroke="#888" stroke-width="0.4" stroke-dasharray="2,2"/><line x1="144.1" y1="183.3" x2="144.9" y2="182.9" stroke="#888" stroke-width="0.4" stroke-dasharray="2,2"/><line x1="144.9" y1="184.8" x2="145.5" y2="184.4" stroke="#888" stroke-width="0.4" stroke-dasharray="2,2"/><line x1="144.9" y1="182.9" x2="145.5" y2="182.4" stroke="#888" stroke-width="0.4" stroke-dasharray="2,2"/><line x1="145.5" y1="184.4" x2="146.1" y2="183.9" stroke="#888" stroke-width="0.4" stroke-dasharray="2,2"/><line x1="145.5" y1="182.4" x2="146.1" y2="182.0" stroke="#888" stroke-width="0.4" stroke-dasharray="2,2"/><line x1="146.1" y1="183.9" x2="146.5" y2="183.4" stroke="#888" stroke-width="0.4" stroke-dasharray="2,2"/><line x1="146.1" y1="182.0" x2="146.5" y2="181.4" stroke="#888" stroke-width="0.4" stroke-dasharray="2,2"/><line x1="146.5" y1="183.4" x2="146.8" y2="182.9" stroke="#888" stroke-width="0.4" stroke-dasharray="2,2"/><line x1="146.5" y1="181.4" x2="146.8" y2="180.9" stroke="#888" stroke-width="0.4" stroke-dasharray="2,2"/><line x1="146.8" y1="182.9" x2="147.0" y2="182.3" stroke="#888" stroke-width="0.4" stroke-dasharray="2,2"/><line x1="146.8" y1="180.9" x2="147.0" y2="180.3" stroke="#888" stroke-width="0.4" stroke-dasharray="2,2"/><line x1="147.0" y1="182.3" x2="147.1" y2="181.7" stroke="#888" stroke-width="0.4" stroke-dasharray="2,2"/><line x1="147.0" y1="180.3" x2="147.1" y2="179.8" stroke="#888" stroke-width="0.4" stroke-dasharray="2,2"/><line x1="147.1" y1="181.7" x2="147.0" y2="181.2" stroke="#000" stroke-width="0.4" /><line x1="147.1" y1="179.8" x2="147.0" y2="179.2" stroke="#000" stroke-width="0.4" /><line x1="147.0" y1="181.2" x2="146.8" y2="180.6" stroke="#000" stroke-width="0.4" /><line x1="147.0" y1="179.2" x2="146.8" y2="178.6" stroke="#000" stroke-width="0.4" /><line x1="146.8" y1="180.6" x2="146.5" y2="180.1" stroke="#000" stroke-width="0.4" /><line x1="146.8" y1="178.6" x2="146.5" y2="178.1" stroke="#000" stroke-width="0.4" /><line x1="146.5" y1="180.1" x2="146.1" y2="179.5" stroke="#000" stroke-width="0.4" /><line x1="146.5" y1="178.1" x2="146.1" y2="177.6" stroke="#000" stroke-width="0.4" /><line x1="146.1" y1="179.5" x2="145.5" y2="179.1" stroke="#000" stroke-width="0.4" /><line x1="146.1" y1="177.6" x2="145.5" y2="177.1" stroke="#000" stroke-width="0.4" /><line x1="145.5" y1="179.1" x2="144.9" y2="178.6" stroke="#000" stroke-width="0.4" /><line x1="145.5" y1="177.1" x2="144.9" y2="176.7" stroke="#000" stroke-width="0.4" /><line x1="144.9" y1="178.6" x2="144.1" y2="178.2" stroke="#000" stroke-width="0.4" /><line x1="144.9" y1="176.7" x2="144.1" y2="176.3" stroke="#000" stroke-width="0.4" /><line x1="144.1" y1="178.2" x2="143.3" y2="177.9" stroke="#000" stroke-width="0.4" /><line x1="144.1" y1="176.3" x2="143.3" y2="176.0" stroke="#000" stroke-width="0.4" /><line x1="143.3" y1="177.9" x2="142.4" y2="177.7" stroke="#000" stroke-width="0.4" /><line x1="143.3" y1="176.0" x2="142.4" y2="175.7" stroke="#000" stroke-width="0.4" /><line x1="142.4" y1="177.7" x2="141.5" y2="177.5" stroke="#000" stroke-width="0.4" /><line x1="142.4" y1="175.7" x2="141.5" y2="175.5" stroke="#000" stroke-width="0.4" /><line x1="141.5" y1="177.5" x2="140.5" y2="177.4" stroke="#000" stroke-width="0.4" /><line x1="141.5" y1="175.5" x2="140.5" y2="175.4" stroke="#000" stroke-width="0.4" /><line x1="140.5" y1="177.4" x2="139.5" y2="177.3" stroke="#000" stroke-width="0.4" /><line x1="140.5" y1="175.4" x2="139.5" y2="175.4" stroke="#000" stroke-width="0.4" /><line x1="139.5" y1="177.3" x2="138.5" y2="177.4" stroke="#000" stroke-width="0.4" /><line x1="139.5" y1="175.4" x2="138.5" y2="175.4" stroke="#000" stroke-width="0.4" /><line x1="138.5" y1="177.4" x2="137.5" y2="177.5" stroke="#000" stroke-width="0.4" /><line x1="138.5" y1="175.4" x2="137.5" y2="175.5" stroke="#000" stroke-width="0.4" /><line x1="137.5" y1="177.5" x2="136.6" y2="177.7" stroke="#000" stroke-width="0.4" /><line x1="137.5" y1="175.5" x2="136.6" y2="175.7" stroke="#000" stroke-width="0.4" /><line x1="136.6" y1="177.7" x2="135.7" y2="177.9" stroke="#000" stroke-width="0.4" /><line x1="136.6" y1="175.7" x2="135.7" y2="176.0" stroke="#000" stroke-width="0.4" /><line x1="135.7" y1="177.9" x2="134.9" y2="178.2" stroke="#000" stroke-width="0.4" /><line x1="135.7" y1="176.0" x2="134.9" y2="176.3" stroke="#000" stroke-width="0.4" /><line x1="134.9" y1="178.2" x2="134.1" y2="178.6" stroke="#000" stroke-width="0.4" /><line x1="134.9" y1="176.3" x2="134.1" y2="176.7" stroke="#000" stroke-width="0.4" /><line x1="134.1" y1="178.6" x2="133.5" y2="179.1" stroke="#000" stroke-width="0.4" /><line x1="134.1" y1="176.7" x2="133.5" y2="177.1" stroke="#000" stroke-width="0.4" /><line x1="133.5" y1="179.1" x2="132.9" y2="179.5" stroke="#000" stroke-width="0.4" /><line x1="133.5" y1="177.1" x2="132.9" y2="177.6" stroke="#000" stroke-width="0.4" /><line x1="132.9" y1="179.5" x2="132.5" y2="180.1" stroke="#000" stroke-width="0.4" /><line x1="132.9" y1="177.6" x2="132.5" y2="178.1" stroke="#000" stroke-width="0.4" /><line x1="132.5" y1="180.1" x2="132.2" y2="180.6" stroke="#000" stroke-width="0.4" /><line x1="132.5" y1="178.1" x2="132.2" y2="178.6" stroke="#000" stroke-width="0.4" /><line x1="132.2" y1="180.6" x2="132.0" y2="181.2" stroke="#000" stroke-width="0.4" /><line x1="132.2" y1="178.6" x2="132.0" y2="179.2" stroke="#000" stroke-width="0.4" /><line x1="132.0" y1="181.2" x2="131.9" y2="181.7" stroke="#000" stroke-width="0.4" /><line x1="132.0" y1="179.2" x2="131.9" y2="179.8" stroke="#000" stroke-width="0.4" /><line x1="131.9" y1="181.7" x2="132.0" y2="182.3" stroke="#888" stroke-width="0.4" stroke-dasharray="2,2"/><line x1="131.9" y1="179.8" x2="132.0" y2="180.3" stroke="#888" stroke-width="0.4" stroke-dasharray="2,2"/><line x1="132.0" y1="182.3" x2="132.2" y2="182.9" stroke="#888" stroke-width="0.4" stroke-dasharray="2,2"/><line x1="132.0" y1="180.3" x2="132.2" y2="180.9" stroke="#888" stroke-width="0.4" stroke-dasharray="2,2"/><line x1="132.2" y1="182.9" x2="132.5" y2="183.4" stroke="#888" stroke-width="0.4" stroke-dasharray="2,2"/><line x1="132.2" y1="180.9" x2="132.5" y2="181.4" stroke="#888" stroke-width="0.4" stroke-dasharray="2,2"/><line x1="132.5" y1="183.4" x2="132.9" y2="183.9" stroke="#888" stroke-width="0.4" stroke-dasharray="2,2"/><line x1="132.5" y1="181.4" x2="132.9" y2="182.0" stroke="#888" stroke-width="0.4" stroke-dasharray="2,2"/><line x1="132.9" y1="183.9" x2="133.5" y2="184.4" stroke="#888" stroke-width="0.4" stroke-dasharray="2,2"/><line x1="132.9" y1="182.0" x2="133.5" y2="182.4" stroke="#888" stroke-width="0.4" stroke-dasharray="2,2"/><line x1="133.5" y1="184.4" x2="134.1" y2="184.8" stroke="#888" stroke-width="0.4" stroke-dasharray="2,2"/><line x1="133.5" y1="182.4" x2="134.1" y2="182.9" stroke="#888" stroke-width="0.4" stroke-dasharray="2,2"/>
        
      <line x1="131.9" y1="223" x2="147.1" y2="223" stroke="#000" stroke-width="0.3"/>
      <text x="139.5" y="222" text-anchor="middle" font-size="2.5" fill="#000">76.0</text>
      </g>
<g class="rev-table"><rect x="190" y="34" width="22" height="5" fill="#1a1a2e" stroke="#000" stroke-width="0.3"/>
        <text x="201" y="37.6" text-anchor="middle" font-size="2.2" fill="#fff" font-weight="700">REV</text><rect x="212" y="34" width="52.8" height="5" fill="#1a1a2e" stroke="#000" stroke-width="0.3"/>
        <text x="238.4" y="37.6" text-anchor="middle" font-size="2.2" fill="#fff" font-weight="700">DATE</text><rect x="264.8" y="34" width="30.800000000000004" height="5" fill="#1a1a2e" stroke="#000" stroke-width="0.3"/>
        <text x="280.2" y="37.6" text-anchor="middle" font-size="2.2" fill="#fff" font-weight="700">BY</text><rect x="295.6" y="34" width="114.4" height="5" fill="#1a1a2e" stroke="#000" stroke-width="0.3"/>
        <text x="352.8" y="37.6" text-anchor="middle" font-size="2.2" fill="#fff" font-weight="700">NOTE</text><rect x="190" y="39" width="22" height="5" fill="#fff" stroke="#000" stroke-width="0.2"/>
          <text x="191.5" y="42.6" font-size="2.4" fill="#000">A</text><rect x="212" y="39" width="52.8" height="5" fill="#fff" stroke="#000" stroke-width="0.2"/>
          <text x="213.5" y="42.6" font-size="2.4" fill="#000">2026-05-09</text><rect x="264.8" y="39" width="30.800000000000004" height="5" fill="#fff" stroke="#000" stroke-width="0.2"/>
          <text x="266.3" y="42.6" font-size="2.4" fill="#000">AD</text><rect x="295.6" y="39" width="114.4" height="5" fill="#fff" stroke="#000" stroke-width="0.2"/>
          <text x="297.1" y="42.6" font-size="2.4" fill="#000">Initial release</text></g>
<rect x="190" y="74" width="220" height="36" fill="#fff" stroke="#000" stroke-width="0.3"/>
<rect x="190" y="74" width="220" height="5" fill="#1a1a2e"/>
<text x="192" y="77.6" font-size="2.5" fill="#fff" font-weight="700">GENERAL NOTES</text>
<text x="192" y="82.00" font-size="2.4" fill="#000">1. Dims in mm; tolerances per ASME Y14.5-2018.</text>
<text x="192" y="86.00" font-size="2.4" fill="#000">2. Remove all burrs and sharp edges.</text>
<text x="192" y="90.00" font-size="2.4" fill="#000">3. Inspect per drawing rev current.</text>
<text x="192" y="94.00" font-size="2.4" fill="#000">4. Material per cert lot traceability.</text>
<rect x="190" y="116" width="220" height="25" fill="#fff" stroke="#000" stroke-width="0.3"/>
<rect x="190" y="116" width="220" height="5" fill="#1a1a2e"/>
<text x="192" y="119.6" font-size="2.5" fill="#fff" font-weight="700">GD&amp;T CALLOUTS</text>
<text x="192" y="124.00" font-size="2.4" fill="#888">— none specified —</text>
<g class="title-block"><rect x="190" y="147" width="220" height="84" fill="#fff" stroke="#000" stroke-width="0.6"/>
<line x1="190" y1="161" x2="410" y2="161" stroke="#000" stroke-width="0.3"/>
<line x1="190" y1="175" x2="410" y2="175" stroke="#000" stroke-width="0.3"/>
<line x1="190" y1="189" x2="410" y2="189" stroke="#000" stroke-width="0.3"/>
<line x1="190" y1="203" x2="410" y2="203" stroke="#000" stroke-width="0.3"/>
<line x1="190" y1="217" x2="410" y2="217" stroke="#000" stroke-width="0.3"/>
<line x1="300" y1="147" x2="300" y2="161" stroke="#000" stroke-width="0.3"/>
<line x1="300" y1="175" x2="300" y2="189" stroke="#000" stroke-width="0.3"/>
<line x1="300" y1="189" x2="300" y2="203" stroke="#000" stroke-width="0.3"/>
<line x1="300" y1="203" x2="300" y2="217" stroke="#000" stroke-width="0.3"/>
<text x="192" y="150.5" font-size="2" fill="#666"  >PART NO.</text>
<text x="192" y="159.5" font-size="3" fill="#000" font-weight="700" >TPSL-SEAL-CFS-0001</text>
<text x="302" y="150.5" font-size="2" fill="#666"  >DRAWING NO.</text>
<text x="302" y="159.5" font-size="3" fill="#000" font-weight="700" >TPSL-SEAL-CFS-0001-DWG</text>
<text x="192" y="164.5" font-size="2" fill="#666"  >TITLE</text>
<text x="192" y="173.5" font-size="3.5" fill="#000" font-weight="700" >Primary Carbon-Graphite Seal Ring</text>
<text x="192" y="178.5" font-size="2" fill="#666"  >MATERIAL</text>
<text x="192" y="187.5" font-size="3" fill="#000"  >Carbon Fiber Composite</text>
<text x="302" y="178.5" font-size="2" fill="#666"  >SCALE  /  SIZE</text>
<text x="302" y="187.5" font-size="3" fill="#000"  >1:2  /  A3</text>
<text x="192" y="192.5" font-size="2" fill="#666"  >DRAWN BY</text>
<text x="192" y="201.5" font-size="3" fill="#000"  >ArchDisc Auto-Drawing</text>
<text x="302" y="192.5" font-size="2" fill="#666"  >DATE</text>
<text x="302" y="201.5" font-size="3" fill="#000"  >2026-05-09</text>
<text x="192" y="206.5" font-size="2" fill="#666"  >APPROVED BY</text>
<text x="192" y="215.5" font-size="4" fill="#000"  >— pending QA review —</text>
<text x="302" y="206.5" font-size="2" fill="#666"  >REV</text>
<text x="302" y="215.5" font-size="4" fill="#000" font-weight="700" >A</text>
<text x="300" y="224" font-size="2" fill="#666"  text-anchor="middle">PROPRIETARY — REPRODUCTION FORBIDDEN</text>
<text x="300" y="228.9" font-size="2" fill="#666"  text-anchor="middle">Per ASME Y14.5-2018 / ISO 1101</text></g>
<rect x="10" y="237" width="400" height="50" fill="#fafafc" stroke="#000" stroke-width="0.3"/>
<text x="12" y="241" font-size="2.2" fill="#666" font-weight="700">HEAT TREAT</text>
<text x="12" y="277" font-size="2.6" fill="#000">No heat treatment</text>
<line x1="110" y1="237" x2="110" y2="279" stroke="#000" stroke-width="0.3"/>
<text x="112" y="241" font-size="2.2" fill="#666" font-weight="700">SURFACE FINISH</text>
<text x="112" y="277" font-size="2.6" fill="#000">Ra ≤ 3.2 μm (125 μin)</text>
<line x1="210" y1="237" x2="210" y2="279" stroke="#000" stroke-width="0.3"/>
<text x="212" y="241" font-size="2.2" fill="#666" font-weight="700">NDT</text>
<text x="212" y="277" font-size="2.6" fill="#000">Visual only</text>
<line x1="310" y1="237" x2="310" y2="279" stroke="#000" stroke-width="0.3"/>
<text x="312" y="241" font-size="2.2" fill="#666" font-weight="700">COATING</text>
<text x="312" y="277" font-size="2.6" fill="#000">No coating</text>
<line x1="10" y1="279" x2="410" y2="279" stroke="#000" stroke-width="0.3"/>
<text x="12" y="284.5" font-size="2.4" fill="#444">Default tol: linear ±0.1 mm   angular ±0.5°   Ra ≤ 3.2 μm</text>
</svg>