<?xml version="1.0" encoding="UTF-8"?>
<svg xmlns="http://www.w3.org/2000/svg" viewBox="0 0 420 297" width="420mm" height="297mm" font-family="Helvetica, Arial, sans-serif">
<rect width="420" height="297" fill="#ffffff"/>
<rect x="12" y="12" width="396" height="273" fill="none" stroke="#000" stroke-width="0.6"/>
<rect x="12" y="12" width="396" height="16" fill="#1a1a2e"/>
<text x="16" y="23" font-size="9" fill="#ffffff" font-weight="700">GE9X</text>
<text x="210" y="23" text-anchor="middle" font-size="10" fill="#ffffff" font-weight="700">BEARING #HPC FRONT BALL INNER RACE</text>
<rect x="348" y="14" width="56" height="12" fill="#d9c84a"/>
<text x="376" y="24" text-anchor="middle" font-size="9" fill="#000" font-weight="700">Class 2</text>
<g class="view-front">
        <rect x="16" y="32" width="96" height="93.5" fill="none" stroke="#ccc" stroke-width="0.3"/>
        <text x="20" y="42" font-size="8" fill="#444" font-weight="700">FRONT</text>
        <line x1="28.0" y1="82.8" x2="28.3" y2="82.8" stroke="#888" stroke-width="0.4" stroke-dasharray="2,2"/><line x1="28.0" y1="74.8" x2="28.3" y2="74.8" stroke="#888" stroke-width="0.4" stroke-dasharray="2,2"/><line x1="28.3" y1="82.8" x2="29.2" y2="82.8" stroke="#888" stroke-width="0.4" stroke-dasharray="2,2"/><line x1="28.3" y1="74.8" x2="29.2" y2="74.8" stroke="#888" stroke-width="0.4" stroke-dasharray="2,2"/><line x1="29.2" y1="82.8" x2="30.7" y2="82.8" stroke="#888" stroke-width="0.4" stroke-dasharray="2,2"/><line x1="29.2" y1="74.8" x2="30.7" y2="74.8" stroke="#000" stroke-width="0.4" /><line x1="30.7" y1="82.8" x2="32.8" y2="82.8" stroke="#888" stroke-width="0.4" stroke-dasharray="2,2"/><line x1="30.7" y1="74.8" x2="32.8" y2="74.8" stroke="#888" stroke-width="0.4" stroke-dasharray="2,2"/><line x1="32.8" y1="82.8" x2="35.4" y2="82.8" stroke="#888" stroke-width="0.4" stroke-dasharray="2,2"/><line x1="32.8" y1="74.8" x2="35.4" y2="74.8" stroke="#888" stroke-width="0.4" stroke-dasharray="2,2"/><line x1="35.4" y1="82.8" x2="38.5" y2="82.8" stroke="#888" stroke-width="0.4" stroke-dasharray="2,2"/><line x1="35.4" y1="74.8" x2="38.5" y2="74.8" stroke="#888" stroke-width="0.4" stroke-dasharray="2,2"/><line x1="38.5" y1="82.8" x2="42.1" y2="82.8" stroke="#888" stroke-width="0.4" stroke-dasharray="2,2"/><line x1="38.5" y1="74.8" x2="42.1" y2="74.8" stroke="#888" stroke-width="0.4" stroke-dasharray="2,2"/><line x1="42.1" y1="82.8" x2="46.0" y2="82.8" stroke="#888" stroke-width="0.4" stroke-dasharray="2,2"/><line x1="42.1" y1="74.8" x2="46.0" y2="74.8" stroke="#888" stroke-width="0.4" stroke-dasharray="2,2"/><line x1="46.0" y1="82.8" x2="50.2" y2="82.8" stroke="#888" stroke-width="0.4" stroke-dasharray="2,2"/><line x1="46.0" y1="74.8" x2="50.2" y2="74.8" stroke="#000" stroke-width="0.4" /><line x1="50.2" y1="82.8" x2="54.7" y2="82.8" stroke="#888" stroke-width="0.4" stroke-dasharray="2,2"/><line x1="50.2" y1="74.8" x2="54.7" y2="74.8" stroke="#888" stroke-width="0.4" stroke-dasharray="2,2"/><line x1="54.7" y1="82.8" x2="59.3" y2="82.8" stroke="#888" stroke-width="0.4" stroke-dasharray="2,2"/><line x1="54.7" y1="74.8" x2="59.3" y2="74.8" stroke="#000" stroke-width="0.4" /><line x1="59.3" y1="82.8" x2="64.0" y2="82.8" stroke="#888" stroke-width="0.4" stroke-dasharray="2,2"/><line x1="59.3" y1="74.8" x2="64.0" y2="74.8" stroke="#000" stroke-width="0.4" /><line x1="64.0" y1="82.8" x2="68.7" y2="82.8" stroke="#888" stroke-width="0.4" stroke-dasharray="2,2"/><line x1="64.0" y1="74.8" x2="68.7" y2="74.8" stroke="#888" stroke-width="0.4" stroke-dasharray="2,2"/><line x1="68.7" y1="82.8" x2="73.3" y2="82.8" stroke="#888" stroke-width="0.4" stroke-dasharray="2,2"/><line x1="68.7" y1="74.8" x2="73.3" y2="74.8" stroke="#000" stroke-width="0.4" /><line x1="73.3" y1="82.8" x2="77.8" y2="82.8" stroke="#888" stroke-width="0.4" stroke-dasharray="2,2"/><line x1="73.3" y1="74.8" x2="77.8" y2="74.8" stroke="#888" stroke-width="0.4" stroke-dasharray="2,2"/><line x1="77.8" y1="82.8" x2="82.0" y2="82.8" stroke="#888" stroke-width="0.4" stroke-dasharray="2,2"/><line x1="77.8" y1="74.8" x2="82.0" y2="74.8" stroke="#888" stroke-width="0.4" stroke-dasharray="2,2"/><line x1="82.0" y1="82.8" x2="85.9" y2="82.8" stroke="#888" stroke-width="0.4" stroke-dasharray="2,2"/><line x1="82.0" y1="74.8" x2="85.9" y2="74.8" stroke="#888" stroke-width="0.4" stroke-dasharray="2,2"/><line x1="85.9" y1="82.8" x2="89.5" y2="82.8" stroke="#888" stroke-width="0.4" stroke-dasharray="2,2"/><line x1="85.9" y1="74.8" x2="89.5" y2="74.8" stroke="#888" stroke-width="0.4" stroke-dasharray="2,2"/><line x1="89.5" y1="82.8" x2="92.6" y2="82.8" stroke="#888" stroke-width="0.4" stroke-dasharray="2,2"/><line x1="89.5" y1="74.8" x2="92.6" y2="74.8" stroke="#888" stroke-width="0.4" stroke-dasharray="2,2"/><line x1="92.6" y1="82.8" x2="95.2" y2="82.8" stroke="#888" stroke-width="0.4" stroke-dasharray="2,2"/><line x1="92.6" y1="74.8" x2="95.2" y2="74.8" stroke="#888" stroke-width="0.4" stroke-dasharray="2,2"/><line x1="95.2" y1="82.8" x2="97.3" y2="82.8" stroke="#888" stroke-width="0.4" stroke-dasharray="2,2"/><line x1="95.2" y1="74.8" x2="97.3" y2="74.8" stroke="#888" stroke-width="0.4" stroke-dasharray="2,2"/><line x1="97.3" y1="82.8" x2="98.8" y2="82.8" stroke="#888" stroke-width="0.4" stroke-dasharray="2,2"/><line x1="97.3" y1="74.8" x2="98.8" y2="74.8" stroke="#000" stroke-width="0.4" /><line x1="98.8" y1="82.8" x2="99.7" y2="82.8" stroke="#888" stroke-width="0.4" stroke-dasharray="2,2"/><line x1="98.8" y1="74.8" x2="99.7" y2="74.8" stroke="#888" stroke-width="0.4" stroke-dasharray="2,2"/><line x1="99.7" y1="82.8" x2="100.0" y2="82.8" stroke="#888" stroke-width="0.4" stroke-dasharray="2,2"/><line x1="99.7" y1="74.8" x2="100.0" y2="74.8" stroke="#888" stroke-width="0.4" stroke-dasharray="2,2"/><line x1="100.0" y1="82.8" x2="99.7" y2="82.8" stroke="#000" stroke-width="0.4" /><line x1="100.0" y1="74.8" x2="99.7" y2="74.8" stroke="#000" stroke-width="0.4" /><line x1="99.7" y1="82.8" x2="98.8" y2="82.8" stroke="#000" stroke-width="0.4" /><line x1="99.7" y1="74.8" x2="98.8" y2="74.8" stroke="#000" stroke-width="0.4" /><line x1="98.8" y1="82.8" x2="97.3" y2="82.8" stroke="#000" stroke-width="0.4" /><line x1="98.8" y1="74.8" x2="97.3" y2="74.8" stroke="#000" stroke-width="0.4" /><line x1="97.3" y1="82.8" x2="95.2" y2="82.8" stroke="#000" stroke-width="0.4" /><line x1="97.3" y1="74.8" x2="95.2" y2="74.8" stroke="#000" stroke-width="0.4" /><line x1="95.2" y1="82.8" x2="92.6" y2="82.8" stroke="#000" stroke-width="0.4" /><line x1="95.2" y1="74.8" x2="92.6" y2="74.8" stroke="#000" stroke-width="0.4" /><line x1="92.6" y1="82.8" x2="89.5" y2="82.8" stroke="#000" stroke-width="0.4" /><line x1="92.6" y1="74.8" x2="89.5" y2="74.8" stroke="#000" stroke-width="0.4" /><line x1="89.5" y1="82.8" x2="85.9" y2="82.8" stroke="#000" stroke-width="0.4" /><line x1="89.5" y1="74.8" x2="85.9" y2="74.8" stroke="#000" stroke-width="0.4" /><line x1="85.9" y1="82.8" x2="82.0" y2="82.8" stroke="#000" stroke-width="0.4" /><line x1="85.9" y1="74.8" x2="82.0" y2="74.8" stroke="#000" stroke-width="0.4" /><line x1="82.0" y1="82.8" x2="77.8" y2="82.8" stroke="#000" stroke-width="0.4" /><line x1="82.0" y1="74.8" x2="77.8" y2="74.8" stroke="#000" stroke-width="0.4" /><line x1="77.8" y1="82.8" x2="73.3" y2="82.8" stroke="#000" stroke-width="0.4" /><line x1="77.8" y1="74.8" x2="73.3" y2="74.8" stroke="#000" stroke-width="0.4" /><line x1="73.3" y1="82.8" x2="68.7" y2="82.8" stroke="#000" stroke-width="0.4" /><line x1="73.3" y1="74.8" x2="68.7" y2="74.8" stroke="#000" stroke-width="0.4" /><line x1="68.7" y1="82.8" x2="64.0" y2="82.8" stroke="#000" stroke-width="0.4" /><line x1="68.7" y1="74.8" x2="64.0" y2="74.8" stroke="#000" stroke-width="0.4" /><line x1="64.0" y1="82.8" x2="59.3" y2="82.8" stroke="#000" stroke-width="0.4" /><line x1="64.0" y1="74.8" x2="59.3" y2="74.8" stroke="#000" stroke-width="0.4" /><line x1="59.3" y1="82.8" x2="54.7" y2="82.8" stroke="#000" stroke-width="0.4" /><line x1="59.3" y1="74.8" x2="54.7" y2="74.8" stroke="#000" stroke-width="0.4" /><line x1="54.7" y1="82.8" x2="50.2" y2="82.8" stroke="#000" stroke-width="0.4" /><line x1="54.7" y1="74.8" x2="50.2" y2="74.8" stroke="#000" stroke-width="0.4" /><line x1="50.2" y1="82.8" x2="46.0" y2="82.8" stroke="#000" stroke-width="0.4" /><line x1="50.2" y1="74.8" x2="46.0" y2="74.8" stroke="#000" stroke-width="0.4" /><line x1="46.0" y1="82.8" x2="42.1" y2="82.8" stroke="#000" stroke-width="0.4" /><line x1="46.0" y1="74.8" x2="42.1" y2="74.8" stroke="#000" stroke-width="0.4" /><line x1="42.1" y1="82.8" x2="38.5" y2="82.8" stroke="#000" stroke-width="0.4" /><line x1="42.1" y1="74.8" x2="38.5" y2="74.8" stroke="#000" stroke-width="0.4" /><line x1="38.5" y1="82.8" x2="35.4" y2="82.8" stroke="#000" stroke-width="0.4" /><line x1="38.5" y1="74.8" x2="35.4" y2="74.8" stroke="#000" stroke-width="0.4" /><line x1="35.4" y1="82.8" x2="32.8" y2="82.8" stroke="#000" stroke-width="0.4" /><line x1="35.4" y1="74.8" x2="32.8" y2="74.8" stroke="#000" stroke-width="0.4" /><line x1="32.8" y1="82.8" x2="30.7" y2="82.8" stroke="#000" stroke-width="0.4" /><line x1="32.8" y1="74.8" x2="30.7" y2="74.8" stroke="#000" stroke-width="0.4" /><line x1="30.7" y1="82.8" x2="29.2" y2="82.8" stroke="#000" stroke-width="0.4" /><line x1="30.7" y1="74.8" x2="29.2" y2="74.8" stroke="#000" stroke-width="0.4" /><line x1="29.2" y1="82.8" x2="28.3" y2="82.8" stroke="#000" stroke-width="0.4" /><line x1="29.2" y1="74.8" x2="28.3" y2="74.8" stroke="#000" stroke-width="0.4" /><line x1="28.3" y1="82.8" x2="28.0" y2="82.8" stroke="#000" stroke-width="0.4" /><line x1="28.3" y1="74.8" x2="28.0" y2="74.8" stroke="#000" stroke-width="0.4" />
        
      <line x1="28" y1="94.75" x2="100" y2="94.75" stroke="#000" stroke-width="0.3"/>
      <text x="64" y="101.75" text-anchor="middle" font-size="7" fill="#000">360.0</text>
      </g>
<g class="view-right">
        <rect x="116" y="32" width="96" height="93.5" fill="none" stroke="#ccc" stroke-width="0.3"/>
        <text x="120" y="42" font-size="8" fill="#444" font-weight="700">RIGHT</text>
        <line x1="164.0" y1="82.8" x2="168.7" y2="82.8" stroke="#888" stroke-width="0.4" stroke-dasharray="2,2"/><line x1="164.0" y1="74.8" x2="168.7" y2="74.8" stroke="#888" stroke-width="0.4" stroke-dasharray="2,2"/><line x1="168.7" y1="82.8" x2="173.3" y2="82.8" stroke="#888" stroke-width="0.4" stroke-dasharray="2,2"/><line x1="168.7" y1="74.8" x2="173.3" y2="74.8" stroke="#888" stroke-width="0.4" stroke-dasharray="2,2"/><line x1="173.3" y1="82.8" x2="177.8" y2="82.8" stroke="#888" stroke-width="0.4" stroke-dasharray="2,2"/><line x1="173.3" y1="74.8" x2="177.8" y2="74.8" stroke="#888" stroke-width="0.4" stroke-dasharray="2,2"/><line x1="177.8" y1="82.8" x2="182.0" y2="82.8" stroke="#888" stroke-width="0.4" stroke-dasharray="2,2"/><line x1="177.8" y1="74.8" x2="182.0" y2="74.8" stroke="#888" stroke-width="0.4" stroke-dasharray="2,2"/><line x1="182.0" y1="82.8" x2="185.9" y2="82.8" stroke="#888" stroke-width="0.4" stroke-dasharray="2,2"/><line x1="182.0" y1="74.8" x2="185.9" y2="74.8" stroke="#888" stroke-width="0.4" stroke-dasharray="2,2"/><line x1="185.9" y1="82.8" x2="189.5" y2="82.8" stroke="#888" stroke-width="0.4" stroke-dasharray="2,2"/><line x1="185.9" y1="74.8" x2="189.5" y2="74.8" stroke="#888" stroke-width="0.4" stroke-dasharray="2,2"/><line x1="189.5" y1="82.8" x2="192.6" y2="82.8" stroke="#888" stroke-width="0.4" stroke-dasharray="2,2"/><line x1="189.5" y1="74.8" x2="192.6" y2="74.8" stroke="#888" stroke-width="0.4" stroke-dasharray="2,2"/><line x1="192.6" y1="82.8" x2="195.2" y2="82.8" stroke="#888" stroke-width="0.4" stroke-dasharray="2,2"/><line x1="192.6" y1="74.8" x2="195.2" y2="74.8" stroke="#888" stroke-width="0.4" stroke-dasharray="2,2"/><line x1="195.2" y1="82.8" x2="197.3" y2="82.8" stroke="#888" stroke-width="0.4" stroke-dasharray="2,2"/><line x1="195.2" y1="74.8" x2="197.3" y2="74.8" stroke="#888" stroke-width="0.4" stroke-dasharray="2,2"/><line x1="197.3" y1="82.8" x2="198.8" y2="82.8" stroke="#888" stroke-width="0.4" stroke-dasharray="2,2"/><line x1="197.3" y1="74.8" x2="198.8" y2="74.8" stroke="#888" stroke-width="0.4" stroke-dasharray="2,2"/><line x1="198.8" y1="82.8" x2="199.7" y2="82.8" stroke="#888" stroke-width="0.4" stroke-dasharray="2,2"/><line x1="198.8" y1="74.8" x2="199.7" y2="74.8" stroke="#888" stroke-width="0.4" stroke-dasharray="2,2"/><line x1="199.7" y1="82.8" x2="200.0" y2="82.8" stroke="#888" stroke-width="0.4" stroke-dasharray="2,2"/><line x1="199.7" y1="74.8" x2="200.0" y2="74.8" stroke="#888" stroke-width="0.4" stroke-dasharray="2,2"/><line x1="200.0" y1="82.8" x2="199.7" y2="82.8" stroke="#000" stroke-width="0.4" /><line x1="200.0" y1="74.8" x2="199.7" y2="74.8" stroke="#000" stroke-width="0.4" /><line x1="199.7" y1="82.8" x2="198.8" y2="82.8" stroke="#000" stroke-width="0.4" /><line x1="199.7" y1="74.8" x2="198.8" y2="74.8" stroke="#000" stroke-width="0.4" /><line x1="198.8" y1="82.8" x2="197.3" y2="82.8" stroke="#000" stroke-width="0.4" /><line x1="198.8" y1="74.8" x2="197.3" y2="74.8" stroke="#000" stroke-width="0.4" /><line x1="197.3" y1="82.8" x2="195.2" y2="82.8" stroke="#000" stroke-width="0.4" /><line x1="197.3" y1="74.8" x2="195.2" y2="74.8" stroke="#000" stroke-width="0.4" /><line x1="195.2" y1="82.8" x2="192.6" y2="82.8" stroke="#000" stroke-width="0.4" /><line x1="195.2" y1="74.8" x2="192.6" y2="74.8" stroke="#000" stroke-width="0.4" /><line x1="192.6" y1="82.8" x2="189.5" y2="82.8" stroke="#000" stroke-width="0.4" /><line x1="192.6" y1="74.8" x2="189.5" y2="74.8" stroke="#000" stroke-width="0.4" /><line x1="189.5" y1="82.8" x2="185.9" y2="82.8" stroke="#000" stroke-width="0.4" /><line x1="189.5" y1="74.8" x2="185.9" y2="74.8" stroke="#000" stroke-width="0.4" /><line x1="185.9" y1="82.8" x2="182.0" y2="82.8" stroke="#000" stroke-width="0.4" /><line x1="185.9" y1="74.8" x2="182.0" y2="74.8" stroke="#000" stroke-width="0.4" /><line x1="182.0" y1="82.8" x2="177.8" y2="82.8" stroke="#000" stroke-width="0.4" /><line x1="182.0" y1="74.8" x2="177.8" y2="74.8" stroke="#000" stroke-width="0.4" /><line x1="177.8" y1="82.8" x2="173.3" y2="82.8" stroke="#000" stroke-width="0.4" /><line x1="177.8" y1="74.8" x2="173.3" y2="74.8" stroke="#000" stroke-width="0.4" /><line x1="173.3" y1="82.8" x2="168.7" y2="82.8" stroke="#000" stroke-width="0.4" /><line x1="173.3" y1="74.8" x2="168.7" y2="74.8" stroke="#000" stroke-width="0.4" /><line x1="168.7" y1="82.8" x2="164.0" y2="82.8" stroke="#000" stroke-width="0.4" /><line x1="168.7" y1="74.8" x2="164.0" y2="74.8" stroke="#000" stroke-width="0.4" /><line x1="164.0" y1="82.8" x2="159.3" y2="82.8" stroke="#000" stroke-width="0.4" /><line x1="164.0" y1="74.8" x2="159.3" y2="74.8" stroke="#000" stroke-width="0.4" /><line x1="159.3" y1="82.8" x2="154.7" y2="82.8" stroke="#000" stroke-width="0.4" /><line x1="159.3" y1="74.8" x2="154.7" y2="74.8" stroke="#000" stroke-width="0.4" /><line x1="154.7" y1="82.8" x2="150.2" y2="82.8" stroke="#000" stroke-width="0.4" /><line x1="154.7" y1="74.8" x2="150.2" y2="74.8" stroke="#000" stroke-width="0.4" /><line x1="150.2" y1="82.8" x2="146.0" y2="82.8" stroke="#000" stroke-width="0.4" /><line x1="150.2" y1="74.8" x2="146.0" y2="74.8" stroke="#000" stroke-width="0.4" /><line x1="146.0" y1="82.8" x2="142.1" y2="82.8" stroke="#000" stroke-width="0.4" /><line x1="146.0" y1="74.8" x2="142.1" y2="74.8" stroke="#000" stroke-width="0.4" /><line x1="142.1" y1="82.8" x2="138.5" y2="82.8" stroke="#000" stroke-width="0.4" /><line x1="142.1" y1="74.8" x2="138.5" y2="74.8" stroke="#000" stroke-width="0.4" /><line x1="138.5" y1="82.8" x2="135.4" y2="82.8" stroke="#000" stroke-width="0.4" /><line x1="138.5" y1="74.8" x2="135.4" y2="74.8" stroke="#000" stroke-width="0.4" /><line x1="135.4" y1="82.8" x2="132.8" y2="82.8" stroke="#000" stroke-width="0.4" /><line x1="135.4" y1="74.8" x2="132.8" y2="74.8" stroke="#000" stroke-width="0.4" /><line x1="132.8" y1="82.8" x2="130.7" y2="82.8" stroke="#000" stroke-width="0.4" /><line x1="132.8" y1="74.8" x2="130.7" y2="74.8" stroke="#000" stroke-width="0.4" /><line x1="130.7" y1="82.8" x2="129.2" y2="82.8" stroke="#000" stroke-width="0.4" /><line x1="130.7" y1="74.8" x2="129.2" y2="74.8" stroke="#000" stroke-width="0.4" /><line x1="129.2" y1="82.8" x2="128.3" y2="82.8" stroke="#000" stroke-width="0.4" /><line x1="129.2" y1="74.8" x2="128.3" y2="74.8" stroke="#000" stroke-width="0.4" /><line x1="128.3" y1="82.8" x2="128.0" y2="82.8" stroke="#000" stroke-width="0.4" /><line x1="128.3" y1="74.8" x2="128.0" y2="74.8" stroke="#000" stroke-width="0.4" /><line x1="128.0" y1="82.8" x2="128.3" y2="82.8" stroke="#888" stroke-width="0.4" stroke-dasharray="2,2"/><line x1="128.0" y1="74.8" x2="128.3" y2="74.8" stroke="#888" stroke-width="0.4" stroke-dasharray="2,2"/><line x1="128.3" y1="82.8" x2="129.2" y2="82.8" stroke="#888" stroke-width="0.4" stroke-dasharray="2,2"/><line x1="128.3" y1="74.8" x2="129.2" y2="74.8" stroke="#888" stroke-width="0.4" stroke-dasharray="2,2"/><line x1="129.2" y1="82.8" x2="130.7" y2="82.8" stroke="#888" stroke-width="0.4" stroke-dasharray="2,2"/><line x1="129.2" y1="74.8" x2="130.7" y2="74.8" stroke="#888" stroke-width="0.4" stroke-dasharray="2,2"/><line x1="130.7" y1="82.8" x2="132.8" y2="82.8" stroke="#888" stroke-width="0.4" stroke-dasharray="2,2"/><line x1="130.7" y1="74.8" x2="132.8" y2="74.8" stroke="#888" stroke-width="0.4" stroke-dasharray="2,2"/><line x1="132.8" y1="82.8" x2="135.4" y2="82.8" stroke="#888" stroke-width="0.4" stroke-dasharray="2,2"/><line x1="132.8" y1="74.8" x2="135.4" y2="74.8" stroke="#888" stroke-width="0.4" stroke-dasharray="2,2"/><line x1="135.4" y1="82.8" x2="138.5" y2="82.8" stroke="#888" stroke-width="0.4" stroke-dasharray="2,2"/><line x1="135.4" y1="74.8" x2="138.5" y2="74.8" stroke="#888" stroke-width="0.4" stroke-dasharray="2,2"/><line x1="138.5" y1="82.8" x2="142.1" y2="82.8" stroke="#888" stroke-width="0.4" stroke-dasharray="2,2"/><line x1="138.5" y1="74.8" x2="142.1" y2="74.8" stroke="#888" stroke-width="0.4" stroke-dasharray="2,2"/><line x1="142.1" y1="82.8" x2="146.0" y2="82.8" stroke="#888" stroke-width="0.4" stroke-dasharray="2,2"/><line x1="142.1" y1="74.8" x2="146.0" y2="74.8" stroke="#888" stroke-width="0.4" stroke-dasharray="2,2"/><line x1="146.0" y1="82.8" x2="150.2" y2="82.8" stroke="#888" stroke-width="0.4" stroke-dasharray="2,2"/><line x1="146.0" y1="74.8" x2="150.2" y2="74.8" stroke="#888" stroke-width="0.4" stroke-dasharray="2,2"/><line x1="150.2" y1="82.8" x2="154.7" y2="82.8" stroke="#888" stroke-width="0.4" stroke-dasharray="2,2"/><line x1="150.2" y1="74.8" x2="154.7" y2="74.8" stroke="#888" stroke-width="0.4" stroke-dasharray="2,2"/><line x1="154.7" y1="82.8" x2="159.3" y2="82.8" stroke="#888" stroke-width="0.4" stroke-dasharray="2,2"/><line x1="154.7" y1="74.8" x2="159.3" y2="74.8" stroke="#888" stroke-width="0.4" stroke-dasharray="2,2"/><line x1="159.3" y1="82.8" x2="164.0" y2="82.8" stroke="#888" stroke-width="0.4" stroke-dasharray="2,2"/><line x1="159.3" y1="74.8" x2="164.0" y2="74.8" stroke="#888" stroke-width="0.4" stroke-dasharray="2,2"/>
        
      <line x1="128" y1="94.75" x2="200" y2="94.75" stroke="#000" stroke-width="0.3"/>
      <text x="164" y="101.75" text-anchor="middle" font-size="7" fill="#000">360.0</text>
      </g>
<g class="view-top">
        <rect x="16" y="129.5" width="96" height="93.5" fill="none" stroke="#ccc" stroke-width="0.3"/>
        <text x="20" y="139.5" font-size="8" fill="#444" font-weight="700">TOP</text>
        <line x1="28.0" y1="176.3" x2="28.3" y2="180.9" stroke="#888" stroke-width="0.4" stroke-dasharray="2,2"/><line x1="28.0" y1="176.3" x2="28.3" y2="180.9" stroke="#888" stroke-width="0.4" stroke-dasharray="2,2"/><line x1="28.3" y1="180.9" x2="29.2" y2="185.6" stroke="#888" stroke-width="0.4" stroke-dasharray="2,2"/><line x1="28.3" y1="180.9" x2="29.2" y2="185.6" stroke="#888" stroke-width="0.4" stroke-dasharray="2,2"/><line x1="29.2" y1="185.6" x2="30.7" y2="190.0" stroke="#888" stroke-width="0.4" stroke-dasharray="2,2"/><line x1="29.2" y1="185.6" x2="30.7" y2="190.0" stroke="#888" stroke-width="0.4" stroke-dasharray="2,2"/><line x1="30.7" y1="190.0" x2="32.8" y2="194.3" stroke="#888" stroke-width="0.4" stroke-dasharray="2,2"/><line x1="30.7" y1="190.0" x2="32.8" y2="194.3" stroke="#888" stroke-width="0.4" stroke-dasharray="2,2"/><line x1="32.8" y1="194.3" x2="35.4" y2="198.2" stroke="#888" stroke-width="0.4" stroke-dasharray="2,2"/><line x1="32.8" y1="194.3" x2="35.4" y2="198.2" stroke="#888" stroke-width="0.4" stroke-dasharray="2,2"/><line x1="35.4" y1="198.2" x2="38.5" y2="201.7" stroke="#888" stroke-width="0.4" stroke-dasharray="2,2"/><line x1="35.4" y1="198.2" x2="38.5" y2="201.7" stroke="#888" stroke-width="0.4" stroke-dasharray="2,2"/><line x1="38.5" y1="201.7" x2="42.1" y2="204.8" stroke="#888" stroke-width="0.4" stroke-dasharray="2,2"/><line x1="38.5" y1="201.7" x2="42.1" y2="204.8" stroke="#888" stroke-width="0.4" stroke-dasharray="2,2"/><line x1="42.1" y1="204.8" x2="46.0" y2="207.4" stroke="#888" stroke-width="0.4" stroke-dasharray="2,2"/><line x1="42.1" y1="204.8" x2="46.0" y2="207.4" stroke="#888" stroke-width="0.4" stroke-dasharray="2,2"/><line x1="46.0" y1="207.4" x2="50.2" y2="209.5" stroke="#888" stroke-width="0.4" stroke-dasharray="2,2"/><line x1="46.0" y1="207.4" x2="50.2" y2="209.5" stroke="#888" stroke-width="0.4" stroke-dasharray="2,2"/><line x1="50.2" y1="209.5" x2="54.7" y2="211.0" stroke="#888" stroke-width="0.4" stroke-dasharray="2,2"/><line x1="50.2" y1="209.5" x2="54.7" y2="211.0" stroke="#888" stroke-width="0.4" stroke-dasharray="2,2"/><line x1="54.7" y1="211.0" x2="59.3" y2="211.9" stroke="#888" stroke-width="0.4" stroke-dasharray="2,2"/><line x1="54.7" y1="211.0" x2="59.3" y2="211.9" stroke="#888" stroke-width="0.4" stroke-dasharray="2,2"/><line x1="59.3" y1="211.9" x2="64.0" y2="212.3" stroke="#888" stroke-width="0.4" stroke-dasharray="2,2"/><line x1="59.3" y1="211.9" x2="64.0" y2="212.3" stroke="#888" stroke-width="0.4" stroke-dasharray="2,2"/><line x1="64.0" y1="212.3" x2="68.7" y2="211.9" stroke="#888" stroke-width="0.4" stroke-dasharray="2,2"/><line x1="64.0" y1="212.3" x2="68.7" y2="211.9" stroke="#888" stroke-width="0.4" stroke-dasharray="2,2"/><line x1="68.7" y1="211.9" x2="73.3" y2="211.0" stroke="#888" stroke-width="0.4" stroke-dasharray="2,2"/><line x1="68.7" y1="211.9" x2="73.3" y2="211.0" stroke="#888" stroke-width="0.4" stroke-dasharray="2,2"/><line x1="73.3" y1="211.0" x2="77.8" y2="209.5" stroke="#888" stroke-width="0.4" stroke-dasharray="2,2"/><line x1="73.3" y1="211.0" x2="77.8" y2="209.5" stroke="#888" stroke-width="0.4" stroke-dasharray="2,2"/><line x1="77.8" y1="209.5" x2="82.0" y2="207.4" stroke="#888" stroke-width="0.4" stroke-dasharray="2,2"/><line x1="77.8" y1="209.5" x2="82.0" y2="207.4" stroke="#888" stroke-width="0.4" stroke-dasharray="2,2"/><line x1="82.0" y1="207.4" x2="85.9" y2="204.8" stroke="#888" stroke-width="0.4" stroke-dasharray="2,2"/><line x1="82.0" y1="207.4" x2="85.9" y2="204.8" stroke="#888" stroke-width="0.4" stroke-dasharray="2,2"/><line x1="85.9" y1="204.8" x2="89.5" y2="201.7" stroke="#888" stroke-width="0.4" stroke-dasharray="2,2"/><line x1="85.9" y1="204.8" x2="89.5" y2="201.7" stroke="#888" stroke-width="0.4" stroke-dasharray="2,2"/><line x1="89.5" y1="201.7" x2="92.6" y2="198.2" stroke="#888" stroke-width="0.4" stroke-dasharray="2,2"/><line x1="89.5" y1="201.7" x2="92.6" y2="198.2" stroke="#888" stroke-width="0.4" stroke-dasharray="2,2"/><line x1="92.6" y1="198.2" x2="95.2" y2="194.3" stroke="#888" stroke-width="0.4" stroke-dasharray="2,2"/><line x1="92.6" y1="198.2" x2="95.2" y2="194.3" stroke="#888" stroke-width="0.4" stroke-dasharray="2,2"/><line x1="95.2" y1="194.3" x2="97.3" y2="190.0" stroke="#888" stroke-width="0.4" stroke-dasharray="2,2"/><line x1="95.2" y1="194.3" x2="97.3" y2="190.0" stroke="#888" stroke-width="0.4" stroke-dasharray="2,2"/><line x1="97.3" y1="190.0" x2="98.8" y2="185.6" stroke="#888" stroke-width="0.4" stroke-dasharray="2,2"/><line x1="97.3" y1="190.0" x2="98.8" y2="185.6" stroke="#888" stroke-width="0.4" stroke-dasharray="2,2"/><line x1="98.8" y1="185.6" x2="99.7" y2="180.9" stroke="#888" stroke-width="0.4" stroke-dasharray="2,2"/><line x1="98.8" y1="185.6" x2="99.7" y2="180.9" stroke="#888" stroke-width="0.4" stroke-dasharray="2,2"/><line x1="99.7" y1="180.9" x2="100.0" y2="176.3" stroke="#888" stroke-width="0.4" stroke-dasharray="2,2"/><line x1="99.7" y1="180.9" x2="100.0" y2="176.3" stroke="#888" stroke-width="0.4" stroke-dasharray="2,2"/><line x1="100.0" y1="176.3" x2="99.7" y2="171.6" stroke="#888" stroke-width="0.4" stroke-dasharray="2,2"/><line x1="100.0" y1="176.3" x2="99.7" y2="171.6" stroke="#888" stroke-width="0.4" stroke-dasharray="2,2"/><line x1="99.7" y1="171.6" x2="98.8" y2="166.9" stroke="#888" stroke-width="0.4" stroke-dasharray="2,2"/><line x1="99.7" y1="171.6" x2="98.8" y2="166.9" stroke="#888" stroke-width="0.4" stroke-dasharray="2,2"/><line x1="98.8" y1="166.9" x2="97.3" y2="162.5" stroke="#888" stroke-width="0.4" stroke-dasharray="2,2"/><line x1="98.8" y1="166.9" x2="97.3" y2="162.5" stroke="#888" stroke-width="0.4" stroke-dasharray="2,2"/><line x1="97.3" y1="162.5" x2="95.2" y2="158.3" stroke="#888" stroke-width="0.4" stroke-dasharray="2,2"/><line x1="97.3" y1="162.5" x2="95.2" y2="158.3" stroke="#888" stroke-width="0.4" stroke-dasharray="2,2"/><line x1="95.2" y1="158.3" x2="92.6" y2="154.3" stroke="#888" stroke-width="0.4" stroke-dasharray="2,2"/><line x1="95.2" y1="158.3" x2="92.6" y2="154.3" stroke="#888" stroke-width="0.4" stroke-dasharray="2,2"/><line x1="92.6" y1="154.3" x2="89.5" y2="150.8" stroke="#888" stroke-width="0.4" stroke-dasharray="2,2"/><line x1="92.6" y1="154.3" x2="89.5" y2="150.8" stroke="#888" stroke-width="0.4" stroke-dasharray="2,2"/><line x1="89.5" y1="150.8" x2="85.9" y2="147.7" stroke="#888" stroke-width="0.4" stroke-dasharray="2,2"/><line x1="89.5" y1="150.8" x2="85.9" y2="147.7" stroke="#888" stroke-width="0.4" stroke-dasharray="2,2"/><line x1="85.9" y1="147.7" x2="82.0" y2="145.1" stroke="#888" stroke-width="0.4" stroke-dasharray="2,2"/><line x1="85.9" y1="147.7" x2="82.0" y2="145.1" stroke="#888" stroke-width="0.4" stroke-dasharray="2,2"/><line x1="82.0" y1="145.1" x2="77.8" y2="143.0" stroke="#888" stroke-width="0.4" stroke-dasharray="2,2"/><line x1="82.0" y1="145.1" x2="77.8" y2="143.0" stroke="#888" stroke-width="0.4" stroke-dasharray="2,2"/><line x1="77.8" y1="143.0" x2="73.3" y2="141.5" stroke="#888" stroke-width="0.4" stroke-dasharray="2,2"/><line x1="77.8" y1="143.0" x2="73.3" y2="141.5" stroke="#888" stroke-width="0.4" stroke-dasharray="2,2"/><line x1="73.3" y1="141.5" x2="68.7" y2="140.6" stroke="#888" stroke-width="0.4" stroke-dasharray="2,2"/><line x1="73.3" y1="141.5" x2="68.7" y2="140.6" stroke="#888" stroke-width="0.4" stroke-dasharray="2,2"/><line x1="68.7" y1="140.6" x2="64.0" y2="140.3" stroke="#888" stroke-width="0.4" stroke-dasharray="2,2"/><line x1="68.7" y1="140.6" x2="64.0" y2="140.3" stroke="#888" stroke-width="0.4" stroke-dasharray="2,2"/><line x1="64.0" y1="140.3" x2="59.3" y2="140.6" stroke="#888" stroke-width="0.4" stroke-dasharray="2,2"/><line x1="64.0" y1="140.3" x2="59.3" y2="140.6" stroke="#888" stroke-width="0.4" stroke-dasharray="2,2"/><line x1="59.3" y1="140.6" x2="54.7" y2="141.5" stroke="#888" stroke-width="0.4" stroke-dasharray="2,2"/><line x1="59.3" y1="140.6" x2="54.7" y2="141.5" stroke="#888" stroke-width="0.4" stroke-dasharray="2,2"/><line x1="54.7" y1="141.5" x2="50.2" y2="143.0" stroke="#888" stroke-width="0.4" stroke-dasharray="2,2"/><line x1="54.7" y1="141.5" x2="50.2" y2="143.0" stroke="#888" stroke-width="0.4" stroke-dasharray="2,2"/><line x1="50.2" y1="143.0" x2="46.0" y2="145.1" stroke="#888" stroke-width="0.4" stroke-dasharray="2,2"/><line x1="50.2" y1="143.0" x2="46.0" y2="145.1" stroke="#888" stroke-width="0.4" stroke-dasharray="2,2"/><line x1="46.0" y1="145.1" x2="42.1" y2="147.7" stroke="#888" stroke-width="0.4" stroke-dasharray="2,2"/><line x1="46.0" y1="145.1" x2="42.1" y2="147.7" stroke="#888" stroke-width="0.4" stroke-dasharray="2,2"/><line x1="42.1" y1="147.7" x2="38.5" y2="150.8" stroke="#888" stroke-width="0.4" stroke-dasharray="2,2"/><line x1="42.1" y1="147.7" x2="38.5" y2="150.8" stroke="#888" stroke-width="0.4" stroke-dasharray="2,2"/><line x1="38.5" y1="150.8" x2="35.4" y2="154.3" stroke="#888" stroke-width="0.4" stroke-dasharray="2,2"/><line x1="38.5" y1="150.8" x2="35.4" y2="154.3" stroke="#888" stroke-width="0.4" stroke-dasharray="2,2"/><line x1="35.4" y1="154.3" x2="32.8" y2="158.3" stroke="#888" stroke-width="0.4" stroke-dasharray="2,2"/><line x1="35.4" y1="154.3" x2="32.8" y2="158.3" stroke="#888" stroke-width="0.4" stroke-dasharray="2,2"/><line x1="32.8" y1="158.3" x2="30.7" y2="162.5" stroke="#888" stroke-width="0.4" stroke-dasharray="2,2"/><line x1="32.8" y1="158.3" x2="30.7" y2="162.5" stroke="#888" stroke-width="0.4" stroke-dasharray="2,2"/><line x1="30.7" y1="162.5" x2="29.2" y2="166.9" stroke="#888" stroke-width="0.4" stroke-dasharray="2,2"/><line x1="30.7" y1="162.5" x2="29.2" y2="166.9" stroke="#888" stroke-width="0.4" stroke-dasharray="2,2"/><line x1="29.2" y1="166.9" x2="28.3" y2="171.6" stroke="#888" stroke-width="0.4" stroke-dasharray="2,2"/><line x1="29.2" y1="166.9" x2="28.3" y2="171.6" stroke="#888" stroke-width="0.4" stroke-dasharray="2,2"/><line x1="28.3" y1="171.6" x2="28.0" y2="176.3" stroke="#888" stroke-width="0.4" stroke-dasharray="2,2"/><line x1="28.3" y1="171.6" x2="28.0" y2="176.3" stroke="#888" stroke-width="0.4" stroke-dasharray="2,2"/>
        
      <line x1="28" y1="224.25" x2="100" y2="224.25" stroke="#000" stroke-width="0.3"/>
      <text x="64" y="231.25" text-anchor="middle" font-size="7" fill="#000">360.0</text>
      </g>
<g class="view-iso">
        <rect x="116" y="129.5" width="96" height="93.5" fill="none" stroke="#ccc" stroke-width="0.3"/>
        <text x="120" y="139.5" font-size="8" fill="#444" font-weight="700">ISO</text>
        <line x1="138.5" y1="194.2" x2="142.1" y2="196.0" stroke="#888" stroke-width="0.4" stroke-dasharray="2,2"/><line x1="138.5" y1="187.7" x2="142.1" y2="189.5" stroke="#888" stroke-width="0.4" stroke-dasharray="2,2"/><line x1="142.1" y1="196.0" x2="146.0" y2="197.5" stroke="#888" stroke-width="0.4" stroke-dasharray="2,2"/><line x1="142.1" y1="189.5" x2="146.0" y2="191.0" stroke="#888" stroke-width="0.4" stroke-dasharray="2,2"/><line x1="146.0" y1="197.5" x2="150.2" y2="198.7" stroke="#888" stroke-width="0.4" stroke-dasharray="2,2"/><line x1="146.0" y1="191.0" x2="150.2" y2="192.2" stroke="#888" stroke-width="0.4" stroke-dasharray="2,2"/><line x1="150.2" y1="198.7" x2="154.7" y2="199.6" stroke="#888" stroke-width="0.4" stroke-dasharray="2,2"/><line x1="150.2" y1="192.2" x2="154.7" y2="193.1" stroke="#888" stroke-width="0.4" stroke-dasharray="2,2"/><line x1="154.7" y1="199.6" x2="159.3" y2="200.1" stroke="#888" stroke-width="0.4" stroke-dasharray="2,2"/><line x1="154.7" y1="193.1" x2="159.3" y2="193.6" stroke="#888" stroke-width="0.4" stroke-dasharray="2,2"/><line x1="159.3" y1="200.1" x2="164.0" y2="200.3" stroke="#888" stroke-width="0.4" stroke-dasharray="2,2"/><line x1="159.3" y1="193.6" x2="164.0" y2="193.8" stroke="#888" stroke-width="0.4" stroke-dasharray="2,2"/><line x1="164.0" y1="200.3" x2="168.7" y2="200.1" stroke="#888" stroke-width="0.4" stroke-dasharray="2,2"/><line x1="164.0" y1="193.8" x2="168.7" y2="193.6" stroke="#888" stroke-width="0.4" stroke-dasharray="2,2"/><line x1="168.7" y1="200.1" x2="173.3" y2="199.6" stroke="#888" stroke-width="0.4" stroke-dasharray="2,2"/><line x1="168.7" y1="193.6" x2="173.3" y2="193.1" stroke="#888" stroke-width="0.4" stroke-dasharray="2,2"/><line x1="173.3" y1="199.6" x2="177.8" y2="198.7" stroke="#888" stroke-width="0.4" stroke-dasharray="2,2"/><line x1="173.3" y1="193.1" x2="177.8" y2="192.2" stroke="#888" stroke-width="0.4" stroke-dasharray="2,2"/><line x1="177.8" y1="198.7" x2="182.0" y2="197.5" stroke="#888" stroke-width="0.4" stroke-dasharray="2,2"/><line x1="177.8" y1="192.2" x2="182.0" y2="191.0" stroke="#888" stroke-width="0.4" stroke-dasharray="2,2"/><line x1="182.0" y1="197.5" x2="185.9" y2="196.0" stroke="#888" stroke-width="0.4" stroke-dasharray="2,2"/><line x1="182.0" y1="191.0" x2="185.9" y2="189.5" stroke="#888" stroke-width="0.4" stroke-dasharray="2,2"/><line x1="185.9" y1="196.0" x2="189.5" y2="194.2" stroke="#888" stroke-width="0.4" stroke-dasharray="2,2"/><line x1="185.9" y1="189.5" x2="189.5" y2="187.7" stroke="#888" stroke-width="0.4" stroke-dasharray="2,2"/><line x1="189.5" y1="194.2" x2="192.6" y2="192.2" stroke="#888" stroke-width="0.4" stroke-dasharray="2,2"/><line x1="189.5" y1="187.7" x2="192.6" y2="185.6" stroke="#888" stroke-width="0.4" stroke-dasharray="2,2"/><line x1="192.6" y1="192.2" x2="195.2" y2="189.9" stroke="#888" stroke-width="0.4" stroke-dasharray="2,2"/><line x1="192.6" y1="185.6" x2="195.2" y2="183.4" stroke="#888" stroke-width="0.4" stroke-dasharray="2,2"/><line x1="195.2" y1="189.9" x2="197.3" y2="187.5" stroke="#888" stroke-width="0.4" stroke-dasharray="2,2"/><line x1="195.2" y1="183.4" x2="197.3" y2="180.9" stroke="#888" stroke-width="0.4" stroke-dasharray="2,2"/><line x1="197.3" y1="187.5" x2="198.8" y2="184.9" stroke="#888" stroke-width="0.4" stroke-dasharray="2,2"/><line x1="197.3" y1="180.9" x2="198.8" y2="178.4" stroke="#888" stroke-width="0.4" stroke-dasharray="2,2"/><line x1="198.8" y1="184.9" x2="199.7" y2="182.2" stroke="#888" stroke-width="0.4" stroke-dasharray="2,2"/><line x1="198.8" y1="178.4" x2="199.7" y2="175.7" stroke="#888" stroke-width="0.4" stroke-dasharray="2,2"/><line x1="199.7" y1="182.2" x2="200.0" y2="179.5" stroke="#888" stroke-width="0.4" stroke-dasharray="2,2"/><line x1="199.7" y1="175.7" x2="200.0" y2="173.0" stroke="#888" stroke-width="0.4" stroke-dasharray="2,2"/><line x1="200.0" y1="179.5" x2="199.7" y2="176.8" stroke="#000" stroke-width="0.4" /><line x1="200.0" y1="173.0" x2="199.7" y2="170.3" stroke="#000" stroke-width="0.4" /><line x1="199.7" y1="176.8" x2="198.8" y2="174.1" stroke="#000" stroke-width="0.4" /><line x1="199.7" y1="170.3" x2="198.8" y2="167.6" stroke="#000" stroke-width="0.4" /><line x1="198.8" y1="174.1" x2="197.3" y2="171.6" stroke="#000" stroke-width="0.4" /><line x1="198.8" y1="167.6" x2="197.3" y2="165.0" stroke="#000" stroke-width="0.4" /><line x1="197.3" y1="171.6" x2="195.2" y2="169.1" stroke="#000" stroke-width="0.4" /><line x1="197.3" y1="165.0" x2="195.2" y2="162.6" stroke="#000" stroke-width="0.4" /><line x1="195.2" y1="169.1" x2="192.6" y2="166.9" stroke="#000" stroke-width="0.4" /><line x1="195.2" y1="162.6" x2="192.6" y2="160.3" stroke="#000" stroke-width="0.4" /><line x1="192.6" y1="166.9" x2="189.5" y2="164.8" stroke="#000" stroke-width="0.4" /><line x1="192.6" y1="160.3" x2="189.5" y2="158.3" stroke="#000" stroke-width="0.4" /><line x1="189.5" y1="164.8" x2="185.9" y2="163.0" stroke="#000" stroke-width="0.4" /><line x1="189.5" y1="158.3" x2="185.9" y2="156.5" stroke="#000" stroke-width="0.4" /><line x1="185.9" y1="163.0" x2="182.0" y2="161.5" stroke="#000" stroke-width="0.4" /><line x1="185.9" y1="156.5" x2="182.0" y2="155.0" stroke="#000" stroke-width="0.4" /><line x1="182.0" y1="161.5" x2="177.8" y2="160.3" stroke="#000" stroke-width="0.4" /><line x1="182.0" y1="155.0" x2="177.8" y2="153.8" stroke="#000" stroke-width="0.4" /><line x1="177.8" y1="160.3" x2="173.3" y2="159.4" stroke="#000" stroke-width="0.4" /><line x1="177.8" y1="153.8" x2="173.3" y2="152.9" stroke="#000" stroke-width="0.4" /><line x1="173.3" y1="159.4" x2="168.7" y2="158.9" stroke="#000" stroke-width="0.4" /><line x1="173.3" y1="152.9" x2="168.7" y2="152.4" stroke="#000" stroke-width="0.4" /><line x1="168.7" y1="158.9" x2="164.0" y2="158.7" stroke="#000" stroke-width="0.4" /><line x1="168.7" y1="152.4" x2="164.0" y2="152.2" stroke="#000" stroke-width="0.4" /><line x1="164.0" y1="158.7" x2="159.3" y2="158.9" stroke="#000" stroke-width="0.4" /><line x1="164.0" y1="152.2" x2="159.3" y2="152.4" stroke="#000" stroke-width="0.4" /><line x1="159.3" y1="158.9" x2="154.7" y2="159.4" stroke="#000" stroke-width="0.4" /><line x1="159.3" y1="152.4" x2="154.7" y2="152.9" stroke="#000" stroke-width="0.4" /><line x1="154.7" y1="159.4" x2="150.2" y2="160.3" stroke="#000" stroke-width="0.4" /><line x1="154.7" y1="152.9" x2="150.2" y2="153.8" stroke="#000" stroke-width="0.4" /><line x1="150.2" y1="160.3" x2="146.0" y2="161.5" stroke="#000" stroke-width="0.4" /><line x1="150.2" y1="153.8" x2="146.0" y2="155.0" stroke="#000" stroke-width="0.4" /><line x1="146.0" y1="161.5" x2="142.1" y2="163.0" stroke="#000" stroke-width="0.4" /><line x1="146.0" y1="155.0" x2="142.1" y2="156.5" stroke="#000" stroke-width="0.4" /><line x1="142.1" y1="163.0" x2="138.5" y2="164.8" stroke="#000" stroke-width="0.4" /><line x1="142.1" y1="156.5" x2="138.5" y2="158.3" stroke="#000" stroke-width="0.4" /><line x1="138.5" y1="164.8" x2="135.4" y2="166.9" stroke="#000" stroke-width="0.4" /><line x1="138.5" y1="158.3" x2="135.4" y2="160.3" stroke="#000" stroke-width="0.4" /><line x1="135.4" y1="166.9" x2="132.8" y2="169.1" stroke="#000" stroke-width="0.4" /><line x1="135.4" y1="160.3" x2="132.8" y2="162.6" stroke="#000" stroke-width="0.4" /><line x1="132.8" y1="169.1" x2="130.7" y2="171.6" stroke="#000" stroke-width="0.4" /><line x1="132.8" y1="162.6" x2="130.7" y2="165.0" stroke="#000" stroke-width="0.4" /><line x1="130.7" y1="171.6" x2="129.2" y2="174.1" stroke="#000" stroke-width="0.4" /><line x1="130.7" y1="165.0" x2="129.2" y2="167.6" stroke="#000" stroke-width="0.4" /><line x1="129.2" y1="174.1" x2="128.3" y2="176.8" stroke="#000" stroke-width="0.4" /><line x1="129.2" y1="167.6" x2="128.3" y2="170.3" stroke="#000" stroke-width="0.4" /><line x1="128.3" y1="176.8" x2="128.0" y2="179.5" stroke="#000" stroke-width="0.4" /><line x1="128.3" y1="170.3" x2="128.0" y2="173.0" stroke="#000" stroke-width="0.4" /><line x1="128.0" y1="179.5" x2="128.3" y2="182.2" stroke="#888" stroke-width="0.4" stroke-dasharray="2,2"/><line x1="128.0" y1="173.0" x2="128.3" y2="175.7" stroke="#888" stroke-width="0.4" stroke-dasharray="2,2"/><line x1="128.3" y1="182.2" x2="129.2" y2="184.9" stroke="#888" stroke-width="0.4" stroke-dasharray="2,2"/><line x1="128.3" y1="175.7" x2="129.2" y2="178.4" stroke="#888" stroke-width="0.4" stroke-dasharray="2,2"/><line x1="129.2" y1="184.9" x2="130.7" y2="187.5" stroke="#888" stroke-width="0.4" stroke-dasharray="2,2"/><line x1="129.2" y1="178.4" x2="130.7" y2="180.9" stroke="#888" stroke-width="0.4" stroke-dasharray="2,2"/><line x1="130.7" y1="187.5" x2="132.8" y2="189.9" stroke="#888" stroke-width="0.4" stroke-dasharray="2,2"/><line x1="130.7" y1="180.9" x2="132.8" y2="183.4" stroke="#888" stroke-width="0.4" stroke-dasharray="2,2"/><line x1="132.8" y1="189.9" x2="135.4" y2="192.2" stroke="#888" stroke-width="0.4" stroke-dasharray="2,2"/><line x1="132.8" y1="183.4" x2="135.4" y2="185.6" stroke="#888" stroke-width="0.4" stroke-dasharray="2,2"/><line x1="135.4" y1="192.2" x2="138.5" y2="194.2" stroke="#888" stroke-width="0.4" stroke-dasharray="2,2"/><line x1="135.4" y1="185.6" x2="138.5" y2="187.7" stroke="#888" stroke-width="0.4" stroke-dasharray="2,2"/>
        
      <line x1="128" y1="212.30059601453743" x2="200" y2="212.30059601453743" stroke="#000" stroke-width="0.3"/>
      <text x="164" y="219.30059601453743" text-anchor="middle" font-size="7" fill="#000">360.0</text>
      </g>
<g class="rev-table"><rect x="228" y="28" width="18" height="14" fill="#1a1a2e" stroke="#000" stroke-width="0.4"/>
        <text x="237" y="37" text-anchor="middle" font-size="6" fill="#fff" font-weight="700">REV</text><rect x="246" y="28" width="39.6" height="14" fill="#1a1a2e" stroke="#000" stroke-width="0.4"/>
        <text x="265.8" y="37" text-anchor="middle" font-size="6" fill="#fff" font-weight="700">DATE</text><rect x="285.6" y="28" width="21.599999999999998" height="14" fill="#1a1a2e" stroke="#000" stroke-width="0.4"/>
        <text x="296.40000000000003" y="37" text-anchor="middle" font-size="6" fill="#fff" font-weight="700">BY</text><rect x="307.20000000000005" y="28" width="100.80000000000001" height="14" fill="#1a1a2e" stroke="#000" stroke-width="0.4"/>
        <text x="357.6" y="37" text-anchor="middle" font-size="6" fill="#fff" font-weight="700">NOTE</text><rect x="228" y="42" width="18" height="46" fill="#fff" stroke="#000" stroke-width="0.3"/>
          <text x="230" y="67" font-size="6" fill="#000">A</text><rect x="246" y="42" width="39.6" height="46" fill="#fff" stroke="#000" stroke-width="0.3"/>
          <text x="248" y="67" font-size="6" fill="#000">2026-05-09</text><rect x="285.6" y="42" width="21.599999999999998" height="46" fill="#fff" stroke="#000" stroke-width="0.3"/>
          <text x="287.6" y="67" font-size="6" fill="#000">AD</text><rect x="307.20000000000005" y="42" width="100.80000000000001" height="46" fill="#fff" stroke="#000" stroke-width="0.3"/>
          <text x="309.20000000000005" y="67" font-size="6" fill="#000">Initial release</text></g>
<rect x="228" y="92" width="180" height="64" fill="#fff" stroke="#000" stroke-width="0.4"/>
<rect x="228" y="92" width="180" height="11" fill="#1a1a2e"/>
<text x="231" y="100" font-size="7" fill="#fff" font-weight="700">GENERAL NOTES</text>
<text x="231" y="110" font-size="6" fill="#000">1. Dims in mm; tolerances per ASME Y14.5-2018.</text>
<text x="231" y="117" font-size="6" fill="#000">2. Remove all burrs and sharp edges.</text>
<text x="231" y="124" font-size="6" fill="#000">3. Inspect per drawing rev current.</text>
<text x="231" y="131" font-size="6" fill="#000">4. Material per cert lot traceability.</text>
<rect x="228" y="160" width="180" height="63" fill="#fff" stroke="#000" stroke-width="0.4"/>
<rect x="228" y="160" width="180" height="11" fill="#1a1a2e"/>
<text x="231" y="168" font-size="7" fill="#fff" font-weight="700">GD&amp;T CALLOUTS</text>
<text x="231" y="178" font-size="6" fill="#000">⏥ 0.500  → face-A</text>
<text x="231" y="185" font-size="6" fill="#000">⊥ 1.000 A → B</text>
<g class="title-block">
      <rect x="228" y="221" width="180" height="64" fill="#fff" stroke="#000" stroke-width="0.6"/>
      <line x1="228" y1="237" x2="408" y2="237" stroke="#000" stroke-width="0.4"/>
      <line x1="228" y1="253" x2="408" y2="253" stroke="#000" stroke-width="0.4"/>
      <line x1="228" y1="269" x2="408" y2="269" stroke="#000" stroke-width="0.4"/>
      <line x1="327" y1="221" x2="327" y2="285" stroke="#000" stroke-width="0.4"/>

      <text x="231" y="231" font-size="6" fill="#666">PART NO.</text>
      <text x="231" y="234" font-size="9" fill="#000" font-weight="700">GE9X-BRG-RAC-0003</text>

      <text x="330" y="231" font-size="6" fill="#666">DWG NO.</text>
      <text x="330" y="234" font-size="9" fill="#000" font-weight="700">GE9X-BRG-RAC-0003-DWG</text>

      <text x="231" y="245" font-size="6" fill="#666">TITLE</text>
      <text x="231" y="253" font-size="7" fill="#000">Bearing #HPC Front Ball Inner Race</text>
      <text x="231" y="260" font-size="6" fill="#666">MATERIAL</text>
      <text x="231" y="267" font-size="7" fill="#000">Steel AISI 4340</text>

      <text x="330" y="245" font-size="6" fill="#666">SCALE</text>
      <text x="330" y="253" font-size="7" fill="#000" font-weight="700">1:2</text>
      <text x="330" y="260" font-size="6" fill="#666">SHEET / SIZE</text>
      <text x="330" y="267" font-size="7" fill="#000">1 of 1 / A3</text>

      <text x="231" y="261" font-size="6" fill="#666">DRAWN BY</text>
      <text x="231" y="269" font-size="7" fill="#000">ArchDisc Auto-Drawing</text>
      <text x="231" y="276" font-size="6" fill="#666">APPROVED BY</text>
      <text x="231" y="283" font-size="7" fill="#000">— pending QA review —</text>

      <text x="330" y="261" font-size="6" fill="#666">DATE</text>
      <text x="330" y="269" font-size="7" fill="#000">2026-05-09</text>
      <text x="330" y="276" font-size="6" fill="#666">REV</text>
      <text x="330" y="283" font-size="9" fill="#000" font-weight="700">A</text>

      <text x="318" y="281" text-anchor="middle" font-size="6" fill="#666">PROPRIETARY — REPRODUCTION FORBIDDEN</text>
      <text x="318" y="289" text-anchor="middle" font-size="6" fill="#666">ASME Y14.5-2018 / ISO 1101 dimensioning</text>
    </g>
<rect x="12" y="229" width="204" height="54" fill="#fafafc" stroke="#000" stroke-width="0.4"/>
<line x1="12" y1="229" x2="12" y2="283" stroke="#000" stroke-width="0.3"/>
<text x="15" y="237" font-size="6" fill="#666" font-weight="700">HEAT TREAT</text>
<text x="15" y="247" font-size="7" fill="#000">HT per AMS-H-6875, Q&amp;T to HRC 35-40</text>
<line x1="63" y1="229" x2="63" y2="283" stroke="#000" stroke-width="0.3"/>
<text x="66" y="237" font-size="6" fill="#666" font-weight="700">SURFACE FINISH</text>
<text x="66" y="247" font-size="7" fill="#000">Ra ≤ 3.2 μm (125 μin)</text>
<line x1="114" y1="229" x2="114" y2="283" stroke="#000" stroke-width="0.3"/>
<text x="117" y="237" font-size="6" fill="#666" font-weight="700">NDT</text>
<text x="117" y="247" font-size="7" fill="#000">Visual only</text>
<line x1="165" y1="229" x2="165" y2="283" stroke="#000" stroke-width="0.3"/>
<text x="168" y="237" font-size="6" fill="#666" font-weight="700">COATING</text>
<text x="168" y="247" font-size="7" fill="#000">No coating</text>
<text x="15" y="279" font-size="6" fill="#444">Default tol: linear ±0.1mm  angular ±0.5°  Ra 1.6μm</text>
</svg>