ISO-10303-21;
HEADER;
FILE_DESCRIPTION(('Open CASCADE Model'),'2;1');
FILE_NAME('Open CASCADE Shape Model','2026-07-02T05:48:56',('Author'),(
    'Open CASCADE'),'Open CASCADE STEP processor 7.9','build123d',
  'Unknown');
FILE_SCHEMA(('AUTOMOTIVE_DESIGN { 1 0 10303 214 1 1 1 1 }'));
ENDSEC;
DATA;
#1 = APPLICATION_PROTOCOL_DEFINITION('international standard',
  'automotive_design',2000,#2);
#2 = APPLICATION_CONTEXT(
  'core data for automotive mechanical design processes');
#3 = SHAPE_DEFINITION_REPRESENTATION(#4,#10);
#4 = PRODUCT_DEFINITION_SHAPE('','',#5);
#5 = PRODUCT_DEFINITION('design','',#6,#9);
#6 = PRODUCT_DEFINITION_FORMATION('','',#7);
#7 = PRODUCT('COMPOUND','COMPOUND','',(#8));
#8 = PRODUCT_CONTEXT('',#2,'mechanical');
#9 = PRODUCT_DEFINITION_CONTEXT('part definition',#2,'design');
#10 = SHAPE_REPRESENTATION('',(#11,#15,#736,#1102),#1504);
#11 = AXIS2_PLACEMENT_3D('',#12,#13,#14);
#12 = CARTESIAN_POINT('',(0.,0.,0.));
#13 = DIRECTION('',(0.,0.,1.));
#14 = DIRECTION('',(1.,0.,-0.));
#15 = MANIFOLD_SOLID_BREP('',#16);
#16 = CLOSED_SHELL('',(#17,#135,#487,#539,#654,#679,#704,#729));
#17 = ADVANCED_FACE('',(#18),#33,.T.);
#18 = FACE_BOUND('',#19,.T.);
#19 = EDGE_LOOP('',(#20,#56,#82,#111));
#20 = ORIENTED_EDGE('',*,*,#21,.F.);
#21 = EDGE_CURVE('',#22,#24,#26,.T.);
#22 = VERTEX_POINT('',#23);
#23 = CARTESIAN_POINT('',(35.532116774457,35.177672997604,7.455506117909
    ));
#24 = VERTEX_POINT('',#25);
#25 = CARTESIAN_POINT('',(15.467731297042,47.547337344193,7.455506117909
    ));
#26 = SURFACE_CURVE('',#27,(#32,#44),.PCURVE_S1.);
#27 = CIRCLE('',#28,50.);
#28 = AXIS2_PLACEMENT_3D('',#29,#30,#31);
#29 = CARTESIAN_POINT('',(0.,0.,7.455506117909));
#30 = DIRECTION('',(0.,0.,1.));
#31 = DIRECTION('',(0.,-1.,0.));
#32 = PCURVE('',#33,#38);
#33 = CYLINDRICAL_SURFACE('',#34,50.);
#34 = AXIS2_PLACEMENT_3D('',#35,#36,#37);
#35 = CARTESIAN_POINT('',(0.,0.,-47.5));
#36 = DIRECTION('',(0.,0.,1.));
#37 = DIRECTION('',(1.,0.,-0.));
#38 = DEFINITIONAL_REPRESENTATION('',(#39),#43);
#39 = LINE('',#40,#41);
#40 = CARTESIAN_POINT('',(-1.570796326795,54.955506117909));
#41 = VECTOR('',#42,1.);
#42 = DIRECTION('',(1.,0.));
#43 = ( GEOMETRIC_REPRESENTATION_CONTEXT(2) 
PARAMETRIC_REPRESENTATION_CONTEXT() REPRESENTATION_CONTEXT('2D SPACE',''
  ) );
#44 = PCURVE('',#45,#50);
#45 = CONICAL_SURFACE('',#46,0.1,0.784842299086);
#46 = AXIS2_PLACEMENT_3D('',#47,#48,#49);
#47 = CARTESIAN_POINT('',(0.,0.,-42.5));
#48 = DIRECTION('',(0.,0.,1.));
#49 = DIRECTION('',(1.,0.,0.));
#50 = DEFINITIONAL_REPRESENTATION('',(#51),#55);
#51 = LINE('',#52,#53);
#52 = CARTESIAN_POINT('',(-1.570796326795,49.955506117909));
#53 = VECTOR('',#54,1.);
#54 = DIRECTION('',(1.,0.));
#55 = ( GEOMETRIC_REPRESENTATION_CONTEXT(2) 
PARAMETRIC_REPRESENTATION_CONTEXT() REPRESENTATION_CONTEXT('2D SPACE',''
  ) );
#56 = ORIENTED_EDGE('',*,*,#57,.F.);
#57 = EDGE_CURVE('',#58,#22,#60,.T.);
#58 = VERTEX_POINT('',#59);
#59 = CARTESIAN_POINT('',(35.532116774457,35.177672997604,-47.5));
#60 = SURFACE_CURVE('',#61,(#65,#71),.PCURVE_S1.);
#61 = LINE('',#62,#63);
#62 = CARTESIAN_POINT('',(35.532116774457,35.177672997604,-47.5));
#63 = VECTOR('',#64,1.);
#64 = DIRECTION('',(0.,0.,1.));
#65 = PCURVE('',#33,#66);
#66 = DEFINITIONAL_REPRESENTATION('',(#67),#70);
#67 = B_SPLINE_CURVE_WITH_KNOTS('',1,(#68,#69),.UNSPECIFIED.,.F.,.F.,(2,
    2),(-5.999999999062E-07,54.955506717909),.PIECEWISE_BEZIER_KNOTS.);
#68 = CARTESIAN_POINT('',(0.780385550443,-5.999999999062E-07));
#69 = CARTESIAN_POINT('',(0.780385550443,54.955506717909));
#70 = ( GEOMETRIC_REPRESENTATION_CONTEXT(2) 
PARAMETRIC_REPRESENTATION_CONTEXT() REPRESENTATION_CONTEXT('2D SPACE',''
  ) );
#71 = PCURVE('',#72,#77);
#72 = CYLINDRICAL_SURFACE('',#73,35.19281095);
#73 = AXIS2_PLACEMENT_3D('',#74,#75,#76);
#74 = CARTESIAN_POINT('',(34.5,0.,70.3856219));
#75 = DIRECTION('',(0.,0.,-1.));
#76 = DIRECTION('',(-1.,0.,0.));
#77 = DEFINITIONAL_REPRESENTATION('',(#78),#81);
#78 = B_SPLINE_CURVE_WITH_KNOTS('',1,(#79,#80),.UNSPECIFIED.,.F.,.F.,(2,
    2),(-5.999999999062E-07,54.955506717909),.PIECEWISE_BEZIER_KNOTS.);
#79 = CARTESIAN_POINT('',(1.600128021482,117.8856225));
#80 = CARTESIAN_POINT('',(1.600128021482,62.930115182091));
#81 = ( GEOMETRIC_REPRESENTATION_CONTEXT(2) 
PARAMETRIC_REPRESENTATION_CONTEXT() REPRESENTATION_CONTEXT('2D SPACE',''
  ) );
#82 = ORIENTED_EDGE('',*,*,#83,.T.);
#83 = EDGE_CURVE('',#58,#84,#86,.T.);
#84 = VERTEX_POINT('',#85);
#85 = CARTESIAN_POINT('',(15.467731297042,47.547337344193,-47.5));
#86 = SURFACE_CURVE('',#87,(#92,#99),.PCURVE_S1.);
#87 = CIRCLE('',#88,50.);
#88 = AXIS2_PLACEMENT_3D('',#89,#90,#91);
#89 = CARTESIAN_POINT('',(0.,0.,-47.5));
#90 = DIRECTION('',(0.,0.,1.));
#91 = DIRECTION('',(1.,0.,-0.));
#92 = PCURVE('',#33,#93);
#93 = DEFINITIONAL_REPRESENTATION('',(#94),#98);
#94 = LINE('',#95,#96);
#95 = CARTESIAN_POINT('',(0.,0.));
#96 = VECTOR('',#97,1.);
#97 = DIRECTION('',(1.,0.));
#98 = ( GEOMETRIC_REPRESENTATION_CONTEXT(2) 
PARAMETRIC_REPRESENTATION_CONTEXT() REPRESENTATION_CONTEXT('2D SPACE',''
  ) );
#99 = PCURVE('',#100,#105);
#100 = PLANE('',#101);
#101 = AXIS2_PLACEMENT_3D('',#102,#103,#104);
#102 = CARTESIAN_POINT('',(0.,0.,-47.5));
#103 = DIRECTION('',(0.,0.,1.));
#104 = DIRECTION('',(1.,0.,-0.));
#105 = DEFINITIONAL_REPRESENTATION('',(#106),#110);
#106 = CIRCLE('',#107,50.);
#107 = AXIS2_PLACEMENT_2D('',#108,#109);
#108 = CARTESIAN_POINT('',(0.,0.));
#109 = DIRECTION('',(1.,0.));
#110 = ( GEOMETRIC_REPRESENTATION_CONTEXT(2) 
PARAMETRIC_REPRESENTATION_CONTEXT() REPRESENTATION_CONTEXT('2D SPACE',''
  ) );
#111 = ORIENTED_EDGE('',*,*,#112,.T.);
#112 = EDGE_CURVE('',#84,#24,#113,.T.);
#113 = SURFACE_CURVE('',#114,(#118,#124),.PCURVE_S1.);
#114 = LINE('',#115,#116);
#115 = CARTESIAN_POINT('',(15.467731297042,47.547337344193,-47.5));
#116 = VECTOR('',#117,1.);
#117 = DIRECTION('',(0.,0.,1.));
#118 = PCURVE('',#33,#119);
#119 = DEFINITIONAL_REPRESENTATION('',(#120),#123);
#120 = B_SPLINE_CURVE_WITH_KNOTS('',1,(#121,#122),.UNSPECIFIED.,.F.,.F.,
  (2,2),(-5.999999999062E-07,54.955506717909),.PIECEWISE_BEZIER_KNOTS.);
#121 = CARTESIAN_POINT('',(1.256282034114,-5.999999999062E-07));
#122 = CARTESIAN_POINT('',(1.256282034114,54.955506717909));
#123 = ( GEOMETRIC_REPRESENTATION_CONTEXT(2) 
PARAMETRIC_REPRESENTATION_CONTEXT() REPRESENTATION_CONTEXT('2D SPACE',''
  ) );
#124 = PCURVE('',#125,#130);
#125 = CYLINDRICAL_SURFACE('',#126,35.19281095);
#126 = AXIS2_PLACEMENT_3D('',#127,#128,#129);
#127 = CARTESIAN_POINT('',(-18.29,37.6,70.3856219));
#128 = DIRECTION('',(0.,0.,-1.));
#129 = DIRECTION('',(-1.,0.,0.));
#130 = DEFINITIONAL_REPRESENTATION('',(#131),#134);
#131 = B_SPLINE_CURVE_WITH_KNOTS('',1,(#132,#133),.UNSPECIFIED.,.F.,.F.,
  (2,2),(-5.999999999062E-07,54.955506717909),.PIECEWISE_BEZIER_KNOTS.);
#132 = CARTESIAN_POINT('',(2.855034365889,117.8856225));
#133 = CARTESIAN_POINT('',(2.855034365889,62.930115182091));
#134 = ( GEOMETRIC_REPRESENTATION_CONTEXT(2) 
PARAMETRIC_REPRESENTATION_CONTEXT() REPRESENTATION_CONTEXT('2D SPACE',''
  ) );
#135 = ADVANCED_FACE('',(#136),#45,.F.);
#136 = FACE_BOUND('',#137,.F.);
#137 = EDGE_LOOP('',(#138,#139,#180,#373,#419,#448));
#138 = ORIENTED_EDGE('',*,*,#21,.F.);
#139 = ORIENTED_EDGE('',*,*,#140,.F.);
#140 = EDGE_CURVE('',#141,#22,#143,.T.);
#141 = VERTEX_POINT('',#142);
#142 = CARTESIAN_POINT('',(33.056382149267,35.163189727062,
    5.715092305822));
#143 = SURFACE_CURVE('',#144,(#154,#167),.PCURVE_S1.);
#144 = B_SPLINE_CURVE_WITH_KNOTS('',8,(#145,#146,#147,#148,#149,#150,
    #151,#152,#153),.UNSPECIFIED.,.F.,.F.,(9,9),(0.,1.),
  .PIECEWISE_BEZIER_KNOTS.);
#145 = CARTESIAN_POINT('',(16.301138513588,30.122008285651,
    -8.312013348165));
#146 = CARTESIAN_POINT('',(18.309528331033,31.33542034476,
    -6.286713417774));
#147 = CARTESIAN_POINT('',(20.442068796172,32.414937223565,
    -4.272936030491));
#148 = CARTESIAN_POINT('',(22.695160575815,33.3468538017,-2.271588271867
    ));
#149 = CARTESIAN_POINT('',(25.06392813939,34.115539050073,
    -0.284543617453));
#150 = CARTESIAN_POINT('',(27.541780217028,34.703596433867,
    1.685479712699));
#151 = CARTESIAN_POINT('',(30.120092247511,35.091600902197,
    3.635015190549));
#152 = CARTESIAN_POINT('',(32.787941642441,35.258187396211,
    5.559919068985));
#153 = CARTESIAN_POINT('',(35.532116774457,35.177672997604,
    7.455506117909));
#154 = PCURVE('',#45,#155);
#155 = DEFINITIONAL_REPRESENTATION('',(#156),#166);
#156 = B_SPLINE_CURVE_WITH_KNOTS('',8,(#157,#158,#159,#160,#161,#162,
    #163,#164,#165),.UNSPECIFIED.,.F.,.F.,(9,9),(0.,1.),
  .PIECEWISE_BEZIER_KNOTS.);
#157 = CARTESIAN_POINT('',(1.074757363363,34.187986651835));
#158 = CARTESIAN_POINT('',(1.040047587309,36.213286582226));
#159 = CARTESIAN_POINT('',(1.004975408366,38.227063969509));
#160 = CARTESIAN_POINT('',(0.969418058574,40.228411728132));
#161 = CARTESIAN_POINT('',(0.933268226357,42.215456382547));
#162 = CARTESIAN_POINT('',(0.896419876559,44.185479712699));
#163 = CARTESIAN_POINT('',(0.858756595152,46.135015190549));
#164 = CARTESIAN_POINT('',(0.820143367425,48.059919068986));
#165 = CARTESIAN_POINT('',(0.780385550443,49.955506117909));
#166 = ( GEOMETRIC_REPRESENTATION_CONTEXT(2) 
PARAMETRIC_REPRESENTATION_CONTEXT() REPRESENTATION_CONTEXT('2D SPACE',''
  ) );
#167 = PCURVE('',#72,#168);
#168 = DEFINITIONAL_REPRESENTATION('',(#169),#179);
#169 = B_SPLINE_CURVE_WITH_KNOTS('',8,(#170,#171,#172,#173,#174,#175,
    #176,#177,#178),.UNSPECIFIED.,.F.,.F.,(9,9),(0.,1.),
  .PIECEWISE_BEZIER_KNOTS.);
#170 = CARTESIAN_POINT('',(1.027315129032,78.697635248165));
#171 = CARTESIAN_POINT('',(1.093990292201,76.672335317774));
#172 = CARTESIAN_POINT('',(1.16171747593,74.658557930493));
#173 = CARTESIAN_POINT('',(1.230659207794,72.657210171861));
#174 = CARTESIAN_POINT('',(1.300979598467,70.670165517462));
#175 = CARTESIAN_POINT('',(1.372852932982,68.700142187295));
#176 = CARTESIAN_POINT('',(1.446483768772,66.750606709453));
#177 = CARTESIAN_POINT('',(1.522119020369,64.825702831015));
#178 = CARTESIAN_POINT('',(1.600128021482,62.930115782091));
#179 = ( GEOMETRIC_REPRESENTATION_CONTEXT(2) 
PARAMETRIC_REPRESENTATION_CONTEXT() REPRESENTATION_CONTEXT('2D SPACE',''
  ) );
#180 = ORIENTED_EDGE('',*,*,#181,.F.);
#181 = EDGE_CURVE('',#182,#141,#184,.T.);
#182 = VERTEX_POINT('',#183);
#183 = CARTESIAN_POINT('',(25.563256240082,34.039220817042,
    1.657964678188E-02));
#184 = SURFACE_CURVE('',#185,(#244,#306),.PCURVE_S1.);
#185 = B_SPLINE_CURVE_WITH_KNOTS('',8,(#186,#187,#188,#189,#190,#191,
    #192,#193,#194,#195,#196,#197,#198,#199,#200,#201,#202,#203,#204,
    #205,#206,#207,#208,#209,#210,#211,#212,#213,#214,#215,#216,#217,
    #218,#219,#220,#221,#222,#223,#224,#225,#226,#227,#228,#229,#230,
    #231,#232,#233,#234,#235,#236,#237,#238,#239,#240,#241,#242,#243),
  .UNSPECIFIED.,.F.,.F.,(9,7,7,7,7,7,7,7,9),(0.,0.158941174572,
    0.31958191032,0.625718975216,0.711084345133,0.795218275913,
    0.904717701237,0.937226439931,1.),.UNSPECIFIED.);
#186 = CARTESIAN_POINT('',(24.,30.,-4.138630831883));
#187 = CARTESIAN_POINT('',(24.,30.272939048914,-3.925264167635));
#188 = CARTESIAN_POINT('',(24.014189083326,30.537053859667,
    -3.709056365637));
#189 = CARTESIAN_POINT('',(24.040965280207,30.793238800277,
    -3.490623583173));
#190 = CARTESIAN_POINT('',(24.079233174252,31.042049712767,
    -3.27043009694));
#191 = CARTESIAN_POINT('',(24.128151642482,31.283901359377,
    -3.048837812753));
#192 = CARTESIAN_POINT('',(24.187052900201,31.519133764798,
    -2.826122434768));
#193 = CARTESIAN_POINT('',(24.255432707635,31.748023293586,
    -2.602476437922));
#194 = CARTESIAN_POINT('',(24.411218966163,32.195987619021,
    -2.151161408631));
#195 = CARTESIAN_POINT('',(24.4988011728,32.414873590047,-1.923532919546
    ));
#196 = CARTESIAN_POINT('',(24.595246364632,32.627682749657,
    -1.695301382895));
#197 = CARTESIAN_POINT('',(24.700248707189,32.834537413262,
    -1.466615426483));
#198 = CARTESIAN_POINT('',(24.813580866283,33.035496472524,
    -1.237607383687));
#199 = CARTESIAN_POINT('',(24.935076986995,33.230570968949,
    -1.008395209076));
#200 = CARTESIAN_POINT('',(25.064626167428,33.419730445601,
    -0.779083369031));
#201 = CARTESIAN_POINT('',(25.464309394962,33.951971021184,
    -0.11274059117));
#202 = CARTESIAN_POINT('',(25.755289276246,34.279006491365,
    0.323961105854));
#203 = CARTESIAN_POINT('',(26.074841477804,34.583798564779,
    0.760010582693));
#204 = CARTESIAN_POINT('',(26.423312675041,34.865115804306,
    1.194811038762));
#205 = CARTESIAN_POINT('',(26.801336640549,35.121029363564,
    1.627520172429));
#206 = CARTESIAN_POINT('',(27.210099821604,35.348555817846,
    2.057014289247));
#207 = CARTESIAN_POINT('',(27.651121569763,35.543879055997,
    2.481910835751));
#208 = CARTESIAN_POINT('',(28.26083568673,35.744117711432,3.017128032588
    ));
#209 = CARTESIAN_POINT('',(28.396533419451,35.784757038479,
    3.133309568408));
#210 = CARTESIAN_POINT('',(28.535049108177,35.822232163852,
    3.248925558337));
#211 = CARTESIAN_POINT('',(28.676450990012,35.856381729354,
    3.363920519492));
#212 = CARTESIAN_POINT('',(28.820810297801,35.887024476872,
    3.478228749441));
#213 = CARTESIAN_POINT('',(28.968203162948,35.913956303313,
    3.591773882286));
#214 = CARTESIAN_POINT('',(29.118713979506,35.936945290006,
    3.704468082682));
#215 = CARTESIAN_POINT('',(29.423948899793,35.974233220439,
    3.926341725921));
#216 = CARTESIAN_POINT('',(29.578562841781,35.988650308218,
    4.035535147181));
#217 = CARTESIAN_POINT('',(29.736385640991,35.998724271857,
    4.143704089909));
#218 = CARTESIAN_POINT('',(29.897514752633,36.004164009775,4.25073324172
    ));
#219 = CARTESIAN_POINT('',(30.06204098767,36.00463904117,4.356479294825)
  );
#220 = CARTESIAN_POINT('',(30.230051846258,35.999773082802,
    4.460769533216));
#221 = CARTESIAN_POINT('',(30.401638698636,35.989131178251,
    4.563398741707));
#222 = CARTESIAN_POINT('',(30.805018721476,35.950165123503,
    4.795217868837));
#223 = CARTESIAN_POINT('',(31.03905077883,35.917507872392,4.922905347907
    ));
#224 = CARTESIAN_POINT('',(31.279536992118,35.873113446277,
    5.046854306701));
#225 = CARTESIAN_POINT('',(31.526708910573,35.815608648183,
    5.166380833595));
#226 = CARTESIAN_POINT('',(31.78047695304,35.743377285179,5.280455713491
    ));
#227 = CARTESIAN_POINT('',(32.040403089673,35.654612465382,
    5.387727255522));
#228 = CARTESIAN_POINT('',(32.305692010993,35.547327166737,
    5.486524865903));
#229 = CARTESIAN_POINT('',(32.655247791998,35.381218121996,
    5.601017063265));
#230 = CARTESIAN_POINT('',(32.735602655551,35.34137803101,5.626286722594
    ));
#231 = CARTESIAN_POINT('',(32.816244424953,35.299675834294,
    5.650559013341));
#232 = CARTESIAN_POINT('',(32.897115338432,35.256066891665,
    5.673772177791));
#233 = CARTESIAN_POINT('',(32.978146863126,35.210511958623,
    5.695861188452));
#234 = CARTESIAN_POINT('',(33.05925960306,35.16297925616,5.716758947168)
  );
#235 = CARTESIAN_POINT('',(33.140363207135,35.11344654058,5.73639748423)
  );
#236 = CARTESIAN_POINT('',(33.377751866344,34.962374222269,
    5.790068539847));
#237 = CARTESIAN_POINT('',(33.533903941359,34.855241458131,
    5.820518980887));
#238 = CARTESIAN_POINT('',(33.688870049252,34.740536014597,
    5.845508020142));
#239 = CARTESIAN_POINT('',(33.841662206531,34.618446168521,
    5.864552826426));
#240 = CARTESIAN_POINT('',(33.991262766281,34.489348363699,
    5.877266459829));
#241 = CARTESIAN_POINT('',(34.136646366048,34.353848699124,
    5.883395345221));
#242 = CARTESIAN_POINT('',(34.276807956417,34.212834881708,
    5.882867957231));
#243 = CARTESIAN_POINT('',(34.410796910307,34.067538643459,
    5.875854716724));
#244 = PCURVE('',#45,#245);
#245 = DEFINITIONAL_REPRESENTATION('',(#246),#305);
#246 = B_SPLINE_CURVE_WITH_KNOTS('',8,(#247,#248,#249,#250,#251,#252,
    #253,#254,#255,#256,#257,#258,#259,#260,#261,#262,#263,#264,#265,
    #266,#267,#268,#269,#270,#271,#272,#273,#274,#275,#276,#277,#278,
    #279,#280,#281,#282,#283,#284,#285,#286,#287,#288,#289,#290,#291,
    #292,#293,#294,#295,#296,#297,#298,#299,#300,#301,#302,#303,#304),
  .UNSPECIFIED.,.F.,.F.,(9,7,7,7,7,7,7,7,9),(0.,0.158941174572,
    0.31958191032,0.625718975216,0.711084345133,0.795218275913,
    0.904717701237,0.937226439931,1.),.UNSPECIFIED.);
#247 = CARTESIAN_POINT('',(0.896055384571,38.361369168117));
#248 = CARTESIAN_POINT('',(0.900493417887,38.574735832365));
#249 = CARTESIAN_POINT('',(0.904443298067,38.790943634363));
#250 = CARTESIAN_POINT('',(0.907961775351,39.009376416827));
#251 = CARTESIAN_POINT('',(0.911088550203,39.22956990306));
#252 = CARTESIAN_POINT('',(0.913855064364,39.451162187247));
#253 = CARTESIAN_POINT('',(0.916287381916,39.673877565232));
#254 = CARTESIAN_POINT('',(0.918406630639,39.897523562078));
#255 = CARTESIAN_POINT('',(0.922073819594,40.348838591369));
#256 = CARTESIAN_POINT('',(0.923614932388,40.576467080454));
#257 = CARTESIAN_POINT('',(0.924871823147,40.804698617105));
#258 = CARTESIAN_POINT('',(0.925858541887,41.033384573518));
#259 = CARTESIAN_POINT('',(0.926586242468,41.262392616313));
#260 = CARTESIAN_POINT('',(0.927063872349,41.491604790924));
#261 = CARTESIAN_POINT('',(0.92729848742,41.720916630969));
#262 = CARTESIAN_POINT('',(0.927288911597,42.38725940883));
#263 = CARTESIAN_POINT('',(0.926418601708,42.823961105854));
#264 = CARTESIAN_POINT('',(0.924722407831,43.260010582694));
#265 = CARTESIAN_POINT('',(0.922209573893,43.694811038761));
#266 = CARTESIAN_POINT('',(0.918873636881,44.12752017243));
#267 = CARTESIAN_POINT('',(0.914684143827,44.557014289247));
#268 = CARTESIAN_POINT('',(0.909593428425,44.981910835751));
#269 = CARTESIAN_POINT('',(0.901782625733,45.517128032588));
#270 = CARTESIAN_POINT('',(0.90000078617,45.633309568408));
#271 = CARTESIAN_POINT('',(0.898137866132,45.748925558337));
#272 = CARTESIAN_POINT('',(0.896191226469,45.863920519492));
#273 = CARTESIAN_POINT('',(0.894157918968,45.978228749441));
#274 = CARTESIAN_POINT('',(0.892034612772,46.091773882286));
#275 = CARTESIAN_POINT('',(0.889817468942,46.204468082682));
#276 = CARTESIAN_POINT('',(0.885219859739,46.426341725921));
#277 = CARTESIAN_POINT('',(0.88284248083,46.535535147181));
#278 = CARTESIAN_POINT('',(0.88036536805,46.643704089909));
#279 = CARTESIAN_POINT('',(0.877783641736,46.75073324172));
#280 = CARTESIAN_POINT('',(0.875091994857,46.856479294825));
#281 = CARTESIAN_POINT('',(0.87228453214,46.960769533216));
#282 = CARTESIAN_POINT('',(0.869354454404,47.063398741707));
#283 = CARTESIAN_POINT('',(0.862309902849,47.295217868837));
#284 = CARTESIAN_POINT('',(0.85811020029,47.422905347908));
#285 = CARTESIAN_POINT('',(0.853671731098,47.546854306701));
#286 = CARTESIAN_POINT('',(0.848973079672,47.666380833595));
#287 = CARTESIAN_POINT('',(0.843994235567,47.780455713491));
#288 = CARTESIAN_POINT('',(0.838717179609,47.887727255521));
#289 = CARTESIAN_POINT('',(0.833125428182,47.986524865903));
#290 = CARTESIAN_POINT('',(0.82544209907,48.101017063265));
#291 = CARTESIAN_POINT('',(0.823654777394,48.126286722594));
#292 = CARTESIAN_POINT('',(0.821838976568,48.150559013341));
#293 = CARTESIAN_POINT('',(0.819994847334,48.173772177791));
#294 = CARTESIAN_POINT('',(0.818122756808,48.195861188452));
#295 = CARTESIAN_POINT('',(0.816223316515,48.216758947168));
#296 = CARTESIAN_POINT('',(0.814297410413,48.23639748423));
#297 = CARTESIAN_POINT('',(0.808578528782,48.290068539847));
#298 = CARTESIAN_POINT('',(0.804712515864,48.320518980887));
#299 = CARTESIAN_POINT('',(0.800761463785,48.345508020142));
#300 = CARTESIAN_POINT('',(0.796741116796,48.364552826425));
#301 = CARTESIAN_POINT('',(0.792669911977,48.377266459829));
#302 = CARTESIAN_POINT('',(0.788569380452,48.383395345221));
#303 = CARTESIAN_POINT('',(0.784464721623,48.382867957231));
#304 = CARTESIAN_POINT('',(0.780385550443,48.375854716725));
#305 = ( GEOMETRIC_REPRESENTATION_CONTEXT(2) 
PARAMETRIC_REPRESENTATION_CONTEXT() REPRESENTATION_CONTEXT('2D SPACE',''
  ) );
#306 = PCURVE('',#307,#312);
#307 = CYLINDRICAL_SURFACE('',#308,6.);
#308 = AXIS2_PLACEMENT_3D('',#309,#310,#311);
#309 = CARTESIAN_POINT('',(30.,30.,74.3856219));
#310 = DIRECTION('',(0.,0.,-1.));
#311 = DIRECTION('',(-1.,0.,0.));
#312 = DEFINITIONAL_REPRESENTATION('',(#313),#372);
#313 = B_SPLINE_CURVE_WITH_KNOTS('',8,(#314,#315,#316,#317,#318,#319,
    #320,#321,#322,#323,#324,#325,#326,#327,#328,#329,#330,#331,#332,
    #333,#334,#335,#336,#337,#338,#339,#340,#341,#342,#343,#344,#345,
    #346,#347,#348,#349,#350,#351,#352,#353,#354,#355,#356,#357,#358,
    #359,#360,#361,#362,#363,#364,#365,#366,#367,#368,#369,#370,#371),
  .UNSPECIFIED.,.F.,.F.,(9,7,7,7,7,7,7,7,9),(0.,0.158941174572,
    0.31958191032,0.625718975216,0.711084345133,0.795218275913,
    0.904717701237,0.937226439931,1.),.UNSPECIFIED.);
#314 = CARTESIAN_POINT('',(0.,78.524252731883));
#315 = CARTESIAN_POINT('',(4.548984148572E-02,78.310886067635));
#316 = CARTESIAN_POINT('',(8.950902031007E-02,78.094678265637));
#317 = CARTESIAN_POINT('',(0.132349754374,77.876245483174));
#318 = CARTESIAN_POINT('',(0.174210040629,77.65605199694));
#319 = CARTESIAN_POINT('',(0.215246701887,77.434459712752));
#320 = CARTESIAN_POINT('',(0.25559412219,77.211744334769));
#321 = CARTESIAN_POINT('',(0.295369098001,76.988098337922));
#322 = CARTESIAN_POINT('',(0.374415743022,76.536783308631));
#323 = CARTESIAN_POINT('',(0.413667297257,76.309154819546));
#324 = CARTESIAN_POINT('',(0.452542874515,76.080923282895));
#325 = CARTESIAN_POINT('',(0.491131210496,75.852237326483));
#326 = CARTESIAN_POINT('',(0.529510337227,75.623229283687));
#327 = CARTESIAN_POINT('',(0.567752546679,75.394017109076));
#328 = CARTESIAN_POINT('',(0.605927778015,75.164705269031));
#329 = CARTESIAN_POINT('',(0.716861531103,74.49836249117));
#330 = CARTESIAN_POINT('',(0.789568163236,74.061660794148));
#331 = CARTESIAN_POINT('',(0.862755117304,73.625611317302));
#332 = CARTESIAN_POINT('',(0.936883426283,73.190810861245));
#333 = CARTESIAN_POINT('',(1.012402742186,72.758101727566));
#334 = CARTESIAN_POINT('',(1.089851130794,72.328607610755));
#335 = CARTESIAN_POINT('',(1.169842756967,71.903711064249));
#336 = CARTESIAN_POINT('',(1.276801578685,71.368493867412));
#337 = CARTESIAN_POINT('',(1.300402148606,71.252312331592));
#338 = CARTESIAN_POINT('',(1.324303692405,71.136696341663));
#339 = CARTESIAN_POINT('',(1.348529933572,71.021701380507));
#340 = CARTESIAN_POINT('',(1.373106377953,70.907393150559));
#341 = CARTESIAN_POINT('',(1.398061064002,70.793848017714));
#342 = CARTESIAN_POINT('',(1.423425703694,70.681153817318));
#343 = CARTESIAN_POINT('',(1.474676380199,70.459280174079));
#344 = CARTESIAN_POINT('',(1.500546603212,70.350086752819));
#345 = CARTESIAN_POINT('',(1.526884938504,70.241917810091));
#346 = CARTESIAN_POINT('',(1.553730407653,70.13488865828));
#347 = CARTESIAN_POINT('',(1.581124526887,70.029142605175));
#348 = CARTESIAN_POINT('',(1.609113047627,69.924852366784));
#349 = CARTESIAN_POINT('',(1.637748909113,69.822223158293));
#350 = CARTESIAN_POINT('',(1.705291857641,69.590404031163));
#351 = CARTESIAN_POINT('',(1.744639778965,69.462716552093));
#352 = CARTESIAN_POINT('',(1.785331599411,69.338767593299));
#353 = CARTESIAN_POINT('',(1.827533607685,69.219241066405));
#354 = CARTESIAN_POINT('',(1.87139686692,69.105166186509));
#355 = CARTESIAN_POINT('',(1.917061796652,68.997894644478));
#356 = CARTESIAN_POINT('',(1.964671529546,68.899097034097));
#357 = CARTESIAN_POINT('',(2.029174212259,68.784604836735));
#358 = CARTESIAN_POINT('',(2.044120328884,68.759335177406));
#359 = CARTESIAN_POINT('',(2.059247726829,68.735062886659));
#360 = CARTESIAN_POINT('',(2.074556331011,68.711849722209));
#361 = CARTESIAN_POINT('',(2.090044591067,68.689760711548));
#362 = CARTESIAN_POINT('',(2.10570930433,68.668862952832));
#363 = CARTESIAN_POINT('',(2.121545438827,68.64922441577));
#364 = CARTESIAN_POINT('',(2.168442554612,68.595553360153));
#365 = CARTESIAN_POINT('',(2.199985291544,68.565102919113));
#366 = CARTESIAN_POINT('',(2.23208392922,68.540113879858));
#367 = CARTESIAN_POINT('',(2.264635335398,68.521069073574));
#368 = CARTESIAN_POINT('',(2.2975213959,68.508355440171));
#369 = CARTESIAN_POINT('',(2.330604109659,68.502226554779));
#370 = CARTESIAN_POINT('',(2.363717866336,68.502753942769));
#371 = CARTESIAN_POINT('',(2.396658906516,68.509767183275));
#372 = ( GEOMETRIC_REPRESENTATION_CONTEXT(2) 
PARAMETRIC_REPRESENTATION_CONTEXT() REPRESENTATION_CONTEXT('2D SPACE',''
  ) );
#373 = ORIENTED_EDGE('',*,*,#374,.F.);
#374 = EDGE_CURVE('',#375,#182,#377,.T.);
#375 = VERTEX_POINT('',#376);
#376 = CARTESIAN_POINT('',(16.301138513588,30.122008285651,
    -8.312013348165));
#377 = SURFACE_CURVE('',#378,(#388,#401),.PCURVE_S1.);
#378 = B_SPLINE_CURVE_WITH_KNOTS('',8,(#379,#380,#381,#382,#383,#384,
    #385,#386,#387),.UNSPECIFIED.,.F.,.F.,(9,9),(0.,1.),
  .PIECEWISE_BEZIER_KNOTS.);
#379 = CARTESIAN_POINT('',(16.301138513588,30.122008285651,
    -8.312013348165));
#380 = CARTESIAN_POINT('',(18.309528331033,31.33542034476,
    -6.286713417774));
#381 = CARTESIAN_POINT('',(20.442068796172,32.414937223565,
    -4.272936030491));
#382 = CARTESIAN_POINT('',(22.695160575815,33.3468538017,-2.271588271867
    ));
#383 = CARTESIAN_POINT('',(25.06392813939,34.115539050073,
    -0.284543617453));
#384 = CARTESIAN_POINT('',(27.541780217028,34.703596433867,
    1.685479712699));
#385 = CARTESIAN_POINT('',(30.120092247511,35.091600902197,
    3.635015190549));
#386 = CARTESIAN_POINT('',(32.787941642441,35.258187396211,
    5.559919068985));
#387 = CARTESIAN_POINT('',(35.532116774457,35.177672997604,
    7.455506117909));
#388 = PCURVE('',#45,#389);
#389 = DEFINITIONAL_REPRESENTATION('',(#390),#400);
#390 = B_SPLINE_CURVE_WITH_KNOTS('',8,(#391,#392,#393,#394,#395,#396,
    #397,#398,#399),.UNSPECIFIED.,.F.,.F.,(9,9),(0.,1.),
  .PIECEWISE_BEZIER_KNOTS.);
#391 = CARTESIAN_POINT('',(1.074757363363,34.187986651835));
#392 = CARTESIAN_POINT('',(1.040047587309,36.213286582226));
#393 = CARTESIAN_POINT('',(1.004975408366,38.227063969509));
#394 = CARTESIAN_POINT('',(0.969418058574,40.228411728132));
#395 = CARTESIAN_POINT('',(0.933268226357,42.215456382547));
#396 = CARTESIAN_POINT('',(0.896419876559,44.185479712699));
#397 = CARTESIAN_POINT('',(0.858756595152,46.135015190549));
#398 = CARTESIAN_POINT('',(0.820143367425,48.059919068986));
#399 = CARTESIAN_POINT('',(0.780385550443,49.955506117909));
#400 = ( GEOMETRIC_REPRESENTATION_CONTEXT(2) 
PARAMETRIC_REPRESENTATION_CONTEXT() REPRESENTATION_CONTEXT('2D SPACE',''
  ) );
#401 = PCURVE('',#402,#407);
#402 = CYLINDRICAL_SURFACE('',#403,35.19281095);
#403 = AXIS2_PLACEMENT_3D('',#404,#405,#406);
#404 = CARTESIAN_POINT('',(34.5,0.,70.3856219));
#405 = DIRECTION('',(0.,0.,-1.));
#406 = DIRECTION('',(-1.,0.,0.));
#407 = DEFINITIONAL_REPRESENTATION('',(#408),#418);
#408 = B_SPLINE_CURVE_WITH_KNOTS('',8,(#409,#410,#411,#412,#413,#414,
    #415,#416,#417),.UNSPECIFIED.,.F.,.F.,(9,9),(0.,1.),
  .PIECEWISE_BEZIER_KNOTS.);
#409 = CARTESIAN_POINT('',(1.027315129032,78.697635248165));
#410 = CARTESIAN_POINT('',(1.093990292201,76.672335317774));
#411 = CARTESIAN_POINT('',(1.16171747593,74.658557930493));
#412 = CARTESIAN_POINT('',(1.230659207794,72.657210171861));
#413 = CARTESIAN_POINT('',(1.300979598467,70.670165517462));
#414 = CARTESIAN_POINT('',(1.372852932982,68.700142187295));
#415 = CARTESIAN_POINT('',(1.446483768772,66.750606709453));
#416 = CARTESIAN_POINT('',(1.522119020369,64.825702831015));
#417 = CARTESIAN_POINT('',(1.600128021482,62.930115782091));
#418 = ( GEOMETRIC_REPRESENTATION_CONTEXT(2) 
PARAMETRIC_REPRESENTATION_CONTEXT() REPRESENTATION_CONTEXT('2D SPACE',''
  ) );
#419 = ORIENTED_EDGE('',*,*,#420,.F.);
#420 = EDGE_CURVE('',#421,#375,#423,.T.);
#421 = VERTEX_POINT('',#422);
#422 = CARTESIAN_POINT('',(16.120151254548,30.21925253097,
    -8.312013348165));
#423 = SURFACE_CURVE('',#424,(#429,#436),.PCURVE_S1.);
#424 = CIRCLE('',#425,34.25);
#425 = AXIS2_PLACEMENT_3D('',#426,#427,#428);
#426 = CARTESIAN_POINT('',(0.,0.,-8.312013348165));
#427 = DIRECTION('',(0.,0.,-1.));
#428 = DIRECTION('',(0.,1.,0.));
#429 = PCURVE('',#45,#430);
#430 = DEFINITIONAL_REPRESENTATION('',(#431),#435);
#431 = LINE('',#432,#433);
#432 = CARTESIAN_POINT('',(7.853981633974,34.187986651835));
#433 = VECTOR('',#434,1.);
#434 = DIRECTION('',(-1.,0.));
#435 = ( GEOMETRIC_REPRESENTATION_CONTEXT(2) 
PARAMETRIC_REPRESENTATION_CONTEXT() REPRESENTATION_CONTEXT('2D SPACE',''
  ) );
#436 = PCURVE('',#437,#442);
#437 = CYLINDRICAL_SURFACE('',#438,34.25);
#438 = AXIS2_PLACEMENT_3D('',#439,#440,#441);
#439 = CARTESIAN_POINT('',(0.,0.,170.367250374));
#440 = DIRECTION('',(0.,0.,-1.));
#441 = DIRECTION('',(-1.,0.,-0.));
#442 = DEFINITIONAL_REPRESENTATION('',(#443),#447);
#443 = LINE('',#444,#445);
#444 = CARTESIAN_POINT('',(-4.712388980385,178.67926372217));
#445 = VECTOR('',#446,1.);
#446 = DIRECTION('',(1.,0.));
#447 = ( GEOMETRIC_REPRESENTATION_CONTEXT(2) 
PARAMETRIC_REPRESENTATION_CONTEXT() REPRESENTATION_CONTEXT('2D SPACE',''
  ) );
#448 = ORIENTED_EDGE('',*,*,#449,.F.);
#449 = EDGE_CURVE('',#24,#421,#450,.T.);
#450 = SURFACE_CURVE('',#451,(#461,#474),.PCURVE_S1.);
#451 = B_SPLINE_CURVE_WITH_KNOTS('',8,(#452,#453,#454,#455,#456,#457,
    #458,#459,#460),.UNSPECIFIED.,.F.,.F.,(9,9),(0.,1.),
  .PIECEWISE_BEZIER_KNOTS.);
#452 = CARTESIAN_POINT('',(15.467731297042,47.547337344193,
    7.455506117909));
#453 = CARTESIAN_POINT('',(16.128111954588,45.306239850477,
    5.526490207091));
#454 = CARTESIAN_POINT('',(16.603240470512,43.066677756634,
    3.581511561457));
#455 = CARTESIAN_POINT('',(16.904524323436,40.840511635897,
    1.622861000138));
#456 = CARTESIAN_POINT('',(17.041804962825,38.637871859484,
    -0.34736271425));
#457 = CARTESIAN_POINT('',(17.02412310579,36.467503499988,
    -2.327329060269));
#458 = CARTESIAN_POINT('',(16.859751567335,34.336884745365,
    -4.315504182708));
#459 = CARTESIAN_POINT('',(16.556242426371,32.252374954704,
    -6.310686130094));
#460 = CARTESIAN_POINT('',(16.120151254548,30.21925253097,
    -8.312013348165));
#461 = PCURVE('',#45,#462);
#462 = DEFINITIONAL_REPRESENTATION('',(#463),#473);
#463 = B_SPLINE_CURVE_WITH_KNOTS('',8,(#464,#465,#466,#467,#468,#469,
    #470,#471,#472),.UNSPECIFIED.,.F.,.F.,(9,9),(0.,1.),
  .PIECEWISE_BEZIER_KNOTS.);
#464 = CARTESIAN_POINT('',(1.256282034114,49.955506117909));
#465 = CARTESIAN_POINT('',(1.229856419817,48.026490207091));
#466 = CARTESIAN_POINT('',(1.204635904545,46.081511561456));
#467 = CARTESIAN_POINT('',(1.180600714977,44.122861000142));
#468 = CARTESIAN_POINT('',(1.157775696029,42.152637285745));
#469 = CARTESIAN_POINT('',(1.136223318753,40.172670939734));
#470 = CARTESIAN_POINT('',(1.116058874396,38.184495817291));
#471 = CARTESIAN_POINT('',(1.0974610348,36.189313869906));
#472 = CARTESIAN_POINT('',(1.080756134813,34.187986651835));
#473 = ( GEOMETRIC_REPRESENTATION_CONTEXT(2) 
PARAMETRIC_REPRESENTATION_CONTEXT() REPRESENTATION_CONTEXT('2D SPACE',''
  ) );
#474 = PCURVE('',#125,#475);
#475 = DEFINITIONAL_REPRESENTATION('',(#476),#486);
#476 = B_SPLINE_CURVE_WITH_KNOTS('',8,(#477,#478,#479,#480,#481,#482,
    #483,#484,#485),.UNSPECIFIED.,.F.,.F.,(9,9),(0.,1.),
  .PIECEWISE_BEZIER_KNOTS.);
#477 = CARTESIAN_POINT('',(2.855034365889,62.930115782091));
#478 = CARTESIAN_POINT('',(2.921422046802,64.859131692909));
#479 = CARTESIAN_POINT('',(2.986280024718,66.80411033854));
#480 = CARTESIAN_POINT('',(3.049822445939,68.762760899872));
#481 = CARTESIAN_POINT('',(3.112212017463,70.732984614237));
#482 = CARTESIAN_POINT('',(3.173588214117,72.712950960279));
#483 = CARTESIAN_POINT('',(3.234076936114,74.701126082705));
#484 = CARTESIAN_POINT('',(3.293799506097,76.696308030094));
#485 = CARTESIAN_POINT('',(3.352884466483,78.697635248165));
#486 = ( GEOMETRIC_REPRESENTATION_CONTEXT(2) 
PARAMETRIC_REPRESENTATION_CONTEXT() REPRESENTATION_CONTEXT('2D SPACE',''
  ) );
#487 = ADVANCED_FACE('',(#488),#125,.F.);
#488 = FACE_BOUND('',#489,.F.);
#489 = EDGE_LOOP('',(#490,#518,#519,#520));
#490 = ORIENTED_EDGE('',*,*,#491,.F.);
#491 = EDGE_CURVE('',#84,#492,#494,.T.);
#492 = VERTEX_POINT('',#493);
#493 = CARTESIAN_POINT('',(16.120151254548,30.21925253097,-47.5));
#494 = SURFACE_CURVE('',#495,(#500,#507),.PCURVE_S1.);
#495 = CIRCLE('',#496,35.19281095);
#496 = AXIS2_PLACEMENT_3D('',#497,#498,#499);
#497 = CARTESIAN_POINT('',(-18.29,37.6,-47.5));
#498 = DIRECTION('',(0.,0.,-1.));
#499 = DIRECTION('',(-1.,0.,0.));
#500 = PCURVE('',#125,#501);
#501 = DEFINITIONAL_REPRESENTATION('',(#502),#506);
#502 = LINE('',#503,#504);
#503 = CARTESIAN_POINT('',(0.,117.8856219));
#504 = VECTOR('',#505,1.);
#505 = DIRECTION('',(1.,0.));
#506 = ( GEOMETRIC_REPRESENTATION_CONTEXT(2) 
PARAMETRIC_REPRESENTATION_CONTEXT() REPRESENTATION_CONTEXT('2D SPACE',''
  ) );
#507 = PCURVE('',#100,#508);
#508 = DEFINITIONAL_REPRESENTATION('',(#509),#517);
#509 = ( BOUNDED_CURVE() B_SPLINE_CURVE(2,(#510,#511,#512,#513,#514,#515
,#516),.UNSPECIFIED.,.T.,.F.) B_SPLINE_CURVE_WITH_KNOTS((1,2,2,2,2,1),(
    -2.094395102393,0.,2.094395102393,4.188790204786,6.28318530718,
8.377580409573),.UNSPECIFIED.) CURVE() GEOMETRIC_REPRESENTATION_ITEM() 
RATIONAL_B_SPLINE_CURVE((1.,0.5,1.,0.5,1.,0.5,1.)) REPRESENTATION_ITEM(
  '') );
#510 = CARTESIAN_POINT('',(-53.48281095,37.6));
#511 = CARTESIAN_POINT('',(-53.48281095,98.555736626566));
#512 = CARTESIAN_POINT('',(-0.693594525,68.077868313283));
#513 = CARTESIAN_POINT('',(52.0956219,37.6));
#514 = CARTESIAN_POINT('',(-0.693594525,7.122131686717));
#515 = CARTESIAN_POINT('',(-53.48281095,-23.35573662656));
#516 = CARTESIAN_POINT('',(-53.48281095,37.6));
#517 = ( GEOMETRIC_REPRESENTATION_CONTEXT(2) 
PARAMETRIC_REPRESENTATION_CONTEXT() REPRESENTATION_CONTEXT('2D SPACE',''
  ) );
#518 = ORIENTED_EDGE('',*,*,#112,.T.);
#519 = ORIENTED_EDGE('',*,*,#449,.T.);
#520 = ORIENTED_EDGE('',*,*,#521,.T.);
#521 = EDGE_CURVE('',#421,#492,#522,.T.);
#522 = SURFACE_CURVE('',#523,(#527,#533),.PCURVE_S1.);
#523 = LINE('',#524,#525);
#524 = CARTESIAN_POINT('',(16.120151254548,30.21925253097,170.367250374)
  );
#525 = VECTOR('',#526,1.);
#526 = DIRECTION('',(0.,0.,-1.));
#527 = PCURVE('',#125,#528);
#528 = DEFINITIONAL_REPRESENTATION('',(#529),#532);
#529 = B_SPLINE_CURVE_WITH_KNOTS('',1,(#530,#531),.UNSPECIFIED.,.F.,.F.,
  (2,2),(178.67926312217,217.867250974),.PIECEWISE_BEZIER_KNOTS.);
#530 = CARTESIAN_POINT('',(3.352884466483,78.697634648165));
#531 = CARTESIAN_POINT('',(3.352884466483,117.8856225));
#532 = ( GEOMETRIC_REPRESENTATION_CONTEXT(2) 
PARAMETRIC_REPRESENTATION_CONTEXT() REPRESENTATION_CONTEXT('2D SPACE',''
  ) );
#533 = PCURVE('',#437,#534);
#534 = DEFINITIONAL_REPRESENTATION('',(#535),#538);
#535 = B_SPLINE_CURVE_WITH_KNOTS('',1,(#536,#537),.UNSPECIFIED.,.F.,.F.,
  (2,2),(178.67926312217,217.867250974),.PIECEWISE_BEZIER_KNOTS.);
#536 = CARTESIAN_POINT('',(2.060836518777,178.67926312217));
#537 = CARTESIAN_POINT('',(2.060836518777,217.867250974));
#538 = ( GEOMETRIC_REPRESENTATION_CONTEXT(2) 
PARAMETRIC_REPRESENTATION_CONTEXT() REPRESENTATION_CONTEXT('2D SPACE',''
  ) );
#539 = ADVANCED_FACE('',(#540),#100,.F.);
#540 = FACE_BOUND('',#541,.F.);
#541 = EDGE_LOOP('',(#542,#570,#598,#626,#652,#653));
#542 = ORIENTED_EDGE('',*,*,#543,.T.);
#543 = EDGE_CURVE('',#492,#544,#546,.T.);
#544 = VERTEX_POINT('',#545);
#545 = CARTESIAN_POINT('',(16.301138513588,30.122008285651,-47.5));
#546 = SURFACE_CURVE('',#547,(#552,#563),.PCURVE_S1.);
#547 = CIRCLE('',#548,34.25);
#548 = AXIS2_PLACEMENT_3D('',#549,#550,#551);
#549 = CARTESIAN_POINT('',(0.,0.,-47.5));
#550 = DIRECTION('',(0.,0.,-1.));
#551 = DIRECTION('',(-1.,0.,-0.));
#552 = PCURVE('',#100,#553);
#553 = DEFINITIONAL_REPRESENTATION('',(#554),#562);
#554 = ( BOUNDED_CURVE() B_SPLINE_CURVE(2,(#555,#556,#557,#558,#559,#560
,#561),.UNSPECIFIED.,.T.,.F.) B_SPLINE_CURVE_WITH_KNOTS((1,2,2,2,2,1),(
    -2.094395102393,0.,2.094395102393,4.188790204786,6.28318530718,
8.377580409573),.UNSPECIFIED.) CURVE() GEOMETRIC_REPRESENTATION_ITEM() 
RATIONAL_B_SPLINE_CURVE((1.,0.5,1.,0.5,1.,0.5,1.)) REPRESENTATION_ITEM(
  '') );
#555 = CARTESIAN_POINT('',(-34.25,0.));
#556 = CARTESIAN_POINT('',(-34.25,59.322740159234));
#557 = CARTESIAN_POINT('',(17.125,29.661370079617));
#558 = CARTESIAN_POINT('',(68.5,8.388830574159E-15));
#559 = CARTESIAN_POINT('',(17.125,-29.66137007961));
#560 = CARTESIAN_POINT('',(-34.25,-59.32274015923));
#561 = CARTESIAN_POINT('',(-34.25,0.));
#562 = ( GEOMETRIC_REPRESENTATION_CONTEXT(2) 
PARAMETRIC_REPRESENTATION_CONTEXT() REPRESENTATION_CONTEXT('2D SPACE',''
  ) );
#563 = PCURVE('',#437,#564);
#564 = DEFINITIONAL_REPRESENTATION('',(#565),#569);
#565 = LINE('',#566,#567);
#566 = CARTESIAN_POINT('',(0.,217.867250374));
#567 = VECTOR('',#568,1.);
#568 = DIRECTION('',(1.,0.));
#569 = ( GEOMETRIC_REPRESENTATION_CONTEXT(2) 
PARAMETRIC_REPRESENTATION_CONTEXT() REPRESENTATION_CONTEXT('2D SPACE',''
  ) );
#570 = ORIENTED_EDGE('',*,*,#571,.T.);
#571 = EDGE_CURVE('',#544,#572,#574,.T.);
#572 = VERTEX_POINT('',#573);
#573 = CARTESIAN_POINT('',(25.563256234821,34.039220811264,-47.5));
#574 = SURFACE_CURVE('',#575,(#580,#591),.PCURVE_S1.);
#575 = CIRCLE('',#576,35.19281095);
#576 = AXIS2_PLACEMENT_3D('',#577,#578,#579);
#577 = CARTESIAN_POINT('',(34.5,0.,-47.5));
#578 = DIRECTION('',(0.,0.,-1.));
#579 = DIRECTION('',(-1.,0.,0.));
#580 = PCURVE('',#100,#581);
#581 = DEFINITIONAL_REPRESENTATION('',(#582),#590);
#582 = ( BOUNDED_CURVE() B_SPLINE_CURVE(2,(#583,#584,#585,#586,#587,#588
,#589),.UNSPECIFIED.,.T.,.F.) B_SPLINE_CURVE_WITH_KNOTS((1,2,2,2,2,1),(
    -2.094395102393,0.,2.094395102393,4.188790204786,6.28318530718,
8.377580409573),.UNSPECIFIED.) CURVE() GEOMETRIC_REPRESENTATION_ITEM() 
RATIONAL_B_SPLINE_CURVE((1.,0.5,1.,0.5,1.,0.5,1.)) REPRESENTATION_ITEM(
  '') );
#583 = CARTESIAN_POINT('',(-0.69281095,0.));
#584 = CARTESIAN_POINT('',(-0.69281095,60.955736626566));
#585 = CARTESIAN_POINT('',(52.096405475,30.477868313283));
#586 = CARTESIAN_POINT('',(104.8856219,8.619752656583E-15));
#587 = CARTESIAN_POINT('',(52.096405475,-30.47786831328));
#588 = CARTESIAN_POINT('',(-0.69281095,-60.95573662656));
#589 = CARTESIAN_POINT('',(-0.69281095,0.));
#590 = ( GEOMETRIC_REPRESENTATION_CONTEXT(2) 
PARAMETRIC_REPRESENTATION_CONTEXT() REPRESENTATION_CONTEXT('2D SPACE',''
  ) );
#591 = PCURVE('',#402,#592);
#592 = DEFINITIONAL_REPRESENTATION('',(#593),#597);
#593 = LINE('',#594,#595);
#594 = CARTESIAN_POINT('',(0.,117.8856219));
#595 = VECTOR('',#596,1.);
#596 = DIRECTION('',(1.,0.));
#597 = ( GEOMETRIC_REPRESENTATION_CONTEXT(2) 
PARAMETRIC_REPRESENTATION_CONTEXT() REPRESENTATION_CONTEXT('2D SPACE',''
  ) );
#598 = ORIENTED_EDGE('',*,*,#599,.T.);
#599 = EDGE_CURVE('',#572,#600,#602,.T.);
#600 = VERTEX_POINT('',#601);
#601 = CARTESIAN_POINT('',(33.056382187856,35.163189704219,-47.5));
#602 = SURFACE_CURVE('',#603,(#608,#619),.PCURVE_S1.);
#603 = CIRCLE('',#604,6.);
#604 = AXIS2_PLACEMENT_3D('',#605,#606,#607);
#605 = CARTESIAN_POINT('',(30.,30.,-47.5));
#606 = DIRECTION('',(0.,0.,-1.));
#607 = DIRECTION('',(-1.,0.,0.));
#608 = PCURVE('',#100,#609);
#609 = DEFINITIONAL_REPRESENTATION('',(#610),#618);
#610 = ( BOUNDED_CURVE() B_SPLINE_CURVE(2,(#611,#612,#613,#614,#615,#616
,#617),.UNSPECIFIED.,.T.,.F.) B_SPLINE_CURVE_WITH_KNOTS((1,2,2,2,2,1),(
    -2.094395102393,0.,2.094395102393,4.188790204786,6.28318530718,
8.377580409573),.UNSPECIFIED.) CURVE() GEOMETRIC_REPRESENTATION_ITEM() 
RATIONAL_B_SPLINE_CURVE((1.,0.5,1.,0.5,1.,0.5,1.)) REPRESENTATION_ITEM(
  '') );
#611 = CARTESIAN_POINT('',(24.,30.));
#612 = CARTESIAN_POINT('',(24.,40.392304845413));
#613 = CARTESIAN_POINT('',(33.,35.196152422707));
#614 = CARTESIAN_POINT('',(42.,30.));
#615 = CARTESIAN_POINT('',(33.,24.803847577293));
#616 = CARTESIAN_POINT('',(24.,19.607695154587));
#617 = CARTESIAN_POINT('',(24.,30.));
#618 = ( GEOMETRIC_REPRESENTATION_CONTEXT(2) 
PARAMETRIC_REPRESENTATION_CONTEXT() REPRESENTATION_CONTEXT('2D SPACE',''
  ) );
#619 = PCURVE('',#307,#620);
#620 = DEFINITIONAL_REPRESENTATION('',(#621),#625);
#621 = LINE('',#622,#623);
#622 = CARTESIAN_POINT('',(0.,121.8856219));
#623 = VECTOR('',#624,1.);
#624 = DIRECTION('',(1.,0.));
#625 = ( GEOMETRIC_REPRESENTATION_CONTEXT(2) 
PARAMETRIC_REPRESENTATION_CONTEXT() REPRESENTATION_CONTEXT('2D SPACE',''
  ) );
#626 = ORIENTED_EDGE('',*,*,#627,.T.);
#627 = EDGE_CURVE('',#600,#58,#628,.T.);
#628 = SURFACE_CURVE('',#629,(#634,#645),.PCURVE_S1.);
#629 = CIRCLE('',#630,35.19281095);
#630 = AXIS2_PLACEMENT_3D('',#631,#632,#633);
#631 = CARTESIAN_POINT('',(34.5,0.,-47.5));
#632 = DIRECTION('',(0.,0.,-1.));
#633 = DIRECTION('',(-1.,0.,0.));
#634 = PCURVE('',#100,#635);
#635 = DEFINITIONAL_REPRESENTATION('',(#636),#644);
#636 = ( BOUNDED_CURVE() B_SPLINE_CURVE(2,(#637,#638,#639,#640,#641,#642
,#643),.UNSPECIFIED.,.T.,.F.) B_SPLINE_CURVE_WITH_KNOTS((1,2,2,2,2,1),(
    -2.094395102393,0.,2.094395102393,4.188790204786,6.28318530718,
8.377580409573),.UNSPECIFIED.) CURVE() GEOMETRIC_REPRESENTATION_ITEM() 
RATIONAL_B_SPLINE_CURVE((1.,0.5,1.,0.5,1.,0.5,1.)) REPRESENTATION_ITEM(
  '') );
#637 = CARTESIAN_POINT('',(-0.69281095,0.));
#638 = CARTESIAN_POINT('',(-0.69281095,60.955736626566));
#639 = CARTESIAN_POINT('',(52.096405475,30.477868313283));
#640 = CARTESIAN_POINT('',(104.8856219,8.619752656583E-15));
#641 = CARTESIAN_POINT('',(52.096405475,-30.47786831328));
#642 = CARTESIAN_POINT('',(-0.69281095,-60.95573662656));
#643 = CARTESIAN_POINT('',(-0.69281095,0.));
#644 = ( GEOMETRIC_REPRESENTATION_CONTEXT(2) 
PARAMETRIC_REPRESENTATION_CONTEXT() REPRESENTATION_CONTEXT('2D SPACE',''
  ) );
#645 = PCURVE('',#72,#646);
#646 = DEFINITIONAL_REPRESENTATION('',(#647),#651);
#647 = LINE('',#648,#649);
#648 = CARTESIAN_POINT('',(0.,117.8856219));
#649 = VECTOR('',#650,1.);
#650 = DIRECTION('',(1.,0.));
#651 = ( GEOMETRIC_REPRESENTATION_CONTEXT(2) 
PARAMETRIC_REPRESENTATION_CONTEXT() REPRESENTATION_CONTEXT('2D SPACE',''
  ) );
#652 = ORIENTED_EDGE('',*,*,#83,.T.);
#653 = ORIENTED_EDGE('',*,*,#491,.T.);
#654 = ADVANCED_FACE('',(#655),#72,.F.);
#655 = FACE_BOUND('',#656,.F.);
#656 = EDGE_LOOP('',(#657,#658,#659,#678));
#657 = ORIENTED_EDGE('',*,*,#57,.F.);
#658 = ORIENTED_EDGE('',*,*,#627,.F.);
#659 = ORIENTED_EDGE('',*,*,#660,.F.);
#660 = EDGE_CURVE('',#141,#600,#661,.T.);
#661 = SURFACE_CURVE('',#662,(#666,#672),.PCURVE_S1.);
#662 = LINE('',#663,#664);
#663 = CARTESIAN_POINT('',(33.056382187856,35.163189704219,70.3856219));
#664 = VECTOR('',#665,1.);
#665 = DIRECTION('',(0.,0.,-1.));
#666 = PCURVE('',#72,#667);
#667 = DEFINITIONAL_REPRESENTATION('',(#668),#671);
#668 = B_SPLINE_CURVE_WITH_KNOTS('',1,(#669,#670),.UNSPECIFIED.,.F.,.F.,
  (2,2),(62.930115182091,117.8856225),.PIECEWISE_BEZIER_KNOTS.);
#669 = CARTESIAN_POINT('',(1.529764566808,62.930115182091));
#670 = CARTESIAN_POINT('',(1.529764566808,117.8856225));
#671 = ( GEOMETRIC_REPRESENTATION_CONTEXT(2) 
PARAMETRIC_REPRESENTATION_CONTEXT() REPRESENTATION_CONTEXT('2D SPACE',''
  ) );
#672 = PCURVE('',#307,#673);
#673 = DEFINITIONAL_REPRESENTATION('',(#674),#677);
#674 = B_SPLINE_CURVE_WITH_KNOTS('',1,(#675,#676),.UNSPECIFIED.,.F.,.F.,
  (2,2),(62.930115182091,117.8856225),.PIECEWISE_BEZIER_KNOTS.);
#675 = CARTESIAN_POINT('',(2.105280278392,66.930115182091));
#676 = CARTESIAN_POINT('',(2.105280278392,121.8856225));
#677 = ( GEOMETRIC_REPRESENTATION_CONTEXT(2) 
PARAMETRIC_REPRESENTATION_CONTEXT() REPRESENTATION_CONTEXT('2D SPACE',''
  ) );
#678 = ORIENTED_EDGE('',*,*,#140,.T.);
#679 = ADVANCED_FACE('',(#680),#437,.F.);
#680 = FACE_BOUND('',#681,.F.);
#681 = EDGE_LOOP('',(#682,#683,#684,#703));
#682 = ORIENTED_EDGE('',*,*,#521,.F.);
#683 = ORIENTED_EDGE('',*,*,#420,.T.);
#684 = ORIENTED_EDGE('',*,*,#685,.T.);
#685 = EDGE_CURVE('',#375,#544,#686,.T.);
#686 = SURFACE_CURVE('',#687,(#691,#697),.PCURVE_S1.);
#687 = LINE('',#688,#689);
#688 = CARTESIAN_POINT('',(16.301138513588,30.122008285651,170.367250374
    ));
#689 = VECTOR('',#690,1.);
#690 = DIRECTION('',(0.,0.,-1.));
#691 = PCURVE('',#437,#692);
#692 = DEFINITIONAL_REPRESENTATION('',(#693),#696);
#693 = B_SPLINE_CURVE_WITH_KNOTS('',1,(#694,#695),.UNSPECIFIED.,.F.,.F.,
  (2,2),(178.67926312217,217.867250974),.PIECEWISE_BEZIER_KNOTS.);
#694 = CARTESIAN_POINT('',(2.066835290227,178.67926312217));
#695 = CARTESIAN_POINT('',(2.066835290227,217.867250974));
#696 = ( GEOMETRIC_REPRESENTATION_CONTEXT(2) 
PARAMETRIC_REPRESENTATION_CONTEXT() REPRESENTATION_CONTEXT('2D SPACE',''
  ) );
#697 = PCURVE('',#402,#698);
#698 = DEFINITIONAL_REPRESENTATION('',(#699),#702);
#699 = B_SPLINE_CURVE_WITH_KNOTS('',1,(#700,#701),.UNSPECIFIED.,.F.,.F.,
  (2,2),(178.67926312217,217.867250974),.PIECEWISE_BEZIER_KNOTS.);
#700 = CARTESIAN_POINT('',(1.027315129032,78.697634648165));
#701 = CARTESIAN_POINT('',(1.027315129032,117.8856225));
#702 = ( GEOMETRIC_REPRESENTATION_CONTEXT(2) 
PARAMETRIC_REPRESENTATION_CONTEXT() REPRESENTATION_CONTEXT('2D SPACE',''
  ) );
#703 = ORIENTED_EDGE('',*,*,#543,.F.);
#704 = ADVANCED_FACE('',(#705),#402,.F.);
#705 = FACE_BOUND('',#706,.F.);
#706 = EDGE_LOOP('',(#707,#726,#727,#728));
#707 = ORIENTED_EDGE('',*,*,#708,.T.);
#708 = EDGE_CURVE('',#182,#572,#709,.T.);
#709 = SURFACE_CURVE('',#710,(#714,#720),.PCURVE_S1.);
#710 = LINE('',#711,#712);
#711 = CARTESIAN_POINT('',(25.563256234821,34.039220811264,70.3856219));
#712 = VECTOR('',#713,1.);
#713 = DIRECTION('',(0.,0.,-1.));
#714 = PCURVE('',#402,#715);
#715 = DEFINITIONAL_REPRESENTATION('',(#716),#719);
#716 = B_SPLINE_CURVE_WITH_KNOTS('',1,(#717,#718),.UNSPECIFIED.,.F.,.F.,
  (2,2),(62.930115182091,117.8856225),.PIECEWISE_BEZIER_KNOTS.);
#717 = CARTESIAN_POINT('',(1.314048191563,62.930115182091));
#718 = CARTESIAN_POINT('',(1.314048191563,117.8856225));
#719 = ( GEOMETRIC_REPRESENTATION_CONTEXT(2) 
PARAMETRIC_REPRESENTATION_CONTEXT() REPRESENTATION_CONTEXT('2D SPACE',''
  ) );
#720 = PCURVE('',#307,#721);
#721 = DEFINITIONAL_REPRESENTATION('',(#722),#725);
#722 = B_SPLINE_CURVE_WITH_KNOTS('',1,(#723,#724),.UNSPECIFIED.,.F.,.F.,
  (2,2),(62.930115182091,117.8856225),.PIECEWISE_BEZIER_KNOTS.);
#723 = CARTESIAN_POINT('',(0.738532479979,66.930115182091));
#724 = CARTESIAN_POINT('',(0.738532479979,121.8856225));
#725 = ( GEOMETRIC_REPRESENTATION_CONTEXT(2) 
PARAMETRIC_REPRESENTATION_CONTEXT() REPRESENTATION_CONTEXT('2D SPACE',''
  ) );
#726 = ORIENTED_EDGE('',*,*,#571,.F.);
#727 = ORIENTED_EDGE('',*,*,#685,.F.);
#728 = ORIENTED_EDGE('',*,*,#374,.T.);
#729 = ADVANCED_FACE('',(#730),#307,.F.);
#730 = FACE_BOUND('',#731,.F.);
#731 = EDGE_LOOP('',(#732,#733,#734,#735));
#732 = ORIENTED_EDGE('',*,*,#181,.T.);
#733 = ORIENTED_EDGE('',*,*,#660,.T.);
#734 = ORIENTED_EDGE('',*,*,#599,.F.);
#735 = ORIENTED_EDGE('',*,*,#708,.F.);
#736 = MANIFOLD_SOLID_BREP('',#737);
#737 = CLOSED_SHELL('',(#738,#856,#1012,#1064,#1095));
#738 = ADVANCED_FACE('',(#739),#753,.T.);
#739 = FACE_BOUND('',#740,.T.);
#740 = EDGE_LOOP('',(#741,#774,#803,#829));
#741 = ORIENTED_EDGE('',*,*,#742,.T.);
#742 = EDGE_CURVE('',#743,#745,#747,.T.);
#743 = VERTEX_POINT('',#744);
#744 = CARTESIAN_POINT('',(1.289662529407,-49.98336493835,-47.5));
#745 = VERTEX_POINT('',#746);
#746 = CARTESIAN_POINT('',(1.289662529407,-49.98336493835,7.455506117909
    ));
#747 = SURFACE_CURVE('',#748,(#752,#763),.PCURVE_S1.);
#748 = LINE('',#749,#750);
#749 = CARTESIAN_POINT('',(1.289662529407,-49.98336493835,-47.5));
#750 = VECTOR('',#751,1.);
#751 = DIRECTION('',(0.,0.,1.));
#752 = PCURVE('',#753,#758);
#753 = CYLINDRICAL_SURFACE('',#754,50.);
#754 = AXIS2_PLACEMENT_3D('',#755,#756,#757);
#755 = CARTESIAN_POINT('',(0.,0.,-47.5));
#756 = DIRECTION('',(0.,0.,1.));
#757 = DIRECTION('',(1.,0.,-0.));
#758 = DEFINITIONAL_REPRESENTATION('',(#759),#762);
#759 = B_SPLINE_CURVE_WITH_KNOTS('',1,(#760,#761),.UNSPECIFIED.,.F.,.F.,
  (2,2),(-5.999999999062E-07,54.955506717909),.PIECEWISE_BEZIER_KNOTS.);
#760 = CARTESIAN_POINT('',(4.738185091836,-5.999999999062E-07));
#761 = CARTESIAN_POINT('',(4.738185091836,54.955506717909));
#762 = ( GEOMETRIC_REPRESENTATION_CONTEXT(2) 
PARAMETRIC_REPRESENTATION_CONTEXT() REPRESENTATION_CONTEXT('2D SPACE',''
  ) );
#763 = PCURVE('',#764,#769);
#764 = CYLINDRICAL_SURFACE('',#765,35.19281095);
#765 = AXIS2_PLACEMENT_3D('',#766,#767,#768);
#766 = CARTESIAN_POINT('',(34.,-37.,70.3856219));
#767 = DIRECTION('',(0.,0.,-1.));
#768 = DIRECTION('',(-1.,0.,0.));
#769 = DEFINITIONAL_REPRESENTATION('',(#770),#773);
#770 = B_SPLINE_CURVE_WITH_KNOTS('',1,(#771,#772),.UNSPECIFIED.,.F.,.F.,
  (2,2),(-5.999999999062E-07,54.955506717909),.PIECEWISE_BEZIER_KNOTS.);
#771 = CARTESIAN_POINT('',(5.905337505786,117.8856225));
#772 = CARTESIAN_POINT('',(5.905337505786,62.930115182091));
#773 = ( GEOMETRIC_REPRESENTATION_CONTEXT(2) 
PARAMETRIC_REPRESENTATION_CONTEXT() REPRESENTATION_CONTEXT('2D SPACE',''
  ) );
#774 = ORIENTED_EDGE('',*,*,#775,.F.);
#775 = EDGE_CURVE('',#776,#745,#778,.T.);
#776 = VERTEX_POINT('',#777);
#777 = CARTESIAN_POINT('',(-1.88220493431,-49.96456048626,7.455506117909
    ));
#778 = SURFACE_CURVE('',#779,(#784,#791),.PCURVE_S1.);
#779 = CIRCLE('',#780,50.);
#780 = AXIS2_PLACEMENT_3D('',#781,#782,#783);
#781 = CARTESIAN_POINT('',(0.,0.,7.455506117909));
#782 = DIRECTION('',(0.,0.,1.));
#783 = DIRECTION('',(0.,-1.,0.));
#784 = PCURVE('',#753,#785);
#785 = DEFINITIONAL_REPRESENTATION('',(#786),#790);
#786 = LINE('',#787,#788);
#787 = CARTESIAN_POINT('',(-1.570796326795,54.955506117909));
#788 = VECTOR('',#789,1.);
#789 = DIRECTION('',(1.,0.));
#790 = ( GEOMETRIC_REPRESENTATION_CONTEXT(2) 
PARAMETRIC_REPRESENTATION_CONTEXT() REPRESENTATION_CONTEXT('2D SPACE',''
  ) );
#791 = PCURVE('',#792,#797);
#792 = CONICAL_SURFACE('',#793,0.1,0.784842299086);
#793 = AXIS2_PLACEMENT_3D('',#794,#795,#796);
#794 = CARTESIAN_POINT('',(0.,0.,-42.5));
#795 = DIRECTION('',(0.,0.,1.));
#796 = DIRECTION('',(1.,0.,0.));
#797 = DEFINITIONAL_REPRESENTATION('',(#798),#802);
#798 = LINE('',#799,#800);
#799 = CARTESIAN_POINT('',(-1.570796326795,49.955506117909));
#800 = VECTOR('',#801,1.);
#801 = DIRECTION('',(1.,0.));
#802 = ( GEOMETRIC_REPRESENTATION_CONTEXT(2) 
PARAMETRIC_REPRESENTATION_CONTEXT() REPRESENTATION_CONTEXT('2D SPACE',''
  ) );
#803 = ORIENTED_EDGE('',*,*,#804,.F.);
#804 = EDGE_CURVE('',#805,#776,#807,.T.);
#805 = VERTEX_POINT('',#806);
#806 = CARTESIAN_POINT('',(-1.88220493431,-49.96456048626,-47.5));
#807 = SURFACE_CURVE('',#808,(#812,#818),.PCURVE_S1.);
#808 = LINE('',#809,#810);
#809 = CARTESIAN_POINT('',(-1.88220493431,-49.96456048626,-47.5));
#810 = VECTOR('',#811,1.);
#811 = DIRECTION('',(0.,0.,1.));
#812 = PCURVE('',#753,#813);
#813 = DEFINITIONAL_REPRESENTATION('',(#814),#817);
#814 = B_SPLINE_CURVE_WITH_KNOTS('',1,(#815,#816),.UNSPECIFIED.,.F.,.F.,
  (2,2),(-5.999999999062E-07,54.955506717909),.PIECEWISE_BEZIER_KNOTS.);
#815 = CARTESIAN_POINT('',(4.674735985252,-5.999999999062E-07));
#816 = CARTESIAN_POINT('',(4.674735985252,54.955506717909));
#817 = ( GEOMETRIC_REPRESENTATION_CONTEXT(2) 
PARAMETRIC_REPRESENTATION_CONTEXT() REPRESENTATION_CONTEXT('2D SPACE',''
  ) );
#818 = PCURVE('',#819,#824);
#819 = CYLINDRICAL_SURFACE('',#820,35.19281095);
#820 = AXIS2_PLACEMENT_3D('',#821,#822,#823);
#821 = CARTESIAN_POINT('',(-34.6,-37.,70.3856219));
#822 = DIRECTION('',(0.,0.,-1.));
#823 = DIRECTION('',(-1.,0.,0.));
#824 = DEFINITIONAL_REPRESENTATION('',(#825),#828);
#825 = B_SPLINE_CURVE_WITH_KNOTS('',1,(#826,#827),.UNSPECIFIED.,.F.,.F.,
  (2,2),(-5.999999999062E-07,54.955506717909),.PIECEWISE_BEZIER_KNOTS.);
#826 = CARTESIAN_POINT('',(3.518865642564,117.8856225));
#827 = CARTESIAN_POINT('',(3.518865642564,62.930115182091));
#828 = ( GEOMETRIC_REPRESENTATION_CONTEXT(2) 
PARAMETRIC_REPRESENTATION_CONTEXT() REPRESENTATION_CONTEXT('2D SPACE',''
  ) );
#829 = ORIENTED_EDGE('',*,*,#830,.T.);
#830 = EDGE_CURVE('',#805,#743,#831,.T.);
#831 = SURFACE_CURVE('',#832,(#837,#844),.PCURVE_S1.);
#832 = CIRCLE('',#833,50.);
#833 = AXIS2_PLACEMENT_3D('',#834,#835,#836);
#834 = CARTESIAN_POINT('',(0.,0.,-47.5));
#835 = DIRECTION('',(0.,0.,1.));
#836 = DIRECTION('',(1.,0.,-0.));
#837 = PCURVE('',#753,#838);
#838 = DEFINITIONAL_REPRESENTATION('',(#839),#843);
#839 = LINE('',#840,#841);
#840 = CARTESIAN_POINT('',(0.,0.));
#841 = VECTOR('',#842,1.);
#842 = DIRECTION('',(1.,0.));
#843 = ( GEOMETRIC_REPRESENTATION_CONTEXT(2) 
PARAMETRIC_REPRESENTATION_CONTEXT() REPRESENTATION_CONTEXT('2D SPACE',''
  ) );
#844 = PCURVE('',#845,#850);
#845 = PLANE('',#846);
#846 = AXIS2_PLACEMENT_3D('',#847,#848,#849);
#847 = CARTESIAN_POINT('',(0.,0.,-47.5));
#848 = DIRECTION('',(0.,0.,1.));
#849 = DIRECTION('',(1.,0.,-0.));
#850 = DEFINITIONAL_REPRESENTATION('',(#851),#855);
#851 = CIRCLE('',#852,50.);
#852 = AXIS2_PLACEMENT_2D('',#853,#854);
#853 = CARTESIAN_POINT('',(0.,0.));
#854 = DIRECTION('',(1.,0.));
#855 = ( GEOMETRIC_REPRESENTATION_CONTEXT(2) 
PARAMETRIC_REPRESENTATION_CONTEXT() REPRESENTATION_CONTEXT('2D SPACE',''
  ) );
#856 = ADVANCED_FACE('',(#857),#792,.F.);
#857 = FACE_BOUND('',#858,.F.);
#858 = EDGE_LOOP('',(#859,#951,#952));
#859 = ORIENTED_EDGE('',*,*,#860,.F.);
#860 = EDGE_CURVE('',#745,#861,#863,.T.);
#861 = VERTEX_POINT('',#862);
#862 = CARTESIAN_POINT('',(-0.300000000617,-44.87679773219,
    2.327608922303));
#863 = SURFACE_CURVE('',#864,(#891,#921),.PCURVE_S1.);
#864 = B_SPLINE_CURVE_WITH_KNOTS('',4,(#865,#866,#867,#868,#869,#870,
    #871,#872,#873,#874,#875,#876,#877,#878,#879,#880,#881,#882,#883,
    #884,#885,#886,#887,#888,#889,#890),.UNSPECIFIED.,.F.,.F.,(5,3,3,3,3
    ,3,3,3,5),(0.,0.121934570239,0.245016613134,0.369142535365,
    0.493695089813,0.61955456952,0.746082724512,0.873126009747,1.),
  .UNSPECIFIED.);
#865 = CARTESIAN_POINT('',(1.289662529407,-49.98336493835,7.455506117909
    ));
#866 = CARTESIAN_POINT('',(1.135437604632,-49.59481009453,7.062666095727
    ));
#867 = CARTESIAN_POINT('',(0.987896095488,-49.20514638805,6.669443662447
    ));
#868 = CARTESIAN_POINT('',(0.846973268151,-48.81448793423,6.275861299673
    ));
#869 = CARTESIAN_POINT('',(0.576980285902,-48.02770602897,5.484312197187
    ));
#870 = CARTESIAN_POINT('',(0.448034160732,-47.63156576827,5.08633907237)
  );
#871 = CARTESIAN_POINT('',(0.325708776916,-47.23462613454,4.688042738346
    ));
#872 = CARTESIAN_POINT('',(9.32040115426E-02,-46.43597207428,
    3.887464976122));
#873 = CARTESIAN_POINT('',(-1.686354538402E-02,-46.03424572073,
    3.485178418722));
#874 = CARTESIAN_POINT('',(-0.120313694751,-45.63190701344,
    3.082605964062));
#875 = CARTESIAN_POINT('',(-0.314417767724,-44.82480292314,
    2.275546564435));
#876 = CARTESIAN_POINT('',(-0.405026468545,-44.42003396179,
    1.871057815327));
#877 = CARTESIAN_POINT('',(-0.489078685545,-44.0148327283,1.466323471239
    ));
#878 = CARTESIAN_POINT('',(-0.64497827985,-43.19947605142,0.652156435407
    ));
#879 = CARTESIAN_POINT('',(-0.716688310873,-42.78931323771,
    0.242719028858));
#880 = CARTESIAN_POINT('',(-0.781800509546,-42.37887920066,
    -0.166925965297));
#881 = CARTESIAN_POINT('',(-0.899223554455,-41.55543811348,
    -0.988764414631));
#882 = CARTESIAN_POINT('',(-0.9514645124,-41.14242896765,-1.400959820224
    ));
#883 = CARTESIAN_POINT('',(-0.997121659043,-40.72929879612,
    -1.813320330921));
#884 = CARTESIAN_POINT('',(-1.075495285923,-39.90124624851,
    -2.640004295431));
#885 = CARTESIAN_POINT('',(-1.108158270012,-39.48632339822,
    -3.054328873882));
#886 = CARTESIAN_POINT('',(-1.134252145595,-39.07141192763,
    -3.468772738644));
#887 = CARTESIAN_POINT('',(-1.173323925119,-38.24227448131,
    -4.297296010303));
#888 = CARTESIAN_POINT('',(-1.186319184742,-37.82804828459,
    -4.711375126641));
#889 = CARTESIAN_POINT('',(-1.19281095,-37.41394299514,-5.125522738844)
  );
#890 = CARTESIAN_POINT('',(-1.19281095,-37.,-5.539711005784));
#891 = PCURVE('',#792,#892);
#892 = DEFINITIONAL_REPRESENTATION('',(#893),#920);
#893 = B_SPLINE_CURVE_WITH_KNOTS('',4,(#894,#895,#896,#897,#898,#899,
    #900,#901,#902,#903,#904,#905,#906,#907,#908,#909,#910,#911,#912,
    #913,#914,#915,#916,#917,#918,#919),.UNSPECIFIED.,.F.,.F.,(5,3,3,3,3
    ,3,3,3,5),(0.,0.121934570239,0.245016613134,0.369142535365,
    0.493695089813,0.61955456952,0.746082724512,0.873126009747,1.),
  .UNSPECIFIED.);
#894 = CARTESIAN_POINT('',(4.738185091836,49.955506117909));
#895 = CARTESIAN_POINT('',(4.735302061406,49.562666095727));
#896 = CARTESIAN_POINT('',(4.732492891225,49.169443662447));
#897 = CARTESIAN_POINT('',(4.729759504162,48.775861299673));
#898 = CARTESIAN_POINT('',(4.724424047997,47.984312197187));
#899 = CARTESIAN_POINT('',(4.72182345926,47.58633907237));
#900 = CARTESIAN_POINT('',(4.719304938984,47.188042738346));
#901 = CARTESIAN_POINT('',(4.714417344519,46.387464976122));
#902 = CARTESIAN_POINT('',(4.712049722315,45.985178418722));
#903 = CARTESIAN_POINT('',(4.709771642733,45.582605964062));
#904 = CARTESIAN_POINT('',(4.705394469217,44.775546564435));
#905 = CARTESIAN_POINT('',(4.703296021773,44.371057815327));
#906 = CARTESIAN_POINT('',(4.701295209055,43.966323471239));
#907 = CARTESIAN_POINT('',(4.697478004793,43.152156435407));
#908 = CARTESIAN_POINT('',(4.695663774576,42.742719028858));
#909 = CARTESIAN_POINT('',(4.693958554957,42.333074034703));
#910 = CARTESIAN_POINT('',(4.690769056887,41.511235585369));
#911 = CARTESIAN_POINT('',(4.689286008369,41.099040179776));
#912 = CARTESIAN_POINT('',(4.687924656523,40.686679669079));
#913 = CARTESIAN_POINT('',(4.685454405111,39.859995704569));
#914 = CARTESIAN_POINT('',(4.684346566673,39.445671126118));
#915 = CARTESIAN_POINT('',(4.683375642375,39.031227261356));
#916 = CARTESIAN_POINT('',(4.681726177798,38.202703989697));
#917 = CARTESIAN_POINT('',(4.681047264049,37.788624873359));
#918 = CARTESIAN_POINT('',(4.680522302433,37.374477261156));
#919 = CARTESIAN_POINT('',(4.680162007977,36.960288994216));
#920 = ( GEOMETRIC_REPRESENTATION_CONTEXT(2) 
PARAMETRIC_REPRESENTATION_CONTEXT() REPRESENTATION_CONTEXT('2D SPACE',''
  ) );
#921 = PCURVE('',#764,#922);
#922 = DEFINITIONAL_REPRESENTATION('',(#923),#950);
#923 = B_SPLINE_CURVE_WITH_KNOTS('',4,(#924,#925,#926,#927,#928,#929,
    #930,#931,#932,#933,#934,#935,#936,#937,#938,#939,#940,#941,#942,
    #943,#944,#945,#946,#947,#948,#949),.UNSPECIFIED.,.F.,.F.,(5,3,3,3,3
    ,3,3,3,5),(0.,0.121934570239,0.245016613134,0.369142535365,
    0.493695089813,0.61955456952,0.746082724512,0.873126009747,1.),
  .UNSPECIFIED.);
#924 = CARTESIAN_POINT('',(5.905337505786,62.930115782091));
#925 = CARTESIAN_POINT('',(5.917216161705,63.322955804273));
#926 = CARTESIAN_POINT('',(5.929054042764,63.716178237553));
#927 = CARTESIAN_POINT('',(5.940853278941,64.109760600327));
#928 = CARTESIAN_POINT('',(5.964489312935,64.901309702813));
#929 = CARTESIAN_POINT('',(5.976325420045,65.29928282763));
#930 = CARTESIAN_POINT('',(5.988126408724,65.697579161654));
#931 = CARTESIAN_POINT('',(6.011762183048,66.498156923878));
#932 = CARTESIAN_POINT('',(6.023596407361,66.900443481278));
#933 = CARTESIAN_POINT('',(6.035399233472,67.303015935938));
#934 = CARTESIAN_POINT('',(6.058986906002,68.110075335565));
#935 = CARTESIAN_POINT('',(6.070771552239,68.514564084673));
#936 = CARTESIAN_POINT('',(6.082528971975,68.919298428761));
#937 = CARTESIAN_POINT('',(6.106116948984,69.733465464593));
#938 = CARTESIAN_POINT('',(6.117946980492,70.142902871142));
#939 = CARTESIAN_POINT('',(6.129753812933,70.552547865297));
#940 = CARTESIAN_POINT('',(6.153388504719,71.374386314631));
#941 = CARTESIAN_POINT('',(6.165216144221,71.786581720224));
#942 = CARTESIAN_POINT('',(6.177025209761,72.198942230921));
#943 = CARTESIAN_POINT('',(6.200659389993,73.025626195431));
#944 = CARTESIAN_POINT('',(6.212484376534,73.439950773882));
#945 = CARTESIAN_POINT('',(6.224295875677,73.854394638644));
#946 = CARTESIAN_POINT('',(6.247881872676,74.682917910303));
#947 = CARTESIAN_POINT('',(6.259656401841,75.096997026641));
#948 = CARTESIAN_POINT('',(6.271423160765,75.511144638844));
#949 = CARTESIAN_POINT('',(6.28318530718,75.925332905784));
#950 = ( GEOMETRIC_REPRESENTATION_CONTEXT(2) 
PARAMETRIC_REPRESENTATION_CONTEXT() REPRESENTATION_CONTEXT('2D SPACE',''
  ) );
#951 = ORIENTED_EDGE('',*,*,#775,.F.);
#952 = ORIENTED_EDGE('',*,*,#953,.F.);
#953 = EDGE_CURVE('',#861,#776,#954,.T.);
#954 = SURFACE_CURVE('',#955,(#972,#992),.PCURVE_S1.);
#955 = B_SPLINE_CURVE_WITH_KNOTS('',8,(#956,#957,#958,#959,#960,#961,
    #962,#963,#964,#965,#966,#967,#968,#969,#970,#971),.UNSPECIFIED.,.F.
  ,.F.,(9,7,9),(0.,0.140413812122,1.),.UNSPECIFIED.);
#956 = CARTESIAN_POINT('',(0.48493335238,-34.24656683003,-8.312013348165
    ));
#957 = CARTESIAN_POINT('',(0.506676587591,-34.52362456528,
    -8.034367034271));
#958 = CARTESIAN_POINT('',(0.525908749346,-34.80074172959,
    -7.756686316286));
#959 = CARTESIAN_POINT('',(0.542633944597,-35.07791721567,
    -7.478977619666));
#960 = CARTESIAN_POINT('',(0.55685540153,-35.35514905316,-7.201247121687
    ));
#961 = CARTESIAN_POINT('',(0.56857546956,-35.63243440862,-6.923500751443
    ));
#962 = CARTESIAN_POINT('',(0.577795619334,-35.90976958552,
    -6.645744189843));
#963 = CARTESIAN_POINT('',(0.584516442728,-36.18715002427,
    -6.367982869616));
#964 = CARTESIAN_POINT('',(0.614579084419,-38.16288356304,-4.38982352682
    ));
#965 = CARTESIAN_POINT('',(0.54674564504,-39.86262338315,-2.689511113371
    ));
#966 = CARTESIAN_POINT('',(0.385219095209,-41.56268461606,
    -0.990373671364));
#967 = CARTESIAN_POINT('',(0.128913983878,-43.26078298121,0.706639523454
    ));
#968 = CARTESIAN_POINT('',(-0.223763230275,-44.95393731728,
    2.400616212287));
#969 = CARTESIAN_POINT('',(-0.67484370957,-46.63852360359,4.09066911008)
  );
#970 = CARTESIAN_POINT('',(-1.226714385608,-48.31034278542,
    5.775919352073));
#971 = CARTESIAN_POINT('',(-1.88220493431,-49.96456048626,7.455506117909
    ));
#972 = PCURVE('',#792,#973);
#973 = DEFINITIONAL_REPRESENTATION('',(#974),#991);
#974 = B_SPLINE_CURVE_WITH_KNOTS('',8,(#975,#976,#977,#978,#979,#980,
    #981,#982,#983,#984,#985,#986,#987,#988,#989,#990),.UNSPECIFIED.,.F.
  ,.F.,(9,7,9),(0.,0.140413812122,1.),.UNSPECIFIED.);
#975 = CARTESIAN_POINT('',(4.72654809151,34.187986651835));
#976 = CARTESIAN_POINT('',(4.727068333715,34.465632965729));
#977 = CARTESIAN_POINT('',(4.727505625202,34.743313683714));
#978 = CARTESIAN_POINT('',(4.727862748379,35.021022380334));
#979 = CARTESIAN_POINT('',(4.728142340288,35.298752878313));
#980 = CARTESIAN_POINT('',(4.72834689261,35.576499248557));
#981 = CARTESIAN_POINT('',(4.728478751665,35.854255810157));
#982 = CARTESIAN_POINT('',(4.728540118407,36.132017130384));
#983 = CARTESIAN_POINT('',(4.728489767402,38.11017647318));
#984 = CARTESIAN_POINT('',(4.725882219859,39.810488886631));
#985 = CARTESIAN_POINT('',(4.721187970265,41.509626328629));
#986 = CARTESIAN_POINT('',(4.714714087158,43.206639523463));
#987 = CARTESIAN_POINT('',(4.706686875703,44.90061621228));
#988 = CARTESIAN_POINT('',(4.697271203753,46.590669110082));
#989 = CARTESIAN_POINT('',(4.686591073432,48.275919352073));
#990 = CARTESIAN_POINT('',(4.674735985252,49.955506117909));
#991 = ( GEOMETRIC_REPRESENTATION_CONTEXT(2) 
PARAMETRIC_REPRESENTATION_CONTEXT() REPRESENTATION_CONTEXT('2D SPACE',''
  ) );
#992 = PCURVE('',#819,#993);
#993 = DEFINITIONAL_REPRESENTATION('',(#994),#1011);
#994 = B_SPLINE_CURVE_WITH_KNOTS('',8,(#995,#996,#997,#998,#999,#1000,
    #1001,#1002,#1003,#1004,#1005,#1006,#1007,#1008,#1009,#1010),
  .UNSPECIFIED.,.F.,.F.,(9,7,9),(0.,0.140413812122,1.),.UNSPECIFIED.);
#995 = CARTESIAN_POINT('',(3.06327410091,78.697635248165));
#996 = CARTESIAN_POINT('',(3.071170873364,78.419988934271));
#997 = CARTESIAN_POINT('',(3.079063747973,78.142308216286));
#998 = CARTESIAN_POINT('',(3.086953450587,77.864599519666));
#999 = CARTESIAN_POINT('',(3.094840679911,77.586869021687));
#1000 = CARTESIAN_POINT('',(3.102726107506,77.309122651443));
#1001 = CARTESIAN_POINT('',(3.11061037779,77.031366089843));
#1002 = CARTESIAN_POINT('',(3.118494108034,76.753604769616));
#1003 = CARTESIAN_POINT('',(3.174640866075,74.77544542682));
#1004 = CARTESIAN_POINT('',(3.222903880392,73.07513301337));
#1005 = CARTESIAN_POINT('',(3.271306811758,71.375995571371));
#1006 = CARTESIAN_POINT('',(3.319955676761,69.678982376537));
#1007 = CARTESIAN_POINT('',(3.368945310047,67.98500568772));
#1008 = CARTESIAN_POINT('',(3.418364961571,66.294952789918));
#1009 = CARTESIAN_POINT('',(3.468305459718,64.609702547927));
#1010 = CARTESIAN_POINT('',(3.518865642564,62.930115782091));
#1011 = ( GEOMETRIC_REPRESENTATION_CONTEXT(2) 
PARAMETRIC_REPRESENTATION_CONTEXT() REPRESENTATION_CONTEXT('2D SPACE',''
  ) );
#1012 = ADVANCED_FACE('',(#1013),#819,.F.);
#1013 = FACE_BOUND('',#1014,.F.);
#1014 = EDGE_LOOP('',(#1015,#1043,#1062,#1063));
#1015 = ORIENTED_EDGE('',*,*,#1016,.F.);
#1016 = EDGE_CURVE('',#1017,#805,#1019,.T.);
#1017 = VERTEX_POINT('',#1018);
#1018 = CARTESIAN_POINT('',(-0.3,-44.87679773527,-47.5));
#1019 = SURFACE_CURVE('',#1020,(#1025,#1032),.PCURVE_S1.);
#1020 = CIRCLE('',#1021,35.19281095);
#1021 = AXIS2_PLACEMENT_3D('',#1022,#1023,#1024);
#1022 = CARTESIAN_POINT('',(-34.6,-37.,-47.5));
#1023 = DIRECTION('',(0.,0.,-1.));
#1024 = DIRECTION('',(-1.,0.,0.));
#1025 = PCURVE('',#819,#1026);
#1026 = DEFINITIONAL_REPRESENTATION('',(#1027),#1031);
#1027 = LINE('',#1028,#1029);
#1028 = CARTESIAN_POINT('',(0.,117.8856219));
#1029 = VECTOR('',#1030,1.);
#1030 = DIRECTION('',(1.,0.));
#1031 = ( GEOMETRIC_REPRESENTATION_CONTEXT(2) 
PARAMETRIC_REPRESENTATION_CONTEXT() REPRESENTATION_CONTEXT('2D SPACE',''
  ) );
#1032 = PCURVE('',#845,#1033);
#1033 = DEFINITIONAL_REPRESENTATION('',(#1034),#1042);
#1034 = ( BOUNDED_CURVE() B_SPLINE_CURVE(2,(#1035,#1036,#1037,#1038,
#1039,#1040,#1041),.UNSPECIFIED.,.T.,.F.) B_SPLINE_CURVE_WITH_KNOTS((1,2
    ,2,2,2,1),(-2.094395102393,0.,2.094395102393,4.188790204786,
6.28318530718,8.377580409573),.UNSPECIFIED.) CURVE() 
GEOMETRIC_REPRESENTATION_ITEM() RATIONAL_B_SPLINE_CURVE((1.,0.5,1.,0.5,
1.,0.5,1.)) REPRESENTATION_ITEM('') );
#1035 = CARTESIAN_POINT('',(-69.79281095,-37.));
#1036 = CARTESIAN_POINT('',(-69.79281095,23.955736626566));
#1037 = CARTESIAN_POINT('',(-17.003594525,-6.522131686717));
#1038 = CARTESIAN_POINT('',(35.7856219,-37.));
#1039 = CARTESIAN_POINT('',(-17.003594525,-67.47786831328));
#1040 = CARTESIAN_POINT('',(-69.79281095,-97.95573662656));
#1041 = CARTESIAN_POINT('',(-69.79281095,-37.));
#1042 = ( GEOMETRIC_REPRESENTATION_CONTEXT(2) 
PARAMETRIC_REPRESENTATION_CONTEXT() REPRESENTATION_CONTEXT('2D SPACE',''
  ) );
#1043 = ORIENTED_EDGE('',*,*,#1044,.F.);
#1044 = EDGE_CURVE('',#861,#1017,#1045,.T.);
#1045 = SURFACE_CURVE('',#1046,(#1050,#1056),.PCURVE_S1.);
#1046 = LINE('',#1047,#1048);
#1047 = CARTESIAN_POINT('',(-0.3,-44.87679773527,70.3856219));
#1048 = VECTOR('',#1049,1.);
#1049 = DIRECTION('',(0.,0.,-1.));
#1050 = PCURVE('',#819,#1051);
#1051 = DEFINITIONAL_REPRESENTATION('',(#1052),#1055);
#1052 = B_SPLINE_CURVE_WITH_KNOTS('',1,(#1053,#1054),.UNSPECIFIED.,.F.,
  .F.,(2,2),(-6.000000070117E-07,140.7712444),.PIECEWISE_BEZIER_KNOTS.);
#1053 = CARTESIAN_POINT('',(3.367323137896,-6.000000070117E-07));
#1054 = CARTESIAN_POINT('',(3.367323137896,140.7712444));
#1055 = ( GEOMETRIC_REPRESENTATION_CONTEXT(2) 
PARAMETRIC_REPRESENTATION_CONTEXT() REPRESENTATION_CONTEXT('2D SPACE',''
  ) );
#1056 = PCURVE('',#764,#1057);
#1057 = DEFINITIONAL_REPRESENTATION('',(#1058),#1061);
#1058 = B_SPLINE_CURVE_WITH_KNOTS('',1,(#1059,#1060),.UNSPECIFIED.,.F.,
  .F.,(2,2),(-6.000000070117E-07,140.7712444),.PIECEWISE_BEZIER_KNOTS.);
#1059 = CARTESIAN_POINT('',(6.057454822873,-6.000000070117E-07));
#1060 = CARTESIAN_POINT('',(6.057454822873,140.7712444));
#1061 = ( GEOMETRIC_REPRESENTATION_CONTEXT(2) 
PARAMETRIC_REPRESENTATION_CONTEXT() REPRESENTATION_CONTEXT('2D SPACE',''
  ) );
#1062 = ORIENTED_EDGE('',*,*,#953,.T.);
#1063 = ORIENTED_EDGE('',*,*,#804,.F.);
#1064 = ADVANCED_FACE('',(#1065),#845,.F.);
#1065 = FACE_BOUND('',#1066,.F.);
#1066 = EDGE_LOOP('',(#1067,#1068,#1094));
#1067 = ORIENTED_EDGE('',*,*,#830,.T.);
#1068 = ORIENTED_EDGE('',*,*,#1069,.T.);
#1069 = EDGE_CURVE('',#743,#1017,#1070,.T.);
#1070 = SURFACE_CURVE('',#1071,(#1076,#1087),.PCURVE_S1.);
#1071 = CIRCLE('',#1072,35.19281095);
#1072 = AXIS2_PLACEMENT_3D('',#1073,#1074,#1075);
#1073 = CARTESIAN_POINT('',(34.,-37.,-47.5));
#1074 = DIRECTION('',(0.,0.,-1.));
#1075 = DIRECTION('',(-1.,0.,0.));
#1076 = PCURVE('',#845,#1077);
#1077 = DEFINITIONAL_REPRESENTATION('',(#1078),#1086);
#1078 = ( BOUNDED_CURVE() B_SPLINE_CURVE(2,(#1079,#1080,#1081,#1082,
#1083,#1084,#1085),.UNSPECIFIED.,.T.,.F.) B_SPLINE_CURVE_WITH_KNOTS((1,2
    ,2,2,2,1),(-2.094395102393,0.,2.094395102393,4.188790204786,
6.28318530718,8.377580409573),.UNSPECIFIED.) CURVE() 
GEOMETRIC_REPRESENTATION_ITEM() RATIONAL_B_SPLINE_CURVE((1.,0.5,1.,0.5,
1.,0.5,1.)) REPRESENTATION_ITEM('') );
#1079 = CARTESIAN_POINT('',(-1.19281095,-37.));
#1080 = CARTESIAN_POINT('',(-1.19281095,23.955736626566));
#1081 = CARTESIAN_POINT('',(51.596405475,-6.522131686717));
#1082 = CARTESIAN_POINT('',(104.3856219,-37.));
#1083 = CARTESIAN_POINT('',(51.596405475,-67.47786831328));
#1084 = CARTESIAN_POINT('',(-1.19281095,-97.95573662656));
#1085 = CARTESIAN_POINT('',(-1.19281095,-37.));
#1086 = ( GEOMETRIC_REPRESENTATION_CONTEXT(2) 
PARAMETRIC_REPRESENTATION_CONTEXT() REPRESENTATION_CONTEXT('2D SPACE',''
  ) );
#1087 = PCURVE('',#764,#1088);
#1088 = DEFINITIONAL_REPRESENTATION('',(#1089),#1093);
#1089 = LINE('',#1090,#1091);
#1090 = CARTESIAN_POINT('',(0.,117.8856219));
#1091 = VECTOR('',#1092,1.);
#1092 = DIRECTION('',(1.,0.));
#1093 = ( GEOMETRIC_REPRESENTATION_CONTEXT(2) 
PARAMETRIC_REPRESENTATION_CONTEXT() REPRESENTATION_CONTEXT('2D SPACE',''
  ) );
#1094 = ORIENTED_EDGE('',*,*,#1016,.T.);
#1095 = ADVANCED_FACE('',(#1096),#764,.F.);
#1096 = FACE_BOUND('',#1097,.F.);
#1097 = EDGE_LOOP('',(#1098,#1099,#1100,#1101));
#1098 = ORIENTED_EDGE('',*,*,#1044,.T.);
#1099 = ORIENTED_EDGE('',*,*,#1069,.F.);
#1100 = ORIENTED_EDGE('',*,*,#742,.T.);
#1101 = ORIENTED_EDGE('',*,*,#860,.T.);
#1102 = MANIFOLD_SOLID_BREP('',#1103);
#1103 = CLOSED_SHELL('',(#1104,#1222,#1328,#1399,#1431,#1497));
#1104 = ADVANCED_FACE('',(#1105),#1120,.T.);
#1105 = FACE_BOUND('',#1106,.T.);
#1106 = EDGE_LOOP('',(#1107,#1143,#1169,#1198));
#1107 = ORIENTED_EDGE('',*,*,#1108,.F.);
#1108 = EDGE_CURVE('',#1109,#1111,#1113,.T.);
#1109 = VERTEX_POINT('',#1110);
#1110 = CARTESIAN_POINT('',(-46.95479359974,17.182763398388,
    7.455506117909));
#1111 = VERTEX_POINT('',#1112);
#1112 = CARTESIAN_POINT('',(-49.72637036393,-5.223800381802,
    7.455506117909));
#1113 = SURFACE_CURVE('',#1114,(#1119,#1131),.PCURVE_S1.);
#1114 = CIRCLE('',#1115,50.);
#1115 = AXIS2_PLACEMENT_3D('',#1116,#1117,#1118);
#1116 = CARTESIAN_POINT('',(0.,0.,7.455506117909));
#1117 = DIRECTION('',(0.,0.,1.));
#1118 = DIRECTION('',(0.,-1.,0.));
#1119 = PCURVE('',#1120,#1125);
#1120 = CYLINDRICAL_SURFACE('',#1121,50.);
#1121 = AXIS2_PLACEMENT_3D('',#1122,#1123,#1124);
#1122 = CARTESIAN_POINT('',(0.,0.,-47.5));
#1123 = DIRECTION('',(0.,0.,1.));
#1124 = DIRECTION('',(1.,0.,-0.));
#1125 = DEFINITIONAL_REPRESENTATION('',(#1126),#1130);
#1126 = LINE('',#1127,#1128);
#1127 = CARTESIAN_POINT('',(-1.570796326795,54.955506117909));
#1128 = VECTOR('',#1129,1.);
#1129 = DIRECTION('',(1.,0.));
#1130 = ( GEOMETRIC_REPRESENTATION_CONTEXT(2) 
PARAMETRIC_REPRESENTATION_CONTEXT() REPRESENTATION_CONTEXT('2D SPACE',''
  ) );
#1131 = PCURVE('',#1132,#1137);
#1132 = CONICAL_SURFACE('',#1133,0.1,0.784842299086);
#1133 = AXIS2_PLACEMENT_3D('',#1134,#1135,#1136);
#1134 = CARTESIAN_POINT('',(0.,0.,-42.5));
#1135 = DIRECTION('',(0.,0.,1.));
#1136 = DIRECTION('',(1.,0.,0.));
#1137 = DEFINITIONAL_REPRESENTATION('',(#1138),#1142);
#1138 = LINE('',#1139,#1140);
#1139 = CARTESIAN_POINT('',(-1.570796326795,49.955506117909));
#1140 = VECTOR('',#1141,1.);
#1141 = DIRECTION('',(1.,0.));
#1142 = ( GEOMETRIC_REPRESENTATION_CONTEXT(2) 
PARAMETRIC_REPRESENTATION_CONTEXT() REPRESENTATION_CONTEXT('2D SPACE',''
  ) );
#1143 = ORIENTED_EDGE('',*,*,#1144,.F.);
#1144 = EDGE_CURVE('',#1145,#1109,#1147,.T.);
#1145 = VERTEX_POINT('',#1146);
#1146 = CARTESIAN_POINT('',(-46.95479359974,17.182763398388,-47.5));
#1147 = SURFACE_CURVE('',#1148,(#1152,#1158),.PCURVE_S1.);
#1148 = LINE('',#1149,#1150);
#1149 = CARTESIAN_POINT('',(-46.95479359974,17.182763398387,-47.5));
#1150 = VECTOR('',#1151,1.);
#1151 = DIRECTION('',(0.,0.,1.));
#1152 = PCURVE('',#1120,#1153);
#1153 = DEFINITIONAL_REPRESENTATION('',(#1154),#1157);
#1154 = B_SPLINE_CURVE_WITH_KNOTS('',1,(#1155,#1156),.UNSPECIFIED.,.F.,
  .F.,(2,2),(-5.999999999062E-07,54.955506717909),
  .PIECEWISE_BEZIER_KNOTS.);
#1155 = CARTESIAN_POINT('',(2.790786187645,-5.999999999062E-07));
#1156 = CARTESIAN_POINT('',(2.790786187645,54.955506717909));
#1157 = ( GEOMETRIC_REPRESENTATION_CONTEXT(2) 
PARAMETRIC_REPRESENTATION_CONTEXT() REPRESENTATION_CONTEXT('2D SPACE',''
  ) );
#1158 = PCURVE('',#1159,#1164);
#1159 = CYLINDRICAL_SURFACE('',#1160,35.19281095);
#1160 = AXIS2_PLACEMENT_3D('',#1161,#1162,#1163);
#1161 = CARTESIAN_POINT('',(-18.29,37.6,70.3856219));
#1162 = DIRECTION('',(0.,0.,-1.));
#1163 = DIRECTION('',(-1.,0.,0.));
#1164 = DEFINITIONAL_REPRESENTATION('',(#1165),#1168);
#1165 = B_SPLINE_CURVE_WITH_KNOTS('',1,(#1166,#1167),.UNSPECIFIED.,.F.,
  .F.,(2,2),(-5.999999999062E-07,54.955506717909),
  .PIECEWISE_BEZIER_KNOTS.);
#1166 = CARTESIAN_POINT('',(5.664268026712,117.8856225));
#1167 = CARTESIAN_POINT('',(5.664268026712,62.930115182091));
#1168 = ( GEOMETRIC_REPRESENTATION_CONTEXT(2) 
PARAMETRIC_REPRESENTATION_CONTEXT() REPRESENTATION_CONTEXT('2D SPACE',''
  ) );
#1169 = ORIENTED_EDGE('',*,*,#1170,.T.);
#1170 = EDGE_CURVE('',#1145,#1171,#1173,.T.);
#1171 = VERTEX_POINT('',#1172);
#1172 = CARTESIAN_POINT('',(-49.72637036393,-5.223800381802,-47.5));
#1173 = SURFACE_CURVE('',#1174,(#1179,#1186),.PCURVE_S1.);
#1174 = CIRCLE('',#1175,50.);
#1175 = AXIS2_PLACEMENT_3D('',#1176,#1177,#1178);
#1176 = CARTESIAN_POINT('',(0.,0.,-47.5));
#1177 = DIRECTION('',(0.,0.,1.));
#1178 = DIRECTION('',(1.,0.,-0.));
#1179 = PCURVE('',#1120,#1180);
#1180 = DEFINITIONAL_REPRESENTATION('',(#1181),#1185);
#1181 = LINE('',#1182,#1183);
#1182 = CARTESIAN_POINT('',(0.,0.));
#1183 = VECTOR('',#1184,1.);
#1184 = DIRECTION('',(1.,0.));
#1185 = ( GEOMETRIC_REPRESENTATION_CONTEXT(2) 
PARAMETRIC_REPRESENTATION_CONTEXT() REPRESENTATION_CONTEXT('2D SPACE',''
  ) );
#1186 = PCURVE('',#1187,#1192);
#1187 = PLANE('',#1188);
#1188 = AXIS2_PLACEMENT_3D('',#1189,#1190,#1191);
#1189 = CARTESIAN_POINT('',(0.,0.,-47.5));
#1190 = DIRECTION('',(0.,0.,1.));
#1191 = DIRECTION('',(1.,0.,-0.));
#1192 = DEFINITIONAL_REPRESENTATION('',(#1193),#1197);
#1193 = CIRCLE('',#1194,50.);
#1194 = AXIS2_PLACEMENT_2D('',#1195,#1196);
#1195 = CARTESIAN_POINT('',(0.,0.));
#1196 = DIRECTION('',(1.,0.));
#1197 = ( GEOMETRIC_REPRESENTATION_CONTEXT(2) 
PARAMETRIC_REPRESENTATION_CONTEXT() REPRESENTATION_CONTEXT('2D SPACE',''
  ) );
#1198 = ORIENTED_EDGE('',*,*,#1199,.T.);
#1199 = EDGE_CURVE('',#1171,#1111,#1200,.T.);
#1200 = SURFACE_CURVE('',#1201,(#1205,#1211),.PCURVE_S1.);
#1201 = LINE('',#1202,#1203);
#1202 = CARTESIAN_POINT('',(-49.72637036393,-5.223800381802,-47.5));
#1203 = VECTOR('',#1204,1.);
#1204 = DIRECTION('',(0.,0.,1.));
#1205 = PCURVE('',#1120,#1206);
#1206 = DEFINITIONAL_REPRESENTATION('',(#1207),#1210);
#1207 = B_SPLINE_CURVE_WITH_KNOTS('',1,(#1208,#1209),.UNSPECIFIED.,.F.,
  .F.,(2,2),(-5.999999999062E-07,54.955506717909),
  .PIECEWISE_BEZIER_KNOTS.);
#1208 = CARTESIAN_POINT('',(3.246259664284,-5.999999999062E-07));
#1209 = CARTESIAN_POINT('',(3.246259664284,54.955506717909));
#1210 = ( GEOMETRIC_REPRESENTATION_CONTEXT(2) 
PARAMETRIC_REPRESENTATION_CONTEXT() REPRESENTATION_CONTEXT('2D SPACE',''
  ) );
#1211 = PCURVE('',#1212,#1217);
#1212 = CYLINDRICAL_SURFACE('',#1213,35.19281095);
#1213 = AXIS2_PLACEMENT_3D('',#1214,#1215,#1216);
#1214 = CARTESIAN_POINT('',(-34.6,-37.,70.3856219));
#1215 = DIRECTION('',(0.,0.,-1.));
#1216 = DIRECTION('',(-1.,0.,0.));
#1217 = DEFINITIONAL_REPRESENTATION('',(#1218),#1221);
#1218 = B_SPLINE_CURVE_WITH_KNOTS('',1,(#1219,#1220),.UNSPECIFIED.,.F.,
  .F.,(2,2),(-5.999999999062E-07,54.955506717909),
  .PIECEWISE_BEZIER_KNOTS.);
#1219 = CARTESIAN_POINT('',(1.126509322259,117.8856225));
#1220 = CARTESIAN_POINT('',(1.126509322259,62.930115182091));
#1221 = ( GEOMETRIC_REPRESENTATION_CONTEXT(2) 
PARAMETRIC_REPRESENTATION_CONTEXT() REPRESENTATION_CONTEXT('2D SPACE',''
  ) );
#1222 = ADVANCED_FACE('',(#1223),#1159,.F.);
#1223 = FACE_BOUND('',#1224,.F.);
#1224 = EDGE_LOOP('',(#1225,#1226,#1254,#1280));
#1225 = ORIENTED_EDGE('',*,*,#1144,.F.);
#1226 = ORIENTED_EDGE('',*,*,#1227,.F.);
#1227 = EDGE_CURVE('',#1228,#1145,#1230,.T.);
#1228 = VERTEX_POINT('',#1229);
#1229 = CARTESIAN_POINT('',(-33.72520955401,5.972666116379,-47.5));
#1230 = SURFACE_CURVE('',#1231,(#1236,#1243),.PCURVE_S1.);
#1231 = CIRCLE('',#1232,35.19281095);
#1232 = AXIS2_PLACEMENT_3D('',#1233,#1234,#1235);
#1233 = CARTESIAN_POINT('',(-18.29,37.6,-47.5));
#1234 = DIRECTION('',(0.,0.,-1.));
#1235 = DIRECTION('',(-1.,0.,0.));
#1236 = PCURVE('',#1159,#1237);
#1237 = DEFINITIONAL_REPRESENTATION('',(#1238),#1242);
#1238 = LINE('',#1239,#1240);
#1239 = CARTESIAN_POINT('',(0.,117.8856219));
#1240 = VECTOR('',#1241,1.);
#1241 = DIRECTION('',(1.,0.));
#1242 = ( GEOMETRIC_REPRESENTATION_CONTEXT(2) 
PARAMETRIC_REPRESENTATION_CONTEXT() REPRESENTATION_CONTEXT('2D SPACE',''
  ) );
#1243 = PCURVE('',#1187,#1244);
#1244 = DEFINITIONAL_REPRESENTATION('',(#1245),#1253);
#1245 = ( BOUNDED_CURVE() B_SPLINE_CURVE(2,(#1246,#1247,#1248,#1249,
#1250,#1251,#1252),.UNSPECIFIED.,.T.,.F.) B_SPLINE_CURVE_WITH_KNOTS((1,2
    ,2,2,2,1),(-2.094395102393,0.,2.094395102393,4.188790204786,
6.28318530718,8.377580409573),.UNSPECIFIED.) CURVE() 
GEOMETRIC_REPRESENTATION_ITEM() RATIONAL_B_SPLINE_CURVE((1.,0.5,1.,0.5,
1.,0.5,1.)) REPRESENTATION_ITEM('') );
#1246 = CARTESIAN_POINT('',(-53.48281095,37.6));
#1247 = CARTESIAN_POINT('',(-53.48281095,98.555736626566));
#1248 = CARTESIAN_POINT('',(-0.693594525,68.077868313283));
#1249 = CARTESIAN_POINT('',(52.0956219,37.6));
#1250 = CARTESIAN_POINT('',(-0.693594525,7.122131686717));
#1251 = CARTESIAN_POINT('',(-53.48281095,-23.35573662656));
#1252 = CARTESIAN_POINT('',(-53.48281095,37.6));
#1253 = ( GEOMETRIC_REPRESENTATION_CONTEXT(2) 
PARAMETRIC_REPRESENTATION_CONTEXT() REPRESENTATION_CONTEXT('2D SPACE',''
  ) );
#1254 = ORIENTED_EDGE('',*,*,#1255,.F.);
#1255 = EDGE_CURVE('',#1256,#1228,#1258,.T.);
#1256 = VERTEX_POINT('',#1257);
#1257 = CARTESIAN_POINT('',(-33.72520955401,5.972666116379,
    -8.312013348165));
#1258 = SURFACE_CURVE('',#1259,(#1263,#1269),.PCURVE_S1.);
#1259 = LINE('',#1260,#1261);
#1260 = CARTESIAN_POINT('',(-33.72520955401,5.972666116379,170.367250374
    ));
#1261 = VECTOR('',#1262,1.);
#1262 = DIRECTION('',(0.,0.,-1.));
#1263 = PCURVE('',#1159,#1264);
#1264 = DEFINITIONAL_REPRESENTATION('',(#1265),#1268);
#1265 = B_SPLINE_CURVE_WITH_KNOTS('',1,(#1266,#1267),.UNSPECIFIED.,.F.,
  .F.,(2,2),(178.67926312217,217.867250974),.PIECEWISE_BEZIER_KNOTS.);
#1266 = CARTESIAN_POINT('',(5.166417926118,78.697634648165));
#1267 = CARTESIAN_POINT('',(5.166417926118,117.8856225));
#1268 = ( GEOMETRIC_REPRESENTATION_CONTEXT(2) 
PARAMETRIC_REPRESENTATION_CONTEXT() REPRESENTATION_CONTEXT('2D SPACE',''
  ) );
#1269 = PCURVE('',#1270,#1275);
#1270 = CYLINDRICAL_SURFACE('',#1271,34.25);
#1271 = AXIS2_PLACEMENT_3D('',#1272,#1273,#1274);
#1272 = CARTESIAN_POINT('',(0.,0.,170.367250374));
#1273 = DIRECTION('',(0.,0.,-1.));
#1274 = DIRECTION('',(-1.,0.,-0.));
#1275 = DEFINITIONAL_REPRESENTATION('',(#1276),#1279);
#1276 = B_SPLINE_CURVE_WITH_KNOTS('',1,(#1277,#1278),.UNSPECIFIED.,.F.,
  .F.,(2,2),(178.67926372217,217.867250374),.PIECEWISE_BEZIER_KNOTS.);
#1277 = CARTESIAN_POINT('',(6.458465873823,178.67926372217));
#1278 = CARTESIAN_POINT('',(6.458465873823,217.867250374));
#1279 = ( GEOMETRIC_REPRESENTATION_CONTEXT(2) 
PARAMETRIC_REPRESENTATION_CONTEXT() REPRESENTATION_CONTEXT('2D SPACE',''
  ) );
#1280 = ORIENTED_EDGE('',*,*,#1281,.T.);
#1281 = EDGE_CURVE('',#1256,#1109,#1282,.T.);
#1282 = SURFACE_CURVE('',#1283,(#1296,#1312),.PCURVE_S1.);
#1283 = B_SPLINE_CURVE_WITH_KNOTS('',6,(#1284,#1285,#1286,#1287,#1288,
    #1289,#1290,#1291,#1292,#1293,#1294,#1295),.UNSPECIFIED.,.F.,.F.,(7,
    5,7),(0.,0.51506518949,1.),.UNSPECIFIED.);
#1284 = CARTESIAN_POINT('',(-33.72520955401,5.972666116379,
    -8.312013348165));
#1285 = CARTESIAN_POINT('',(-35.00848632611,6.598948621445,
    -6.937658422837));
#1286 = CARTESIAN_POINT('',(-36.2713547259,7.292635707199,
    -5.566239468019));
#1287 = CARTESIAN_POINT('',(-37.51057983151,8.054428719809,
    -4.198185382434));
#1288 = CARTESIAN_POINT('',(-38.72250227673,8.885058576085,
    -2.833984512685));
#1289 = CARTESIAN_POINT('',(-39.90307241129,9.785235260288,
    -1.474185305956));
#1290 = CARTESIAN_POINT('',(-42.12550999807,11.66934787483,
    1.156164857258));
#1291 = CARTESIAN_POINT('',(-43.17142651268,12.645282741896,
    2.427254145261));
#1292 = CARTESIAN_POINT('',(-44.18176590183,13.684082476689,
    3.69339989098));
#1293 = CARTESIAN_POINT('',(-45.15232347918,14.7862970545,4.953990826231
    ));
#1294 = CARTESIAN_POINT('',(-46.07842560703,15.952385942381,
    6.208301075877));
#1295 = CARTESIAN_POINT('',(-46.95479359974,17.182763398388,
    7.455506117909));
#1296 = PCURVE('',#1159,#1297);
#1297 = DEFINITIONAL_REPRESENTATION('',(#1298),#1311);
#1298 = B_SPLINE_CURVE_WITH_KNOTS('',6,(#1299,#1300,#1301,#1302,#1303,
    #1304,#1305,#1306,#1307,#1308,#1309,#1310),.UNSPECIFIED.,.F.,.F.,(7,
    5,7),(0.,0.51506518949,1.),.UNSPECIFIED.);
#1299 = CARTESIAN_POINT('',(5.166417926118,78.697635248165));
#1300 = CARTESIAN_POINT('',(5.206992853389,77.323280322837));
#1301 = CARTESIAN_POINT('',(5.247886663293,75.951861368019));
#1302 = CARTESIAN_POINT('',(5.289145697544,74.583807282433));
#1303 = CARTESIAN_POINT('',(5.330815413325,73.219606412685));
#1304 = CARTESIAN_POINT('',(5.372943955239,71.859807205956));
#1305 = CARTESIAN_POINT('',(5.455733806587,69.229457042742));
#1306 = CARTESIAN_POINT('',(5.496335869276,67.958367754739));
#1307 = CARTESIAN_POINT('',(5.537438398025,66.69222200902));
#1308 = CARTESIAN_POINT('',(5.57909016021,65.431631073769));
#1309 = CARTESIAN_POINT('',(5.621345078332,64.177320824123));
#1310 = CARTESIAN_POINT('',(5.664268026712,62.930115782091));
#1311 = ( GEOMETRIC_REPRESENTATION_CONTEXT(2) 
PARAMETRIC_REPRESENTATION_CONTEXT() REPRESENTATION_CONTEXT('2D SPACE',''
  ) );
#1312 = PCURVE('',#1132,#1313);
#1313 = DEFINITIONAL_REPRESENTATION('',(#1314),#1327);
#1314 = B_SPLINE_CURVE_WITH_KNOTS('',6,(#1315,#1316,#1317,#1318,#1319,
    #1320,#1321,#1322,#1323,#1324,#1325,#1326),.UNSPECIFIED.,.F.,.F.,(7,
    5,7),(0.,0.51506518949,1.),.UNSPECIFIED.);
#1315 = CARTESIAN_POINT('',(2.966312086946,34.187986651835));
#1316 = CARTESIAN_POINT('',(2.954840468828,35.562341577163));
#1317 = CARTESIAN_POINT('',(2.942430658858,36.933760531981));
#1318 = CARTESIAN_POINT('',(2.929207889882,38.301814617566));
#1319 = CARTESIAN_POINT('',(2.915249766053,39.666015487315));
#1320 = CARTESIAN_POINT('',(2.900610808748,41.025814694044));
#1321 = CARTESIAN_POINT('',(2.870934765988,43.656164857258));
#1322 = CARTESIAN_POINT('',(2.85597142085,44.92725414526));
#1323 = CARTESIAN_POINT('',(2.840464664404,46.193399890981));
#1324 = CARTESIAN_POINT('',(2.824429549294,47.453990826231));
#1325 = CARTESIAN_POINT('',(2.807871665896,48.708301075877));
#1326 = CARTESIAN_POINT('',(2.790786187645,49.955506117909));
#1327 = ( GEOMETRIC_REPRESENTATION_CONTEXT(2) 
PARAMETRIC_REPRESENTATION_CONTEXT() REPRESENTATION_CONTEXT('2D SPACE',''
  ) );
#1328 = ADVANCED_FACE('',(#1329),#1270,.F.);
#1329 = FACE_BOUND('',#1330,.F.);
#1330 = EDGE_LOOP('',(#1331,#1355,#1356,#1380));
#1331 = ORIENTED_EDGE('',*,*,#1332,.T.);
#1332 = EDGE_CURVE('',#1333,#1256,#1335,.T.);
#1333 = VERTEX_POINT('',#1334);
#1334 = CARTESIAN_POINT('',(-34.20217003572,-1.809437715746,
    -8.312013348165));
#1335 = SURFACE_CURVE('',#1336,(#1341,#1348),.PCURVE_S1.);
#1336 = CIRCLE('',#1337,34.25);
#1337 = AXIS2_PLACEMENT_3D('',#1338,#1339,#1340);
#1338 = CARTESIAN_POINT('',(0.,0.,-8.312013348165));
#1339 = DIRECTION('',(0.,0.,-1.));
#1340 = DIRECTION('',(-0.998603504693,-5.283029826995E-02,-0.));
#1341 = PCURVE('',#1270,#1342);
#1342 = DEFINITIONAL_REPRESENTATION('',(#1343),#1347);
#1343 = LINE('',#1344,#1345);
#1344 = CARTESIAN_POINT('',(6.230330402743,178.67926372217));
#1345 = VECTOR('',#1346,1.);
#1346 = DIRECTION('',(1.,0.));
#1347 = ( GEOMETRIC_REPRESENTATION_CONTEXT(2) 
PARAMETRIC_REPRESENTATION_CONTEXT() REPRESENTATION_CONTEXT('2D SPACE',''
  ) );
#1348 = PCURVE('',#1132,#1349);
#1349 = DEFINITIONAL_REPRESENTATION('',(#1350),#1354);
#1350 = LINE('',#1351,#1352);
#1351 = CARTESIAN_POINT('',(3.194447558026,34.187986651835));
#1352 = VECTOR('',#1353,1.);
#1353 = DIRECTION('',(-1.,0.));
#1354 = ( GEOMETRIC_REPRESENTATION_CONTEXT(2) 
PARAMETRIC_REPRESENTATION_CONTEXT() REPRESENTATION_CONTEXT('2D SPACE',''
  ) );
#1355 = ORIENTED_EDGE('',*,*,#1255,.T.);
#1356 = ORIENTED_EDGE('',*,*,#1357,.T.);
#1357 = EDGE_CURVE('',#1228,#1358,#1360,.T.);
#1358 = VERTEX_POINT('',#1359);
#1359 = CARTESIAN_POINT('',(-34.20217003572,-1.809437715746,-47.5));
#1360 = SURFACE_CURVE('',#1361,(#1366,#1373),.PCURVE_S1.);
#1361 = CIRCLE('',#1362,34.25);
#1362 = AXIS2_PLACEMENT_3D('',#1363,#1364,#1365);
#1363 = CARTESIAN_POINT('',(0.,0.,-47.5));
#1364 = DIRECTION('',(0.,0.,1.));
#1365 = DIRECTION('',(-0.984677651212,0.174384412157,0.));
#1366 = PCURVE('',#1270,#1367);
#1367 = DEFINITIONAL_REPRESENTATION('',(#1368),#1372);
#1368 = LINE('',#1369,#1370);
#1369 = CARTESIAN_POINT('',(6.458465873823,217.867250374));
#1370 = VECTOR('',#1371,1.);
#1371 = DIRECTION('',(-1.,-0.));
#1372 = ( GEOMETRIC_REPRESENTATION_CONTEXT(2) 
PARAMETRIC_REPRESENTATION_CONTEXT() REPRESENTATION_CONTEXT('2D SPACE',''
  ) );
#1373 = PCURVE('',#1187,#1374);
#1374 = DEFINITIONAL_REPRESENTATION('',(#1375),#1379);
#1375 = CIRCLE('',#1376,34.25);
#1376 = AXIS2_PLACEMENT_2D('',#1377,#1378);
#1377 = CARTESIAN_POINT('',(0.,0.));
#1378 = DIRECTION('',(-0.984677651212,0.174384412157));
#1379 = ( GEOMETRIC_REPRESENTATION_CONTEXT(2) 
PARAMETRIC_REPRESENTATION_CONTEXT() REPRESENTATION_CONTEXT('2D SPACE',''
  ) );
#1380 = ORIENTED_EDGE('',*,*,#1381,.F.);
#1381 = EDGE_CURVE('',#1333,#1358,#1382,.T.);
#1382 = SURFACE_CURVE('',#1383,(#1387,#1393),.PCURVE_S1.);
#1383 = LINE('',#1384,#1385);
#1384 = CARTESIAN_POINT('',(-34.20217003572,-1.809437715746,
    170.367250374));
#1385 = VECTOR('',#1386,1.);
#1386 = DIRECTION('',(0.,0.,-1.));
#1387 = PCURVE('',#1270,#1388);
#1388 = DEFINITIONAL_REPRESENTATION('',(#1389),#1392);
#1389 = B_SPLINE_CURVE_WITH_KNOTS('',1,(#1390,#1391),.UNSPECIFIED.,.F.,
  .F.,(2,2),(178.67926372217,217.867250374),.PIECEWISE_BEZIER_KNOTS.);
#1390 = CARTESIAN_POINT('',(6.230330402743,178.67926372217));
#1391 = CARTESIAN_POINT('',(6.230330402743,217.867250374));
#1392 = ( GEOMETRIC_REPRESENTATION_CONTEXT(2) 
PARAMETRIC_REPRESENTATION_CONTEXT() REPRESENTATION_CONTEXT('2D SPACE',''
  ) );
#1393 = PCURVE('',#1212,#1394);
#1394 = DEFINITIONAL_REPRESENTATION('',(#1395),#1398);
#1395 = B_SPLINE_CURVE_WITH_KNOTS('',1,(#1396,#1397),.UNSPECIFIED.,.F.,
  .F.,(2,2),(178.67926312217,217.867250974),.PIECEWISE_BEZIER_KNOTS.);
#1396 = CARTESIAN_POINT('',(1.582100863913,78.697634648165));
#1397 = CARTESIAN_POINT('',(1.582100863913,117.8856225));
#1398 = ( GEOMETRIC_REPRESENTATION_CONTEXT(2) 
PARAMETRIC_REPRESENTATION_CONTEXT() REPRESENTATION_CONTEXT('2D SPACE',''
  ) );
#1399 = ADVANCED_FACE('',(#1400),#1187,.F.);
#1400 = FACE_BOUND('',#1401,.F.);
#1401 = EDGE_LOOP('',(#1402,#1403,#1404,#1430));
#1402 = ORIENTED_EDGE('',*,*,#1227,.T.);
#1403 = ORIENTED_EDGE('',*,*,#1170,.T.);
#1404 = ORIENTED_EDGE('',*,*,#1405,.T.);
#1405 = EDGE_CURVE('',#1171,#1358,#1406,.T.);
#1406 = SURFACE_CURVE('',#1407,(#1412,#1423),.PCURVE_S1.);
#1407 = CIRCLE('',#1408,35.19281095);
#1408 = AXIS2_PLACEMENT_3D('',#1409,#1410,#1411);
#1409 = CARTESIAN_POINT('',(-34.6,-37.,-47.5));
#1410 = DIRECTION('',(0.,0.,-1.));
#1411 = DIRECTION('',(-1.,0.,0.));
#1412 = PCURVE('',#1187,#1413);
#1413 = DEFINITIONAL_REPRESENTATION('',(#1414),#1422);
#1414 = ( BOUNDED_CURVE() B_SPLINE_CURVE(2,(#1415,#1416,#1417,#1418,
#1419,#1420,#1421),.UNSPECIFIED.,.T.,.F.) B_SPLINE_CURVE_WITH_KNOTS((1,2
    ,2,2,2,1),(-2.094395102393,0.,2.094395102393,4.188790204786,
6.28318530718,8.377580409573),.UNSPECIFIED.) CURVE() 
GEOMETRIC_REPRESENTATION_ITEM() RATIONAL_B_SPLINE_CURVE((1.,0.5,1.,0.5,
1.,0.5,1.)) REPRESENTATION_ITEM('') );
#1415 = CARTESIAN_POINT('',(-69.79281095,-37.));
#1416 = CARTESIAN_POINT('',(-69.79281095,23.955736626566));
#1417 = CARTESIAN_POINT('',(-17.003594525,-6.522131686717));
#1418 = CARTESIAN_POINT('',(35.7856219,-37.));
#1419 = CARTESIAN_POINT('',(-17.003594525,-67.47786831328));
#1420 = CARTESIAN_POINT('',(-69.79281095,-97.95573662656));
#1421 = CARTESIAN_POINT('',(-69.79281095,-37.));
#1422 = ( GEOMETRIC_REPRESENTATION_CONTEXT(2) 
PARAMETRIC_REPRESENTATION_CONTEXT() REPRESENTATION_CONTEXT('2D SPACE',''
  ) );
#1423 = PCURVE('',#1212,#1424);
#1424 = DEFINITIONAL_REPRESENTATION('',(#1425),#1429);
#1425 = LINE('',#1426,#1427);
#1426 = CARTESIAN_POINT('',(0.,117.8856219));
#1427 = VECTOR('',#1428,1.);
#1428 = DIRECTION('',(1.,0.));
#1429 = ( GEOMETRIC_REPRESENTATION_CONTEXT(2) 
PARAMETRIC_REPRESENTATION_CONTEXT() REPRESENTATION_CONTEXT('2D SPACE',''
  ) );
#1430 = ORIENTED_EDGE('',*,*,#1357,.F.);
#1431 = ADVANCED_FACE('',(#1432),#1212,.F.);
#1432 = FACE_BOUND('',#1433,.F.);
#1433 = EDGE_LOOP('',(#1434,#1435,#1436,#1496));
#1434 = ORIENTED_EDGE('',*,*,#1405,.F.);
#1435 = ORIENTED_EDGE('',*,*,#1199,.T.);
#1436 = ORIENTED_EDGE('',*,*,#1437,.T.);
#1437 = EDGE_CURVE('',#1111,#1333,#1438,.T.);
#1438 = SURFACE_CURVE('',#1439,(#1456,#1476),.PCURVE_S1.);
#1439 = B_SPLINE_CURVE_WITH_KNOTS('',8,(#1440,#1441,#1442,#1443,#1444,
    #1445,#1446,#1447,#1448,#1449,#1450,#1451,#1452,#1453,#1454,#1455),
  .UNSPECIFIED.,.F.,.F.,(9,7,9),(0.,0.856909499931,1.),.UNSPECIFIED.);
#1440 = CARTESIAN_POINT('',(-49.72637036393,-5.223800381802,
    7.455506117909));
#1441 = CARTESIAN_POINT('',(-48.12476334004,-4.46139010896,
    5.781150059856));
#1442 = CARTESIAN_POINT('',(-46.4988069757,-3.800552383721,
    4.101164752301));
#1443 = CARTESIAN_POINT('',(-44.85346835845,-3.238811518618,
    2.416403864707));
#1444 = CARTESIAN_POINT('',(-43.19305906962,-2.774085522772,
    0.727738508861));
#1445 = CARTESIAN_POINT('',(-41.52129980979,-2.404605132035,
    -0.963952170038));
#1446 = CARTESIAN_POINT('',(-39.84124917807,-2.128989000637,
    -2.657764900708));
#1447 = CARTESIAN_POINT('',(-38.15524534976,-1.946310074444,
    -4.352760329427));
#1448 = CARTESIAN_POINT('',(-36.1820552439,-1.841629919845,
    -6.330918661689));
#1449 = CARTESIAN_POINT('',(-35.89957730132,-1.829243930551,
    -6.613975388118));
#1450 = CARTESIAN_POINT('',(-35.61697200513,-1.819450695195,
    -6.897027711579));
#1451 = CARTESIAN_POINT('',(-35.33424419627,-1.812251101677,
    -7.180069900774));
#1452 = CARTESIAN_POINT('',(-35.05139772661,-1.807646918234,
    -7.463095957526));
#1453 = CARTESIAN_POINT('',(-34.76843545898,-1.805640793436,
    -7.746099616778));
#1454 = CARTESIAN_POINT('',(-34.48535926712,-1.806236256193,
    -8.029074346596));
#1455 = CARTESIAN_POINT('',(-34.20217003572,-1.809437715746,
    -8.312013348165));
#1456 = PCURVE('',#1212,#1457);
#1457 = DEFINITIONAL_REPRESENTATION('',(#1458),#1475);
#1458 = B_SPLINE_CURVE_WITH_KNOTS('',8,(#1459,#1460,#1461,#1462,#1463,
    #1464,#1465,#1466,#1467,#1468,#1469,#1470,#1471,#1472,#1473,#1474),
  .UNSPECIFIED.,.F.,.F.,(9,7,9),(0.,0.856909499931,1.),.UNSPECIFIED.);
#1459 = CARTESIAN_POINT('',(1.126509322259,62.930115782091));
#1460 = CARTESIAN_POINT('',(1.176912046409,64.604471840144));
#1461 = CARTESIAN_POINT('',(1.226698969369,66.2844571477));
#1462 = CARTESIAN_POINT('',(1.275967981913,67.969218035289));
#1463 = CARTESIAN_POINT('',(1.324809074731,69.657883391143));
#1464 = CARTESIAN_POINT('',(1.373310677879,71.349574070035));
#1465 = CARTESIAN_POINT('',(1.421566692371,73.043386800709));
#1466 = CARTESIAN_POINT('',(1.469682032316,74.738382229427));
#1467 = CARTESIAN_POINT('',(1.525828864775,76.716540561689));
#1468 = CARTESIAN_POINT('',(1.533862820574,76.999597288118));
#1469 = CARTESIAN_POINT('',(1.541897276015,77.282649611579));
#1470 = CARTESIAN_POINT('',(1.549932882416,77.565691800774));
#1471 = CARTESIAN_POINT('',(1.557970320237,77.848717857526));
#1472 = CARTESIAN_POINT('',(1.566010299077,78.131721516778));
#1473 = CARTESIAN_POINT('',(1.574053557675,78.414696246596));
#1474 = CARTESIAN_POINT('',(1.582100863913,78.697635248165));
#1475 = ( GEOMETRIC_REPRESENTATION_CONTEXT(2) 
PARAMETRIC_REPRESENTATION_CONTEXT() REPRESENTATION_CONTEXT('2D SPACE',''
  ) );
#1476 = PCURVE('',#1132,#1477);
#1477 = DEFINITIONAL_REPRESENTATION('',(#1478),#1495);
#1478 = B_SPLINE_CURVE_WITH_KNOTS('',8,(#1479,#1480,#1481,#1482,#1483,
    #1484,#1485,#1486,#1487,#1488,#1489,#1490,#1491,#1492,#1493,#1494),
  .UNSPECIFIED.,.F.,.F.,(9,7,9),(0.,0.856909499931,1.),.UNSPECIFIED.);
#1479 = CARTESIAN_POINT('',(3.246259664284,49.955506117909));
#1480 = CARTESIAN_POINT('',(3.234441496198,48.281150059856));
#1481 = CARTESIAN_POINT('',(3.223790971644,46.6011647523));
#1482 = CARTESIAN_POINT('',(3.214396768964,44.916403864713));
#1483 = CARTESIAN_POINT('',(3.206381623018,43.227738508854));
#1484 = CARTESIAN_POINT('',(3.199908629582,41.536047829967));
#1485 = CARTESIAN_POINT('',(3.195201394972,39.84223509929));
#1486 = CARTESIAN_POINT('',(3.192563144744,38.147239670573));
#1487 = CARTESIAN_POINT('',(3.192447881627,36.169081338311));
#1488 = CARTESIAN_POINT('',(3.192502213579,35.886024611882));
#1489 = CARTESIAN_POINT('',(3.192629532878,35.602972288421));
#1490 = CARTESIAN_POINT('',(3.192832158096,35.319930099226));
#1491 = CARTESIAN_POINT('',(3.193112564048,35.036904042474));
#1492 = CARTESIAN_POINT('',(3.193473381786,34.753900383222));
#1493 = CARTESIAN_POINT('',(3.193917398602,34.470925653404));
#1494 = CARTESIAN_POINT('',(3.194447558026,34.187986651835));
#1495 = ( GEOMETRIC_REPRESENTATION_CONTEXT(2) 
PARAMETRIC_REPRESENTATION_CONTEXT() REPRESENTATION_CONTEXT('2D SPACE',''
  ) );
#1496 = ORIENTED_EDGE('',*,*,#1381,.T.);
#1497 = ADVANCED_FACE('',(#1498),#1132,.F.);
#1498 = FACE_BOUND('',#1499,.F.);
#1499 = EDGE_LOOP('',(#1500,#1501,#1502,#1503));
#1500 = ORIENTED_EDGE('',*,*,#1108,.F.);
#1501 = ORIENTED_EDGE('',*,*,#1281,.F.);
#1502 = ORIENTED_EDGE('',*,*,#1332,.F.);
#1503 = ORIENTED_EDGE('',*,*,#1437,.F.);
#1504 = ( GEOMETRIC_REPRESENTATION_CONTEXT(3) 
GLOBAL_UNCERTAINTY_ASSIGNED_CONTEXT((#1508)) 
GLOBAL_UNIT_ASSIGNED_CONTEXT((#1505,#1506,#1507)) REPRESENTATION_CONTEXT
('Context #1','3D Context with UNIT and UNCERTAINTY') );
#1505 = ( LENGTH_UNIT() NAMED_UNIT(*) SI_UNIT(.MILLI.,.METRE.) );
#1506 = ( NAMED_UNIT(*) PLANE_ANGLE_UNIT() SI_UNIT($,.RADIAN.) );
#1507 = ( NAMED_UNIT(*) SI_UNIT($,.STERADIAN.) SOLID_ANGLE_UNIT() );
#1508 = UNCERTAINTY_MEASURE_WITH_UNIT(LENGTH_MEASURE(1.E-07),#1505,
  'distance_accuracy_value','confusion accuracy');
#1509 = PRODUCT_RELATED_PRODUCT_CATEGORY('part',$,(#7));
ENDSEC;
END-ISO-10303-21;
